<svg id="Layer_1" xmlns="http://www.w3.org/2000/svg" viewBox="0 0 361 381"><style>.st0{fill:#fff;stroke:#fff;stroke-width:3;stroke-miterlimit:10}</style><path class="st0" d="M181.2 187.4c-46.3 3-83.7 20.6-105.7 65.2-3.5 7.1-5.3 14.9-7.3 22.6-1.8 7-.3 11.4 6 16C91 303.4 96.6 326.4 88.9 346c-7.7 19.4-26.9 30.8-47.8 28.1-18.6-2.4-34.7-18.6-37.5-37.6-3.3-22.5 6.7-42.8 26.2-50.9 6.3-2.6 8.4-5.9 9.5-12.7 9.2-57.8 57-104.3 115.8-112.5 8.8-1.2 11.8-4.2 11.2-13.4-.7-12.1-.6-24.3 0-36.4.4-8-1.4-12.7-8.9-17-18-10.3-25.5-32.5-19.7-53 5.5-19.1 23.4-33 42.7-33 19.9 0 37.4 13.8 43 33.9 5.7 20.4-2.2 41.8-20.6 52.7-6.1 3.6-8.1 7.4-7.8 14.2.4 13.3.6 26.6 0 39.8-.4 8.3 2.5 10.6 10.2 12 53.9 10 93.1 39.3 112.3 94.2.6 1.8 1.3 3.6 1.5 5.4 1.6 13.8 5.8 23.9 19.9 30.9 17 8.4 22.8 31.4 17.4 50.6-5.4 19-21.5 32.3-40.1 33.1-20.3.9-38.1-11.1-44.6-29.9-6.5-19-1.7-41 13.9-52.1 9.2-6.6 8.3-13.5 6.1-22.2-10.4-41.6-47.6-74.5-91.4-80.5-6.2-.9-12.7-1.5-19-2.3z"/></svg>