<svg id="Layer_1" xmlns="http://www.w3.org/2000/svg" viewBox="0 0 361 381"><style>.st0{fill:#fff}.st1{fill:#fdfdfc}</style><path class="st0" d="M7.5 270.6V113.2c.5-.6 1.2-1.1 1.5-1.8 4.7-13.2 14.2-22.3 26.6-29 29.6-15.8 59.2-31.5 88.8-47.2C141.9 25.9 160 17.8 178 9.5h8.9c5.7 2.6 11.3 5.1 17 7.7 39.9 18.7 78.4 40 117.3 60.5 16.4 8.6 30.4 18.8 36.3 36.7v156.2c-6.3 12.8-15.4 22.7-28.5 29.8-31.3 17-62.1 34.8-93.8 51.2-15.9 8.3-32.2 16-48.2 24h-8.9l-16.2-7.8c-45-21.8-88.3-46.5-131.7-70.9-5.2-2.9-9.3-7-13.2-11.2-4.3-4.6-6.1-10.3-9.5-15.1zm18.9-79.3c0 22 .3 43.9-.1 65.9-.2 11.1 5 18.9 14.3 24.1 43.8 24.7 87.6 49.6 133.1 71.7 6.3 3.1 11.4 3.1 17.8.1 45.4-22.1 89.2-46.9 133.1-71.7 9.2-5.2 14.4-13 14.3-24.1-.3-43.5-.3-87 0-130.5.1-11.9-5.2-20.6-15.4-26.2-42.9-23.8-86.2-47.1-130.7-68.2-7.1-3.4-13.1-3.4-20.3 0-44.5 21-87.7 44.4-130.7 68.2-10.2 5.6-15.6 14.3-15.4 26.2.2 21.4 0 42.9 0 64.5z"/><path class="st0" d="M224.6 182.9c-.5-11.1-6.6-19.4-17.9-23-14.2-4.5-28.4-4-42.3 1.4-5 2-9.3 5.1-11.1 10.3-1.7 4.7-1.3 9.1 3.8 11.6 4.7 2.3 9.5 4 13.1-2 1-1.7 2.8-3.1 4.5-4.3 8.6-6.1 23-3.5 26.5 4.7 2.2 5.1 1.4 6.5-4.3 6.7-10.6.5-21.2 1.1-31.3 4.7-12.2 4.4-17.7 13.6-15.5 25.4 1.8 9.7 10.8 16.3 22.6 17.1 11.7.7 21.8-2.3 29.7-10.9 5.3 9.2 10.4 11.9 18.2 10.1 2.7-.6 4.6-1.7 4.6-4.8-.3-15.7.2-31.4-.6-47zm-32.2 31.7c-1.1 1.9-3 2.6-5 3.3-1 .3-2.2.3-3.2 0-.8.1-1.5.2-2.3.2-3.6 0-6.2-2.8-6.4-6.1-.1-1.5.8-3.3 1.9-4.3 1.2-1.1 2.9-1.8 4.5-1.8h.5c1.5-.2 2.9-.5 4.4-.5 1.7 0 3.4.7 4.6 1.8 2 1.9 2.4 5.1 1 7.4zm-50.1-54.7c-8.5-4.3-16-1.4-19.5 8-5.5 14.5-10.7 29-16.6 45.2-1.6-4.2-2.5-6.6-3.4-9.1-4.4-12.3-8.5-24.7-13.2-36.9-3.5-9-12.3-11.6-20.5-6.7-3.2 1.9-4.1 4-2.6 7.6 8.9 20 17.7 40 26.3 60.1 2.6 6.1 8 6.9 13.6 6.8 5.6-.1 10.8-1 13.4-7.1 8.4-19.9 17.1-39.8 25.9-59.6 1.9-4.3.3-6.4-3.4-8.3zm140.3-2.7c-9.2-.8-15.9 3-20.7 11.3-5.5-9.4-10.5-11.9-18.4-10-2.8.7-4.4 1.9-4.4 5 .1 20.7-.1 41.4.1 62.2.1 6.3 3.6 8.9 10.9 9.1 7.5.2 11.4-2.6 11.7-9.1.3-7.7.1-15.4.1-23.2 0-5.1.5-10.2 2.3-15 3.2-8.5 11.2-11.9 19.9-8.4 5.4 2.2 8.4.9 10.3-4.3 3.2-8.9-2.1-16.7-11.8-17.6z"/><path class="st1" d="M202.4 224.6c-8 8.6-18.1 11.6-29.7 10.9-11.9-.7-20.8-7.3-22.6-17.1-2.1-11.8 3.4-21 15.5-25.4 10.1-3.6 20.7-4.2 31.3-4.7 5.7-.3 6.5-1.6 4.3-6.7-3.5-8.2-17.9-10.7-26.5-4.7-1.7 1.2-3.5 2.6-4.5 4.3-3.6 6-8.4 4.3-13.1 2-5.1-2.5-5.5-6.9-3.8-11.6 1.9-5.2 6.1-8.3 11.1-10.3 13.9-5.5 28.1-5.9 42.3-1.4 11.3 3.6 17.3 11.9 17.9 23 .7 15.6.3 31.3.5 46.9 0 3.1-1.8 4.2-4.6 4.8-7.8 1.9-12.9-.8-18.1-10zm-8-23.8c-5.9.3-11.9.9-17.3 3.5-3.5 1.7-5.5 4.4-5.4 8.3.1 3.6 2.2 6.1 5.5 7.5 8.8 3.9 21-1.1 24.2-9.9 2.9-7.9 1.5-9.8-7-9.4zm-88.2 12.3c5.9-16.2 11.1-30.8 16.6-45.2 3.6-9.4 11-12.2 19.5-8 3.7 1.8 5.3 4 3.4 8.3-8.8 19.8-17.5 39.6-25.9 59.6-2.6 6.2-7.8 7.1-13.4 7.1-5.6.1-10.9-.6-13.6-6.8C84.2 208 75.4 188 66.5 168c-1.6-3.6-.6-5.7 2.6-7.6 8.2-4.9 17.1-2.3 20.5 6.7 4.7 12.2 8.8 24.6 13.2 36.9.9 2.5 1.8 4.9 3.4 9.1zm155.7-44.6c4.8-8.3 11.5-12.1 20.7-11.3 9.7.8 15 8.6 11.8 17.5-1.9 5.3-4.9 6.5-10.3 4.3-8.7-3.5-16.7-.1-19.9 8.4-1.8 4.8-2.3 9.9-2.3 15 0 7.7.2 15.4-.1 23.2-.3 6.5-4.1 9.3-11.7 9.1-7.3-.1-10.9-2.8-10.9-9.1-.2-20.7-.1-41.4-.1-62.2 0-3.1 1.7-4.3 4.4-5 7.9-1.8 12.9.7 18.4 10.1z"/></svg>