<svg id="Layer_1" xmlns="http://www.w3.org/2000/svg" viewBox="0 0 357 372.6"><style>.st0{fill:none;stroke:#818181;stroke-width:5}.st1{opacity:.8}</style><ellipse class="st0" cx="178.5" cy="186.3" rx="176" ry="183.8"/><ellipse class="st0" cx="178.5" cy="186.3" rx="132" ry="137.8"/><ellipse class="st0" cx="178.5" cy="186.3" rx="88" ry="91.9"/><ellipse class="st0" cx="178.5" cy="186.3" rx="44" ry="45.9"/><path class="st0" d="M178.5 2.5V370m124-54.3L54.5 56.8m248 0l-248 258.9m300-129.4H2.5"/><g class="st1"><path class="st0" d="M178.5 186.3h36c.5-3.5.5-7 0-10.4l-36 10.4zm0 0l68-89.8c-9.1-7.2-19.2-12.8-30-16.7l-38 106.5zm0 0L146.5 36c-22.7 5.2-44 15.9-62 31.3l94 119zm0 0l-116-58.5c-11.3 25.4-14.8 53.9-10 81.4l126-22.9zm0 0l-66 33.4c1.1 3.6 2.4 7.1 4 10.4l62-43.8zm0 0l-20 94c11.9 2.5 24.1 2.5 36 0l-16-94z"/><path class="st0" d="M178.5 186.3l92 121.1c8.9-7.4 16.9-15.8 24-25.1l-116-96z"/></g></svg>