<svg id="Layer_1" xmlns="http://www.w3.org/2000/svg" xmlns:xlink="http://www.w3.org/1999/xlink" viewBox="-49 99 346.2 335.1"><style>.st0{clip-path:url(#SVGID_2_)}.st1{fill:#fff}.st2{clip-path:url(#SVGID_4_)}.st3{clip-path:url(#SVGID_6_)}.st4{clip-path:url(#SVGID_8_)}.st5{clip-path:url(#SVGID_10_)}.st6{clip-path:url(#SVGID_12_)}</style><title>integration-tile</title><defs><path id="SVGID_1_" d="M-39 323c2.4 7.9 5.1 14.3 8.1 19.2 2.1 2.7 4.3 4 6.5 3.9 4.5.7 8.7-7.4 10.8-20.7 2.3-13.8 3.5-31.4 3.5-52.8 0-20-1-35.8-3.1-47.4-1.9-11.5-5.7-18.4-9.6-17.7-2.9.1-5.7 2.7-8.2 7.5-3.1 6.1-5.8 13.8-8.1 23l.1 85zm-10 111.1V182.6h10v34.5c1.7-11.7 4.4-21.7 7.7-29 3.2-6.6 6.9-10 10.7-9.7 6.8 0 12 8.4 15.7 25.1S.7 242.1.7 269.1c0 17.1-.8 34.1-2.6 50.1-1.5 14.9-4.3 28.1-8 37.9-3.5 9.3-7.9 14.2-12.3 14.1-2.4-.2-4.8-1.1-7.2-2.7-3-1.8-6.1-9.3-9.5-22.6V434H-49z"/></defs><use xlink:href="#SVGID_1_" overflow="visible" fill="#fff"/><clipPath id="SVGID_2_"><use xlink:href="#SVGID_1_" overflow="visible"/></clipPath><g class="st0"><path class="st1" d="M-55.8 155.8H7.4v300.8h-63.2z"/></g><defs><path id="SVGID_3_" d="M44.1 325.6v-47.9l-3.3-.4c-4.7-.6-9.4 2.9-13.6 10.2-3.6 6.8-5.4 16-5.4 27.7 0 7.8 1 15.2 2.7 20.4 1.7 5.4 3.9 8.4 6.3 8.3 2.3 0 4.5-1.6 6.5-4.5 2.4-3.6 4.7-8.3 6.8-14v.2zm1.5 41.2v-23.4c-2.7 8.3-5.7 15.3-8.9 20.7-2.7 4.4-5.6 6.8-8.6 7-4-.1-7.9-4.6-11-12.9-3.4-8.6-5.1-21.2-5.1-37.9 0-18 2.7-34.8 7.1-44.9 4.8-11.8 12.3-17.7 22.8-17.7h2.4v-22.2c.1-6.7-.2-13.3-1.1-19.3-.8-4.3-2-7.6-3.4-9.4-1.8-2.4-3.8-3.6-5.7-3.4-6.1.7-12 6.3-17.3 16.3v-27.4c6.1-8.6 12.7-13.2 19.3-13.6 3.1-.1 6.2 1.7 9.1 5.2 2.6 3.1 4.9 8.8 6.6 16.3 1.6 7.4 2.5 19.3 2.5 35.8v131l-8.7-.2z"/></defs><use xlink:href="#SVGID_3_" overflow="visible" fill="#fff"/><clipPath id="SVGID_4_"><use xlink:href="#SVGID_3_" overflow="visible"/></clipPath><g class="st2"><path class="st1" d="M5 156h55.9v237.8H5z"/></g><defs><path id="SVGID_5_" d="M232.1 325.3v-47.6l-3.3-.3c-4.7-.6-9.4 2.9-13.6 10.2-3.6 6.8-5.4 16-5.4 27.7 0 7.8 1 15.2 2.7 20.4 1.7 5.4 3.9 8.4 6.3 8.3 2.3 0 4.5-1.6 6.5-4.5 2.4-3.6 4.7-8.3 6.7-14l.1-.2zm1.5 41.4v-23.3c-2.7 8.3-5.7 15.3-8.9 20.7-2.7 4.4-5.6 6.8-8.6 7-4-.1-7.9-4.6-11-12.9-3.4-8.6-5.1-21.2-5.1-37.9 0-18 2.7-34.8 7.1-44.9 4.8-11.8 12.3-17.7 22.8-17.7h2.4v-22.2c.1-6.7-.2-13.3-1.1-19.3-.8-4.3-2-7.6-3.4-9.4-1.8-2.4-3.8-3.6-5.7-3.4-6.1.7-12 6.3-17.3 16.3v-27.4c6.1-8.6 12.7-13.2 19.3-13.6 3.1-.1 6.2 1.7 9.1 5.2 2.6 3.1 4.9 8.7 6.6 16.1 1.6 7.4 2.5 19.3 2.5 35.8v131.1l-8.7-.2z"/></defs><use xlink:href="#SVGID_5_" overflow="visible" fill="#fff"/><clipPath id="SVGID_6_"><use xlink:href="#SVGID_5_" overflow="visible"/></clipPath><g class="st3"><path class="st1" d="M193.1 156H249v237.8h-55.9z"/></g><defs><path id="SVGID_7_" d="M74.2 367V182.6h10v34.5c2.3-11.6 5.3-21.3 8.9-28.6 3.2-6.5 6.8-10 10.5-10.1 4.3-.6 8.4 4.8 11.4 14.8 2.9 9.9 4.4 23.7 4.4 41.2V367h-10V245.4c0-12.8-.3-21.2-1-25.3-.7-4-1.6-7.3-2.8-9.4-1.2-2.2-2.5-3.3-3.9-3.3-2.8.4-5.5 3-7.9 7.6-2.9 5.1-6 16-9.3 32.6V367H74.2z"/></defs><use xlink:href="#SVGID_7_" overflow="visible" fill="#fff"/><clipPath id="SVGID_8_"><use xlink:href="#SVGID_7_" overflow="visible"/></clipPath><g class="st4"><path class="st1" d="M67.4 155.8h58.8v233.8H67.4z"/></g><defs><path id="SVGID_9_" d="M174.3 226.5c-2.4-7.8-5.2-14.2-8.2-19-2.1-2.6-4.3-3.9-6.5-3.8-4.5-.7-8.7 7.3-10.8 20.6-2.4 13.7-3.6 31.4-3.6 53 0 20.1 1 35.9 3.1 47.4 2 11.4 5.7 18.1 9.7 17.3 2.9-.1 5.8-2.7 8.3-7.6 3.1-5.9 5.8-13.6 8.1-22.6l-.1-85.3zm0 140.5v-34.6c-1.7 11.8-4.4 21.8-7.6 29.1-3.2 6.7-7 10-10.7 9.8-6.8 0-12-8.3-15.8-25-3.7-16.7-5.6-38.6-5.6-65.7 0-29.2 2.1-53.6 6.3-73 3.9-18.9 10.4-29.9 17.2-29.2 2.1 0 4.1.8 6.1 2.5 1.8 1.5 3.6 4 5.2 7.2 1.9 4.3 3.6 9.4 5 15.4V99h10v268h-10.1z"/></defs><use xlink:href="#SVGID_9_" overflow="visible" fill="#fff"/><clipPath id="SVGID_10_"><use xlink:href="#SVGID_9_" overflow="visible"/></clipPath><g class="st5"><path class="st1" d="M127.7 76.4h63.4v317.5h-63.4z"/></g><defs><path id="SVGID_11_" d="M260 360.6v-30.8c6.6 10.8 12.3 16.3 17.1 16.3 2.6.3 5.1-2.5 7.2-7.8 1.8-4.6 2.9-11.9 2.8-19.5 0-5.1-.5-10.1-1.4-14.3-.9-4.6-3.1-9.3-6.6-14.1l-5.9-8.3c-3.8-4.5-7.2-12-9.9-21.7-2.1-8.5-3.2-19.2-3.1-30.2-.1-14.1 1.7-27.7 4.9-37 3.2-9.9 8-14.8 14.3-14.8 3.9.3 7.7 1.7 11.5 4.2l2.1 1.4v28c-4.3-4.9-8.9-7.8-13.4-8.5-2.6-.7-5.2 1.8-7.3 7-1.5 4-2.4 10.1-2.4 16.5 0 5.1.6 9.9 1.6 13.6 1.6 5.4 3.6 9.5 5.7 12.2l4.8 6.8c6.5 9 10.6 18.1 12.4 27.1 1.8 8.6 2.7 18.8 2.7 29.2 0 9.9-.8 19.7-2.5 28-1.8 9-4.3 16-7.3 20.2-3.4 5-7 7.5-10.7 7.3-5.6-.8-11.2-4.4-16.6-10.8z"/></defs><use xlink:href="#SVGID_11_" overflow="visible" fill="#fff"/><clipPath id="SVGID_12_"><use xlink:href="#SVGID_11_" overflow="visible"/></clipPath><g class="st6"><path class="st1" d="M253.3 155.7H304V394h-50.7z"/></g></svg>