<svg id="Layer_1" xmlns="http://www.w3.org/2000/svg" viewBox="0 0 151.7 66.3"><style>.st0{fill:#fff}</style><path class="st0" d="M-364.6-137.3c0 18.4-.1 36.9 0 55.3 0 5.4-.6 6.3-2.7 6.2-5.9-.3-5.9-.1-5.9-14.6 0-50.5 0-101.1-.1-151.6 0-5.1.5-7.2 2.6-6.2.2.1.4 0 .6 0 5.2 0 5.2 0 5.5 12.3.3 1 .5 2.1.6 3.3 0 .4.1 1.1.1 1.1.4.1.2-.8.3-1.3.1-1.2.3-2.3.7-3.1v.1c.5-1.5 1.1-2.8 1.7-4.1.3-1 .8-1.4 1.3-1.6.8-.1 1.5-.9 2.1-2.5l-.1-.3c.4-.7.9-1.3 1.4-1.4.8 0 1.5-.9 2.1-2.3l-.1-.4c.5-.9 1-1.4 1.6-1.5.6-.1 1.2-.1 1.7-.1h5.1c.6 0 1.2 0 1.8.1.6.1 1.2.6 1.7 1.5l-.1.4c.6 1.5 1.3 2.3 2.1 2.4.5.1 1 .7 1.4 1.4l-.1.2c.5 1.6 1.2 2.4 2.1 2.5.5.2 1 .6 1.3 1.6v.1c.6 1.3 1.2 2.7 1.7 4.1.6 1.4 1.2 2.7 1.7 4.2v-.1c.4.9.6 2 .6 3.2 0 2 .4 3.7 1 5.1l.1-.2c.3 1 .5 2 .6 3.3 0 2 .4 3.7 1 5.1l.1-.2c.4 1.1.6 2.4.6 3.9v7.8c0 1.9.3 3.5.9 4.8.1 2.7.1 5.4.2 8.2.4 1.2.6 2.6.6 4.1 0 1.5-.2 2.9-.6 4.1-.1 2.7-.1 5.4-.2 8.2-.6 1.3-.9 2.8-.9 4.7v7.9c0 1.5-.3 2.7-.6 3.9-.1 1.3-.1 2.6-.2 3.9-.6 1.4-1 3-1 5.1-.1 1.2-.3 2.3-.6 3.2l-.1-.1c-.5 1.5-1.1 2.7-1.6 4.3l-.1-.1c-.7 1.3-1 2.9-1.1 5-.1 1.2-.3 2.3-.7 3.2-.3 1-.8 1.4-1.3 1.6-.7.1-1.3.6-1.7 2.3-.1.5-.3.8-.5 1.2-.6.9-1.1 2-1.6 3.1l.1.3c-.5.8-1 1.4-1.5 1.5-.5.1-1.1.1-1.6.1-.8-.1-1.5.8-2 2.2l.1.4c-.5.9-1.1 1.5-1.8 1.5-1.1.2-2.2.2-3.3 0-.7 0-1.2-.6-1.8-1.5-.6-.2-1.1-.3-1.7-.5-.5-1.4-1.2-2.2-2-2.2-.5 0-1.1 0-1.6-.1-.6-.1-1.1-.7-1.5-1.5l.1-.3c-.5-1-1-2.2-1.6-3-.2-.3-.4-.7-.5-1.2-.3-1.2-.7-2.2-1.2-2.9-.2-.3-.4-.7-.5-1.2-.4-1.4-.8-2.7-1.3-3.8l-.1.1c-.2-2.1-.7-2.1-1.3-.2zm189 16.1h-5.1c-.5-1.4-1.2-2.2-2-2.2-.5 0-1.1 0-1.6-.1-.6-.1-1.1-.6-1.6-1.5l.1-.3c-.6-1.5-1.2-2.4-2.1-2.4-.5-.1-1-.6-1.3-1.5v-.1c-.6-1.2-1.1-2.7-1.8-4-.6-1.4-1.1-2.7-1.7-4.1v.1c-.5-1.5-1.1-2.7-1.6-4.3l-.1.1c-.4-.9-.6-2-.6-3.2 0-2-.4-3.7-1-5.1l-.1.2c-.3-1.1-.6-2.3-.6-3.7v-3.9c0-2-.3-3.5-.9-4.8l-.2.2c-.4-1.2-.6-2.5-.6-4V-203c0-1.5.2-2.8.6-4 .1-1.3.1-2.7.2-4 .6-1.3.9-3 1-5 0-1.3.3-2.4.6-3.4l.1.2c.6-1.4 1-3 1-5.1 0-1.3.3-2.3.6-3.3l.1.1c.5-1.2.9-2.4 1.3-3.8.1-.5.3-.8.5-1.2.5-.7.9-1.7 1.2-2.9.1-.5.3-.9.5-1.2.5-.7.9-1.7 1.2-2.9.1-.5.3-.9.5-1.2.6-.9 1.1-2 1.6-3.1l-.1-.3c.4-.8.8-1.3 1.4-1.4.8 0 1.5-.9 2.1-2.3l-.1-.4c.5-.9 1-1.4 1.6-1.5.6-.1 1.2-.1 1.7-.1h5.1c.6 0 1.2 0 1.8.1.6.1 1.2.6 1.7 1.5.5.1 1.1.3 1.6.4.6 1.4 1.3 2.3 2.1 2.4.5.2 1 .6 1.3 1.5l-.1.2c.6 1.2 1.2 2.7 1.8 3.9v.1c.6 1.3 1.1 2.7 1.7 4.1v-.1c.4 1.3 1 2.3 1.6 3.2.2.3.3.6.5 1 1.2-.1.2-2.2.5-3.2V-288c0-3.1-.2-6.4.9-9 2.2 0 4.5 0 6.7-.1 1 2.3.9 5.3.9 8.3v155.4c0 3 .1 6-.9 8.3-2.2 0-4.5 0-6.7-.1-.9-2.1-.7-4.8-.8-7.4-.1-2.3.3-4.9-.7-6.7-.7-.5-1.2.1-1.6 1.5-.1.5-.3.9-.5 1.2-.5.7-.9 1.7-1.2 2.9-.1.5-.3.9-.5 1.2-.5.7-.9 1.7-1.2 2.9-.1.5-.3.9-.5 1.2-.6.9-1.1 2-1.6 3.1l.1.3c-.5.9-1 1.4-1.6 1.5-.6.1-1.1.1-1.7.1h-1.6c-.7-.1-1.3.7-1.9 2.2zm69.9-123c.5.1 1.1.2 1.6.3.7 1.1 1.2 2.7 1.8 3.9v.1c.6 1.3 1.1 2.7 1.7 4 .5 1.5 1.1 2.7 1.6 4.2l.1-.1c.4.9.5 2 .6 3.2 0 2 .4 3.7 1 5.1l.1-.2c.3 1.1.6 2.3.6 3.7v3.9c0 2 .3 3.5.9 4.9l.2-.2c.4 1.2.6 2.5.6 4 .1 1.5 0 2.9 0 4.4v9.5c.1 20.1 0 40.2 0 60.3 0 2.7.1 5.4-.6 7.8-2.2 3.5-4.5 2.6-6.8 1-1.4-3-.9-7.1-1-10.8-.1-1.7.4-4.3-1-4.4-.9 0-.9 1.6-1 3-.1 1.3-.3 2.4-.7 3.3-.5 1.5-1.1 2.9-1.7 4.1-.3 1-.8 1.4-1.3 1.6-.8.1-1.5 1-2.1 2.4l.1.3c-.5.8-1 1.4-1.5 1.5-.5.1-1.1.1-1.6.1-.8-.1-1.5.7-2 2.1-.6.2-1.1.3-1.7.5-.5.9-1.1 1.5-1.8 1.5-1.1.2-2.2.2-3.3 0-.7 0-1.2-.6-1.8-1.5-.6-.1-1.1-.3-1.7-.4-.6-1.5-1.3-2.3-2.1-2.3-.5-.1-1-.7-1.4-1.4-.5-.1-1.1-.2-1.6-.3-.7-1.2-1.2-2.7-1.8-3.9v-.1c-.6-1.3-1.2-2.7-1.7-4.1v.1c-.5-1.5-1.1-2.7-1.6-4.3l-.1.1c-.4-1-.6-2.3-.7-3.7-.1-1.3 0-2.6-.1-3.9 0-2-.3-3.5-.9-4.9l-.2.2c-.4-1.2-.6-2.5-.6-4v-12.7c0-1.5.3-2.8.6-4l.2.2c.6-1.3.9-2.9.9-4.8v-3.9c0-1.4.3-2.6.6-3.7l.1.1c.5-1.5 1.1-2.8 1.6-4.3v.1c.6-1.3 1.1-2.7 1.7-4.1v-.1c.6-1.2 1.1-2.7 1.8-3.9l-.1-.2c.4-.9.9-1.3 1.4-1.5.8-.1 1.5-.9 2.1-2.3.5-.1 1.1-.3 1.6-.4.5-.9 1-1.4 1.6-1.5.6-.1 1.2-.1 1.7-.1h3.3c.8.1 1.4-.7 2-2.1 4.5-.1 9-.2 13.6-.4.6-.9 1-2.1 1-3.9.1-1.8-.4-3-.9-4.2-.1-1.3-.1-2.6-.2-4-.3-1-.5-2.1-.6-3.3 0-1.7-.3-3.2-1-4.1-.2-.3-.3-.7-.5-1.2-.4-1.7-1-2.2-1.7-2.3-.5-.1-1-.6-1.3-1.4l.1-.3c-.6-1.4-1.2-2.4-2.1-2.4-.5-.1-1-.6-1.4-1.3-.6-.1-1.1-.3-1.7-.4-.5-1.4-1.1-2.2-1.9-2.2h-4.6c-.8-.1-1.4.7-2 2.2-.6.2-1.1.3-1.7.5-.5.8-1 1.3-1.5 1.4-.5.1-1.1.1-1.6.1-.8-.1-1.5.8-2 2.2-.5.1-1.1.3-1.6.4-.5.9-1.1 1.4-1.7 1.4-.6 0-1.2-.5-1.7-1.6v-12.2c.3-1.1.8-1.5 1.4-1.7.8-.1 1.5-.9 2-2.4l-.1-.4c.5-.8 1-1.4 1.6-1.4.5-.1 1.1-.1 1.6-.1.8.1 1.5-.7 2-2.1.6-.1 1.1-.3 1.7-.4.5-.9 1-1.4 1.6-1.4.6-.1 1.2-.1 1.7-.1h6.8c.6 0 1.2 0 1.8.1.6.1 1.2.6 1.7 1.5.6.1 1.1.3 1.7.4.6 1.5 1.2 2.2 2.1 2.3 1 0 1.4.5 1.8 1.3zm-195.9 123.4c-.6-.2-1.1-.3-1.7-.5-.5-1.4-1.2-2.2-2-2.2-.5 0-1.1 0-1.6-.1-.6-.1-1.1-.7-1.5-1.5l.1-.2c-.6-1.2-1.1-2.7-1.8-3.8v-.1c-.6-1.4-1.1-2.8-1.7-4.1v.1c-.5-1.5-1.1-2.8-1.6-4.3l-.1.1c-.3-1-.5-2-.6-3.3 0-2-.4-3.7-1-5.1l-.2.2c-.4-1.2-.6-2.5-.6-3.9v-21c0-1.5.3-2.8.6-4l.2.2c.6-1.4 1-3 1-5.1 0-1.3.3-2.3.6-3.3l.1.2c.5-1.2.9-2.4 1.3-3.8.1-.5.3-.8.5-1.2.5-.7.9-1.7 1.2-2.9.1-.5.3-.9.5-1.2.6-.9 1.1-2 1.6-3.1l-.1-.3c.4-.8.8-1.3 1.4-1.4.8 0 1.5-.9 2.1-2.4l-.1-.4c.5-.9 1-1.4 1.6-1.5.6-.1 1.2-.1 1.8-.1h3.3c1.2-.1 2.6.5 3.5-2.1 4.5-.1 9-.2 13.6-.3.8-1.2.8-2.5.2-4-.1-1.3-.1-2.7-.2-4-.3-1-.5-2.1-.6-3.4 0-2-.4-3.6-1-4.9l-.1.1c-.5-1.5-1.1-2.8-1.7-4.2-.6-1.2-1.1-2.7-1.8-3.9l.1-.3c-.6-1.5-1.2-2.4-2.1-2.4-.5-.1-1-.6-1.4-1.3-.6-.1-1.1-.3-1.7-.4-.5-1.4-1.1-2.2-1.9-2.2h-4.6c-.8-.1-1.4.7-2 2.2-.6.2-1.1.3-1.7.5-.5.9-1 1.3-1.6 1.4-.6.1-1.1.1-1.7.1h-1.6c-.8-.1-1.4.8-2 2.2l.1.3c-.5.9-1.1 1.5-1.8 1.4-.6 0-1.3-.3-1.8-1.3-.9-3.4-.6-7-.5-10.6.1-.6.2-1.3.3-1.8.6-1.6 1.4-2.5 2-4.1.5-.1 1.1-.3 1.6-.4.5-.8 1-1.3 1.6-1.4.5-.1 1.1-.1 1.6-.1.8.1 1.5-.7 2-2.1.6-.2 1.1-.3 1.7-.5.5-.9 1.1-1.4 1.7-1.5.6-.1 1.2-.1 1.8-.1.6-.1 1.2 0 1.8 0h4.9c.6 0 1.2 0 1.8.1.6.1 1.2.6 1.7 1.5.6.1 1.1.3 1.7.4.6 1.4 1.2 2.2 2.1 2.3.5.1 1 .7 1.4 1.4l-.1.3c.6 1.5 1.2 2.4 2.1 2.4.5.2 1 .6 1.3 1.5v.1c.6 1.3 1.2 2.7 1.7 4.1.6 1.4 1.2 2.7 1.7 4.2v-.1c.4.9.6 2 .7 3.2 0 2 .4 3.7 1 5.1l.1-.2c.4 1.1.6 2.4.6 3.9v7.8c0 1.9.3 3.5.9 4.8.1 2.7.1 5.4.2 8.2.5 1.4.7 3.2.7 5 .1 20.6 0 41.2.1 61.9 0 2.5-.1 5-.8 7l-.1-.1c-2.1 3.3-4.2 2.4-6.4 1.1-1.2-1.9-1-5-1.1-7.8-.2-2.5.5-5.4-.7-7.3-.9-.6-1.4.4-1.9 2v-.1c-.6 1.2-1.1 2.9-1.6 4.3-.6 1.2-1.3 2.4-1.8 3.8l.1.2c-.7 1.1-1.1 2.7-1.8 3.8l.1.2c-.4.9-.9 1.5-1.5 1.5-.5.1-1.1.1-1.6.1-.8-.1-1.5.7-2 2.1-.6.2-1.1.3-1.7.5-.5 1-1.1 1.5-1.8 1.5-1.1.2-2.2.2-3.3 0-.7-.1-1.3-.6-1.8-1.6zm86.8-110.8c0 1.3.1 2.5.1 3.8.3 1 .5 2.2.6 3.5 0 1.9.3 3.6.9 4.9.1 1.3.1 2.7.2 4 .4 1.2.6 2.5.6 4 .1 1.5 0 2.9 0 4.4v9.5c.1 21.3 0 42.6 0 63.9 0 2.9.1 6-.9 8.3h-6.7c-1-2.3-.9-5.3-.9-8.3V-206c.1-2.1-.2-3.9-.9-5.3-.1-1.3-.1-2.7-.2-4-.3-1-.5-2.1-.6-3.3 0-2-.4-3.7-1-5l-.1.1c-.5-1.5-1.1-2.9-1.7-4.1v-.1c-.5-1.6-1.2-2.5-2.1-2.5-.5-.1-1-.7-1.4-1.4l.1-.4c-.5-1.3-1.1-2.3-1.9-2.2h-3c-.8 0-1.4.8-1.9 2.2-.6.1-1.1.3-1.7.4-.4.7-.9 1.3-1.4 1.4-.8.1-1.5.9-2 2.4l.1.2c-.6 1.1-1.2 2.6-1.8 3.9-.6 1.4-1.1 2.7-1.7 4.2l-.1-.1c-.6 1.4-1 3-1 5.1 0 1.3-.3 2.3-.6 3.3l-.1-.2c-.6 1.3-1 2.9-.9 4.8v8.4c.1 1.6 0 3.2 0 4.8.1 20 0 39.9 0 59.9 0 3 .1 6-.9 8.3-2.2-.1-4.5-.1-6.7-.2-1-2.4-.8-5.4-.8-8.4v-105.9c0-2.9-.2-6 .8-8.4 2.2-.1 4.5-.1 6.7-.2 1.2 3.2.8 7.2.9 11v4c.1.6-.2 2.3.6 1.5.2-.4.3-.7.5-1 .5-.7.9-1.7 1.2-2.9.1-.5.3-.9.5-1.2.6-.9 1.1-1.9 1.6-3.2v-.1c.7-1.1 1.2-2.7 1.8-3.9l-.1-.2c.4-.8.8-1.3 1.4-1.4.8 0 1.5-.9 2.1-2.3l-.1-.4c.5-.9 1-1.4 1.6-1.5.6-.1 1.2-.1 1.7-.1h5.1c.6 0 1.2 0 1.8.1.6.1 1.2.6 1.7 1.5.5.1 1.1.3 1.6.4.6 1.4 1.3 2.3 2.1 2.3.5.1 1 .6 1.3 1.5l-.1.2c.6 1.2 1.2 2.7 1.8 3.9.6 1.4 1.1 2.7 1.7 4.2l.1-.1c1 1.6 1.6 2.8 2.1 4.4zm168.7-12.7c1 .1 1.8.2 1.7 3.6-.2 4.3-.1 8.6-.1 12.9-.4 1.2-1 1.6-1.6 1.7-.6 0-1.2-.5-1.7-1.4l.1-.4c-.5-1.3-1.2-2.3-2-2.2h-1.6c-.6 0-1.1 0-1.7-.1-.6-.1-1.1-.6-1.6-1.5l.1-.4c-.6-1.4-1.3-2.4-2.1-2.2-.5 0-1 .1-1.6.1h-2.9c-.5 0-1 0-1.6-.1-.9-.2-1.6.7-2.2 2.1l.1.4c-.5.8-1 1.3-1.6 1.4-.5.1-1.1.1-1.6.1-.8-.1-1.5.8-2 2.3v.1c-.6 1.2-1.2 2.6-1.7 4.1l-.1-.1c-.6 1.2-1 2.6-1 4.6v7.2c0 2 .4 3.4.9 4.7l.1-.1c.5 1.5 1.1 2.9 1.7 4.1l.1.4c.6 1.5 1.2 2.4 2.1 2.5.5.1 1 .7 1.4 1.4l-.1.4c.5 1.4 1.2 2.3 2 2.2h1.6c.6 0 1.1 0 1.7.1.6.1 1.1.6 1.6 1.5l-.1.4c.5 1.3 1.2 2.3 2 2.2h1.6c.6 0 1.1 0 1.7.1.6.1 1.1.6 1.6 1.5l-.1.4c.6 1.4 1.3 2.3 2.1 2.4.5.1 1 .7 1.4 1.4l-.1.3c.6 1.5 1.2 2.4 2.1 2.4.5.2 1 .6 1.3 1.5v.1c.6 1.3 1.2 2.7 1.7 4.1v-.1c.4.9.6 2 .6 3.2 0 2 .4 3.7 1 5.1l.1-.2c.4 1.2.6 2.6.6 4.1.1 1.5 0 2.9 0 4.4v12.1c0 1.6-.3 2.9-.6 4.2l-.1-.2c-.6 1.4-1 3-1 5.1 0 1.3-.3 2.3-.6 3.3l-.1-.1c-.5 1.4-1.1 2.8-1.7 4.2-.6 1.2-1.1 2.7-1.8 3.9l.1.2c-.4.9-.8 1.3-1.3 1.5-.8.1-1.5.9-2.1 2.4l.1.4c-.5.8-1 1.4-1.5 1.4-.5.1-1.1.1-1.6.1-.8-.1-1.5.7-2 2.1-.6.2-1.1.3-1.7.5-.5.9-1.1 1.4-1.7 1.5-.6.1-1.2.1-1.8.1h-3.2c-.6 0-1.2 0-1.8-.1-.6-.1-1.2-.6-1.7-1.5-.6-.2-1.1-.3-1.7-.5-.5-1.4-1.2-2.2-2-2.2h-1.6c-.6 0-1.1 0-1.7-.1-.6-.1-1.1-.6-1.6-1.5l.1-.4c-.5-1.3-1.1-2.3-1.9-2.3-.5-.2-1.1-.4-1.5-1.1-.2-.5-.4-1.1-.5-1.7-.4-4.6-.4-9.3 0-13.9.1-.7.3-1.3.5-1.8.6-.8 1.2-.6 1.7.3l-.1.3c.5 1.4 1.2 2.3 2 2.3.5 0 1.1 0 1.6.1.6.1 1.1.6 1.6 1.4l-.1.4c.5 1.3 1.1 2.3 2 2.2h3.3c.6 0 1.2 0 1.7.1.6.1 1.2.6 1.6 1.5h3.4c.5-.9 1-1.3 1.6-1.4.6-.1 1.1-.1 1.7-.1h1.6c.8.1 1.4-.9 2-2.2l-.1-.3c.4-.8.9-1.3 1.4-1.4.9 0 1.4-1.2 1.4-3.3 0-1.3.3-2.4.6-3.3l.1.2c.5-1.3 1-2.7.9-4.7v-7.2c0-2-.4-3.4-1-4.5v.1c-.4-1.5-.9-2.4-1.5-3.3-.2-.3-.4-.7-.5-1.2-.4-1.6-.9-2.3-1.7-2.2-.5 0-1 0-1.5-.1-.6-.1-1.1-.6-1.5-1.4l.1-.4c-.5-1.3-1.2-2.3-2-2.2h-1.6c-.6 0-1.1 0-1.7-.1-.6-.1-1.1-.6-1.6-1.5l.1-.4c-.5-1.3-1.2-2.3-2-2.2h-1.6c-.6 0-1.1 0-1.7-.1-.6-.1-1.1-.7-1.6-1.5l.1-.3c-.6-1.4-1.3-2.4-2.1-2.4-.5-.1-1-.6-1.3-1.5l.1-.2c-.6-1.2-1.2-2.7-1.8-3.9v-.1c-.6-1.4-1.1-2.7-1.7-4.2l-.1.1c-.3-.9-.5-2-.6-3.2 0-2-.4-3.7-1-5.1l-.2.2c-.4-1.2-.6-2.5-.6-4v-12.7c0-1.5.3-2.8.6-4l.2.2c.6-1.4 1-3 1-5.1 0-1.3.3-2.3.6-3.3l.1.1c.5-1.1.9-2.4 1.3-3.8.1-.5.3-.8.5-1.2.5-.7.9-1.7 1.2-2.9.1-.5.3-.9.5-1.2.6-.9 1.1-2 1.6-3.1l-.1-.3c.4-.8.8-1.3 1.4-1.4.8 0 1.5-.9 2.1-2.3.6-.1 1.1-.3 1.7-.4.5-.9 1-1.4 1.6-1.4.6-.1 1.2-.1 1.7-.1h10.2c.6 0 1.2 0 1.8.1.6.1 1.2.6 1.7 1.5l-.1.4c.6 1.4 1.2 2.3 2 2.2.5 0 1.1 0 1.6.1.6-.3 1.1.2 1.5 1z"/><path class="st0" d="M-153.5-125.3v-172c2.3-.9 1.8 3.3 1.8 6.2v160.4c0 2.9.3 6.3-1.8 5.4zm-100.4-122.6v122.6c-2.2 1.4-1.7-2.4-1.7-5.1v-113c0-3-.1-5.8 1.7-4.5zm34 49c0 24.5.1 49.1.1 73.6-1.4.7-1.8-.6-1.8-3.9.1-23.3.1-46.5.1-69.8.6-1 1.1-1 1.6.1zm6.8 73.6c0-24.6.1-49.1.1-73.7.5-1.1 1-1.1 1.5 0 0 23.2 0 46.4.1 69.7.1 3.3-.3 4.8-1.7 4zm-34.1.1c.1-23.2.1-46.4.2-69.6.5-1.2 1.1-1.1 1.6 0v63.9c0 3 .2 6.2-1.8 5.7zm151.6-.1c.1-23.2.1-46.4.2-69.6.5-1.1 1-1.1 1.5.1v69.5c-.3 1.1-.7 1.3-1.2 1-.2-.1-.4-.5-.5-1zm-177 .2c0-23.2.1-46.5.1-69.7.5-1.1 1.1-1.1 1.6 0v63.8c0 2.8.2 6.2-1.7 5.9zm112.4-172.1c0 21.8-.1 43.5-.1 65.3-.5 1.3-1.1 1.3-1.7.5l.1-.5c-.5-1.3-.4-2.7-.1-4.1 0-18.7 0-37.3.1-56 0-2.8-.4-6.4 1.7-5.2zM-308.4-2.3h-22.1c-.5-1.3-.5-2.5 0-3.8h22.1c.5 1.4.5 2.6 0 3.8zm0 16.4h-22.1c-.5-1.3-.5-2.5 0-3.8h22.1c.5 1.4.5 2.6 0 3.8zm136.3 16.7c-.1 1.3-.1 2.6-.2 3.9-.4 1.2-.9 1.2-1.4.8-.2-.3-.4-.8-.6-1.4-.2-1.2-.3-2.6-.3-3.9v-4c0-1.4.3-2.7.6-3.8l.2.2c.6-1.3.9-2.8.9-4.8V9.9c0-1.5.3-2.7.6-3.9l.2.2c.4-1.2.9-1.2 1.5-.8.2.3.4.8.6 1.4.2 1.3.3 2.6.2 3.9 0 1.4-.2 2.6-.5 3.7v8.1c.3 1.1.4 2.2.3 3.5-.1.6-.2 1-.4 1.5-.7.9-1.3 1.8-1.7 3.3zm51-57.4c1.6-.5 1.8 1.9 1.8 4.9V1.8c-.7 1.5-1.3 1.3-1.9-.1-1-9.5-1.2-18.9.1-28.3z"/><path class="st0" d="M-121.1-26.6c0 9.5.1 19 .1 28.5-.1.3-.2.5-.3.8-.4.5-.8.5-1.2 0-.1-.3-.2-.5-.3-.8 0-8 .1-16.1 0-24.1 0-2.9.2-5 1.7-4.4zm-76.7 0c1.6-.5 1.8 1.9 1.8 4.9V1.8c-.7 1.5-1.3 1.3-1.9-.1-.9-9.5-1.2-18.9.1-28.3z"/><path class="st0" d="M-197.8-26.6c0 9.5.1 19 .1 28.5-.1.3-.2.5-.3.8-.4.5-.8.5-1.2 0-.1-.3-.2-.5-.3-.8 0-8 .1-16.1 0-24.1.1-2.9.3-5 1.7-4.4zm1.8 32.9v23.4c0 3.1-.2 5.4-1.8 5-.5-1.3-.7-2.9-.7-4.7.2-7.9-.7-16 .6-23.7.7-1.3 1.3-1.4 1.9 0zm76.7 0v23.4c0 3.1-.2 5.4-1.8 5-.5-1.3-.7-2.9-.7-4.7.2-7.9-.7-16 .6-23.7.6-1.3 1.2-1.4 1.9 0zm-13.6-4.1l10.1-.3.1.3c.4 1.1.4 2.2.2 3.5l-.3.6-10.1-.3c-.5-1.3-.5-2.6 0-3.8z"/><path class="st0" d="M-119.3 6.3c-.5 0-1.1 0-1.6-.1l-.3-.6c-.3-1.2-.2-2.4.2-3.5l.1-.3h1.6c2.8.1 5.7.3 8.5.4.5 1.2.5 2.4 0 3.7-2.9.1-5.7.3-8.5.4zm-78.3 0c0 8.1-.1 16.2-.1 24.4-.5 1.2-1 1.2-1.5 0 0-8.1-.1-16.3-.1-24.4.1-.2.2-.5.3-.7.4-.5.8-.4 1.2 0 0 .2.1.4.2.7zm76.6 0c0 8.1-.1 16.2-.1 24.4-.5 1.2-1 1.2-1.5 0 0-8.1-.1-16.3-.1-24.4l.1-.3c.5-1 1-.9 1.6 0v.3zm-75 0c-.5 0-1.1 0-1.6-.1l-.1-.3c-.4-1.3-.4-2.5 0-3.8l.1-.3h1.6c2.8.1 5.7.3 8.5.4.5 1.2.5 2.4 0 3.7-2.8.1-5.7.3-8.5.4zm-13.6-4.1l10.1-.3.1.3c.4 1.2.4 2.5 0 3.7l-.1.3-10.1-.3c-.5-1.2-.5-2.5 0-3.7zm-71.6-143.6c1.3-.3 1.8 1.1 1.8 4.2-.1 4 0 7.9 0 11.9-.1.3-.2.5-.2.8-.5.6-1 .6-1.4-.7 0-4-.1-8-.1-12-.5-1.4-.6-2.8-.1-4.2zm201.1-4.1c0 5.4-.1 10.8-.1 16.3-.6 1.1-1.1 1.1-1.6-.2v-16.1c.6-1.3 1.1-1.3 1.7 0zM-93.7 1.9c1.7.1 3.3.2 5 .2.5 1.3.5 2.6 0 3.9-2.2.1-4.4.1-6.7.2-.1-.2-.2-.5-.3-.7-.3-1.5-.3-2.9.3-4 .6-.8 1.1-.5 1.7.4z"/><path class="st0" d="M-279.5-125.4c2.3 0 4.5.1 6.8.1.2 2.6 0 4.4-1.4 4.2-1.8-.2-3.6-.2-5.3-.2-.5-1.2-.5-2.4 0-3.6l-.1-.5zm117.6-16c1.2-.5 1.7.8 1.7 3.8-.1 4.1 0 8.2 0 12.3-3.2.8-1.1-5.5-1.8-8-.4-1.2-.6-2.6-.6-4.2 0-1.5.2-2.8.7-3.9zm-150-98.6c0 4.1.1 8.2.1 12.3.4 1.4.4 2.7 0 4-1.3.5-1.8-.9-1.8-4.1.1-4 0-8 0-12.1.6-1.1 1.2-1.2 1.7-.1zm209.6 114.6c2.2 0 4.5.1 6.7.1l.2.4c.4 1.4.3 2.6-.2 3.8-2.2 0-4.5 0-6.7-.1-.5-.7-.5-1.7-.4-2.9.1-.5.2-1 .4-1.3zM-250.4 2.1c-.1 1.3-.1 2.6-.2 4-.5 1.2-1.1 1.2-1.7.4-.4-1.2-.6-2.6-.6-4.1v-4.3c0-2.5 0-4.9.3-7.3.1-.7.3-1.2.5-1.7.6-.7 1.1-.5 1.7.5v.2c.5 1.1.7 2.4.7 3.9.1 1.4.1 2.9 0 4.4-.1 1.5-.3 2.8-.7 4zm-17.1-45c3-.3 1.1 5.2 1.6 7.9-.4 1.2-1 1.6-1.6 1.7-.6 0-1.2-.3-1.7-1.5v-4.1c.5-1.5 1.1-2.8 1.7-4zm-10.1 49.1c-.1 1.3-.1 2.7-.2 4-.5 1.2-1.1 1.2-1.7.3-.5-1.1-.6-2.6-.7-4.1-.1-1.5-.1-2.9 0-4.4.1-1.5.2-3 .6-4.1.6-1 1.1-1 1.7.2l.2-.2c.8 2.7.9 5.5.1 8.3zm30.6-242.1c-.1-4.1-.1-8.1-.2-12.2 2.9-.2 1.4 5.1 1.8 8.1.4 1.3.5 2.7.1 4.1-.6 1.1-1.1 1.2-1.7 0zm86.7 229.7c0-1.3.1-2.6.1-3.9.5-1.3 1.1-1.4 1.7-.6.5 1.2.6 2.6.7 4.2 0 1.5.1 3 0 4.5 0 1.5-.3 2.9-.6 4.1l-.2-.2c-.4 1.2-.9 1.2-1.5.8-.2-.3-.4-.8-.6-1.4-.2-1.3-.3-2.6-.2-3.9 0-1.3.3-2.5.6-3.6z"/><path class="st0" d="M-102.4-137.4c0 4 .1 8 .1 12v.6c-.6.9-1.2.7-1.6-.5 0-2.7-.1-5.3-.1-8-.3-1.1-.4-2.3-.3-3.6.1-.6.3-1 .5-1.3.5-.4 1-.3 1.4.8zM-364.5 18.4c-.1 1.4-.1 2.7-.2 4.1-.4 1.1-.8 2.3-1.1 3.6-.2.5-.3.9-.6 1.3-.5.5-1 .6-1.5 0-.2-.4-.4-.9-.5-1.5-.2-1.2-.2-2.5-.2-3.9s.2-2.6.6-3.5v.1c.4-1.1.9-1.5 1.5-1.6.6-.1 1.1.1 1.7.7.1.2.2.4.3.7zm108.8 8.1c-1.2 0-2.4-.1-3.6.1-1.3.2-1.5-1.7-1.6-4.1.1-.3.2-.5.3-.8.5-.7 1.1-.9 1.7-.9.6 0 1.1.6 1.6 1.5h1.7c.5 1.6.5 2.9-.1 4.2zm-20.2-57.2c1.3-.3 1.6 1.3 1.6 4.1s-.3 4.3-1.6 4c-.1-.2-.2-.3-.3-.5-.5-2-.4-4.2-.2-6.4.1-.6.2-1 .5-1.2z"/><path class="st0" d="M-275.9-22.7c-.1 1.3-.1 2.7-.2 4-.4 1.2-1 1.7-1.7 1.7s-1.3-.3-1.8-1.5c-.4-1.4-.4-2.8-.1-4.3.5-1.2 1.1-1.4 1.8-1.5.7 0 1.2.5 1.7 1.7l.3-.1zm-98.9 8.5c1.4.4 3.3-2.4 3.5 3.9-.1.2-.2.5-.3.7-.5.7-1.1.8-1.7.8-.6-.1-1.2-.4-1.6-1.5-.4-1.3-.4-2.7.1-3.9zm11.9 0c3-.2 1.2 5.1 1.6 7.9-.5 1.2-1.1 1.2-1.7.3-.5-1.2-.6-2.6-.6-4.1 0-1.6.2-3 .7-4.1zm85.2 0c0 2.7-.1 5.5-.1 8.2-.5 1-1.1 1-1.7.1-.5-1.1-.6-2.4-.6-3.9 0-1.4.1-2.8.3-4 .3-1.3.9-1.7 1.5-1.5.3.2.5.5.6 1.1zm20.4 4c0-7 2.2-3.2 3.4-4 .4.8.4 1.8.4 2.9-.1.5-.2 1-.4 1.3-.6 0-1.1-.1-1.7-.1-.4.8-.9 1.1-1.4.5l-.3-.6zm8.5 0c0-7 2.1-3.3 3.4-4 .4 1.2.5 2.5.1 3.8-.4 1.1-1 1.4-1.6 1.6-.6.1-1.1-.1-1.7-.7 0-.2-.1-.5-.2-.7zm90.2.1h-1.6c-.1-2.7.2-4.3 1.5-4.3s2 .9 1.8 4.3c-.5 1-1.1.9-1.7 0zm68.2-4.1c1.1 0 2.2-.1 3.3-.1.5 1.3.5 2.6 0 3.9-1.1 0-2.2-.1-3.4-.1-.4-1.2-.3-2.5.1-3.7z"/><path class="st0" d="M-252.2-10.3c0 2.7-.1 5.4-.1 8.2-.5 1.2-1.1 1.1-1.6.1v-8.5c.6-.9 1.2-1 1.7.2zm5.1 0c.5 0 1.1.1 1.6.1l.3.6c.3 1.2.4 2.4.4 3.8 0 1.3-.2 2.6-.5 3.6-1.3.5-1.9-.8-1.8-4-.5-1.3-.5-2.7 0-4.1zm151.7.1c.5-.1 1.1-.2 1.6-.2.5-.8 1-1.1 1.5-.6.2.3.4.8.6 1.3.2 1.3.1 2.6-.4 3.5-.5 0-1 .1-1.6.1-.6 1-1.2 1.3-1.8.2-.5-1.5-.5-3 .1-4.3zM-293.1 2.1c0-2.7.1-5.4.1-8.2.6-1.2 1.1-1.2 1.7-.1.7 2.5.7 5.1.2 7.8-.4 1.5-1 1.7-1.7 1.2-.1-.3-.2-.5-.3-.7z"/><path class="st0" d="M-95.6-6.3c.6 0 1.2.1 1.8.1 0 1.3-.1 2.6-.1 3.9-.3 1.1-.8 1.4-1.3 1.5-.5.1-1 0-1.5-.3-.2-.2-.4-.6-.6-1.1 0-1.3.1-2.6.1-3.9.5-1.2 1.1-1.2 1.6-.2zm34.2-229.5h3.4c.5 1.3.5 2.5 0 3.8h-3.4c-.5-1.3-.5-2.5 0-3.8zm-216.2 242v-8.3c1.2-.1 1.7 1.3 1.7 4.2-.1 2.7-.5 4.2-1.7 4.1zm-17.2-209c-.1 6.5-2.2 2.9-3.4 3.9-.4-1.3-.5-2.6 0-3.9h3.4zm1.7-45.6h-3.4c-.4-1.2-.4-2.5 0-3.7h3.4c.5 1.3.5 2.5 0 3.7zm40.9 254.5c.5 0 1.1 0 1.6-.1v4.1c-.4 1.1-1 1.6-1.6 1.6-.6 0-1.2-.4-1.6-1.5V6.1c.5-1.1 1-1.1 1.6 0zm209.6-159.8v-8.3c.5-1 1-1.1 1.5.1v8.1c-.5 1.1-1 1.1-1.5.1zm-306.7 32.9h3.4c.5 1.3.4 2.6 0 3.8h-3.4c-.4-1.2-.5-2.5 0-3.8zm49.4 0h3.4c.5 1.3.4 2.6 0 3.8h-3.4c-.4-1.2-.5-2.5 0-3.8zm177.1 0h3.4c.5 1.3.4 2.6 0 3.8h-3.4c-.4-1.2-.4-2.5 0-3.8zm58 0h3.4c.5 1.3.4 2.6 0 3.8h-3.4c-.5-1.2-.5-2.5 0-3.8zm-218 82h3.4c.5 1.1.5 2.4.2 3.8-.2.6-.4 1-.7 1.3-1.1.6-2.1.8-3-1.1-.4-1.4-.4-2.8.1-4z"/><path class="st0" d="M-253.8 10.3c.5 0 1.1 0 1.6-.1.4 1.1.6 2.4.6 3.8s-.1 2.8-.4 4.1c-.4 1.3-1 1.5-1.6 1.2-.3-.2-.5-.6-.7-1.2-.3-1.4-.2-2.7.2-3.9.2-1.3.2-2.6.3-3.9zm-119.4 4v4.2c-.5 1-1 1.5-1.6 1.5-.6 0-1.2-.5-1.6-1.6v-3.9c.4-1.1 1-1.6 1.6-1.6.6-.1 1.1.3 1.6 1.4zm13.7.2c1.2.9 3.4-3.1 3.3 4.1-.5 1.1-1.1 1.5-1.7 1.5-.6 0-1.3-.3-1.8-1.4-.3-1.6-.3-3 .2-4.2zm12 4.1c0 1.3-.1 2.6-.1 3.9-.4 1.2-.9 1.2-1.5.8-.2-.3-.4-.8-.5-1.4-.2-1.3-.3-2.6-.2-3.9 0-1.4.2-2.6.6-3.6.4-1.1.9-1.2 1.5-.8.2.3.4.8.6 1.4.1 1.3-.1 2.5-.4 3.6zm90.2 3.9c-.6 0-1.2 0-1.8.1-.4-1.2-.6-2.5-.6-4s.2-2.9.6-4c3-.5 1.3 5.1 1.8 7.9z"/><path class="st0" d="M-252.3 18.4c0-1.3.1-2.7.1-4 .5-1.2 1.1-1.1 1.6-.1v8c-.1.3-.2.5-.2.8-.4.5-.8.6-1.2.3-.3-.3-.5-.7-.6-1.3-.1-1.4 0-2.6.3-3.7zm13.7-3.9c1.2.9 3.4-3.1 3.3 4.1-.5 1.1-1.1 1.5-1.7 1.5-.6 0-1.3-.3-1.8-1.4-.3-1.6-.2-3 .2-4.2zm12 4.1c0 1.3-.1 2.6-.1 3.9-.4 1.1-.9 1.2-1.5.8-.2-.3-.4-.8-.5-1.4-.2-1.3-.3-2.6-.2-3.9 0-1.4.2-2.6.6-3.6.4-1.1.9-1.2 1.5-.8.2.3.4.8.6 1.4.1 1.3 0 2.5-.4 3.6zm74.9-4.1c1.2.9 3.4-3.1 3.3 4.1-.5 1.1-1.1 1.5-1.7 1.5-.6 0-1.3-.3-1.8-1.4-.3-1.6-.3-3 .2-4.2zm56.1-.1c0 1.3.1 2.6.1 3.9.4 1.4.4 2.9-.1 4.2-1.3.5-1.9-.9-1.8-3.9-.3-1.1-.5-2.3-.3-3.6.1-.6.3-1.1.5-1.4.7-.4 1.2-.4 1.6.8zm13.7.1c1.2.9 3.4-3.1 3.3 4.1-.5 1.1-1.1 1.5-1.7 1.5-.6 0-1.3-.3-1.8-1.4-.3-1.6-.2-3 .2-4.2zm12 4.1c0 1.3-.1 2.6-.1 3.9-.4 1.1-.9 1.2-1.5.8-.2-.3-.4-.8-.5-1.4-.2-1.3-.3-2.6-.2-3.9 0-1.4.2-2.6.6-3.6.4-1.1.9-1.2 1.5-.8.2.3.4.8.6 1.4.1 1.3 0 2.5-.4 3.6zM-277.7-35c1.3-.4 1.7 1.5 1.8 4.2l-.2-.1c-.5 1.1-1.1 1.6-1.7 1.6-.6 0-1.3-.3-1.8-1.4-.4-1.5-.3-2.9.1-4.2.6-1.1 1.2-1.1 1.8-.1zm-83.5 57.5c-.1 1.4.2 3.4-.7 3.7-.9.3-.9-1.6-.9-3.2v-4.7c.6 0 1.1 0 1.7-.1.4 1.6.3 2.9-.1 4.3z"/><path class="st0" d="M-361.2 22.5v-4.2c.6-1.1 1.1-1.1 1.7 0h1.7c.4 1.4.5 2.8 0 4.2-.6 1.1-1.2 1-1.7-.1-.6.1-1.1.1-1.7.1zm120.9 0c-.1 1.5.2 3.4-.8 3.7-.8.2-.9-1.2-.9-2.6-.1-3 0-5.5 1.7-5.2.5 1.4.5 2.7 0 4.1z"/><path class="st0" d="M-240.3 22.5v-4.2c.6-1.1 1.1-1.1 1.7 0h1.7c.4 1.4.5 2.8 0 4.2-.6 1.1-1.2 1-1.7-.1-.5.1-1.1.1-1.7.1zm86.9 0c.1 3-.4 4.4-1.7 4.1-.4-1-.6-2.2-.6-3.6s.1-2.7.3-3.9c.1-.2.2-.4.3-.7.5 0 1.1-.1 1.6-.1.6 1.5.5 2.8.1 4.2z"/><path class="st0" d="M-153.4 22.5v-4.2c.6-1.1 1.1-1.1 1.7 0h1.7c.4 1.4.5 2.8 0 4.2-.6 1.1-1.2 1-1.7-.1-.6.1-1.1.1-1.7.1zm57.9 0c0-1.4 0-2.8.1-4.2 1.2-.1 1.8 1.2 1.6 4.1.4 1.3.5 2.7 0 4-1.3.7-1.8-.8-1.7-3.9zm11.9 0c-.1 1.5.2 3.4-.8 3.7-.8.2-.9-1.2-.9-2.6-.1-3 0-5.5 1.7-5.2.5 1.4.5 2.7 0 4.1z"/><path class="st0" d="M-83.6 22.5v-4.2c.6-1.1 1.1-1.1 1.7 0h1.7c.4 1.4.5 2.8 0 4.2-.6 1.1-1.2 1-1.7-.1-.5.1-1.1.1-1.7.1zm-284.5-.1v4.3c-.6 1.1-1.1.9-1.7 0-.6-.1-1.1-.2-1.7-.3-.4-1.3-.4-2.5 0-3.8.6-.1 1.1-.2 1.7-.3.6-.8 1.2-.9 1.7.1zm98.9-57.2c.6 0 1.1 0 1.7-.1.4 1.4.4 2.8 0 4.2-.1 1.3-.1 2.6-.2 3.9-.4 1.2-.9 1.3-1.5.8-.2-.3-.4-.8-.6-1.4-.2-1.3-.3-2.6-.2-3.9 0-1.4.2-2.6.6-3.7l.2.2zm-20.4 65.4c-1.3.5-1.9-.8-1.7-3.9-.5-1.5-.5-2.9 0-4.3 1.6-1.8 2.1.6 2.3 3.8 0 1.6-.1 3.1-.6 4.4zm33.9-4.1c0-1.4 0-2.7.1-4.1v.1c.5-1.1 1.1-1.6 1.7-1.6.7 0 1.2.6 1.7 1.7v-.1c.5 1.3.5 2.6.1 4-1.2.1-2.4.1-3.6 0zm8.6 0c-1.1 0-2.2-.1-3.4-.1-.4-1.3-.4-2.5 0-3.7v-.5c1.1.1 2.3.2 3.4.3.1.2.2.5.3.7.2 1.3.2 2.5-.3 3.3zm81.8.2c-.2-3.1.3-4.5 1.7-4.1.4-1 1-1.2 1.5-.7.6.8.7 2.1.6 3.5-.1.7-.2 1.2-.5 1.6-.5 0-1.1 0-1.6-.1-.4.8-.9 1.1-1.4.5-.1-.3-.2-.5-.3-.7zm71.5-.2v-4h3.4c.1.2.2.5.3.7.2 1.3.2 2.4-.3 3.4-1.1-.1-2.3-.1-3.4-.1zm-201 .1v8.2c-.4 1.1-.9 1.2-1.4.7l-.3-.6c0-2.7.1-5.4.1-8.2.5-1.2 1-1.2 1.6-.1z"/><path class="st0" d="M-289.6 30.6v-4c1.1-2 2.2-2.1 3.3-.4.5 1.4.6 2.8.1 4.4h-3.4zm59.6.2v-4.1c.4-1.1 1-1.6 1.6-1.6.6 0 1.2.4 1.7 1.5v4.1c-.4 1.1-1 1.6-1.6 1.6-.7 0-1.2-.4-1.7-1.5zm61.3-4.3c.6.1 1.1.2 1.7.3.5 1.3.5 2.5 0 3.8h-3.4c-.5-1.3-.5-2.7 0-4.1v.1c.5-1.1 1.1-1.1 1.7-.1zm98.7 0v4.1c-.4 1.1-1 1.6-1.6 1.6-.6 0-1.2-.4-1.7-1.5v-4.1c.4-1.1 1-1.6 1.6-1.6.6.1 1.2.5 1.7 1.5zm-299.8 8.2c0-1.3.1-2.5.1-3.8.6-1.3 1.1-1.2 1.7-.2.4 1.5.4 2.9 0 4.3.1 3.2-.5 4.3-1.7 3.9-.5-1.4-.5-2.8-.1-4.2zm13.7-4c1.4-.3 1.7 1.4 1.7 4.4 0 3-.6 3.9-1.7 3.7l-.3-.6c-.3-1.1-.3-2.3-.3-3.5 0-1.2.1-2.4.3-3.5.1-.1.2-.3.3-.5zm120.9 0c1.4-.3 1.7 1.4 1.7 4.4 0 3-.6 3.9-1.7 3.7l-.3-.6c-.3-1.1-.3-2.3-.3-3.5 0-1.2.1-2.4.3-3.5.2-.1.2-.3.3-.5zm86.9 0c1.4-.3 1.7 1.4 1.7 4.4 0 3-.6 3.9-1.7 3.7l-.3-.6c-.3-1.1-.3-2.3-.3-3.5 0-1.2.1-2.4.3-3.5.1-.1.2-.3.3-.5zm69.8 0c1.4-.3 1.7 1.4 1.7 4.4 0 3-.6 3.9-1.7 3.7l-.3-.6c-.3-1.1-.3-2.3-.3-3.5 0-1.2.1-2.4.3-3.5.1-.1.2-.3.3-.5zm-269.1 4.1h1.7c.1.2.2.4.3.7.2 1.3.2 2.5-.3 3.5v-.1c-.9 2-2 2-3.1.9-.6-.8-.8-2.1-.7-3.7.1-.7.2-1.3.5-1.8.6-.7 1.1-.6 1.6.5zm120.9 0h1.7c.1.2.2.4.3.7.2 1.3.2 2.5-.3 3.5v-.1c-.9 2-2 2-3.1.9-.6-.8-.8-2.1-.7-3.7.1-.7.2-1.3.5-1.8.6-.7 1.2-.6 1.6.5zm156.7 0h1.7c.1.2.2.4.3.7.2 1.3.2 2.5-.3 3.5v-.1c-.9 2-2 2-3.1.9-.6-.8-.8-2.1-.7-3.7.1-.7.2-1.3.5-1.8.6-.7 1.1-.6 1.6.5zm-304.8 4.1c.6.1 1.1.1 1.7.2.4 1.3.4 2.5 0 3.8h-3.4c-.5-.9-.5-2.1-.4-3.5.1-.6.3-1 .6-1.3.6-.4 1.1-.2 1.5.8z"/><path class="st0" d="M-349.3 38.9h3.4c-.1 6.7-2.2 3.3-3.4 4-.4-1-.5-2.1-.2-3.3 0-.2.1-.4.2-.7zm51.1 4.2V39c.5-1.1 1-1.6 1.7-1.6.6 0 1.2.5 1.7 1.5.2 3.1-.4 4.5-1.6 4.2-.6 1-1.2 1-1.8 0zm69.9-4.2h3.4c-.1 6.7-2.2 3.3-3.4 4-.4-1-.5-2.1-.2-3.3 0-.2.1-.4.2-.7zm156.7 0h3.4c-.1 6.7-2.2 3.3-3.4 4-.4-1-.5-2.1-.2-3.3 0-.2.1-.4.2-.7zm-224.9-274.7h1.7c.5 1.3.5 2.5 0 3.8h-1.7c-.5-1.3-.4-2.5 0-3.8z"/><path class="st0" d="M-294.8-232v-3.8h1.7c.5 1.3.5 2.5 0 3.8h-1.7z"/><path class="st0" d="M-293.1-232v-3.8c1.2-.3 1.8.8 1.7 3.8h-1.7zm17 .4c-1.3.4-1.9-1-1.7-4.2 1.4-.4 1.9 1 1.7 4.2zm40.9-.4c-.1-3.1.5-4.2 1.7-3.8.4 1.3.5 2.6 0 3.8h-1.7z"/><path class="st0" d="M-233.5-232v-3.8h1.7c.5 1.3.5 2.5 0 3.8h-1.7z"/><path class="st0" d="M-231.8-232v-3.8h1.7c.5 1.3.5 2.5 0 3.9-.5-.1-1.1-.1-1.7-.1z"/><path class="st0" d="M-230-232v-3.9c1.2-.3 1.8.9 1.8 3.9-.7.1-1.3 0-1.8 0zm15.2.4c-1.3.3-1.9-1.1-1.6-4.3 1.3-.3 1.9 1.2 1.6 4.3zm20.5 0c-.2-2.8.2-4.4 1.5-4.4.1.2.2.3.4.5.3 1.4.3 2.6-.2 3.7v-.1c-.5 1.3-1.1 1.3-1.7.3zm32.3-4.4c0 1.4 0 2.7.1 4.1-1.4.8-1.9-.8-1.7-4 .5 0 1.1-.1 1.6-.1zm39.2 4c-.1-3.1.5-4.2 1.7-3.8.4 1.3.5 2.6 0 3.8h-1.7z"/><path class="st0" d="M-121.1-232v-3.8h1.7c.4 1.3.4 2.6 0 3.8h-1.7z"/><path class="st0" d="M-119.4-232v-3.8h1.7c.5 1.3.5 2.5 0 3.8h-1.7z"/><path class="st0" d="M-117.6-232v-3.8h1.7c.5 1.3.5 2.5 0 3.8h-1.7z"/><path class="st0" d="M-115.9-232v-3.8c1.2-.4 1.8.8 1.7 3.8h-1.7zm17 .3c-1.3.3-1.9-1.1-1.6-4.2 1.3-.4 1.8.9 1.6 4.2zm22.1-4.3c.2 3.1-.4 4.5-1.7 4.2v-4c.6-1.2 1.1-1.2 1.7-.2zm11.9 4c-.1-3 .5-4.2 1.7-3.9.4 1.3.5 2.6 0 3.9h-1.7z"/><path class="st0" d="M-63.2-232v-3.9h1.7v3.8c-.5.1-1.1.1-1.7.1zm5.2 0v-3.8h1.7c.5 1.3.5 2.6 0 3.9-.6-.1-1.2-.1-1.7-.1z"/><path class="st0" d="M-56.3-232v-3.9c1.2-.3 1.8.9 1.7 3.9h-1.7zm-275.9 4.2v-3.9c1.3-.3 1.9 1.2 1.7 4.3-.7.9-1.2.9-1.7-.4zm23.8 0c-.1-3.1.6-4.3 1.8-3.9.4 1.3.4 2.6-.1 3.8-.6.1-1.2.1-1.7.1z"/><path class="st0" d="M-306.7-227.8c0-1.3.1-2.6.1-3.8.6 0 1.1.1 1.7.1.4 1.3.4 2.6-.1 3.8-.6-.1-1.2-.1-1.7-.1z"/><path class="st0" d="M-305.1-227.8c0-1.3.1-2.5.1-3.8h1.7c.4 1.3.4 2.6-.1 3.8h-1.7z"/><path class="st0" d="M-303.4-227.7c0-1.3.1-2.5.1-3.8h1.7c.1 3.1-.5 4.2-1.8 3.8zm13.7-3.8c.6 0 1.1-.1 1.7-.1.5 1.2.5 2.5.1 3.8-1.2.6-1.9-.5-1.8-3.7z"/><path class="st0" d="M-287.9-227.8c0-1.3-.1-2.6-.1-3.8 1.3-.5 1.9.7 1.8 3.8h-1.7zm11.9 0c0-1.3 0-2.6-.1-3.9 1.3-.3 1.9 1.1 1.7 4.2-.5 1-1.1 1-1.6-.3zm35.7.1c-.1-3.2.5-4.4 1.8-3.9.4 1.4.4 2.7-.1 3.9-.6-.1-1.1-.1-1.7 0z"/><path class="st0" d="M-238.6-227.8c0-1.3.1-2.6.1-3.9.6 0 1.1.1 1.7.1.1 3.3-.6 4.4-1.8 3.8zm10.2-3.7c.6 0 1.1-.1 1.7-.1.5 1.2.5 2.5.1 3.9-1.2.4-1.9-.7-1.8-3.8z"/><path class="st0" d="M-226.6-227.7c0-1.3-.1-2.6-.1-3.9 1.3-.5 1.9.7 1.8 4-.6-.1-1.1-.1-1.7-.1zm32.3-3.9c.5-.1 1.1-.2 1.6-.3.2 3.1-.3 4.5-1.6 4.3v-4zm64.7 3.7c-.1-3.2.5-4.3 1.8-3.7.4 1.3.4 2.6-.1 3.8-.6 0-1.1 0-1.7-.1z"/><path class="st0" d="M-127.9-227.8c0-1.3.1-2.5.1-3.8.6 0 1.1 0 1.7.1.4 1.3.4 2.6-.1 3.8-.6-.1-1.2-.1-1.7-.1z"/><path class="st0" d="M-126.2-227.8c0-1.3.1-2.5.1-3.8h1.7c.1 3.2-.6 4.3-1.8 3.8zm13.6-3.7c.6 0 1.1 0 1.7-.1.5 1.2.5 2.5.1 3.8-1.2.5-1.9-.5-1.8-3.7z"/><path class="st0" d="M-110.8-227.8c0-1.3-.1-2.5-.1-3.8 1.3-.7 1.9.6 1.8 3.8h-1.7zm11.9 0v-4c1.3-.3 1.9 1.2 1.6 4.3-.5 1-1.1 1-1.6-.3zm20.4-4.1v4.1c-.5 1.3-1 1.2-1.6.3-.3-3.3.2-4.7 1.6-4.4zm8.5 4.3c-.1-3.2.5-4.5 1.8-4 .4 1.4.4 2.7-.1 3.9-.6 0-1.1 0-1.7.1z"/><path class="st0" d="M-68.3-227.8c0-1.3.1-2.6.1-3.9.6 0 1.1.1 1.7.1.4 1.3.4 2.6-.1 3.8-.6.1-1.1 0-1.7 0z"/><path class="st0" d="M-66.6-227.7c0-1.3.1-2.6.1-3.8h1.7c.1 3.1-.6 4.2-1.8 3.8zm11.9-3.8h1.7c.5 1.2.5 2.5.1 3.8-1.2.4-1.8-.8-1.8-3.8z"/><path class="st0" d="M-52.9-227.7c0-1.3 0-2.6-.1-3.8h1.7c.5 1.2.5 2.4.1 3.8-.5-.1-1.1 0-1.7 0z"/><path class="st0" d="M-51.2-227.8c0-1.3-.1-2.5-.1-3.8.6 0 1.1-.1 1.7-.1.5 1.2.5 2.5.1 3.8-.5.1-1.1.1-1.7.1z"/><path class="st0" d="M-49.5-227.8c0-1.3-.1-2.5-.1-3.8 1.2-.5 1.9.7 1.8 3.8h-1.7zm-282.7 0c.5.1 1.1.2 1.6.3v4c-1.3.3-1.8-1.3-1.6-4.3zm20.5 4.1v-4c.6.1 1.1.1 1.7.2.4 1.4.4 2.7-.1 3.9-.6-.1-1.1-.1-1.6-.1z"/><path class="st0" d="M-310.2-223.7c0-1.3.1-2.6.1-3.9.6 0 1.1.1 1.7.1.1 3.2-.5 4.4-1.8 3.8zm23.9-3.8c1.4-.7 2 .6 1.8 3.9-1.3.5-1.9-.8-1.8-3.9zm10.3-.3c.5.1 1.1.2 1.6.3v4.1c-1.3.2-1.9-1.3-1.6-4.4zm34 4.2c-.2-3.3.4-4.7 1.8-3.9.1 3.1-.5 4.4-1.8 3.9zm17-4c1.4-.6 2 .8 1.7 4.1-1.3.4-1.8-1-1.7-4.1zm10.3 3.9v-4c1.3-.3 1.8 1.3 1.6 4.4-.6.9-1.1.9-1.6-.4zm20.4-4v4c-.5 1.3-1 1.3-1.6.3-.3-3.1.2-4.6 1.6-4.3zm59.7 0c.6 0 1.1.1 1.7.1.4 1.4.4 2.7-.1 3.9-1.5.8-1.9-.7-1.6-4z"/><path class="st0" d="M-133-223.7c0-1.3.1-2.6.1-3.9.6 0 1.1.1 1.7.1.1 3.3-.5 4.5-1.8 3.8zm23.9-3.8h1.7c.5.7.5 1.9.5 3.1-.1.6-.2 1-.4 1.4-1.3-.4-2-1.5-1.8-4.5zm10.2-.3c.5.1 1.1.2 1.6.3v4c-1.3.2-1.8-1.3-1.6-4.3zm18.8.3c.5-.1 1.1-.2 1.6-.3.2 2.9-.3 4.5-1.6 4.3v-4zm8.5 4.1c-.3-3.3.3-4.7 1.7-4.1.1 3.1-.4 4.4-1.7 4.1zm23.8-4.1c.6 0 1.1 0 1.7-.1.5 1.2.5 2.5.1 3.9-1.3.6-1.9-.6-1.8-3.8z"/><path class="st0" d="M-46-223.7c0-1.3-.1-2.6-.1-3.9.6-.1 1.1-.1 1.7-.2.2 3.3-.2 4.9-1.6 4.1zm-284.5 4.1v-4c1.3-.2 1.8 1.3 1.6 4.3-.6 1-1.1 1-1.6-.3zm46-4c1.4-.5 1.9.9 1.7 4.2-1.4.3-1.9-1.2-1.7-4.2zm10.2 4.1v-4.1c1.3-.2 1.8 1.3 1.6 4.3-.5.9-1.1 1-1.6-.2zm30.6.1c-.3-3.3.3-4.7 1.7-4.2.2 3.1-.4 4.5-1.7 4.2zm20.5-4.2c1.3-.3 1.8 1.2 1.6 4.3-.6.9-1.1 1-1.6-.3v-4zm8.5-.1c.5.1 1.1.2 1.6.3v4c-1.3.2-1.8-1.4-1.6-4.3zm18.8.3c.5-.1 1.1-.2 1.6-.3.2 3-.3 4.5-1.6 4.3v-4zm90 4c-1.1.3-1.6-1.1-1.6-3.7l.1-.6c.6-1 1.1-1 1.6.3v-.1c.5.8.5 1.9.4 3.1-.1.6-.3.9-.5 1zm8.8-.2v-4c1.3-.2 1.8 1.3 1.6 4.4-.6.9-1.2.9-1.6-.4zm16.8-4v4.2c-.5 1.2-1 1.1-1.6.1-.1-3 .4-4.5 1.6-4.3zm7 4.3c-.2-3.1.4-4.5 1.7-4.3 0 1.3-.1 2.7-.1 4-.5 1.3-1.1 1.2-1.6.3z"/><path class="st0" d="M-330.5-219.6c.5.1 1.1.2 1.6.3v4c-1.3.2-1.8-1.3-1.6-4.3zm47.7.1c1.3-.3 1.9 1.1 1.6 4.3-.6 1-1.1 1-1.6-.3v-4zm8.5 0c.5.1 1.1.2 1.6.2 0 1.4 0 2.7-.1 4.1-.5.9-1.1 1-1.6-.2.1-1.4.1-2.8.1-4.1zm29 4.3c-.3-3.2.3-4.6 1.6-4.3v4c-.5 1.3-1 1.3-1.6.3zm22.1-4.4c.5.1 1.1.2 1.6.3v4c-1.4.3-1.8-1.3-1.6-4.3zm27.1 0v4c-.5 1.3-1 1.3-1.6.3-.2-3 .3-4.5 1.6-4.3zm92.1.3c0 1.3 0 2.7-.1 4-1.3.4-1.7-1.7-1.8-4.2.1-.2.2-.3.3-.1.5-.9 1.1-1 1.6.3zm6.9-.3c.5.1 1.1.2 1.6.3v4c-.6 1-1.1 1-1.6-.2-.1-1.4-.1-2.7 0-4.1zm15.3.2c.5 0 1-.1 1.6-.1v4.1c-.5 1.1-1 1.1-1.5.1-.1-1.3-.1-2.7-.1-4.1zm8.5.1c.5-.1 1.1-.2 1.6-.2v4.2c-.5 1.1-1 1.1-1.5.1-.1-1.4-.1-2.8-.1-4.1zm-255.5 8v-4.1c1.3-.2 1.8 1.3 1.6 4.3-.5.9-1.1 1-1.6-.2z"/><path class="st0" d="M-282.8-215.5c.5.1 1.1.2 1.6.3v4c-1.4.2-1.8-1.4-1.6-4.3zm8.5 0c.5.1 1 .2 1.6.2v4.1c-.6 1-1.1 1-1.6-.2v-4.1zm29 .3c.5-.1 1.1-.2 1.6-.3.2 3-.3 4.5-1.6 4.3v-4zm32.4 3.9v-4.1c1.3-.2 1.8 1.3 1.6 4.3-.6.9-1.1 1-1.6-.2zm15.3-3.9c.5-.1 1.1-.2 1.6-.3.2 3-.2 4.6-1.6 4.3v-4zm100.4-.3c.5.1 1.1.1 1.6.2v4.1c-1.3.2-1.8-1.3-1.6-4.3zm15.4.2c.5 0 1-.1 1.5-.1v4.2c-.5 1.1-1 1.1-1.5-.1v-4zm8.5 0c.5 0 1-.1 1.5-.1v4.2c-.5 1-1.1 1-1.6-.2.1-1.3.1-2.6.1-3.9zm-255.5 4c.5.1 1.1.2 1.6.2v4.1c-.5.9-1.1 1-1.5-.2-.1-1.4-.1-2.8-.1-4.1z"/><path class="st0" d="M-274.3-211.4c.5.1 1.1.2 1.6.2v4c-1.3.3-1.8-1.3-1.6-4.2zm27.3 4.4c-.3-3.1.2-4.5 1.6-4.3v4.1c-.5 1.2-1.1 1.2-1.6.2zm25.6-4.3c1.3-.2 1.8 1.3 1.5 4.3-.5 1-1.1 1-1.6-.2.1-1.4.1-2.7.1-4.1zm8.5 0c.5.1 1 .1 1.6.2v4c-.5 1-1 1.1-1.5-.1-.1-1.3-.1-2.7-.1-4.1zm109 0c1.3-.2 1.8 1.3 1.5 4.2-.5 1-1 1-1.5-.1v-4.1zm8.5 4.1v-4.1c1.3-.2 1.8 1.3 1.6 4.2-.6 1-1.1 1.1-1.6-.1zm13.6-4.1c.5 0 1 .1 1.5.1v4.1c-.5 1-1.1 1-1.6-.2.1-1.3.1-2.6.1-4zm8.5-.1c.5.1 1 .2 1.6.2v4.1c-1.3.2-1.8-1.2-1.6-4.3zm-255.5 4.1c.5.1 1 .2 1.5.2v4.1c-.6 1-1.1 1-1.6-.2.1-1.3.1-2.7.1-4.1zm47.7.2c.6.2 1.5-.3 1.5 1.9 0 2.7-1 2-1.6 2.1 0-1.3.1-2.7.1-4z"/><path class="st0" d="M-247-207c.5-.1 1-.2 1.6-.3v4.1c-.5 1.2-1 1.2-1.5.2-.1-1.3-.1-2.7-.1-4zm25.5-.2c.5.1 1 .1 1.6.2v4c-.5 1-1 1.1-1.5-.1 0-1.3 0-2.7-.1-4.1zm8.6 0c.5 0 1 0 1.5.1v4.1c-.5 1-1 1.1-1.5-.1v-4.1zm15.1 0v4.1c-.5 1.2-1 1.2-1.6.2-.2-3 .3-4.5 1.6-4.3zm93.9 0c.5 0 1 .1 1.5.1.3 3.4-.4 4.4-1.7 3.9.1-1.3.1-2.6.2-4zm8.5 0c.5 0 1.1.1 1.6.1v4.1c-.5 1-1 1.1-1.6-.1v-4.1zm13.6-.1c.5.1 1 .1 1.6.2v4.1c-1.3.2-1.8-1.3-1.6-4.3zm11.9 4.2c-1.4.7-2-.7-1.7-4.1 1.3-.3 1.8 1.1 1.7 4.1zm-258.9-.1c.5.1 1 .2 1.6.2v4.1c-1.4.2-1.8-1.4-1.6-4.3zm25.5 4.1h-1.7c-.1-3.1.6-4.3 1.8-3.8.4 1.3.4 2.6-.1 3.8z"/><path class="st0" d="M-303.3-199.1c0-1.3.1-2.5.1-3.8.6 0 1.1.1 1.7.1.4 1.3.4 2.5-.1 3.7h-1.7z"/><path class="st0" d="M-301.6-199.1c0-1.2.1-2.5.1-3.7h1.7c.4 1.3.4 2.6-.1 3.8-.6-.1-1.2-.1-1.7-.1z"/><path class="st0" d="M-299.9-199c0-1.3 0-2.5.1-3.8h1.7v3.9c-.7-.1-1.3-.1-1.8-.1zm52.9-4c.5-.1 1-.1 1.5-.2v4.2c-.5 1.1-1.1 1.1-1.6 0 .1-1.3.1-2.6.1-4zm25.6-.1c.5 0 1 .1 1.5.1v4.1h-1.5v-4.2zm8.5 0c.5 0 1 0 1.5.1v4.1h-1.5v-4.2zm13.6.2c.5-.1 1-.1 1.6-.2v4.1c-.5 1.2-1 1.2-1.5.2-.1-1.4-.1-2.8-.1-4.1zm74.8 3.8h-1.7c-.1-3.2.5-4.4 1.8-3.7.4 1.2.4 2.5-.1 3.7z"/><path class="st0" d="M-124.5-199.1c0-1.2.1-2.5.1-3.7h1.7c.4 1.3.4 2.6-.1 3.7h-1.7z"/><path class="st0" d="M-122.8-199.1c0-1.2.1-2.5.1-3.7h1.7c.4 1.3.4 2.6-.1 3.8-.6 0-1.1-.1-1.7-.1z"/><path class="st0" d="M-121.1-199c0-1.3 0-2.5.1-3.8h1.7c.5 1.3.4 2.6 0 3.9-.6-.1-1.2-.1-1.8-.1z"/><path class="st0" d="M-119.4-198.9v-3.9h1.7c.2 3.1-.5 4.1-1.7 3.9zm24-4.2c.5 0 1 0 1.6.1v4.1c-.5 1-1 1.1-1.5-.1-.1-1.3-.1-2.7-.1-4.1zm15.3 0c1.3-.2 1.8 1.4 1.6 4.3-.6.9-1.1 1-1.6-.3v-4zm11.9 4c-1.3.6-1.9-.7-1.8-3.9h1.7c.5 1.3.5 2.6.1 3.9z"/><path class="st0" d="M-68.2-199.1c0-1.3-.1-2.6-.1-3.9 1.2-.5 1.9.6 1.8 3.8-.6.1-1.1.1-1.7.1zm-238.6 4.2h-1.7c-.1-3.2.5-4.4 1.8-3.8.5 1.3.5 2.6-.1 3.8z"/><path class="st0" d="M-306.8-194.9c0-1.3.1-2.6.1-3.9.6 0 1.1 0 1.7.1.1 3.1-.5 4.3-1.8 3.8zm35.9.1h-1.6v-4.1c1.2-.3 1.7 1.2 1.6 4.1zm23.9-4.1h1.6v4.1h-1.6v-4.1zm47.7 0c.5-.1 1-.1 1.5-.2v4.1c-.5 1.2-1 1.1-1.5.1v-4zm69.7 3.9h-1.7c-.1-3.2.5-4.4 1.8-3.9.4 1.4.4 2.8-.1 3.9z"/><path class="st0" d="M-129.6-195c0-1.3.1-2.6.1-3.9.6 0 1.1.1 1.7.1.1 3.3-.6 4.4-1.8 3.8zm34.2-4c.5 0 1 0 1.5.1v4.1c-.5 0-1 0-1.5-.1v-4.1zm15.3-.1c.5.1 1.1.2 1.6.3v4c-1.3.3-1.9-1.1-1.6-4.3zm15.3 4.2c-1.2.4-1.9-.8-1.8-3.9h1.7c.5 1.3.5 2.6.1 3.9z"/><path class="st0" d="M-64.8-194.9c0-1.3-.1-2.6-.1-3.8h1.7c.5 1.2.5 2.4.1 3.7-.6 0-1.1.1-1.7.1z"/><path class="st0" d="M-63.1-195c0-1.2-.1-2.5-.1-3.7.6 0 1.1-.1 1.7-.1.5 1.2.5 2.5.1 3.8h-1.7z"/><path class="st0" d="M-61.4-195c0-1.3-.1-2.5-.1-3.8 1.2-.4 1.9.7 1.8 3.8h-1.7zm-250.5 4c0-3 .7-4.2 1.9-3.7.4 1.4.4 2.7-.1 3.9v.1c-.3 1.1-.8 1.2-1.3.9-.2-.3-.4-.7-.5-1.2z"/><path class="st0" d="M-310.2-190.8c0-1.3.1-2.6.1-3.9h1.7c.1 3.1-.5 4.4-1.8 3.9zm110.9-4c.5 0 1-.1 1.5-.1v4.1c-.5 1.1-1 1.1-1.5.1v-4.1zm68.1.1c.1 3.2-.5 4.5-1.8 3.9-.2-3.3.4-4.7 1.8-3.9zm52.8-.2c1.3-.3 1.8 1.1 1.7 4.2-1.4.5-2-.8-1.7-4.2zm20.4 4.1c-1.2.4-1.9-.8-1.8-3.8h1.7c.5 1.2.5 2.5.1 3.8z"/><path class="st0" d="M-58-190.8c0-1.3-.1-2.6-.1-3.8h1.7c.5 1.2.5 2.4.1 3.8-.5-.1-1.1 0-1.7 0z"/><path class="st0" d="M-56.3-190.9c0-1.3-.1-2.5-.1-3.8.6 0 1.1-.1 1.7-.1.5 1.2.5 2.5.1 3.8-.5.1-1.1.1-1.7.1z"/><path class="st0" d="M-54.6-190.9c0-1.3-.1-2.5-.1-3.8 1.2-.5 1.9.7 1.8 3.8h-1.7zm-272.4 4.3v-4.1c1.3-.3 1.7 1.3 1.6 4.1-.6 1-1.1 1.1-1.6 0zm13.5.1c-.2-3 .4-4.4 1.6-4.6l.1.4c.4 1.4.4 2.7-.1 3.9v-.1c-.5 1.4-1 1.4-1.6.4zm114.2-4.2c.5 0 1-.1 1.5-.1v4.1c-.5 1.1-1 1.1-1.6 0 .1-1.3.1-2.6.1-4zm66.3 0c.2 3.1-.4 4.5-1.7 4.1-.2-3.3.4-4.7 1.7-4.1zm56.2 0c1.3-.6 1.9.7 1.8 3.9-1.4.8-1.9-.6-1.8-3.9zm25.7 4c-1.2.5-1.9-.7-1.8-3.8h1.7c.5 1.1.4 2.4.1 3.8z"/><path class="st0" d="M-51.1-186.7c0-1.3-.1-2.6-.1-3.8 1.3-.7 1.9.6 1.8 3.8-.6-.1-1.2-.1-1.7 0zm-275.9.1h1.6c.1 2.9-.3 4.4-1.6 4.1v-4.1zm13.5.1c.5-.1 1.1-.2 1.6-.3.2 3-.3 4.5-1.6 4.3v-4zm114.2-.1h1.6v4.2c-.5 1-1 1.1-1.6-.1v-4.1zm64.6-.1c.2 3.1-.3 4.6-1.6 4.3-.3-3.3.2-4.7 1.6-4.3zm59.6.1c.5 0 1.1 0 1.6.1.5 1.2.5 2.5.1 3.9-1.2.4-1.8-.8-1.7-4z"/><path class="st0" d="M-73.3-182.6c0-1.3-.1-2.6-.1-3.9 1.3-.6 1.9.6 1.8 3.8-.6 0-1.1 0-1.7.1zm25.6 0c-1.2.4-1.9-.8-1.8-3.9h1.7c.5 1.2.4 2.5.1 3.9z"/><path class="st0" d="M-47.7-182.6c0-1.3-.1-2.6-.1-3.9 1.3-.5 1.9.8 1.8 4-.6-.1-1.2-.1-1.7-.1zm-265.9 0v4c-.5 1.3-1 1.3-1.6.3-.2-3.1.3-4.6 1.6-4.3zm114.3 0c.5 0 1 0 1.6.1v4.1c-.5 1-1 1.1-1.5-.1-.1-1.3-.1-2.7-.1-4.1zm62.9 0v4c-.5 1.3-1 1.3-1.6.3-.2-3 .3-4.5 1.6-4.3zm64.7.2c.6 0 1.1 0 1.7.1.5 1.2.5 2.5.1 3.8-1.2.4-1.9-.8-1.8-3.9z"/><path class="st0" d="M-69.9-178.5c0-1.3-.1-2.6-.1-3.8h1.7c.5 1.2.5 2.4.1 3.8-.6-.1-1.1 0-1.7 0z"/><path class="st0" d="M-68.2-178.6c0-1.3-.1-2.5-.1-3.8.6 0 1.1-.1 1.7-.1.5 1.2.5 2.5.1 3.8-.6.1-1.1.1-1.7.1z"/><path class="st0" d="M-66.5-178.6c0-1.3-.1-2.6-.1-3.8 1.2-.4 1.9.7 1.8 3.8h-1.7zm22.1.2c-1.3.4-1.9-1-1.7-4.1 1.3-.5 1.9.8 1.7 4.1zm-270.8.1c.5-.1 1.1-.2 1.6-.3.2 2.9-.3 4.5-1.6 4.4.1-1.4.1-2.7 0-4.1zm115.9-.2c.5 0 1 .1 1.5.1v4.1c-.5 1-1 1-1.5-.1v-4.1zm61.3.2c.5-.1 1.1-.2 1.6-.3v4.1c-.5 1.3-1 1.2-1.6.3v-4.1zm73.1.1h1.7c.5 1.2.5 2.5.1 3.8-1.2.4-1.8-.7-1.8-3.8z"/><path class="st0" d="M-63.1-174.4c0-1.3-.1-2.5-.1-3.8h1.7c.5 1.2.5 2.4.1 3.7-.5 0-1.1.1-1.7.1z"/><path class="st0" d="M-61.4-174.5c0-1.2-.1-2.5-.1-3.7.6 0 1.1-.1 1.7-.1.5 1.2.5 2.5.1 3.8h-1.7z"/><path class="st0" d="M-59.7-174.5c0-1.3-.1-2.5-.1-3.8 1.2-.4 1.9.7 1.8 3.8h-1.7zm15.3 0v-3.9c1.3-.4 1.9 1.1 1.6 4.3-.5.9-1.1.9-1.6-.4zm-284.4 4.3c-.1-2.9.3-4.4 1.6-4.2v4.1c-.6 1.2-1.1 1.1-1.6.1zm13.5-4.2v4.1c-.5 1.2-1 1.1-1.6.2-.2-3 .3-4.5 1.6-4.3zm116 0c.5 0 1 .1 1.5.1v4.1c-.5 1-1.1 1-1.5-.2v-4zm61.3.2c.5-.1 1.1-.2 1.6-.3.2 2.9-.3 4.5-1.6 4.3v-4zm79.9.1h1.7c.5 1.2.5 2.5.1 3.8-1.2.4-1.8-.7-1.8-3.8z"/><path class="st0" d="M-56.3-170.3c0-1.3-.1-2.5-.1-3.8.6 0 1.1-.1 1.7-.1.5.7.5 1.8.5 3-.1.6-.2 1-.4 1.4-.6-.2-1.1-.4-1.7-.5zm11.9-4.2c.5.1 1.1.2 1.6.3v4c-1.3.2-1.7-1.3-1.6-4.3zm-284.4 4.3c.5 0 1.1-.1 1.6-.1v4.1c-.5 1.2-1 1.1-1.6.2v-4.2zm11.9.1c.5-.1 1-.1 1.6-.2v4.1c-.5 1.1-1 1.1-1.5.1-.1-1.3-.1-2.7-.1-4zm117.6-.2c.5.1 1 .1 1.5.2v4.1c-.6 1-1.1 1-1.6-.2.1-1.4.1-2.8.1-4.1zm61.1 0v4.2c-.5 1.2-1.1 1.1-1.6.1-.1-3 .4-4.5 1.6-4.3z"/><path class="st0" d="M-52.9-166.2c-1.1.3-1.9-.4-1.7-3.7l.1-.3-.1-.3c.6-1 1.2-.9 1.7.3v.1c.5 1.2.4 2.5 0 3.9z"/><path class="st0" d="M-52.9-166.2c0-1.3-.1-2.6-.1-3.9 1.4-.5 1.9.9 1.7 4.1-.5-.1-1-.1-1.6-.2zm10.3 0v-4.1c1.3-.2 1.8 1.3 1.6 4.3-.6.9-1.1 1-1.6-.2zm-286.2.2c.5-.1 1-.2 1.6-.2v4.1c-.5 1.3-1 1.2-1.5.2-.1-1.4-.1-2.7-.1-4.1zm12-.1c.5 0 1-.1 1.5-.1v4.1c-.5 1.1-1 1.1-1.5.1v-4.1zm117.4-.2c.5.1 1 .1 1.6.2v4.1c-1.3.2-1.8-1.3-1.6-4.3zm59.6.2c.5 0 1.1 0 1.6-.1v4.1c-.5 1.1-1 1.1-1.6.1v-4.1zm88.6 0c1.3-.3 1.9 1.1 1.7 4.2-.6.9-1.1 1-1.6-.2-.1-1.3-.1-2.7-.1-4z"/><path class="st0" d="M-42.6-166.2c.5.1 1 .2 1.6.2v4c-.5 0-1-.1-1.5-.1-.1-1.4-.1-2.7-.1-4.1zm-286.2 4.3c.5-.1 1-.2 1.5-.2.3 3.1-.2 4.6-1.5 4.3v-4.1zm12-.1c.5 0 1-.1 1.5-.1v4.2c-.5 1-1 1.1-1.5-.1v-4zm119.2-.1c1.3-.2 1.8 1.4 1.6 4.3-.6.9-1.1 1-1.6-.3v-4zm57.9.1c.5 0 1 0 1.6-.1v4.1c-.5 1.1-1.1 1.1-1.6-.1v-3.9zm88.6-.1c.5.1 1.1.2 1.6.2 0 1.3 0 2.7-.1 4-.5 1-1 1-1.5-.1v-4.1z"/><path class="st0" d="M-316.8-158c.5 0 1 .1 1.5.1v4.1c-.5 1-1 1.1-1.5-.1v-4.1zm119.2 0c.5.1 1.1.2 1.6.3v4.1c-.6.9-1.1 1-1.6-.3v-4.1zm57.9 0c.5 0 1 0 1.6.1v4.1c-.5 1.1-1.1 1-1.6-.1-.1-1.3-.1-2.7 0-4.1zm88.6 0c.5 0 1 .1 1.5.1v3.9c-.5 1.2-1 1.2-1.5.2v-4.2zm-279.4 8.4c-.3-3.1.2-4.6 1.6-4.4v4c-.5 1.4-1 1.4-1.6.4z"/><path class="st0" d="M-316.8-153.9c.5 0 1 .1 1.5.1v4.1c-.6 1-1.1 1-1.6-.2 0-1.3 0-2.7.1-4zm119.1-.1c.5.1 1.1.2 1.6.3v4c-1.3.2-1.7-1.3-1.6-4.3zm57.9.1c.5 0 1.1.1 1.6.1v4.2c-1.2.1-1.7-1.4-1.6-4.3zm88.7.1c.5-.1 1-.1 1.5-.2.3 3.1-.3 4.5-1.6 4.3.1-1.3.1-2.7.1-4.1zm8.5.1c.5 0 1-.1 1.5-.1v4c-.5 1.3-1 1.2-1.5.2v-4.1zm-287.9 4.1c.5-.1 1.1-.2 1.6-.3.2 3.1-.3 4.6-1.6 4.3v-4z"/><path class="st0" d="M-316.9-149.9c.5.1 1.1.1 1.6.2v4.1c-1.3.2-1.8-1.3-1.6-4.3zm121 .1c1.3-.2 1.8 1.3 1.6 4.4-.6 1-1.1 1-1.6-.3v-4.1zm57.9 0c1.3-.2 1.8 1.4 1.6 4.3-.6.9-1.1 1-1.6-.3v-4zm57.9 4.3c-.6 0-1.1 0-1.7-.1-.3-3.2.2-4.7 1.6-4 .5 1.3.5 2.6 0 3.9l.1.2z"/><path class="st0" d="M-80.2-145.6v-3.9c1.3-.8 1.8.7 1.8 3.7-.6.1-1.2.1-1.8.2zm28.9-4.2v4c-.3 1.2-.8 1.3-1.3 1-.2-.2-.4-.7-.5-1.3.1-2.7.7-3.9 1.8-3.7zm8.7.2c.5-.1 1-.2 1.5-.2.3 3.1-.3 4.5-1.6 4.3.1-1.4.1-2.8.1-4.1zm-289.6 8.2c-.3-3.2.3-4.6 1.6-4.3.3 3.2-.2 4.6-1.6 4.3zm17.1-4.3c1.3-.2 1.8 1.4 1.6 4.4-.6.9-1.1 1-1.6-.3-.1-1.4 0-2.8 0-4.1zm119.1-.1c.5.1 1.1.2 1.6.3v3.9c-1.2.4-1.7-1.1-1.6-4.2zm58 .1c.5.1 1.1.2 1.6.3v4.1c-.6.9-1.1 1-1.6-.3v-4.1zm61.3 4.1c-1.2.4-1.9-.8-1.8-3.9.6 0 1.1 0 1.7.1.5 1.2.5 2.4.1 3.8z"/><path class="st0" d="M-76.7-141.6c0-1.3-.1-2.6-.1-3.9.6 0 1.1 0 1.7-.1.5 1.2.5 2.5.1 3.8-.6.1-1.1.2-1.7.2z"/><path class="st0" d="M-75-141.7c0-1.3-.1-2.5-.1-3.8 1.2-.5 1.9.7 1.8 3.8H-75zm22 .1c-.6 0-1.1 0-1.7-.1-.1-3 .6-4.1 1.6-4.4l.1.5c.5 1.5.6 2.8 0 4zm8.6.2c-.2-3 .3-4.5 1.6-4.3v4c-.5 1.3-1 1.3-1.6.3zm-320.2 4.1c0-1.6-.4-4 .8-4.1 1.2 0 .8 2.4.8 4-.5.1-1 .1-1.6.1zm30.7 0c-.2-3.1.4-4.6 1.7-4.3v3.9c-.6 1.4-1.1 1.4-1.7.4zm18.7-4.4c.5.1 1.1.2 1.6.3v4c-1.3.3-1.8-1.2-1.6-4.3zm34 .3v4.2c-.5 0-1.1 0-1.6-.1-.2-3 .2-4.6 1.6-4.1zm87-.2c1.3-.3 1.9 1.1 1.6 4.3-1.3.3-1.9-1.1-1.6-4.3zm56.1-.1c.5.1 1.1.2 1.6.3 0 1.3 0 2.6.1 4-1.3.3-1.8-1.2-1.7-4.3zm66.5 4.2c-1.2.4-1.9-.7-1.8-3.8h1.7c.5 1.2.5 2.5.1 3.8z"/><path class="st0" d="M-71.6-137.5c0-1.3-.1-2.5-.1-3.8h1.7c.5 1.2.5 2.4.1 3.7-.6 0-1.1.1-1.7.1z"/><path class="st0" d="M-69.9-137.6c0-1.2-.1-2.5-.1-3.7.6 0 1.1 0 1.7-.1.5 1.2.5 2.4.1 3.8h-1.7z"/><path class="st0" d="M-68.2-137.6c0-1.3-.1-2.5-.1-3.8.6 0 1.2 0 1.7-.1.5 1.2.5 2.5 0 3.8-.5.1-1.1.1-1.6.1z"/><path class="st0" d="M-66.5-137.6v-3.8c1.2-.4 1.8.7 1.7 3.8h-1.7zm6.8 0h-1.7c-.1-3.1.5-4.2 1.7-3.8.4 1.2.4 2.5 0 3.8z"/><path class="st0" d="M-59.7-137.6v-3.9c.6 0 1.2.1 1.7.1.4 1.3.4 2.6-.1 3.8h-1.6z"/><path class="st0" d="M-58.1-137.6c0-1.3.1-2.5.1-3.8h1.7c.4 1.3.4 2.6-.1 3.8h-1.7z"/><path class="st0" d="M-56.4-137.6c0-1.3.1-2.5.1-3.8h1.7c.1 3.2-.5 4.4-1.8 3.8zm12-3.8c.5-.1 1.1-.2 1.6-.3.3 3.2-.3 4.6-1.6 4.3v-4zm-318.5 4c1.3-.3 1.9 1.1 1.7 4.2-.6 1-1.1 1-1.6-.3-.1-1.3-.1-2.6-.1-3.9zm29 .1c.5-.1 1.1-.2 1.6-.3.2 3.2-.4 4.6-1.7 4.2 0-1.3.1-2.6.1-3.9zm20.4-.2c1.3-.3 1.8 1.2 1.6 4.3-1.3.4-1.9-1-1.6-4.3zm28.8 3.8c0-2.9.6-4.1 1.8-3.7v3.9c-.3 1.2-.8 1.3-1.3 1-.2-.2-.4-.6-.5-1.2zm92.1-3.8c1.3-.4 1.9 1 1.7 4.1-1.3.6-1.9-.8-1.7-4.1zm30.7.2c0 1.3-.1 2.7-.1 4-.5.1-1 .1-1.4.2-.2-.2-.4-.5-.5-1.1-.1-1.2-.1-2.3.4-3.2v.1c.5-1.2 1-1.2 1.6 0zm25.6-.2c1.3-.3 1.9 1.1 1.6 4.3-1.3.3-1.9-1.1-1.6-4.3zm32.3.2c0 1.3-.1 2.7-.1 4-.5 0-1.1-.1-1.6-.1 0-1.3 0-2.6.1-3.9.5-1.2 1-1.2 1.6 0zm-248.7-111.1h-1.7c-.1-3.1.6-4.3 1.8-3.8.4 1.4.4 2.6-.1 3.8z"/><path class="st0" d="M-46.1-133.3c-.2-3.1.4-4.5 1.7-4.2.2 3.4-.3 4.7-1.7 4.2zm-316.8-.2c.5.1 1.1.2 1.6.3.5.8.5 1.8.4 3.1-.1.6-.2 1-.4 1.3-1.2-.3-1.8-1.6-1.6-4.7zm27.3.2c.5-.1 1.1-.1 1.6-.2.2 3.1-.5 4.3-1.6 4.7-.2-.3-.4-.8-.4-1.4-.1-1.2-.1-2.3.4-3.1zm23.8 0c1.3-.4 1.9 1 1.7 4.1-1.4.6-1.9-.8-1.7-4.1zm25.5 4.1c-.2-3 .5-4.2 1.6-4.4l.2.5c.4 1.4.4 2.7-.1 3.9-.6-.1-1.1-.1-1.7 0z"/><path class="st0" d="M-284.6-129.3c0-1.3.1-2.6.1-3.9.5-.1 1.1-.2 1.6-.3.2 3.2-.4 4.6-1.7 4.2zm93.7-4c1.3-.5 1.9.8 1.8 4-1.4.6-2-.7-1.8-4zm27.4.2c-.1 2.8-.7 4.1-1.8 4.4-.2-.3-.3-.8-.4-1.4-.1-1.2 0-2.3.4-3.1.5-1.2 1-1.2 1.6-.2l.2.3zm28.8-.3c1.3-.4 1.9.9 1.7 4.1-1.3.6-1.9-.8-1.7-4.1zm27.2 4.1c-.2-3.2.4-4.6 1.7-4.1.2 3.2-.3 4.6-1.7 4.1zm59.7 0c-.1-3.2.5-4.5 1.8-3.9.1 3.2-.5 4.6-1.8 3.9zm-311.6 4.1c-1.2.4-1.8-.7-1.8-3.7l.1-.4c.6-1 1.1-1 1.7.1v.1c.4 1.2.4 2.5 0 3.9z"/><path class="st0" d="M-359.4-125.2c0-1.3-.1-2.6-.1-3.9 1.3-.6 1.9.7 1.8 3.8-.6.1-1.2.1-1.7.1zm20.3-.1c-.1-3.1.5-4.4 1.8-3.8.4 1.4.4 2.7-.1 3.9-.6 0-1.1 0-1.7-.1z"/><path class="st0" d="M-337.4-125.2c0-1.3.1-2.6.1-3.9v-.1c.5-1.1 1.1-1.2 1.7-.2l.1.6c-.1 3.1-.8 4-1.9 3.6zm27.3-3.9c1.3-.6 1.9.7 1.8 3.8-1.4.8-2-.6-1.8-3.8zm22.1 3.8c-.1-3.2.5-4.5 1.8-3.8.1 3.3-.5 4.6-1.8 3.8zm98.8-3.9h1.6c.5 1.2.5 2.5.1 3.9-1.2.6-1.8-.7-1.7-3.9z"/><path class="st0" d="M-187.4-125.2c0-1.3-.1-2.6-.1-3.9 1.2-.4 1.9.7 1.8 3.9-.6-.1-1.2 0-1.7 0zm18.6-.1c-.1-3.2.5-4.4 1.8-3.8.4 1.4.4 2.7-.1 3.9-.6 0-1.1-.1-1.7-.1z"/><path class="st0" d="M-167.1-125.2c0-1.3.1-2.6.1-3.9l-.1-.1c.5-1.1 1.1-1.2 1.7-.1l.1.6c0 3-.7 3.9-1.8 3.5zm34.1-4c1.3-.6 1.9.7 1.8 3.9-1.3.7-1.9-.6-1.8-3.9zm22.1 3.9c-.1-3.2.5-4.4 1.8-3.8.4 1.4.4 2.7-.1 3.9-.6 0-1.1 0-1.7-.1z"/><path class="st0" d="M-109.2-125.2c0-1.3.1-2.6.1-3.9.5-.1 1.1-.1 1.6-.2.2 3.2-.4 4.5-1.7 4.1zm27.4-4.2c.5.1 1.1.1 1.6.2.4 1.3.5 2.6.1 4-1.4.5-1.9-.9-1.7-4.2z"/><path class="st0" d="M-80.1-125.2c0-1.3 0-2.7-.1-4 .5 0 1.1 0 1.6.1.5 1.2.5 2.5.1 3.8-.5 0-1 0-1.6.1z"/><path class="st0" d="M-78.4-125.3c0-1.3-.1-2.6-.1-3.8 1.2-.4 1.9.8 1.8 3.9-.6-.1-1.2-.1-1.7-.1zm27.1 0c-.1-3.1.6-4.3 1.8-3.8.4 1.4.4 2.7-.1 3.9-.5 0-1.1-.1-1.7-.1z"/><path class="st0" d="M-49.6-125.2c0-1.3.1-2.6.1-3.9h1.7c.1 3.1-.5 4.4-1.8 3.9zm-308.2.2h1.7c.5 1.2.5 2.5.1 3.8-1.3.6-1.9-.7-1.8-3.8z"/><path class="st0" d="M-356-121.1c0-1.3-.1-2.6-.1-3.8.6 0 1.1-.1 1.7-.1.5 1.2.5 2.5.1 3.8-.6 0-1.2.1-1.7.1z"/><path class="st0" d="M-354.4-121.2c0-1.3-.1-2.5-.1-3.8 1.2-.4 1.9.6 1.8 3.8h-1.7zm10.2 0c-.1-3.1.6-4.2 1.8-3.8.4 1.3.4 2.6-.1 3.8h-1.7z"/><path class="st0" d="M-342.5-121.2c0-1.3.1-2.6.1-3.8.6 0 1.1.1 1.7.1.4 1.4.4 2.7-.1 3.8-.6-.1-1.2-.1-1.7-.1z"/><path class="st0" d="M-340.8-121.1c0-1.3.1-2.6.1-3.8h1.7c.1 3.1-.6 4.3-1.8 3.8zm32.4-3.9c.6 0 1.1.1 1.7.1.5 1.2.5 2.5.1 3.9-1.3.3-1.9-.9-1.8-4z"/><path class="st0" d="M-306.6-121.1c0-1.3-.1-2.6-.1-3.9.6 0 1.1 0 1.7-.1.5 1.2.5 2.5.1 3.8-.6.1-1.2.2-1.7.2z"/><path class="st0" d="M-305-121.2c0-1.3-.1-2.5-.1-3.8 1.2-.4 1.9.6 1.8 3.8h-1.7zm11.9 0c-.1-3.2.6-4.2 1.8-3.8.4 1.3.4 2.6-.1 3.8h-1.7z"/><path class="st0" d="M-291.4-121.2c0-1.3.1-2.5.1-3.8.6 0 1.1 0 1.7.1.4 1.4.4 2.7-.1 3.8-.6 0-1.2-.1-1.7-.1z"/><path class="st0" d="M-289.7-121.1c0-1.3.1-2.6.1-3.8.6 0 1.1-.1 1.7-.1 0 3.1-.6 4.3-1.8 3.9zm10.3-3.8v3.6c-1.4.8-1.9-.8-1.7-4 .6.2 1.1.3 1.7.4zm-73.3-123.5c0-1.3.1-2.5.1-3.8.6 0 1.1.1 1.7.1.4 1.3.4 2.5-.1 3.7h-1.7zm166.9 123.5h1.7c.5 1.2.5 2.4.1 3.8-1.3.5-1.9-.7-1.8-3.8z"/><path class="st0" d="M-184-121.2c0-1.3-.1-2.5-.1-3.8.6 0 1.1 0 1.7-.1.5 1.2.5 2.5.1 3.8-.6.1-1.1.1-1.7.1z"/><path class="st0" d="M-182.3-121.2c0-1.3-.1-2.5-.1-3.8 1.2-.4 1.9.6 1.8 3.8h-1.7zm6.7 0c-.1-3.1.5-4.2 1.7-3.8.4 1.3.4 2.6-.1 3.8h-1.6z"/><path class="st0" d="M-173.9-121.2c0-1.3 0-2.6.1-3.8.6 0 1.2.1 1.7.1.4 1.3.4 2.6-.1 3.8-.6-.1-1.1-.1-1.7-.1z"/><path class="st0" d="M-172.2-121.2c0-1.3.1-2.5.1-3.8h1.7c.4 1.4.4 2.6-.1 3.8-.6.1-1.1 0-1.7 0z"/><path class="st0" d="M-170.5-121.1c0-1.3.1-2.5.1-3.8.6 0 1.1 0 1.7-.1.1 3.1-.6 4.3-1.8 3.9zm40.9-3.8c.6 0 1.1 0 1.7-.1.5 1.2.5 2.5.1 3.8-1.3.7-1.9-.5-1.8-3.7z"/><path class="st0" d="M-127.8-121.2c0-1.3-.1-2.5-.1-3.8 1.2-.5 1.9.6 1.8 3.8h-1.7zm11.9 0c-.1-3.2.6-4.2 1.8-3.8.4 1.3.4 2.6-.1 3.8h-1.7z"/><path class="st0" d="M-114.3-121.2c0-1.3.1-2.5.1-3.8.6 0 1.1.1 1.7.1.4 1.4.4 2.7-.1 3.8-.6-.1-1.1-.1-1.7-.1z"/><path class="st0" d="M-112.6-121.1c0-1.3.1-2.6.1-3.8h1.7c.1 3.1-.6 4.3-1.8 3.8zm8.6-4.2c.5.2 1.1.3 1.6.5 0 1.2 0 2.4.1 3.6-1.4.6-1.9-.8-1.7-4.1zm-247-123.1c0-1.2 0-2.5.1-3.7h1.7c.4 1.2.4 2.5 0 3.7h-1.8zm255.4 127.3c.1-1.3.1-2.5.2-3.8.5-.1 1-.3 1.5-.4.3 3.3-.3 4.7-1.7 4.2zm18.8-3.8h1.7c.5 1.2.5 2.4.1 3.8-1.2.5-1.9-.7-1.8-3.8z"/><path class="st0" d="M-75-121.1c0-1.3-.1-2.5-.1-3.8h1.7c.5 1.2.5 2.4.1 3.7-.6 0-1.1 0-1.7.1z"/><path class="st0" d="M-73.3-121.2c0-1.2-.1-2.5-.1-3.7.6 0 1.1 0 1.7-.1.5 1.2.5 2.5.1 3.8h-1.7z"/><path class="st0" d="M-71.6-121.2c0-1.3-.1-2.5-.1-3.8 1.2-.4 1.9.6 1.8 3.8h-1.7zm15.3 0c-.1-3.2.6-4.2 1.8-3.7.4 1.3.4 2.6-.1 3.8-.6-.1-1.2-.1-1.7-.1z"/><path class="st0" d="M-54.7-121.2c0-1.3.1-2.5.1-3.8.6 0 1.1 0 1.7.1.4 1.4.4 2.6-.1 3.8-.5-.1-1.1-.1-1.7-.1z"/><path class="st0" d="M-53-121.1c0-1.3.1-2.5.1-3.8h1.7c.1 3.1-.5 4.3-1.8 3.8zm-296.3.3v3.8c-1.2.4-1.8-.7-1.7-3.8h1.7zm0-127.6v-3.7h1.7c.5 1.2.5 2.4 0 3.7h-1.7zm3.4 131.4v-3.8h1.7c.1 3-.5 4.2-1.7 3.8zm46-3.8v3.8c-1.2.4-1.8-.7-1.7-3.8h1.7z"/><path class="st0" d="M-347.6-248.4v-3.7h1.7c.5 1.2.5 2.4 0 3.7h-1.7zm51.1 131.4v-3.8h1.7c.1 3.1-.5 4.2-1.7 3.8zm173.7-3.8v3.8c-1.2.4-1.8-.7-1.7-3.8h1.7z"/><path class="st0" d="M-345.9-248.4v-3.7c.6 0 1.1-.1 1.7-.1.5 1.2.5 2.4.1 3.8h-1.8zM-119.4-117v-3.8h1.7c.2 3.1-.5 4.2-1.7 3.8zm51.1-3.8h1.7c.5 1.3.5 2.6 0 3.9-1.1.3-1.8-.8-1.7-3.9z"/><path class="st0" d="M-66.5-116.9v-3.9h1.7v3.9h-1.7zm-277.6-131.5c0-1.3-.1-2.5-.1-3.8 1.2-.5 1.9.7 1.8 3.8h-1.7zM-61.5-117v-3.8h1.7c.5 1.3.4 2.6 0 3.8h-1.7z"/><path class="st0" d="M-59.7-116.9v-3.8h1.7c.1 3-.5 4.1-1.7 3.8zm-207.8 74c.1 2.9-.5 4.2-1.7 4.1-.2-3.4.4-4.7 1.7-4.1zm-32.4-205.5h-1.7c-.1-3.1.5-4.2 1.8-3.7.4 1.3.4 2.5-.1 3.7zm17.1 209.6v3.8c-.1.2-.2.5-.3.7-.4.4-.7.5-1.1.1l-.3-.6c-.2-3.1.3-4.7 1.7-4z"/><path class="st0" d="M-299.9-248.4c0-1.2 0-2.5.1-3.7h1.7c.4 1.3.4 2.5 0 3.7h-1.8zM-277.7-35c-.6 0-1.2.1-1.8.1v-4c1.3-.6 1.8.9 1.8 3.9zm-10.3 4.1c-.1-3 .5-4.4 1.8-3.9.4.9.4 2 .3 3.3-.1.6-.2 1-.4 1.4-.5.5-1 .6-1.4 0-.2-.3-.2-.6-.3-.8z"/><path class="st0" d="M-286.3-30.7c0-1.4 0-2.7.1-4.1h1.7c.5 1.4.5 2.8.1 4.3-.7.9-1.3.9-1.9-.2zm-11.9-217.7v-3.7h1.7v3.7h-1.7zm5.1 0v-3.7h1.7c.5 1.2.5 2.4 0 3.7h-1.7zM-269.3-35v4.1c-.5 1.2-1 1.2-1.6.2-.2-2.9.3-4.4 1.6-4.3z"/><path class="st0" d="M-291.4-248.4v-3.7c.6 0 1.1 0 1.7-.1.5 1.2.5 2.4.1 3.7-.6.1-1.2.1-1.8.1zm24 217.7v-4.2c.5-.1 1.1-.1 1.6-.2.2 3.1-.4 4.6-1.6 4.4zm-22.2 4.1c-.2-3 .4-4.5 1.6-4.3l.1.2c.4 1 .5 2.2.3 3.5-.1.6-.3 1-.5 1.3-.6.5-1.1.2-1.5-.7z"/><path class="st0" d="M-289.7-248.4c0-1.2 0-2.5-.1-3.7 1.2-.5 1.9.6 1.8 3.7h-1.7zm54.5 0c-.6 0-1.1 0-1.7.1-.1-3.1.5-4.3 1.8-3.9.4 1.3.4 2.6-.1 3.8zm-35.7 217.7c.5-.1 1.1-.1 1.6-.2 0 1.4.1 2.8.1 4.2-.5 1.2-1.1 1.1-1.7.1v-4.1zm-18.7 4.1c.6-.1 1.1-.1 1.7-.2.5 1.2.5 2.5.2 3.9-.4 1.3-1 1.4-1.6.9-.1-.2-.2-.5-.3-.7v-3.9z"/><path class="st0" d="M-270.9-26.6c.6 0 1.1-.1 1.7-.1v-.1c.4 1.4.5 2.7.1 4.2-.6 1.1-1.1 1.2-1.7.1-.1-1.4-.1-2.7-.1-4.1z"/><path class="st0" d="M-269.3-22.4c0-1.4.1-2.9.1-4.3h1.6v4.1c-.4 1.2-.9 1.3-1.4.9-.1-.3-.2-.5-.3-.7zm34.1-226c0-1.3 0-2.6.1-3.8.6 0 1.1.1 1.7.1.4 1.3.4 2.5-.1 3.7h-1.7z"/><path class="st0" d="M-233.5-248.4c0-1.2 0-2.5.1-3.7h1.7c.4 1.2.4 2.5 0 3.7h-1.8z"/><path class="st0" d="M-231.8-248.4v-3.7h1.7c.5 1.2.5 2.4 0 3.7h-1.7z"/><path class="st0" d="M-230.1-248.4v-3.7h1.7c.5 1.2.5 2.4 0 3.7h-1.7zm-61.2 230c-.3-3.2.4-4.5 1.7-4.2v-.1c.4 1 .5 2.2.3 3.5-.1.6-.3 1.1-.5 1.4-.6.5-1.1.4-1.5-.6z"/><path class="st0" d="M-228.3-248.4v-3.7h1.7c.5 1.2.5 2.4.1 3.7h-1.8zm-42.5 225.9c.5 0 1 0 1.5.1l.1-.1c.4 1.4.4 2.8 0 4.2l-.1-.2c-.4 1.2-.9 1.2-1.4.8l-.3-.6c0-1.5.1-2.8.2-4.2z"/><path class="st0" d="M-269.2-18.4v-4.2c.5 0 1.1-.1 1.6-.1.2 3-.3 4.5-1.6 4.3zm-22.1 0c.5 0 1.1-.1 1.6-.1.5 1.1.5 2.5.3 3.9-.4 1.3-1 1.4-1.6.9-.1-.2-.2-.5-.4-.7 0-1.3.1-2.7.1-4zm13.6-.1c.5-.1 1.1-.1 1.6-.2.2 3-.3 4.4-1.6 4.4l-.2-.3c-.3-1.3-.3-2.6.2-3.9zm5.1 4.2c-.2-2.9.3-4.5 1.6-4.1l.2-.2c.4 1.4.4 2.9 0 4.3-.6 1.1-1.2 1-1.8 0z"/><path class="st0" d="M-270.9-14.4c0-1.4.1-2.8.1-4.2h1.5v4c-.4 1.2-.8 1.2-1.4.8 0-.2-.1-.4-.2-.6zm-103.9.2v3.7c-.1.2-.2.5-.2.7-.4.5-.7.5-1.1.1l-.3-.6c-.3-3.1.2-4.6 1.6-3.9zm148.2-234.2c0-1.2 0-2.5-.1-3.7 1.3-.6 1.9.6 1.8 3.7h-1.7zM-362.9-14.2v3.9c-.5 1.1-1.1 1.2-1.6.1-.3-3.2.2-4.6 1.6-4zm180.5-234.2h-1.7c-.1-3.1.6-4.3 1.8-3.9.4 1.4.4 2.7-.1 3.9zM-293.1-10.2c-.2-3 .3-4.5 1.6-4.1l.1-.1c.4 1.4.4 2.8 0 4.2-.5 1.1-1.1 1-1.7 0z"/><path class="st0" d="M-182.4-248.4c0-1.3 0-2.5.1-3.8.6 0 1.1.1 1.7.1.4 1.3.4 2.5-.1 3.7h-1.7z"/><path class="st0" d="M-180.7-248.4c0-1.2 0-2.5.1-3.7h1.7c.4 1.2.4 2.5 0 3.7h-1.8z"/><path class="st0" d="M-179-248.4v-3.7h1.7c.5 1.2.5 2.4 0 3.7h-1.7zm-93.6 234.1c.6 0 1.1-.1 1.7-.1v-.1c.4 1.4.5 2.8 0 4.1-1.3.5-1.9-.8-1.7-3.9z"/><path class="st0" d="M-271-10.4v-4.1c.5 0 1.1 0 1.6-.1.3 3.2-.2 4.7-1.6 4.2zm93.8-238v-3.7h1.7c.5 1.2.5 2.4 0 3.7h-1.7zm-75 238.1c-.6-.1-1.2-.1-1.7-.2v-3.7h1.6c.6 1.3.5 2.6.1 3.9z"/><path class="st0" d="M-252.2-10.2c0-1.3 0-2.7-.1-4 1.3-.6 1.9.8 1.8 3.9-.5 0-1.1 0-1.7.1zm76.7-238.2v-3.7c.6 0 1.1 0 1.7-.1.5 1.2.5 2.4.1 3.7-.7.1-1.3.1-1.8.1zm-69.9 238.2c0-1.3 0-2.7.1-4 .5 0 1.1-.1 1.6-.1.5.9.5 2.1.4 3.4-.1.6-.3 1.1-.5 1.4-.6.4-1.1.3-1.5-.8l-.1.1z"/><path class="st0" d="M-243.6-10.4c0-1.3-.1-2.6-.1-3.9 1.3-.4 1.9 1 1.7 4.1-.6 1-1.1 1.1-1.6-.2zm73 .1c.1-2.8.5-4.5 1.8-4 .4.9.5 2 .4 3.3-.1.6-.3 1-.5 1.4-.4.4-.7.5-1.1.3-.2-.2-.4-.5-.6-1z"/><path class="st0" d="M-168.7-10.5v-3.8c1.3-.4 1.9 1 1.7 4.1-.7 1-1.2 1.1-1.7-.3zm-5.1-237.9c0-1.2-.1-2.5-.1-3.7 1.2-.6 1.9.6 1.8 3.7h-1.7zm81.7 238.1c-.6-.1-1.2-.1-1.8-.2 0-3 .5-4.3 1.8-3.8.5 1.4.5 2.7 0 4z"/><path class="st0" d="M-92.1-10.3v-4c.6 0 1.1 0 1.7.1v3.7l.1.4c-.7 1-1.3.9-1.8-.2zm-30.7-238.1h-1.7c-.1-3.1.5-4.2 1.8-3.8.4 1.4.4 2.6-.1 3.8zm35.7 238v-3.9c.7.1 1.7-.7 1.6 2.3 0 2.2-.9 1.5-1.6 1.6zm-291.2 4.2c-.1-3 .4-4.6 1.8-4.1v-.1c.5 1.2.5 2.5.2 4-.4 1.3-1 1.4-1.6.9-.2-.2-.3-.4-.4-.7z"/><path class="st0" d="M-122.8-248.4c0-1.3 0-2.5.1-3.8.6 0 1.1.1 1.7.1.4 1.3.4 2.5 0 3.7h-1.8z"/><path class="st0" d="M-121.1-248.4v-3.7h1.7c.4 1.2.4 2.5 0 3.7h-1.7zM-371.3-10.3c1.3-.3 1.7 1.3 1.6 4.1-.6 1.1-1.2 1.3-1.8.3-.4-1.4-.4-2.9 0-4.4h.2zm6.8.1c.5 0 1.1-.1 1.6-.1 0 1.4 0 2.8.1 4.2l-.3.6c-.3.4-.7.4-1 .3-.2-.2-.4-.5-.6-.9 0-1.4.1-2.7.2-4.1zm71.4 0c.6 0 1.1 0 1.7-.1.1.2.2.5.3.7.2.9.1 1.8 0 2.7l-.3.6c-.5 0-1.1.1-1.6.1 0-1.3 0-2.6-.1-4zm34.1 4c-.2-3.2.4-4.5 1.7-4.1v-.1c.5 1.4.5 2.7 0 4.1v-.1c-.4 1.2-.8 1.2-1.4.7-.1-.1-.2-.3-.3-.5z"/><path class="st0" d="M-257.3-6.2v-4.1c.6.1 1.2.1 1.7.2.1 3-.5 4.2-1.7 3.9zm137.9-242.2v-3.7h1.7c.4 1.2.4 2.4 0 3.7h-1.7z"/><path class="st0" d="M-117.7-248.4v-3.7h1.7c.5 1.2.5 2.4 0 3.7h-1.7zM-250.4-6.1c0-1.4 0-2.7-.1-4.1h1.7v-.1c.5 1.4.5 2.7 0 4.1l-.1-.1c-.5 1.2-1 1.2-1.5.2z"/><path class="st0" d="M-248.8-6.2v-4.1h1.7v4.1h-1.7zm132.9-242.2v-3.7h1.7c.5 1.2.5 2.4 0 3.7h-1.7zm-127.7 238c.5.1 1.1.2 1.6.3v3.9c-.4 1.2-.9 1.3-1.4 1-.2-.3-.4-.7-.6-1.2-.2-1.3-.2-2.5.2-3.6l.2-.4zm71.5 4.3c-.1-2.8.3-4.4 1.6-4.2l.2.1c.4 1.4.4 2.8 0 4.3-.7 1-1.3.8-1.8-.2z"/><path class="st0" d="M-114.2-248.4v-3.7h1.7c.5 1.2.5 2.4.1 3.7h-1.8zm-54.5 237.9c.5.1 1.1.2 1.6.3v4c-.5 1.2-1.1 1.3-1.8.4-.4-1.4-.4-2.9 0-4.3l.2-.4z"/><path class="st0" d="M-112.5-248.4c0-1.2 0-2.5-.1-3.7 1.3-.6 1.9.6 1.8 3.7h-1.7zm-46.1 238.3h1.7v3.9c-.5 1.2-1 1.2-1.6.2 0-1.4 0-2.8-.1-4.1zm63 3.8c-.5.1-1.1.2-1.6.2-.2-3.2.4-4.6 1.7-4.2 0 1.4 0 2.7-.1 4zm29-242.1h-1.7c-.1-3.1.5-4.2 1.8-3.8.4 1.4.4 2.6-.1 3.8zM-92.1-10.3l1.8.3c0 3.1-.6 4.2-1.8 3.8v-4.1zm-287.8 8.2c-.1-2.9.4-4.4 1.6-4.1h.1c.4 1 .5 2.2.3 3.5-.1.6-.3 1-.5 1.4-.6.4-1.1.3-1.5-.8zm8.6-4.1h1.6c.1 2.8-.3 4.4-1.6 4.1l-.3-.6c-.3-1.3-.3-2.5.3-3.5zm5 4.2c-.1-2.8.3-4.5 1.6-4.1l.2-.1c.4 1.5.4 2.9 0 4.4-.6 1-1.2.8-1.8-.2z"/><path class="st0" d="M-66.6-248.4c0-1.3 0-2.5.1-3.8.6 0 1.1.1 1.7.1.4 1.3.4 2.5 0 3.7h-1.8zM-362.9-6.1c.5-.1 1.1-.1 1.6-.2v4.1c-.6 1.2-1.2 1.3-1.8.3-.4-1.5-.3-2.9.1-4.3l.1.1zm32.4.1v3.8c-.7 0-1.6.7-1.6-1.9 0-2.6.9-1.9 1.6-1.9z"/><path class="st0" d="M-64.9-248.4v-3.7h1.7c.4 1.2.4 2.5 0 3.7h-1.7zM-308.4-2.3V-6c.7-.1 1.6-.8 1.6 1.8 0 2.7-.9 2-1.6 1.9z"/><path class="st0" d="M-63.2-248.4v-3.7h1.7c.4 1.2.4 2.4 0 3.7h-1.7zM-279.5-6.2c.6 0 1.1.1 1.7.1v4c-.5 0-1.1-.1-1.6-.1l-.3-.6c-.2-.9-.2-1.8 0-2.7.1-.2.2-.4.2-.7zm18.8 4.1c-.2-3.2.4-4.4 1.7-4.1v-.1c.4 1.4.5 2.8 0 4.2-.6 1.1-1.1 1.1-1.7 0z"/><path class="st0" d="M-259-2.1v-4.2h1.7c.1 3.1-.4 4.5-1.7 4.2zm8.6-4c.5 0 1.1-.1 1.6-.1v4.1c-.5 1.2-1 1.2-1.6.2v-4.2zm5.1 3.9v-4.1c.5-1 1-1.1 1.5 0h.2c.4 1.4.4 2.8-.2 4-.5.1-1 .1-1.5.1z"/><path class="st0" d="M-243.8-2.2c.1-1.3.1-2.6.2-4 .5-.1 1-.1 1.6-.2.2 3.3-.4 4.7-1.8 4.2zm71.7-3.9c.5 0 1.1-.1 1.6-.1.5.9.6 2.1.4 3.4-.1.6-.3 1.1-.5 1.4-.5.5-1 .4-1.5-.6v-4.1zm3.4 0c.5 0 1.1-.1 1.6-.1.1 2.9-.3 4.5-1.6 4.1l-.3-.6c-.2-1.3-.2-2.5.3-3.4zm8.4-.1v4.1c-.5 1.2-1 1.2-1.6.2-.2-3 .3-4.5 1.6-4.3zm1.8.1c.5-.1 1.1-.1 1.6-.2v4.1c-.5 1.1-1.1 1.2-1.6.1.1-1.3.1-2.6 0-4zm97.1-242.3v-3.7h1.7c.5 1.2.5 2.4 0 3.7h-1.7zM-379.9-2.1h1.7c.5 1.4.4 2.7 0 4.1-1.3.3-1.9-1-1.7-4.1z"/><path class="st0" d="M-378.2 2v-4.1c.5-1.1 1-1.2 1.6-.6.5 1.1.6 2.4.4 3.8-.1.3-.2.5-.3.8-.6.1-1.2.1-1.7.1zm6.9-4.1c-.1 1.3-.1 2.7-.2 4-.5 1.3-1.1 1.2-1.7.2-.4-1.4-.4-2.8-.1-4.2.6-1.1 1.1-1.2 1.7 0 .1.1.3 0 .3 0zm5 .1c.5 0 1.1-.1 1.6-.1.5.9.5 2.1.4 3.4-.1.6-.3 1.1-.5 1.4-.5.5-1 .4-1.5-.6V-2zm3.5 0c.5-.1 1.1-.1 1.6-.2.2 2.9-.3 4.5-1.6 4.1l-.3-.6c-.3-1.2-.3-2.4.3-3.3zm5.1 3.9c-.2-3.1.3-4.4 1.6-3.8.5 1.3.5 2.6.1 4-.7 1-1.2 1.1-1.7-.2z"/><path class="st0" d="M-356.1 2c0-1.3 0-2.6-.1-4 .7.1 1.7-.7 1.6 2.2 0 2.3-.9 1.6-1.5 1.8zm296.4-250.4v-3.7h1.7c.5 1.2.5 2.4 0 3.7h-1.7z"/><path class="st0" d="M-58-248.4v-3.7h1.7c.5 1.2.5 2.4 0 3.7H-58zM-260.7-2.1h1.7c-.1 1.6.2 4.1-1 3.8-.9-.3-.6-2.3-.7-3.8zm6.8 0c.5 0 1.1-.1 1.6-.1v4.1c-.5 1.2-1.1 1.1-1.6.2v-4.2zm3.5.1c.5-.1 1.1-.1 1.6-.2.2 3-.3 4.5-1.6 4.3V-2zm13.6 3.9c-.2-3.1.3-4.4 1.6-3.8.5 1.3.5 2.6.1 4-.6 1-1.2 1.1-1.7-.2z"/><path class="st0" d="M-235.2 2c0-1.3 0-2.6-.1-4 .7.1 1.7-.7 1.6 2.2 0 2.3-.9 1.6-1.5 1.8zm63.1-4c.5-.1 1.1-.1 1.6-.2.6 1.3.5 2.6.2 4.1-.6 1.2-1.1 1.2-1.7.2-.1-1.4-.1-2.7-.1-4.1z"/><path class="st0" d="M-170.4 2c0-1.4-.1-2.8-.1-4.2l.1.1c.5-1.1 1-1.2 1.6 0l.2-.1c-.1 1.4-.1 2.7-.2 4.1-.4 1.1-.8 1.2-1.3.7-.2-.2-.2-.4-.3-.6zm8.5-4c.5-.1 1.1-.1 1.6-.2V2c-.5 1.1-1 1.1-1.6.1V-2zm3.5 0c.5 0 1.1-.1 1.6-.1.2 2.9-.4 4.4-1.6 4.2V-2zm8.4 3.9c-.2-3.1.3-4.4 1.6-3.8.5 1.3.5 2.6.1 4-.6 1-1.1 1.1-1.7-.2z"/><path class="st0" d="M-148.3 2c0-1.3 0-2.6-.1-4 .7.1 1.7-.7 1.6 2.2 0 2.3-.9 1.6-1.5 1.8zm49.5.1c-.2-2.9.2-4.5 1.5-4.2h.3c.4 1.5.4 2.9 0 4.3-.7 1-1.3 1-1.8-.1zm42.5-250.5v-3.7c.6 0 1.1 0 1.7-.1.5 1.2.5 2.5.1 3.7-.7.1-1.2.1-1.8.1zM-95.5-2.1c.5 0 1.1-.1 1.6-.1 0 1.4.1 2.7.1 4.1h-1.7c-.5-1.3-.5-2.6 0-4zm15.4 4c-.2-3.1.3-4.4 1.6-3.8.5 1.3.5 2.6.1 4-.6 1-1.2 1.1-1.7-.2z"/><path class="st0" d="M-78.5 2c0-1.3 0-2.6-.1-4 .7.1 1.7-.7 1.6 2.2 0 2.3-.9 1.6-1.5 1.8zm-298 4.2V2c.4-1.1 1-1.2 1.5-.7.3.4.4.9.5 1.5.1 1.5.1 2.8-.4 3.8-.6.8-1.1.6-1.6-.4zm321.9-254.6c0-1.2 0-2.5-.1-3.7.6 0 1.1-.1 1.7-.1.5 1.2.5 2.5 0 3.8h-1.6zM-373.1 2.1c.5-.1 1.1-.1 1.6-.2V6c-.5 1.2-1 1.3-1.6.7-.5-1-.6-2.3-.4-3.8.2-.3.3-.5.4-.8zm6.8 0c.5-.1 1-.1 1.6-.2.6 1.3.5 2.6.2 4.1-.6 1.2-1.1 1.2-1.7.2 0-1.4 0-2.7-.1-4.1z"/><path class="st0" d="M-364.6 6.1c0-1.4-.1-2.8-.1-4.2l.1.1c.5-1.1 1.1-1.2 1.6 0l.2-.1c-.1 1.4-.1 2.7-.2 4.1-.4 1.1-.8 1.2-1.3.7l-.3-.6zm6.9-4.2c.5 0 1.1.1 1.6.1-.1 1.5.2 3.6-.7 3.8-1.2.2-.9-2.3-.9-3.9zm8.4 4.3c-.1-3.2.5-4.5 1.8-4.1.4 1.4.4 2.8 0 4.2-.6 1-1.2.9-1.8-.1z"/><path class="st0" d="M-347.7 6.2c0-1.4.1-2.7.1-4.1 1.3-.5 1.9.8 1.5 4-.4 1.1-.9 1.2-1.4.7 0-.2-.1-.4-.2-.6zm52.9 0c-.1-3 .3-4.5 1.6-4.1l.1-.1c.4 1.4.4 2.8 0 4.2-.5 1.1-1.1 1-1.7 0zm40.9-4.1c.5-.1 1.1-.1 1.6-.2 0 1.4 0 2.8.1 4.2-.5 0-1.1.1-1.6.1 0-1.4-.1-2.7-.1-4.1zm17.1-.2c.5 0 1.1.1 1.6.1-.1 1.5.2 3.6-.7 3.8-1.2.2-.9-2.3-.9-3.9zm8.5 4.3c-.1-3.2.5-4.5 1.8-4.1.4 1.4.4 2.8 0 4.2-.7 1-1.3.9-1.8-.1z"/><path class="st0" d="M-226.7 6.2c0-1.4.1-2.7.1-4.1 1.3-.5 1.9.8 1.5 4-.4 1.1-.9 1.2-1.4.7 0-.2-.1-.4-.2-.6zm17.1-4V6c-.7 0-1.6.7-1.6-1.9 0-2.6.9-1.9 1.6-1.9zm156.7-250.6v-3.8c1.2-.4 1.8.8 1.8 3.8h-1.8zm-303.3 4.3c-.6 0-1.1-.1-1.7-.1-.1-3.2.5-4.5 1.8-3.8.5 1.4.5 2.7-.1 3.9zm168.7 250V2.2c.7-.1 1.6-.8 1.6 1.8 0 2.7-.9 2-1.6 1.9zm15.4-3.8c.5 0 1.1-.1 1.6-.1.4 1.4.5 2.8-.1 4.2h-1.6c.1-1.4.1-2.7.1-4.1z"/><path class="st0" d="M-170.5 6.2c0-1.4 0-2.8.1-4.2h1.6v4.1c-.5 1.1-1.1 1.1-1.7.1zm8.6-4.1c.5 0 1.1 0 1.6-.1l.1-.1c.4 1.4.4 2.8 0 4.2-.6 1.1-1.1 1.1-1.7.1.1-1.4 0-2.7 0-4.1z"/><path class="st0" d="M-160.2 6.1c0-1.4 0-2.8.1-4.2h1.6V6c-.4 1.2-.8 1.2-1.3.7-.2-.1-.3-.3-.4-.6zm10.2-4.2c.5 0 1.1.1 1.6.1-.1 1.5.2 3.6-.7 3.8-1.2.2-.8-2.3-.9-3.9zm17.1.3V6c-.7 0-1.6.7-1.6-1.9-.1-2.6.9-1.9 1.6-1.9zm-223.3-246.3c0-1.3.1-2.6.1-3.9h1.7c.1 3.2-.5 4.3-1.8 3.9zm15.5 0c-1.2.4-1.9-.7-1.8-3.8h1.7c.5 1.1.5 2.4.1 3.8zm229.9 250V2.2c.7-.1 1.6-.8 1.6 1.8 0 2.7-1 2-1.6 1.9zm12-3.8c.5-.1 1.1-.2 1.6-.2.5.9.5 2.1.4 3.5-.1.6-.3 1.1-.5 1.4-.5.5-1 .4-1.5-.6V2.1z"/><path class="st0" d="M-340.7-244.1c0-1.3-.1-2.6-.1-3.9 1.3-.8 1.9.5 1.8 3.8-.6 0-1.1 0-1.7.1zM-88.8 6V2.1c.7.1 1.6-.5 1.6 1.9.1 2.6-.9 2-1.6 2zm8.7-4.1c.5 0 1.1.1 1.6.1-.1 1.5.2 3.6-.7 3.8-1.2.2-.9-2.3-.9-3.9zm8.5 4.3c-.1-3.2.5-4.5 1.8-4.1.4 1.4.4 2.8 0 4.2-.7 1-1.3.9-1.8-.1z"/><path class="st0" d="M-70 6.2c0-1.4.1-2.7.1-4.1 1.3-.5 1.9.8 1.5 4-.4 1.1-.9 1.2-1.4.7 0-.2-.1-.4-.2-.6zm-306.5 0c.5-.1 1.1-.1 1.6-.2.5.9.5 2.1.4 3.4-.1.6-.3 1.1-.5 1.4-.5.5-1 .4-1.5-.6v-4zm3.4 0c.5-.1 1.1-.1 1.6-.2.1 2.8-.3 4.5-1.6 4.1l-.3-.6c-.2-1.2-.2-2.4.3-3.3zm6.9 0c.5 0 1.1 0 1.6-.1.4.9.5 2 .4 3.3-.1.6-.2 1.1-.4 1.4-.4.4-.7.5-1.1.4-.2-.2-.5-.5-.6-.9-.1-1.4 0-2.7.1-4.1z"/><path class="st0" d="M-364.6 10.3c0-1.4 0-2.8-.1-4.2.5 0 1.1 0 1.6-.1v4.1c-.4 1.2-.9 1.2-1.5.2zm15.3-4.1h1.6l.2-.2c.4 1.4.4 2.8 0 4.2-.6 1.1-1.1 1.1-1.7.1 0-1.4-.1-2.7-.1-4.1z"/><path class="st0" d="M-347.6 10.2c0-1.4.1-2.8.1-4.2.5 0 1 0 1.5.1v4c-.4 1.2-.8 1.2-1.4.7 0-.2-.1-.4-.2-.6zm52.8-4c.6 0 1.1 0 1.7-.1.1.3.2.5.3.8.2 1.4.1 2.7-.4 3.7-.5.7-1.1.7-1.6-.3.1-1.4.1-2.7 0-4.1zm-12-250.4h-1.7c-.1-3.2.5-4.3 1.8-3.7.5 1.2.5 2.5-.1 3.7zm78.5 250.4h1.6l.2-.2c.4 1.4.4 2.8 0 4.2-.6 1.1-1.1 1.1-1.7.1-.1-1.4-.1-2.7-.1-4.1z"/><path class="st0" d="M-226.6 10.2c0-1.4.1-2.8.1-4.2.5 0 1 0 1.5.1v4c-.4 1.2-.8 1.2-1.4.7-.1-.2-.1-.4-.2-.6zm-80.2-254.4c0-1.3.1-2.5.1-3.8h1.7c.4 1.3.4 2.6-.1 3.8h-1.7z"/><path class="st0" d="M-305.1-244.1c0-1.3.1-2.5.1-3.8h1.7c.1 3.1-.6 4.2-1.8 3.8zM-172.2 6v4.1c-.5 1.2-1.1 1.1-1.6.1-.2-2.9.3-4.3 1.6-4.2zm-112.3-250.2c-1.2.5-1.9-.6-1.8-3.8.6 0 1.1-.1 1.7-.1.5 1.3.5 2.6.1 3.9zM-170.4 6.1c.5 0 1.1-.1 1.6-.1v4.1c-.5 1.2-1 1.2-1.6.2V6.1zm8.6.1h1.6c.4.9.5 2 .4 3.3-.1.6-.2 1.1-.4 1.4-.3.4-.7.5-1.1.4-.2-.2-.5-.5-.6-.9-.1-1.5 0-2.8.1-4.2z"/><path class="st0" d="M-160.2 10.3c0-1.4-.1-2.8-.1-4.2.5 0 1.1-.1 1.6-.1v4.1c-.4 1.2-.9 1.2-1.5.2zm-124.3-254.5c0-1.3-.1-2.6-.1-3.8 1.3-.6 1.9.6 1.8 3.8h-1.7zm45.9 0h-1.7c-.1-3.2.5-4.4 1.8-3.9.4 1.5.4 2.8-.1 3.9zM-98.8 6.2h1.6c.5 1.3.5 2.7.1 4.1-.6 1.1-1.1 1.1-1.7 0V6.2z"/><path class="st0" d="M-97.2 10.2V6.1c.5-1.1 1-1.2 1.6-.1l.2.2c-.1 1.3-.1 2.6-.2 4-.4 1.1-.8 1.2-1.4.7 0-.3-.1-.5-.2-.7zm25.6-4h1.6l.2-.2c.4 1.4.4 2.8 0 4.2-.6 1.1-1.1 1.1-1.7.1-.1-1.4-.1-2.7-.1-4.1z"/><path class="st0" d="M-69.9 10.2c0-1.4.1-2.8.1-4.2.5 0 1 0 1.5.1v4c-.4 1.2-.8 1.2-1.4.7-.1-.2-.2-.4-.2-.6zm-306.6.1c.5-.1 1.1-.1 1.6-.2.6 1.3.5 2.7.1 4.2-.5 0-1.1 0-1.6.1-.1-1.4-.1-2.7-.1-4.1z"/><path class="st0" d="M-374.8 14.3c0-1.4 0-2.8-.1-4.2l.1.1c.5-1.1 1.1-1.1 1.6 0l.2-.1c-.1 1.4-.1 2.7-.2 4.1-.6.1-1.1.1-1.6.1zm6.8.1c-.1-2.8.3-4.5 1.6-4.1l.2-.1c.4 1.5.4 2.9 0 4.4-.6 1-1.2.8-1.8-.2zm129.4-258.6c0-1.3.1-2.6.1-3.9.6 0 1.1.1 1.7.1 0 3.2-.6 4.4-1.8 3.8zm-126 254.5c.5-.1 1.1-.1 1.6-.2v4.1c-.6 1.2-1.2 1.3-1.8.3-.4-1.5-.3-2.9.1-4.4l.1.2zm15.4 0c.6 0 1.1-.1 1.7-.1.4 1.4.5 2.8 0 4.2h-1.7c-.1-1.4-.1-2.8 0-4.1z"/><path class="st0" d="M-347.6 14.3v-4.2c.5 0 1.1 0 1.6-.1 0 1.4.1 2.8.1 4.1-.5 1.4-1.1 1.3-1.7.2 0 .1 0 0 0 0zm17.1-3.9v3.8c-.7 0-1.6.7-1.6-1.9 0-2.6.9-1.9 1.6-1.9zm109-254.6c-1.2.5-1.9-.6-1.8-3.8.6 0 1.1-.1 1.7-.1.5 1.2.5 2.5.1 3.9zm-86.9 258.3v-3.7c.7-.1 1.6-.8 1.6 1.8s-.9 2-1.6 1.9zm13.7-3.8h1.6c.1.2.2.5.3.7.2 1.4.1 2.6-.3 3.7-.5.7-1.1.7-1.5-.3-.1-1.4-.1-2.7-.1-4.1z"/><path class="st0" d="M-221.5-244.2c0-1.3-.1-2.6-.1-3.9 1.3-.5 1.9.8 1.8 3.9-.6.1-1.1.1-1.7 0zm-58 254.4c.5 0 1.1-.1 1.6-.1v4c-.4 1.3-1 1.3-1.6.7-.5-1-.6-2.4-.4-3.8.3-.2.4-.5.4-.8zm93.7-254.3h-1.7c-.1-3.2.5-4.4 1.8-3.8.4 1.3.4 2.6-.1 3.8zm-64.7 258.4c-.5 0-1.1.1-1.6.1 0-1.4 0-2.8-.1-4.2.5 0 1.1-.1 1.6-.1 0 1.4.1 2.8.1 4.2zm5.2.1c0-1.7-.3-4.1.9-3.8.9.2.6 2.3.7 3.8-.6 1-1.1 1-1.6 0zm17-4.1c.6 0 1.1-.1 1.7-.1.4 1.4.5 2.8 0 4.2h-1.7v-4.1z"/><path class="st0" d="M-226.7 14.3v-4.2c.5 0 1.1 0 1.6-.1 0 1.4.1 2.8.1 4.1-.5 1.4-1.1 1.3-1.7.2zm52.9-4c.5 0 1.1-.1 1.6-.1v4.1c-.5 1.2-1 1.2-1.6.2v-4.2zm3.4 0c.5-.1 1.1-.1 1.6-.2.2 2.9-.3 4.4-1.6 4.2v-4zm6.8 4.1c-.1-2.8.3-4.5 1.6-4.1l.2-.1c.4 1.5.4 2.9 0 4.4-.6 1-1.2.8-1.8-.2zm-22.2-258.5c0-1.3.1-2.6.1-3.9.6 0 1.1 0 1.7.1 0 3.1-.6 4.2-1.8 3.8zm25.6 254.4c.5-.1 1-.1 1.6-.2v4.1c-.6 1.2-1.2 1.3-1.8.3-.4-1.5-.3-2.9.1-4.4l.1.2zm61.4-.1h1.6c.4 1.4.5 2.7 0 4.1-.6 1.1-1.1 1.1-1.6-.1v-4z"/><path class="st0" d="M-97.2 14.3v-4.1h1.6v4.2c-.5-.1-1.1-.1-1.6-.1zm25.6-4c.6 0 1.1-.1 1.7-.1.4 1.4.5 2.8 0 4.2h-1.7v-4.1z"/><path class="st0" d="M-70 14.3v-4.2c.5 0 1.1 0 1.6-.1 0 1.4.1 2.8.1 4.1-.5 1.4-1.1 1.3-1.7.2 0 .1 0 0 0 0zm-98.7-258.5c-1.3.6-1.9-.5-1.8-3.7.6 0 1.1-.1 1.7-.1.5 1.1.5 2.4.1 3.8zM-368 14.4c.5 0 1.1-.1 1.6-.1.6 1.4.5 2.7 0 4.2-.5 0-1.1.1-1.6.1v-4.2zm3.5 0c.5 0 1.1-.1 1.6-.1v4.2c-.5 0-1.1 0-1.6-.1l-.2.1c-.4-1.5-.4-2.9.2-4.1zm5 4h-1.7c-.1-3.1.4-4.5 1.7-4v4z"/><path class="st0" d="M-168.7-244.2c0-1.3-.1-2.6-.1-3.9 1.3-.4 1.9.8 1.8 4-.6 0-1.1-.1-1.7-.1zM-351 18.3c-.6-.1-1.5.6-1.6-1.7-.1-2.9.9-2.1 1.6-2.3.5 1.4.5 2.7 0 4z"/><path class="st0" d="M-351 18.3v-3.9c.6 0 1.1-.1 1.7-.1 0 1.4 0 2.8-.1 4.3-.5 1-1.1.9-1.6-.3zm221.4-262.5h-1.7c-.1-3.1.6-4.3 1.8-3.8.4 1.3.4 2.6-.1 3.8zm-218 258.6c.6 0 1.2-.1 1.7-.1.4 1.3.5 2.7 0 4-.5.1-1.1.2-1.6.3 0-1.4-.1-2.8-.1-4.2z"/><path class="st0" d="M-345.9 18.2v-4c.7.3 1.7-.5 1.6 2.4-.1 2.4-1 1.6-1.6 1.6zm51.2-3.8h1.6l.3.6c.2 1.3.2 2.5-.2 3.6-.5.9-1 1-1.5.5l-.3-.6c0-1.4.1-2.7.1-4.1zm15.3.1c.5-.1 1.1-.2 1.6-.3.2 2.8-.2 4.5-1.5 4.3-.1-.2-.2-.3-.3-.5-.3-1.4-.3-2.6.2-3.5zm20.3 0v4c-.3.9-.8 1.1-1.2.9-.2-.2-.4-.5-.5-.9 0-2.8.3-4.9 1.7-4zm129.5-258.7c0-1.3.1-2.5.1-3.8h1.7c.4 1.3.4 2.6-.1 3.8h-1.7zM-254 14.2v4.2c-.5 1.1-1 1-1.6.1-.2-2.9.3-4.4 1.6-4.3z"/><path class="st0" d="M-127.9-244.2c0-1.3.1-2.5.1-3.8h1.7c.1 3.2-.6 4.3-1.8 3.8zM-245.3 14.4h1.6v3.9c-.4 1.2-.8 1.3-1.4.8l-.3-.6c0-1.4.1-2.7.1-4.1zm6.7 4h-1.7c-.1-3.1.4-4.5 1.7-4v4zm131.2-262.6c-1.2.5-1.9-.6-1.8-3.8h1.7c.5 1.2.5 2.5.1 3.8zM-230 18.3c-.6-.1-1.5.6-1.6-1.7-.1-2.9.9-2.1 1.6-2.3.4 1.4.4 2.7 0 4z"/><path class="st0" d="M-230 18.3v-3.9c.6 0 1.1-.1 1.7-.1 0 1.4 0 2.8-.1 4.3-.6 1-1.1.9-1.6-.3-.1.1 0 0 0 0zm122.6-262.5c0-1.3-.1-2.5-.1-3.8 1.3-.7 1.9.5 1.8 3.7-.5.1-1.1.1-1.7.1zM-226.7 14.4c.6 0 1.2-.1 1.7-.1.4 1.3.5 2.7 0 4-.5.1-1.1.2-1.6.3 0-1.4 0-2.8-.1-4.2z"/><path class="st0" d="M-225 18.2v-4c.7.3 1.7-.5 1.6 2.4-.1 2.4-.9 1.6-1.6 1.6zm51.2-3.8c.5-.1 1.1-.1 1.6-.2v4.1c-.5 1.2-1 1.2-1.6.2v-4.1zm10.2 0c.5 0 1.1-.1 1.6-.1.5.9.5 2.1.4 3.4-.1.6-.3 1.1-.5 1.4-.5.5-1 .4-1.5-.6v-4.1zm3.5 0c.5 0 1.1-.1 1.6-.1v4.2c-.1.2-.2.4-.3.7-.4.4-.8.4-1.2.1-.2-.3-.4-.8-.6-1.4-.1-1.4-.1-2.6.5-3.5zm3.2 4.1c.1-1.5-.2-3.9.9-3.9s.8 2.4.9 3.9l-.1-.1c-.4 1.1-.9 1.2-1.4.7l-.3-.6zm5.2-.1h-1.7c-.1-3.1.4-4.5 1.7-4v4zm80-262.6h-1.7c-.1-3.2.5-4.4 1.8-3.8.4 1.3.4 2.6-.1 3.8zM-98.8 14.2c.5 0 1.1.1 1.6.1 0 1.4 0 2.8-.1 4.3-1.2.1-1.8-1.2-1.5-4.4z"/><path class="st0" d="M-71.7-244.2c0-1.3.1-2.5.1-3.8.6 0 1.1.1 1.7.1.1 3.2-.6 4.3-1.8 3.7zM-81.9 18.4h-1.7c-.1-3.1.4-4.5 1.7-4v4zm32.4-262.5c-1.2.4-1.9-.7-1.8-3.8h1.7c.6 1.2.5 2.5.1 3.8zM-73.3 18.3c-.6-.1-1.5.6-1.6-1.7-.1-2.9.9-2.1 1.6-2.3.4 1.4.4 2.7 0 4z"/><path class="st0" d="M-73.3 18.3v-3.9c.6 0 1.1-.1 1.7-.1 0 1.4 0 2.8-.1 4.3-.6 1-1.1.9-1.6-.3zm23.8-262.4c0-1.3-.1-2.5-.1-3.8h1.7c.5 1.2.5 2.4.1 3.8-.5-.1-1.1 0-1.7 0zM-70 14.4c.6 0 1.2-.1 1.7-.1.4 1.3.5 2.7 0 4-.5.1-1.1.2-1.6.3 0-1.4 0-2.8-.1-4.2z"/><path class="st0" d="M-68.3 18.2v-4c.7.3 1.7-.5 1.6 2.4-.1 2.4-.9 1.6-1.6 1.6zm-308.2.1c.5 0 1.1.1 1.6.1.5 1.4.5 2.8 0 4.1-1.2.3-1.8-1-1.6-4.2z"/><path class="st0" d="M-374.9 22.6v-4.1h1.6c0 1.3.1 2.7.1 4-.5 1.2-1 1.1-1.7.1zm6.8-.2h-1.7c-.1-3 .5-4.3 1.7-4 .1 1.3 0 2.7 0 4zm320.4-266.6c0-1.3-.1-2.5-.1-3.8 1.3-.6 1.9.5 1.8 3.7-.6.1-1.2.1-1.7.1zm-311.9 4.2c-.5 0-1.1.1-1.6.1-.2-3.2.4-4.5 1.8-4.1.4 1.4.4 2.8-.2 4z"/><path class="st0" d="M-359.6-240c0-1.3.1-2.6.1-3.9h1.7c.1 3.1-.5 4.3-1.8 3.9zm1.8 262.5v-4.1c.5 0 1.1.1 1.6.1v3.9c-.4 1.2-.8 1.2-1.3.7l-.3-.6zm6.8-4.1c.5 0 1.1.1 1.6.1v4c-.5 1.1-1.1 1-1.6 0v-4.1zm54.5 4.2c-.1-2.9.3-4.5 1.6-4.1l.2-.2c.3 1.1.4 2.3.2 3.6-.1.6-.3 1-.5 1.4-.5.4-1 .3-1.5-.7zm17.2-4.1c-.1 2.7-.5 4.4-1.8 4.3-.1-.2-.2-.5-.3-.7-.3-1.4-.2-2.7.3-3.9.5-.9 1.1-.9 1.6.2l.2.1zm18.4 4.1c-.6-.2-1.5.2-1.5-2.1 0-2.3.8-1.9 1.5-2h.2c.4 1.4.4 2.7 0 4.1h-.2zm5.3-4.1c.5 0 1.1-.1 1.6-.1l.1-.1c.4 1.4.4 2.7-.1 4-.6.1-1.2.1-1.8.2.2-1.3.2-2.6.2-4zm8.5 4.1c-.2-3.2.4-4.6 1.7-4.1v-.1c.5 1.4.5 2.7 0 4.1-.6 1.2-1.1 1.1-1.7.1z"/><path class="st0" d="M-245.4 22.5v-4.1c.6 0 1.1-.1 1.7-.1.2 3.1-.4 4.5-1.7 4.2zM-337.3-240c-1.3.4-1.9-.8-1.8-4h1.6c.6 1.3.6 2.6.2 4z"/><path class="st0" d="M-337.3-240c0-1.3-.1-2.6-.1-3.9 1.3-.5 1.9.8 1.8 4-.6-.1-1.1-.1-1.7-.1zm100.4 262.5v-4.1c.5 0 1.1.1 1.6.1v3.9c-.4 1.2-.8 1.2-1.3.7l-.3-.6zm6.8-4.1c.5 0 1.1.1 1.6.1v4c-.5 1.1-1.1 1-1.6 0v-4.1zm56.3.1c.5-.1 1.1-.1 1.6-.2.2 3-.3 4.4-1.6 4.3v-4.1zm10.2.1c.5-.1 1.1-.2 1.6-.2.5 1.4.5 2.8 0 4.3-.6 0-1.1-.1-1.7-.1.1-1.4.1-2.7.1-4zM-311.9-240c-.5.1-1.1.1-1.6.2-.2-3.2.4-4.5 1.7-4.1.4 1.4.4 2.7 0 4.1l-.1-.2z"/><path class="st0" d="M-311.8-239.9v-4.1c.6 0 1.1.1 1.7.1.1 3-.5 4.3-1.7 4zm153.3 258.3h1.7l.1-.1c.4 1.1.5 2.4.2 3.8-.1.6-.4 1-.6 1.3-.6.3-1.2.2-1.6-1.1-.3-1.4-.3-2.7.2-3.9zM-281.1-240c-1.2.4-1.9-.8-1.8-3.9h1.7c.5 1.2.5 2.5.1 3.9z"/><path class="st0" d="M-281.1-240c0-1.3-.1-2.6-.1-3.9 1.3-.5 1.9.8 1.8 4-.6-.1-1.1-.1-1.7-.1zM-150 22.5v-4.1c.5 0 1.1.1 1.6.1v3.9c-.4 1.2-.8 1.2-1.3.7l-.3-.6zm-90.2-266.4c.1 3.2-.5 4.4-1.8 3.9-.2-3.3.4-4.7 1.8-3.9zM-90.4 22.4c-.2-3.2.5-4.3 1.7-3.9.4 1.4.4 2.8 0 4.1v-.1c-.6 1.1-1.2 1.2-1.8.2l.1-.3z"/><path class="st0" d="M-88.7 22.6v-4.1c.6.1 1.5-.6 1.5 1.7.2 2.9-.8 2.1-1.5 2.4zM-218.1-240c-1.3.6-1.9-.8-1.8-3.9 1.4-.8 1.9.6 1.8 3.9zm27.2-.4c0-3 .7-4 1.8-3.6.4 1.4.4 2.7-.1 3.9v.1c-.3 1.1-.8 1.2-1.3.9-.2-.2-.4-.7-.4-1.3zM-80.2 22.5v-4.1c.5 0 1.1.1 1.6.1v3.9c-.4 1.2-.8 1.2-1.3.7l-.3-.6zm6.8-4.1c.5 0 1.1.1 1.6.1v4c-.5 1.1-1.1 1-1.6 0v-4.1zm-301.4 4.1c.6 0 1.2 0 1.7-.1v-.1c.4 1.4.5 2.7 0 4-1.4.8-1.9-.7-1.7-3.8z"/><path class="st0" d="M-373.1 26.4v-4c.6.1 1.1.2 1.6.3v3.8c-.5 0-1.1 0-1.6-.1zm183.9-266.5c0-1.3.1-2.6.1-3.9h1.7c0 3.2-.6 4.5-1.8 3.9zm-177 266.9c-.2-3 .3-4.5 1.5-4.3v4.1c-.5 1.1-1 1.2-1.5.2zM-165.3-240c-1.3.6-1.9-.7-1.8-3.9 1.4-.7 1.9.7 1.8 3.9zM-359.5 22.5h1.7v-.1c.4 1.4.5 2.7.1 4.2-.6 1.1-1.1 1.2-1.7.1 0-1.4-.1-2.8-.1-4.2z"/><path class="st0" d="M-357.9 26.8c0-1.4.1-2.9.1-4.3h1.6c0 1.4 0 2.7.1 4.1-.4 1.2-.9 1.3-1.4.9-.2-.3-.3-.5-.4-.7zm6.9-4.2h1.6l.2-.2c.4 1.4.4 2.9 0 4.3-.6 1.1-1.1 1.1-1.7.1-.1-1.5-.1-2.8-.1-4.2z"/><path class="st0" d="M-349.3 26.6c0-1.4.1-2.8.1-4.2.5 0 1 0 1.5.1v4.1c-.4 1.2-.8 1.2-1.3.7-.1-.3-.2-.5-.3-.7zm52.8-4c.6 0 1.1-.1 1.7-.1.5 1.4.5 2.8.1 4.2l-.1-.1c-.5 0-1.1.1-1.6.1 0-1.4-.1-2.7-.1-4.1z"/><path class="st0" d="M-294.7 26.7c0-1.4 0-2.8-.1-4.2.6-1.1 1.1-1.2 1.7-.1.5 1.4.4 2.8 0 4.2-.5 0-1.1 0-1.6.1z"/><path class="st0" d="M-293 26.5v-4l.3-.6c.4-.4.8-.4 1.1 0l.3.6v4.2c-.6-.1-1.2-.1-1.7-.2zM-133-240c-.5.1-1 .1-1.6.2-.3-3.5.2-4.8 1.7-4 .4 1.3.4 2.6-.1 3.8zM-281.1 22.7c.1 3-.6 4.1-1.8 4.2-.1-.3-.2-.5-.3-.8-.2-1.4-.2-2.7.3-3.9.5-.9 1.1-.9 1.6.1l.2.4z"/><path class="st0" d="M-133-240c0-1.3.1-2.6.1-3.8h1.7c0 3-.6 4.2-1.8 3.8zm30.7 0c-1.3.7-1.9-.7-1.8-3.9 1.3-.7 1.9.6 1.8 3.9zM-250.5 22.7v3.7c-.5 0-1.1.1-1.6.1 0-1.3 0-2.7-.1-4 .6.1 1.1.2 1.7.2zm173.7-263c0-3 .7-4.1 1.9-3.6.4 1.4.4 2.7-.1 3.9v.1c-.4 1.1-.8 1.2-1.3.9-.3-.3-.5-.7-.5-1.3zM-247.1 22.5h1.7c.2 3.2-.4 4.5-1.7 4.1v-4.1zm8.5 0h1.7v-.1c.4 1.4.5 2.7.1 4.2-.6 1.1-1.1 1.2-1.7.1 0-1.4 0-2.8-.1-4.2z"/><path class="st0" d="M-236.9 26.8c0-1.4.1-2.9.1-4.3h1.6c0 1.4 0 2.7.1 4.1-.4 1.2-.9 1.3-1.4.9-.2-.3-.3-.5-.4-.7zm6.9-4.2h1.6l.2-.2c.4 1.5.4 2.9-.1 4.2-.6 0-1.1 0-1.7.1v-4.1z"/><path class="st0" d="M-228.4 26.6c0-1.4.1-2.8.1-4.2.5 0 1 0 1.5.1v4.1h-1.6zm54.5-4.2v4.1c-.5 1.2-1.1 1.1-1.6.1-.2-2.9.3-4.3 1.6-4.2zm5.2 4.1c-.6 0-1.2.1-1.8.1 0-1.4.1-2.8.1-4.2 1.3-.2 1.8 1.3 1.7 4.1zm93.6-266.6c0-1.3.1-2.6.1-3.9.6 0 1.1 0 1.7.1.1 3.1-.5 4.4-1.8 3.8zm-80 262.6v4.1h-1.6l-.3-.6c-.2-1.3-.2-2.5.2-3.5.5-1.1 1.1-1.1 1.7 0zm3.4 0h1.7v-.1c.4 1.4.5 2.7.1 4.2-.6 1.1-1.1 1.2-1.7.1-.1-1.4-.1-2.8-.1-4.2z"/><path class="st0" d="M-150.1 26.8c0-1.4.1-2.9.1-4.3h1.6c0 1.4 0 2.7.1 4.1-.4 1.2-.9 1.3-1.4.9-.2-.3-.3-.5-.4-.7zm-211.1-266.7c.2 3.2-.4 4.6-1.7 4.1-.2-3.1.4-4.5 1.7-4.1zM-90.4 22.7c.6-.1 1.2-.1 1.8-.2.1 3.1-.4 4.6-1.7 3.9-.1-1.2-.1-2.4-.1-3.7zm8.5-.2h1.7v-.1c.4 1.4.5 2.7.1 4.2-.6 1.1-1.1 1.2-1.7.1 0-1.4 0-2.8-.1-4.2z"/><path class="st0" d="M-80.2 26.8c0-1.4.1-2.9.1-4.3h1.6c0 1.4 0 2.7.1 4.1-.4 1.2-.9 1.3-1.4.9-.2-.3-.3-.5-.4-.7zm6.9-4.2h1.6l.2-.2c.4 1.5.4 2.9-.1 4.2-.6 0-1.1 0-1.7.1v-4.1z"/><path class="st0" d="M-71.7 26.6c0-1.4.1-2.8.1-4.2.5 0 1 0 1.5.1v4.1h-1.6zm-296.4 4c-.5.1-1.1.2-1.6.3 0-1.4-.1-2.8-.1-4.1h1.7l.1-.1c.4 1 .4 2.1.2 3.4-.1.1-.2.3-.3.5zm1.9-3.8c.5-.1 1.1-.2 1.6-.3.2 2.9-.2 4.5-1.5 4.2-.1-.2-.2-.4-.3-.5-.3-1.3-.2-2.5.2-3.6v.2zm6.8-.1c.5 0 1 0 1.6.1l.1-.2c.4.9.5 2 .4 3.3-.1.6-.2 1-.4 1.4-.5.6-1 .6-1.4.1l-.3-.6c-.1-1.4-.1-2.7 0-4.1z"/><path class="st0" d="M-357.7 30.8v-4.2c.6 0 1.1-.1 1.7-.1v4.2c-.6 1.1-1.2 1.2-1.7.1zm6.8-4.1c.6 0 1.1-.1 1.7-.1v-.1c.4 1.3.5 2.7.1 4.2-.6 1.1-1.1 1.2-1.7.1-.1-1.4-.1-2.7-.1-4.1z"/><path class="st0" d="M-349.3 30.8c0-1.4 0-2.8.1-4.3h1.6v4.1c-.4 1.1-.9 1.2-1.4.8l-.3-.6zm15.3-266.6c-1.3.5-1.9-.9-1.7-4.1 1.4-.5 1.9.9 1.7 4.1zm56.2 0c-1.3.4-1.9-.9-1.7-4.1 1.4-.5 1.9.9 1.7 4.1zm-8.5 266.3v-3.8c.1-.2.2-.5.3-.7.4-.5.8-.5 1.2-.2.2.3.4.7.6 1.3.2 1.3.1 2.6-.4 3.5-.6 0-1.1 0-1.7-.1z"/><path class="st0" d="M-284.6 30.6c0-1.4 0-2.7.1-4.1.5-1.1 1.1-1.1 1.7-.2v.5c.1 3.3-.6 4.2-1.8 3.8zm46.1-3.9c.5 0 1 0 1.6.1l.1-.2c.4.9.5 2 .4 3.3-.1.6-.2 1-.4 1.4-.5.6-1 .6-1.4.1l-.3-.6c-.1-1.4 0-2.7 0-4.1z"/><path class="st0" d="M-236.8 30.8v-4.2c.6 0 1.1-.1 1.7-.1v4.2c-.6 1.1-1.2 1.2-1.7.1zm-8.6-267v-3.8c.6 0 1.2.1 1.8.1.4 1.4.4 2.7-.1 4-.3 1.1-.7 1.2-1.2 1-.3-.3-.4-.7-.5-1.3zm69.9 262.9c.5 0 1.1-.1 1.6-.1v4.1c-.5 1.2-1 1.2-1.6.2v-4.2zm5-.2v4.1c-.6.1-1.1.2-1.7.3-.2-3.3.5-4.5 1.7-4.4z"/><path class="st0" d="M-243.7-235.9c0-1.3.1-2.6.1-4 .5 0 1.1-.1 1.6-.1.1 3.2-.4 4.5-1.7 4.1zM-167 30.6v-3.8c.6 0 1.2-.1 1.7-.1v-.1c.5 1.4.5 2.8 0 4.1-.6-.1-1.2-.1-1.7-.1z"/><path class="st0" d="M-165.4 30.7v-4.1c.6.1 1.2.1 1.7.2.2 3.1-.5 4.2-1.7 3.9zm5.2-.2c-1.3.7-1.8-.7-1.8-3.7l.1-.5c.6-1 1.1-.8 1.7.2.4 1.4.4 2.7 0 4z"/><path class="st0" d="M-160.2 30.5c0-1.4 0-2.7-.1-4.1.1-.2.2-.4.4-.6.6-.4 1.1-.2 1.6 1 .3 1.4.3 2.6-.2 3.7-.6.1-1.2.1-1.7 0z"/><path class="st0" d="M-158.6 30.6v-4l.3-.6c.5-.5 1-.4 1.4.7h.1c.1 2.9-.4 4.5-1.8 3.9zm7-3.9c.5 0 1 0 1.6.1l.1-.2c.4.9.5 2 .4 3.3-.1.6-.2 1-.4 1.4-.5.6-1 .6-1.4.1l-.3-.6c-.1-1.4-.1-2.7 0-4.1z"/><path class="st0" d="M-149.9 30.8v-4.2c.6 0 1.1-.1 1.7-.1v4.2c-.6 1.1-1.2 1.2-1.7.1zm68.1-4.1c.5 0 1 0 1.6.1l.1-.2c.4.9.5 2 .4 3.3-.1.6-.2 1-.4 1.4-.5.6-1 .6-1.4.1l-.3-.6c-.1-1.4 0-2.7 0-4.1z"/><path class="st0" d="M-80.1 30.8v-4.2c.6 0 1.1-.1 1.7-.1v4.2c-.6 1.1-1.2 1.2-1.7.1zm-136.4-266.6c-1.3.3-1.8-1.1-1.7-4.2 1.4-.5 2 .9 1.7 4.2zM-378.2 34.9c-.3-3.3.3-4.6 1.6-4 .4 1.3.4 2.7 0 4-.5 1-1 1.1-1.6 0z"/><path class="st0" d="M-376.5 34.8v-3.9c1.4-.7 1.9.5 1.6 3.8-.4 1.1-.8 1.2-1.3.7-.1-.1-.2-.4-.3-.6zM-192.8-236c.1-2.7.7-4.2 1.8-4.4l.1.6c.4 1.4.4 2.7-.1 3.9-.5 1.2-1 1.2-1.6.2l-.2-.3zM-368 35c0-1.5 0-2.9-.1-4.4v.1c.5-1.1 1.1-1.2 1.6 0h.2c.1 2.9-.4 4.6-1.7 4.3zm6.9-.1c-.2-3 .2-4.6 1.6-4.2l.2-.2c.4 1.4.4 2.8 0 4.2-.7 1.2-1.3 1.3-1.8.2zm10.2-4.1h1.6l.1-.1c.5 1.3.5 2.8.1 4.2l-.2-.1c-.5 1.2-1 1.1-1.5.1-.1-1.4-.1-2.7-.1-4.1z"/><path class="st0" d="M-349.2 34.9c0-1.4-.1-2.8-.1-4.2.6 0 1.1 0 1.7-.1v4.2c-.5.1-1.1.1-1.6.1zm3.3-.1c.1-1.6-.1-4.1 1-3.7.9.3.6 2.3.7 3.8-.6 1-1.1 1-1.7-.1zm105.7.1c-.2-3 .2-4.6 1.6-4.2l.2-.2c.4 1.4.4 2.8 0 4.2-.7 1.2-1.2 1.3-1.8.2zm76.6-270.7c-1.3.4-1.9-1-1.7-4.1 1.3-.6 1.9.8 1.7 4.1zM-230 30.8c.5 0 1.1-.1 1.6-.1.5 1.3.5 2.7.1 4.2l-.2-.1c-.5 1.1-1 1.1-1.5.1v-4.1z"/><path class="st0" d="M-228.3 34.9c0-1.4-.1-2.8-.1-4.2.6 0 1.1-.1 1.7-.1v4.2c-.5.1-1 .1-1.6.1zm3.3-.1c.1-1.6-.1-4.1 1-3.7.9.3.6 2.3.7 3.8-.5 1-1.1 1-1.7-.1zm25.7-4.1h1.5v4.1c-1.3.4-1.8-1.1-1.5-4.1zm23.8.1c.5-.1 1.1-.1 1.6-.2 0 1.4.1 2.8.1 4.2-.5 1.2-1.1 1.1-1.6.1-.1-1.3-.1-2.7-.1-4.1zm22.1 4.1c-.2-3 .2-4.6 1.6-4.2l.2-.2c.4 1.4.4 2.8 0 4.2-.6 1.2-1.2 1.3-1.8.2zm30.7-4.2h1.5v4.1c-1.2.4-1.7-1.1-1.5-4.1zm39.2 4.2c-.2-3 .2-4.6 1.6-4.2l.2-.2c.4 1.4.4 2.8 0 4.2-.7 1.2-1.2 1.3-1.8.2zm6.7-270.9c-.5.1-1.1.2-1.6.3-.2-3.1.4-4.3 1.6-4.7l.1.5c.4 1.5.4 2.8-.1 3.9zm3.5 266.8c.5 0 1.1-.1 1.6-.1.5 1.3.5 2.7.1 4.2l-.2-.1c-.5 1.1-1 1.1-1.5.1v-4.1z"/><path class="st0" d="M-71.6 34.9c0-1.4-.1-2.8-.1-4.2.6 0 1.1-.1 1.7-.1v4.2c-.5.1-1 .1-1.6.1zm3.3-.1c.1-1.6-.1-4.1 1-3.7.9.3.6 2.3.7 3.8-.5 1-1.1 1-1.7-.1zm-309.9.1c.5 0 1.1 0 1.6-.1.4 1.3.5 2.7 0 4v.2c-.6 1-1.1 1.1-1.7-.3.1-1.2.1-2.5.1-3.8z"/><path class="st0" d="M-376.6 38.8v-4c.5 0 1.1 0 1.6-.1 0 1.4.1 2.8.1 4.2-.5 0-1.1-.1-1.7-.1zm6.8-4.1v4.2l.1.1c-.5.8-.9 1.1-1.5.5-.1-.2-.2-.4-.3-.7-.1-2.9.5-4.2 1.7-4.1zm8.7.2c.6 0 1.1-.1 1.7-.1.1.2.2.5.3.7.2.9.2 1.9.1 2.8-.1.6-.3 1-.5 1.3-.5.4-1 .3-1.4-.9-.2-1.2-.2-2.5-.2-3.8zm10.2 0c.5 0 1-.1 1.5-.1 0 1.4.1 2.8.1 4.2l-.1-.2c-.5 1.3-1 1.3-1.6 0 .1-1.3.1-2.6.1-3.9zm5.1-.1h1.6c.2 3.2-.5 4.3-1.7 4.1 0-1.3 0-2.7.1-4.1zm49.3 4.1h-1.7c-.1-2.9.3-4.5 1.6-4.1l.1-.1c.5 1.5.5 2.9 0 4.2z"/><path class="st0" d="M-296.5 38.9c0-1.4 0-2.8.1-4.2h1.6v4.1c-.6.1-1.1.1-1.7.1zm56.3-4c.6 0 1.1-.1 1.7-.1.1.2.2.5.3.7.2.9.2 1.9.1 2.8-.1.6-.3 1-.5 1.3-.5.4-1 .3-1.4-.9-.2-1.2-.2-2.5-.2-3.8zm10.2 0c.5 0 1-.1 1.5-.1 0 1.4.1 2.8.1 4.2l-.1-.2c-.5 1.3-1 1.3-1.6 0 .1-1.3.1-2.6.1-3.9zm-132.9-270.7c0 1.3 0 2.6-.1 3.9-.5 1.3-1.1 1.3-1.6 0 0-1.3 0-2.6.1-4 .5.1 1.1.1 1.6.1zm138 270.6h1.6c.2 3.2-.5 4.3-1.7 4.1.1-1.3.1-2.7.1-4.1zm49.4.1c.5 0 1.1-.1 1.6-.1.4.9.5 2.1.4 3.3-.1.6-.2 1.1-.4 1.4-.4.4-.7.5-1.1.4-.2-.2-.5-.5-.6-.9 0-1.4.1-2.7.1-4.1z"/><path class="st0" d="M-173.8 39v-4.3h1.6v4.1c-.5 1.2-1 1.2-1.6.2zm20.4-4.1c.6 0 1.1-.1 1.7-.1.1.2.2.5.3.7.2.9.2 1.9.1 2.8-.1.6-.3 1-.5 1.3-.5.4-1 .3-1.4-.9-.2-1.2-.2-2.5-.2-3.8zm69.9 0c.6 0 1.1-.1 1.7-.1.1.2.2.5.3.7.2.9.2 1.9.1 2.8-.1.6-.3 1-.5 1.3-.5.4-1 .3-1.4-.9-.2-1.2-.2-2.5-.2-3.8zm10.2 0c.5 0 1-.1 1.5-.1 0 1.4.1 2.8.1 4.2l-.1-.2c-.5 1.3-1 1.3-1.6 0 .1-1.3.1-2.6.1-3.9zm5.1-.1h1.6c.2 3.2-.5 4.3-1.7 4.1.1-1.3.1-2.7.1-4.1zm-310 4c.6.1 1.1.2 1.7.3V43c-1.3.4-1.9-1.1-1.7-4.2zm5.1 4.1v-3.8c.6-.1 1.1-.1 1.7-.2v.1c.5 1.3.5 2.6 0 3.9h-1.7z"/><path class="st0" d="M-371.5 42.9V39c.6 0 1.2.1 1.8.1.1 3-.5 4.4-1.8 3.8zm10.4-4.1c.5 0 1.1 0 1.6.1.5 1.3.5 2.7 0 4-1.3.5-1.9-.9-1.6-4.1z"/><path class="st0" d="M-359.5 42.9v-4c.4-1 .9-1.2 1.5-.8.2.3.4.7.6 1.3.2 1.3.1 2.5-.3 3.5h-1.8z"/><path class="st0" d="M-357.8 42.9v-4c.6-1.2 1.1-1.1 1.7 0 .1 3.1-.4 4.6-1.7 4zm6.9-4.1h1.6c0 1.4 0 2.7.1 4.1-1.5.6-1.9-1-1.7-4.1zm18.6-270.4c-1.3.4-1.9-1-1.7-4.2 1.4-.4 1.9.9 1.7 4.2zm92.1 270.4c.5 0 1.1 0 1.6.1.5 1.3.5 2.7 0 4-1.3.5-1.8-.9-1.6-4.1z"/><path class="st0" d="M-238.5 42.9v-4c.4-1 .9-1.2 1.5-.8.2.3.4.7.6 1.3.2 1.3.1 2.5-.3 3.5h-1.8z"/><path class="st0" d="M-236.9 42.9v-4c.6-1.2 1.1-1.1 1.7 0 .2 3.1-.4 4.6-1.7 4zm6.9-4.1h1.6c0 1.4 0 2.7.1 4.1-1.5.6-1.9-1-1.7-4.1zM-299.9-232c-.1-3.1.5-4.2 1.7-3.9.4 1.3.5 2.6 0 3.9h-1.7zm122.7 275c-.1-2.8.3-4.4 1.6-4.1l.2-.1c.3 1.1.4 2.3.2 3.6-.1.6-.3 1-.6 1.3-.5.5-1 .4-1.4-.7zm3.4-4c.5-.1 1.1-.1 1.6-.2v4.1c-.4 1.2-.9 1.3-1.4.9-.2-.3-.4-.7-.6-1.3-.2-1.3-.1-2.6.3-3.6l.1.1zm20.4-.2c.5 0 1.1 0 1.6.1.5 1.3.5 2.7 0 4-1.2.5-1.8-.9-1.6-4.1z"/><path class="st0" d="M-151.7 42.9v-4c.4-1 .9-1.2 1.5-.8.2.3.4.7.6 1.3.2 1.3.1 2.5-.3 3.5h-1.8z"/><path class="st0" d="M-150 42.9v-4c.6-1.2 1.1-1.1 1.7 0 .1 3.1-.4 4.6-1.7 4zm66.5-4.1c.5 0 1.1 0 1.6.1.5 1.3.5 2.7 0 4-1.3.5-1.8-.9-1.6-4.1z"/><path class="st0" d="M-81.8 42.9v-4c.4-1 .9-1.2 1.5-.8.2.3.4.7.6 1.3.2 1.3.1 2.5-.3 3.5h-1.8z"/><path class="st0" d="M-80.2 42.9v-4c.6-1.2 1.1-1.1 1.7 0 .2 3.1-.4 4.6-1.7 4zm6.9-4.1h1.6c0 1.4 0 2.7.1 4.1-1.5.6-1.9-1-1.7-4.1zM-298.2-232v-3.9h1.7v3.8c-.6.1-1.1.1-1.7.1zm0 275.1h1.7c-.1 1.6.2 4.1-1 3.8-.9-.3-.6-2.4-.7-3.8zm121-.1c.5 0 1.1-.1 1.6-.1.6 1.2.6 2.6.2 4.1-1.4.5-2-.8-1.8-4z"/><path class="st0" d="M-175.5 47c-.1-1.4-.1-2.7-.2-4.1l.2.1c.5-1.1 1-1.2 1.5 0h.2c.4 1.5.4 2.8-.2 4h-1.5z"/><path class="st0" d="M-173.9 47.1c.1-1.3.1-2.7.2-4 .5 0 1.1-.1 1.6-.1.1 3.1-.5 4.5-1.8 4.1zm-175.4-184.7h-1.7c-.5-1.4-1.2-2.2-2-2.2-.5 0-1.1 0-1.6-.1-.6-.1-1.1-.7-1.6-1.5l.1-.3c-.6-1.5-1.2-2.4-2.1-2.5-.5-.2-1-.6-1.3-1.6-.4-.8-.6-1.9-.7-3.2 0-2-.4-3.7-1.1-5l-.1.1c-.3-1-.5-2-.6-3.3 0-2-.4-3.7-1-5.1l-.1.2c-.4-1.2-.6-2.5-.6-3.9v-12c0-1.9-.3-3.5-.9-4.8v-8.2c.6-1.3.9-2.8.9-4.7v-12c0-1.5.3-2.8.6-3.9l.1.2c.6-1.4 1-3 1-5.1.1-1.2.3-2.3.6-3.2l.1.1c.5-1.5 1.1-2.8 1.6-4.2.6-1.4 1.1-2.8 1.7-4l-.1-.2c.4-.9.9-1.4 1.4-1.5.8-.1 1.5-.9 2.1-2.3.6-.1 1.1-.3 1.7-.4.5-.9 1-1.4 1.7-1.5.6-.1 1.2-.1 1.8 0 .6.1 1.2.6 1.7 1.5.6.1 1.1.3 1.7.4.6 1.4 1.3 2.3 2.1 2.4.5.1 1 .6 1.3 1.5l-.1.2c.6 1.2 1.2 2.6 1.7 4s1.2 2.7 1.7 4.2l.1-.1c.4.9.6 2 .6 3.2 0 2 .4 3.7 1 5.1l.1-.2c.4 1.2.6 2.4.6 3.9v12c0 1.9.3 3.5.9 4.8v8.2c-.6 1.2-.9 2.7-.9 4.7v12c0 1.5-.3 2.8-.6 4l-.1-.2c-.6 1.4-1 3-1 5.1 0 1.3-.3 2.3-.6 3.3l-.1-.1c-.7 1.3-1 2.9-1 5-.1 1.2-.3 2.3-.7 3.2-.3 1-.8 1.4-1.3 1.6-.8.1-1.5.9-2.1 2.5l.1.3c-.5.8-1 1.4-1.6 1.5-.5.1-1.1.1-1.6.1-.6-.3-1.3.5-1.8 2zm-15.3-94.3h1.6c0 1.6.2 4-.8 4-1-.1-.7-2.4-.8-4z"/><path class="st0" d="M-356.2-227.8c-.5 0-1.1.1-1.6.1-.1-3.2.5-4.4 1.8-4 .4 1.4.4 2.7-.2 3.9z"/><path class="st0" d="M-356.2-227.8c0-1.3.1-2.6.1-3.9.6 0 1.1.1 1.7.1.1 3.3-.5 4.4-1.8 3.8zm12.1 0c-1.3.6-1.9-.6-1.8-3.8.6 0 1.1-.1 1.7-.1.5 1.2.5 2.5.1 3.9z"/><path class="st0" d="M-344.1-227.8c0-1.3-.1-2.6-.1-3.9 1.3-.5 1.9.8 1.8 4-.6 0-1.2 0-1.7-.1zm-13.7.3c.1 3.1-.4 4.5-1.7 4-.2-3.3.4-4.7 1.7-4zm17 4c-1.3.5-1.9-.9-1.7-4 1.4-.7 1.9.7 1.7 4zm-18.7 0c.2 3.2-.3 4.6-1.6 4.2-.3-3.3.2-4.6 1.6-4.2zm20.4 4.2c-1.3.3-1.9-1.1-1.7-4.2 1.4-.4 1.9.9 1.7 4.2zm-22.1-.1v3.9c-.5 1.3-1 1.3-1.6.3-.3-3 .3-4.5 1.6-4.2zm22.2 3.9v-3.9c1.3-.3 1.8 1.2 1.7 4.3-.7.9-1.2.9-1.7-.4z"/><path class="st0" d="M-362.9-215.2c.5-.1 1.1-.2 1.6-.3.2 3-.3 4.6-1.6 4.4.1-1.4 0-2.7 0-4.1zm23.9-.3c.5.1 1.1.2 1.6.3 0 1.3 0 2.7-.1 4-1.3.3-1.8-1.3-1.5-4.3zm-24 4.2v4.1c-.5 1.2-1 1.2-1.6.2-.2-3 .3-4.5 1.6-4.3zm25.7 4.1v-4.1c1.3-.2 1.8 1.3 1.6 4.3-.5.9-1.1 1-1.6-.2z"/><path class="st0" d="M-364.6-207c.5-.1 1.1-.2 1.6-.2v4.1c-.5 1.2-1 1.2-1.5.2-.1-1.4-.1-2.7-.1-4.1zm27.3-.2c.5.1 1.1.2 1.6.2 0 1.4 0 2.7-.1 4.1-.5.9-1.1 1-1.5-.2v-4.1z"/><path class="st0" d="M-364.5-202.9c.5-.1 1-.2 1.5-.2v4.1c-.5 1.2-1 1.2-1.6.2.1-1.4.1-2.8.1-4.1zm27.2-.3c.5.1 1 .2 1.5.2v4.1c-.5 1-1.1 1-1.6-.2.1-1.3.1-2.7.1-4.1z"/><path class="st0" d="M-364.5-198.9c.5-.1 1-.1 1.6-.2v4.2c-.5 1.1-1 1.2-1.6.1v-4.1zm27.2-.2c.5.1 1 .1 1.6.2v4.1c-.5 1.1-1.1 1.1-1.6-.1v-4.2z"/><path class="st0" d="M-364.5-194.8c.5 0 1.1-.1 1.6-.1.2 2.9-.3 4.4-1.6 4.2v-4.1zm27.2-.1c.5 0 1.1.1 1.6.1v4.1c-1.3.3-1.8-1.3-1.6-4.2zm-27.2 12.4c1.3-.3 1.7 1.3 1.6 4.1-.5 1.1-1.1 1.1-1.6 0v-4.1zm27.1 4.1c-.1-2.9.3-4.4 1.6-4.1v4.1c-.5 1.1-1 1-1.6 0z"/><path class="st0" d="M-364.5-178.4h1.6v4.2c-.5 1-1.1 1-1.6-.1v-4.1zm27.1 0h1.6v4.1c-.5 1.2-1 1.1-1.6.1.1-1.4.1-2.8 0-4.2z"/><path class="st0" d="M-364.5-174.4c.5 0 1.1.1 1.6.1v4.2c-.5.9-1.1 1-1.5-.2-.1-1.4-.1-2.7-.1-4.1zm27.2.2c.5 0 1.1-.1 1.6-.1v4.1c-.5 1.2-1 1.1-1.5.2-.1-1.5-.1-2.9-.1-4.2z"/><path class="st0" d="M-364.5-170.3c.5.1 1 .1 1.5.2v4.1c-.5.9-1.1 1-1.6-.3.1-1.3.1-2.7.1-4zm27.2.2c.5-.1 1-.1 1.5-.2v4c-.5 1.3-1 1.2-1.6.3.1-1.4.1-2.7.1-4.1z"/><path class="st0" d="M-364.5-166.3c.5.1 1 .2 1.6.3v4.1c-1.4.2-1.9-1.3-1.6-4.4zm27.2.3c.5-.1 1-.2 1.6-.3.3 3-.3 4.5-1.6 4.4v-4.1zm-25.5 3.9c1.3-.2 1.8 1.4 1.6 4.3-.6.9-1.1 1-1.6-.3v-4zm23.8 4.3c-.2-3 .3-4.5 1.6-4.3v4c-.5 1.3-1.1 1.3-1.6.3z"/><path class="st0" d="M-362.8-158c.5.1 1.1.2 1.6.3v4.1c-1.4.2-2-1.2-1.6-4.4zm23.8.2c.5-.1 1.1-.2 1.6-.3.3 3.3-.2 4.6-1.6 4.4v-4.1z"/><path class="st0" d="M-361.2-153.8c1.3-.3 1.8 1.2 1.7 4.3-.6.9-1.1 1-1.6-.3-.1-1.4-.1-2.7-.1-4zm20.5 4.2c-.2-3 .4-4.5 1.7-4.3v4c-.6 1.3-1.2 1.3-1.7.3z"/><path class="st0" d="M-361.2-149.9c.5.1 1.1.2 1.6.3 0 1.3 0 2.6.1 3.9-1.3.4-1.9-1-1.7-4.2zm20.5.3c.5-.1 1.1-.2 1.6-.3.2 3.2-.4 4.6-1.7 4.2 0-1.3 0-2.6.1-3.9z"/><path class="st0" d="M-359.5-145.7c.5.1 1.1.1 1.6.2.5 1.2.5 2.5.1 3.9-1.3.4-1.9-.9-1.7-4.1z"/><path class="st0" d="M-357.7-141.6c0-1.3-.1-2.6-.1-3.9 1.3-.4 1.9.8 1.8 3.9h-1.7zm13.5 0c-.1-3.1.5-4.3 1.8-3.9.4 1.4.4 2.7-.1 3.9h-1.7z"/><path class="st0" d="M-342.5-141.6c0-1.3.1-2.6.1-3.9.5-.1 1.1-.1 1.6-.2.2 3.2-.4 4.5-1.7 4.1zm-13.6.2h1.7c.5 1.2.5 2.4.1 3.8-1.3.7-1.9-.6-1.8-3.8z"/><path class="st0" d="M-354.3-137.6c0-1.3-.1-2.5-.1-3.8.6 0 1.2 0 1.7-.1.5 1.2.5 2.5.1 3.8-.6.1-1.2.1-1.7.1z"/><path class="st0" d="M-352.7-137.6c0-1.3 0-2.5-.1-3.8 1.2-.4 1.9.7 1.8 3.8h-1.7zm3.4 0c-.1-3.1.5-4.2 1.7-3.8.4 1.3.4 2.6-.1 3.8h-1.6z"/><path class="st0" d="M-347.6-137.6c0-1.3 0-2.5.1-3.8.6 0 1.2 0 1.7.1.4 1.3.4 2.6-.1 3.8-.6-.1-1.1-.1-1.7-.1z"/><path class="st0" d="M-345.9-137.6c0-1.3.1-2.5.1-3.8h1.7c.1 3.2-.5 4.5-1.8 3.8zm-13.6 8.4c-.6 0-1.1-.1-1.7-.1 0-1.3-.1-2.6-.1-3.9 1.3-.5 1.9.9 1.8 4zm23.8-.2c-.6.1-1.1.1-1.7.2-.1-3.2.5-4.5 1.8-4.1 0 1.3-.1 2.6-.1 3.9zM-351-232h-1.7c-.1-3.1.5-4.2 1.7-3.8.5 1.3.5 2.6 0 3.8z"/><path class="st0" d="M-351-232v-3.8h1.7c.5 1.2.5 2.5 0 3.8h-1.7z"/><path class="st0" d="M-349.3-232v-3.8c1.2-.4 1.8.7 1.7 3.8h-1.7zm160 28.9c.1-1.3.1-2.7.2-4 .6-1.4 1-3 1-5.1 0-1.3.3-2.3.6-3.3l.1.2c.5-1.2.9-2.4 1.3-3.8.1-.5.3-.8.5-1.2.5-.7.9-1.7 1.2-2.9.1-.5.3-.9.5-1.2.6-.9 1.1-1.9 1.6-3.2l-.1-.2c.4-.7.8-1.3 1.4-1.4.8-.1 1.5-.9 2.1-2.3l-.1-.4c.5-.9 1-1.4 1.7-1.5.6-.1 1.2-.1 1.8-.1.6 0 1.2 0 1.8.1.6.1 1.2.6 1.7 1.5l-.1.4c.6 1.4 1.3 2.3 2.1 2.3.5.1 1 .7 1.4 1.4l-.1.2c.6 1.3 1.1 2.7 1.8 4 .5 1.5 1.1 2.8 1.7 4.2l.1-.1c.5 1.6 1.1 2.8 1.6 4.3l.1-.2c.4 1.1.6 2.3.6 3.7.1 1.3 0 2.6 0 3.9 0 2 .3 3.5.9 4.8.1 1.3.1 2.7.2 4 .4 1.2.6 2.5.6 3.9v20.8c0 1.5-.3 2.8-.6 4l-.2-.2c-.6 1.3-.9 2.9-.9 4.8v3.9c0 1.4-.3 2.6-.6 3.7l-.1-.2c-.6 1.4-1 3-1 5.1-.1 1.2-.3 2.3-.6 3.2v-.1c-.5 1.5-1.1 2.8-1.7 4.1-.4 1-.8 1.4-1.3 1.6-.8.1-1.5.9-2.1 2.4l.1.3c-.5.9-1.1 1.4-1.7 1.5-.6.1-1.2.1-1.8.1h-5c-.6 0-1.2 0-1.8-.1-.6-.1-1.2-.7-1.7-1.7l.1-.2c-.6-1.1-1.2-2.7-1.8-3.9v-.1c-.6-1.3-1.1-2.7-1.7-4.1v.1c-.5-1.5-1.1-2.7-1.6-4.3l-.1.1c-.4-1.1-.6-2.3-.7-3.7-.1-1.3 0-2.6-.1-3.9 0-2-.3-3.5-.9-4.9l-.2.2c-.4-1.2-.6-2.5-.6-4v-28.9c-.2-1 .1-2.4.4-3.6z"/><path class="st0" d="M-177.3-141.4h3.5c.4 1.3.4 2.5-.1 3.7h-3.4c-.4-1.1-.4-2.4 0-3.7zm-12-49.4v8.3c-.5 1.1-1 1.1-1.5 0v-8.1c.5-1.2 1-1.2 1.5-.2zm-3.2-44.9c.5-.1 1.1-.2 1.6-.2.2 3.1-.4 4.5-1.7 4.2 0-1.4 0-2.7.1-4zm15.2 3.7h-1.7c-.1-3 .5-4.2 1.8-3.9.4 1.4.4 2.7-.1 3.9z"/><path class="st0" d="M-177.3-232v-3.8h1.7c.5 1.3.5 2.5 0 3.8h-1.7z"/><path class="st0" d="M-175.6-232v-3.8h1.7c.5 1.3.5 2.5 0 3.9-.5-.1-1.1-.1-1.7-.1z"/><path class="st0" d="M-173.8-232v-3.9c1.2-.3 1.8.9 1.7 3.9-.6.1-1.2 0-1.7 0zm-6.9 4.3c-.6 0-1.1 0-1.7-.1-.1-3.2.4-4.6 1.8-3.8.4 1.4.4 2.7-.1 3.9z"/><path class="st0" d="M-180.7-227.7c0-1.3.1-2.6.1-3.8h1.7c0 3.1-.6 4.2-1.8 3.8zm10.3 0c-1.2.5-1.9-.7-1.8-3.8.6 0 1.1 0 1.7-.1.5 1.2.5 2.5.1 3.9z"/><path class="st0" d="M-170.4-227.7c0-1.3-.1-2.6-.1-3.8 1.3-.7 1.9.6 1.8 3.8-.6-.1-1.1-.1-1.7 0zm8.4-3.7c.6-.2 1.1-.3 1.7-.5 0 1.6.3 3.9-.9 3.9-.8.1-.6-2-.8-3.4zm-23.9 7.7c.1-2.8.7-4.4 1.9-3.8.4 1.4.4 2.7-.1 3.9-.3 1.1-.8 1.3-1.3 1-.2-.2-.4-.6-.5-1.1z"/><path class="st0" d="M-184.1-223.6c0-1.3.1-2.6.1-3.9h1.6c.2 3-.4 4.3-1.7 3.9zm17.1 0c-1.3.4-1.9-.8-1.8-4 1.4-.6 2 .7 1.8 4zm-20.4 4.3c-.2-2.8.3-4.4 1.5-4.5l.2.3c.4 1.4.4 2.7-.1 4v-.1c-.5 1.3-1.1 1.3-1.6.3z"/><path class="st0" d="M-165.4-219.4c-1.3.3-1.8-1.1-1.7-4.2 1.5-.5 2 .9 1.7 4.2zm-22 .1c.5-.1 1.1-.2 1.6-.3.2 3.1-.3 4.5-1.6 4.3v-4zm23.7 4.1c-1.3.3-1.9-1.2-1.6-4.3 1.4-.3 1.9 1 1.6 4.3zm-23.8-.2v4c-.5 1.3-1 1.3-1.6.3-.3-3.1.2-4.5 1.6-4.3z"/><path class="st0" d="M-163.6-211.4c0-1.3 0-2.7-.1-4 1.3-.3 1.8 1.2 1.7 4.3-.5.9-1.1 1-1.6-.3zm-25.5.3c.5-.1 1.1-.2 1.6-.3.2 3-.2 4.6-1.6 4.3v-4z"/><path class="st0" d="M-163.6-211.4c.5.1 1.1.2 1.6.3v4.1c-.6.9-1.1 1-1.6-.3v-4.1z"/><path class="st0" d="M-163.6-207.3c.5.1 1.1.2 1.6.3v4c-1.3.3-1.8-1.3-1.6-4.3zm-25.7 4.2v4.1c-.5 1.2-1 1.2-1.6.2-.1-3 .3-4.5 1.6-4.3z"/><path class="st0" d="M-190.8-198.8c.5-.1 1-.1 1.6-.2v4.1c-.5 1.2-1 1.1-1.5.1-.1-1.3-.1-2.7-.1-4zm29 3.9v-4.1c1.3-.2 1.7 1.3 1.6 4.2-.6 1-1.1 1.1-1.6-.1z"/><path class="st0" d="M-190.8-194.8c.5 0 1-.1 1.5-.1v4.1c-.5 0-1 .1-1.5.1v-4.1zm29-.1c.5 0 1.1.1 1.6.1v4.1c-.5 1-1 1.1-1.6-.1v-4.1z"/><path class="st0" d="M-161.8-190.8c.5 0 1 0 1.6.1v4.1c-.5 1.1-1 1.1-1.5 0-.1-1.4-.1-2.8-.1-4.2z"/><path class="st0" d="M-161.8-186.6h1.5v4c-.5 1.1-1 1.1-1.5.1v-4.1zm-29 4.1h1.5v4.1c-.5 1-1 1.1-1.5-.1v-4z"/><path class="st0" d="M-161.8-182.5c.5 0 1 0 1.5-.1v4.1c-.5 1.1-1 1.2-1.6.1.1-1.4.1-2.7.1-4.1zm-29 4c.5 0 1 .1 1.5.1v4.1c-.5 1-1.1 1-1.5-.2v-4z"/><path class="st0" d="M-161.8-178.4c.5 0 1 0 1.6-.1v4.1c-.5 1.1-1.1 1.2-1.6.1v-4.1zm-29 4c.5.1 1 .1 1.5.2v4.1c-.5 1-1.1 1-1.6-.2.1-1.4.1-2.8.1-4.1z"/><path class="st0" d="M-161.8-174.3c.5 0 1.1-.1 1.6-.1.1 2.9-.3 4.4-1.6 4.2v-4.1zm-29 3.9c.5.1 1.1.1 1.6.2v4.1c-1.3.2-1.8-1.3-1.6-4.3zm27.2 4.4c-.2-2.9.3-4.5 1.6-4.3v4.1c-.5 1.2-1 1.1-1.6.2zm-25.5-.2c1.3-.2 1.8 1.4 1.6 4.3-.6.9-1.1 1-1.6-.3v-4z"/><path class="st0" d="M-163.6-166c.5-.1 1.1-.2 1.6-.2v4c-.5 1.3-1 1.2-1.6.3v-4.1zm-25.5 3.9c.5.1 1.1.2 1.6.3v4.1c-.6.9-1.1 1-1.6-.3v-4.1z"/><path class="st0" d="M-163.6-161.9c.5-.1 1.1-.2 1.6-.3.2 3-.3 4.5-1.6 4.4v-4.1zm-25.6 3.8c.5.1 1.1.2 1.6.3 0 1.3 0 2.7.1 4-1.3.3-1.8-1.2-1.7-4.3zm23.9 4.4c-.2-3 .3-4.5 1.6-4.3v4c-.5 1.3-1 1.3-1.6.3zm-22.1-.3c1.3-.3 1.9 1.1 1.6 4.3-1.3.4-1.9-1-1.6-4.3z"/><path class="st0" d="M-165.3-153.7c.5-.1 1.1-.2 1.6-.3.2 3.1-.3 4.6-1.7 4.3.1-1.3.1-2.6.1-4zm-20.5 3.9c1.3-.4 1.9 1 1.7 4.1-1.3.6-1.9-.7-1.7-4.1z"/><path class="st0" d="M-167.1-145.7c-.2-3.2.4-4.6 1.7-4.1.2 3.2-.3 4.6-1.7 4.1zm-17 .1c1.3-.6 1.9.7 1.8 3.9-1.4.8-1.9-.6-1.8-3.9zm13.6 3.9c-.1-3.1.6-4.3 1.8-3.9.4 1.4.4 2.7-.1 3.9-.6.1-1.1 0-1.7 0z"/><path class="st0" d="M-168.8-141.6c0-1.3.1-2.6.1-3.9.5 0 1.1-.1 1.6-.1.2 3.2-.4 4.5-1.7 4zm-13.6.1c.6.1 1.1.1 1.7.2.5 1.2.5 2.5.1 3.8-1.3.4-1.9-.8-1.8-4z"/><path class="st0" d="M-180.6-137.5c0-1.3-.1-2.6-.1-3.8h1.7c.5 1.2.5 2.4.1 3.7-.6 0-1.1.1-1.7.1z"/><path class="st0" d="M-178.9-137.6c0-1.2-.1-2.5-.1-3.7h1.7v3.7h-1.6zm5 0c0-1.2 0-2.5.1-3.7h1.7c.4 1.3.4 2.6-.1 3.8-.6-.1-1.1-.1-1.7-.1z"/><path class="st0" d="M-172.2-137.6c0-1.3.1-2.5.1-3.8h1.7c.1 3.2-.5 4.4-1.8 3.8zm10.3.3h-1.7c-.2-3.2.4-4.6 1.7-4.1v4.1z"/><path class="st0" d="M-163.7-133.4c-.5.1-1.1.2-1.6.2-.2-3.1.4-4.5 1.7-4.2 0 1.3-.1 2.7-.1 4z"/><path class="st0" d="M-165.4-129.4c-.6 0-1.1.1-1.7.1-.1-3.1.5-4.4 1.8-4 0 1.4 0 2.6-.1 3.9zm-25.5-106.5c0-1.3.1-2.6.1-3.9.5-.1 1.1-.1 1.6-.2.1 3.1-.4 4.5-1.7 4.1zm87 65.7c-.1 1.3-.1 2.7-.2 4-.6 1.4-1 3-1 5.1 0 1.3-.3 2.3-.6 3.3l-.1-.2c-.6 1.3-1 3-1 5.1-.1 1.2-.3 2.3-.6 3.2v-.1c-.5 1.5-1.1 2.8-1.7 4.1v.1c-.4.9-.8 1.4-1.3 1.6-.8.1-1.5.9-2.1 2.5l.1.3c-.5.8-1 1.4-1.6 1.4-.5.1-1.1.1-1.6.1-.8-.1-1.5.7-2 2.1h-3.4c-.5-1.4-1.2-2.2-2-2.2-.5 0-1.1 0-1.6-.1-.6-.1-1.1-.7-1.5-1.6l.1-.1c-.6-1.2-1.2-2.6-1.7-4v.1c-.4-.9-.6-2-.6-3.2 0-2-.4-3.7-1-5.1l-.2.2c-.4-1.2-.6-2.5-.6-4v-4.3c0-1.5.2-2.8.6-4 .1-1.3.1-2.7.2-4 .4-1.3.9-2.5 1.2-3.9.1-.5.3-.8.5-1.2.6-.9 1.1-1.9 1.6-3.2l-.1-.1c.7-1.1 1.1-2.7 1.8-3.8.5-.1 1.1-.3 1.6-.4.5-.9 1-1.4 1.6-1.4.6-.1 1.2-.1 1.7-.1h3.4c.6-.1 1.2 0 1.8 0 .6-.1 1.2 0 1.8 0 2.5.1 5-.5 7.6.5.3.2.6.6.8 1.1.4 1.2.5 2.7.6 4.3v4.4c.1 1-.2 2.3-.5 3.5z"/><path class="st0" d="M-104.1-182.4c-2.8 0-5.6-.1-8.4-.1-.4-1.3-.5-2.6 0-3.8 2.8 0 5.6-.1 8.4-.1.6 1.2.6 2.6 0 4zm-1.7-41c-.5-.1-1.1-.2-1.6-.3 0-1.3-.1-2.6-.1-3.9 1.3-.4 1.9 1 1.7 4.2zm1.8 4.1c-.5-.1-1.1-.2-1.6-.2 0-1.3-.1-2.6-.1-4 1.3-.4 1.8 1.1 1.7 4.2zm-17.1 36.6h-1.7c-.1-3.2.6-4.3 1.8-3.8.4 1.3.4 2.6-.1 3.8z"/><path class="st0" d="M-121.1-182.7c0-1.3.1-2.5.1-3.8.6 0 1.1.1 1.7.1.4 1.3.4 2.5-.1 3.7h-1.7z"/><path class="st0" d="M-119.4-182.7c0-1.2 0-2.5.1-3.7h1.7c.4 1.3.4 2.5-.1 3.7h-1.7z"/><path class="st0" d="M-117.7-182.7c0-1.2 0-2.5.1-3.7h1.7c.4 1.2.4 2.5 0 3.7h-1.8z"/><path class="st0" d="M-116-182.7v-3.7h1.7c.5 1.3.4 2.5 0 3.8-.5 0-1.1-.1-1.7-.1z"/><path class="st0" d="M-114.2-182.6v-3.8h1.7v3.8h-1.7zm10.1.2v-4.1c1.3-.5 2 .7 1.7 4-.5 1-1.1 1.1-1.6-.1l-.1.2zm-20.3.1c.1 3.2-.5 4.4-1.8 3.8-.1-3.3.4-4.7 1.8-3.8z"/><path class="st0" d="M-104-182.6c.5 0 1.1.1 1.6.1v4c-.5 1.1-1 1.2-1.5.1 0-1.4 0-2.8-.1-4.2zm-25.5 8.4c-.2-3.2.4-4.6 1.7-4.2.4 1.4.4 2.7-.1 4v-.1c-.5 1.3-1.1 1.3-1.6.3z"/><path class="st0" d="M-127.9-174.3c0-1.3 0-2.7.1-4h1.6c.2 2.9-.4 4.3-1.7 4zm24-4.1c.5 0 1-.1 1.5-.1v4.1c-.5 1.2-1 1.2-1.6.1.1-1.4.1-2.7.1-4.1z"/><path class="st0" d="M-129.5-174.2c.5-.1 1.1-.2 1.6-.3.2 3-.2 4.6-1.6 4.3v-4zm25.6-.1c.5 0 1-.1 1.6-.1.2 2.9-.3 4.4-1.6 4.2v-4.1zm-25.8 8.1v4.1c-.5 1.2-1.1 1.1-1.6 0-.1-2.8.4-4.3 1.6-4.1zm24 4.3c-.2-3 .2-4.6 1.6-4.3v4c-.5 1.3-1 1.3-1.6.3z"/><path class="st0" d="M-131.3-162h1.6v4.1c-.5 1.1-1.1 1-1.6-.1v-4zm25.6.1c.5-.1 1.1-.2 1.6-.3.3 3.1-.2 4.6-1.6 4.4v-4.1z"/><path class="st0" d="M-131.3-158c.5 0 1.1 0 1.6.1v4.1c-1.2.2-1.7-1.2-1.6-4.2zm23.9 4.3c-.2-3 .3-4.5 1.6-4.3v4c-.5 1.3-1 1.3-1.6.3zm-22.1-.2c1.3-.2 1.8 1.4 1.6 4.4-.6.9-1.1 1-1.6-.3v-4.1z"/><path class="st0" d="M-107.4-153.7c.5-.1 1.1-.2 1.6-.3.2 3.1-.3 4.6-1.7 4.3.1-1.3.1-2.6.1-4zm-22.1 3.8c.5.1 1.1.2 1.6.3v3.9c-1.3.4-1.8-1-1.6-4.2z"/><path class="st0" d="M-109.2-145.7c-.2-3.1.4-4.5 1.7-4.1.3 3.3-.3 4.6-1.7 4.1zm-18.6 0c1.3-.4 1.9.9 1.7 4-1.4.7-1.9-.7-1.7-4zm15.2 4.1c-.1-3.1.5-4.3 1.8-3.9.4 1.4.4 2.7-.1 3.9h-1.7z"/><path class="st0" d="M-110.9-141.6c0-1.3.1-2.6.1-3.9.5 0 1.1-.1 1.6-.1.2 3.2-.4 4.5-1.7 4zm-15.3.1c.5.1 1.1.1 1.6.2.5 1.2.5 2.5.1 3.9-1.2.3-1.8-.9-1.7-4.1z"/><path class="st0" d="M-124.4-137.5c0-1.3-.1-2.6-.1-3.9h1.7c.5 1.2.5 2.4.1 3.8-.6 0-1.1.1-1.7.1z"/><path class="st0" d="M-122.7-137.6c0-1.3-.1-2.5-.1-3.8 1.2-.5 1.9.6 1.8 3.7-.6.1-1.2.1-1.7.1zm5 0c-.1-3.1.5-4.2 1.8-3.8.4 1.3.4 2.6-.1 3.8h-1.7z"/><path class="st0" d="M-116-137.6c0-1.3 0-2.5.1-3.8.6 0 1.2 0 1.7.1.4 1.3.4 2.6-.1 3.8-.6-.1-1.1-.1-1.7-.1z"/><path class="st0" d="M-114.3-137.6c0-1.3.1-2.5.1-3.8h1.7c.1 3.2-.5 4.5-1.8 3.8zm10.3.3h-1.7c-.2-3.2.4-4.6 1.7-4.2.4 1.3.4 2.6-.1 3.7l.1.5z"/><path class="st0" d="M-104.1-137.7c0-1.2.1-2.5.1-3.7 1.3-.4 1.8.9 1.6 4.1-.6-.2-1.1-.3-1.7-.4zm-177-40.7c-.1 2.7-.1 5.4-.2 8.1-.6 1.3-.9 2.9-.9 4.8v3.9c0 1.4-.3 2.6-.6 3.7l-.1-.2c-.4 1.3-.9 2.4-1.2 3.9-.1.5-.3.8-.5 1.2-.5.7-.9 1.7-1.2 2.9-.1.5-.3.9-.5 1.2-.5.7-.9 1.7-1.2 2.9-.1.5-.3.9-.5 1.2-.6.9-1.1 2-1.6 3.1l.1.3c-.5.8-1 1.4-1.5 1.5-.5.1-1.1.1-1.6.1-.8-.1-1.5.7-2 2.1h-3.4c-.5-1.4-1.2-2.2-2-2.2-.5 0-1.1 0-1.6-.1-.6-.1-1.1-.7-1.5-1.5l.1-.2c-.6-1.2-1.2-2.7-1.7-4-.5-1.5-1.1-2.7-1.6-4.3l-.1.2c-.4-1.1-.6-2.4-.7-3.9 0-1.4-.1-2.8 0-4.2v-8.5c0-1.5.3-2.8.6-4l.1.2c.6-1.4 1-3 1-5.1.1-1.2.3-2.3.7-3.1.3-1 .8-1.4 1.3-1.6.8-.1 1.5-.9 2.1-2.3.5-.1 1.1-.3 1.6-.4.5-.9 1-1.4 1.6-1.4.6-.1 1.2-.1 1.8-.1h1.8c.6-.1 1.2 0 1.8-.1.6-.1 1.3 0 1.9-.1 3.2.5 6.5-1.5 9.7 1.4.4 1.4.5 2.9 0 4.6z"/><path class="st0" d="M-281.2-182.5c-3.4 0-6.8-.1-10.1-.1-.4-1.3-.5-2.6 0-3.8 3.4-.1 6.8-.1 10.1-.2.5 1.4.5 2.8 0 4.1z"/><path class="st0" d="M-281.2-182.5v-4.1c1.1-.2 1.8.4 1.8 3.5 0 2.8-.2 4.9-1.6 4.6-.1-1.3-.2-2.6-.2-4zm-30.7-4.2c0-1.3.1-2.6.1-3.9.5-.1 1.1-.1 1.6-.2.2 3.1-.4 4.5-1.7 4.1zm13.7 4h-1.7c-.1-3.2.5-4.3 1.8-3.7.4 1.2.4 2.5-.1 3.7z"/><path class="st0" d="M-298.2-182.7c0-1.2.1-2.5.1-3.7.6 0 1.1 0 1.7.1.4 1.3.4 2.5-.1 3.7-.6-.1-1.2-.1-1.7-.1z"/><path class="st0" d="M-296.5-182.7c0-1.2 0-2.4.1-3.7h1.7c.4 1.3.4 2.5 0 3.7h-1.8z"/><path class="st0" d="M-294.8-182.7v-3.7h1.7c.5 1.3.4 2.5 0 3.8-.6 0-1.1-.1-1.7-.1z"/><path class="st0" d="M-293.1-182.6v-3.8h1.7v3.8h-1.7zm-10.3 4.1c-.5.1-1.1.1-1.6.2-.2-3.2.4-4.5 1.8-4.1.4 1.3.4 2.7-.2 3.9z"/><path class="st0" d="M-303.4-178.5c0-1.3.1-2.6.1-3.9.6 0 1.1.1 1.7.1.1 3.2-.5 4.3-1.8 3.8zm-1.6.2c0 1.3-.1 2.6-.1 3.9-.5 1.3-1.1 1.3-1.6.3-.2-3.3.4-4.7 1.7-4.2z"/><path class="st0" d="M-306.7-174.2c.5-.1 1.1-.2 1.6-.3.2 3-.3 4.5-1.6 4.3.1-1.3 0-2.6 0-4zm-.1 3.9v4.1c-.5 1.2-1 1.1-1.6.2-.2-3 .3-4.5 1.6-4.3zm24 4.3c-.2-3 .2-4.5 1.5-4.3v4.1c-.4 1.2-.9 1.2-1.5.2z"/><path class="st0" d="M-308.3-166c.5-.1 1-.1 1.6-.2v4.1c-.5 1.1-1 1.1-1.5.1-.1-1.3-.1-2.7-.1-4zm25.5 0c.5-.1 1-.2 1.6-.2 0 1.3 0 2.7.1 4-.5 1.3-1 1.2-1.6.3-.1-1.4-.1-2.7-.1-4.1z"/><path class="st0" d="M-308.3-162c.5 0 1 0 1.5-.1v4.2c-.5 1-1 1-1.5-.1v-4zm25.5.1c.5-.1 1.1-.2 1.6-.3.2 3-.3 4.5-1.6 4.3v-4z"/><path class="st0" d="M-308.3-158c.5 0 1 .1 1.5.1v4.1c-.6 1-1.1 1-1.6-.2 0-1.3.1-2.7.1-4zm23.8 4.3c-.2-3.1.3-4.5 1.6-4.3 0 1.3 0 2.7.1 4-.6 1.3-1.1 1.3-1.7.3z"/><path class="st0" d="M-308.4-154c.5.1 1.1.1 1.6.2 0 1.4 0 2.7.1 4.1-1.3.3-1.8-1.2-1.7-4.3zm23.9.3c.5-.1 1.1-.2 1.6-.3.1 2.7-.2 4.5-1.5 4.3-.3 0-.4-.3-.6-.9-.1-1.2-.1-2.3.4-3.2l.1.1zm-22.1 3.9c1.3-.3 1.8 1.2 1.6 4.3-1.4.3-2-1-1.6-4.3z"/><path class="st0" d="M-284.4-149.7c-.1 2.6-.6 4.3-1.8 4.5-.2-.3-.4-.7-.5-1.3-.1-1.2-.1-2.4.4-3.1v.1c.5-1.3 1-1.2 1.6-.2h.3zm-20.6 4.1c1.3-.4 1.9.9 1.7 4-1.4.7-1.9-.7-1.7-4zm15.3 3.9c-.1-3.1.5-4.4 1.8-3.9.4 1.4.4 2.7-.1 3.9-.6.1-1.1.1-1.7 0z"/><path class="st0" d="M-288-141.6c0-1.3.1-2.6.1-3.9.5-1.2 1.1-1.2 1.6-.2l.1.5c0 2.9-.7 4.1-1.8 3.6zm-15.3.2c.6 0 1.1 0 1.7.1.5 1.2.5 2.5.1 3.8-1.3.5-1.9-.8-1.8-3.9z"/><path class="st0" d="M-301.5-137.5c0-1.3-.1-2.6-.1-3.8.6 0 1.1 0 1.7-.1.5 1.2.5 2.5.1 3.8-.6 0-1.2 0-1.7.1z"/><path class="st0" d="M-299.9-137.6c0-1.3-.1-2.5-.1-3.8 1.2-.4 1.9.6 1.8 3.8h-1.7zm5.1-.1c-.1-3.2.6-4.2 1.8-3.8.4 1.3.4 2.6-.1 3.8-.6.1-1.1.1-1.7 0z"/><path class="st0" d="M-293.1-137.6c0-1.3.1-2.5.1-3.8.6 0 1.1 0 1.7.1.4 1.3.4 2.6-.1 3.8-.6-.1-1.2-.1-1.7-.1z"/><path class="st0" d="M-291.4-137.6c0-1.3.1-2.5.1-3.8h1.7c.1 3.2-.6 4.4-1.8 3.8zm44.4-98.3c.5-.1 1.1-.2 1.6-.3v.4c.4 1.4.4 2.7-.1 3.9v-.1c-.6 1.2-1.1 1.2-1.6-.1.1-1.1.1-2.4.1-3.8z"/><path class="st0" d="M-245.4-231.8c0-1.3 0-2.6.1-3.9.5-.1 1.1-.2 1.6-.2.2 3.1-.4 4.5-1.7 4.1zm-1.7-.1c.5 0 1.1 0 1.6.1 0 1.6.2 3.9-.8 3.9-1-.1-.7-2.4-.8-4zm194.2 61.7c-.6-.1-1.1-.2-1.7-.3 0-1.3 0-2.5-.1-3.8 1.3-.4 1.9.9 1.8 4.1zm-.1 28.6c0-1.3.1-2.6.1-3.9.5-.1 1.1-.2 1.6-.3.2 3.2-.4 4.6-1.7 4.2zm-23.8-94.3c0-1.3.1-2.6.1-3.9.5-.1 1.1-.1 1.6-.2.2 3.2-.4 4.5-1.7 4.1zM-121.1 5.9h-1.6V2.2h1.6v3.7zm-78.2 0V2.2h1.6V6c-.6-.1-1.1-.1-1.6-.1zm103.7.1c-.5 0-1.1.1-1.6.1V1.9c.1-1.3.1-2.7.2-4h1.6v4c-.1 1.4-.2 2.7-.2 4.1zm-183.8-8.1c0 1.4-.1 2.7-.1 4.1-.6 1.2-1.2 1.2-1.8.2-.4-1.5-.4-3 0-4.5.7-1 1.3-.9 1.9.2z"/><path class="st0" d="M-281.1 2c.5 0 1 0 1.6-.1V6c-.6 1.2-1.2 1.3-1.8.3-.3-1.5-.4-3 .2-4.3z"/><path class="st0" d="M-281.1 6.2c.5 0 1.1-.1 1.6-.1v4.2c-.6 1.1-1.2 1.3-1.8.3-.3-1.7-.4-3.1.2-4.4zm-83.4 8.2c-.1 1.4-.1 2.7-.2 4.1-.5 0-1.1-.1-1.6-.1v-4.2c.1-1.4.1-2.7.2-4.1.5 0 1.1 0 1.6.1-.1 1.4-.1 2.8 0 4.2zm-1.9 16.3h-1.6c0-1.4 0-2.8.1-4.1h1.6c-.1 1.4-.1 2.8-.1 4.1zm105.8-8.2v-4.1c.5 0 1 .1 1.6.1v4h-1.6zm-17.1-53.3h1.6v8.3c-.5 0-1.1 0-1.6-.1-.4-1.2-.7-2.5-.6-4.1-.1-1.6.1-2.9.6-4.1z"/><path class="st0" d="M-281.1 6.2v4.1c.3 1 .4 2.2.3 3.4-.4 1.8-1.3 2.5-1.7 4.4-.1.5-.3.9-.5 1.2-.5.7-.9 1.7-1.2 2.9-.1.5-.3.9-.5 1.2-.6.9-1.1 2-1.6 3l.1.3c-1.1-.1-2.3-.1-3.4-.2.1-3-.4-4.4-1.7-4.2v.1c-.4-1.1-.6-2.4-.7-3.9-.1-1.4-.1-2.8 0-4.2V5.8c0-1.5.3-2.8.6-4v-8.2l.1.1c.6-1.4 1-3 1-5.1 0-1.3.3-2.3.6-3.3v-4.1l.1.1c.5-1.5 1.1-2.8 1.6-4.3 0-1.3 0-2.7.1-4v.1c.6-1.4 1.2-2.8 1.7-4.2v.1c.6 0 1.1-.1 1.7-.1.6-1.2 1.2-2.7 1.8-3.9l-.1-.3c1.1.1 2.3.1 3.4.2 0 1.3 0 2.7.1 4 .4 1.2.6 2.6.6 4.2s-.2 3-.6 4.2v4.1c-.1.2-.2.5-.2.7-.6 1-1 2.5-1.5 3.9-.2.4-.5.6-.7.8-1.3.7-2.7.3-4.1.5-.5.2-1.1 0-1.2 1.9-.1 2.2.5 2.5 1.2 2.6 1.4.2 2.8-.3 4.2.7.3.3.5.7.7 1.2.3 1.5.2 2.8-.2 4.1 0 1.4 0 2.8.1 4.1-.1 1.5-.1 2.9-.1 4.3z"/><path class="st0" d="M-279.4-22.5v-4.2c.5-1.1 1.1-1.1 1.6-.1v4.1c-.5.1-1 .2-1.6.2zm1.7 4c0 1.3-.1 2.6-.1 3.9-.5 0-1.1.1-1.6.1-.1-.2-.2-.5-.3-.7-.2-1.3-.1-2.4.2-3.5l.1.2c.6.1 1.1 0 1.7 0zM-371.5-2c-.5 0-1-.1-1.5-.1l-.3-.6c-.3-1.2-.4-2.5-.4-3.9s.2-2.6.6-3.6h1.6c.1 1.4.1 2.7.2 4.1-.1 1.3-.2 2.7-.2 4.1z"/><path class="st0" d="M-373.1-10.3c0 1.3 0 2.7-.1 4-.5 1.2-1.1 1.3-1.7.3-.4-1.4-.4-2.8.1-4.1v-.5c.5.2 1.1.2 1.7.3zm93.6-4.1c0 1.4 0 2.8-.1 4.2-.6 1.1-1.1 1.2-1.7.2-.4-1.5-.3-2.9.2-4.2l-.1-.2c.6-1.1 1.2-1.1 1.7 0z"/><path class="st0" d="M-281.1-10.3h1.6c0 1.4 0 2.7.1 4.1-.6 1.1-1.1 1.1-1.7 0-.5-1.3-.5-2.7 0-4.1zm37.3 4.1h-1.5c0-1.3 0-2.7-.1-4 .5 0 1.1.1 1.6.1v3.9zM-291.4 2v4.1c-.6 1.2-1.1 1.1-1.7 0 0-1.4 0-2.8.1-4.2.5 0 1 .1 1.6.1zm37.5 20.3v-4h1.5c0 1.4.1 2.8.1 4.2-.4 0-1-.1-1.6-.2zm-23.9-49c-.5 0-1.1 0-1.6.1v-4.2c.6 0 1.1 0 1.7.1-.1 1.3-.1 2.6-.1 4zm122.7 49.2h-1.7v-4.2h1.6c.1 1.4.1 2.8.1 4.2zm-5.2 4c-.5 0-1.1-.1-1.6-.1 0-1.3-.1-2.5-.1-3.8v-4.3.1c.5-1.1 1.1-1.2 1.6.1l.2-.1c.8 2.8.8 5.6-.1 8.3v-.2zm-197.4 4.3c.6 0 1.1 0 1.7-.1v4.1c-.6 1.1-1.1 1.2-1.7.1-.4-1.4-.4-2.8 0-4.3v.2z"/><path class="st0" d="M-357.8 34.8h1.7V39h-1.7c-.4-1-.5-2.1-.3-3.4.1-.3.2-.5.3-.8zm121-4c.6 0 1.1 0 1.7-.1v4.1c-.6 1.1-1.1 1.2-1.7.1-.4-1.4-.4-2.8 0-4.3v.2z"/><path class="st0" d="M-236.9 34.8h1.7V39h-1.7c-.4-1-.5-2.1-.3-3.4.2-.3.3-.5.3-.8zm87-4c.6 0 1.1 0 1.7-.1v4.1c-.6 1.1-1.1 1.2-1.7.1-.4-1.4-.4-2.8 0-4.3-.2 0 0 .2 0 .2z"/><path class="st0" d="M-150 34.8h1.7V39h-1.7c-.4-1-.5-2.1-.3-3.4.1-.3.2-.5.3-.8zm69.9-4c.6 0 1.1 0 1.7-.1v4.1c-.6 1.1-1.1 1.2-1.7.1-.4-1.4-.4-2.8 0-4.3v.2z"/><path class="st0" d="M-80.2 34.8h1.7V39h-1.7c-.4-1-.5-2.1-.3-3.4.2-.3.3-.5.3-.8zm-202.6-69.5c.1 3.1-.6 4.3-1.8 3.9v-4c.6 0 1.2 0 1.8.1zm-3.4 3.9c.1 3.1-.5 4.5-1.7 4.2 0-1.4 0-2.7.1-4.1.4 0 1-.1 1.6-.1zm-1.8 8.1c.2 3-.3 4.5-1.6 4.3 0-1.4 0-2.8-.1-4.3h1.7zm-1.7 8.2v4.1c-.6 1.2-1.1 1.2-1.7.1 0-1.4 0-2.8.1-4.2h1.6zm-85.1 4.5v3.9c.4 1.2.7 2.6.7 4.2s-.2 3.1-.8 4c-.5 0-1.1 0-1.6-.1v-4.1c-.5-1.4-.5-2.7 0-4.1v-4.1c.5.1 1.1.2 1.7.3zm206 8h-1.6c0-1.4-.1-2.8-.1-4.2 0-1.3.1-2.6.1-3.9.5 0 1.1 0 1.6.1 0 1.3.1 2.7.1 4 0 1.3-.1 2.6-.1 4z"/><path class="st0" d="M-376.5-6.2v4.1h-1.7v-4.1h1.7zm13.5 8.3c-.5 0-1 0-1.6-.1 0-1.4-.1-2.8-.1-4.2.1-1.4.1-2.7.2-4.1.5 0 1.1 0 1.6.1 0 1.4.1 2.8.1 4.2-.1 1.4-.2 2.7-.2 4.1zm71.6-12.4c.6 0 1.1 0 1.7-.1.2 3-.4 4.4-1.6 4.3 0-1.4-.1-2.8-.1-4.2zm10.2 4.1h1.7v4.1h-1.7c.1-1.4 0-2.7 0-4.1zM-375 2.1c.1-1.3.1-2.7.2-4 .5-1.2 1.1-1.2 1.6-.1h.1v4.1c-.5 1-1.1 1.1-1.6 0h-.3z"/><path class="st0" d="M-374.7 2h1.6c0 1.4 0 2.8.1 4.2-.1 1.4-.1 2.7-.2 4.1h-1.6c0-1.4-.1-2.8-.1-4.2.1-1.4.1-2.8.2-4.1zm81.6 4.1h1.7v4.2c-.6 1.1-1.1 1.1-1.7 0l-.1.1c.1-1.5.1-2.9.1-4.3zm132.8 12.4c-.5 0-1.1-.1-1.6-.1 0-1.4 0-2.8-.1-4.2.1-1.4.1-2.7.2-4.1h1.6c0 1.4.1 2.8.1 4.2-.1 1.5-.2 2.8-.2 4.2z"/><path class="st0" d="M-293.1 10.2h1.7v4.1c-.6 1.1-1.1 1.1-1.7-.1l-.1.1c.1-1.3.1-2.7.1-4.1zm11.9 4c.1-1.3.1-2.6.2-3.9.5 0 1.1 0 1.6-.1v4.3c-.1 1.3-.1 2.6-.2 3.9h-1.6c-.1-.2-.2-.5-.3-.7-.2-1.3-.1-2.4.3-3.5z"/><path class="st0" d="M-293 14.3c.6 0 1.1 0 1.7.1v4.2c-.4 1-.9 1.1-1.4.6l-.3-.6c-.1-1.5-.1-2.9 0-4.3z"/><path class="st0" d="M-293.1 22.5h-1.7c0-1.4.1-2.8.1-4.2.5 0 1.1.1 1.6.1l.1-.1c.4 1.5.4 2.8-.1 4.2zm132.9 4.1c0-2.8.1-5.5.1-8.3.5 0 1.1 0 1.6.1v4.1c.5 1.4.5 2.7 0 4.1v-.1c-.6.1-1.2.1-1.7.1zm-121-4.3c-.5.1-1.1.1-1.6.2-.1-.2-.2-.4-.3-.7-.2-1.3-.2-2.4.2-3.4l.1.1c.5-1.3 1.1-1.2 1.7-.1v-.1c-.1 1.4-.1 2.7-.1 4z"/><path class="st0" d="M-158.5 26.6v-4.1h1.7v4.1h-1.7zm-134.6-4.1c0-1.4.1-2.8.1-4.2.5.1 1.1.1 1.6.2v4h-1.7zm10.2 3.9c-.6.1-1.1.1-1.7.2v.1c-.5-1.3-.5-2.7 0-4 .6-1.2 1.1-1.2 1.7 0v-.1 3.8zm-75 4.2c0 1.4.1 2.8.1 4.2-.6 1.1-1.1 1.1-1.7 0 0-1.4.1-2.8.1-4.3.5.1 1 .1 1.5.1z"/><path class="st0" d="M-284.5 22.6v4c-.6-.1-1.2-.1-1.8-.2-.1-3 .6-4.2 1.8-3.8zm47.6 8c0 1.4.1 2.8.1 4.2-.6 1.1-1.1 1.1-1.7 0 0-1.4.1-2.8.1-4.3.4.1.9.1 1.5.1zm86.8 0c0 1.4.1 2.8.1 4.2-.6 1.1-1.1 1.1-1.7 0 0-1.4.1-2.8.1-4.3.5.1 1 .1 1.5.1zm69.9 0c0 1.4.1 2.8.1 4.2-.6 1.1-1.1 1.1-1.7 0 0-1.4.1-2.8.1-4.3.4.1.9.1 1.5.1zm-279.3 4.2h1.7v4.1h-1.7v-4.1z"/><path class="st0" d="M-238.6 34.8h1.7v4.1h-1.7v-4.1zm64.6 8.3h-1.5v-4.2c.5 0 1.1 0 1.6.1 0 1.3 0 2.7-.1 4.1zm22.3-8.3h1.7v4.1h-1.7v-4.1zm69.8 0h1.7v4.1h-1.7v-4.1zm-103.9-254.3c0-1.3.1-2.6.1-4 .5-.1 1.1-.1 1.6-.2.2 3.2-.4 4.6-1.7 4.2zm-98.8 69.7c-.5.1-1.1.1-1.6.2-.2-3.1.4-4.5 1.7-4.2-.1 1.3-.1 2.6-.1 4z"/><path class="st0" d="M-286.3-145.8c-.5.1-1.1.1-1.6.2-.1-3.1.4-4.5 1.7-4.1 0 1.3-.1 2.6-.1 3.9zm5.2 135.5c0 1.4 0 2.7-.1 4.1-1.7 0-3.4-.1-5-.1-.9-2.7-.9-5.4 0-8.1h5.1v4.1z"/><path class="st0" d="M-286.2-14.3v8.1c-1.4.4-1.8-1.3-1.8-4.4 0-3.1.7-4 1.8-3.7zm6.8-.1c-.6 0-1.2-.1-1.8-.1-.1-2.9.4-4.3 1.7-4.1 0 1.4 0 2.8.1 4.2zm-1.7 32.9c-.6 0-1.1.1-1.7.1-.2-3 .3-4.5 1.6-4.4 0 1.4 0 2.8.1 4.3z"/><path class="st0" d="M-282.8 22.6h-1.7c-.2-3 .4-4.5 1.7-4.2-.1 1.4-.1 2.8 0 4.2zm-90.4-24.7c-.5 0-1.1.1-1.6.1v-4.2c.5 0 1.1-.1 1.6-.1v4.2z"/></svg>