<svg id="Layer_1" xmlns="http://www.w3.org/2000/svg" viewBox="0 0 363.1 383.1"><style>.st0{fill:#fff}</style><path class="st0" d="M363 51.2c-3.1 3.1-3.2 7.8-5.3 11.5-11.6 20.7-36.6 27.2-55.8 13.8-4.3-3-6.3-2.7-9.8 1-18.1 19.4-36.3 38.7-54.7 57.8-3.5 3.6-3.8 5.9-1.2 10.4 10.7 18.8 10.6 38.2.2 57.1-2.5 4.5-2.7 6.8 1 10.5 14.1 14.4 27.9 29.1 41.7 43.9 2.9 3.1 5 4.4 9.6 2.6 11.9-4.7 24.3.4 30.7 11.5 6.4 11.1 4.7 25.1-4.1 34.2-8.9 9.2-21.8 10.6-32.5 3.4-10.3-6.9-14.6-19.8-10.1-32.7 1.4-4 .5-6-1.9-8.6-14.5-15.2-29-30.4-43.3-45.7-2.7-2.9-4.7-3.3-7.9-.8-4.1 3.3-8.9 6-13.8 6.5-7.5.7-7.9 4.9-7.8 11.3.3 18.4.1 36.9.1 55.3 0 3.4-.4 6 4.2 7.5 18.5 6.3 28.6 21.1 28.6 40.3-.1 18.3-10.7 33.1-28.6 39.6-.9.3-2.2.1-2.1 1.7h-16.1c-.6-.5-1.1-1.2-1.8-1.4-18.5-5.7-30.1-20.8-30.4-39.8-.3-18.3 10.8-34.4 28.7-40.3 4.2-1.4 4.7-3.4 4.7-7.2-.1-18.1-.4-36.3.1-54.4.3-7.7-1.3-11.8-9.2-12.9-4.3-.6-8.8-3-12.3-5.8-4.1-3.2-6.1-1.9-9.1 1.4-25 26.5-50 53-75.2 79.3-3.6 3.8-4.7 6.5-2.7 12.1 6.5 18.5-.5 38.2-16.2 48.7-15.2 10.1-35 8-48.3-5.1-6.4-6.5-9-14.7-12.4-22.5v-17c5.4-14.3 13-26.3 28-30.8 12-3.7 23.6-2.3 33.6 5.5 4.2 3.3 6 2.1 9-1.1 25-26.6 50-53 75.2-79.3 2.9-3.1 3.4-5 1.1-9-11.3-19.6-11.2-39.6.2-59.2 2.1-3.6 1.8-5.4-.9-8.2-14.5-15.1-29-30.3-43.2-45.7-3-3.3-5.4-3-9-1.7-14.2 5.1-28.1-2.2-33-16.8-4.7-14.7 2.2-30.1 15.8-35.3 13.6-5.3 28.3 1.9 33.4 16.4 2.2 6.3 2.6 12.9 0 19-1.6 3.8-.8 6 1.8 8.7 14.4 14.9 28.6 29.9 42.7 45.1 2.9 3.1 4.8 3.8 8.6 1.4 18.6-11.9 37.6-11.8 56.1.1 3.6 2.3 5.3 1.8 8-1.1 19.1-20.3 38.3-40.5 57.5-60.8 1.8-1.9 3.4-3.2 2.3-7-8.2-28.5.5-46.9 26.8-57.2.3-.1.4-.9.6-1.3h16.1c16.6 5.2 27.2 16.7 32.3 34v17.1zM230.9 174.8c0-23.7-17.1-42.2-39.2-42.5-22-.3-40.1 18.5-40 41.7.1 23.4 17.8 42.2 39.6 42.2 21.6 0 39.6-18.9 39.6-41.4zm92.2-105c14.6.1 26.8-12.5 26.9-27.6 0-15.2-12-28.2-26.4-28.4-14.5-.2-26.7 12.4-26.7 27.7-.1 15.6 11.6 28.2 26.2 28.3zM39.5 299.7c-14.8 0-26.7 12.6-26.4 28.1.2 15.3 12.6 28 27.1 27.8 14.2-.3 26-13 26-27.9-.1-15.8-11.8-28.1-26.7-28zm151.9 13.7c-14.6 0-26.8 12.8-26.6 28.1.2 15 12 27.6 26.1 27.9 14.6.3 26.8-12.4 26.9-27.8 0-15.7-11.7-28.2-26.4-28.2zm118.7-27.8c0-7.8-5.8-14.1-13.1-14.1-7.2 0-13.1 6.3-13.1 14 0 7.9 5.7 14 13 14 7.2.1 13.2-6.2 13.2-13.9zM99 63.7c.4-7.7-5.1-14.4-12.4-14.9-7.3-.6-13.7 5.4-14 13-.4 8 4.9 14.4 12.2 14.9 7.4.4 13.8-5.4 14.2-13z"/></svg>