<svg id="Layer_1" xmlns="http://www.w3.org/2000/svg" viewBox="0 0 359 377"><style>.st0{fill:#fff}.st1{fill:none;stroke:#fff;stroke-width:0;stroke-linecap:round;stroke-linejoin:round}</style><path class="st0" d="M66.7 129.4c-.4 1.2-.6 2.4-.5 3.6 0 2.1.6 3.8 1.5 5.2-1-1.4-1.6-3.1-1.5-5.2-.2-1.3.1-2.5.5-3.6z"/><path class="st1" d="M.7 172.3c0 9.3.7 18.5 2.2 27.6 3.2 20.4 9.6 39.7 19.4 57.9 4.3 8 9.3 15.5 14.8 22.7 4.2 5.4 8.8 10.5 13.6 15.4 5.3 5.4 11 10.4 17 15.1 3.8 3 7.9 5.6 11.9 8.3 3.8 2.6 8 4.5 11.9 6.8 5.6 3.2 11.7 5.4 17.7 7.9 8.3 3.5 17.2 5.6 26 7.3 20.3 3.7 40.6 4 60.8-.7 9-2.1 17.9-4.1 26.4-7.9 6.5-2.9 13.1-5.4 19.1-9.1 3.4-2.1 6.9-4 10.2-6.2 5.6-3.7 10.9-7.9 16.1-12.1.9-.7 1.3-.6 2 .2 1.8 1.9 3.6 3.9 5.5 5.8 4.8 5 9.6 10.1 14.4 15.1 5 5.2 10 10.4 14.9 15.7 4.2 4.5 8.6 8.9 12.9 13.3l.5.5c5.3 5.7 10.6 11.5 16.1 17 5.6 5.7 17.4 6 22.8-3.5 1.9-3.4 2.5-6.9 2-10.7-.5-4.6-3.3-7.7-6.3-10.8-5.3-5.5-10.4-11-15.7-16.4-4.5-4.7-9-9.5-13.5-14.2-5.1-5.3-10.1-10.6-15.2-15.9-4.2-4.5-8.6-8.7-12.8-13.2-1.6-1.8-3.3-3.5-5-5.3-.4-.4-.7-.8-.2-1.4.7-.9 1.3-1.9 2-2.8 3.8-4.8 7.1-9.9 10.3-15.2 3-4.9 5.7-10 8.2-15.2 4.8-10.1 8.5-20.6 11.3-31.5 2.7-10.6 4.4-21.4 5.2-32.4.8-11.5.4-22.9-1-34.3-1.7-13.8-5.1-27.2-9.7-40.3-2.8-7.7-6.3-15.1-10.1-22.3-4.4-8.2-9.5-15.9-15.2-23.3-4.2-5.2-8.7-10.2-13.4-15-5.3-5.5-11.1-10.5-17.1-15.2-3.5-2.7-7.2-5.2-10.8-7.7-4.1-2.8-8.7-5-13-7.5-5.3-3.1-11.2-5.2-16.8-7.6-8.3-3.5-17-5.7-25.8-7.5-21.3-4.2-42.6-4.4-63.8.8-8.5 2.1-16.9 4-24.9 7.7-5.6 2.6-11.4 4.6-16.7 7.9-4.1 2.6-8.6 4.6-12.5 7.6-3.5 2.7-7.3 5-10.7 7.8-5.9 4.8-11.6 9.9-16.9 15.4-4.7 4.9-9 10-13.1 15.4-3.8 5-7.2 10.2-10.4 15.6-4.4 7.4-8.2 15-11.4 22.9-4.1 9.9-7.1 20.1-9.3 30.6C2 147.6.7 159.9.7 172.3z"/><path class="st1" d="M.3 2.1c.1 62.3 0 124.6 0 187v187c0 1.4.4 1.7 1.7 1.7h355.8c1.5 0 1.9-.2 1.9-1.8V2.2c0-1.5-.4-1.8-1.8-1.8H2.1C.7.3.3.5.3 2.1z"/><path class="st0" d="M352.5 348c-5.3-5.5-10.4-11-15.7-16.4-4.5-4.7-9-9.5-13.5-14.2-5.1-5.3-10.1-10.6-15.2-15.9-4.2-4.5-8.6-8.7-12.8-13.2-1.6-1.8-3.3-3.5-5-5.3-.4-.4-.7-.8-.2-1.4.7-.9 1.3-1.9 2-2.8 3.8-4.8 7.1-9.9 10.3-15.2 3-4.9 5.7-10 8.2-15.2 4.8-10.1 8.5-20.6 11.3-31.5 2.7-10.6 4.4-21.4 5.2-32.4.8-11.5.4-22.9-1-34.3-1.7-13.8-5.1-27.2-9.7-40.3-2.8-7.7-6.3-15.1-10.1-22.3-4.4-8.2-9.5-15.9-15.2-23.3-4.1-5.3-8.6-10.3-13.3-15.1-5.3-5.5-11.1-10.5-17.1-15.2-3.5-2.7-7.2-5.2-10.8-7.7-4.1-2.8-8.7-5-13-7.5-5.3-3.1-11.2-5.2-16.8-7.6-8.3-3.5-17-5.7-25.8-7.5-21.3-4.2-42.6-4.4-63.8.8-8.5 2.1-16.9 4-24.9 7.7-5.6 2.6-11.4 4.6-16.7 7.9-4.1 2.6-8.6 4.6-12.5 7.6-3.5 2.7-7.3 5-10.7 7.8-5.9 4.8-11.6 9.9-16.9 15.4-4.7 4.9-9 10-13.1 15.4-3.8 5-7.2 10.2-10.4 15.6-4.4 7.4-8.2 15-11.4 22.9-4.1 9.9-7.1 20.1-9.3 30.6C2 147.6.7 159.9.7 172.4c0 9.3.7 18.5 2.2 27.6 3.2 20.4 9.6 39.7 19.4 57.9 4.3 8 9.3 15.5 14.8 22.7 4.2 5.4 8.8 10.5 13.6 15.4 5.3 5.4 11 10.4 17 15.1 3.8 3 7.9 5.6 11.9 8.3 3.8 2.6 8 4.5 11.9 6.8 5.6 3.2 11.7 5.4 17.7 7.9 8.3 3.5 17.2 5.6 26 7.3 20.3 3.7 40.6 4 60.8-.7 9-2.1 17.9-4.1 26.4-7.9 6.5-2.9 13.1-5.4 19.1-9.1 3.4-2.1 6.9-4 10.2-6.2 5.6-3.7 10.9-7.9 16.1-12.1.9-.7 1.3-.6 2 .2 1.8 1.9 3.6 3.9 5.5 5.8 4.8 5 9.6 10.1 14.4 15.1 5 5.2 10 10.4 14.9 15.7 4.2 4.5 8.6 8.9 12.9 13.3l.5.5c5.3 5.7 10.6 11.5 16.1 17 5.6 5.7 17.4 6 22.8-3.5 1.9-3.4 2.5-6.9 2-10.7-.6-4.5-3.5-7.7-6.4-10.8zm-68.1-114.8c-2.3 5.1-4.9 10-7.8 14.8-3.4 5.6-7.2 10.9-11.4 16-4.2 5.2-8.9 9.9-13.8 14.4-6.6 6.1-13.8 11.3-21.5 16-4.8 2.9-9.8 5.2-14.8 7.6-8.1 4-16.9 5.9-25.6 7.9-16.1 3.8-32.3 3.7-48.5.6-8.8-1.6-17.5-3.8-25.8-7.4-5.1-2.3-10.2-4.5-14.9-7.4-4-2.5-8-5-11.8-7.7-3.3-2.3-6.5-4.9-9.5-7.6-5.2-4.6-10.1-9.6-14.6-14.9-4.1-4.9-7.9-10-11.3-15.4-6.1-9.6-11.1-19.9-14.8-30.7-5.1-15.3-7.6-31-7.7-49.1.1-13.2 2.2-28.1 6.8-42.6 2.6-8 5.8-15.7 9.7-23.1 2.8-5.3 5.9-10.3 9.3-15.2 3.9-5.6 8.3-10.7 13-15.7 5.3-5.6 11-10.7 17.1-15.4 3.7-2.9 7.8-5.1 11.6-7.8 4.6-3.2 9.8-5.1 14.8-7.6 8-4 16.7-6 25.4-8 16.4-3.9 32.8-3.7 49.2-.6 8.7 1.6 17.3 3.8 25.4 7.4 5.2 2.3 10.5 4.6 15.4 7.6 3.9 2.4 7.8 4.8 11.5 7.6 6.2 4.6 12.1 9.7 17.5 15.3 4.4 4.5 8.5 9.3 12.3 14.3 7.3 9.9 13.2 20.5 17.7 31.9 4.8 12.1 7.9 24.6 9.3 37.6 1.4 13 1.2 25.9-.8 38.8-1.9 13.4-5.8 26.1-11.4 38.4z"/><path class="st0" d="M130 87.6c-4.1 2.2-8.4 3.9-12.2 6.7-3.8 2.8-7.8 5.3-11.2 8.6-5 4.8-9.6 9.9-13.6 15.6-3.8 5.5-7.2 11.2-9.3 17.6-1.3 3.9-6.6 7.3-9.7 6.4-1.2-.4-2.4-.9-3.5-1.6-.4-.3-.9-.6-1.3-.9-.3-.3-.6-.5-.8-.8-.2-.3-.5-.5-.7-.8-1-1.4-1.6-3.1-1.5-5.2-.1-1.3.1-2.5.5-3.6.1-.4.3-.8.4-1.1l1.2-2.7c3.3-7.4 7.4-14.3 12.2-20.9 4.1-5.6 8.7-10.7 13.8-15.4 2.8-2.7 6-4.9 8.9-7.4 3.8-3.3 8.3-5.6 12.6-8.1 2.2-1.3 4.5-2.5 6.9-3.5 2-.9 4-1 6.1-.6 3.9.9 6.3 4.2 6.8 8.1.5 3.8-1.8 7.5-5.6 9.6zm139.8 88.3c-.4 11.6-2.4 22.8-6.1 33.8-2.8 8.2-6.4 16.1-11 23.5-3.3 5.4-7 10.4-11.2 15.2-5.2 5.9-11 11-17.3 15.7-3.8 2.8-8 5-12 7.4-6 3.6-12.6 5.5-19.1 7.8-9.3 3.2-18.9 4.2-28.6 4.4-4.9.1-8.4-3.1-9.2-8.1-.7-4.3 1.6-8.4 5.7-9.9.9-.3 1.9-.5 2.8-.6 11.4-.7 22.6-2.4 33.1-7 5.2-2.3 10.4-4.9 15.1-8.2 3.1-2.2 6.2-4.5 9-7 7.6-6.8 13.9-14.7 19-23.5 5.4-9.4 8.6-19.7 10.7-30.4 1-5.4 1.4-10.9 1.5-16.3 0-4.1 1.8-7.4 5.6-9 6.2-2.6 11.4 1.9 12.1 7.6.1 1.4-.1 3-.1 4.6z"/><path class="st0" d="M257.6 163.6c-3.7 1.6-5.5 4.9-5.6 9-.1 5.5-.4 11-1.5 16.3-2 10.7-5.2 20.9-10.7 30.4-5.1 8.8-11.4 16.7-19 23.5-2.8 2.5-5.9 4.8-9 7-4.7 3.3-9.8 5.9-15.1 8.2-10.5 4.6-21.7 6.3-33.1 7-1 .1-1.9.2-2.8.6-4.1 1.5-6.4 5.6-5.7 9.9.8 5 4.3 8.2 9.2 8.1 9.7-.2 19.3-1.1 28.6-4.4 6.5-2.3 13.1-4.2 19.1-7.8 4-2.5 8.2-4.6 12-7.4 6.3-4.7 12.1-9.8 17.3-15.7 4.2-4.7 7.9-9.8 11.2-15.2 4.6-7.4 8.2-15.2 11-23.5 3.8-11 5.8-22.2 6.1-33.8 0-1.6.2-3.2 0-4.7-.6-5.6-5.8-10.1-12-7.5zM128.7 69.7c-2.1-.5-4.1-.3-6.1.6-2.4 1-4.6 2.2-6.9 3.5-4.3 2.6-8.8 4.8-12.6 8.1-2.9 2.5-6.1 4.7-8.9 7.4-5.1 4.7-9.7 9.8-13.8 15.4-4.8 6.5-8.8 13.5-12.2 20.9l-1.2 2.7c-.2.4-.3.8-.4 1.1-.4 1.2-.6 2.4-.5 3.6 0 2.1.6 3.8 1.5 5.2.2.3.4.6.7.8.3.3.5.6.8.8.4.3.8.7 1.3.9 1.1.7 2.3 1.2 3.5 1.6 3.1.9 8.4-2.5 9.7-6.4 2.1-6.4 5.5-12.1 9.3-17.6 4-5.7 8.5-10.8 13.6-15.6 3.4-3.2 7.4-5.8 11.2-8.6 3.8-2.7 8.1-4.5 12.2-6.7 3.8-2.1 6.1-5.8 5.5-9.8-.4-3.8-2.8-7.1-6.7-7.9z"/></svg>