<svg id="Layer_1" xmlns="http://www.w3.org/2000/svg" viewBox="0 0 364 370"><style>.st0{fill:#fff}</style><path class="st0" d="M160.7 0h39.9c.2 1.1 1 1.2 1.9 1.3 77.6 9.5 138.4 64.4 156.8 141.6 1.7 7.3 1.7 14.9 4.7 21.9v41.9c-2.7 2.3-1.9 5.7-2.4 8.6C350 288.2 295.4 348 224.7 364.8c-8 1.9-16.1 3.5-24.1 5.2h-39.9c-2-2.7-5.2-1.9-7.8-2.3C78.9 355 21.3 300 4.3 225.8c-1.5-6.4-1.1-13.2-4.3-19.2v-43.2c2.6-2.1 1.8-5.3 2.3-7.9C14.8 80.2 68.9 21.7 141.9 4.4c6.2-1.5 13-1.1 18.8-4.4zM182 13.4C88.7 13.4 13.3 90 13.2 184.8c-.2 94.9 75.1 171.6 168.5 171.8 93.5.2 169.3-76.7 169.2-171.8C350.7 90 275.3 13.4 182 13.4z"/><path class="st0" d="M90 206.3c-6.6 9.6-12.5 18.6-18.7 27.3-1.6 2.3-1.4 4.2-.8 6.7 1.8 7.3-2.2 13.4-9 14.6-6.1 1.1-12-3.4-12.8-9.8-1-6.8 3.2-12.4 10.3-12.9 3.1-.2 4.7-1.4 6.3-3.8 5.9-8.9 12-17.8 18.2-26.6 2-2.8 2.5-5.1.9-8.5-7.9-17-15.6-34.2-23.3-51.4-1.1-2.6-2.7-4.2-5.4-5.3-6.4-2.7-8.9-9.6-6.1-15.6 2.6-5.7 9.6-8.1 15.2-5.3 6.1 3.1 8.2 10.2 4.3 16.6-1.7 2.7-1.7 4.5-.4 7.2 7.5 16.2 14.8 32.6 22.7 50.2 5.9-8.7 11.3-16.7 16.8-24.7 1.1-1.6-.1-3-.2-4.5-.2-5.5 2-9.8 7-11.8 4.9-1.9 10.1-1.2 13 3.6 2.1 3.3 4.8 4.2 8.1 4.9 7.1 1.6 14.3 3.1 21.4 4.8 5.1 1.2 10.2 3.3 14.6-1.7.4-.5 1.2-.9 1.8-.8 9.2 1.8 13.1-5.5 18.2-10.8 12-12.6 23.9-25.3 36-37.8 2.1-2.2 3.2-4.2 2.9-7.6-.7-7.3 4-12.5 10.5-12.8 6.4-.3 11.9 4.8 11.7 11.9-.1 3.2.9 4.9 3.1 6.7 11.9 10.1 23.8 20.2 35.6 30.4 2.4 2.1 4.4 3.3 8.1 2.5 6.7-1.5 12.4 3.5 13 10.2.6 6.4-4.1 12-10.4 12.5-6.6.5-12.2-4.3-12-11.3.1-3.4-.9-5.3-3.3-7.3-11.9-10-23.7-20.2-35.6-30.3-4.5-3.8-13.6-3.6-17.6.6-14.6 15.4-29.2 30.8-43.8 46.1-1.8 1.8-2.7 3.4-2.2 6.4 1.1 6.2-2.4 11.4-8.1 12.9-5.9 1.5-10.7-.7-13.1-6.3-1.3-3-3.2-3.7-5.9-4.3-7.1-1.5-14.2-3.2-21.3-4.9-5.1-1.3-10.1-2.9-14.1 2.8-.9 1.3-3.9 2.4-5.4 1.9-5.6-2-7.4 2-9.7 5.5-4.9 7.5-12.9 14.6-13.7 22.5-.7 7.5 6.1 15.9 9.6 23.8 2.1 4.7 5.1 9.2 6.2 14.1 1.9 8.6 8.7 11.5 15 15.2 1.3.8 2.5.1 3.8-.2 11.3-3 22.6-6 34-8.8 3-.7 4.2-2.2 4.8-5.3 1.3-6.2 5.7-9.2 11.7-8.5 3.3.4 5.3-.5 7.5-2.8 12.4-13.2 24.8-26.3 37.4-39.3 2.3-2.4 3.5-4.5 3.1-8.2-.7-6.6 3.5-11.5 9.6-12.4 5.8-.9 11.5 3 12.4 9.5.5 3.9 2.4 5.8 5.3 7.7 11.1 6.9 22.1 14 33.1 21.2 2.7 1.8 5 2.5 8.5 1.2 6.1-2.3 12.2 1.5 13.9 7.7 1.7 6.3-1.8 12.7-7.8 14.3-6.5 1.7-13-2.1-13.8-8.9-.5-3.9-2.2-5.8-5.2-7.7-11.1-6.9-22.1-14.1-33.1-21.1-5.1-3.3-16.1-2-20.2 2.3-12.6 13.2-25.2 26.6-37.9 39.8-2 2-2.8 3.8-2.4 7 .9 8.6-6.7 14.7-14.7 11.7-3.9-1.4-7.1-1.2-10.8-.1-8.7 2.5-17.5 4.7-26.3 6.9-5.3 1.3-10.3 2.1-13 8.5-2 4.8-9.3 5.7-14.1 3.2-4.9-2.7-7.7-9.3-4.9-14.5 2.2-4 1-6.6-.5-9.8-6.1-12.9-11.8-25.6-18-39.2z"/></svg>