<svg id="Layer_1" xmlns="http://www.w3.org/2000/svg" viewBox="0 0 360 380"><style>.st0{fill:#fff}</style><path class="st0" d="M172.8 375c-42.4-.8-84.5-18.2-118.9-53.9C19.5 285.5 2.1 241.9 2 191.6c-.1-49.5 16.8-92.5 50.1-128C86.8 26.7 129.4 8 179 8c49 0 91.3 18.3 125.8 54.5s51.6 80.2 51.1 130.9c-.8 99.9-79 181.4-183.1 181.6zm.2-11c98-.1 171.7-76.8 172.5-170.8.4-47.4-15.5-88.6-47.6-122.5C265.4 36.4 225.4 19 179.1 19c-45.5-.1-85 16.8-117.3 50.1-32.6 33.6-49.2 74.8-49.2 122.4 0 47 16.2 87.7 48.1 121.2 32.4 34 72.2 50.6 112.3 51.3z"/><path class="st0" d="M252.6 189.1c-3 2.4-5.7 4.6-8.5 6.9-7.2 5.8-14.4 11.6-21.5 17.4-3.3 2.6-2.9 7.6.7 9.4 2.2 1.1 4.2.5 6.1-1 11.7-9.5 23.4-18.9 35.2-28.4 3.7-3 3.5-7.2-.5-9.8-5.9-3.8-11.8-7.7-17.7-11.5-5.9-3.8-11.8-7.6-17.6-11.5-3-1.9-6.6-.8-7.9 2.4-1 2.5-.2 5.3 2.2 6.8 7.1 4.7 14.3 9.3 21.5 14 2.4 1.7 5.1 3.5 8 5.3zM137.2 165c-.1-2.1-1-3.8-3-4.8-2.1-1-4-.7-5.8.7-11.8 9.5-23.7 19.1-35.5 28.6-3.7 3-3.5 7.2.5 9.8 6.2 4.1 12.5 8.1 18.7 12.2 5.6 3.6 11.1 7.2 16.7 10.8 3.4 2.2 7.6.4 8.3-3.7.4-2.2-.7-4.3-2.9-5.8-9.4-6.1-18.9-12.3-28.4-18.4-.8-.5-1-.8-.1-1.5 1.9-1.4 3.7-3 5.6-4.5 7.8-6.3 15.5-12.5 23.3-18.8 1.6-1.1 2.6-2.5 2.6-4.6zm53.9-17.4c-2.5 0-4.2 1.3-5.1 3.9-1 2.9-2 5.7-3 8.6-7.7 22.4-15.4 44.8-23 67.2-.4 1.2-.7 2.4-.4 3.7.6 2.5 2.5 4.2 4.9 4.4 2.4.2 4.5-1.4 5.4-3.9 5.9-17.3 11.9-34.6 17.8-51.9 2.8-8.1 5.6-16.2 8.4-24.4 1.2-4-1.1-7.6-5-7.6z"/><path class="st0" d="M252.6 189.1c-2.8-1.8-5.5-3.6-8.2-5.4-7.2-4.7-14.3-9.3-21.5-14-2.4-1.5-3.2-4.3-2.2-6.8 1.3-3.2 4.9-4.3 7.9-2.4 5.9 3.8 11.8 7.6 17.6 11.5 5.9 3.8 11.8 7.7 17.7 11.5 4 2.6 4.2 6.9.5 9.8-11.7 9.5-23.5 18.9-35.2 28.4-1.9 1.5-3.9 2.1-6.1 1-3.6-1.8-4-6.8-.7-9.4 7.2-5.8 14.4-11.6 21.5-17.4 2.9-2.2 5.7-4.4 8.7-6.8zM137.2 165c-.1 2.1-1 3.6-2.5 4.8-7.8 6.3-15.6 12.5-23.3 18.8-1.9 1.5-3.7 3-5.6 4.5-.9.7-.7.9.1 1.5 9.5 6.1 18.9 12.2 28.4 18.4 2.2 1.4 3.3 3.5 2.9 5.8-.7 4-4.8 5.9-8.3 3.7-5.6-3.6-11.1-7.2-16.7-10.8-6.2-4.1-12.5-8.1-18.7-12.2-4-2.6-4.2-6.8-.5-9.8 11.8-9.5 23.7-19.1 35.5-28.6 1.8-1.4 3.7-1.7 5.8-.7 1.9.7 2.8 2.5 2.9 4.6zm53.9-17.4c3.8 0 6.2 3.6 4.9 7.5-2.8 8.1-5.6 16.2-8.4 24.4-5.9 17.3-11.9 34.6-17.8 51.9-.9 2.5-3 4.1-5.4 3.9-2.4-.2-4.4-1.9-4.9-4.4-.3-1.3 0-2.5.4-3.7 7.7-22.4 15.4-44.8 23-67.2 1-2.9 2-5.7 3-8.6 1-2.5 2.8-3.8 5.2-3.8z"/></svg>