<svg id="Layer_1" xmlns="http://www.w3.org/2000/svg" viewBox="0 0 370.3 377.6"><style>.st0{stroke:#fff;stroke-width:.25}.st0,.st1,.st2{fill:#fff}.st2{stroke:#010101;stroke-width:.114}</style><path class="st0" d="M226.4 229.4v81.3h17v-37.4l3.5.1v37.3h17.2v-81.3h-17.2v30.2h-3.5v-30.2h-17zm59 0h-16.6v81.3h16.6v-81.3zm2.8 0l13.1 81.3h19.8l13.1-81.3h-17.6l-4.3 34.8c-.4 1.3-1.6 1.3-1.8 0l-4.3-34.8h-18zm82.5 0h-33v81.3h33v-21.3l-18.3-.2v-9.1h8.7v-21.2h-8.7v-8.2h18.3v-21.3z" transform="translate(-.533 66.8)"/><path class="st1" d="M202.7 65.3c-5.4-5-10.2-22.6-18.4-26.2-7.6-.7-10.3-3.5-20.3-1.2 3.6-2.1 7-4.8 10.8-6.3 2.6-.7 5 .1 7.5.5.6-.3 1-.8.9-1.4-10-7.2-30.6-7.4-44.4-11.5 16.1.6 33.9-.4 46 4.1 9.8 10.2 12.9 29.2 17.9 42zm29.5-84.8c2.2.2 14.2 22.5 14.8 26.2 1 8.1 3.5 17.2 4.1 25.6-2-8.1-4.1-16.3-6.8-24.4-.8-2.2-2.8-7.3-8.3-14.5-2.6-4.9-3.1-8.9-3.8-12.9zm40.7 121.3h-5.1l5.7 1.7-.6-1.7zm-35-6c-5.2-.7-10.5-.8-15.6.5-2.1 3.3-2.3 6.7-3.2 9.8 6.2-8.2 8.7-8.7 18.8-10.3zm70.5 41.8c-2.9 2.7-3.2 5.2-11.7 8.3-6.2 1.7-9.7-1.2-12.6-5.1 4.4 1.5 5.1 5.4 17 1l7.3-4.2zm-25.8 1.7c-2.1 6.7-4.3 13.4-6.6 19.7-5.4 7.4-3.1 3.2-11.1 14.6 2.6-4.6 5.9-9.1 7.7-13.9 1.2-3.2 2.8-6.6 3.4-9.4-2.1-1.2-6.5-1.3-7.1-.9-7.1 4.9-8.4 10.1-12.6 15.2 3-5.7 5.6-11.9 9.2-17.1.4-.7 3-.8 4.6-1.2-2.5-.5-7.1-1.6-7.5-1.5-4.7 1.3-7.3 6.1-10.7 9.2 2.5-4.3 4.8-8.7 8-12.4.3-.4 9 .5 13.4 2.5l.1 2.1 2.5 1.2 1.9-5.6 4.8-2.5zm-56.5 40.2c-1.1-.5-11.3-2-11.3-1.6-3.9 3.2-4.5 6.4-4.4 9 6.5-7.4 6.3-7.5 15.7-7.4zm-7.7-53.7s7.3-1.2 7.2-.4c-.5 3 .9 10.2 1.1 9.2l-4.1 3.9c8.6-5.1 17.7-4.1 26.9-4.8 0 0-7.7-2.5-7.3-2.6 1.7-.3-.5-9.5-1.1-9.7 1.5-.6 2.9-1 4.4-1.5-11.1-3.3-17.5-1.3-27.1 5.9z" transform="translate(-.533 66.8)"/><path class="st1" d="M281.8 132.2l-1.6 1c-.2-5.6-5.3-5.2-9.7-5.2l-3.5-1c1.1 1.2 4.4 1.1 3.1 3.6-1.1.7-1.6 3.7-2.3 6.3l-1.9.1c3.4 1.5 6.5 2.9 10.2 4.7l2.2.4 5.3-3.3-1.8-6.6z" transform="translate(-.533 66.8)"/><path class="st1" d="M233.3 128.5c-.8-1.9-5-1.6-5.9-.4-.7 1 0 7.4.9 6.4 1.3-1.4 3.1-2 5.2-1.9.3-1.2.2-2.5-.2-4.1zm39.7 9.6c.4-.3 1.2-3.6.9-4.5-.5-2.3-4.4-1.8-4.4-1.8-.9.6-1.8 4.2-1.4 5.4.2.9 4.3 1.2 4.9.9zM108.3 249.4l2.4.3c14.4 8.3 38.2 20.6 72.6 14l5.4 9.9c-15.1 8.6-31.4 6.6-46.7 7.2l-33.7-31.4zm-20.7-65.6l7.2 35.5c19.3 14.2 52.4 30.4 79.9 29.1l-6.1-16.4c-57.5-14.2-62.3-32.3-81-48.2zm17.9-72.8c3.5 27.5 8.2 48.4 28.7 65.9 12.5 10.6 25 21.1 40.1 29.7 0 0-1.3 8.1-2.4 7.9-45-5.9-78-49.6-82-69.6 3.9-15.2 9.4-24.7 15.6-33.9zm21.7-15.6c6 30.5 20.3 61.4 34.5 89.5 5.2 7.7 6.6 11.2 14.6 15.9 10.9 4 18.5 3 26.4 2.4-2.2-4.7-4.1-9.6-6.6-14-17.6-16.3-9.5-31.2-4.8-40.7-9.8-2.9-22.8-9.1-24.6-17.2-2.9-26.3-1.4-34.6 1.5-48.1-13.3 3.3-26.7 6.6-41 12.2z" transform="translate(-.533 66.8)"/><path class="st2" d="M78.4-66.7c-4.4 3.3-8.6 8.1-13.1 13.6-7.5 9.1-12.5 18-20.1 24.6-1.5 1.5-5.8 4-11.2 4.4-2.5.1-4.2.6-8.9 0-4.1-2.6-8-.9-11.8 4.4C9.1-12.7 3.8.7 1.6 9.1c-4.5 21.5 7 39.2 18.1 52.8 9.9 11.3 15.6 18.4 19.6 28.7 3.1 6.7 5.3 15.9 7.8 22.4.9 2 .7 2 3.1 2.7 5.2 1.3 12.3 1.3 18.7 1.9 2.8 0 6.5-.1 10.1-.5 4.9-1.1 10.8-2.2 15.6-4.1 4.8-1.4 9-3.3 12.8-5-.5 2-4.1 3.8-5.5 6.3-12.9 21.7-16.5 41-14.2 71.5 1.3 13.5 3.9 24.7 7.9 37.5 1.8 5.9 5.7 15.2 9.4 21.3 11.1 18.3 35.9 41.9 70.4 51 6 1 12.9.4 19.3-1.6 17-6 51.8-20.4 51.8-20.4s-30.8 3-44.9 1.4c-3.3-.6-6.9-.8-9.1-3.4-.4-.6-1.8-3.9-.9-3.9 1.2 0 4.7-1.7 10.1-2.3-11.6-1.5-11.4-1.4-12.2-3.9-1.3-3.8-3.3-9.1-5.4-13.6 5.1.5 16.3 1.2 20.2-3.4 0 0-6.7.9-12.5.1-2-.3-5.4-1.7-6.4-2.1-2.6-1.2-4.8-1.6-5.3-2.4-.9-2.7-1.5-3.7-2.6-7.3-1.5-4.9-1.6-10.3-1.9-15.2 3.8 5.6 8.8 10.2 15.2 12.6.1-.2 8.4 4.2 14.5 2l1.3-.5c0 .1-4 .4-5.5-.4-12.3-6.1-14.2-11.5-16.2-14.2l-5.3-9.3c1.6-3.8 2.5-3.9 4.7-4 6.5.8 9.3 1.5 13.3.4 2.7 6.4 3.4 12.9 9.5 17.6 20.2 7 24.6-2.1 29.5-10.1 14.5 12.5 38.2 16.4 54.7.2 20.9-28.3 27.5-73 25.7-75.6-2.6-5.2-6-10.5-9-9.8-10.5 3.4-14.4 9.6-24.7 8.2 1.2-.1 3.3-.1 3.3-.3.8-10.3-.1-15.3-.5-16.2-3.2-8.1-7.3-16.7-10.2-23.1-.7-1.3-2.9-11.5-6.6-15.5-1.6-1.6-5.4-5.7-5.4-5.7l-.3 4.4s1.5.3 2.1 3c2.2 10.3 13.2 34.8 14 36 3.9 7.4.4 16.6 3.4 21.8.3.7 6.1-.1 10.6.3 7.4-1.9 7.1-5.7 13.4-6.2 4.3-.4 4.7 9 4.7 9.8-.8 10.4-3.5 22.5-7.6 33.6-8.6 19.4-18.2 36.9-31.9 39.3-16.7 3.4-25.3-5.1-34.4-10.6l-3.5 3.5c-11.7 13.7-25.7 12.5-31.4-5.4-2.8-6.9-6.5-11.2-9.7-17.2l-16.8 14.2c-1.4 3.4-3.1 8.7-5.2 14.6-1.5 4.1-2.7 11.2-2.6 17.1-2.2 4.3 7.5 21.7 13.5 32.3 1.8 3.1 5.1 8.6 5.3 8.9 1.2 3.7 3.8 6.9 4 7.3 11.3 17.2-14.2 13.3-19.5 12.2-10.4-1.9-20.6-7-30.1-13.8-.6-.4-1.1-.8-1.7-1.2-11.4-8.4-21.8-19.1-30.7-29.7-5.3-7-10.3-21.4-14.1-31.6-5.6-24.6-13.6-67.1 8.1-99.4 1.4-1.8 2.9-4.9 4.1-5.5 6.5-5.1 13.5-8.6 21-10.5l-.8-5.7c-3.8 1-16.4 6.4-20 8.7-8.1 2.8-14.9 5.7-25.3 8.7-3.4.5-6.7.5-9.9 0-7.5-1.2-20.2-.1-21-1-5.1-8.3-6.4-23.1-11.1-31l-.1-.1-.1-.1c-2.7-4.2-5.8-7.7-8.9-11.3C20.3 56.4 10.9 44 8.2 30.8c-.7-3.9-2.4-7.9-1.5-19.4v-.2C9.4.4 13.7-8.3 21-17.1c7.6.1 15.2.3 21.1 1.7 2.7.5 8.3 1.4 14.1 3.9 14.7 6.4 34.1 17 34.1 17-14.6-9.4-30.9-21.6-41.2-24-1.5-.3-2.5-1.1-2.9-2.5 15.5-10.7 18.3-23.2 28.5-34.4 4.7-2.4 6.5-3.6 10.4-4.1 36.6 6.8 59.6 23.8 77.8 35.2 7.4 4.7 14.1 8.3 20.5 12.6C189-9.5 206 5.5 211 13.6c5 12.5 8.7 26 12.1 39 2.4 13.2 4.5 18.6 4.5 18.6s-2-11.1-1.7-13.1c2.1.9 7.1 2.8 9.2 2.5 0 0-9.3-5.6-10.5-10.6-3.9-16-7.8-40.8-8.9-42.1-3-4.4-15.4-15.5-23-20.7-2.9-1.9-4.4-3.2-4.6-4 2.4-2.9 5.4-6.7 8.1-9.1 2.6-2.3 4.9-4.9 8.5-6.5 15.8-8.3 24.9 3.2 27 .9 0 0-3.4-4.6-1.9-3.8 1.5 1 6.6 2.1 7.2 2.7 5.8 5.3 20.8 24.6 29.9 45 2.2 5 3.1 8.3 2.1 14.3s-1.8 9.3-2.9 13.3c-1 2.7-6.7 21.1-6.6 23.6-1.1 10.1 3.7 22.7 3.7 22.7 0-3.4-.2-5.3.1-7.7l.3-4.4s-.2-1.2-.2-1.6c.2-3 .9-5.6 1.1-7.3 1.8-13.2 5-22.7 8.6-34.2 1.1-2.9 2.5-4.5 2.4-6.8.1-3.9-3-9.2-5.1-14.4-2.2-5.2-4.8-11-8.3-17.2-7.9-13.2-14.6-23.6-26.8-30.1-3.4-1.8-16.9-3.5-21.6-2.5-5.7 1.4-10.5 2.7-14.4 5.7-6.1 4.6-10.9 11.7-16.5 15.8-12.4-7.3-18.4-12.7-19.6-13.5-7.4-4.6-16.3-10-25.8-15.1-4.5-5.3-32.9-17.3-59-19.7zm159.2 271.8c-7.7-7-14.1-14.2-18.4-21.7-1.4 8.8-6.4 15-10.3 21.1-.8 1.4-1.3 3.4 2.5 9.6 1 1.7 4.8 1.9 7.3 1.8-2.6-2.3-6.5-4.7-7.1-6.7 4.5 3.6 8.7 4.6 12.4 4 .9-.1 1.9-1.2 2.8-2.8 1.7-4.2 3-5.2 4.3-6.4l3.1 4.5 3.4-3.4z" transform="translate(-.533 66.8)"/></svg>