<svg id="svg4155" xmlns="http://www.w3.org/2000/svg" viewBox="-80 119.2 357.1 378.8"><style>.st0{fill:#e25a1c}.st1{fill:#3c3a3e}</style><g id="g4163" transform="matrix(1.25 0 0 -1.25 0 201.85)"><g id="g4165" transform="scale(.1)"><path id="path4167" class="st0" d="M1953.4-867.3c-2.4 10.6-3.5 15.9-4.8 21-35.2 136.6-70.3 273.3-105.8 409.6-3.6 13.7-3.1 21.8 1.8 33.5 56 133.5 111.7 267.6 167.4 401.5 2 4.7 3.7 9.7 4.5 18.1-16.3-8.7-32.6-17.3-48.9-26.1-67.6-36.6-135.3-73.1-202.9-110.2-6.3-3.5-9.2.3-12.3 11-38.4 131-77 261.7-115.6 392.4-2 6.8-4.1 13.4-8.4 19.1-3.1-34.9-6.3-69.8-9.3-104.7-10.7-123.2-21.5-246.5-32.2-369.8-1.2-13.3-2.8-26.5-3.3-40-.5-12.7-3.7-17.4-9.4-21-79.7-51.1-159.3-102.7-239-154.2-3.5-2.3-6.9-5.2-10.7-12.1 65.1-52.9 130.3-105.7 196.4-159.4-2.4-3.9-4-6.9-5.7-9.3-40.7-53.8-81.5-107.4-122.1-161.5-4.9-6.5-8.7-7.4-14.2-2.4-48.6 44.7-97.5 88.6-146.2 133-21.9 19.9-41.6 46.4-56.9 84.7-34.6 86.5-27.8 185 18.4 245.1 15.1 19.7 32.3 34.4 49.4 45.8 78.1 51.9 156.4 102 234.8 152.2 6.6 4.2 9.6 10.2 10.8 24.7 10.4 123.4 21.3 246.6 32.1 369.8 5.8 65.9 8.9 133.4 24.6 193.8 6 23.2 13.3 45.9 21.8 65.4 31.1 70.5 74.5 73.2 107.4 6.1 11.1-22.6 20.6-49.4 28.9-76.8 36.2-120.6 71.8-241.9 107.3-363.4 4.2-14.4 8-17.3 15.7-13 87.3 47.8 174.8 94.9 262.2 142 18 9.7 36.3 13.3 54.8 6.2 40.3-15.4 57.9-78 44.3-157.5-6.2-36.2-16.9-66.8-28.9-95.7-61-146.5-121.9-293.1-183.1-439.2-5-11.9-5.1-20.6-1.6-33.9 36.5-140.5 72.7-281.4 109-422.1 8.7-33.7 15.3-68.6 15.5-107.3.4-88-31.1-160-73.9-172.8-24-7.2-46.3 3.3-68.7 17.4-54.8 34.6-109.6 68.5-164.5 102.3-5.1 3.1-7 7.2-7.9 18.4-6.3 78.9-13.2 157.6-19.9 236.3-.2 2.2.1 4.5.3 9.3 62.4-35.1 124.4-70 188.8-106.3"/><path id="path4169" class="st1" d="M1846.7-2016c-49.4.2-98.8.6-148.2.2-6.5 0-10.2 3.8-13.9 15.2-58.5 181.8-117.2 363.3-175.9 544.9-1.9 5.8-3.9 11.4-7.2 21.1-12.6-196.1-25-387.8-37.4-580h-129.3c1.5 25.7 2.8 50.6 4.4 75.4 12.6 196.9 25.3 393.8 38 590.6 12.1 188.1 24.2 376.2 36.5 564.3.4 5.6 2.2 12.7 4.4 15.7 44.5 59.2 89.2 118 133.8 176.8.7.9 1.6 1 3.9 2.3-13.5-210.3-26.9-419-40.3-627.7.5-.7 1.1-1.5 1.6-2.2 70.1 158.6 140.1 317.1 211.7 479.1 2.1-24.4 3.9-45.3 5.6-66.1 5-59.8 9.8-119.7 15.2-179.3 1.1-12-.5-19.5-4.4-27.9-45.3-96.8-90.4-194-135.6-291-2-4.2-3.9-8.6-6.1-13.7 1.4-4.7 2.7-9.2 4.1-13.4 77.9-223.3 155.8-446.6 233.8-669.8 1.4-4 3.4-7.2 5.2-10.8.1-1.3.1-2.5.1-3.7"/><path id="path4171" class="st1" d="M313.7-1435.5c-2 20.6-3.4 50.8-7.9 79-21.7 136.5-90.2 211.3-161.2 177.5-77.9-37-133.5-162-141.5-324.2-6-120 25.7-235.6 84.5-279 47.4-35 93-20.3 135.4 31.5 56.2 69 86.6 171.1 90.7 315.2zm-341.9-507.2c-3.8-58.7-7.5-114-11.1-169.4-4.7-73.6-9.5-147.2-14-220.8-.5-8.6-1.8-12.4-6.3-12.3-35.5.3-71.1.2-106.6.3-.8 0-1.6.9-3.5 2 2.1 34.7 4.2 69.6 6.5 104.4 7.8 122.1 15.7 244.1 23.6 366.2 9.1 139.5 16.3 279.8 27.9 418.4 20.6 245.5 122.6 457.1 242.3 509.8 69.4 30.6 135.8 16.4 196.4-63.3 60.4-79.5 95.1-194.9 103-340.1 11.2-205.2-25.8-375.6-97.2-516.5-46.9-92.5-103-151.3-167.7-171.2-66.7-20.5-129.3 2.2-185.5 82.4-2.1 3-4.3 5.6-7.8 10.1"/><path id="path4173" class="st1" d="M-86.1-776C-126-836.6-164.4-894.9-203-953.6c-6.2 20-11.8 40-18.3 58.5-16.7 47.8-37.5 83.4-67.8 87.8-25.1 3.6-46.6-13.3-63.8-51.2-15.3-33.8-17.3-82-3-120.2 15.7-42.1 33-82 50.6-121 29.2-64.6 59.7-126.7 88.6-191.6 26.4-59.1 47.4-125.3 53.9-206.1 7.7-96-1.7-187.4-23.9-271.8-41.2-156.1-106-246.7-191.5-275.1-37.8-12.5-75.5-10-112.3 12.2-48.9 29.4-83 94.9-104.9 187.4-7.7 32.7-13.7 67.2-20.7 102.2 42.8 46.8 84.5 92.3 126.7 138.4 1.5-7.2 2.5-13.2 3.9-18.8 7.2-29.4 13.1-60.7 22-87.8 26.4-80.3 69.2-104.7 112.5-65 11.1 10.2 21.9 24.6 31 41.1 27.9 50.6 33.2 121.1 12.5 184.8-11.9 36.6-26.7 69.4-41.2 102.2-34.6 78.4-70.5 154.2-104.3 234-23.3 55-39.1 119.1-44.1 192.8-5.5 80.4 2.4 156.3 22.9 224 51 168.3 125 255.8 222.9 248.6 55.8-4.1 100.3-57.4 134.8-146 10.3-26.1 19.9-53.4 30.4-81.8"/><path id="path4175" class="st1" d="M859.9-1679.5c-6.5-101.4-12.6-197.7-19-294-.3-4.9-2.2-11.5-4.2-13.4-96.4-91.2-223.3-78.4-302.5 105.1-42.5 98.6-60.4 215.7-57.7 345.9 6.2 301.5 128.6 564.6 275 601.4C837-913 912-960.2 970-1095.8c39.5-92.4 57.7-202.8 55-324.6-1.8-80.4-8-160.5-12.9-240.6-6.9-113.4-14.5-226.7-21.9-340-.3-4-.7-8-1.1-13.1H873.8c1.5 26 2.9 51.5 4.6 77 8.4 130.9 17.5 261.6 24.9 392.7 4.6 81.7 1.7 162.7-16.6 238.4-19.5 80.4-52.1 122.9-95 132.2-88.8 19.2-173.3-106.8-192.2-285.2-12.5-117.8 7.2-230.7 53.1-293.1 44.8-60.8 92.7-61 141.5-21.6 24.7 19.9 45.8 51.5 65.8 94.2"/><path id="path4177" class="st1" d="M1345.5-957.4c-5.3-81.6-10.4-162.1-15.8-244.2-24.4 0-48.3.3-72.2-.1-19.4-.3-37-25.8-42.9-62.8-2.3-14.4-3.1-29.9-4.1-45.1-12.1-187.5-24.2-374.9-36.2-562.4-3-47.3-6-94.6-9-142.6h-120c2.2 36.1 4.4 70.9 6.6 105.8 7.8 121.5 15.6 243 23.5 364.4 6.8 105.1 12.9 210.4 21 315.2 10.8 140.4 79.2 265 148.6 271.2 33.1 3.1 66.3.6 100.5.6"/><path id="path4179" class="st1" d="M1988.2-2014.4v103.5h-.3l-19.9-103.5h-6.3l-19.9 103.5h-.3v-103.5h-10v123.9h15.5l18.1-94.1 17.8 94.1h15.3v-123.9h-10zm-88.1 107.3v-107.4h-10v107.4h-19v16.6h48v-16.6h-19"/><path id="path4181" class="st1" d="M74.7-602h29.8l-7 92-22.8-92zm34.4-59.4H59.6l-15.7-62.9H8.8l77.3 295h33.8l26.3-295h-32.5l-4.6 62.9"/><path id="path4183" class="st1" d="M286.3-488.7h-17.6l-5.9-68.1h17.6c10.6 0 19.1 14.3 19.1 41.2 0 17.8-5.4 26.9-13.2 26.9zm-42.7 59.4h46.3c24.2 0 41.2-29.5 41.2-80.2 0-63.8-22.1-106.7-53.6-106.7h-20l-9.4-108.1h-30.2l25.7 295"/><path id="path4185" class="st1" d="M433.6-602h29.8l-7 92-22.8-92zm34.4-59.4h-49.5l-15.7-62.9h-35.1l77.3 295h33.8l26.3-295h-32.5l-4.6 62.9"/><path id="path4187" class="st1" d="M663.8-713.9c-10.2-9.5-21.4-15.2-32.7-15.2-38.2 0-62.3 58.6-62.3 131.9 0 93.7 38.7 172.7 84.6 172.7 11.5 0 21.9-5.6 30.4-15.2l-4.3-70.7c-6.4 14.3-16.6 24.3-29.3 24.3-26.3 0-49.7-48.6-49.7-105 0-42.9 13.2-76.4 34-76.4 12.8 0 25.1 10 33.4 23.9l-4.1-70.3"/><path id="path4189" class="st1" d="M848.2-605.5h-62.9l-10.2-118.9h-30.2l25.5 295h30.2L790.4-546h62.9l10.2 116.7h30.2l-25.5-295H838l10.2 118.8"/><path id="path4191" class="st1" d="M958.9-724.3l25.5 295h80.1l-5.1-59.4h-49.9l-5.1-57.3h45.9l-5.1-59.4h-45.9l-5.1-59.4h49.9l-5.1-59.4-80.1-.1"/></g></g></svg>