<svg id="Layer_1" xmlns="http://www.w3.org/2000/svg" viewBox="0 0 349 354"><style>.st0{fill:#fff}</style><path class="st0" d="M310.5 24.6c14.5-.7 15.2-.3 14.2 12.2-1.5 20.6-3.5 41.2-5.2 61.9-.2 2.9-.4 5.7-3.6 7-3.5 1.5-5.9-.3-8.2-2.7-4.3-4.5-8.9-8.7-13-13.4-3.2-3.7-5.4-3.5-8.7 0-11.8 12.4-24 24.5-36 36.7-54.9 55.7-109.8 111.4-164.7 167-9.5 9.7-9.8 9.7-18.9.4-18.8-19.3-18.6-14.2.1-33.1C130.3 195.7 194.1 131 258.2 66.4c5.2-5.3 6.8-8.6.2-13.6-3.7-2.8-6.6-6.5-9.9-9.9-2.4-2.4-5.3-4.6-4-8.8 1.3-4.4 5-4 8.3-4.3 20.1-1.8 40.1-3.6 57.7-5.2zm-47 16c3.1 3.4 4.9 5.5 6.8 7.5 11 11.3 11 11.3-.1 22.6L74.7 268.9c-1.5 1.6-2.9 3.3-4.6 4.6-3.2 2.6-2.4 4.4.1 7.5 4.4 5.5 7.1 4 11.4-.3 60.9-62 121.9-123.8 182.9-185.7 5.9-6 12.2-11.7 17.6-18 5.8-6.7 10.7-7.5 16.6-.3 2.7 3.2 5.2 6.9 10.4 8.8 1.2-15.3 2.4-30.2 3.7-45.1.2-2.9-1.2-3.8-3.9-3.6-14.5 1.2-28.9 2.4-45.4 3.8z"/><path class="st0" d="M175.3 353.9H12.9C.8 353.9.1 353.2.1 341.3V9.2C.1 4.7-1.4-.2 6.5.1c7.6.2 5.6 5.2 5.6 9.1.1 106.6.1 213.3.1 319.9 0 12.6 0 12.6 12 12.6 105.1 0 210.3 0 315.4.1 3.2 0 8.4-2.9 9.2 4.2.8 7.1-2.3 8.1-8.4 8.1-48.9-.2-97.7-.1-146.6-.1-6.1-.1-12.3-.1-18.5-.1z"/><path class="st0" d="M255.9 282.8c9.6.1 17.3 8.4 17.1 18.2-.2 9.8-8.3 17.6-18 17.2-9.2-.3-16.8-8.4-16.9-17.6 0-9.5 8.4-17.9 17.8-17.8zm-.1 23.7c3.4-.8 5.8-2.6 5.6-6.2-.2-3.6-2.8-5.4-6.2-5.2-3.1.2-4.9 2.2-4.9 5.5 0 3.8 2.2 5.4 5.5 5.9zM296 165.4c-9.4-.2-17.6-9-17.2-18.4.4-9.7 8.7-17.5 18.3-17.1 9.3.4 16.7 8.3 16.7 17.7-.1 9.7-8.4 18-17.8 17.8zm6-17.9c-.6-3.4-2.6-5.8-6-5.6-3.5.2-5.5 2.6-5.2 6.2.2 3.2 2.2 5.1 5.4 5.1 3.4 0 5.4-2.1 5.8-5.7zM110.7 41.9c-.2 9.8-8.5 17.8-18.2 17.4-9.5-.4-16.7-8.1-16.6-17.8.1-10 8-17.6 18-17.2 9.4.2 17 8.2 16.8 17.6zm-17.8-6.1c-2.9.6-5.4 2.3-5.4 5.9 0 3.5 2.1 5.6 5.8 5.6 3.3 0 5.1-1.9 5.3-5.1.2-3.6-1.6-5.8-5.7-6.4zM46.7 165.4c-9.6 0-17.4-8.2-17.2-18.1.1-9.9 8.1-17.7 17.8-17.4 9.2.3 16.9 8.2 17 17.5.1 9.5-8.2 18.1-17.6 18zm5.4-16.3c.2-5-1.8-7.2-5.2-7.2-3.4 0-5.7 2.2-5.8 5.8 0 3.2 1.9 5.1 5 5.4 3.6.3 5.8-1.4 6-4zm41-24.9c-9.6 0-17.4-8.2-17.2-18.1.2-9.9 8.2-17.8 17.8-17.5 9.1.3 16.9 8.4 17 17.6.2 9.6-8.2 18-17.6 18zm0-23.5c-3.4.7-5.8 2.5-5.6 6.1.2 3.6 2.8 5.6 6.2 5.3 2.9-.2 5-2.2 5-5.6 0-3.7-2.2-5.4-5.6-5.8zm69.9 23.7c-.2 9.8-8.4 17.5-18.3 17.2-9.4-.3-16.8-8.2-16.7-17.8.2-9.9 8.4-17.7 18.2-17.3 9.3.4 17 8.6 16.8 17.9zm-23.4 0c1 3.3 2.7 5.9 6.4 5.4 3.6-.4 5.3-3 4.9-6.5-.3-3.1-2.3-4.9-5.6-4.8-3.8.2-5.2 2.6-5.7 5.9zm110.1 29.1c9.3-.1 17.3 7.6 17.6 17 .3 9.9-7.5 18.1-17.3 18.1-9.8.1-17.9-8-17.7-17.8.2-9.3 8.1-17.2 17.4-17.3zm-.3 23.5c3.7-.1 5.9-2.3 6.1-5.6.1-3.4-1.9-5.7-5.6-5.7-3.3 0-5.2 1.9-5.4 5-.4 3.3 1.4 5.7 4.9 6.3zm-138.5 11.7c-9.9.1-17.9-7.9-17.8-17.7.1-9.4 7.9-17.3 17.2-17.5 9.7-.2 17.8 8 17.7 17.8-.1 9.5-7.6 17.2-17.1 17.4zm-.4-11.7c3.6-.4 5.7-2.5 5.7-5.9-.1-3.4-2.2-5.6-5.9-5.5-3.3.1-5 2.2-5.1 5.3-.2 3.5 1.7 5.7 5.3 6.1zm-41 41.3c-9.5-.3-17.5-9-17.1-18.5.4-9.7 9-17.6 18.4-17 9.3.5 16.5 8.5 16.4 18 0 9.8-8.1 17.8-17.7 17.5zm6.3-18c-.7-3.6-3-5.7-6.3-5.4-3.3.3-5.3 2.7-4.9 6.5.4 3.4 2.6 5 5.5 4.9 3.4-.2 5.4-2.4 5.7-6zm75.4-135.2c.1 9.4-7.5 17.5-16.8 17.8-9.7.3-17.8-7.6-17.8-17.5-.1-10 7.9-18.1 17.6-17.9 9.1.1 16.9 8.2 17 17.6zm-17.2 6c3.4-.9 5.6-2.6 5.4-6.4-.2-3.3-2.3-5-5.4-5-3.5 0-5.8 1.9-5.8 5.6 0 3.7 2.6 5.2 5.8 5.8zm162.4 135c.3 9.5-7.9 18-17.4 18.1-9.3.1-17.1-7.4-17.5-16.8-.4-9.9 7-18.2 16.6-18.7 9.4-.4 18 7.8 18.3 17.4zm-12.1.6c.1-3.6-1.8-5.7-5.4-5.7-3.1-.1-5.3 1.7-5.7 4.8-.5 3.6 1.8 6 5.1 6.4 3.4.3 5.7-1.6 6-5.5zm-63.4 11.8c-.2 9.9-8.3 17.6-18.2 17.2-9.4-.3-17-8.3-16.8-17.8.2-9.7 8.6-17.7 18.3-17.3 9.4.5 16.8 8.4 16.7 17.9zm-17.8-5.9c-3.1.1-5.1 2.1-5.1 5.8 0 3.1 1.8 5.3 4.9 5.6 3.6.3 5.9-2.1 6.2-5.4.2-3.4-1.8-5.7-6-6zm81.4 35.1c9.7-.1 17.9 8.3 17.7 18-.2 9.5-8 17.1-17.4 17.2-9.9.1-17.7-7.9-17.5-17.9.1-9.5 7.8-17.3 17.2-17.3zm-.3 23.4c3.6-.1 5.7-2 5.9-5.6.1-3.1-1.4-5.3-4.6-5.7-3.7-.5-6.1 1.6-6.4 4.9-.4 3.4 1.7 5.7 5.1 6.4zm-63.3 12.3c-.2 9.6-8.7 17.8-18.1 17.4-9.1-.4-16.9-8.5-16.9-17.7 0-9.7 8-17.7 17.7-17.6 9.7 0 17.5 8 17.3 17.9zm-11.6-.4c-.6-2.9-1.9-5.6-5.5-5.8-3.6-.2-5.6 2-5.7 5.6-.1 3.1 1.5 5.3 4.7 5.6 3.6.4 5.6-1.6 6.5-5.4zM64.3 24.7c-.4 9.8-8.8 17.5-18.6 16.9-9.4-.5-16.5-8.5-16.2-18.2.3-9.9 8.8-17.8 18.4-17.1 9.2.7 16.8 9.1 16.4 18.4zm-12-.9c-.2-2.9-1.7-5.2-5.5-5.3-3.2 0-5.3 1.8-5.7 4.8-.4 3.6 1.7 6 5.1 6.4 3.5.5 5.6-1.6 6.1-5.9zm-5.1 53.3c9.4.2 17 8.1 17.1 17.5 0 9.6-8.5 18.1-18 17.8-9.4-.3-16.8-8.2-16.8-17.8 0-10 7.8-17.7 17.7-17.5zm5.1 17.5c-.3-3.7-2.3-5.9-5.8-5.6-3.4.2-5.6 2.7-5.4 6.2.2 3 2.2 5 5.4 5 3.7 0 5.6-2 5.8-5.6zm122.2 176.9c-.2 9.9-8.3 17.6-18.2 17.2-9.4-.4-17-8.4-16.8-17.8.2-9.8 8.4-17.5 18.3-17.2 9.4.4 16.8 8.2 16.7 17.8zm-11.7-.1c-.6-3.2-2-5.7-5.7-5.8-3.3-.1-5.2 1.9-5.5 4.9-.4 3.4 1.2 6 4.9 6.4 3.7.3 5.4-2.2 6.3-5.5zm5.7-224c-9.9-.1-17.6-8-17.3-18.1.3-9.6 8-17.1 17.5-17 9.9.1 17.4 8 17.2 18.2-.3 9.6-7.8 17-17.4 16.9zm5.9-17.6c-.6-3.6-2.5-5.6-6.2-5.4-3.2.2-5 2.1-5.1 5.3-.1 3.7 1.9 5.9 5.5 5.9s5.4-2.3 5.8-5.8zm40.2 11.8c9.3-.3 17.3 7.3 17.7 16.8.4 10-7.1 18.4-16.8 18.7-9.2.3-17.3-7.4-17.8-16.9-.5-9.8 7.2-18.3 16.9-18.6zm6.2 17.2c-.7-3.5-3-5.5-6.3-5.1-3.3.4-5.4 2.7-4.8 6.5.5 3.3 2.8 4.9 5.7 4.7 3.2-.1 5.3-2.3 5.4-6.1zm-46.6 47.6c-9.9-.1-17.3-8.1-17-18.3.3-9.7 7.8-16.9 17.5-16.8 10 .1 17.4 8 17 18.2-.4 9.6-8 17-17.5 16.9zm5.9-17.7c-.4-3.5-2.3-5.7-5.9-5.6-3.5.2-5.5 2.5-5.3 6.1.2 3.2 2.1 5 5.3 5.1 3.7.1 5.5-1.9 5.9-5.6z"/></svg>