<svg id="Layer_1" xmlns="http://www.w3.org/2000/svg" viewBox="0 0 344 328"><style>.st0{fill:#fff}</style><path class="st0" d="M66.3 129.2c3.5.1 4.7 2.9 6.2 4.9 6.3 8.4 13.5 14.2 24.4 10.8 1.8-.6 3.9-.5 5.7 0 12.1 3.2 21.6-.5 28.7-11.5 2.6-4 5.8-3.5 9.1-1.5 3.9 2.3 7.8 4.6 11.6 7.1 15 9.5 15 9.5 10.8 27.9-1.2 5.3-1.3 9.9 2.7 14.1 1.6 1.6 3 3.8 3.5 6 3.5 14.5 13 20.6 25.9 22 4.2.5 5.2 3.4 5.4 7 .2 4.1.3 8.2.3 12.3.1 20.1.1 20.3-17.4 25.9-5.6 1.8-9.6 4.6-11.2 10.9-.6 2.3-1.5 4.7-2.9 6.4-8.7 10.4-10.8 21.6-4.9 34.4 1.7 3.8-.1 6.4-3.3 8.3-3.3 2-6.5 4.3-9.8 6.4-16.5 10.3-16.5 10.2-30.3-3.1-1.9-1.8-3.4-4.3-6.3-4-10.2 1.1-20.3.6-30.5-.2-5.8-.4-9.2 5.9-12.4 10.1-4.7 6.2-9.1 6.1-14.7 2.2-1.8-1.3-3.8-2.4-5.8-3.6-17.2-10.6-17.3-10.6-13.3-31.3.8-4.2.7-7.8-2.1-11.4-2.4-3.1-5.1-6.6-5.9-10.3-2.8-12.8-11.5-17-22-18.2-6.4-.7-7.9-4.4-7.9-10.2 0-2.4-.1-4.8-.2-7.2-.2-22.5-.3-22.7 19.5-29.4 4.4-1.5 7.2-3.7 8.5-8.4.6-2.3 1.5-4.7 2.8-6.4 8.7-10.9 11.9-22.6 5.6-36.2-.6-1.3-.7-4.1.1-4.7 9.3-8.5 19.8-14 30.1-19.1zm100.6 100c.1-39.8-29.4-71.6-66.4-71.8-37.6-.1-67.6 31.9-67.4 71.9.2 39.4 30.3 71.6 67 71.5 36.9 0 66.7-32 66.8-71.6z"/><path class="st0" d="M310 21.5c-.1.3 0 .7-.2 1-10.7 17.9 2.1 31.1 7.8 45.7 3.2 8.4 11.1 7.5 17 8.7 7.4 1.5 9.5 5.3 9.2 12.4-.1 2.4.1 4.8.1 7.2.1 21.3.2 21.5-18.3 27.3-5 1.6-8.5 3.9-10 9.5-.6 2.3-1.4 4.8-2.8 6.4-9.1 10.6-11.2 22.2-5.3 35.3 1.5 3.3.3 5.8-2.7 7.6-3.8 2.4-7.5 5.1-11.3 7.5-15.6 9.6-15.7 9.6-28.8-3.4l-2.1-2.1c-4.9-4-38.5-1.9-43.1 2.7-11.7 11.7-11.7 11.7-25.8 3-.5-.3-1.1-.7-1.6-1-15.3-9.7-15.4-9.7-11.1-27.8 1.2-5.2 1.7-10-2.4-14.2-1.3-1.4-2.6-3.2-3.1-5.1-4.2-14.3-12.7-22.8-27.1-23.4-3.9-.2-4.4-3.4-4.7-6.4-.3-3.7-.4-7.5-.4-11.2-.2-21.6-.2-21.7 18.6-27.9 4.5-1.5 8.1-3.4 9.3-8.8.4-1.9 1.3-4 2.4-5.5 8.5-11.2 12.8-23.1 5.9-37.1-1.7-3.5.4-5.8 3-7.5 4.1-2.7 8.1-5.4 12.2-8 14.8-9 14.9-9.1 27.1 3.5 3.4 3.6 6.7 5.4 11.7 4.6 5.3-.9 11.1-1.5 16.1-.1 10.3 2.8 17.2-1.6 22.8-9.7 4.1-5.9 8.5-5.9 13.9-2.2 6.4 4.4 13 8.4 19.5 12.8 2.2 1.4 4.7 2.8 4.2 6.2zm-66.5 148.7c37.2.1 66.8-31 67.4-70.9.5-39.5-30-72.6-67.1-72.5-36.9.1-66.6 32-66.7 71.7-.1 39.9 29.2 71.6 66.4 71.7zM99.3 291.4c-32.3-.7-57.6-28.8-57.2-63.4.5-34.1 27.4-62.2 59.1-61.8 32.8.5 58.3 29.5 57.5 65.3-.7 33.7-27.3 60.5-59.4 59.9zm34.5-62.6c-.1-19.6-15.4-35.8-33.6-35.6-18.3.3-33.3 16.8-33 36.3.3 19.2 15.2 34.8 33.2 34.8 18.5.2 33.5-15.8 33.4-35.5z"/><path class="st0" d="M244 36.3c32.1-.2 58.1 27.6 58.1 62.3 0 34.4-26.2 62.8-57.9 62.9-31.9.1-58.5-28.1-58.8-62.1-.2-34.9 25.8-63 58.6-63.1zm-.4 27c-18.5 0-33.4 15.8-33.3 35.5.1 19.4 15.2 35.5 33.5 35.6 18.1.1 33.3-16.2 33.3-35.8-.1-19.6-15-35.3-33.5-35.3z"/></svg>