<svg id="Layer_1" xmlns="http://www.w3.org/2000/svg" viewBox="0 0 358.4 376.3"><style>.st0{fill:#fff}</style><path class="st0" d="M37.5 233.5c4.9 2.4 7.4-.9 10-5 7-11.4 14-22.8 21.4-33.8 3.2-4.7 3.6-8.2.1-13-5-6.8-9.4-14.1-13.7-21.5-6.1-10.3-11.3-19.5-26.1-19-12.6.4-21-10.3-23.8-23.4-2.8-13 .4-24.7 10.8-33C26.7 76.3 38.6 74.5 50 82c6.2 4 10.5 3.7 16.6.4 25.9-14.1 52.2-27.7 78.4-41.3 4.7-2.4 7.8-4.5 8.2-11.3.9-17.5 13.8-29.6 30-29.8 16.7-.2 29.7 11.9 30.8 30.2.4 6.2 3 8.2 7.4 10.5 27.3 14.1 54.4 28.4 81.5 42.9 4.6 2.5 7.8 2.5 12.5-.6 12.6-8.4 26.3-6.9 36.8 2.8 9.5 8.7 13 23.6 8.5 36-4.7 13-16.3 22-30.1 20.7-6.7-.7-9.1 2.3-11.8 6.9-7.7 13.2-22.8 25.4-22.2 39.2.6 13.1 14.3 25.4 21.9 38.2 3.2 5.4 6.4 7.4 13 7 13.4-.9 25.4 8.8 29.7 21.7 3.9 12.1.3 26.5-8.7 34.9-10.1 9.4-24.2 11.6-35.8 3.7-5.9-4.1-9.9-3.4-15.6-.3-26 14-52.2 27.6-78.4 41.2-5 2.6-8.4 4.9-8.7 12.3-.8 17.1-14.4 29.2-30.5 29.1-16.2-.1-29.2-12.1-30.2-29.5-.4-6.6-3.2-9-8-11.5-26.9-13.9-53.7-28-80.5-42.3-4.4-2.3-7.5-3.5-12.5-.1-12.9 8.8-26.1 7.5-36.8-2-9.6-8.5-13.4-23.4-9.2-35.8 4.3-13.4 16.4-21.8 31.2-21.7zm205.7-2.3c-11.3-6-22.1-11.6-32.7-17.5-3.7-2-6.1-1.2-9.4 1.1-11.5 8-23.5 8-35.1.1-3.3-2.2-5.7-3.3-9.4-1.2-10.6 5.9-21.4 11.5-32.8 17.5 16.3 25.8 32.1 51 48.2 76.1 4.3 6.6 18.6 6.7 22.9.1 16.2-25.1 32-50.4 48.3-76.2zM183.1 65.5c-7.1-4.4-9.9 1.6-13.2 6.9-9 14.4-18.3 28.5-27.1 43-6 9.9-19.1 20.7-16.2 29.2 2.7 8.1 18.6 11.2 28.3 17 4.8 2.9 8.2 2 12.5-1.1 8.7-6.1 19.1-7.9 27.7-2.1 9.6 6.5 16.9 4.1 25.2-1.2 5-3.2 10.2-6.1 15.6-8.2 6.5-2.5 6.9-5.3 3-11.3-14.3-21.9-28.3-44.1-42.1-66.3-3.3-5.1-6.6-8.7-13.7-5.9zm31.5-2.6c9 14.1 17.5 27.9 26.4 41.3 6.9 10.3 11.2 27.3 21.2 29.1 9.7 1.7 21.5-9.3 32.3-14.8 3.4-1.7 6.8-3.1 6.7-8.7-.1-5.8-4.2-6.3-7.4-8-23.3-12.4-46.7-24.7-70-36.8-2.7-1.4-5.2-4.2-9.2-2.1zm-.1 250.7c1.3.2 2.6 1 3.5.5 26.5-13.8 53.2-27.3 79.4-41.8 6.5-3.6 5.9-9.8-1.5-13.6-9.1-4.7-18.4-9-27.1-14.5-6.4-4-9.2-2.1-12.8 3.8-13.5 22-27.5 43.6-41.5 65.6zM151.6 64c-.8-.7-1.5-1.5-2.3-2.2-25.7 13.4-51.4 26.9-77.1 40.4-2.9 1.6-6.3 2.6-6.2 7.6.1 4.7 2.2 6.5 5.7 8 2.1.9 4.1 2.2 6.2 3.3 9.1 4.6 19 13.9 27 12.4 9.1-1.8 12.6-16.3 18.5-25.2 9.7-14.5 18.9-29.5 28.2-44.3zm-2.2 250.6c.7-.8 1.5-1.6 2.2-2.4-14.4-22.7-28.8-45.4-43.1-68.1-2-3.1-4.1-3-6.9-1.5-10.4 5.6-21 10.8-31.1 16.7-6.9 4-7.2 9.7 0 13.6 26.2 14.1 52.6 27.8 78.9 41.7zM114.2 163c-1.2.9-2.4 1.7-3.4 2.8-13 12.8-14.2 22.8-4.4 38.2 1.3 2 2.8 3.9 3.9 6.1 1.7 3.3 3.8 3.3 6.7 1.7 10.7-5.8 21.5-11.3 32.3-17 5.1-2.7 5.3-9.1 2.3-11-11.8-7.7-24.5-13.9-37.4-20.8zm137.2.9c-11.4 6.1-23.8 12-35.4 19.4-4 2.6-3.3 8.8 2.2 11.7 10.4 5.5 20.9 10.8 31.3 16.4 2.6 1.4 4.3 2.2 7-.6 12.8-13.1 14-22.9 4.3-38.3-1.3-2-2.8-4-4-6.1-1.1-1.9-2.3-3.3-5.4-2.5zM183.1 20.4c-6.6.9-10.8 4.9-10.8 12-.1 7.2 4.4 11.7 11 11.8 7.2.1 12-4.7 11.6-12.4-.4-6.9-4.7-11-11.8-11.4zm-136.2 90c-1-6.4-3.8-11.5-10.9-11.8-6.8-.3-11.4 3.3-11.9 10.6-.5 7.8 3.4 12.4 10.9 12.7 7.2.3 10.5-4.5 11.9-11.5zm285.6-11.9c-7.3.2-11.7 4.2-11.9 11.1-.2 7.5 3.9 12.4 11.5 12.2 6.9-.1 10.8-4.5 10.9-11.6.1-7.2-4.2-10.9-10.5-11.7zM184.1 355.9c6.6-1 10.8-5 10.8-12.1s-4.5-11.7-11.1-11.7c-7.2 0-11.9 4.8-11.5 12.5.4 7 4.8 11 11.8 11.3zm11.1-168.3c-1.4-6.8-5-11.5-11.8-11.4-6.7.2-11.1 4.7-11.1 11.8.1 7.7 4.8 12.4 12.1 12 6.6-.4 10.1-5.3 10.8-12.4zM35 277.8c7.7-.4 11.7-5 11.6-11.7-.1-7.4-4.5-12.2-12.1-11.6-6.9.5-10.6 5-10.3 12.2.2 7.3 4.7 10.7 10.8 11.1zm308.2-11.6c-.7-7-3.9-11.6-10.9-11.8-7.6-.2-11.8 4.6-11.7 12.1.1 6.9 4.4 11.4 11.3 11.2 6.9-.1 10.5-4.4 11.3-11.5zM67.6 138.8l-1.5 1.5c5.9 9.3 11.8 18.6 17.9 28.1 12.8-14.4 12.8-14.4-2-22.1l-14.4-7.5zm235.3-1.5c-7.5 3.8-12.2 6.1-16.9 8.5-14.6 7.6-14.6 7.7-5 21.1.4.6 1.3.7 2.4 1.1 5.9-9.2 11.8-18.5 19.5-30.7zM66.2 236.1c.5.5.9 1 1.4 1.5 7.9-4.1 15.7-8.2 23.6-12.3 1.8-.9 3.8-2 2.4-4.4-2.4-4.1-4.7-8.7-8.1-11.8-2.4-2.2-3.5 2.1-4.6 3.7-5.1 7.6-9.9 15.5-14.7 23.3zm216.4-29.2c-3.1 4.8-5.2 8.1-7.5 11.3-2.3 3.2-2.7 5.4 1.5 7.4 7.9 3.8 15.6 8 23.3 12.1.4-.5.8-1.1 1.2-1.6-5.9-9.3-11.8-18.6-18.5-29.2z"/></svg>