<svg id="Layer_1" xmlns="http://www.w3.org/2000/svg" viewBox="0 0 211.3 211.3"><style>.st0{fill:#e63a34}.st1{fill:#fff;stroke:#fff;stroke-miterlimit:10}</style><path class="st0" d="M180.6 211.3h-150C13.7 211.3 0 197.5 0 180.6v-150C0 13.7 13.7 0 30.6 0h150c16.9 0 30.6 13.7 30.6 30.6v150c.1 16.9-13.7 30.7-30.6 30.7z"/><path class="st1" d="M46.9 82.2v33.6c0 7.3.8 11.8 2.4 13.5 2.2 2.5 5.6 3.7 10 3.7h4.5v3.1H13.2V133h4.4c5 0 8.6-1.6 10.7-4.8 1.2-1.8 1.7-5.9 1.7-12.5V41.2c0-7.3-.8-11.8-2.4-13.5C25.3 25.2 22 24 17.5 24h-4.4v-3.1h43.4c10.6 0 18.9 1.1 25 3.2 6.1 2.1 11.3 5.7 15.4 10.8 4.2 5 6.3 11 6.3 17.9 0 9.4-3.2 17.1-9.6 23-6.4 5.9-15.4 8.8-27 8.8-2.9 0-5.9-.2-9.2-.6-3.2-.5-6.7-1-10.5-1.8zm0-4.9c3.1.6 5.8 1 8.2 1.3 2.4.3 4.4.4 6.1.4 6 0 11.3-2.3 15.7-6.8 4.4-4.6 6.6-10.5 6.6-17.7 0-5-1-9.6-3.1-13.9-2.1-4.3-5.1-7.5-8.9-9.6-3.8-2.1-8.2-3.2-13.1-3.2-3 0-6.8.5-11.4 1.6v47.9zm149.9 2.5l1.3 27h-3.3c-.6-4.8-1.5-8.2-2.6-10.2-1.8-3.3-4.2-5.7-7.2-7.3-3-1.6-6.9-2.3-11.8-2.3h-16.7v88.1c0 7.1.8 11.5 2.4 13.3 2.2 2.4 5.6 3.6 10.2 3.6h4.1v3.1H123V192h4.2c5 0 8.5-1.5 10.6-4.4 1.3-1.8 1.9-6 1.9-12.4V87.1h-14.2c-5.5 0-9.5.4-11.8 1.2-3 1.1-5.6 3.1-7.8 6.2s-3.4 7.2-3.8 12.4h-3.3l1.4-27h96.6z"/></svg>