<svg id="Layer_1" xmlns="http://www.w3.org/2000/svg" viewBox="0 0 351.6 366.7"><style>.st0{fill:#fff}</style><path class="st0" d="M345.6 113c-1.6-13.9-4.2-27.4-7.9-37-.5-1.2-1.1-2.4-2-3.5-1.9-2.5-4.5-4.9-7.4-6.1-2.9-1.4-6.1-1.7-8.5.1-.7.5-1.3 1.1-1.8 1.8-1.6 2.2-2.9 5-4.3 7.7-1.5 3-3 6.1-4.8 8.3-2.1 2.4-4.7 4-7.2 5.3-1.1-3.5-2.3-6.9-3.7-10-1.7-3.7-3.6-7.2-5.8-10.7-1.6-2.5-3.3-4.9-5.2-6.9-1.9-1.9-3.7-3.6-5.9-5.4-5.9-5-10.8-11.1-15.9-17.2-2.4-2.8-4.6-5.6-7-8.2-11.9-13.8-23.1-20.4-35.2-21.5-12-1.1-24.6 3.5-39.6 12.1-7.3 4.2-12.5 9.1-17.2 15-4.4 5.7-8.2 12.2-12.3 19.9-2.5.2-4.6.8-6.8 1.9-2.5 1.4-4.8 3.5-7.7 7-2.1 2.4-4 5-6 7.6-1.8 2.3-3.5 4.8-5.2 7.3-13.6 3-24.7 6.3-34.6 11.7-10.2 5.4-19.1 12.9-28.2 24.1-3.6 4.4-7 9.3-9.8 14.6-2.8 5-5.2 10.4-7.3 15.9-1.9 2.8-3.7 5.6-5.7 8.2-2 2.4-4 4.5-6.4 5.6-1.4.7-1.9 1.2-2 1.1s-.1-.3-.2-.9c3.3-4.4 3.8-10.9 4.1-17.2.4.7.8 1.5 1.2 2.3.4 1 .9 1.9 1.5 2.8l2.3 4 .8-5c.7-4.1 1.2-9.6.4-14.4-.5-3.1-1.6-5.8-3.3-7.8.2-.6.3-1.2.5-1.7.6-2 1.2-4.1 1.7-6l1-3.9-2.9.7c-3.9 1-12.3 7.3-18.1 15.6-2.2 3.1-4 6.6-5.3 10.2-1.3 3.8-1.9 7.7-1.4 11.7.4 3.5 1.7 6.8 3.9 10 .4 2.3.8 4.3 1.2 6.1.5 2 1 3.9 1.6 5.7 1.7 5 4.4 7.9 7.5 9.3 2.5 1.2 5.3 1.2 8.1.4-.6 4.6-.9 9.1-1 13.7-.2 6.4 0 13.5.5 21.7.1 1.8.3 3.8.5 5.9.2 1.8.4 3.7.7 5.4-.5 1.9-1.1 3.9-1.6 5.8l-2.4 9-5.3 7.2c-1.7 2.2-3.3 4.5-4.9 6.7-.1.2-.7.9-1.2 1.6-3.3 4.5-4 5.3-3 13.1.6 5 1.8 9.8 3.5 14.3 1.7 4.3 3.8 8.4 6.7 12.3 3.5 4.9 9.3 10.9 15.3 14.1 3.4 1.8 7 2.7 10.3 1.9-.2.7-.3 1.5-.5 2.1-.5 2-1.1 4-1.8 5.9-4.1 12.3.1 18.8 6.7 22.9 3.2 2 7.2 3.4 10.8 4.8.8.3 1.5.5 2.5.9 4.3 1.6 11.7 4.6 18.4 5.1 7.4.7 14-1.5 15.8-10.6.7-3.6 1.1-6.4 1.3-9.1.2-2.5.1-5-.1-8.2 2.1-6.4 2.9-8.3 4.5-11.3l.8-1.6c1.7-3.4 2.5-5.7 2.6-8.4.3-2.6 0-5.1-.3-9.1 0-.4-.1-1-.2-1.7 4.2.8 8.5 1.2 12.7 1.2 2.2 0 4.3-.1 6.5-.2-.6.4-1.1.8-1.7 1.2l-.9.8c-5.7 4-5.9 11.7-4.1 19.5 1.6 7.1 4.9 14.3 7 18.7 4.3 9.2 8.5 17.1 13.5 21.4 5.3 4.5 11.3 5 19.1-.8 3.9-2.9 5.2-5.9 6.9-10 .5-1.3 1.1-2.6 1.7-3.9 1.7-1.5 5.7-6.1 9.7-10.7 1.4-1.6 2.7-3.1 4.2-4.9 1.1 1.1 2.4 1.8 3.9 2.3 2 .7 4.4 1 7.3 1.3 2.2.2 9.1.2 13.6.2h3.2c4.6 0 8.4-.3 11.3-2.5 3-2.3 4.8-6.5 5.2-14.1.2-3.3.2-5.4-.1-7.5-.3-1.9-.9-3.8-2-6.4-.1-3.2-.1-6.5-.2-9.7-.1-3.4-.1-6.9-.2-10.3-.1-4.1-.4-7.4-1-10.6-.6-3.2-1.5-6.3-2.5-10-.7-2.3-1.4-4.7-2-7.1l-1.7.8.3-.1 1.4-.7c-1-3.6-2-7.2-3.2-10.9.1-.7.2-1.6.3-2.3l2.5 3.5 3.8 5c2.9 3.9 5.6 7.4 8.7 9.9 3.2 2.6 6.9 4.2 11.6 3.9 4.9-.3 10.2-3.2 14.6-7.6 4.2-4.3 7.5-10.1 9-16.4l1.2-5.5 1-4.5c7 1.7 14.3 2.1 21.6 1.1 7-1 13.6-3.4 19.4-7.7 8.5-6.2 14.8-15.4 19.4-26.3 5.1-12.2 7.9-26.6 9-41.4.5-12 0-28.1-1.8-43.7zM256 212.7c-4-1.8-6.8-4.6-10.3-7.6 1 5.9 1.4 12.2.1 18.2-2.1 9.4-5.3 24.8 4 27.6 3.5 1.1 5.1 1 10.1-2.6-4 1.3-6.1 1-8.8.2-2.5-.7-3.8-2.8-4.5-5.4.9.9 2.3 1.4 4.7 2.1 6.9 2.2 13.4-2.2 14.7-8.8.8-3.8.6-5.8 2.2-11.1 1.4.6 2.8 1.2 4.4 1.7l-2.5 11.5c-2.2 9.9-10.8 17.9-18.3 17.8-7-.2-11.5-6.2-16.3-12.1-3.3-4.1-6.6-8-9.7-11.8-8.7-3.8-15.7-8.3-23.8-16.5 5.8 9.3 9.7 14.5 17.7 19.1-1.2 16.4-5.3 28.4-8.8 44.2-1.6 7.1-14.2 35.6-17.7 38.4-2.5 1.9-18.1 20.1-21.1 22.5-2.2 4-4.1 9.5-7.4 11.9-10 7.3-16.5-6.7-21.9-18.5-2.5-5.3-9.3-20.9-3.3-25.2 5.6-4.1 8.7-7 14.5-12.2.9 2.1 2.3 4.2 3.2 6.3l-.6-7c-.4-4.2-.4-7.6-.1-11.8.2-4.1.5-8.2.7-12.2-.9 4.2-2.5 8.3-3.4 12.4-.4 1.7-.6 3-.8 4.3-12.8 3.6-25.7 3.9-38.5.7-.8-6.6-1.9-13.4-2.6-18.4-.3 5.5-.1 20.7-.1 29.2 0 6.6-.2 8.8-2.6 14.5-2.4 5.2-3.3 6.4-6.5 15.3.3 5.6.3 9.3-.8 14.7-1.8 8.8-19.9 1.9-24.7.2-5.9-2.2-18-5.5-15-16.3 2.6-9.5 4.4-19.5 5.7-32.8C57 273.3 47 244 45 218c-1.5-20.2-.6-32.6 2.5-45 5-19.5 12.1-36.5 23.3-50.1 15.2-18.4 29.4-25.7 51.6-30.4-5.4 8.3-10.6 17-16.4 26.3-5.9 9.5-9.3 19-13 29.4-5.1 14.3-5 19.7 1.8 32.3 5.9 10.9 9 15.7 11.6 26.3-2.2 6-2.8 11.1-3.6 19.2 7.2 10.8 12.4 18.2 19.4 20.5 6.9 2.2 12.5 1.8 18.6-2.5 13.5-9.5 26.1-21.8 41.4-22.4 7.1-24 6.4-44 2.9-67.2-2.4-15.8-3.2-30.9-3.9-47-2.8 16.6-3.4 31.3-1.3 47.9 2.5 20 4.5 42-2.5 59.6-13.8 1.5-25.7 13-38.1 21.9-5 3.6-10.2 3.9-15.8 1.8-5.1-1.9-8.6-6.6-14.1-15.4-.1-8.8 1.4-12.9 4.3-21 4.7-12.9 10-24.9 15.7-37.5-7.1 11.7-13.6 21.5-19.2 33.2-2.2-8.3-5.1-12.5-10.1-21.8-4.9-9.1-5.4-13.1-1.8-23.7 3.6-10.6 6.8-19.9 13-29.2 10.8-16.1 20.7-34 32.5-49.9 6.4-8.6 9-8.3 17.5-10.1 7.6-1.7 15.2-3.6 23-6.1-7.5 1-14.9 1.4-22.3 1.6h-.2c7.3-12.8 11.5-19.9 23.3-27 29-17.4 47.5-19.3 70.4 7.2 5.9 6.9 11.1 13.5 17.1 19.4-2.2.3-4 .8-6.6 2.1 3-.8 6.5 0 9.6.8.9.8 1.8 1.6 2.7 2.3 4.2 3.4 6.7 5.3 9.5 10.9 3 5.8 5.6 11.7 7.7 18.1-1.5-.7-2.6-1.4-3.7-1.7-2.5-1.6-5.3-1.4-7.6.7l-.2.1c-2.4 1.6-6 3.4-8.4 3.9 1.3.6 4 .8 5.3.1.2-.1.4-.2.5-.2-.6 1.4-1 3-1.1 4.6-.2 2.1.2 4.3.9 6.2.2.7.5 1.4.9 1.8-1.1.6-2.3 1.2-3.4 1.9 5.4-1.2 10.3-1.4 15.6-.4.4 2.3.7 4.8 1 7.2l-2 .2h-.2c-2.5-2.7-5.3-2.3-9.1-1.1-11.6 3.6-8.8 12.6-14.2 26.1 5.5-9.3 5.1-19 14.1-22 2.1-.7 3.5-1.6 4.9-1.3-2.5 1.7-4.8 4.8-5.7 8.2-2.5 9.6-1 17.8-3.6 26.7 3.3-8.1 3.5-15.9 6.6-24.4 1.1-3 5.1-7.9 7.5-8l2.1-.1c.6 5.3 1 10.7.7 15-.4 8.1-2 20-2.8 24.6 3-5.4 4.4-16.9 5.8-25 1.4-8.3 1.1-18.4-.2-27.5-1.7-12.3 7.5-10.4 12.9-16.2 3.9-4.3 6.7-11.2 10.3-16s9.2 2.2 10.7 7c6.1 20.4 8.9 52.5 7.3 73-1.8 23.1-9.9 48.3-24.6 59.6-19 14.7-41.1 5.9-59.8-2.8zm-26.8 102.5c-.6 9.5-2.9 10.2-9 10-2.7-.1-13.7-.1-16.5-.5-3.9-.5-6.2-1-7.4-2.2 6.2-6.2 16.7-32 18.7-41 2.2-9.4 4.5-17.6 6.3-26.3.8 3.6 1.5 7.2 2.6 11.1 2 6.4 2.9 10.4 3 17.3l.5 21.8c1.9 4.3 2.1 5.1 1.8 9.8zM43.4 243.1c3.9 18.7 10.6 37.1 18 52.5v.3c-.5 2.6-1 5.2-2.2 7.3-5.3 9.8-18.7-4.6-22.6-10.1-4.2-6-7.2-13.1-7.7-19.8-.5-4.9 0-5 2.5-8.4l9.9-13.9 2.1-7.9zm-7.5-117.7c-1 3-1.8 5.2-2.2 7.6-2.2 10.1 1 19-5.7 26.3 3.1 8.6 2.9 12.1 10.2 8.2 2.7-1.6 5.1-3.7 7.2-6.3-1 3.6-1.9 7.2-2.7 10.8-.1.6-.3 1.3-.4 1.8-5.2 3-12 5-14.6-2.5-1.3-3.7-2-7.2-2.9-11.8-8.6-12.3 4.2-28.4 11.1-34.1zm4.1 12.9c-1.1-1.5-1.9-2.4-3.2-2.2.1-1.3.3-2.4.5-3.5.1-.6.2-1.2.4-1.7 1.8 1.4 2.1 3.9 2.3 7.4zm255.6-45.5c.3 1 .7 1.8 1 2.8-.3.3-.5.6-.7.8-.4-1.4-1-2.6-1.8-3.6.5.1 1 0 1.5 0zM49.5 148.1zm65.6 147.4zm76.8 31.6zm31.2-81.8zM36.8 162.7l-.1-.2.1.2zm299.6 34zM6.7 159.8c1.4-21.2 4.3-30.3 15.3-46.3-13.7 13.3-17.1 19.4-15.3 46.3"/><path class="st0" d="M3.2 142.5c1.5-9.5 2.9-13.1 7.2-21-7 6.7-7.9 9.4-7.2 21M163.7 9.6c-8.2 2.7-9.8 4.9-12.3 15.9 4-8.2 6.3-10.8 12.3-15.9"/><path class="st0" d="M176.7 8c-16.3 5.5-21.1 9.4-26.5 35.4 6.9-19.1 12.1-26.1 26.5-35.4m35 94.8c1.8-10.6 4.8-20.8 16.8-28.7-16 5.4-18.9 14.6-16.8 28.7m100.5.6c9.3-4.6 13.9-15 16.1-27.2-3.6 10.2-9.3 18.8-17 24.1-4.1 2.8-6.8 1.8-11.4 1.3 4.8 1.8 7.7 4.2 12.3 1.8m-63.8 10.4c-1.2-3.5-3.3-6.1-6-7.5 2.3-1.7 4.5-3.5 6.3-5.6-5.2 3.3-11.2 2.5-15.6 6.6-3.9 3.6-9.3 15.1-13.2 20 2.8-1.6 5.6-4.2 8.1-7 0 5.4 2.3 10.4 5.7 12.8-1.5 2.6-2.6 5.5-3.4 8.7 7.5-12.3 18.4-21.7 28.7-25.6-2.8-.1-6.3.7-9.7 2.2 0-1.5-.3-3.1-.9-4.6m-10.8 93.1l-1.3 10.4c1-3.6 2.2-7.8 3.3-11.3 1.2-3.7 1.9-4 4.4-5.9 1.9-1.4 5.1-3.2 7-4.6-1.9.4-5.2 1.4-7.1 1.8-4.9 1.2-5.5 2.8-6.3 9.6M152.4 83.7c-5.8 7.9-11.5 35-13.2 45.8 2.8-9 9.9-34.2 15.4-40.6 1.5-1.7 2.5-2.8 3.7-3.7-3.9 9-3.6 11.3-2.3 23.3 1.2-12.2 4.2-17 9.3-26.1 5.5-1.9 10.7-4.2 16.4-7.3-6.4 1-12.7 1.9-19.2 2.7-5.5.9-6.4.8-10.1 5.9"/></svg>