<svg id="Layer_1" xmlns="http://www.w3.org/2000/svg" viewBox="0 0 359.5 378.9"><style>.st0{fill:#fff}</style><path class="st0" d="M141.5 266.1c0-12.1.2-24.2-.1-36.3-.2-6.9 1.4-9.5 6.5-9.4 17.3.4 34.5 0 51.8.3 8.9.1 14.7 7.5 15 20.2.5 21.3.1 42.6.3 63.8.1 11.3-5.9 6.5-9.6 7.2-3.8.6-7.8 1.5-7.6-7.5.4-17.5.3-35.1.3-52.6 0-3.7-.1-7.6-.6-11.2-.7-5-3-8.2-6.9-8.1-4.7.2-3.6 5.5-3.7 9.3-.1 20-.4 40.1.2 60.1.3 10.3-3.5 10.2-8.7 10.2-5.2 0-9.1.3-8.8-10.1.6-18.7.4-37.6.1-56.3-.1-5.1 2.9-13.3-5.1-13.5-7.9-.2-5.5 7.6-5.6 13-.2 18.8-.5 37.6.1 56.3.4 11.2-4.2 10.3-9.5 10.7-6 .4-8.7-1.8-8.3-11 .5-11.6.1-23.4.2-35.1-.1 0 0 0 0 0zm174.2-132.5c17.4 32.7 26 67.2 16.7 106.9-5.3 22.8-18.6 33.7-34.2 39.7-3.9 1.5-5.2-1.2-4.2-6.9 2.6-15.2 1.6-30.7.8-46-.7-13-5.9-22.8-15.4-25.9-4.2-1.4-4.5-3.6-3.2-8.6 2.2-7.9 4.2-16 10.9-18.3 13.8-4.7 22-17.1 26.3-35.5.4-1.6 1.2-2.9 2.3-5.4z"/><path class="st0" d="M304.2 94.1c-.5 11.9 1.8 21.5.5 31.5-2 15.7-7.2 27.1-18.9 31.2-10.4 3.6-15.2 14.9-18.9 27.7-1.1 3.7-.6 10-6.1 7.5-5.7-2.7-3.1-7.6-1.9-12 4.7-17.9 11.6-32.9 26.1-37.6 7.9-2.5 10.9-10.9 11.4-21.3.6-12.7-1.2-24.9-3.9-36.9-1.5-6.6-3.1-13.2-5.6-23.3 31.4 27.4 53.5 60.7 63.9 107.5 5.7 25.7 6.1 51.8.9 77.8-7.1 35.1-24.4 55.3-48.8 64.5-2.1.8-5.6 4.1-6.5-2.2-.7-5.1-.7-9.8 4.4-11.3 4.3-1.3 8.6-3.4 12.7-6 20.5-13 30.5-36.8 32.7-66.9 3.9-53.8-13.5-94.6-42-130.2zm-233 171.6c0-12.5.2-25.1-.1-37.6-.1-6.1 1.4-7.8 5.6-7.7 12.8.3 25.6 0 38.4.2 9.9.1 16 7 16.5 20.8.7 21.3.3 42.6.3 63.9 0 10.4-5.7 6.2-9.2 6.4-3.2.2-8.5 3.2-8.2-6.4.1-2.9 0-5.8 0-8.8 0-18.8 0-18.8-12.9-18.8-13.5 0-14 0-13.3 23.2.3 10.6-3 11.1-8.8 11.3-6.2.2-9.2-1.2-8.6-11.4.9-11.6.3-23.4.3-35.1zm30.8.4c5.7-.7 13.9 4.6 12.9-13.2-1.2-20.1-.8-20.8-14.5-21-6.9-.1-13.3-2.2-12.5 13.6 1 20.5.2 20.6 14.1 20.6z"/><path class="st0" d="M227.3 266.3c0-12.1.2-24.2-.1-36.3-.2-6.7.9-9.8 6.3-9.6 13.1.5 26.2.1 39.3.2 1.8 0 3.7 0 5.3.8 6.7 3.3 9.6 17.1 7.4 34.5-1.3 10-4.8 16.9-13 16.6-6.2-.2-12.5.5-18.7-.2-6.7-.7-10.1 1.7-9 12.1.5 4.9-.2 10.1.2 15 .8 9.4-1.2 12.9-8.6 12.9-7.6 0-9.8-3.2-9.1-13.5.5-10.8 0-21.7 0-32.5zm28.9-34c-7.4-1.8-11.7-.6-11.7 13.2 0 13.5 3.2 15.7 11.6 15.2 7.4-.5 12.7.4 12.6-14.5-.1-14.4-4.7-15.8-12.5-13.9zM4 260.3c0-10.4.3-20.9-.1-31.3-.5-10.7 4.7-8.4 8.9-8.4 4.1 0 9.1-2.5 8.9 8.3-.5 20 .1 40.1-.2 60.1-.1 8 1.7 11.4 7.6 11.1 8.6-.5 17.3-.2 25.9-.1 3.1 0 6.7-1.4 6.6 6.3-.1 6.8-3.3 5.6-6.1 5.6-12.8 0-25.6-.2-38.4 0-8.7.1-12.5-6.8-12.9-17.8-.5-11.3-.1-22.6-.2-33.8z"/></svg>