<svg id="Layer_1" xmlns="http://www.w3.org/2000/svg" viewBox="-127 210.4 357 372.6"><style>.st0{fill:none;stroke:#fff;stroke-width:5}.st1{opacity:.8}</style><ellipse class="st0" cx="51.5" cy="396.7" rx="176" ry="183.8"/><ellipse class="st0" cx="51.5" cy="396.7" rx="132" ry="137.8"/><ellipse class="st0" cx="51.5" cy="396.7" rx="88" ry="91.9"/><ellipse class="st0" cx="51.5" cy="396.7" rx="44" ry="45.9"/><path class="st0" d="M51.5 212.9v367.5m124-54.3l-248-258.9m248 0l-248 258.9m300-129.4h-352"/><g class="st1"><path class="st0" d="M51.5 396.7h36c.5-3.5.5-7 0-10.4l-36 10.4zm0 0l68-89.8c-9.1-7.2-19.2-12.8-30-16.7l-38 106.5zm0 0l-32-150.3c-22.7 5.2-44 15.9-62 31.3l94 119zm0 0l-116-58.5c-11.3 25.4-14.8 53.9-10 81.4l126-22.9z"/><path class="st0" d="M51.5 396.7l-66 33.4c1.1 3.6 2.4 7.1 4 10.4l62-43.8zm0 0l-20 94c11.9 2.5 24.1 2.5 36 0l-16-94zm0 0l92 121.1c8.9-7.4 16.9-15.8 24-25.1l-116-96z"/></g></svg>