<svg id="Layer_1" xmlns="http://www.w3.org/2000/svg" viewBox="-305.5 206.5 361 381"><style>.st0{fill:#fff;stroke:gray;stroke-width:2}.st1{opacity:.8}.st2{fill:#44c;stroke:gray}.st3{fill:#bc3}.st3,.st4,.st5{stroke:gray}.st4{fill:#d93}.st5{fill:#db3}.st6{fill:#3bb}.st6,.st7,.st8{stroke:gray}.st7{fill:#3c9}.st8{fill:#d73}</style><ellipse class="st0" cx="-124" cy="397.3" rx="176" ry="183.8"/><ellipse class="st0" cx="-124" cy="397.3" rx="132" ry="137.8"/><ellipse class="st0" cx="-124" cy="397.3" rx="88" ry="91.9"/><ellipse class="st0" cx="-124" cy="397.3" rx="44" ry="45.9"/><path class="st0" d="M-124 213.5V581M0 526.7l-248-258.9m248 0l-248 258.9M52 397.3h-352"/><g class="st1"><path class="st2" d="M-124 397.3h36c.5-3.5.5-7 0-10.4l-36 10.4z"/><path class="st3" d="M-124 397.3l68-89.8c-9.1-7.2-19.2-12.8-30-16.7l-38 106.5z"/><path class="st4" d="M-124 397.3L-156 247c-22.7 5.2-44 15.9-62 31.3l94 119z"/><path class="st5" d="M-124 397.3l-116-58.5c-11.3 25.4-14.8 53.9-10 81.4l126-22.9z"/><path class="st6" d="M-124 397.3l-66 33.4c1.1 3.6 2.4 7.1 4 10.4l62-43.8z"/><path class="st7" d="M-124 397.3l-20 94c11.9 2.5 24.1 2.5 36 0l-16-94z"/><path class="st8" d="M-124 397.3l92 121.1c8.9-7.4 16.9-15.8 24-25.1l-116-96z"/></g></svg>