<svg id="Layer_1" xmlns="http://www.w3.org/2000/svg" viewBox="0 0 361 381"><style>.st0{opacity:.7}.st1{enable-background:new}.st2{fill:none;stroke:#fff;stroke-width:5;stroke-miterlimit:10}</style><g class="st0"><g class="st1"><path class="st2" d="M166.1 204l1 54.6-54.5-9.9-1.1-54.6z"/><path class="st2" d="M110.6 193.1l56.3 10.1 1.1 56.4-56.3-10.1-1.1-56.4zm56.5 65.5L166 204l-54.6-9.9 1.1 54.6 54.6 9.9"/><path class="st2" d="M89.9 266.8l-1.1-56.5 21.8-17.2 1.1 56.4z"/><path class="st2" d="M89.7 211.4l21.8-17.3 1.1 54.6L90.7 266z"/><path class="st2" d="M90.7 266l-1-54.6 21.8-17.3 1.1 54.6zm55.5 10.9l-56.3-10.1 21.8-17.3 56.3 10.1z"/><path class="st2" d="M90.7 266l21.9-17.3 54.5 9.9-21.8 17.3z"/><path class="st2" d="M145.3 275.9L90.7 266l21.9-17.3 54.5 9.9zm-1-54.6l-54.6-9.9 21.8-17.3 54.6 9.9z"/><path class="st2" d="M144.3 221.3l1 54.6-54.6-9.9-1-54.6zm1 54.6l-1-54.6 21.8-17.3 1 54.6z"/><path class="st2" d="M144.3 221.3l21.8-17.3 1 54.6-21.8 17.3zm-54.6-9.9l21.8-17.3 54.6 9.9-21.8 17.3z"/><path class="st2" d="M88.8 210.3l56.3 10.1 1.1 56.4-56.3-10.1-1.1-56.4zm56.5 65.6l-1.1-54.6-54.6-9.8 1.1 54.6 54.6 9.8"/><path class="st2" d="M88.8 210.3l21.8-17.2 56.3 10.1-21.9 17.3z"/><path class="st2" d="M145 220.5l21.9-17.3 1.1 56.4-21.8 17.3z"/></g></g><g class="st0"><g class="st1"><path class="st2" d="M296.7 226.5l56.3 10.1 1.1 56.5-56.3-10.1-1.1-56.5zm56.6 65.5l-1.1-54.6-54.6-9.8 1.1 54.6 54.6 9.8"/><path class="st2" d="M352.2 237.3l1.1 54.7-54.6-9.9-1.1-54.6zM276 300.2l-1.1-56.4 21.8-17.3 1.2 56.4z"/><path class="st2" d="M275.8 244.9l21.8-17.4 1.1 54.6-21.8 17.3z"/><path class="st2" d="M276.9 299.4l-1.1-54.5 21.8-17.4 1.1 54.6zm55.4 10.9L276 300.2l21.9-17.3 56.2 10.1z"/><path class="st2" d="M276.9 299.4l21.8-17.3 54.6 9.9-21.9 17.2z"/><path class="st2" d="M331.4 309.2l-54.5-9.8 21.8-17.3 54.6 9.9zm-1-54.6l-54.6-9.7 21.8-17.4 54.6 9.8z"/><path class="st2" d="M331.4 309.2l-1-54.6 21.8-17.3 1.1 54.7z"/><path class="st2" d="M330.4 254.6l21.8-17.3 1.1 54.7-21.9 17.2zm0 0l1 54.6-54.5-9.8-1.1-54.5z"/><path class="st2" d="M275.8 244.9l21.8-17.4 54.6 9.8-21.8 17.3z"/><path class="st2" d="M274.9 243.8l56.3 10.1 1.1 56.5-56.3-10.2-1.1-56.4zm56.5 65.4l-1.1-54.6-54.6-9.8 1.1 54.6 54.6 9.8"/><path class="st2" d="M274.9 243.8l21.8-17.3 56.4 10.1-21.9 17.4z"/><path class="st2" d="M331.2 254l21.9-17.4 1 56.4-21.8 17.3z"/></g></g><g class="st0"><g class="st1"><path class="st2" d="M234.5 215.6l56.3 10.1 1.1 56.5-56.3-10.2-1.1-56.4zM291 281l-1.1-54.6-54.6-9.8 1.1 54.6L291 281"/><path class="st2" d="M290 226.5l1 54.5-54.6-9.7-1-54.6zm-76.2 62.8l-1.1-56.4 21.8-17.3 1.2 56.4z"/><path class="st2" d="M213.6 234l21.8-17.3 1 54.6-21.8 17.3z"/><path class="st2" d="M214.6 288.6l-1-54.6 21.8-17.3 1 54.6zm55.5 10.8l-56.3-10.1 21.9-17.3 56.2 10.1z"/><path class="st2" d="M214.6 288.6l21.8-17.3L291 281l-21.8 17.4z"/><path class="st2" d="M269.2 298.4l-54.6-9.8 21.8-17.3L291 281zm-1.1-54.6l-54.5-9.8 21.8-17.3 54.6 9.8z"/><path class="st2" d="M268.1 243.8l21.9-17.3 1 54.5-21.8 17.4z"/><path class="st2" d="M213.6 234l21.8-17.3 54.6 9.8-21.9 17.3z"/><path class="st2" d="M212.7 232.9L269 243l1.1 56.5-56.3-10.1-1.1-56.5zm56.5 65.5l-1.1-54.6-54.6-9.8 1.1 54.6 54.6 9.8"/><path class="st2" d="M268.1 243.8l1.1 54.6-54.6-9.8-1-54.6zm1.9 53.9l20.9-16.6-20.9 16.6zm-1.1-54.6l20.9-16.6-20.9 16.6zm-56.2-10.2l21.8-17.3 56.3 10.1-21.9 17.3z"/><path class="st2" d="M268.9 243l21.9-17.3 1.1 56.4-21.8 17.3z"/></g></g><g class="st0"><g class="st1"><path class="st2" d="M227.4 215.2l1.1 54.6-54.6-9.8-1-54.6z"/><path class="st2" d="M172 204.3l56.3 10.1 1.1 56.4-56.4-10.1-1-56.4zm56.5 65.5l-1.1-54.6-54.6-9.8 1.1 54.6 54.6 9.8m-77.3 8.3l-1-56.5 21.8-17.3 1 56.5z"/><path class="st2" d="M151 222.7l21.9-17.3 1 54.6-21.8 17.3z"/><path class="st2" d="M152.1 277.3l-1.1-54.6 21.9-17.3 1 54.6zm55.4 10.9l-56.3-10.1 21.8-17.3 56.4 10.1z"/><path class="st2" d="M152.1 277.3l21.8-17.3 54.6 9.8-21.9 17.3z"/><path class="st2" d="M206.6 287.1l-54.5-9.8 21.8-17.3 54.6 9.8zm-1.1-54.6l-54.5-9.8 21.9-17.3 54.5 9.8z"/><path class="st2" d="M206.6 287.1l-1.1-54.6 21.9-17.3 1.1 54.6z"/><path class="st2" d="M205.5 232.5l21.9-17.3 1.1 54.6-21.9 17.3z"/><path class="st2" d="M151 222.7l21.9-17.3 54.5 9.8-21.9 17.3z"/><path class="st2" d="M150.2 221.6l56.3 10.1 1.1 56.4-56.3-10-1.1-56.5zm56.4 65.5l-1.1-54.6-54.6-9.8 1.1 54.6 54.6 9.8"/><path class="st2" d="M205.5 232.5l1.1 54.6-54.5-9.8-1.1-54.6zm-55.3-10.9l21.8-17.3 56.2 10.2-21.8 17.3zm56.2 10.2l21.8-17.3 1.2 56.4-21.9 17.3z"/></g></g><g class="st0"><g class="st1"><path class="st2" d="M109.5 131.8l56.3 10.1 1.1 56.5-56.3-10.2-1.1-56.4zm56.4 65.5l-1.1-54.6-54.6-9.8 1.1 54.6 54.6 9.8"/><path class="st2" d="M164.8 142.7l1.1 54.6-54.5-9.8-1.1-54.6zm-76.1 62.8l-1.2-56.4 22-17.3 1 56.4z"/><path class="st2" d="M88.4 150.1l21.9-17.2 1.1 54.6-21.9 17.2z"/><path class="st2" d="M89.5 204.7l-1.1-54.6 21.9-17.2 1.1 54.6z"/><path class="st2" d="M144.9 215.6l-56.2-10.1 21.8-17.3 56.2 10.2z"/><path class="st2" d="M89.5 204.7l21.9-17.2 54.5 9.8-21.8 17.3z"/><path class="st2" d="M144.1 214.6l-54.6-9.9 21.9-17.2 54.5 9.8zM143 160l-54.6-9.9 21.9-17.2 54.5 9.8z"/><path class="st2" d="M144.1 214.6L143 160l21.8-17.3 1.1 54.6z"/><path class="st2" d="M143 160l21.8-17.3 1.1 54.6-21.8 17.3z"/><path class="st2" d="M143 160l1.1 54.6-54.6-9.9-1.1-54.6z"/><path class="st2" d="M88.4 150.1l21.9-17.2 54.5 9.8L143 160z"/><path class="st2" d="M87.5 149.1l56.3 10.1 1.1 56.5-56.3-10.1-1.1-56.5zm56.6 65.5L143 160l-54.6-9.8 1.1 54.6 54.6 9.8m-56.6-65.5l22-17.3 56.2 10.1-21.8 17.3zm56.4 10.1l21.8-17.3 1 56.5-21.8 17.2z"/></g></g><g class="st0"><g class="st1"><path class="st2" d="M295.5 165.2l56.3 10.1 1.1 56.4-56.2-10.1-1.2-56.4zm56.5 65.5l-1.1-54.6-54.6-9.8 1.1 54.6 54.6 9.8"/><path class="st2" d="M350.9 176.1l1.1 54.6-54.5-9.9-1.1-54.6zm-76.1 62.8l-1.1-56.4 21.8-17.3 1.1 56.4z"/><path class="st2" d="M274.5 183.5l21.9-17.3 1.1 54.6-21.9 17.3z"/><path class="st2" d="M275.6 238.1l-1.1-54.6 21.9-17.3 1.1 54.6zm55.5 10.9l-56.3-10.1 21.8-17.3 56.4 10.1z"/><path class="st2" d="M275.6 238.1l21.9-17.3 54.5 9.9-21.8 17.2z"/><path class="st2" d="M330.2 247.9l-54.6-9.8 21.9-17.3 54.5 9.9zm-1.1-54.6l-54.6-9.8 21.9-17.3 54.5 9.9z"/><path class="st2" d="M330.2 247.9l-1.1-54.6 21.8-17.2 1.1 54.6z"/><path class="st2" d="M329.1 193.3l21.8-17.2 1.1 54.6-21.8 17.2z"/><path class="st2" d="M329.1 193.3l1.1 54.6-54.6-9.8-1.1-54.6zm-54.6-9.8l21.9-17.3 54.5 9.9-21.8 17.2z"/><path class="st2" d="M273.7 182.5l56.3 10.1 1.1 56.4-56.3-10.1-1.1-56.4zm56.5 65.4l-1.1-54.6-54.6-9.8 1.1 54.6 54.6 9.8"/><path class="st2" d="M273.7 182.5l21.8-17.3 56.3 10.1-21.8 17.3z"/><path class="st2" d="M330 192.6l21.8-17.3 1.2 56.4-21.9 17.3z"/></g></g><g class="st0"><g class="st1"><path class="st2" d="M288.7 165.1l1.1 54.6-54.5-9.8-1.1-54.5z"/><path class="st2" d="M233.3 154.3l56.3 10.1 1.1 56.4-56.3-10.1-1.1-56.4zm56.5 65.4l-1.1-54.6-54.6-9.8 1.1 54.6 54.6 9.8m-77.2 8.2l-1.2-56.3 21.9-17.3 1.1 56.4z"/><path class="st2" d="M212.3 172.7l21.9-17.3 1.1 54.5-21.9 17.4z"/><path class="st2" d="M213.4 227.3l-1.1-54.6 21.9-17.3 1.1 54.5z"/><path class="st2" d="M268.8 238.1l-56.2-10.2 21.8-17.2 56.3 10.1z"/><path class="st2" d="M213.4 227.3l21.9-17.4 54.5 9.8L268 237z"/><path class="st2" d="M268 237l-54.6-9.7 21.9-17.4 54.5 9.8zm-1.1-54.5l-54.6-9.8 21.9-17.3 54.5 9.7z"/><path class="st2" d="M266.9 182.5L268 237l-54.6-9.7-1.1-54.6z"/><path class="st2" d="M268 237l-1.1-54.5 21.8-17.4 1.1 54.6z"/><path class="st2" d="M266.9 182.5l21.8-17.4 1.1 54.6L268 237z"/><path class="st2" d="M212.3 172.7l21.9-17.3 54.5 9.7-21.8 17.4z"/><path class="st2" d="M211.4 171.6l56.3 10.1 1.1 56.4-56.3-10.1-1.1-56.4zM268 237l-1.1-54.6-54.6-9.8 1.1 54.6L268 237m-56.6-65.4l21.9-17.3 56.3 10.2-21.8 17.2zm56.4 10.1l21.8-17.2 1.1 56.3-21.9 17.3z"/></g></g><g class="st0"><g class="st1"><path class="st2" d="M170.7 143l56.3 10.1 1.1 56.4-56.3-10.1-1.1-56.4zm56.5 65.6l-1.1-54.6-54.6-9.8 1.1 54.6 54.6 9.8"/><path class="st2" d="M226.2 153.9l1 54.7-54.5-9.9-1.1-54.6zM150 216.8l-1.1-56.5 21.8-17.3 1.2 56.5z"/><path class="st2" d="M149.8 161.4l21.8-17.3 1.1 54.6-21.9 17.3z"/><path class="st2" d="M150.8 216l-1-54.6 21.8-17.3 1.1 54.6zm55.5 10.9L150 216.8l21.9-17.3 56.2 10.1z"/><path class="st2" d="M150.8 216l21.9-17.3 54.5 9.9-21.8 17.2z"/><path class="st2" d="M205.4 225.8l-54.6-9.8 21.9-17.3 54.5 9.9zm-1-54.6l-54.6-9.8 21.8-17.3 54.6 9.8z"/><path class="st2" d="M205.4 225.8l-1-54.6 21.8-17.3 1 54.7z"/><path class="st2" d="M204.4 171.2l21.8-17.3 1 54.7-21.8 17.2z"/><path class="st2" d="M149.8 161.4l21.8-17.3 54.6 9.8-21.8 17.3z"/><path class="st2" d="M148.9 160.3l56.3 10.1 1.1 56.4-56.3-10.1-1.1-56.4zm56.5 65.5l-1.1-54.6-54.6-9.8 1.1 54.6 54.6 9.8"/><path class="st2" d="M204.4 171.2l1 54.6-54.6-9.8-1-54.6zm-55.5-10.9l21.8-17.3 56.3 10.2-21.8 17.3zm56.3 10.2l21.8-17.3 1.1 56.4-21.8 17.3z"/></g></g><g class="st0"><g class="st1"><path class="st2" d="M164.3 81.2l1.1 54.6-54.6-9.8-1.1-54.6z"/><path class="st2" d="M108.9 70.3l56.3 10.1 1.1 56.5-56.3-10.1-1.1-56.5zm56.5 65.5l-1.1-54.6-54.6-9.8 1.1 54.6 54.6 9.8"/><path class="st2" d="M88.1 144l-1-56.4 21.8-17.3 1.1 56.4z"/><path class="st2" d="M87.9 88.6l21.8-17.2 1.1 54.6L89 143.2z"/><path class="st2" d="M89 143.2l-1.1-54.6 21.8-17.2 1.1 54.6zm55.5 11L88.1 144l21.9-17.3 56.3 10.2z"/><path class="st2" d="M89 143.2l21.8-17.2 54.6 9.8-21.8 17.3z"/><path class="st2" d="M143.6 153.1L89 143.2l21.8-17.2 54.6 9.8zm-1.1-54.6l-54.6-9.9 21.8-17.2 54.6 9.8z"/><path class="st2" d="M143.6 153.1l-1.1-54.6 21.8-17.3 1.1 54.6z"/><path class="st2" d="M142.5 98.5l21.8-17.3 1.1 54.6-21.8 17.3z"/><path class="st2" d="M142.5 98.5l1.1 54.6-54.6-9.9-1.1-54.6zm-54.6-9.9l21.8-17.2 54.6 9.8-21.8 17.3z"/><path class="st2" d="M87.1 87.6l56.3 10.1 1.1 56.5-56.3-10.1-1.1-56.5zm56.5 65.5l-1.1-54.6-54.6-9.8 1.1 54.6 54.6 9.8M87.1 87.6l21.8-17.3 56.3 10.1-21.8 17.3zm56.3 10.1l21.8-17.3 1.1 56.5-21.8 17.3z"/></g></g><g class="st0"><g class="st1"><path class="st2" d="M295 103.7l56.3 10.1 1.1 56.4-56.3-10.1-1.1-56.4zm56.5 65.5l-1.1-54.6-54.6-9.8 1.1 54.6 54.6 9.8"/><path class="st2" d="M350.4 114.6l1.1 54.6-54.5-9.9-1.1-54.6zm-76.1 62.8l-1.1-56.5 21.8-17.2 1.2 56.4z"/><path class="st2" d="M274.1 122l21.8-17.3 1.1 54.6-21.9 17.3z"/><path class="st2" d="M275.1 176.6l-1-54.6 21.8-17.3 1.1 54.6zm55.5 10.9l-56.3-10.1 21.9-17.3 56.2 10.1z"/><path class="st2" d="M275.1 176.6l21.9-17.3 54.5 9.9-21.8 17.2z"/><path class="st2" d="M329.7 186.4l-54.6-9.8 21.9-17.3 54.5 9.9zm-1.1-54.6l-54.5-9.8 21.8-17.3 54.5 9.9z"/><path class="st2" d="M329.7 186.4l-1.1-54.6 21.8-17.2 1.1 54.6z"/><path class="st2" d="M328.6 131.8l21.8-17.2 1.1 54.6-21.8 17.2z"/><path class="st2" d="M328.6 131.8l1.1 54.6-54.6-9.8-1-54.6z"/><path class="st2" d="M274.1 122l21.8-17.3 54.5 9.9-21.8 17.2z"/><path class="st2" d="M273.2 120.9l56.3 10.1 1.1 56.4-56.3-10.1-1.1-56.4zm56.5 65.5l-1.1-54.6L274 122l1.1 54.6 54.6 9.8"/><path class="st2" d="M273.2 120.9l21.8-17.2 56.3 10.1-21.8 17.3z"/><path class="st2" d="M329.5 131.1l21.8-17.3 1.1 56.4-21.8 17.3z"/></g></g><g class="st0"><g class="st1"><path class="st2" d="M288.2 103.6l1.1 54.6-54.5-9.8-1.2-54.6z"/><path class="st2" d="M232.8 92.8l56.3 10.1 1.1 56.5-56.3-10.1-1.1-56.5zm56.5 65.4l-1.1-54.6-54.6-9.8 1.1 54.6 54.6 9.8"/><path class="st2" d="M212.1 166.4l-1.1-56.3 21.8-17.3 1.1 56.4z"/><path class="st2" d="M211.8 111.2l21.8-17.4 1.2 54.6-21.9 17.3z"/><path class="st2" d="M212.9 165.7l-1.1-54.5 21.8-17.4 1.2 54.6zm55.4 10.9l-56.2-10.2 21.8-17.2 56.2 10.1z"/><path class="st2" d="M212.9 165.7l21.9-17.3 54.5 9.8-21.8 17.3z"/><path class="st2" d="M267.5 175.5l-54.6-9.8 21.9-17.3 54.5 9.8zm-1.1-54.6l-54.6-9.7 21.8-17.4 54.6 9.8z"/><path class="st2" d="M267.5 175.5l-1.1-54.6 21.8-17.3 1.1 54.6z"/><path class="st2" d="M266.4 120.9l21.8-17.3 1.1 54.6-21.8 17.3z"/><path class="st2" d="M266.4 120.9l1.1 54.6-54.6-9.8-1.1-54.5z"/><path class="st2" d="M211.8 111.2l21.8-17.4 54.6 9.8-21.8 17.3z"/><path class="st2" d="M211 110.1l56.3 10.1 1.1 56.5-56.2-10.2-1.2-56.4zm56.5 65.4l-1.1-54.6-54.6-9.8 1.1 54.6 54.6 9.8"/><path class="st2" d="M211 110.1l21.8-17.3 56.3 10-21.8 17.4zm56.3 10.1l21.8-17.4 1 56.5-21.8 17.3z"/></g></g><g class="st0"><g class="st1"><path class="st2" d="M225.7 92.4l1.1 54.7-54.6-9.9-1.1-54.6z"/><path class="st2" d="M170.2 81.5l56.3 10.1 1.1 56.5-56.3-10.1-1.1-56.5zm56.6 65.6l-1.1-54.6-54.6-9.8 1.1 54.6 54.6 9.8"/><path class="st2" d="M149.5 155.3l-1.1-56.5 21.8-17.3 1.2 56.5z"/><path class="st2" d="M149.3 99.9l21.8-17.3 1.1 54.6-21.8 17.3z"/><path class="st2" d="M150.4 154.5l-1.1-54.6 21.8-17.3 1.1 54.6zm55.4 10.8l-56.3-10 21.9-17.3 56.2 10z"/><path class="st2" d="M150.4 154.5l21.8-17.3 54.6 9.9-21.9 17.2z"/><path class="st2" d="M204.9 164.3l-54.5-9.8 21.8-17.3 54.6 9.9zm-1-54.6l-54.6-9.8 21.8-17.3 54.6 9.8z"/><path class="st2" d="M204.9 164.3l-1-54.6 21.8-17.3 1.1 54.7z"/><path class="st2" d="M203.9 109.7l21.8-17.3 1.1 54.7-21.9 17.2z"/><path class="st2" d="M203.9 109.7l1 54.6-54.5-9.8-1.1-54.6z"/><path class="st2" d="M149.3 99.9l21.8-17.3 54.6 9.8-21.8 17.3z"/><path class="st2" d="M148.4 98.8l56.3 10.1 1.1 56.5-56.3-10.1-1.1-56.5zm56.5 65.5l-1.1-54.6-54.6-9.8 1.1 54.6 54.6 9.8"/><path class="st2" d="M148.4 98.8l21.8-17.3 56.4 10.2-21.9 17.3z"/><path class="st2" d="M204.7 109l21.9-17.3 1 56.3-21.8 17.3z"/></g></g><g class="st0"><g class="st1"><path class="st2" d="M107.7 9l56.2 10.1 1.1 56.4-56.3-10.1-1-56.4zm56.5 65.5l-1.1-54.6-54.6-9.8 1.1 54.6 54.6 9.8"/><path class="st2" d="M163.2 19.9l1 54.6-54.5-9.8-1.1-54.6zM87 82.7l-1.2-56.4L107.7 9l1.1 56.4z"/><path class="st2" d="M86.8 27.4l21.8-17.3 1.1 54.6L87.8 82z"/><path class="st2" d="M87.8 82l-1-54.6 21.8-17.3 1.1 54.6z"/><path class="st2" d="M143.2 92.9L87 82.7l21.8-17.3 56.3 10.2z"/><path class="st2" d="M87.8 82l21.9-17.3 54.5 9.8-21.9 17.3z"/><path class="st2" d="M142.3 91.8L87.8 82l21.9-17.3 54.5 9.8zm-1-54.6l-54.5-9.8 21.8-17.3 54.6 9.8z"/><path class="st2" d="M142.3 91.8l-1-54.6 21.9-17.3 1 54.6z"/><path class="st2" d="M141.3 37.2l21.9-17.3 1 54.6-21.9 17.3zm0 0l1 54.6L87.8 82l-1-54.6z"/><path class="st2" d="M86.8 27.4l21.8-17.3 54.6 9.8-21.9 17.3z"/><path class="st2" d="M85.8 26.3l56.3 10.1 1.1 56.4L87 82.7l-1.2-56.4zm56.5 65.5l-1.1-54.6-54.6-9.8L87.7 82l54.6 9.8"/><path class="st2" d="M85.8 26.3L107.7 9l56.2 10.1-21.8 17.3z"/><path class="st2" d="M142.1 36.4l21.8-17.3 1.2 56.5-21.9 17.3z"/></g></g><g class="st0"><g class="st1"><path class="st2" d="M293.8 42.4l56.3 10.1 1.1 56.5-56.3-10.1-1.1-56.5zm56.5 65.5l-1.1-54.6-54.6-9.9 1.1 54.6 54.6 9.9"/><path class="st2" d="M349.3 53.3l1 54.6-54.5-9.8-1.1-54.7zm-76.2 62.8l-1.2-56.5 21.9-17.2 1.1 56.4z"/><path class="st2" d="M272.9 60.7l21.8-17.3 1.1 54.7-21.8 17.2z"/><path class="st2" d="M274 115.3l-1.1-54.6 21.8-17.3 1.1 54.7z"/><path class="st2" d="M329.3 126.2l-56.2-10.1 21.8-17.3 56.3 10.2z"/><path class="st2" d="M274 115.3l21.8-17.2 54.5 9.8-21.9 17.3z"/><path class="st2" d="M328.4 125.2l-54.4-9.9 21.8-17.2 54.5 9.8zm-1-54.6l-54.5-9.9 21.8-17.3 54.6 9.9z"/><path class="st2" d="M327.4 70.6l1 54.6-54.4-9.9-1.1-54.6z"/><path class="st2" d="M328.4 125.2l-1-54.6 21.9-17.3 1 54.6z"/><path class="st2" d="M327.4 70.6l21.9-17.3 1 54.6-21.9 17.3z"/><path class="st2" d="M272.9 60.7l21.8-17.3 54.6 9.9-21.9 17.3z"/><path class="st2" d="M271.9 59.6l56.3 10.1 1.1 56.5-56.3-10.1-1.1-56.5zm56.5 65.6l-1.1-54.6-54.6-9.8 1.1 54.6 54.6 9.8"/><path class="st2" d="M271.9 59.6l21.9-17.2 56.3 10.1-21.9 17.3z"/><path class="st2" d="M328.2 69.8l21.9-17.3 1.1 56.5-21.9 17.2z"/></g></g><g class="st0"><g class="st1"><path class="st2" d="M287 42.3l1.1 54.6-54.6-9.8-1-54.6z"/><path class="st2" d="M231.6 31.4l56.3 10.1 1.1 56.4-56.3-10-1.1-56.5zm56.5 65.5L287 42.3l-54.6-9.8 1.1 54.6 54.6 9.8"/><path class="st2" d="M210.9 105.2l-1.2-56.4 21.9-17.4 1.1 56.5z"/><path class="st2" d="M210.7 49.8l21.8-17.3 1 54.6-21.8 17.3z"/><path class="st2" d="M211.7 104.4l-1-54.6 21.8-17.3 1 54.6zm55.5 10.9l-56.3-10.1 21.8-17.3L289 98z"/><path class="st2" d="M211.7 104.4l21.8-17.3 54.6 9.8-21.9 17.3z"/><path class="st2" d="M266.2 114.2l-54.5-9.8 21.8-17.3 54.6 9.8zm-1.1-54.6l-54.4-9.8 21.8-17.3 54.5 9.8z"/><path class="st2" d="M266.2 114.2l-1.1-54.6L287 42.3l1.1 54.6z"/><path class="st2" d="M265.1 59.6L287 42.3l1.1 54.6-21.9 17.3zm-54.4-9.8l21.8-17.3 54.5 9.8-21.9 17.3z"/><path class="st2" d="M209.7 48.8l56.3 10 1.1 56.4-56.3-10.1-1.1-56.3zm56.5 65.4l-1.1-54.6-54.6-9.8 1.1 54.6 54.6 9.8"/><path class="st2" d="M265.1 59.6l1.1 54.6-54.5-9.8-1-54.6zm-55.4-10.8l21.9-17.4 56.2 10.2L266 58.8z"/><path class="st2" d="M266 58.8l21.8-17.2L289 98l-21.8 17.3z"/></g></g><g class="st0"><g class="st1"><path class="st2" d="M224.4 31.2l1.1 54.5-54.5-9.8-1.1-54.6z"/><path class="st2" d="M169 20.3l56.3 10.1 1.1 56.4L170 76.6l-1-56.3zm56.5 65.4l-1.1-54.6-54.6-9.8 1.1 54.6 54.6 9.8"/><path class="st2" d="M148.3 93.9l-1.1-56.4L169 20.3l1.1 56.3z"/><path class="st2" d="M148 38.6l21.9-17.3 1.1 54.6-21.9 17.3z"/><path class="st2" d="M149.1 93.2L148 38.6l21.9-17.3 1.1 54.6z"/><path class="st2" d="M204.6 104l-56.3-10.1 21.8-17.3 56.4 10.1z"/><path class="st2" d="M149.1 93.2L171 75.9l54.5 9.8-21.8 17.2z"/><path class="st2" d="M203.7 102.9l-54.6-9.7L171 75.9l54.5 9.8zm-1.1-54.5L148 38.6l21.9-17.3 54.5 9.9z"/><path class="st2" d="M202.6 48.4l1.1 54.5-54.6-9.7-1.1-54.6z"/><path class="st2" d="M203.7 102.9l-1.1-54.5 21.8-17.2 1.1 54.5z"/><path class="st2" d="M202.6 48.4l21.8-17.2 1.1 54.5-21.8 17.2z"/><path class="st2" d="M148 38.6l21.9-17.3 54.5 9.9-21.8 17.2z"/><path class="st2" d="M147.2 37.5l56.3 10.1 1.1 56.4-56.2-10-1.2-56.5zm56.5 65.4l-1.1-54.6-54.6-9.7 1.1 54.6 54.6 9.7"/><path class="st2" d="M147.2 37.5L169 20.3l56.3 10.1-21.8 17.3zm56.3 10.2l21.8-17.3 1.2 56.3-21.9 17.3z"/></g></g><g class="st0"><g class="st1"><path class="st2" d="M127.9 236.4l1 54.6-54.4-9.8-1.2-54.5z"/><path class="st2" d="M72.4 225.6l56.3 10.1 1.1 56.5L73.5 282l-1.1-56.4zm56.5 65.4l-1.1-54.6-54.6-9.8 1.1 54.6 54.6 9.8"/><path class="st2" d="M51.7 299.3l-1.1-56.4 21.8-17.3 1.2 56.4z"/><path class="st2" d="M51.5 244l21.8-17.3 1.2 54.5-21.9 17.4z"/><path class="st2" d="M52.6 298.6L51.5 244l21.8-17.3 1.2 54.5z"/><path class="st2" d="M108 309.4l-56.3-10.1L73.6 282l56.2 10.1z"/><path class="st2" d="M52.6 298.6l21.9-17.4 54.4 9.8-21.8 17.3z"/><path class="st2" d="M107.1 308.3l-54.5-9.7 21.9-17.4 54.4 9.8zm-1-54.5L51.5 244l21.8-17.3 54.6 9.7z"/><path class="st2" d="M107.1 308.3l-1-54.5 21.8-17.4 1 54.6z"/><path class="st2" d="M106.1 253.8l21.8-17.4 1 54.6-21.8 17.3z"/><path class="st2" d="M106.1 253.8l1 54.5-54.5-9.7-1.1-54.6zM51.5 244l21.8-17.3 54.6 9.7-21.8 17.4z"/><path class="st2" d="M50.6 242.9l56.3 10.1 1.1 56.5-56.3-10.1-1.1-56.5zm56.5 65.4l-1.1-54.6-54.5-9.7 1.1 54.6 54.5 9.7"/><path class="st2" d="M50.6 242.9l21.8-17.3 56.3 10.2-21.8 17.2zm56.3 10.1l21.8-17.2 1.1 56.3-21.8 17.3z"/></g></g><g class="st0"><g class="st1"><path class="st2" d="M314 269.9l1.1 54.6-54.5-9.8-1.2-54.6z"/><path class="st2" d="M258.5 259l56.3 10.1 1.1 56.4-56.3-10.1-1.1-56.4zm56.6 65.5l-1.1-54.6-54.6-9.8 1.1 54.6 54.6 9.8"/><path class="st2" d="M237.8 332.7l-1.1-56.4 21.8-17.3 1.2 56.4z"/><path class="st2" d="M237.6 277.4l21.8-17.3 1.2 54.6-21.9 17.3z"/><path class="st2" d="M238.7 332l-1.1-54.6 21.8-17.3 1.2 54.6z"/><path class="st2" d="M294.1 342.9l-56.3-10.2 21.9-17.3 56.2 10.1z"/><path class="st2" d="M238.7 332l21.9-17.3 54.5 9.8-21.8 17.3z"/><path class="st2" d="M293.3 341.8l-54.6-9.8 21.9-17.3 54.5 9.8zm-1.1-54.6l-54.6-9.8 21.8-17.3 54.6 9.8z"/><path class="st2" d="M293.3 341.8l-1.1-54.6 21.8-17.3 1.1 54.6z"/><path class="st2" d="M292.2 287.2l21.8-17.3 1.1 54.6-21.8 17.3z"/><path class="st2" d="M292.2 287.2l1.1 54.6-54.6-9.8-1.1-54.6z"/><path class="st2" d="M237.6 277.4l21.8-17.3 54.6 9.8-21.8 17.3z"/><path class="st2" d="M236.7 276.3l56.3 10.1 1.1 56.4-56.3-10.1-1.1-56.4zm56.6 65.5l-1.1-54.6-54.6-9.8 1.1 54.6 54.6 9.8m-56.6-65.5l21.8-17.3 56.4 10.1-21.8 17.3z"/><path class="st2" d="M293.1 286.4l21.8-17.3 1 56.4-21.8 17.4z"/></g></g><g class="st0"><g class="st1"><path class="st2" d="M251.8 259l1 54.6-54.5-9.9-1.1-54.6z"/><path class="st2" d="M196.3 248l56.3 10.1 1.1 56.5-56.3-10.1-1.1-56.5zm56.5 65.6l-1.1-54.6-54.6-9.8 1.1 54.6 54.6 9.8"/><path class="st2" d="M175.7 321.8l-1.2-56.5 21.8-17.3 1.2 56.5z"/><path class="st2" d="M175.4 266.4l21.8-17.3 1.1 54.6-21.9 17.3z"/><path class="st2" d="M176.4 321l-1-54.6 21.8-17.3 1.1 54.6zm55.5 10.9l-56.2-10.1 21.8-17.3 56.2 10.1z"/><path class="st2" d="M176.4 321l21.9-17.3 54.5 9.9-21.8 17.2z"/><path class="st2" d="M231 330.8l-54.6-9.8 21.9-17.3 54.5 9.9zm-1-54.6l-54.6-9.8 21.8-17.3 54.6 9.9z"/><path class="st2" d="M231 330.8l-1-54.6 21.8-17.2 1 54.6z"/><path class="st2" d="M230 276.2l21.8-17.2 1 54.6-21.8 17.2z"/><path class="st2" d="M230 276.2l1 54.6-54.6-9.8-1-54.6zm-54.6-9.8l21.8-17.3 54.6 9.9-21.8 17.2z"/><path class="st2" d="M174.5 265.3l56.3 10.1 1.1 56.5-56.3-10.1-1.1-56.5zm56.5 65.5l-1.1-54.6-54.6-9.8 1.1 54.6 54.6 9.8m-56.5-65.5l21.8-17.3 56.3 10.2-21.8 17.3z"/><path class="st2" d="M230.8 275.5l21.8-17.3 1.1 56.4-21.8 17.3z"/></g></g><g class="st0"><g class="st1"><path class="st2" d="M189.2 247.7l1.1 54.6-54.6-9.8-1-54.6z"/><path class="st2" d="M133.8 236.8l56.3 10.1 1.1 56.5-56.3-10.1-1.1-56.5zm56.5 65.5l-1.1-54.6-54.6-9.8 1.1 54.6 54.6 9.8"/><path class="st2" d="M113 310.5l-1-56.3 21.8-17.4 1.2 56.4z"/><path class="st2" d="M112.9 255.1l21.8-17.2 1 54.6-21.8 17.3z"/><path class="st2" d="M113.9 309.8l-1-54.7 21.8-17.2 1 54.6z"/><path class="st2" d="M169.4 320.7L113 310.5l22-17.3 56.2 10.2z"/><path class="st2" d="M113.9 309.8l21.8-17.3 54.6 9.8-21.8 17.3z"/><path class="st2" d="M168.5 319.6l-54.6-9.8 21.8-17.3 54.6 9.8zm-1.1-54.6l-54.5-9.9 21.8-17.2 54.5 9.8z"/><path class="st2" d="M168.5 319.6l-1.1-54.6 21.8-17.3 1.1 54.6z"/><path class="st2" d="M167.4 265l21.8-17.3 1.1 54.6-21.8 17.3z"/><path class="st2" d="M167.4 265l1.1 54.6-54.6-9.8-1-54.7zm-54.5-9.9l21.8-17.2 54.5 9.8-21.8 17.3z"/><path class="st2" d="M112 254.2l56.3 10.1 1.1 56.5-56.4-10.2-1-56.4zm56.5 65.4l-1.1-54.6-54.6-9.8 1.1 54.6 54.6 9.8M112 254.2l21.8-17.4 56.3 10.1-21.9 17.3z"/><path class="st2" d="M168.2 264.2l21.9-17.3 1.1 56.5-21.8 17.3z"/></g></g><g class="st0"><g class="st1"><path class="st2" d="M71.3 164.3l56.3 10.1 1.1 56.4-56.3-10.1-1.1-56.4zm56.5 65.4l-1.1-54.6-54.6-9.8 1.1 54.6 54.6 9.8"/><path class="st2" d="M126.7 175.1l1.1 54.6-54.6-9.8-1.1-54.6zM50.5 238l-1.1-56.4 21.9-17.3 1 56.4z"/><path class="st2" d="M50.3 182.7l21.8-17.4 1.1 54.6-21.8 17.3z"/><path class="st2" d="M51.4 237.2l-1.1-54.5 21.8-17.4 1.1 54.6zm55.3 10.9L50.5 238l21.8-17.3 56.4 10.1z"/><path class="st2" d="M51.4 237.2l21.8-17.3 54.6 9.8-21.9 17.3z"/><path class="st2" d="M105.9 247l-54.5-9.8 21.8-17.3 54.6 9.8zm-1.1-54.6l-54.5-9.7 21.8-17.4 54.6 9.8z"/><path class="st2" d="M105.9 247l-1.1-54.6 21.9-17.3 1.1 54.6z"/><path class="st2" d="M104.8 192.4l21.9-17.3 1.1 54.6-21.9 17.3zm-54.5-9.7l21.8-17.4 54.6 9.8-21.9 17.3z"/><path class="st2" d="M49.4 181.6l56.3 10.1 1.1 56.4L50.5 238l-1.1-56.4zm56.5 65.4l-1.1-54.6-54.6-9.8 1.1 54.6 54.6 9.8"/><path class="st2" d="M104.8 192.4l1.1 54.6-54.5-9.8-1.1-54.5zm-55.4-10.8l21.9-17.3 56.2 10.1-21.8 17.4zm56.3 10.2l21.8-17.4 1.2 56.4-22 17.3z"/></g></g><g class="st0"><g class="st1"><path class="st2" d="M257.4 197.7l56.3 10.1 1.1 56.5-56.3-10.1-1.1-56.5zm56.5 65.4l-1.1-54.6-54.6-9.8 1.1 54.6 54.6 9.8"/><path class="st2" d="M312.8 208.6l1.1 54.5-54.6-9.7-1-54.6zm-76.2 62.8l-1-56.4 21.8-17.3 1.1 56.5z"/><path class="st2" d="M236.4 216.1l21.9-17.3 1 54.6-21.8 17.3z"/><path class="st2" d="M237.5 270.7l-1.1-54.6 21.9-17.3 1 54.6z"/><path class="st2" d="M292.9 281.5l-56.3-10.1 21.9-17.2 56.3 10z"/><path class="st2" d="M237.5 270.7l21.8-17.3 54.6 9.7-21.9 17.4z"/><path class="st2" d="M292 280.5l-54.5-9.8 21.8-17.3 54.6 9.7zm-1.1-54.6l-54.5-9.8 21.9-17.3 54.5 9.8z"/><path class="st2" d="M292 280.5l-1.1-54.6 21.9-17.3 1.1 54.5z"/><path class="st2" d="M290.9 225.9l21.9-17.3 1.1 54.5-21.9 17.4z"/><path class="st2" d="M236.4 216.1l21.9-17.3 54.5 9.8-21.9 17.3z"/><path class="st2" d="M235.6 215l56.3 10.1 1.1 56.5-56.3-10.1-1.1-56.5zm56.4 65.5l-1.1-54.6-54.6-9.8 1.1 54.6 54.6 9.8"/><path class="st2" d="M290.9 225.9l1.1 54.6-54.5-9.8-1.1-54.6zM235.6 215l21.8-17.3 56.2 10.1-21.8 17.3zm56.2 10.1l21.8-17.3 1.2 56.4-21.9 17.3z"/></g></g><g class="st0"><g class="st1"><path class="st2" d="M195.2 186.8l56.3 10.1 1.1 56.5-56.3-10.1-1.1-56.5zm56.5 65.5l-1.1-54.6-54.6-9.8 1.1 54.6 54.6 9.8"/><path class="st2" d="M250.6 197.7l1.1 54.6-54.6-9.9-1.1-54.6zm-76.2 62.8l-1.2-56.5 22-17.2 1 56.4z"/><path class="st2" d="M174.2 205.1l21.8-17.3 1.1 54.6-21.8 17.3z"/><path class="st2" d="M175.3 259.7l-1.1-54.6 21.8-17.3 1.1 54.6zm55.3 10.9l-56.2-10.1 21.8-17.3 56.3 10.2z"/><path class="st2" d="M175.3 259.7l21.8-17.3 54.6 9.9-21.9 17.3z"/><path class="st2" d="M229.8 269.6l-54.5-9.9 21.8-17.3 54.6 9.9zm-1.1-54.6l-54.5-9.9 21.8-17.3 54.6 9.9z"/><path class="st2" d="M229.8 269.6l-1.1-54.6 21.9-17.3 1.1 54.6z"/><path class="st2" d="M228.7 215l21.9-17.3 1.1 54.6-21.9 17.3zm0 0l1.1 54.6-54.5-9.9-1.1-54.6z"/><path class="st2" d="M174.2 205.1l21.8-17.3 54.6 9.9-21.9 17.3z"/><path class="st2" d="M173.2 204l56.3 10.1 1.1 56.5-56.3-10.1-1.1-56.5zm56.6 65.6l-1.1-54.6-54.6-9.8 1.1 54.6 54.6 9.8M173.2 204l22-17.2 56.2 10.1-21.8 17.3z"/><path class="st2" d="M229.6 214.2l21.8-17.3 1.1 56.5-21.9 17.2z"/></g></g><g class="st0"><g class="st1"><path class="st2" d="M132.5 175.5l56.3 10.1 1.1 56.4-56.3-10.1-1.1-56.4zM189 241l-1.1-54.6-54.6-9.8 1.1 54.6L189 241"/><path class="st2" d="M188 186.4l1 54.6-54.4-9.8-1.1-54.6zm-76.1 62.8l-1.2-56.4 21.8-17.3 1.2 56.4z"/><path class="st2" d="M111.6 193.9l21.9-17.3 1.1 54.6-21.9 17.3z"/><path class="st2" d="M112.7 248.5l-1.1-54.6 21.9-17.3 1.1 54.6z"/><path class="st2" d="M168.1 259.4l-56.2-10.2 21.8-17.3 56.2 10.2z"/><path class="st2" d="M112.7 248.5l21.9-17.3L189 241l-21.8 17.3z"/><path class="st2" d="M167.2 258.3l-54.5-9.8 21.9-17.3L189 241zm-1-54.6l-54.6-9.8 21.9-17.3 54.5 9.8z"/><path class="st2" d="M167.2 258.3l-1-54.6 21.8-17.3 1 54.6z"/><path class="st2" d="M166.2 203.7l21.8-17.3 1 54.6-21.8 17.3z"/><path class="st2" d="M111.6 193.9l21.9-17.3 54.5 9.8-21.8 17.3z"/><path class="st2" d="M110.7 192.8l56.3 10.1 1.1 56.4-56.3-10.1-1.1-56.4zm56.5 65.5l-1.1-54.6-54.6-9.8 1.1 54.6 54.6 9.8"/><path class="st2" d="M166.2 203.7l1 54.6-54.5-9.8-1.1-54.6zm-55.5-10.9l21.8-17.3 56.3 10.1-21.8 17.3zm56.3 10.1l21.8-17.3 1.1 56.5-21.8 17.3z"/></g></g><g class="st0"><g class="st1"><path class="st2" d="M126.1 113.6l1.1 54.6-54.5-9.8-1-54.6z"/><path class="st2" d="M70.8 102.7l56.3 10.1 1.1 56.5-56.3-10.1-1.1-56.5zm56.4 65.5l-1.1-54.6-54.6-9.8 1.1 54.6 54.6 9.8"/><path class="st2" d="M50 176.5l-1.1-56.4 21.9-17.4 1 56.5z"/><path class="st2" d="M49.7 121.1l22-17.3 1 54.6-21.9 17.3z"/><path class="st2" d="M50.8 175.7l-1.1-54.6 22-17.3 1 54.6zm55.5 10.9L50 176.5l21.8-17.3 56.4 10.1z"/><path class="st2" d="M50.8 175.7l21.9-17.3 54.5 9.8-21.8 17.3z"/><path class="st2" d="M105.4 185.5l-54.6-9.8 21.9-17.3 54.5 9.8zm-1.1-54.6l-54.6-9.8 22-17.3 54.4 9.8z"/><path class="st2" d="M105.4 185.5l-1.1-54.6 21.8-17.3 1.1 54.6z"/><path class="st2" d="M104.3 130.9l21.8-17.3 1.1 54.6-21.8 17.3z"/><path class="st2" d="M104.3 130.9l1.1 54.6-54.6-9.8-1.1-54.6zm-54.6-9.8l22-17.3 54.4 9.8-21.8 17.3z"/><path class="st2" d="M48.9 120.1l56.3 10.1 1.1 56.5L50 176.6l-1.1-56.5zm56.5 65.4l-1.1-54.6-54.6-9.8 1.1 54.6 54.6 9.8m-56.5-65.4l21.9-17.4 56.2 10.2-21.8 17.2z"/><path class="st2" d="M105.2 130.1l21.8-17.2 1.2 56.4-21.9 17.3z"/></g></g><g class="st0"><g class="st1"><path class="st2" d="M256.9 136.2l56.3 10.1 1.1 56.5-56.3-10.2-1.1-56.4zm56.5 65.4l-1.1-54.6-54.6-9.8 1.1 54.6 54.6 9.8"/><path class="st2" d="M312.3 147.1l1.1 54.5-54.6-9.8-1-54.5zm-76.1 62.7l-1.2-56.3 21.9-17.3 1.1 56.4z"/><path class="st2" d="M235.9 154.6l21.9-17.3 1 54.5-21.9 17.4z"/><path class="st2" d="M236.9 209.2l-1-54.6 21.9-17.3 1 54.5zm55.5 10.8l-56.2-10.2 21.8-17.2 56.3 10.1z"/><path class="st2" d="M236.9 209.2l21.9-17.4 54.6 9.8-21.9 17.3z"/><path class="st2" d="M291.5 218.9l-54.6-9.7 21.9-17.4 54.6 9.8zm-1.1-54.5l-54.5-9.8 21.9-17.3 54.5 9.8z"/><path class="st2" d="M291.5 218.9l-1.1-54.5 21.9-17.3 1.1 54.5z"/><path class="st2" d="M290.4 164.4l21.9-17.3 1.1 54.5-21.9 17.3z"/><path class="st2" d="M290.4 164.4l1.1 54.5-54.6-9.7-1-54.6zm-54.5-9.8l21.9-17.3 54.5 9.8-21.9 17.3z"/><path class="st2" d="M235 153.5l56.3 10.1 1.1 56.5-56.3-10.1-1.1-56.5zm56.5 65.4l-1.1-54.6-54.6-9.8 1.1 54.6 54.6 9.8"/><path class="st2" d="M235 153.5l21.9-17.3 56.2 10.1-21.8 17.3zm56.3 10.1l21.8-17.3 1.2 56.4-21.9 17.3z"/></g></g><g class="st0"><g class="st1"><path class="st2" d="M250 136.2l1.1 54.6-54.5-9.9-1.1-54.6z"/><path class="st2" d="M194.7 125.3l56.3 10.1 1.1 56.4-56.3-10.1-1.1-56.4zm56.4 65.5l-1.1-54.6-54.6-9.8 1.1 54.6 54.6 9.8"/><path class="st2" d="M173.9 199l-1.1-56.5 21.9-17.2 1 56.4z"/><path class="st2" d="M173.6 143.6l21.9-17.3 1.1 54.6-21.8 17.3z"/><path class="st2" d="M174.8 198.2l-1.2-54.6 21.9-17.3 1.1 54.6zm55.3 10.9L173.9 199l21.8-17.3 56.4 10.1z"/><path class="st2" d="M174.8 198.2l21.8-17.3 54.5 9.9-21.8 17.3z"/><path class="st2" d="M229.3 208.1l-54.5-9.9 21.8-17.3 54.5 9.9zm-1.1-54.6l-54.6-9.9 21.9-17.3 54.5 9.9z"/><path class="st2" d="M229.3 208.1l-1.1-54.6 21.8-17.3 1.1 54.6z"/><path class="st2" d="M228.2 153.5l21.8-17.3 1.1 54.6-21.8 17.3z"/><path class="st2" d="M228.2 153.5l1.1 54.6-54.5-9.9-1.2-54.6z"/><path class="st2" d="M173.6 143.6l21.9-17.3 54.5 9.9-21.8 17.3z"/><path class="st2" d="M172.8 142.5l56.3 10.1 1.1 56.4-56.3-10.1-1.1-56.4zm56.5 65.6l-1.1-54.6-54.6-9.8 1.1 54.6 54.6 9.8"/><path class="st2" d="M172.8 142.5l21.9-17.2 56.2 10.1-21.8 17.3z"/><path class="st2" d="M229.1 152.7l21.8-17.3 1.2 56.4-22 17.3z"/></g></g><g class="st0"><g class="st1"><path class="st2" d="M187.5 124.9l1.1 54.6-54.5-9.8-1.2-54.6z"/><path class="st2" d="M132 114l56.3 10.1 1.1 56.5-56.2-10.2L132 114zm56.6 65.5l-1.1-54.6-54.6-9.8 1.1 54.6 54.6 9.8"/><path class="st2" d="M111.3 187.7l-1.1-56.4L132 114l1.2 56.4z"/><path class="st2" d="M111.1 132.4l21.8-17.3 1.2 54.6-21.9 17.3z"/><path class="st2" d="M112.2 187l-1.1-54.6 21.8-17.3 1.2 54.6z"/><path class="st2" d="M167.6 197.9l-56.3-10.2 21.9-17.3 56.2 10.2z"/><path class="st2" d="M112.2 187l21.9-17.3 54.5 9.8-21.9 17.3z"/><path class="st2" d="M166.7 196.8l-54.5-9.8 21.9-17.3 54.5 9.8zm-1-54.6l-54.6-9.8 21.8-17.3 54.6 9.8z"/><path class="st2" d="M165.7 142.2l1 54.6-54.5-9.8-1.1-54.6z"/><path class="st2" d="M166.7 196.8l-1-54.6 21.8-17.3 1.1 54.6z"/><path class="st2" d="M165.7 142.2l21.8-17.3 1.1 54.6-21.9 17.3z"/><path class="st2" d="M111.1 132.4l21.8-17.3 54.6 9.8-21.8 17.3z"/><path class="st2" d="M110.2 131.3l56.3 10.1 1.1 56.5-56.3-10.1-1.1-56.5zm56.5 65.5l-1.1-54.6-54.6-9.8 1.1 54.6 54.6 9.8m-56.5-65.5L132 114l56.4 10.1-21.8 17.3z"/><path class="st2" d="M166.6 141.4l21.8-17.3 1 56.5-21.8 17.3z"/></g></g><g class="st0"><g class="st1"><path class="st2" d="M69.5 41.4l56.3 10.1 1.1 56.5-56.3-10.1-1.1-56.5zm56.5 65.5l-1-54.6-54.6-9.8 1.1 54.6 54.5 9.8"/><path class="st2" d="M125 52.3l1 54.6-54.5-9.8-1.1-54.6zm-76.2 62.9l-1.1-56.5 21.8-17.3 1.1 56.5z"/><path class="st2" d="M48.6 59.8l21.8-17.3 1.1 54.6-21.9 17.3z"/><path class="st2" d="M49.6 114.4l-1-54.6 21.8-17.3 1.1 54.6zm55.5 10.9l-56.3-10.1 21.8-17.3 56.3 10.1z"/><path class="st2" d="M49.6 114.4l21.9-17.3 54.5 9.8-21.8 17.3z"/><path class="st2" d="M104.2 124.2l-54.6-9.8 21.9-17.3 54.5 9.8zm-1-54.6l-54.6-9.8 21.8-17.3 54.6 9.8z"/><path class="st2" d="M104.2 124.2l-1-54.6L125 52.3l1 54.6z"/><path class="st2" d="M103.2 69.6L125 52.3l1 54.6-21.8 17.3z"/><path class="st2" d="M103.2 69.6l1 54.6-54.6-9.8-1-54.6z"/><path class="st2" d="M48.6 59.8l21.8-17.3 54.6 9.8-21.8 17.3z"/><path class="st2" d="M47.7 58.7L104 68.8l1.1 56.5-56.3-10.1-1.1-56.5zm56.5 65.5l-1.1-54.6-54.6-9.8 1.1 54.6 54.6 9.8M47.7 58.7l21.8-17.3 56.3 10.2-21.9 17.3z"/><path class="st2" d="M103.9 68.9l21.9-17.3 1.1 56.4-21.8 17.3z"/></g></g><g class="st0"><g class="st1"><path class="st2" d="M311.1 85.7l1.1 54.6-54.6-9.8-1.1-54.6z"/><path class="st2" d="M255.6 74.9l56.4 10 1.1 56.5-56.3-10.1-1.2-56.4zm56.6 65.4l-1.1-54.6-54.6-9.8 1.1 54.6 54.6 9.8"/><path class="st2" d="M234.9 148.6l-1.1-56.4 21.8-17.3 1.1 56.4z"/><path class="st2" d="M234.7 93.3l21.8-17.4 1.1 54.6-21.8 17.3z"/><path class="st2" d="M235.8 147.8l-1.1-54.5 21.8-17.4 1.1 54.6zm55.4 10.9l-56.3-10.1 21.8-17.3 56.3 10.1z"/><path class="st2" d="M235.8 147.8l21.8-17.3 54.6 9.8-21.9 17.3z"/><path class="st2" d="M290.3 157.6l-54.5-9.8 21.8-17.3 54.6 9.8zm-1-54.6l-54.6-9.7 21.8-17.4 54.6 9.8z"/><path class="st2" d="M289.3 103l1 54.6-54.5-9.8-1.1-54.5z"/><path class="st2" d="M290.3 157.6l-1-54.6 21.8-17.3 1.1 54.6z"/><path class="st2" d="M289.3 103l21.8-17.3 1.1 54.6-21.9 17.3z"/><path class="st2" d="M234.7 93.3l21.8-17.4 54.6 9.8-21.8 17.3z"/><path class="st2" d="M233.8 92.2l56.3 10.1 1.1 56.5-56.3-10.1-1.1-56.5zm56.5 65.4l-1.1-54.6-54.6-9.8 1.1 54.6 54.6 9.8"/><path class="st2" d="M233.8 92.2l21.8-17.3L312 85l-21.9 17.3z"/><path class="st2" d="M290.1 102.3L312 85l1 56.4-21.8 17.3z"/></g></g><g class="st0"><g class="st1"><path class="st2" d="M248.9 74.9l1 54.5-54.6-9.7-1-54.6z"/><path class="st2" d="M193.4 64l56.3 10.1 1.1 56.5-56.3-10.1-1.1-56.5zm56.5 65.4l-1.1-54.6-54.6-9.8 1.1 54.6 54.6 9.8"/><path class="st2" d="M172.7 137.7l-1.1-56.4L193.4 64l1.1 56.4z"/><path class="st2" d="M172.5 82.3l21.8-17.2 1 54.6-21.8 17.2z"/><path class="st2" d="M173.5 136.9l-1-54.6 21.8-17.2 1 54.6zm55.5 10.9l-56.3-10.1 21.8-17.3 56.3 10.1z"/><path class="st2" d="M173.5 136.9l21.8-17.2 54.6 9.7-21.8 17.4z"/><path class="st2" d="M228.1 146.8l-54.6-9.9 21.8-17.2 54.6 9.7zM227 92.2l-54.5-9.9 21.8-17.2 54.6 9.8z"/><path class="st2" d="M227 92.2l1.1 54.6-54.6-9.9-1-54.6z"/><path class="st2" d="M228.1 146.8L227 92.2l21.9-17.3 1 54.5z"/><path class="st2" d="M227 92.2l21.9-17.3 1 54.5-21.8 17.4zm-54.5-9.9l21.8-17.2 54.6 9.8L227 92.2z"/><path class="st2" d="M171.6 81.3l56.2 10.1 1.1 56.5-56.3-10.1-1-56.5zm56.5 65.5L227 92.2l-54.6-9.8 1.1 54.6 54.6 9.8"/><path class="st2" d="M171.6 81.3L193.4 64l56.3 10.1-21.9 17.3zm56.2 10.1l21.9-17.3 1.1 56.4-21.8 17.3z"/></g></g><g class="st0"><g class="st1"><path class="st2" d="M186.3 63.6l1.1 54.6-54.6-9.8-1-54.6z"/><path class="st2" d="M130.9 52.7l56.2 10.1 1.1 56.5-56.3-10.1-1-56.5zm56.5 65.5l-1.1-54.6-54.6-9.8 1.1 54.6 54.6 9.8m-77.3 8.2L109 70l21.9-17.3 1 56.5z"/><path class="st2" d="M109.9 71.1l21.9-17.3 1 54.6-21.8 17.3z"/><path class="st2" d="M111 125.7l-1.1-54.6 21.9-17.3 1 54.6z"/><path class="st2" d="M166.4 136.6l-56.3-10.2 21.8-17.2 56.4 10.1z"/><path class="st2" d="M111 125.7l21.8-17.3 54.6 9.8-21.9 17.3z"/><path class="st2" d="M165.5 135.5l-54.5-9.8 21.8-17.3 54.6 9.8zm-1.1-54.6l-54.5-9.8 21.9-17.3 54.5 9.8z"/><path class="st2" d="M165.5 135.5l-1.1-54.6 21.9-17.3 1.1 54.6z"/><path class="st2" d="M164.4 80.9l21.9-17.3 1.1 54.6-21.9 17.3zm-54.5-9.8l21.9-17.3 54.5 9.8-21.9 17.3z"/><path class="st2" d="M109 70l56.3 10.1 1.1 56.5-56.4-10.1-1-56.5zm56.5 65.5l-1.1-54.6-54.6-9.8 1.1 54.6 54.6 9.8"/><path class="st2" d="M164.4 80.9l1.1 54.6-54.5-9.8-1.1-54.6zM109 70l21.9-17.3 56.2 10.1-21.8 17.3z"/><path class="st2" d="M165.3 80.1l21.8-17.3 1.2 56.5-21.9 17.3z"/></g></g><g class="st0"><g class="st1"><path class="st2" d="M90.2 268.2l1 54.6-54.4-9.8-1.2-54.6z"/><path class="st2" d="M34.7 257.3L91 267.4l1.1 56.5-56.2-10.2-1.2-56.4zm56.5 65.5l-1.1-54.6-54.6-9.8 1.1 54.6 54.6 9.8"/><path class="st2" d="M14.1 331l-1.2-56.4 21.8-17.3 1.2 56.4z"/><path class="st2" d="M13.8 275.6l21.8-17.2 1.2 54.6-22 17.3z"/><path class="st2" d="M14.8 330.3l-1-54.7 21.8-17.2 1.2 54.6z"/><path class="st2" d="M70.3 341.2L14.1 331l21.8-17.3 56.2 10.2z"/><path class="st2" d="M14.8 330.3l22-17.3 54.4 9.8-21.8 17.3z"/><path class="st2" d="M69.4 340.1l-54.6-9.8 22-17.3 54.4 9.8zm-1-54.6l-54.6-9.9 21.8-17.2 54.6 9.8z"/><path class="st2" d="M69.4 340.1l-1-54.6 21.8-17.3 1 54.6z"/><path class="st2" d="M68.4 285.5l21.8-17.3 1 54.6-21.8 17.3z"/><path class="st2" d="M68.4 285.5l1 54.6-54.6-9.8-1-54.7z"/><path class="st2" d="M13.8 275.6l21.8-17.2 54.6 9.8-21.8 17.3z"/><path class="st2" d="M12.9 274.6l56.3 10.1 1.1 56.5L14.1 331l-1.2-56.4zm56.5 65.5l-1.1-54.6-54.6-9.8 1.1 54.6 54.6 9.8m-56.5-65.5l21.8-17.3L91 267.4l-21.8 17.3z"/><path class="st2" d="M69.2 284.7L91 267.4l1.1 56.5-21.8 17.3z"/></g></g><g class="st0"><g class="st1"><path class="st2" d="M276.3 301.6l1.1 54.6-54.5-9.9-1.2-54.6z"/><path class="st2" d="M220.8 290.7l56.3 10.1 1.1 56.5-56.2-10.2-1.2-56.4zm56.6 65.5l-1.1-54.6-54.6-9.8 1.1 54.6 54.6 9.8m-77.3 8.2l-1.1-56.5 21.8-17.2 1.2 56.4z"/><path class="st2" d="M199.9 309l21.8-17.3 1.2 54.6-21.9 17.3z"/><path class="st2" d="M201 363.6l-1.1-54.6 21.8-17.3 1.2 54.6zm55.4 10.9l-56.3-10.1 21.9-17.3 56.2 10.2z"/><path class="st2" d="M201 363.6l21.9-17.3 54.5 9.9-21.9 17.3z"/><path class="st2" d="M255.5 373.5l-54.5-9.9 21.9-17.3 54.5 9.9zm-1-54.6l-54.6-9.9 21.8-17.3 54.6 9.9z"/><path class="st2" d="M254.5 318.9l21.8-17.3 1.1 54.6-21.9 17.3z"/><path class="st2" d="M199.9 309l21.8-17.3 54.6 9.9-21.8 17.3z"/><path class="st2" d="M199 307.9l56.3 10.1 1.1 56.5-56.3-10.1-1.1-56.5zm56.5 65.6l-1.1-54.6-54.6-9.8 1.1 54.6 54.6 9.8"/><path class="st2" d="M254.5 318.9l1 54.6-54.5-9.9-1.1-54.6zm-55.5-11l21.8-17.2 56.4 10.1-21.9 17.3zm56.3 10.2l21.9-17.3 1 56.5-21.8 17.2z"/></g></g><g class="st0"><g class="st1"><path class="st2" d="M158.6 279.8l56.3 10.1 1.1 56.5-56.3-10.1-1.1-56.5zm56.5 65.4l-1.1-54.6-54.6-9.8 1.1 54.6 54.6 9.8"/><path class="st2" d="M214.1 290.6l1 54.6-54.5-9.8-1.1-54.5zM138 353.5l-1.2-56.4 21.8-17.3 1.2 56.4z"/><path class="st2" d="M137.7 298.2l21.8-17.3 1.1 54.5-21.9 17.3z"/><path class="st2" d="M138.7 352.7l-1-54.5 21.8-17.3 1.1 54.5zm55.5 10.9L138 353.5l21.8-17.3 56.2 10.1z"/><path class="st2" d="M138.7 352.7l21.9-17.3 54.5 9.8-21.8 17.3z"/><path class="st2" d="M193.3 362.5l-54.6-9.8 21.9-17.3 54.5 9.8zm-1.1-54.6l-54.5-9.7 21.8-17.3 54.6 9.7z"/><path class="st2" d="M193.3 362.5l-1.1-54.6 21.9-17.3 1 54.6z"/><path class="st2" d="M192.2 307.9l21.9-17.3 1 54.6-21.8 17.3z"/><path class="st2" d="M137.7 298.2l21.8-17.3 54.6 9.7-21.9 17.3z"/><path class="st2" d="M136.8 297.1l56.3 10.1 1.1 56.5-56.3-10.1-1.1-56.5zm56.5 65.4l-1.1-54.6-54.6-9.8 1.1 54.6 54.6 9.8"/><path class="st2" d="M192.2 307.9l1.1 54.6-54.6-9.8-1-54.5zm-55.4-10.8l21.8-17.3 56.3 10.1-21.8 17.3zm56.3 10.1l21.8-17.3 1.1 56.4-21.8 17.3z"/></g></g><g class="st0"><g class="st1"><path class="st2" d="M96.1 268.5l56.3 10.1 1.1 56.5L97.1 325l-1-56.5zm56.5 65.6l-1.1-54.6-54.5-9.9 1.1 54.6 54.5 9.9"/><path class="st2" d="M151.5 279.4l1.1 54.7-54.6-9.9-1-54.6zm-76.2 62.9l-1-56.5 21.8-17.3 1.1 56.5z"/><path class="st2" d="M75.1 286.9L97 269.6l1 54.6-21.8 17.3z"/><path class="st2" d="M76.2 341.5l-1.1-54.6L97 269.6l1 54.6zm55.5 10.8l-56.4-10L97.2 325l56.3 10z"/><path class="st2" d="M76.2 341.5L98 324.2l54.6 9.9-21.8 17.2z"/><path class="st2" d="M130.8 351.3l-54.6-9.8L98 324.2l54.6 9.9zm-1.1-54.6l-54.6-9.8L97 269.6l54.5 9.8z"/><path class="st2" d="M130.8 351.3l-1.1-54.6 21.8-17.3 1.1 54.7z"/><path class="st2" d="M129.7 296.7l21.8-17.3 1.1 54.7-21.8 17.2z"/><path class="st2" d="M75.1 286.9L97 269.6l54.5 9.8-21.8 17.3z"/><path class="st2" d="M74.3 285.8l56.3 10.1 1.1 56.5-56.3-10.1-1.1-56.5zm56.5 65.5l-1.1-54.6-54.6-9.8 1.1 54.6 54.6 9.8"/><path class="st2" d="M129.7 296.7l1.1 54.6-54.6-9.8-1.1-54.6zm-55.4-10.9l21.8-17.3 56.3 10.2-21.9 17.3zm56.2 10.2l21.9-17.3 1.1 56.3-21.8 17.3z"/></g></g><g class="st0"><g class="st1"><path class="st2" d="M33.6 196l56.3 10.1 1.1 56.5-56.3-10.1-1.1-56.5zm56.5 65.5L89 206.9l-54.6-9.8 1.1 54.6 54.6 9.8"/><path class="st2" d="M89 206.9l1.1 54.6-54.6-9.8-1.1-54.6zm-76.2 62.8l-1.2-56.4 22-17.3 1 56.4z"/><path class="st2" d="M12.6 214.4l21.8-17.3 1.1 54.6L13.7 269z"/><path class="st2" d="M13.7 269l-1.1-54.6 21.8-17.3 1.1 54.6z"/><path class="st2" d="M69.1 279.9l-56.3-10.2 21.8-17.3 56.3 10.2z"/><path class="st2" d="M13.7 269l21.8-17.3 54.6 9.8-21.9 17.3z"/><path class="st2" d="M68.2 278.8L13.7 269l21.8-17.3 54.6 9.8zm-1.1-54.6l-54.5-9.8 21.8-17.3 54.6 9.8z"/><path class="st2" d="M68.2 278.8l-1.1-54.6L89 206.9l1.1 54.6z"/><path class="st2" d="M67.1 224.2L89 206.9l1.1 54.6-21.9 17.3z"/><path class="st2" d="M67.1 224.2l1.1 54.6-54.5-9.8-1.1-54.6z"/><path class="st2" d="M12.6 214.4l21.8-17.3 54.6 9.8-21.9 17.3z"/><path class="st2" d="M11.6 213.3L68 223.4l1.1 56.5-56.2-10.2-1.3-56.4zm56.6 65.5l-1.1-54.6-54.5-9.8 1.1 54.6 54.5 9.8"/><path class="st2" d="M11.6 213.3l22-17.3 56.2 10.1L68 223.4z"/><path class="st2" d="M68 223.4l21.8-17.3 1.1 56.5-21.8 17.3z"/></g></g><g class="st0"><g class="st1"><path class="st2" d="M219.7 229.4l56.3 10.1 1.1 56.5-56.3-10.1-1.1-56.5zm56.5 65.5l-1.1-54.6-54.6-9.8 1.1 54.6 54.6 9.8"/><path class="st2" d="M275.1 240.3l1.1 54.6-54.6-9.8-1.1-54.6zm-76.2 62.8l-1-56.4 21.8-17.3 1 56.4z"/><path class="st2" d="M198.7 247.7l21.8-17.2 1.1 54.6-21.8 17.2z"/><path class="st2" d="M199.8 302.3l-1.1-54.6 21.8-17.2 1.1 54.6z"/><path class="st2" d="M255.2 313.3l-56.3-10.2 21.8-17.3 56.4 10.2z"/><path class="st2" d="M199.8 302.3l21.8-17.2 54.6 9.8-21.9 17.3z"/><path class="st2" d="M254.3 312.2l-54.5-9.9 21.8-17.2 54.6 9.8zm-1.1-54.6l-54.5-9.9 21.8-17.2 54.6 9.8z"/><path class="st2" d="M254.3 312.2l-1.1-54.6 21.9-17.3 1.1 54.6z"/><path class="st2" d="M253.2 257.6l21.9-17.3 1.1 54.6-21.9 17.3z"/><path class="st2" d="M198.7 247.7l21.8-17.2 54.6 9.8-21.9 17.3z"/><path class="st2" d="M197.9 246.7l56.3 10.1 1.1 56.5-56.3-10.1-1.1-56.5zm56.4 65.5l-1.1-54.6-54.6-9.8 1.1 54.6 54.6 9.8"/><path class="st2" d="M253.2 257.6l1.1 54.6-54.5-9.9-1.1-54.6zm-55.3-10.9l21.8-17.3 56.2 10.1-21.8 17.3zm56.2 10.1l21.8-17.3 1.2 56.5-21.9 17.3z"/></g></g><g class="st0"><g class="st1"><path class="st2" d="M157.4 218.5l56.3 10.1 1.1 56.4-56.3-10.1-1.1-56.4zm56.6 65.4l-1.1-54.6-54.6-9.8 1.1 54.6 54.6 9.8"/><path class="st2" d="M212.9 229.3l1.1 54.6-54.6-9.8-1.1-54.6zm-76.2 62.9l-1.1-56.4 21.8-17.3 1.1 56.4z"/><path class="st2" d="M136.5 236.8l21.8-17.3 1.1 54.6-21.8 17.3z"/><path class="st2" d="M137.6 291.4l-1.1-54.6 21.8-17.3 1.1 54.6zm55.4 10.9l-56.3-10.1 21.8-17.3 56.3 10.1z"/><path class="st2" d="M137.6 291.4l21.8-17.3 54.6 9.8-22 17.3z"/><path class="st2" d="M192 301.2l-54.4-9.8 21.8-17.3 54.6 9.8zm-1-54.6l-54.5-9.8 21.8-17.3 54.6 9.8z"/><path class="st2" d="M192 301.2l-1-54.6 21.9-17.3 1.1 54.6z"/><path class="st2" d="M191 246.6l21.9-17.3 1.1 54.6-22 17.3z"/><path class="st2" d="M136.5 236.8l21.8-17.3 54.6 9.8-21.9 17.3z"/><path class="st2" d="M135.6 235.8l56.3 10.1 1.1 56.4-56.3-10-1.1-56.5zm56.4 65.4l-1.1-54.6-54.6-9.8 1.1 54.6 54.6 9.8"/><path class="st2" d="M191 246.6l1 54.6-54.4-9.8-1.1-54.6zm-55.4-10.8l21.8-17.3 56.3 10.1-21.8 17.3zm56.3 10.1l21.8-17.3 1.1 56.4-21.8 17.3z"/></g></g><g class="st0"><g class="st1"><path class="st2" d="M150.3 218.2l1 54.5-54.4-9.8-1.1-54.6z"/><path class="st2" d="M94.8 207.3l56.3 10.1 1.1 56.4L96 263.6l-1.2-56.3zm56.5 65.4l-1.1-54.6-54.6-9.8 1.1 54.6 54.6 9.8"/><path class="st2" d="M74.2 280.9L73 224.5l21.8-17.2 1.2 56.3z"/><path class="st2" d="M73.9 225.6l21.9-17.3 1.1 54.6-22 17.3z"/><path class="st2" d="M74.9 280.2l-1-54.6 21.9-17.3 1.1 54.6z"/><path class="st2" d="M130.4 291l-56.2-10.1L96 263.6l56.3 10.1z"/><path class="st2" d="M74.9 280.2l22-17.3 54.4 9.8-21.8 17.3z"/><path class="st2" d="M129.5 290l-54.6-9.8 22-17.3 54.4 9.8zm-1-54.5l-54.6-9.9 21.9-17.3 54.5 9.9z"/><path class="st2" d="M129.5 290l-1-54.5 21.8-17.3 1 54.5z"/><path class="st2" d="M128.5 235.5l21.8-17.3 1 54.5-21.8 17.3z"/><path class="st2" d="M128.5 235.5l1 54.5-54.6-9.8-1-54.6z"/><path class="st2" d="M73.9 225.6l21.9-17.3 54.5 9.9-21.8 17.3z"/><path class="st2" d="M73 224.5l56.3 10.1 1.1 56.4-56.3-10.1-1.1-56.4zm56.5 65.5l-1.1-54.6-54.6-9.8 1.1 54.6 54.6 9.8"/><path class="st2" d="M73 224.5l21.8-17.2 56.3 10.1-21.8 17.3z"/><path class="st2" d="M129.3 234.7l21.8-17.3 1.2 56.3-21.9 17.3z"/></g></g><g class="st0"><g class="st1"><path class="st2" d="M33.1 134.5l56.3 10.1 1.1 56.5L34.1 191l-1-56.5zM89.5 200l-1.1-54.6-54.5-9.8 1.1 54.6 54.5 9.8"/><path class="st2" d="M88.4 145.4l1.2 54.6-54.6-9.8-1.1-54.6zm-76.1 62.8l-1.1-56.4 21.9-17.3 1 56.4z"/><path class="st2" d="M12 152.9l21.9-17.3 1.1 54.6-21.8 17.3z"/><path class="st2" d="M13.2 207.5L12 152.9l21.9-17.3 1.1 54.6z"/><path class="st2" d="M68.6 218.4l-56.3-10.2 21.8-17.3L90.5 201z"/><path class="st2" d="M13.2 207.5L35 190.2l54.5 9.8-21.8 17.3z"/><path class="st2" d="M67.7 217.3l-54.5-9.8L35 190.2l54.6 9.8zm-1.1-54.6L12 152.9l21.9-17.3 54.5 9.8z"/><path class="st2" d="M67.7 217.3l-1.1-54.6 21.8-17.3 1.1 54.6z"/><path class="st2" d="M66.6 162.7l21.8-17.3 1.2 54.6-21.9 17.3z"/><path class="st2" d="M66.6 162.7l1.1 54.6-54.5-9.8-1.2-54.6z"/><path class="st2" d="M12 152.9l21.9-17.3 54.5 9.8-21.8 17.3z"/><path class="st2" d="M11.2 151.8l56.3 10.1 1.1 56.5-56.2-10.2-1.2-56.4zm56.5 65.5l-1.1-54.6-54.6-9.8 1.1 54.6 54.6 9.8m-56.5-65.5l21.9-17.3 56.2 10.1-21.8 17.3z"/><path class="st2" d="M67.5 161.9l21.8-17.3 1.2 56.4-21.9 17.4z"/></g></g><g class="st0"><g class="st1"><path class="st2" d="M219.2 167.9l56.3 10.1 1.1 56.4-56.3-10.1-1.1-56.4zm56.5 65.5l-1.1-54.6L220 169l1.1 54.6 54.6 9.8"/><path class="st2" d="M274.5 178.8l1.2 54.6-54.6-9.8-1-54.6zm-76.1 62.8l-1.1-56.4 21.9-17.3 1.1 56.4z"/><path class="st2" d="M198.2 186.2l21.9-17.2 1 54.6-21.9 17.2z"/><path class="st2" d="M199.2 240.8l-1-54.6 21.9-17.2 1 54.6zm55.5 10.9l-56.3-10.1 21.9-17.3 56.3 10.2z"/><path class="st2" d="M199.2 240.8l21.9-17.2 54.6 9.8-21.9 17.3z"/><path class="st2" d="M253.8 250.7l-54.6-9.9 21.9-17.2 54.6 9.8zm-1.1-54.6l-54.5-9.9 21.9-17.2 54.4 9.8z"/><path class="st2" d="M253.8 250.7l-1.1-54.6 21.8-17.3 1.2 54.6z"/><path class="st2" d="M252.7 196.1l21.8-17.3 1.2 54.6-21.9 17.3z"/><path class="st2" d="M252.7 196.1l1.1 54.6-54.6-9.9-1-54.6z"/><path class="st2" d="M198.2 186.2l21.9-17.2 54.4 9.8-21.8 17.3z"/><path class="st2" d="M197.3 185.2l56.3 10.1 1.1 56.4-56.2-10.1-1.2-56.4zm56.5 65.5l-1.1-54.6-54.6-9.8 1.1 54.6 54.6 9.8"/><path class="st2" d="M197.3 185.2l21.9-17.3 56.2 10.1-21.8 17.3z"/><path class="st2" d="M253.6 195.3l21.8-17.3 1.2 56.5-21.9 17.2z"/></g></g><g class="st0"><g class="st1"><path class="st2" d="M212.4 167.8l1.1 54.6-54.6-9.8-1.1-54.6z"/><path class="st2" d="M157 156.9l56.3 10.1 1.1 56.4-56.3-10-1.1-56.5zm56.5 65.5l-1.1-54.6-54.6-9.8 1.1 54.6 54.6 9.8"/><path class="st2" d="M136.2 230.7l-1.2-56.5 22-17.3 1 56.5z"/><path class="st2" d="M135.9 175.3l21.9-17.3 1.1 54.6-21.8 17.3z"/><path class="st2" d="M137.1 229.9l-1.2-54.6 21.9-17.3 1.1 54.6zm55.3 10.9l-56.2-10.1 21.8-17.3 56.3 10.1z"/><path class="st2" d="M137.1 229.9l21.8-17.3 54.6 9.8-21.9 17.3z"/><path class="st2" d="M191.6 239.7l-54.5-9.8 21.8-17.3 54.6 9.8zm-1.1-54.6l-54.6-9.8 21.9-17.3 54.6 9.8z"/><path class="st2" d="M191.6 239.7l-1.1-54.6 21.9-17.3 1.1 54.6z"/><path class="st2" d="M190.5 185.1l21.9-17.3 1.1 54.6-21.9 17.3z"/><path class="st2" d="M190.5 185.1l1.1 54.6-54.5-9.8-1.2-54.6z"/><path class="st2" d="M135.9 175.3l21.9-17.3 54.6 9.8-21.9 17.3z"/><path class="st2" d="M135 174.2l56.3 10.1 1.1 56.4-56.2-10-1.2-56.5zm56.6 65.5l-1.1-54.6-54.6-9.8 1.1 54.6 54.6 9.8"/><path class="st2" d="M135 174.2l22-17.3 56.2 10.2-21.8 17.3zm56.4 10.2l21.8-17.3 1.1 56.4-21.9 17.3z"/></g></g><g class="st0"><g class="st1"><path class="st2" d="M149.8 156.6l1 54.6-54.4-9.9-1.2-54.5z"/><path class="st2" d="M94.3 145.8l56.3 10.1 1.1 56.5-56.3-10.1-1.1-56.5zm56.5 65.4l-1.1-54.6-54.6-9.8 1.1 54.6 54.6 9.8"/><path class="st2" d="M73.6 219.4L72.5 163l21.8-17.2 1.2 56.3z"/><path class="st2" d="M73.4 164.1l21.8-17.3 1.2 54.5-21.9 17.3z"/><path class="st2" d="M74.5 218.6l-1.1-54.5 21.8-17.3 1.2 54.5zm55.4 10.9l-56.3-10.1 21.9-17.3 56.2 10.1z"/><path class="st2" d="M74.5 218.6l21.9-17.3 54.4 9.9-21.8 17.3z"/><path class="st2" d="M129 228.5l-54.5-9.9 21.9-17.3 54.4 9.9zm-1-54.6l-54.6-9.8 21.8-17.3 54.6 9.8z"/><path class="st2" d="M129 228.5l-1-54.6 21.8-17.3 1 54.6z"/><path class="st2" d="M128 173.9l21.8-17.3 1 54.6-21.8 17.3z"/><path class="st2" d="M128 173.9l1 54.6-54.5-9.9-1.1-54.5z"/><path class="st2" d="M73.4 164.1l21.8-17.3 54.6 9.8-21.8 17.3z"/><path class="st2" d="M72.5 163l56.3 10.1 1.1 56.5-56.3-10.1-1.1-56.5zm56.5 65.5l-1.1-54.6-54.6-9.8 1.1 54.6 54.6 9.8M72.5 163l21.8-17.2 56.4 10.1-21.9 17.3z"/><path class="st2" d="M128.8 173.2l21.9-17.3 1 56.3-21.8 17.3z"/></g></g><g class="st0"><g class="st1"><path class="st2" d="M31.8 73.2l56.3 10.1 1.1 56.4-56.3-10.1-1.1-56.4zm56.5 65.4L87.2 84l-54.6-9.8 1.1 54.6 54.6 9.8"/><path class="st2" d="M87.3 84.1l1 54.5-54.6-9.7-1-54.6zm-76.2 62.8L10 90.5l21.8-17.3 1.1 56.4z"/><path class="st2" d="M10.9 91.6l21.8-17.3 1 54.6-21.8 17.3z"/><path class="st2" d="M11.9 146.2l-1-54.6 21.8-17.3 1 54.6zM67.4 157l-56.3-10.1 21.8-17.3 56.3 10.1z"/><path class="st2" d="M11.9 146.2l21.8-17.3 54.6 9.7L66.5 156z"/><path class="st2" d="M66.5 156l-54.6-9.8 21.8-17.3 54.6 9.7zm-1.1-54.6l-54.5-9.8 21.8-17.3 54.6 9.8z"/><path class="st2" d="M66.5 156l-1.1-54.6 21.9-17.3 1 54.5z"/><path class="st2" d="M65.4 101.4l21.9-17.3 1 54.5L66.5 156z"/><path class="st2" d="M65.4 101.4l1.1 54.6-54.6-9.8-1-54.6zm-54.5-9.8l21.8-17.3 54.6 9.8-21.9 17.3z"/><path class="st2" d="M10 90.5l56.3 10.1 1.1 56.4-56.3-10.1L10 90.5zM66.5 156l-1.1-54.6-54.6-9.8 1.1 54.6 54.6 9.8"/><path class="st2" d="M10 90.5l21.8-17.3 56.3 10.1-21.9 17.3zm56.2 10.1l21.9-17.3 1.1 56.4L67.4 157z"/></g></g><g class="st0"><g class="st1"><path class="st2" d="M273.4 117.5l1 54.6-54.5-9.8-1.1-54.6z"/><path class="st2" d="M217.9 106.6l56.3 10.1 1.1 56.5-56.2-10.2-1.2-56.4zm56.5 65.5l-1.1-54.6-54.6-9.8 1.1 54.6 54.6 9.8m-77.2 8.2l-1.1-56.4 21.8-17.3 1.2 56.4z"/><path class="st2" d="M197 124.9l21.8-17.2 1.1 54.6-21.8 17.3z"/><path class="st2" d="M198.1 179.6l-1.1-54.7 21.8-17.2 1.1 54.6z"/><path class="st2" d="M253.5 190.5l-56.3-10.2 21.9-17.3 56.2 10.2z"/><path class="st2" d="M198.1 179.6l21.8-17.3 54.5 9.8-21.8 17.3z"/><path class="st2" d="M252.6 189.4l-54.5-9.8 21.8-17.3 54.5 9.8zm-1-54.6l-54.6-9.9 21.8-17.2 54.6 9.8z"/><path class="st2" d="M252.6 189.4l-1-54.6 21.8-17.3 1 54.6z"/><path class="st2" d="M251.6 134.8l21.8-17.3 1 54.6-21.8 17.3z"/><path class="st2" d="M251.6 134.8l1 54.6-54.5-9.8-1.1-54.7z"/><path class="st2" d="M197 124.9l21.8-17.2 54.6 9.8-21.8 17.3z"/><path class="st2" d="M196.1 123.9l56.3 10.1 1.1 56.5-56.3-10.2-1.1-56.4zm56.5 65.5l-1.1-54.6L197 125l1.1 54.6 54.5 9.8"/><path class="st2" d="M196.1 123.9l21.8-17.3 56.4 10.1-22 17.3z"/><path class="st2" d="M252.3 134l22-17.3 1 56.5-21.8 17.3z"/></g></g><g class="st0"><g class="st1"><path class="st2" d="M211.1 106.5l1.1 54.7-54.6-9.9-1-54.6z"/><path class="st2" d="M155.7 95.6l56.3 10.1 1.1 56.5-56.3-10.1-1.1-56.5zm56.5 65.6l-1.1-54.6-54.6-9.8 1.1 54.6 54.6 9.8"/><path class="st2" d="M135 169.4l-1.1-56.5 21.8-17.3 1.2 56.5z"/><path class="st2" d="M134.8 114l21.8-17.3 1 54.6-21.8 17.3z"/><path class="st2" d="M135.8 168.6l-1-54.6 21.8-17.3 1 54.6zm55.5 10.9L135 169.4l21.9-17.3 56.2 10.1z"/><path class="st2" d="M135.8 168.6l21.8-17.3 54.6 9.9-21.8 17.2z"/><path class="st2" d="M190.4 178.4l-54.6-9.8 21.8-17.3 54.6 9.9zm-1.1-54.6l-54.5-9.8 21.8-17.3 54.5 9.8z"/><path class="st2" d="M190.4 178.4l-1.1-54.6 21.8-17.3 1.1 54.7z"/><path class="st2" d="M189.3 123.8l21.8-17.3 1.1 54.7-21.8 17.2z"/><path class="st2" d="M134.8 114l21.8-17.3 54.5 9.8-21.8 17.3z"/><path class="st2" d="M133.9 112.9l56.3 10.1 1.1 56.5-56.3-10.1-1.1-56.5zm56.5 65.5l-1.1-54.6-54.6-9.8 1.1 54.6 54.6 9.8"/><path class="st2" d="M189.3 123.8l1.1 54.6-54.6-9.8-1-54.6zm-55.4-10.9l21.8-17.3 56.3 10.2-21.9 17.3z"/><path class="st2" d="M190.1 123.1l21.9-17.3 1.1 56.4-21.8 17.3z"/></g></g><g class="st0"><g class="st1"><path class="st2" d="M148.6 95.3l1.1 54.6-54.6-9.8L94 85.5z"/><path class="st2" d="M93.2 84.5l56.3 10.1 1.1 56.4-56.3-10.1-1.1-56.4zm56.5 65.4l-1.1-54.6L94 85.5l1.1 54.6 54.6 9.8"/><path class="st2" d="M72.4 158.1l-1.1-56.3 21.9-17.3 1 56.3z"/><path class="st2" d="M72.2 102.7L94 85.5l1.1 54.6-21.8 17.2z"/><path class="st2" d="M73.3 157.3l-1.1-54.6L94 85.5l1.1 54.6z"/><path class="st2" d="M128.7 168.2l-56.3-10.1 21.8-17.3 56.4 10.2z"/><path class="st2" d="M73.3 157.3l21.8-17.2 54.6 9.8-21.9 17.3z"/><path class="st2" d="M127.8 167.2l-54.5-9.9 21.8-17.2 54.6 9.8zm-1.1-54.6l-54.5-9.9L94 85.5l54.6 9.8z"/><path class="st2" d="M126.7 112.6l21.9-17.3 1.1 54.6-21.9 17.3zm-54.5-9.9L94 85.5l54.6 9.8-21.9 17.3z"/><path class="st2" d="M71.3 101.8l56.3 10.1 1.1 56.4-56.3-10.1-1.1-56.4zm56.5 65.4l-1.1-54.6-54.6-9.8 1.1 54.6 54.6 9.8"/><path class="st2" d="M126.7 112.6l1.1 54.6-54.5-9.9-1.1-54.6zm.9-.7l21-16.6zm-56.3-10.1l21.9-17.3 56.2 10-21.8 17.3zm56.3 10l21.8-17.3 1.2 56.5-21.9 17.2z"/></g></g></svg>