<svg id="Layer_1" xmlns="http://www.w3.org/2000/svg" viewBox="0 0 361 381"><style>.st0{opacity:.7}.st1{enable-background:new}.st2{fill:#628cbe}.st3{fill:#6272c3}.st4{fill:#7a88cc}.st5{fill:#7a9ec8}.st6{fill:#7684ca}.st7{fill:#769ac7}.st8{fill:#ffd65d}.st9{fill:#fd7}.st10{fill:#ffdc72}</style><g class="st0"><g class="st1"><path class="st2" d="M164.3 201l1.1 55.2-56.3-10L108 191z"/><path class="st3" d="M107.1 190l58.1 10.2 1.1 57-58.1-10.2-1.1-57zm58.3 66.2l-1.1-55.2-56.3-10 1.1 55.2 56.3 10"/><path class="st4" d="M85.7 264.5l-1.1-57.1 22.5-17.4 1.1 57z"/><path class="st4" d="M85.5 208.5L108 191l1.1 55.2-22.5 17.5z"/><path class="st5" d="M86.6 263.7l-1.1-55.2L108 191l1.1 55.2z"/><path class="st6" d="M143.8 274.7l-58.1-10.2 22.5-17.5 58.1 10.2z"/><path class="st6" d="M86.6 263.7l22.5-17.5 56.3 10-22.5 17.5z"/><path class="st7" d="M142.9 273.7l-56.3-10 22.5-17.5 56.3 10z"/><path class="st6" d="M141.8 218.5l-56.3-10L108 191l56.3 10z"/><path class="st2" d="M141.8 218.5l1.1 55.2-56.3-10-1.1-55.2z"/><path class="st4" d="M142.9 273.7l-1.1-55.2 22.5-17.5 1.1 55.2z"/><path class="st5" d="M141.8 218.5l22.5-17.5 1.1 55.2-22.5 17.5z"/><path class="st7" d="M85.5 208.5L108 191l56.3 10-22.5 17.5z"/><path class="st3" d="M84.6 207.4l58.1 10.2 1.1 57-58.1-10.2-1.1-57zm58.3 66.3l-1.1-55.2-56.3-9.9 1.1 55.2 56.3 9.9"/><path class="st6" d="M84.6 207.4l22.5-17.4 58.1 10.2-22.6 17.5z"/><path class="st4" d="M142.6 217.7l22.6-17.5 1.1 57-22.5 17.5z"/></g></g><g class="st0"><g class="st1"><path class="st3" d="M299.1 223.7l58.1 10.2 1.1 57.1-58.1-10.2-1.1-57.1zm58.3 66.3l-1.1-55.2-56.3-9.9 1.1 55.2 56.3 9.9"/><path class="st2" d="M356.3 234.7l1.1 55.3-56.3-10-1.1-55.2z"/><path class="st4" d="M277.7 298.3l-1.1-57.1 22.5-17.5 1.2 57.1z"/><path class="st4" d="M277.5 242.3l22.5-17.5 1.1 55.2-22.5 17.5z"/><path class="st5" d="M278.6 297.5l-1.1-55.2 22.5-17.5 1.1 55.2z"/><path class="st6" d="M335.8 308.5l-58.1-10.2 22.6-17.5 58 10.2z"/><path class="st6" d="M278.6 297.5l22.5-17.5 56.3 10-22.5 17.4z"/><path class="st7" d="M334.9 307.4l-56.3-9.9 22.5-17.5 56.3 10z"/><path class="st6" d="M333.8 252.2l-56.3-9.9 22.5-17.5 56.3 9.9z"/><path class="st4" d="M334.9 307.4l-1.1-55.2 22.5-17.5 1.1 55.3z"/><path class="st5" d="M333.8 252.2l22.5-17.5 1.1 55.3-22.5 17.4z"/><path class="st2" d="M333.8 252.2l1.1 55.2-56.3-9.9-1.1-55.2z"/><path class="st7" d="M277.5 242.3l22.5-17.5 56.3 9.9-22.5 17.5z"/><path class="st3" d="M276.6 241.2l58.1 10.2 1.1 57.1-58.1-10.2-1.1-57.1zm58.3 66.2l-1.1-55.2-56.3-9.9 1.1 55.2 56.3 9.9"/><path class="st6" d="M276.6 241.2l22.5-17.5 58.1 10.3-22.6 17.5z"/><path class="st4" d="M334.6 251.5l22.6-17.5 1.1 57-22.5 17.5z"/></g></g><g class="st0"><g class="st1"><path class="st3" d="M234.9 212.7l58.1 10.2 1.1 57.1-58.1-10.2-1.1-57.1zm58.3 66.2l-1.1-55.2-56.3-9.9 1.1 55.2 56.3 9.9"/><path class="st2" d="M292.1 223.7l1.1 55.2-56.3-9.9-1.1-55.2z"/><path class="st4" d="M213.5 287.2l-1.1-57 22.5-17.5 1.2 57.1z"/><path class="st4" d="M213.3 231.3l22.5-17.5 1.1 55.2-22.5 17.5z"/><path class="st5" d="M214.4 286.5l-1.1-55.2 22.5-17.5 1.1 55.2z"/><path class="st6" d="M271.6 297.5l-58.1-10.3 22.6-17.4 58 10.2z"/><path class="st6" d="M214.4 286.5l22.5-17.5 56.3 9.9-22.5 17.5z"/><path class="st7" d="M270.7 296.4l-56.3-9.9 22.5-17.5 56.3 9.9z"/><path class="st6" d="M269.6 241.2l-56.3-9.9 22.5-17.5 56.3 9.9z"/><path class="st5" d="M269.6 241.2l22.5-17.5 1.1 55.2-22.5 17.5z"/><path class="st7" d="M213.3 231.3l22.5-17.5 56.3 9.9-22.5 17.5z"/><path class="st3" d="M212.4 230.2l58.1 10.2 1.1 57.1-58.1-10.2-1.1-57.1zm58.3 66.2l-1.1-55.2-56.3-9.9 1.1 55.2 56.3 9.9"/><path class="st2" d="M269.6 241.2l1.1 55.2-56.3-9.9-1.1-55.2z"/><path class="st4" d="M271.5 295.7l21.6-16.8-21.6 16.8zm-1.1-55.2l21.6-16.8-21.6 16.8z"/><path class="st6" d="M212.4 230.2l22.5-17.5 58.1 10.2-22.6 17.5z"/><path class="st4" d="M270.4 240.4l22.6-17.5 1.1 57.1-22.5 17.5z"/></g></g><g class="st0"><g class="st1"><path class="st2" d="M227.6 212.3l1.1 55.2-56.3-9.9-1.1-55.2z"/><path class="st3" d="M170.4 201.3l58.1 10.2 1.1 57-58.1-10.2-1.1-57zm58.3 66.2l-1.1-55.2-56.3-9.9 1.1 55.2 56.3 9.9"/><path class="st4" d="M149 275.9l-1.1-57.1 22.5-17.5 1.1 57.1z"/><path class="st4" d="M148.8 219.9l22.5-17.5 1.1 55.2-22.5 17.5z"/><path class="st5" d="M149.9 275.1l-1.1-55.2 22.5-17.5 1.1 55.2z"/><path class="st6" d="M207 286.1l-58-10.2 22.5-17.5 58.1 10.2z"/><path class="st6" d="M149.9 275.1l22.5-17.5 56.3 9.9-22.6 17.5z"/><path class="st7" d="M206.1 285l-56.2-9.9 22.5-17.5 56.3 9.9z"/><path class="st6" d="M205 229.8l-56.2-9.9 22.5-17.5 56.3 9.9z"/><path class="st4" d="M206.1 285l-1.1-55.2 22.6-17.5 1.1 55.2z"/><path class="st5" d="M205 229.8l22.6-17.5 1.1 55.2-22.6 17.5z"/><path class="st7" d="M148.8 219.9l22.5-17.5 56.3 9.9-22.6 17.5z"/><path class="st3" d="M147.9 218.8L206 229l1.1 57-58.1-10.1-1.1-57.1zm58.2 66.2l-1.1-55.2-56.3-9.9 1.1 55.2 56.3 9.9"/><path class="st2" d="M205 229.8l1.1 55.2-56.2-9.9-1.1-55.2z"/><path class="st6" d="M147.9 218.8l22.5-17.5 58 10.3-22.5 17.5z"/><path class="st4" d="M205.9 229.1l22.5-17.5 1.2 57-22.6 17.5z"/></g></g><g class="st0"><g class="st1"><path class="st3" d="M105.9 128l58.1 10.2 1.1 57.1L107 185l-1.1-57zm58.2 66.2L163 139l-56.3-9.9 1.1 55.2 56.3 9.9"/><path class="st2" d="M163 139l1.1 55.2-56.2-9.9-1.1-55.2z"/><path class="st4" d="M84.5 202.5l-1.2-57 22.6-17.5 1.1 57z"/><path class="st4" d="M84.2 146.5l22.6-17.4 1.1 55.2-22.6 17.4z"/><path class="st5" d="M85.3 201.7l-1.1-55.2 22.6-17.4 1.1 55.2z"/><path class="st6" d="M142.5 212.7l-58-10.2L107 185l58 10.3z"/><path class="st6" d="M85.3 201.7l22.6-17.4 56.2 9.9-22.5 17.5z"/><path class="st7" d="M141.6 211.7l-56.3-10 22.6-17.4 56.2 9.9z"/><path class="st6" d="M140.5 156.5l-56.3-10 22.6-17.4L163 139z"/><path class="st4" d="M141.6 211.7l-1.1-55.2L163 139l1.1 55.2z"/><path class="st5" d="M140.5 156.5L163 139l1.1 55.2-22.5 17.5z"/><path class="st2" d="M140.5 156.5l1.1 55.2-56.3-10-1.1-55.2z"/><path class="st7" d="M84.2 146.5l22.6-17.4L163 139l-22.5 17.5z"/><path class="st3" d="M83.3 145.5l58.1 10.2 1.1 57.1-58.1-10.2-1.1-57.1zm58.3 66.2l-1.1-55.2-56.3-9.9 1.1 55.2 56.3 9.9"/><path class="st6" d="M83.3 145.5l22.6-17.5 58 10.2-22.5 17.5z"/><path class="st4" d="M141.4 155.7l22.5-17.5 1.1 57.1-22.5 17.4z"/></g></g><g class="st0"><g class="st1"><path class="st3" d="M297.8 161.8l58.1 10.2 1.1 57-58-10.2-1.2-57zm58.3 66.2l-1.1-55.2-56.3-9.9 1.1 55.2 56.3 9.9"/><path class="st2" d="M355 172.8l1.1 55.2-56.2-10-1.1-55.2z"/><path class="st4" d="M276.5 236.3l-1.2-57.1 22.5-17.4 1.2 57z"/><path class="st4" d="M276.2 180.3l22.6-17.5 1.1 55.2-22.6 17.5z"/><path class="st5" d="M277.3 235.5l-1.1-55.2 22.6-17.5 1.1 55.2z"/><path class="st6" d="M334.5 246.5l-58-10.2 22.5-17.5 58.1 10.2z"/><path class="st6" d="M277.3 235.5l22.6-17.5 56.2 10-22.5 17.4z"/><path class="st7" d="M333.6 245.4l-56.3-9.9 22.6-17.5 56.2 10z"/><path class="st6" d="M332.5 190.2l-56.3-9.9 22.6-17.5 56.2 10z"/><path class="st4" d="M333.6 245.4l-1.1-55.2 22.5-17.4 1.1 55.2z"/><path class="st5" d="M332.5 190.2l22.5-17.4 1.1 55.2-22.5 17.4z"/><path class="st2" d="M332.5 190.2l1.1 55.2-56.3-9.9-1.1-55.2z"/><path class="st7" d="M276.2 180.3l22.6-17.5 56.2 10-22.5 17.4z"/><path class="st3" d="M275.3 179.2l58.1 10.2 1.1 57-58.1-10.2-1.1-57zm58.3 66.2l-1.1-55.2-56.3-9.9 1.1 55.2 56.3 9.9"/><path class="st6" d="M275.3 179.2l22.5-17.4 58.1 10.2-22.5 17.5z"/><path class="st4" d="M333.4 189.5l22.5-17.5 1.2 57-22.6 17.5z"/></g></g><g class="st0"><g class="st1"><path class="st2" d="M290.8 161.7l1.1 55.2-56.2-9.9-1.1-55.2z"/><path class="st3" d="M233.7 150.7l58.1 10.2 1.1 57-58.1-10.2-1.1-57zm58.2 66.2l-1.1-55.2-56.3-9.9 1.1 55.2 56.3 9.9"/><path class="st4" d="M212.3 225.2l-1.2-57 22.6-17.5 1.1 57.1z"/><path class="st4" d="M212 169.3l22.6-17.5 1.1 55.2-22.6 17.5z"/><path class="st5" d="M213.1 224.5l-1.1-55.2 22.6-17.5 1.1 55.2z"/><path class="st6" d="M270.3 235.5l-58-10.3 22.5-17.4 58.1 10.2z"/><path class="st6" d="M213.1 224.5l22.6-17.5 56.2 9.9-22.5 17.5z"/><path class="st7" d="M269.4 234.4l-56.3-9.9 22.6-17.5 56.2 9.9z"/><path class="st6" d="M268.3 179.2l-56.3-9.9 22.6-17.5 56.2 9.9z"/><path class="st2" d="M268.3 179.2l1.1 55.2-56.3-9.9-1.1-55.2z"/><path class="st4" d="M269.4 234.4l-1.1-55.2 22.5-17.5 1.1 55.2z"/><path class="st5" d="M268.3 179.2l22.5-17.5 1.1 55.2-22.5 17.5z"/><path class="st7" d="M212 169.3l22.6-17.5 56.2 9.9-22.5 17.5z"/><path class="st3" d="M211.1 168.2l58.1 10.2 1.1 57-58.1-10.2-1.1-57zm58.3 66.2l-1.1-55.2-56.3-9.9 1.1 55.2 56.3 9.9"/><path class="st6" d="M211.1 168.2l22.6-17.5 58 10.3-22.5 17.4z"/><path class="st4" d="M269.2 178.4l22.5-17.4 1.2 57-22.6 17.5z"/></g></g><g class="st0"><g class="st1"><path class="st3" d="M169.1 139.3l58.1 10.2 1.1 57-58.1-10.2-1.1-57zm58.3 66.3l-1.1-55.2-56.3-9.9 1.1 55.2 56.3 9.9"/><path class="st2" d="M226.3 150.3l1.1 55.3-56.3-10-1.1-55.2z"/><path class="st4" d="M147.7 213.9l-1.1-57.1 22.5-17.5 1.2 57.1z"/><path class="st4" d="M147.5 157.9l22.5-17.5 1.1 55.2-22.5 17.5z"/><path class="st5" d="M148.6 213.1l-1.1-55.2 22.5-17.5 1.1 55.2z"/><path class="st6" d="M205.8 224.1l-58.1-10.2 22.6-17.5 58 10.2z"/><path class="st6" d="M148.6 213.1l22.5-17.5 56.3 10-22.5 17.4z"/><path class="st7" d="M204.9 223l-56.3-9.9 22.5-17.5 56.3 10z"/><path class="st6" d="M203.8 167.8l-56.3-9.9 22.5-17.5 56.3 9.9z"/><path class="st4" d="M204.9 223l-1.1-55.2 22.5-17.5 1.1 55.3z"/><path class="st5" d="M203.8 167.8l22.5-17.5 1.1 55.3-22.5 17.4z"/><path class="st7" d="M147.5 157.9l22.5-17.5 56.3 9.9-22.5 17.5z"/><path class="st3" d="M146.6 156.8l58.1 10.2 1.1 57-58.1-10.2-1.1-57zm58.3 66.2l-1.1-55.2-56.3-9.9 1.1 55.2 56.3 9.9"/><path class="st2" d="M203.8 167.8l1.1 55.2-56.3-9.9-1.1-55.2z"/><path class="st6" d="M146.6 156.8l22.5-17.5 58.1 10.3-22.5 17.5z"/><path class="st4" d="M204.7 167.1l22.5-17.5 1.1 57-22.5 17.5z"/></g></g><g class="st0"><g class="st1"><path class="st2" d="M162.5 76.8l1.1 55.2-56.3-9.9-1.1-55.2z"/><path class="st3" d="M105.3 65.8L163.4 76l1.1 57.1-58.1-10.2-1.1-57.1zm58.3 66.2l-1.1-55.2-56.3-9.9 1.1 55.2 56.3 9.9"/><path class="st4" d="M83.9 140.3l-1.1-57 22.5-17.5 1.2 57z"/><path class="st4" d="M83.7 84.3l22.5-17.4 1.1 55.2-22.5 17.4z"/><path class="st5" d="M84.8 139.5l-1.1-55.2 22.5-17.4 1.1 55.2z"/><path class="st6" d="M142 150.6l-58.1-10.3 22.6-17.5 58 10.3z"/><path class="st6" d="M84.8 139.5l22.5-17.4 56.3 9.9-22.5 17.5z"/><path class="st7" d="M141.1 149.5l-56.3-10 22.5-17.4 56.3 9.9z"/><path class="st6" d="M140 94.3l-56.3-10 22.5-17.4 56.3 9.9z"/><path class="st4" d="M141.1 149.5L140 94.3l22.5-17.5 1.1 55.2z"/><path class="st5" d="M140 94.3l22.5-17.5 1.1 55.2-22.5 17.5z"/><path class="st2" d="M140 94.3l1.1 55.2-56.3-10-1.1-55.2z"/><path class="st7" d="M83.7 84.3l22.5-17.4 56.3 9.9L140 94.3z"/><path class="st3" d="M82.8 83.3l58.1 10.2 1.1 57.1-58.1-10.2-1.1-57.1zm58.3 66.2L140 94.3l-56.3-9.9 1.1 55.2 56.3 9.9"/><path class="st6" d="M82.8 83.3l22.5-17.5L163.4 76l-22.5 17.5z"/><path class="st4" d="M140.9 93.5L163.4 76l1.1 57.1-22.5 17.5z"/></g></g><g class="st0"><g class="st1"><path class="st3" d="M297.3 99.6l58.1 10.2 1.1 57-58.1-10.2-1.1-57zm58.3 66.2l-1.1-55.2-56.3-9.9 1.1 55.2 56.3 9.9"/><path class="st2" d="M354.5 110.6l1.1 55.2-56.2-10-1.2-55.2z"/><path class="st4" d="M275.9 174.1l-1.1-57.1 22.5-17.4 1.2 57z"/><path class="st4" d="M275.7 118.1l22.5-17.5 1.2 55.2-22.6 17.5z"/><path class="st5" d="M276.8 173.3l-1.1-55.2 22.5-17.5 1.2 55.2z"/><path class="st6" d="M334 184.3l-58.1-10.2 22.6-17.5 58 10.2z"/><path class="st6" d="M276.8 173.3l22.6-17.5 56.2 10-22.5 17.4z"/><path class="st7" d="M333.1 183.2l-56.3-9.9 22.6-17.5 56.2 10z"/><path class="st6" d="M332 128l-56.3-9.9 22.5-17.5 56.3 10z"/><path class="st4" d="M333.1 183.2L332 128l22.5-17.4 1.1 55.2z"/><path class="st5" d="M332 128l22.5-17.4 1.1 55.2-22.5 17.4z"/><path class="st2" d="M332 128l1.1 55.2-56.3-9.9-1.1-55.2z"/><path class="st7" d="M275.7 118.1l22.5-17.5 56.3 10L332 128z"/><path class="st3" d="M274.8 117l58.1 10.2 1.1 57-58.1-10.2-1.1-57zm58.3 66.2L332 128l-56.3-9.9 1.1 55.2 56.3 9.9"/><path class="st6" d="M274.8 117l22.5-17.4 58.1 10.2-22.5 17.5z"/><path class="st4" d="M332.9 127.3l22.5-17.5 1.1 57-22.5 17.5z"/></g></g><g class="st0"><g class="st1"><path class="st2" d="M290.3 99.5l1.1 55.2-56.2-9.9-1.2-55.2z"/><path class="st3" d="M233.1 88.5l58.1 10.2 1.1 57.1-58.1-10.2-1.1-57.1zm58.3 66.2l-1.1-55.2-56.3-9.9 1.1 55.2 56.3 9.9"/><path class="st4" d="M211.8 163l-1.2-57 22.5-17.5 1.2 57.1z"/><path class="st4" d="M211.5 107.1L234 89.6l1.2 55.2-22.6 17.5z"/><path class="st5" d="M212.6 162.3l-1.1-55.2L234 89.6l1.2 55.2z"/><path class="st6" d="M269.8 173.3l-58-10.3 22.5-17.4 58 10.2z"/><path class="st6" d="M212.6 162.3l22.6-17.5 56.2 9.9-22.5 17.5z"/><path class="st7" d="M268.9 172.2l-56.3-9.9 22.6-17.5 56.2 9.9z"/><path class="st6" d="M267.8 117l-56.3-9.9L234 89.6l56.3 9.9z"/><path class="st4" d="M268.9 172.2l-1.1-55.2 22.5-17.5 1.1 55.2z"/><path class="st5" d="M267.8 117l22.5-17.5 1.1 55.2-22.5 17.5z"/><path class="st2" d="M267.8 117l1.1 55.2-56.3-9.9-1.1-55.2z"/><path class="st7" d="M211.5 107.1L234 89.6l56.3 9.9-22.5 17.5z"/><path class="st3" d="M210.6 106l58.1 10.2 1.1 57.1-58-10.3-1.2-57zm58.3 66.2l-1.1-55.2-56.3-9.9 1.1 55.2 56.3 9.9"/><path class="st6" d="M210.6 106l22.5-17.5 58.1 10.2-22.5 17.5z"/><path class="st4" d="M268.7 116.2l22.5-17.5 1.1 57.1-22.5 17.5z"/></g></g><g class="st0"><g class="st1"><path class="st2" d="M225.8 88.1l1.1 55.3-56.3-10-1.1-55.2z"/><path class="st3" d="M168.6 77.1l58.1 10.2 1.1 57.1-58.1-10.2-1.1-57.1zm58.3 66.3l-1.1-55.2-56.3-9.9 1.1 55.2 56.3 9.9"/><path class="st4" d="M147.2 151.7l-1.1-57.1 22.5-17.5 1.2 57.1z"/><path class="st4" d="M147 95.7l22.5-17.5 1.1 55.2-22.5 17.5z"/><path class="st5" d="M148.1 150.9L147 95.7l22.5-17.5 1.1 55.2z"/><path class="st6" d="M205.3 161.9l-58.1-10.2 22.6-17.5 58 10.2z"/><path class="st6" d="M148.1 150.9l22.5-17.5 56.3 10-22.5 17.4z"/><path class="st7" d="M204.4 160.8l-56.3-9.9 22.5-17.5 56.3 10z"/><path class="st6" d="M203.3 105.6L147 95.7l22.5-17.5 56.3 9.9z"/><path class="st4" d="M204.4 160.8l-1.1-55.2 22.5-17.5 1.1 55.3z"/><path class="st5" d="M203.3 105.6l22.5-17.5 1.1 55.3-22.5 17.4z"/><path class="st2" d="M203.3 105.6l1.1 55.2-56.3-9.9-1.1-55.2z"/><path class="st7" d="M147 95.7l22.5-17.5 56.3 9.9-22.5 17.5z"/><path class="st3" d="M146.1 94.6l58.1 10.2 1.1 57.1-58.1-10.2-1.1-57.1zm58.3 66.2l-1.1-55.2-56.3-9.9 1.1 55.2 56.3 9.9"/><path class="st6" d="M146.1 94.6l22.5-17.5 58.1 10.3-22.6 17.5z"/><path class="st4" d="M204.1 104.9l22.6-17.5 1.1 57-22.5 17.5z"/></g></g><g class="st0"><g class="st1"><path class="st3" d="M104.1 3.8l58 10.2 1.1 57-58.1-10.2-1-57zM162.4 70l-1.1-55.2L105 4.9l1.1 55.2 56.3 9.9"/><path class="st2" d="M161.3 14.8l1.1 55.2-56.3-9.9L105 4.9z"/><path class="st4" d="M82.7 78.3l-1.2-57 22.6-17.5 1.1 57z"/><path class="st4" d="M82.5 22.4L105 4.9l1.1 55.2-22.5 17.5z"/><path class="st5" d="M83.6 77.6l-1.1-55.2L105 4.9l1.1 55.2z"/><path class="st6" d="M140.7 88.6l-58-10.3 22.5-17.5 58.1 10.3z"/><path class="st6" d="M83.6 77.6l22.5-17.5 56.3 9.9-22.6 17.5z"/><path class="st7" d="M139.8 87.5l-56.2-9.9 22.5-17.5 56.3 9.9z"/><path class="st6" d="M138.7 32.3l-56.2-9.9L105 4.9l56.3 9.9z"/><path class="st4" d="M139.8 87.5l-1.1-55.2 22.6-17.5 1.1 55.2z"/><path class="st5" d="M138.7 32.3l22.6-17.5 1.1 55.2-22.6 17.5z"/><path class="st2" d="M138.7 32.3l1.1 55.2-56.2-9.9-1.1-55.2z"/><path class="st7" d="M82.5 22.4L105 4.9l56.3 9.9-22.6 17.5z"/><path class="st3" d="M81.5 21.3l58.1 10.2 1.1 57-58-10.2-1.2-57zm58.3 66.2l-1.1-55.2-56.3-9.9 1.1 55.2 56.3 9.9"/><path class="st6" d="M81.5 21.3l22.6-17.5 58 10.2-22.5 17.5z"/><path class="st4" d="M139.6 31.5L162.1 14l1.2 57.1-22.6 17.5z"/></g></g><g class="st0"><g class="st1"><path class="st3" d="M296.1 37.6l58.1 10.2 1.1 57.1-58.1-10.2-1.1-57.1zm58.3 66.2l-1.1-55.2-56.3-10 1.1 55.2 56.3 10"/><path class="st2" d="M353.3 48.6l1.1 55.2-56.3-9.9-1.1-55.3z"/><path class="st4" d="M274.7 112.1L273.5 55l22.6-17.4 1.1 57z"/><path class="st4" d="M274.5 56.1L297 38.6l1.1 55.3-22.5 17.4z"/><path class="st5" d="M275.6 111.3l-1.1-55.2L297 38.6l1.1 55.3z"/><path class="st6" d="M332.7 122.3l-58-10.2 22.5-17.5 58.1 10.3z"/><path class="st6" d="M275.6 111.3l22.5-17.4 56.3 9.9-22.6 17.5z"/><path class="st7" d="M331.8 121.3l-56.2-10 22.5-17.4 56.3 9.9z"/><path class="st6" d="M330.7 66.1l-56.2-10L297 38.6l56.3 10z"/><path class="st2" d="M330.7 66.1l1.1 55.2-56.2-10-1.1-55.2z"/><path class="st4" d="M331.8 121.3l-1.1-55.2 22.6-17.5 1.1 55.2z"/><path class="st5" d="M330.7 66.1l22.6-17.5 1.1 55.2-22.6 17.5z"/><path class="st7" d="M274.5 56.1L297 38.6l56.3 10-22.6 17.5z"/><path class="st3" d="M273.5 55l58.1 10.2 1.1 57.1-58.1-10.2-1.1-57.1zm58.3 66.3l-1.1-55.2-56.3-9.9 1.1 55.2 56.3 9.9"/><path class="st6" d="M273.5 55l22.6-17.4 58 10.2-22.5 17.5z"/><path class="st4" d="M331.6 65.3l22.5-17.5 1.2 57.1-22.6 17.4z"/></g></g><g class="st0"><g class="st1"><path class="st2" d="M289.1 37.5l1.1 55.2-56.3-9.9-1.1-55.2z"/><path class="st3" d="M231.9 26.5L290 36.7l1.1 57L233 83.6l-1.1-57.1zm58.3 66.2l-1.1-55.2-56.3-9.9 1.1 55.2 56.3 9.9"/><path class="st4" d="M210.5 101.1L209.3 44l22.6-17.5 1.1 57.1z"/><path class="st4" d="M210.3 45.1l22.5-17.5 1.1 55.2-22.5 17.5z"/><path class="st5" d="M211.4 100.3l-1.1-55.2 22.5-17.5 1.1 55.2z"/><path class="st6" d="M268.6 111.3l-58.1-10.2L233 83.6l58.1 10.2z"/><path class="st6" d="M211.4 100.3l22.5-17.5 56.3 9.9-22.6 17.5z"/><path class="st7" d="M267.6 110.2l-56.2-9.9 22.5-17.5 56.3 9.9z"/><path class="st6" d="M266.5 55l-56.2-9.9 22.5-17.5 56.3 9.9z"/><path class="st4" d="M267.6 110.2L266.5 55l22.6-17.5 1.1 55.2z"/><path class="st5" d="M266.5 55l22.6-17.5 1.1 55.2-22.6 17.5z"/><path class="st7" d="M210.3 45.1l22.5-17.5 56.3 9.9L266.5 55z"/><path class="st3" d="M209.3 44l58.1 10.2 1.1 57-58.1-10.2-1.1-57zm58.3 66.2L266.5 55l-56.3-9.9 1.1 55.2 56.3 9.9"/><path class="st2" d="M266.5 55l1.1 55.2-56.2-9.9-1.1-55.2z"/><path class="st6" d="M209.3 44l22.6-17.5 58 10.3-22.5 17.4z"/><path class="st4" d="M267.4 54.2l22.5-17.4 1.2 57-22.5 17.5z"/></g></g><g class="st0"><g class="st1"><path class="st2" d="M224.5 26.2l1.1 55.2-56.2-10-1.1-55.2z"/><path class="st3" d="M167.3 15.2l58.1 10.2 1.1 57-58.1-10.2-1.1-57zm58.3 66.2l-1.1-55.2-56.3-9.9 1.1 55.2 56.3 9.9"/><path class="st4" d="M146 89.7l-1.2-57.1 22.5-17.4 1.2 57z"/><path class="st4" d="M145.7 33.7l22.6-17.5 1.1 55.2-22.6 17.5z"/><path class="st5" d="M146.8 88.9l-1.1-55.2 22.6-17.5 1.1 55.2z"/><path class="st6" d="M204 99.9l-58-10.2 22.5-17.5 58.1 10.2z"/><path class="st6" d="M146.8 88.9l22.6-17.5 56.2 10-22.5 17.4z"/><path class="st7" d="M203.1 98.8l-56.3-9.9 22.6-17.5 56.2 10z"/><path class="st6" d="M202 43.6l-56.3-9.9 22.6-17.5 56.2 10z"/><path class="st2" d="M202 43.6l1.1 55.2-56.3-9.9-1.1-55.2z"/><path class="st4" d="M203.1 98.8L202 43.6l22.5-17.4 1.1 55.2z"/><path class="st5" d="M202 43.6l22.5-17.4 1.1 55.2-22.5 17.4z"/><path class="st7" d="M145.7 33.7l22.6-17.5 56.2 10L202 43.6z"/><path class="st3" d="M144.8 32.6l58.1 10.2 1.1 57-58-10.1-1.2-57.1zm58.3 66.2L202 43.6l-56.3-9.9 1.1 55.2 56.3 9.9"/><path class="st6" d="M144.8 32.6l22.5-17.4 58.1 10.2-22.5 17.5z"/><path class="st4" d="M202.9 42.9l22.5-17.5 1.2 57L204 99.9z"/></g></g><g class="st0"><g class="st1"><path class="st2" d="M124.9 233.8L126 289l-56.2-9.9-1.2-55.2z"/><path class="st3" d="M67.7 222.8l58.1 10.2 1.1 57.1-58.1-10.2-1.1-57.1zM126 289l-1.1-55.2-56.3-9.9 1.1 55.2L126 289"/><path class="st4" d="M46.3 297.4l-1.1-57.1 22.5-17.5 1.2 57.1z"/><path class="st4" d="M46.1 241.4l22.5-17.5 1.2 55.2-22.6 17.5z"/><path class="st5" d="M47.2 296.6l-1.1-55.2 22.5-17.5 1.2 55.2z"/><path class="st6" d="M104.4 307.6l-58.1-10.2 22.6-17.5 58 10.2z"/><path class="st6" d="M47.2 296.6l22.6-17.5L126 289l-22.5 17.5z"/><path class="st7" d="M103.5 306.5l-56.3-9.9 22.6-17.5L126 289z"/><path class="st6" d="M102.4 251.3l-56.3-9.9 22.5-17.5 56.3 9.9z"/><path class="st4" d="M103.5 306.5l-1.1-55.2 22.5-17.5L126 289z"/><path class="st5" d="M102.4 251.3l22.5-17.5L126 289l-22.5 17.5z"/><path class="st2" d="M102.4 251.3l1.1 55.2-56.3-9.9-1.1-55.2z"/><path class="st7" d="M46.1 241.4l22.5-17.5 56.3 9.9-22.5 17.5z"/><path class="st3" d="M45.2 240.3l58.1 10.2 1.1 57.1-58.1-10.2-1.1-57.1zm58.3 66.2l-1.1-55.2-56.3-9.9 1.1 55.2 56.3 9.9"/><path class="st6" d="M45.2 240.3l22.5-17.5 58.1 10.3-22.5 17.4z"/><path class="st4" d="M103.3 250.5l22.5-17.4 1.1 57-22.5 17.5z"/></g></g><g class="st0"><g class="st1"><path class="st2" d="M316.9 267.6l1.1 55.2-56.2-9.9-1.2-55.2z"/><path class="st3" d="M259.7 256.6l58.1 10.2 1.1 57-58.1-10.2-1.1-57zm58.3 66.2l-1.1-55.2-56.3-9.9 1.1 55.2 56.3 9.9"/><path class="st4" d="M238.3 331.1l-1.1-57 22.5-17.5 1.2 57z"/><path class="st4" d="M238.1 275.2l22.5-17.5 1.2 55.2-22.6 17.5z"/><path class="st5" d="M239.2 330.4l-1.1-55.2 22.5-17.5 1.2 55.2z"/><path class="st6" d="M296.4 341.4l-58.1-10.3 22.6-17.5 58 10.3z"/><path class="st6" d="M239.2 330.4l22.6-17.5 56.2 9.9-22.5 17.5z"/><path class="st7" d="M295.5 340.3l-56.3-9.9 22.6-17.5 56.2 9.9z"/><path class="st6" d="M294.4 285.1l-56.3-9.9 22.5-17.5 56.3 9.9z"/><path class="st4" d="M295.5 340.3l-1.1-55.2 22.5-17.5 1.1 55.2z"/><path class="st5" d="M294.4 285.1l22.5-17.5 1.1 55.2-22.5 17.5z"/><path class="st2" d="M294.4 285.1l1.1 55.2-56.3-9.9-1.1-55.2z"/><path class="st7" d="M238.1 275.2l22.5-17.5 56.3 9.9-22.5 17.5z"/><path class="st3" d="M237.2 274.1l58.1 10.2 1.1 57-58.1-10.2-1.1-57zm58.3 66.2l-1.1-55.2-56.3-9.9 1.1 55.2 56.3 9.9"/><path class="st6" d="M237.2 274.1l22.5-17.5 58.1 10.2-22.5 17.5z"/><path class="st4" d="M295.3 284.3l22.5-17.5 1.1 57.1-22.5 17.5z"/></g></g><g class="st0"><g class="st1"><path class="st2" d="M252.7 256.6l1.1 55.2-56.2-10-1.2-55.2z"/><path class="st3" d="M195.5 245.5l58.1 10.2 1.1 57.1-58.1-10.2-1.1-57.1zm58.3 66.3l-1.1-55.2-56.3-9.9 1.1 55.2 56.3 9.9"/><path class="st4" d="M174.2 320.1L173 263l22.5-17.5 1.2 57.1z"/><path class="st4" d="M173.9 264.1l22.5-17.5 1.2 55.2-22.6 17.5z"/><path class="st5" d="M175 319.3l-1.1-55.2 22.5-17.5 1.2 55.2z"/><path class="st6" d="M232.2 330.3l-58-10.2 22.5-17.5 58 10.2z"/><path class="st6" d="M175 319.3l22.6-17.5 56.2 10-22.5 17.4z"/><path class="st7" d="M231.3 329.2l-56.3-9.9 22.6-17.5 56.2 10z"/><path class="st6" d="M230.2 274l-56.3-9.9 22.5-17.5 56.3 10z"/><path class="st4" d="M231.3 329.2l-1.1-55.2 22.5-17.4 1.1 55.2z"/><path class="st5" d="M230.2 274l22.5-17.4 1.1 55.2-22.5 17.4z"/><path class="st2" d="M230.2 274l1.1 55.2-56.3-9.9-1.1-55.2z"/><path class="st7" d="M173.9 264.1l22.5-17.5 56.3 10-22.5 17.4z"/><path class="st3" d="M173 263l58.1 10.2 1.1 57.1-58.1-10.2L173 263zm58.3 66.2l-1.1-55.2-56.3-9.9 1.1 55.2 56.3 9.9"/><path class="st6" d="M173 263l22.5-17.5 58.1 10.3-22.5 17.5z"/><path class="st4" d="M231.1 273.3l22.5-17.5 1.1 57-22.5 17.5z"/></g></g><g class="st0"><g class="st1"><path class="st2" d="M188.2 245.2l1.1 55.2-56.3-9.9-1.1-55.2z"/><path class="st3" d="M131 234.2l58.1 10.2 1.1 57.1-58.1-10.2-1.1-57.1zm58.3 66.2l-1.1-55.2-56.3-9.9 1.1 55.2 56.3 9.9"/><path class="st4" d="M109.6 308.7l-1.1-57 22.5-17.5 1.2 57z"/><path class="st4" d="M109.4 252.7l22.5-17.4 1.1 55.2-22.5 17.5z"/><path class="st5" d="M110.5 308l-1.1-55.3 22.5-17.4 1.1 55.2z"/><path class="st6" d="M167.7 319l-58.1-10.3 22.6-17.5 58 10.3z"/><path class="st6" d="M110.5 308l22.5-17.5 56.3 9.9-22.5 17.5z"/><path class="st7" d="M166.8 317.9l-56.3-9.9 22.5-17.5 56.3 9.9z"/><path class="st6" d="M165.7 262.7l-56.3-10 22.5-17.4 56.3 9.9z"/><path class="st4" d="M166.8 317.9l-1.1-55.2 22.5-17.5 1.1 55.2z"/><path class="st5" d="M165.7 262.7l22.5-17.5 1.1 55.2-22.5 17.5z"/><path class="st2" d="M165.7 262.7l1.1 55.2-56.3-9.9-1.1-55.3z"/><path class="st7" d="M109.4 252.7l22.5-17.4 56.3 9.9-22.5 17.5z"/><path class="st3" d="M108.5 251.7l58.1 10.2 1.1 57.1-58.1-10.2-1.1-57.1zm58.3 66.2l-1.1-55.2-56.3-9.9 1.1 55.2 56.3 9.9"/><path class="st6" d="M108.5 251.7l22.5-17.5 58.1 10.2-22.6 17.5z"/><path class="st4" d="M166.5 261.9l22.6-17.5 1.1 57.1-22.5 17.5z"/></g></g><g class="st0"><g class="st1"><path class="st3" d="M66.5 160.8l58.1 10.2 1.1 57-58.1-10.2-1.1-57zm58.3 66.2l-1.1-55.2-56.3-9.9 1.1 55.2 56.3 9.9"/><path class="st2" d="M123.7 171.8l1.1 55.2-56.3-9.9-1.1-55.2z"/><path class="st4" d="M45.1 235.4l-1.2-57.1 22.6-17.5 1.1 57.1z"/><path class="st4" d="M44.9 179.4l22.5-17.5 1.1 55.2L46 234.6z"/><path class="st5" d="M46 234.6l-1.1-55.2 22.5-17.5 1.1 55.2z"/><path class="st6" d="M103.1 245.6l-58-10.2 22.5-17.5 58.1 10.2z"/><path class="st6" d="M46 234.6l22.5-17.5 56.3 9.9-22.6 17.5z"/><path class="st7" d="M102.2 244.5L46 234.6l22.5-17.5 56.3 9.9z"/><path class="st6" d="M101.1 189.3l-56.2-9.9 22.5-17.5 56.3 9.9z"/><path class="st4" d="M102.2 244.5l-1.1-55.2 22.6-17.5 1.1 55.2z"/><path class="st5" d="M101.1 189.3l22.6-17.5 1.1 55.2-22.6 17.5z"/><path class="st7" d="M44.9 179.4l22.5-17.5 56.3 9.9-22.6 17.5z"/><path class="st3" d="M43.9 178.3l58.1 10.2 1.1 57L45 235.3l-1.1-57zm58.3 66.2l-1.1-55.2-56.3-9.9 1.1 55.2 56.3 9.9"/><path class="st2" d="M101.1 189.3l1.1 55.2-56.2-9.9-1.1-55.2z"/><path class="st6" d="M43.9 178.3l22.6-17.5 58 10.3-22.5 17.5z"/><path class="st4" d="M102 188.6l22.5-17.5 1.2 57-22.6 17.5z"/></g></g><g class="st0"><g class="st1"><path class="st3" d="M258.5 194.6l58.1 10.2 1.1 57.1-58.1-10.2-1.1-57.1zm58.3 66.2l-1.1-55.2-56.3-9.9 1.1 55.2 56.3 9.9"/><path class="st2" d="M315.7 205.6l1.1 55.2-56.3-9.9-1.1-55.2z"/><path class="st4" d="M237.1 269.1l-1.1-57 22.5-17.5 1.1 57.1z"/><path class="st4" d="M236.9 213.2l22.5-17.5 1.1 55.2-22.5 17.5z"/><path class="st5" d="M238 268.4l-1.1-55.2 22.5-17.5 1.1 55.2z"/><path class="st6" d="M295.1 279.4l-58-10.3 22.5-17.4 58.1 10.2z"/><path class="st6" d="M238 268.4l22.5-17.5 56.3 9.9-22.6 17.5z"/><path class="st7" d="M294.2 278.3l-56.2-9.9 22.5-17.5 56.3 9.9z"/><path class="st6" d="M293.1 223.1l-56.2-9.9 22.5-17.5 56.3 9.9z"/><path class="st4" d="M294.2 278.3l-1.1-55.2 22.6-17.5 1.1 55.2z"/><path class="st5" d="M293.1 223.1l22.6-17.5 1.1 55.2-22.6 17.5z"/><path class="st7" d="M236.9 213.2l22.5-17.5 56.3 9.9-22.6 17.5z"/><path class="st3" d="M236 212.1l58.1 10.2 1.1 57.1-58.1-10.2-1.1-57.1zm58.2 66.2l-1.1-55.2-56.3-9.9 1.1 55.2 56.3 9.9"/><path class="st2" d="M293.1 223.1l1.1 55.2-56.2-9.9-1.1-55.2z"/><path class="st6" d="M236 212.1l22.5-17.5 58 10.2-22.5 17.5z"/><path class="st4" d="M294 222.3l22.5-17.5 1.2 57.1-22.6 17.5z"/></g></g><g class="st0"><g class="st1"><path class="st3" d="M194.3 183.6l58.1 10.2 1.1 57.1-58.1-10.2-1.1-57.1zm58.3 66.2l-1.1-55.2-56.3-9.9 1.1 55.2 56.3 9.9"/><path class="st2" d="M251.5 194.6l1.1 55.2-56.3-10-1.1-55.2z"/><path class="st4" d="M172.9 258.1l-1.2-57.1 22.6-17.4 1.1 57z"/><path class="st4" d="M172.7 202.1l22.5-17.5 1.1 55.2-22.5 17.5z"/><path class="st5" d="M173.8 257.3l-1.1-55.2 22.5-17.5 1.1 55.2z"/><path class="st6" d="M230.9 268.3l-58-10.2 22.5-17.5 58.1 10.3z"/><path class="st6" d="M173.8 257.3l22.5-17.5 56.3 10-22.6 17.5z"/><path class="st7" d="M230 267.3l-56.2-10 22.5-17.5 56.3 10z"/><path class="st6" d="M228.9 212.1l-56.2-10 22.5-17.5 56.3 10z"/><path class="st4" d="M230 267.3l-1.1-55.2 22.6-17.5 1.1 55.2z"/><path class="st5" d="M228.9 212.1l22.6-17.5 1.1 55.2-22.6 17.5z"/><path class="st2" d="M228.9 212.1l1.1 55.2-56.2-10-1.1-55.2z"/><path class="st7" d="M172.7 202.1l22.5-17.5 56.3 10-22.6 17.5z"/><path class="st3" d="M171.7 201l58.1 10.2 1.1 57.1-58.1-10.2-1.1-57.1zm58.3 66.3l-1.1-55.2-56.3-9.9 1.1 55.2 56.3 9.9"/><path class="st6" d="M171.7 201l22.6-17.4 58 10.2-22.5 17.5z"/><path class="st4" d="M229.8 211.3l22.5-17.5 1.2 57.1-22.6 17.4z"/></g></g><g class="st0"><g class="st1"><path class="st3" d="M129.7 172.2l58.1 10.2 1.1 57-58.1-10.2-1.1-57zm58.3 66.2l-1.1-55.2-56.3-9.9 1.1 55.2 56.3 9.9"/><path class="st2" d="M186.9 183.2l1.1 55.2-56.2-9.9-1.1-55.2z"/><path class="st4" d="M108.4 246.7l-1.2-57 22.5-17.5 1.2 57z"/><path class="st4" d="M108.1 190.8l22.6-17.5 1.1 55.2-22.6 17.5z"/><path class="st5" d="M109.2 246l-1.1-55.2 22.6-17.5 1.1 55.2z"/><path class="st6" d="M166.4 257l-58-10.3 22.5-17.5 58 10.3z"/><path class="st6" d="M109.2 246l22.6-17.5 56.2 9.9-22.5 17.5z"/><path class="st7" d="M165.5 255.9l-56.3-9.9 22.6-17.5 56.2 9.9z"/><path class="st6" d="M164.4 200.7l-56.3-9.9 22.6-17.5 56.2 9.9z"/><path class="st4" d="M165.5 255.9l-1.1-55.2 22.5-17.5 1.1 55.2z"/><path class="st5" d="M164.4 200.7l22.5-17.5 1.1 55.2-22.5 17.5z"/><path class="st7" d="M108.1 190.8l22.6-17.5 56.2 9.9-22.5 17.5z"/><path class="st3" d="M107.2 189.7l58.1 10.2 1.1 57-58.1-10.2-1.1-57zm58.3 66.2l-1.1-55.2-56.3-9.9 1.1 55.2 56.3 9.9"/><path class="st2" d="M164.4 200.7l1.1 55.2-56.3-9.9-1.1-55.2z"/><path class="st6" d="M107.2 189.7l22.5-17.5 58.1 10.2-22.5 17.5z"/><path class="st4" d="M165.3 199.9l22.5-17.5 1.1 57.1-22.5 17.5z"/></g></g><g class="st0"><g class="st1"><path class="st2" d="M123.1 109.6l1.1 55.2-56.2-9.9-1.1-55.2z"/><path class="st3" d="M66 98.6l58.1 10.2 1.1 57.1-58.1-10.2L66 98.6zm58.2 66.2l-1.1-55.2-56.3-9.9 1.1 55.2 56.3 9.9"/><path class="st4" d="M44.6 173.2l-1.2-57.1L66 98.6l1.1 57.1z"/><path class="st4" d="M44.3 117.2l22.6-17.5 1.1 55.2-22.6 17.5z"/><path class="st5" d="M45.4 172.4l-1.1-55.2 22.6-17.5 1.1 55.2z"/><path class="st6" d="M102.6 183.4l-58-10.2 22.5-17.5 58.1 10.2z"/><path class="st6" d="M45.4 172.4L68 154.9l56.2 9.9-22.5 17.5z"/><path class="st7" d="M101.7 182.3l-56.3-9.9L68 154.9l56.2 9.9z"/><path class="st6" d="M100.6 127.1l-56.3-9.9 22.6-17.5 56.2 9.9z"/><path class="st4" d="M101.7 182.3l-1.1-55.2 22.5-17.5 1.1 55.2z"/><path class="st5" d="M100.6 127.1l22.5-17.5 1.1 55.2-22.5 17.5z"/><path class="st2" d="M100.6 127.1l1.1 55.2-56.3-9.9-1.1-55.2z"/><path class="st7" d="M44.3 117.2l22.6-17.5 56.2 9.9-22.5 17.5z"/><path class="st3" d="M43.4 116.1l58.1 10.2 1.1 57.1-58.1-10.2-1.1-57.1zm58.3 66.2l-1.1-55.2-56.3-9.9 1.1 55.2 56.3 9.9"/><path class="st6" d="M43.4 116.1L66 98.6l58 10.3-22.5 17.4z"/><path class="st4" d="M101.5 126.3l22.5-17.4 1.2 57-22.6 17.5z"/></g></g><g class="st0"><g class="st1"><path class="st3" d="M258 132.4l58.1 10.2 1.1 57.1-58.1-10.2-1.1-57.1zm58.3 66.2l-1.1-55.2-56.3-9.9 1.1 55.2 56.3 9.9"/><path class="st2" d="M315.1 143.4l1.2 55.2-56.3-9.9-1.1-55.2z"/><path class="st4" d="M236.6 206.9l-1.2-57 22.6-17.5 1.1 57.1z"/><path class="st4" d="M236.3 151l22.6-17.5 1.1 55.2-22.6 17.5z"/><path class="st5" d="M237.4 206.2l-1.1-55.2 22.6-17.5 1.1 55.2z"/><path class="st6" d="M294.6 217.2l-58-10.3 22.5-17.4 58.1 10.2z"/><path class="st6" d="M237.4 206.2l22.6-17.5 56.3 9.9-22.6 17.5z"/><path class="st7" d="M293.7 216.1l-56.3-9.9 22.6-17.5 56.3 9.9z"/><path class="st6" d="M292.6 160.9l-56.3-9.9 22.6-17.5 56.2 9.9z"/><path class="st4" d="M293.7 216.1l-1.1-55.2 22.5-17.5 1.2 55.2z"/><path class="st5" d="M292.6 160.9l22.5-17.5 1.2 55.2-22.6 17.5z"/><path class="st2" d="M292.6 160.9l1.1 55.2-56.3-9.9-1.1-55.2z"/><path class="st7" d="M236.3 151l22.6-17.5 56.2 9.9-22.5 17.5z"/><path class="st3" d="M235.4 149.9l58.1 10.2 1.1 57.1-58.1-10.2-1.1-57.1zm58.3 66.2l-1.1-55.2-56.3-9.9 1.1 55.2 56.3 9.9"/><path class="st6" d="M235.4 149.9l22.6-17.5 58 10.2-22.5 17.5z"/><path class="st4" d="M293.5 160.1l22.5-17.5 1.2 57.1-22.6 17.5z"/></g></g><g class="st0"><g class="st1"><path class="st2" d="M250.9 132.4l1.1 55.2-56.2-10-1.1-55.2z"/><path class="st3" d="M193.8 121.4l58.1 10.2 1.1 57-58.1-10.2-1.1-57zm58.2 66.2l-1.1-55.2-56.3-9.9 1.1 55.2 56.3 9.9"/><path class="st4" d="M172.4 195.9l-1.2-57.1 22.6-17.4 1.1 57z"/><path class="st4" d="M172.1 139.9l22.6-17.5 1.1 55.2-22.5 17.5z"/><path class="st5" d="M173.3 195.1l-1.2-55.2 22.6-17.5 1.1 55.2z"/><path class="st6" d="M230.4 206.1l-58-10.2 22.5-17.5 58.1 10.2z"/><path class="st6" d="M173.3 195.1l22.5-17.5 56.2 10-22.5 17.5z"/><path class="st7" d="M229.5 205.1l-56.2-10 22.5-17.5 56.2 10z"/><path class="st6" d="M228.4 149.9l-56.3-10 22.6-17.5 56.2 10z"/><path class="st4" d="M229.5 205.1l-1.1-55.2 22.5-17.5 1.1 55.2z"/><path class="st5" d="M228.4 149.9l22.5-17.5 1.1 55.2-22.5 17.5z"/><path class="st2" d="M228.4 149.9l1.1 55.2-56.2-10-1.2-55.2z"/><path class="st7" d="M172.1 139.9l22.6-17.5 56.2 10-22.5 17.5z"/><path class="st3" d="M171.2 138.8l58.1 10.2 1.1 57-58.1-10.2-1.1-57zm58.3 66.3l-1.1-55.2-56.3-9.9 1.1 55.2 56.3 9.9"/><path class="st6" d="M171.2 138.8l22.6-17.4 58 10.2-22.5 17.5z"/><path class="st4" d="M229.3 149.1l22.5-17.5 1.2 57-22.6 17.5z"/></g></g><g class="st0"><g class="st1"><path class="st2" d="M186.4 121l1.1 55.2-56.2-9.9-1.2-55.2z"/><path class="st3" d="M129.2 110l58.1 10.2 1.1 57.1-58-10.3-1.2-57zm58.3 66.2l-1.1-55.2-56.3-9.9 1.1 55.2 56.3 9.9"/><path class="st4" d="M107.8 184.5l-1.1-57 22.5-17.5 1.2 57z"/><path class="st4" d="M107.6 128.6l22.5-17.5 1.2 55.2-22.6 17.5z"/><path class="st5" d="M108.7 183.8l-1.1-55.2 22.5-17.5 1.2 55.2z"/><path class="st6" d="M165.9 194.8l-58.1-10.3 22.6-17.5 58 10.3z"/><path class="st6" d="M108.7 183.8l22.6-17.5 56.2 9.9-22.5 17.5z"/><path class="st7" d="M165 193.7l-56.3-9.9 22.6-17.5 56.2 9.9z"/><path class="st6" d="M163.9 138.5l-56.3-9.9 22.5-17.5 56.3 9.9z"/><path class="st2" d="M163.9 138.5l1.1 55.2-56.3-9.9-1.1-55.2z"/><path class="st4" d="M165 193.7l-1.1-55.2 22.5-17.5 1.1 55.2z"/><path class="st5" d="M163.9 138.5l22.5-17.5 1.1 55.2-22.5 17.5z"/><path class="st7" d="M107.6 128.6l22.5-17.5 56.3 9.9-22.5 17.5z"/><path class="st3" d="M106.7 127.5l58.1 10.2 1.1 57.1-58.1-10.2-1.1-57.1zm58.3 66.2l-1.1-55.2-56.3-9.9 1.1 55.2 56.3 9.9"/><path class="st6" d="M106.7 127.5l22.5-17.5 58.1 10.2-22.5 17.5z"/><path class="st4" d="M164.8 137.7l22.5-17.5 1.1 57.1-22.5 17.5z"/></g></g><g class="st0"><g class="st1"><path class="st3" d="M64.7 36.6l58.1 10.2 1.1 57.1-58.1-10.2-1.1-57.1zm58.3 66.2l-1.1-55.2-56.3-9.9 1.1 55.2 56.3 9.9"/><path class="st2" d="M121.9 47.6l1.1 55.2-56.3-9.9-1.1-55.2z"/><path class="st4" d="M43.3 111.2l-1.1-57.1 22.5-17.5 1.1 57.1z"/><path class="st4" d="M43.1 55.2l22.5-17.5 1.1 55.2-22.5 17.5z"/><path class="st5" d="M44.2 110.4l-1.1-55.2 22.5-17.5 1.1 55.2z"/><path class="st6" d="M101.4 121.4l-58.1-10.2 22.5-17.5 58.1 10.2z"/><path class="st6" d="M44.2 110.4l22.5-17.5 56.3 9.9-22.5 17.5z"/><path class="st7" d="M100.5 120.3l-56.3-9.9 22.5-17.5 56.3 9.9z"/><path class="st6" d="M99.4 65.1l-56.3-9.9 22.5-17.5 56.3 9.9z"/><path class="st4" d="M100.5 120.3l-1.1-55.2 22.5-17.5 1.1 55.2z"/><path class="st5" d="M99.4 65.1l22.5-17.5 1.1 55.2-22.5 17.5z"/><path class="st2" d="M99.4 65.1l1.1 55.2-56.3-9.9-1.1-55.2z"/><path class="st7" d="M43.1 55.2l22.5-17.5 56.3 9.9-22.5 17.5z"/><path class="st3" d="M42.2 54.1l58.1 10.2 1.1 57.1-58.1-10.2-1.1-57.1zm58.3 66.2l-1.1-55.2-56.3-9.9 1.1 55.2 56.3 9.9"/><path class="st6" d="M42.2 54.1l22.5-17.5 58.1 10.3-22.6 17.5z"/><path class="st4" d="M100.2 64.4l22.6-17.5 1.1 57-22.5 17.5z"/></g></g><g class="st0"><g class="st1"><path class="st2" d="M313.9 81.4l1.1 55.2-56.3-9.9-1.1-55.2z"/><path class="st3" d="M256.7 70.4l58.1 10.2 1.1 57.1-58.1-10.2-1.1-57.1zm58.3 66.2l-1.1-55.2-56.3-9.9 1.1 55.2 56.3 9.9"/><path class="st4" d="M235.3 145l-1.1-57.1 22.5-17.5 1.1 57.1z"/><path class="st4" d="M235.1 89l22.5-17.5 1.1 55.2-22.5 17.5z"/><path class="st5" d="M236.2 144.2L235.1 89l22.5-17.5 1.1 55.2z"/><path class="st6" d="M293.4 155.2L235.3 145l22.5-17.5 58.1 10.2z"/><path class="st6" d="M236.2 144.2l22.5-17.5 56.3 9.9-22.5 17.5z"/><path class="st7" d="M292.5 154.1l-56.3-9.9 22.5-17.5 56.3 9.9z"/><path class="st6" d="M291.4 98.9L235.1 89l22.5-17.5 56.3 9.9z"/><path class="st2" d="M291.4 98.9l1.1 55.2-56.3-9.9-1.1-55.2z"/><path class="st4" d="M292.5 154.1l-1.1-55.2 22.5-17.5 1.1 55.2z"/><path class="st5" d="M291.4 98.9l22.5-17.5 1.1 55.2-22.5 17.5z"/><path class="st7" d="M235.1 89l22.5-17.5 56.3 9.9-22.5 17.5z"/><path class="st3" d="M234.2 87.9l58.1 10.2 1.1 57.1-58.1-10.2-1.1-57.1zm58.3 66.2l-1.1-55.2-56.3-9.9 1.1 55.2 56.3 9.9"/><path class="st6" d="M234.2 87.9l22.5-17.5 58.1 10.3-22.6 17.4z"/><path class="st4" d="M292.2 98.1l22.6-17.4 1.1 57-22.5 17.5z"/></g></g><g class="st0"><g class="st1"><path class="st2" d="M249.7 70.4l1.1 55.2-56.3-9.9-1.1-55.2z"/><path class="st3" d="M192.5 59.4l58.1 10.2 1.1 57.1-58.1-10.2-1.1-57.1zm58.3 66.2l-1.1-55.2-56.3-9.9 1.1 55.2 56.3 9.9"/><path class="st4" d="M171.1 133.9l-1.1-57 22.5-17.5 1.1 57z"/><path class="st4" d="M170.9 77.9l22.5-17.4 1.1 55.2-22.5 17.4z"/><path class="st5" d="M172 133.1l-1.1-55.2 22.5-17.4 1.1 55.2z"/><path class="st6" d="M229.2 144.2l-58.1-10.3 22.5-17.5 58.1 10.3z"/><path class="st6" d="M172 133.1l22.5-17.4 56.3 9.9-22.5 17.5z"/><path class="st7" d="M228.3 143.1l-56.3-10 22.5-17.4 56.3 9.9z"/><path class="st6" d="M227.2 87.9l-56.3-10 22.5-17.4 56.3 9.9z"/><path class="st2" d="M227.2 87.9l1.1 55.2-56.3-10-1.1-55.2z"/><path class="st4" d="M228.3 143.1l-1.1-55.2 22.5-17.5 1.1 55.2z"/><path class="st5" d="M227.2 87.9l22.5-17.5 1.1 55.2-22.5 17.5z"/><path class="st7" d="M170.9 77.9l22.5-17.4 56.3 9.9-22.5 17.5z"/><path class="st3" d="M170 76.9l58 10.2 1.1 57.1L171 134l-1-57.1zm58.3 66.2l-1.1-55.2-56.3-9.9 1.1 55.2 56.3 9.9"/><path class="st6" d="M170 76.9l22.5-17.5 58.1 10.2L228 87.1z"/><path class="st4" d="M228 87.1l22.6-17.5 1.1 57.1-22.5 17.5z"/></g></g><g class="st0"><g class="st1"><path class="st2" d="M185.2 59l1.1 55.2-56.3-9.9-1.1-55.2z"/><path class="st3" d="M128 48l58 10.2 1.1 57.1-58.1-10.2-1-57.1zm58.3 66.2L185.2 59l-56.3-9.9 1.1 55.2 56.3 9.9"/><path class="st4" d="M106.6 122.5l-1.2-57L128 48l1.1 57.1z"/><path class="st4" d="M106.4 66.6l22.5-17.5 1.1 55.2-22.5 17.5z"/><path class="st5" d="M107.5 121.8l-1.1-55.2 22.5-17.5 1.1 55.2z"/><path class="st6" d="M164.6 132.8l-58-10.3 22.5-17.4 58.1 10.2z"/><path class="st6" d="M107.5 121.8l22.5-17.5 56.3 9.9-22.6 17.5z"/><path class="st7" d="M163.7 131.7l-56.2-9.9 22.5-17.5 56.3 9.9z"/><path class="st6" d="M162.6 76.5l-56.2-9.9 22.5-17.5 56.3 9.9z"/><path class="st4" d="M163.7 131.7l-1.1-55.2L185.2 59l1.1 55.2z"/><path class="st5" d="M162.6 76.5L185.2 59l1.1 55.2-22.6 17.5z"/><path class="st7" d="M106.4 66.6l22.5-17.5 56.3 9.9-22.6 17.5z"/><path class="st3" d="M105.4 65.5l58.1 10.2 1.1 57.1-58.1-10.2-1.1-57.1zm58.3 66.2l-1.1-55.2-56.3-9.9 1.1 55.2 56.3 9.9"/><path class="st2" d="M162.6 76.5l1.1 55.2-56.2-9.9-1.1-55.2z"/><path class="st6" d="M105.4 65.5L128 48l58 10.2-22.5 17.5z"/><path class="st4" d="M163.5 75.7L186 58.2l1.2 57.1-22.6 17.5z"/></g></g><g class="st0"><g class="st1"><path class="st8" d="M86 265.9l1.1 55.2-56.2-9.9-1.2-55.2z"/><path class="st3" d="M28.8 254.9l58.1 10.2 1.1 57.1-58-10.3-1.2-57zm58.3 66.2L86 265.9 29.7 256l1.1 55.2 56.3 9.9"/><path class="st4" d="M7.5 329.4l-1.2-57 22.5-17.5 1.2 57z"/><path class="st4" d="M7.2 273.4L29.7 256l1.2 55.2-22.6 17.5z"/><path class="st9" d="M8.3 328.7l-1.1-55.3L29.7 256l1.2 55.2z"/><path class="st6" d="M65.5 339.7l-58-10.3L30 311.9l58 10.3z"/><path class="st6" d="M8.3 328.7l22.6-17.5 56.2 9.9-22.5 17.5z"/><path class="st10" d="M64.6 338.6l-56.3-9.9 22.6-17.5 56.2 9.9z"/><path class="st6" d="M63.5 283.4l-56.3-10L29.7 256l56.3 9.9z"/><path class="st4" d="M64.6 338.6l-1.1-55.2L86 265.9l1.1 55.2z"/><path class="st9" d="M63.5 283.4L86 265.9l1.1 55.2-22.5 17.5z"/><path class="st8" d="M63.5 283.4l1.1 55.2-56.3-9.9-1.1-55.3z"/><path class="st10" d="M7.2 273.4L29.7 256l56.3 9.9-22.5 17.5z"/><path class="st3" d="M6.3 272.4l58.1 10.2 1.1 57.1-58-10.3-1.2-57zm58.3 66.2l-1.1-55.2-56.3-9.9 1.1 55.2 56.3 9.9"/><path class="st6" d="M6.3 272.4l22.5-17.5 58.1 10.2-22.5 17.5z"/><path class="st4" d="M64.4 282.6l22.5-17.5 1.1 57.1-22.5 17.5z"/></g></g><g class="st0"><g class="st1"><path class="st8" d="M278 299.7l1.1 55.2-56.2-10-1.2-55.2z"/><path class="st3" d="M220.8 288.7l58.1 10.2L280 356l-58-10.3-1.2-57zm58.3 66.2l-1.1-55.2-56.3-9.9 1.1 55.2 56.3 9.9"/><path class="st4" d="M199.4 363.2l-1.1-57.1 22.5-17.4 1.2 57z"/><path class="st4" d="M199.2 307.2l22.5-17.5 1.2 55.2-22.6 17.5z"/><path class="st9" d="M200.3 362.4l-1.1-55.2 22.5-17.5 1.2 55.2z"/><path class="st6" d="M257.5 373.4l-58.1-10.2 22.6-17.5 58 10.3z"/><path class="st6" d="M200.3 362.4l22.6-17.5 56.2 10-22.5 17.5z"/><path class="st10" d="M256.6 372.4l-56.3-10 22.6-17.5 56.2 10z"/><path class="st6" d="M255.5 317.2l-56.3-10 22.5-17.5 56.3 10z"/><path class="st9" d="M255.5 317.2l22.5-17.5 1.1 55.2-22.5 17.5z"/><path class="st10" d="M199.2 307.2l22.5-17.5 56.3 10-22.5 17.5z"/><path class="st3" d="M198.3 306.1l58.1 10.2 1.1 57.1-58.1-10.2-1.1-57.1zm58.3 66.3l-1.1-55.2-56.3-9.9 1.1 55.2 56.3 9.9"/><path class="st8" d="M255.5 317.2l1.1 55.2-56.3-10-1.1-55.2z"/><path class="st6" d="M198.3 306.1l22.5-17.4 58.1 10.2-22.5 17.5z"/><path class="st4" d="M256.4 316.4l22.5-17.5L280 356l-22.5 17.4z"/></g></g><g class="st0"><g class="st1"><path class="st3" d="M156.6 277.6l58.1 10.2 1.1 57.1-58.1-10.2-1.1-57.1zm58.3 66.2l-1.1-55.2-56.3-9.9 1.1 55.2 56.3 9.9"/><path class="st2" d="M213.8 288.6l1.1 55.2-56.2-9.9-1.2-55.2z"/><path class="st4" d="M135.3 352.2l-1.2-57.1 22.5-17.5 1.2 57.1z"/><path class="st4" d="M135 296.2l22.5-17.5 1.2 55.2-22.6 17.5z"/><path class="st5" d="M136.1 351.4l-1.1-55.2 22.5-17.5 1.2 55.2z"/><path class="st6" d="M193.3 362.4l-58-10.2 22.5-17.5 58 10.2z"/><path class="st6" d="M136.1 351.4l22.6-17.5 56.2 9.9-22.5 17.5z"/><path class="st7" d="M192.4 361.3l-56.3-9.9 22.6-17.5 56.2 9.9z"/><path class="st6" d="M191.3 306.1l-56.3-9.9 22.5-17.5 56.3 9.9z"/><path class="st4" d="M192.4 361.3l-1.1-55.2 22.5-17.5 1.1 55.2z"/><path class="st5" d="M191.3 306.1l22.5-17.5 1.1 55.2-22.5 17.5z"/><path class="st7" d="M135 296.2l22.5-17.5 56.3 9.9-22.5 17.5z"/><path class="st3" d="M134.1 295.1l58.1 10.2 1.1 57.1-58.1-10.2-1.1-57.1zm58.3 66.2l-1.1-55.2-56.3-9.9 1.1 55.2 56.3 9.9"/><path class="st2" d="M191.3 306.1l1.1 55.2-56.3-9.9-1.1-55.2z"/><path class="st6" d="M134.1 295.1l22.5-17.5 58.1 10.3-22.5 17.4z"/><path class="st4" d="M192.2 305.3l22.5-17.4 1.1 57-22.5 17.5z"/></g></g><g class="st0"><g class="st1"><path class="st3" d="M92.1 266.2l58.1 10.2 1.1 57.1-58.1-10.2-1.1-57.1zm58.3 66.3l-1.1-55.2-56.3-10 1.1 55.2 56.3 10"/><path class="st2" d="M149.3 277.2l1.1 55.3-56.3-10-1.1-55.2z"/><path class="st4" d="M70.7 340.8l-1.1-57.1 22.5-17.5 1.2 57.1z"/><path class="st4" d="M70.5 284.8L93 267.3l1.1 55.2L71.6 340z"/><path class="st5" d="M71.6 340l-1.1-55.2L93 267.3l1.1 55.2z"/><path class="st6" d="M128.8 351l-58.1-10.2 22.6-17.5 58 10.2z"/><path class="st6" d="M71.6 340l22.5-17.5 56.3 10-22.5 17.4z"/><path class="st7" d="M127.9 349.9L71.6 340l22.5-17.5 56.3 10z"/><path class="st6" d="M126.8 294.7l-56.3-9.9L93 267.3l56.3 9.9z"/><path class="st4" d="M127.9 349.9l-1.1-55.2 22.5-17.5 1.1 55.3z"/><path class="st5" d="M126.8 294.7l22.5-17.5 1.1 55.3-22.5 17.4z"/><path class="st7" d="M70.5 284.8L93 267.3l56.3 9.9-22.5 17.5z"/><path class="st3" d="M69.6 283.7l58.1 10.2 1.1 57.1-58.1-10.2-1.1-57.1zm58.3 66.2l-1.1-55.2-56.3-9.9 1.1 55.2 56.3 9.9"/><path class="st2" d="M126.8 294.7l1.1 55.2-56.3-9.9-1.1-55.2z"/><path class="st6" d="M69.6 283.7l22.5-17.5 58.1 10.3-22.6 17.5z"/><path class="st4" d="M127.6 294l22.6-17.5 1.1 57-22.5 17.5z"/></g></g><g class="st0"><g class="st1"><path class="st3" d="M27.6 192.9l58.1 10.2 1.1 57.1L28.7 250l-1.1-57.1zm58.3 66.2l-1.1-55.2-56.3-9.9 1.1 55.2 56.3 9.9"/><path class="st8" d="M84.8 203.9l1.1 55.2-56.3-9.9-1.1-55.2z"/><path class="st4" d="M6.2 267.4l-1.2-57 22.6-17.5 1.1 57z"/><path class="st4" d="M6 211.5L28.5 194l1.1 55.2-22.5 17.5z"/><path class="st9" d="M7.1 266.7L6 211.5 28.5 194l1.1 55.2z"/><path class="st6" d="M64.3 277.7L6.2 267.4l22.5-17.5 58.1 10.3z"/><path class="st6" d="M7.1 266.7l22.5-17.5 56.3 9.9-22.6 17.5z"/><path class="st10" d="M63.3 276.6l-56.2-9.9 22.5-17.5 56.3 9.9z"/><path class="st6" d="M62.2 221.4L6 211.5 28.5 194l56.3 9.9z"/><path class="st4" d="M63.3 276.6l-1.1-55.2 22.6-17.5 1.1 55.2z"/><path class="st9" d="M62.2 221.4l22.6-17.5 1.1 55.2-22.6 17.5z"/><path class="st8" d="M62.2 221.4l1.1 55.2-56.2-9.9L6 211.5z"/><path class="st10" d="M6 211.5L28.5 194l56.3 9.9-22.6 17.5z"/><path class="st3" d="M5 210.4l58.1 10.2 1.1 57.1-58-10.3-1.2-57zm58.3 66.2l-1.1-55.2L6 211.5l1.1 55.2 56.2 9.9"/><path class="st6" d="M5 210.4l22.6-17.5 58 10.2-22.5 17.5z"/><path class="st4" d="M63.1 220.6l22.5-17.5 1.2 57.1-22.5 17.5z"/></g></g><g class="st0"><g class="st1"><path class="st3" d="M219.6 226.7l58.1 10.2 1.1 57.1-58.1-10.2-1.1-57.1zm58.3 66.2l-1.1-55.2-56.3-9.9 1.1 55.2 56.3 9.9"/><path class="st8" d="M276.8 237.7l1.1 55.2-56.3-9.9-1.1-55.2z"/><path class="st4" d="M198.2 301.2l-1.1-57 22.5-17.5 1.1 57z"/><path class="st4" d="M198 245.2l22.5-17.4 1.1 55.2-22.5 17.4z"/><path class="st9" d="M199.1 300.4l-1.1-55.2 22.5-17.4 1.1 55.2z"/><path class="st6" d="M256.2 311.5l-58-10.3 22.5-17.5 58.1 10.3z"/><path class="st6" d="M199.1 300.4l22.5-17.4 56.3 9.9-22.6 17.5z"/><path class="st10" d="M255.3 310.4l-56.2-10 22.5-17.4 56.3 9.9z"/><path class="st6" d="M254.2 255.2l-56.2-10 22.5-17.4 56.3 9.9z"/><path class="st4" d="M255.3 310.4l-1.1-55.2 22.6-17.5 1.1 55.2z"/><path class="st9" d="M254.2 255.2l22.6-17.5 1.1 55.2-22.6 17.5z"/><path class="st10" d="M198 245.2l22.5-17.4 56.3 9.9-22.6 17.5z"/><path class="st3" d="M197.1 244.2l58.1 10.2 1.1 57.1-58.1-10.2-1.1-57.1zm58.2 66.2l-1.1-55.2-56.3-9.9 1.1 55.2 56.3 9.9"/><path class="st8" d="M254.2 255.2l1.1 55.2-56.2-10-1.1-55.2z"/><path class="st6" d="M197.1 244.2l22.5-17.5 58 10.2-22.5 17.5z"/><path class="st4" d="M255.1 254.4l22.5-17.5 1.2 57.1-22.6 17.5z"/></g></g><g class="st0"><g class="st1"><path class="st3" d="M155.4 215.6l58.1 10.2 1.1 57-58.1-10.2-1.1-57zm58.3 66.2l-1.1-55.2-56.3-9.9 1.1 55.2 56.3 9.9"/><path class="st8" d="M212.6 226.6l1.1 55.2-56.3-9.9-1.1-55.2z"/><path class="st4" d="M134 290.2l-1.1-57.1 22.5-17.5 1.1 57.1z"/><path class="st4" d="M133.8 234.2l22.5-17.5 1.1 55.2-22.5 17.5z"/><path class="st9" d="M134.9 289.4l-1.1-55.2 22.5-17.5 1.1 55.2z"/><path class="st6" d="M192.1 300.4L134 290.2l22.5-17.5 58.1 10.2z"/><path class="st6" d="M134.9 289.4l22.5-17.5 56.3 9.9-22.6 17.5z"/><path class="st10" d="M191.1 299.3l-56.2-9.9 22.5-17.5 56.3 9.9z"/><path class="st6" d="M190 244.1l-56.2-9.9 22.5-17.5 56.3 9.9z"/><path class="st4" d="M191.1 299.3l-1.1-55.2 22.6-17.5 1.1 55.2z"/><path class="st9" d="M190 244.1l22.6-17.5 1.1 55.2-22.6 17.5z"/><path class="st10" d="M133.8 234.2l22.5-17.5 56.3 9.9-22.6 17.5z"/><path class="st3" d="M132.9 233.1l58.1 10.2 1.1 57-58.1-10.1-1.1-57.1zm58.2 66.2l-1.1-55.2-56.3-9.9 1.1 55.2 56.3 9.9"/><path class="st8" d="M190 244.1l1.1 55.2-56.2-9.9-1.1-55.2z"/><path class="st6" d="M132.9 233.1l22.5-17.5 58 10.3-22.5 17.5z"/><path class="st4" d="M190.9 243.4l22.5-17.5 1.2 57-22.5 17.5z"/></g></g><g class="st0"><g class="st1"><path class="st2" d="M148 215.3l1.1 55.2-56.2-10-1.1-55.2z"/><path class="st3" d="M90.8 204.3l58.1 10.2 1.1 57-58-10.2-1.2-57zm58.3 66.2l-1.1-55.2-56.3-9.9 1.1 55.2 56.3 9.9"/><path class="st4" d="M69.5 278.8l-1.2-57.1 22.5-17.4 1.2 57z"/><path class="st4" d="M69.2 222.8l22.6-17.5 1.1 55.2L70.3 278z"/><path class="st5" d="M70.3 278l-1.1-55.2 22.6-17.5 1.1 55.2z"/><path class="st6" d="M127.5 289l-58-10.2L92 261.3l58.1 10.2z"/><path class="st6" d="M70.3 278l22.6-17.5 56.2 10-22.5 17.5z"/><path class="st7" d="M126.6 288l-56.3-10 22.6-17.5 56.2 10z"/><path class="st6" d="M125.5 232.8l-56.3-10 22.6-17.5 56.2 10z"/><path class="st4" d="M126.6 288l-1.1-55.2 22.5-17.5 1.1 55.2z"/><path class="st5" d="M125.5 232.8l22.5-17.5 1.1 55.2-22.5 17.5z"/><path class="st2" d="M125.5 232.8l1.1 55.2-56.3-10-1.1-55.2z"/><path class="st7" d="M69.2 222.8l22.6-17.5 56.2 10-22.5 17.5z"/><path class="st3" d="M68.3 221.7l58.1 10.2 1.1 57-58.1-10.2-1.1-57zm58.3 66.3l-1.1-55.2-56.3-9.9 1.1 55.2 56.3 9.9"/><path class="st6" d="M68.3 221.7l22.5-17.4 58.1 10.2-22.5 17.5z"/><path class="st4" d="M126.4 232l22.5-17.5 1.2 57-22.6 17.5z"/></g></g><g class="st0"><g class="st1"><path class="st3" d="M27.1 130.7l58.1 10.2 1.1 57.1-58.1-10.2-1.1-57.1zm58.2 66.2l-1.1-55.2-56.2-9.9 1.1 55.2 56.2 9.9"/><path class="st8" d="M84.2 141.7l1.2 55.2-56.3-9.9-1.1-55.2z"/><path class="st4" d="M5.7 205.2l-1.2-57 22.6-17.5 1.1 57z"/><path class="st4" d="M5.4 149.3L28 131.8l1.1 55.2-22.5 17.5z"/><path class="st9" d="M6.6 204.5l-1.2-55.2L28 131.8l1.1 55.2z"/><path class="st6" d="M63.7 215.5l-58-10.3 22.5-17.5L86.3 198z"/><path class="st6" d="M6.6 204.5L29.1 187l56.2 9.9-22.5 17.5z"/><path class="st10" d="M62.8 214.4l-56.2-9.9L29.1 187l56.3 9.9z"/><path class="st6" d="M61.7 159.2l-56.3-9.9L28 131.8l56.2 9.9z"/><path class="st4" d="M62.8 214.4l-1.1-55.2 22.5-17.5 1.1 55.2z"/><path class="st9" d="M61.7 159.2l22.5-17.5 1.2 55.2-22.6 17.5z"/><path class="st8" d="M61.7 159.2l1.1 55.2-56.2-9.9-1.2-55.2z"/><path class="st10" d="M5.4 149.3L28 131.8l56.2 9.9-22.5 17.5z"/><path class="st3" d="M4.5 148.2l58.1 10.2 1.1 57.1-58-10.3-1.2-57zm58.3 66.2l-1.1-55.2-56.3-9.9 1.1 55.2 56.3 9.9"/><path class="st6" d="M4.5 148.2l22.6-17.5 58 10.2-22.5 17.5z"/><path class="st4" d="M62.6 158.4l22.5-17.5 1.2 57.1-22.6 17.5z"/></g></g><g class="st0"><g class="st1"><path class="st3" d="M219.1 164.5l58.1 10.2 1.1 57-58.1-10.2-1.1-57zm58.3 66.2l-1.1-55.2-56.3-9.9 1.1 55.2 56.3 9.9"/><path class="st8" d="M276.2 175.5l1.2 55.2-56.3-9.9-1.1-55.2z"/><path class="st4" d="M197.7 239l-1.2-57 22.6-17.5 1.1 57z"/><path class="st4" d="M197.4 183l22.6-17.4 1.1 55.2-22.6 17.4z"/><path class="st9" d="M198.5 238.2l-1.1-55.2 22.6-17.4 1.1 55.2z"/><path class="st6" d="M255.7 249.2l-58-10.2 22.5-17.5 58.1 10.3z"/><path class="st6" d="M198.5 238.2l22.6-17.4 56.3 9.9-22.6 17.5z"/><path class="st10" d="M254.8 248.2l-56.3-10 22.6-17.4 56.3 9.9z"/><path class="st6" d="M253.7 193l-56.3-10 22.6-17.4 56.2 9.9z"/><path class="st4" d="M254.8 248.2l-1.1-55.2 22.5-17.5 1.2 55.2z"/><path class="st9" d="M253.7 193l22.5-17.5 1.2 55.2-22.6 17.5z"/><path class="st8" d="M253.7 193l1.1 55.2-56.3-10-1.1-55.2z"/><path class="st10" d="M197.4 183l22.6-17.4 56.2 9.9-22.5 17.5z"/><path class="st3" d="M196.5 182l58.1 10.2 1.1 57-58-10.2-1.2-57zm58.3 66.2l-1.1-55.2-56.3-9.9 1.1 55.2 56.3 9.9"/><path class="st6" d="M196.5 182l22.6-17.5 58 10.2-22.5 17.5z"/><path class="st4" d="M254.6 192.2l22.5-17.5 1.2 57.1-22.6 17.4z"/></g></g><g class="st0"><g class="st1"><path class="st2" d="M212.1 164.4l1.1 55.2-56.3-9.9-1.1-55.2z"/><path class="st3" d="M154.9 153.4l58.1 10.2 1.1 57-58.1-10.1-1.1-57.1zm58.3 66.2l-1.1-55.2-56.3-9.9 1.1 55.2 56.3 9.9"/><path class="st4" d="M133.5 228l-1.2-57.1 22.6-17.5 1.1 57.1z"/><path class="st4" d="M133.2 172l22.6-17.5 1.1 55.2-22.5 17.5z"/><path class="st5" d="M134.4 227.2l-1.2-55.2 22.6-17.5 1.1 55.2z"/><path class="st6" d="M191.5 238.2l-58-10.2 22.5-17.5 58.1 10.2z"/><path class="st6" d="M134.4 227.2l22.5-17.5 56.3 9.9-22.6 17.5z"/><path class="st7" d="M190.6 237.1l-56.2-9.9 22.5-17.5 56.3 9.9z"/><path class="st6" d="M189.5 181.9l-56.3-9.9 22.6-17.5 56.3 9.9z"/><path class="st4" d="M190.6 237.1l-1.1-55.2 22.6-17.5 1.1 55.2z"/><path class="st5" d="M189.5 181.9l22.6-17.5 1.1 55.2-22.6 17.5z"/><path class="st2" d="M189.5 181.9l1.1 55.2-56.2-9.9-1.2-55.2z"/><path class="st7" d="M133.2 172l22.6-17.5 56.3 9.9-22.6 17.5z"/><path class="st3" d="M132.3 170.9l58.1 10.2 1.1 57-58-10.1-1.2-57.1zm58.3 66.2l-1.1-55.2-56.3-9.9 1.1 55.2 56.3 9.9"/><path class="st6" d="M132.3 170.9l22.6-17.5 58 10.3-22.5 17.5z"/><path class="st4" d="M190.4 181.2l22.5-17.5 1.2 57-22.6 17.5z"/></g></g><g class="st0"><g class="st1"><path class="st8" d="M147.5 153.1l1.1 55.2-56.2-10-1.2-55.2z"/><path class="st3" d="M90.3 142.1l58.1 10.2 1.1 57.1-58.1-10.2-1.1-57.1zm58.3 66.2l-1.1-55.2-56.3-9.9 1.1 55.2 56.3 9.9"/><path class="st4" d="M68.9 216.6l-1.1-57.1 22.5-17.4 1.2 57z"/><path class="st4" d="M68.7 160.6l22.5-17.5 1.2 55.2-22.6 17.5z"/><path class="st9" d="M69.8 215.8l-1.1-55.2 22.5-17.5 1.2 55.2z"/><path class="st6" d="M127 226.8l-58.1-10.2 22.6-17.5 58 10.2z"/><path class="st6" d="M69.8 215.8l22.6-17.5 56.2 10-22.5 17.5z"/><path class="st10" d="M126.1 225.8l-56.3-10 22.6-17.5 56.2 10z"/><path class="st6" d="M125 170.5l-56.3-9.9 22.5-17.5 56.3 10z"/><path class="st4" d="M126.1 225.8l-1.1-55.3 22.5-17.4 1.1 55.2z"/><path class="st9" d="M125 170.5l22.5-17.4 1.1 55.2-22.5 17.5z"/><path class="st8" d="M125 170.5l1.1 55.3-56.3-10-1.1-55.2z"/><path class="st10" d="M68.7 160.6l22.5-17.5 56.3 10-22.5 17.4z"/><path class="st3" d="M67.8 159.5l58.1 10.2 1.1 57.1-58.1-10.2-1.1-57.1zm58.3 66.3l-1.1-55.2-56.3-9.9 1.1 55.2 56.3 9.9"/><path class="st6" d="M67.8 159.5l22.5-17.4 58.1 10.2-22.5 17.5z"/><path class="st4" d="M125.9 169.8l22.5-17.5 1.1 57-22.5 17.5z"/></g></g><g class="st0"><g class="st1"><path class="st3" d="M25.8 68.7l58.1 10.2 1.1 57-58.1-10.2-1.1-57zm58.3 66.2L83 79.7l-56.3-9.9 1.1 55.2 56.3 9.9"/><path class="st8" d="M83 79.7l1.1 55.2-56.3-9.9-1.1-55.2z"/><path class="st4" d="M4.4 143.2l-1.1-57 22.5-17.5 1.1 57.1z"/><path class="st4" d="M4.2 87.3l22.5-17.5 1.1 55.2-22.5 17.5z"/><path class="st9" d="M5.3 142.5L4.2 87.3l22.5-17.5 1.1 55.2z"/><path class="st6" d="M62.5 153.5L4.4 143.2l22.5-17.4L85 136z"/><path class="st6" d="M5.3 142.5L27.8 125l56.3 9.9-22.5 17.5z"/><path class="st10" d="M61.6 152.4l-56.3-9.9L27.8 125l56.3 9.9z"/><path class="st6" d="M60.5 97.2L4.2 87.3l22.5-17.5L83 79.7z"/><path class="st4" d="M61.6 152.4l-1.1-55.2L83 79.7l1.1 55.2z"/><path class="st9" d="M60.5 97.2L83 79.7l1.1 55.2-22.5 17.5z"/><path class="st8" d="M60.5 97.2l1.1 55.2-56.3-9.9-1.1-55.2z"/><path class="st10" d="M4.2 87.3l22.5-17.5L83 79.7 60.5 97.2z"/><path class="st3" d="M3.3 86.2l58.1 10.2 1.1 57-58.1-10.2-1.1-57zm58.3 66.2l-1.1-55.2-56.3-9.9 1.1 55.2 56.3 9.9"/><path class="st6" d="M3.3 86.2l22.5-17.5 58.1 10.2-22.6 17.5z"/><path class="st4" d="M61.3 96.4l22.6-17.5L85 136l-22.5 17.5z"/></g></g><g class="st0"><g class="st1"><path class="st8" d="M275 113.5l1.1 55.2-56.3-9.9-1.1-55.2z"/><path class="st3" d="M217.8 102.5l58.1 10.2 1.1 57.1-58-10.3-1.2-57zm58.3 66.2l-1.1-55.2-56.3-9.9 1.1 55.2 56.3 9.9"/><path class="st4" d="M196.4 177l-1.1-57 22.5-17.5 1.2 57z"/><path class="st4" d="M196.2 121l22.5-17.4 1.1 55.2-22.5 17.5z"/><path class="st9" d="M197.3 176.3l-1.1-55.3 22.5-17.4 1.1 55.2z"/><path class="st6" d="M254.5 187.3L196.4 177l22.6-17.5 58 10.3z"/><path class="st6" d="M197.3 176.3l22.5-17.5 56.3 9.9-22.5 17.5z"/><path class="st10" d="M253.6 186.2l-56.3-9.9 22.5-17.5 56.3 9.9z"/><path class="st6" d="M252.5 131l-56.3-10 22.5-17.4 56.3 9.9z"/><path class="st4" d="M253.6 186.2l-1.1-55.2 22.5-17.5 1.1 55.2z"/><path class="st9" d="M252.5 131l22.5-17.5 1.1 55.2-22.5 17.5z"/><path class="st8" d="M252.5 131l1.1 55.2-56.3-9.9-1.1-55.3z"/><path class="st10" d="M196.2 121l22.5-17.4 56.3 9.9-22.5 17.5z"/><path class="st3" d="M195.3 120l58.1 10.2 1.1 57.1-58.1-10.3-1.1-57zm58.3 66.2l-1.1-55.2-56.3-9.9 1.1 55.2 56.3 9.9"/><path class="st6" d="M195.3 120l22.5-17.5 58.1 10.2-22.6 17.5z"/><path class="st4" d="M253.3 130.2l22.6-17.5 1.1 57.1-22.5 17.5z"/></g></g><g class="st0"><g class="st1"><path class="st2" d="M210.8 102.4l1.1 55.3-56.3-10-1.1-55.2z"/><path class="st3" d="M153.6 91.4l58.1 10.2 1.1 57.1-58.1-10.2-1.1-57.1zm58.3 66.3l-1.1-55.2-56.3-9.9 1.1 55.2 56.3 9.9"/><path class="st4" d="M132.2 166l-1.1-57.1 22.5-17.5 1.2 57.1z"/><path class="st4" d="M132 110l22.5-17.5 1.1 55.2-22.5 17.5z"/><path class="st5" d="M133.1 165.2L132 110l22.5-17.5 1.1 55.2z"/><path class="st6" d="M190.3 176.2L132.2 166l22.6-17.5 58 10.2z"/><path class="st6" d="M133.1 165.2l22.5-17.5 56.3 10-22.5 17.4z"/><path class="st7" d="M189.4 175.1l-56.3-9.9 22.5-17.5 56.3 10z"/><path class="st6" d="M188.3 119.9L132 110l22.5-17.5 56.3 9.9z"/><path class="st4" d="M189.4 175.1l-1.1-55.2 22.5-17.5 1.1 55.3z"/><path class="st5" d="M188.3 119.9l22.5-17.5 1.1 55.3-22.5 17.4z"/><path class="st7" d="M132 110l22.5-17.5 56.3 9.9-22.5 17.5z"/><path class="st3" d="M131.1 108.9l58.1 10.2 1.1 57.1-58.1-10.2-1.1-57.1zm58.3 66.2l-1.1-55.2L132 110l1.1 55.2 56.3 9.9"/><path class="st2" d="M188.3 119.9l1.1 55.2-56.3-9.9L132 110z"/><path class="st6" d="M131.1 108.9l22.5-17.5 58.1 10.3-22.6 17.5z"/><path class="st4" d="M189.1 119.2l22.6-17.5 1.1 57-22.5 17.5z"/></g></g><g class="st0"><g class="st1"><path class="st2" d="M146.3 91.1l1.1 55.2-56.3-9.9L90 81.2z"/><path class="st3" d="M89.1 80.1l58.1 10.2 1.1 57-58.1-10.2-1.1-57zm58.3 66.2l-1.1-55.2L90 81.2l1.1 55.2 56.3 9.9"/><path class="st4" d="M67.7 154.6l-1.2-57 22.6-17.5 1.1 57z"/><path class="st4" d="M67.5 98.6L90 81.2l1.1 55.2-22.5 17.4z"/><path class="st5" d="M68.6 153.8l-1.1-55.2L90 81.2l1.1 55.2z"/><path class="st6" d="M125.7 164.8l-58-10.2 22.5-17.5 58.1 10.3z"/><path class="st6" d="M68.6 153.8l22.5-17.4 56.3 9.9-22.6 17.5z"/><path class="st7" d="M124.8 163.8l-56.2-10 22.5-17.4 56.3 9.9z"/><path class="st6" d="M123.7 108.6l-56.2-10L90 81.2l56.3 9.9z"/><path class="st5" d="M123.7 108.6l22.6-17.5 1.1 55.2-22.6 17.5z"/><path class="st7" d="M67.5 98.6L90 81.2l56.3 9.9-22.6 17.5z"/><path class="st3" d="M66.5 97.6l58.1 10.2 1.1 57-58.1-10.2-1.1-57zm58.3 66.2l-1.1-55.2-56.3-9.9 1.1 55.2 56.3 9.9"/><path class="st2" d="M123.7 108.6l1.1 55.2-56.2-10-1.1-55.2z"/><path class="st4" d="M124.6 107.9l21.7-16.8z"/><path class="st6" d="M66.5 97.6l22.6-17.5 58 10.2-22.5 17.5z"/><path class="st4" d="M124.6 107.8l22.5-17.5 1.2 57.1-22.6 17.4z"/></g></g></svg>