<svg id="Layer_1" xmlns="http://www.w3.org/2000/svg" viewBox="0 0 361 381"><style>.st0{fill:#fff}</style><path class="st0" d="M11 369V98.1h9.5v37.3c4.6-27.8 10.3-41.7 17.1-41.7 5.9 0 10.6 8.7 14 26.1s5.1 41.1 5.1 71.1c0 32.9-2 59.6-6.1 79.9-4 20.4-9.3 30.5-15.9 30.5-5.6 0-10.4-9-14.3-27.1V369H11zm9.5-121.8c4.4 18 8.7 27.1 13 27.1 4.2 0 7.4-7 9.7-20.9 2.3-14 3.4-33.5 3.4-58.6 0-46.8-3.7-70.2-11-70.2-5.4 0-10.4 12.7-15.1 38v84.6zm81.4 25.6c-5.7 18.3-11.5 27.4-17.2 27.4-4.8 0-8.7-5.2-11.8-15.5-3.1-10.4-4.6-23.5-4.6-39.3 0-20.6 2.4-37.2 7.2-49.7 4.8-12.6 11.2-18.8 19.1-18.8h5.9v-17c0-14-.8-24-2.5-30-1.6-6-4.3-9-8.1-9-5.5 0-11.2 5.9-17 17.6v-30.9c6.7-9.1 13-13.7 18.9-13.7 6.6 0 11.3 5 14.1 15 2.7 10 4.1 27.3 4.1 51.8v83.2c0 12 .3 20.1 1 24.4.7 4.3 1.9 6.5 3.8 6.5.6 0 1.6-.6 3-1.8l.9 21.6c-3.2 3.9-5.6 5.9-7.2 5.9-4.8-.3-7.9-9.4-9.6-27.7zm-1.5-23.4v-50.1h-2.8c-13 0-19.5 13.4-19.5 40.1 0 9.6.8 17.4 2.5 23.2 1.7 5.9 3.9 8.8 6.6 8.8 4.2-.1 8.6-7.4 13.2-22zm29.5 47.4V98.1h9.5v37.3c4.4-27.8 10.3-41.7 17.8-41.7 9.9 0 14.9 22.4 14.9 67.1v135.9h-9.5v-126c0-15.5-.6-26.5-1.9-33-1.3-6.5-3.4-9.8-6.4-9.8-4.7 0-9.7 13-14.9 39v129.8h-9.5zm92.9 0v-37.3c-4.6 27.9-10.3 41.9-17.1 41.9-5.9 0-10.6-8.7-14-26.2-3.4-17.4-5.1-41.1-5.1-71.1 0-32.9 2-59.5 6.1-79.8s9.3-30.5 15.9-30.5c5.6 0 10.4 9 14.3 27.1V8h9.5v288.8h-9.6zm0-148.9c-4.4-18-8.8-27.1-13-27.1-4.2 0-7.4 7-9.7 20.9-2.3 13.9-3.4 33.5-3.4 58.8 0 46.8 3.7 70.1 11 70.1 5.4 0 10.4-12.7 15.1-38.2v-84.5zM280 272.8c-5.7 18.3-11.5 27.4-17.2 27.4-4.8 0-8.7-5.2-11.8-15.5-3.1-10.4-4.6-23.5-4.6-39.3 0-20.6 2.4-37.2 7.2-49.7 4.8-12.6 11.2-18.8 19.1-18.8h5.9v-17c0-14-.8-24-2.5-30-1.6-6-4.3-9-8.1-9-5.5 0-11.2 5.9-17 17.6v-30.9c6.7-9.1 13-13.7 18.9-13.7 6.6 0 11.3 5 14.1 15 2.7 10 4.1 27.3 4.1 51.8v83.2c0 12 .3 20.1 1 24.4.7 4.3 1.9 6.5 3.8 6.5.6 0 1.6-.6 3-1.8l.9 21.6c-3.2 3.9-5.6 5.9-7.2 5.9-4.8-.3-7.9-9.4-9.6-27.7zm-1.4-23.4v-50.1h-2.8c-13 0-19.5 13.4-19.5 40.1 0 9.6.8 17.4 2.5 23.2 1.7 5.9 3.9 8.8 6.6 8.8 4.1-.1 8.5-7.4 13.2-22zm29.6 39.3v-32.6c7.3 12.1 13.7 18.1 19.1 18.1 3.8 0 7-3 9.6-8.9 2.5-5.9 3.8-13.4 3.8-22.4 0-11.6-3-21-9-28.3L321.5 202c-7.9-9.8-11.9-26.9-11.9-51.6 0-18 1.8-32 5.4-41.9 3.6-9.9 8.6-14.8 15.2-14.8 4.9 0 10.6 2.9 17.1 8.6v29.3c-6.3-7.2-12-10.8-17.1-10.8-3.5 0-6.2 2.4-8.3 7.1-2.1 4.8-3.1 11.2-3.1 19.2 0 9.9 2.4 17.9 7.1 24.1l12 15.9c4.4 5.9 7.5 12.8 9.4 20.9 1.9 8.1 2.9 18.6 2.9 31.5 0 18.8-2 33.7-6.1 44.9-4.1 11.2-9.5 16.7-16.4 16.7-6.2.2-12.6-4-19.5-12.4z"/></svg>