<svg version="1" xmlns="http://www.w3.org/2000/svg" width="800" height="166.667" viewBox="0 0 600.000000 125.000000"><path d="M270 63.5V114h97V13h-97v50.5zm96 0V113h-95V14h95v49.5z"/><path d="M308 42v21h9V21h-9v21zm-34 3.5V63h9V28h-9v17.5zm79 5V63h9V38h-9v12.5zm-56 3V63h9V44h-9v9.5zm22 27V98h9V63h-9v17.5zm22-1V96h9V63h-9v16.5zm37-16V114h97V13h-97v50.5zm96 0V113h-95V14h95v49.5z"/><path d="M392.2 20.2c-1 1.8-3.1 5.4-4.6 8-1.5 2.7-3.3 4.8-3.9 4.8-.8 0-1.3 1.4-1.3 3.6 0 3.2.1 3.4 1.3 1.8.7-1 1.3-2.1 1.3-2.6 0-1.1 8.7-1 9.4 0 2.2 3.5 10.7 52.5 9.3 53.8-.2.2-2.1-3.2-4.2-7.6-2.2-4.4-4.2-8-4.6-8-.8 0-12.9 10.1-12.9 10.7 0 .6 3.8-1.6 4.5-2.6.3-.5 2.3-2.4 4.5-4.1l3.9-3.1 5 10.3c2.8 5.7 5.3 11.2 5.6 12.2.4 1.3.9 1.6 1.5 1 .6-.6 3.5-13.8 6.6-29.3 3-15.6 6.1-28.9 6.8-29.7 1.2-1.1 2 .1 5.1 7.4 2 4.8 5 11.1 6.6 14 2.9 5.1 2.9 5.4 1.7 11.7-.6 3.6-1.5 6.2-1.8 5.8-.4-.5-2.9-9.2-5.6-19.5-2.6-10.3-5-18.5-5.2-18.3-.6.6 9.8 40.7 10.8 41.8.4.5 1.4-2.3 2.1-6.3 1.5-8.8 3.5-10.8 2.5-2.6-.4 3.8-.3 5.5.4 5.1.5-.3 1-2.1 1-3.8.1-3.2.1-3.2 1.8-1.1.9 1.1 2.4 3.1 3.4 4.5l1.6 2.4 4-8.5 3.9-8.4 1.9 7.3c1.9 7.2 1.9 7.3 7.9 10.8 7.8 4.7 7.5 4.6 7.5 3.6 0-.5-2.7-2.5-6-4.4-5.6-3.2-6.1-3.8-7.6-8.9-3.5-12.1-2.8-15 7.9-30.9 3.1-4.7 5.7-9.1 5.7-10 0-.9-.3-1.1-.8-.6-2.1 2.6-6.2 8.4-6.2 9 0 .4-1.3 2.5-2.9 4.8-3.5 5.1-7.2 12.7-11.2 22.7-1.7 4.1-3.4 7.9-3.9 8.4-.4.4-2-.9-3.4-3l-2.5-3.9 2.8-16.5c3.1-18.2 3.1-18.2 6.7-4 1 4.1 2 6.7 2.2 5.8.4-1.9-4.2-20-5.9-23.4-.6-1.2-.8-3.5-.4-5.2l.6-3 6.2 1.9c5.7 1.7 6.5 1.7 11.7.3 3-.9 5.9-2 6.4-2.5s-2 0-5.7 1c-6.5 1.9-6.7 1.9-12.9.1-3.4-1.1-6.3-1.8-6.4-1.7-.1.1-2.1 9.6-4.5 21-3.7 17.8-4.5 20.6-5.6 19.1-.7-.9-4.1-8.2-7.5-16.1-3.5-7.8-6.6-14.3-7-14.3-.8 0-1.3 1.5-7.4 23.3-2.6 9.2-5 16.4-5.4 16-2-2.2-7.3-23.6-9.2-37.6-1.2-8.6-2.5-15.7-2.9-15.7-.4 0-1.6 1.5-2.7 3.2zM412 71.7c-4.3 21.6-4.8 23.9-5.4 23.2-.6-.6-4.7-31.1-4.3-31.6.2-.2 1.3 2.6 2.3 6.2 1 3.6 2.2 6.5 2.6 6.5.7 0 2.6-6.1 6.4-19.8 3.2-11.5 2.6-5.5-1.6 15.5zm74-8.2V114h97V13h-97v50.5zm96 0c0 48.8 0 49.5-2 49.5-1.8 0-2-.7-2-8.8v-8.7l-4.1-4.7c-2.2-2.7-4.4-4.8-4.8-4.8-.5 0-2.9 4.4-5.5 9.7l-4.7 9.7-4.6-7c-2.5-3.8-4.7-7.1-4.9-7.3-.2-.2-2.5 1.5-5.2 3.8l-4.9 4.1-4.9-6.9-4.8-6.8-4.9 3c-4 2.4-5.1 2.7-5.8 1.6-.5-.8-2.5-4-4.5-7.1-1.9-3.2-3.7-5.8-3.9-5.8-.2 0-2.4 5.4-5 12.1-2.6 6.6-4.9 11.8-5.2 11.5-.3-.3-2.5-4.2-4.9-8.8l-4.3-8.3-.1 14.7c0 14.1-.1 14.8-2 14.8-2 0-2-.7-2-49.5V14h95v49.5z"/><path d="M491.1 33.3c-.1 11.4.1 12.4 4.6 26.8 2.6 8.2 5.1 14.9 5.7 14.9.6 0 2.7-1.7 4.8-3.7l3.8-3.7 5 2.4c2.7 1.3 5.1 2.2 5.3 1.9.2-.2 2.3-3.2 4.7-6.7 2.3-3.4 4.5-6.2 4.7-6.2.2 0 2.6 4.7 5.3 10.5l4.9 10.5h4.9c5.7 0 7.3-1 17.3-10.7l6.6-6.5 4.1 2.1c2.3 1.2 4.4 2.1 4.7 2.1.3 0 .5-5.1.5-11.4V44.3l-4.7-3.7-4.6-3.6-4.8 10c-6.5 13.7-12.9 21.7-18.3 23.1-2.3.5-4.6 1.2-5.3 1.4-.7.2-3.3-3.1-6-7.6l-4.8-8-5.1.6-5.1.6-4.4-5.6c-4.6-5.8-4.7-5.8-12.2-4-2.4.6-2.6.3-7-12.7l-4.5-13.3-.1 11.8zM159 28v8.1l-2.2-2.1c-1.6-1.4-3.5-2-7.1-2-4 0-5.3.5-7.7 2.8-7.2 7.2-6 21.8 2.2 26.7 3.6 2.1 10 1.6 12.9-1.1 1.7-1.6 1.9-1.6 1.9-.1 0 1.1.8 1.7 2.5 1.7h2.5V20h-2.5c-2.5 0-2.5.1-2.5 8zm-2.9 9.9c3 2.4 4 12.8 1.5 16.6-3.3 5-8.5 5.6-12.5 1.4-3.7-4-3.4-13.7.5-18 2.2-2.4 7.5-2.4 10.5 0zM35 53v21h2.5c2.4 0 2.5-.2 2.5-7.6v-7.5l2.6 2c3.6 2.9 10.2 2.8 13.9-.1 7.4-5.8 7.4-20.8 0-26.6-3.7-2.9-10.3-3-13.9-.1l-2.6 2v-2c0-1.6-.6-2.1-2.5-2.1H35v21zm19.1-14.4c2 2.2 2.4 3.6 2.4 9.1 0 5.9-.3 6.7-2.8 8.9-1.5 1.3-3.9 2.4-5.2 2.4-1.3 0-3.7-1.1-5.2-2.4-2.5-2.2-2.8-3-2.8-8.9 0-5.5.4-6.9 2.4-9.1 1.6-1.7 3.5-2.6 5.6-2.6 2.1 0 4 .9 5.6 2.6zm18.7-5.9c-1.1.3-1.8 1.4-1.8 2.8 0 2.2.3 2.4 2.6 1.5 4.4-1.7 11.2-1.2 13.4 1 3.6 3.6 2.6 5-3.5 5-6.4 0-11.9 2-13.4 4.8-2.1 3.9-1.3 10.1 1.5 12.9 2.3 2.2 3.2 2.5 8 2.1 3.3-.3 6.2-1.2 7.4-2.3 1.8-1.6 2-1.6 2-.2 0 1.2.8 1.7 2.6 1.7h2.6l-.4-12.1-.3-12.1-3.3-2.9c-2.9-2.6-3.9-2.9-9.5-2.8-3.4.1-7 .3-7.9.6zM104 47v15h2.5c2.5 0 2.5 0 2.5-9.5 0-13.1 1.8-16.5 8.9-16.5 5.1 0 6.1 2.4 6.1 14.8V62h6.3l-.6-11.4c-.5-11.6-2-16.7-5.2-18-3.6-1.3-10.2-.6-12.9 1.5l-2.6 2v-2c0-1.6-.6-2.1-2.5-2.1H104v15zm72.8-14.3c-1.1.3-1.8 1.4-1.8 2.8 0 2.2.3 2.4 2.6 1.5 6.6-2.5 15.4-.2 15.4 4.1 0 1.6-.7 1.9-5.5 1.9-6.4 0-11.9 2-13.4 4.8-1.5 2.7-1.3 9.3.2 11.3 3.3 4.3 11.7 5.3 16.1 1.8 2.1-1.7 2.6-1.8 2.6-.5 0 1 .9 1.6 2.5 1.6h2.5V51c0-12.1-1-15.4-5.1-17.6-2.6-1.3-12.2-1.8-16.1-.7zm32.8 1.4c-2 1.6-2.6 2.9-2.6 5.8 0 5.3 1.5 6.8 9.5 9.3 6.2 2 7 2.6 7.3 5 .6 4.7-5.8 6-15.6 3.2-2.1-.6-2.3-.4-2 1.7.4 2.7 2.9 3.7 10.6 3.8 6.5.1 10.7-1.9 12-5.9 2.1-5.9-.7-9.3-10-12-5.8-1.8-6.8-2.4-6.8-4.3 0-1.3.5-2.8 1.2-3.5 1.4-1.4 8.7-1.6 12.2-.2 2.3.9 2.6.7 2.6-1.4 0-3-1.6-3.6-9.4-3.6-4.9 0-6.9.5-9 2.1z"/></svg>