<svg id="Layer_1" xmlns="http://www.w3.org/2000/svg" viewBox="0 0 358.9 377.5"><style>.st0{fill:#fff}</style><path class="st0" d="M179.6.1c58.9 0 117.9 0 176.8-.1 1.9 0 2.5.6 2.5 5.8-.1 122.1-.1 244.2 0 366.3 0 4.9-.6 5.4-2.4 5.4-118.1-.1-236.1-.1-354.2 0-1.8 0-2.3-.5-2.3-5.5C.1 250 .1 127.9 0 5.8 0 .5.6 0 2.5 0c59.1.1 118.1.1 177.1.1z"/><path class="st0" d="M27.4 178c0 18.4-.1 36.9 0 55.3 0 5.4-.6 6.3-2.7 6.2-5.9-.3-5.9-.1-5.9-14.6 0-50.5 0-101.1-.1-151.6 0-5.1.5-7.2 2.6-6.2.2.1.4 0 .6 0 5.2 0 5.2 0 5.5 12.3.3 1 .5 2.1.6 3.3 0 .4.1 1.1.1 1.1.4.1.2-.8.3-1.3.1-1.2.3-2.3.7-3.1v.1c.5-1.5 1.1-2.8 1.7-4.1.3-1 .8-1.4 1.3-1.6.8-.1 1.5-.9 2.1-2.5l-.1-.3c.4-.7.9-1.3 1.4-1.4.8 0 1.5-.9 2.1-2.3l-.1-.4c.5-.9 1-1.4 1.6-1.5.6-.1 1.2-.1 1.7-.1h5.1c.6 0 1.2 0 1.8.1.6.1 1.2.6 1.7 1.5l-.1.4c.6 1.5 1.3 2.3 2.1 2.4.5.1 1 .7 1.4 1.4l-.1.2c.5 1.6 1.2 2.4 2.1 2.5.5.2 1 .6 1.3 1.6v.1c.6 1.3 1.2 2.7 1.7 4.1.6 1.4 1.2 2.7 1.7 4.2v-.1c.4.9.6 2 .6 3.2 0 2 .4 3.7 1 5.1l.1-.2c.3 1 .5 2 .6 3.3 0 2 .4 3.7 1 5.1l.1-.2c.4 1.1.6 2.4.6 3.9v7.8c0 1.9.3 3.5.9 4.8.1 2.7.1 5.4.2 8.2.4 1.2.6 2.6.6 4.1 0 1.5-.2 2.9-.6 4.1-.1 2.7-.1 5.4-.2 8.2-.6 1.3-.9 2.8-.9 4.7v7.9c0 1.5-.3 2.7-.6 3.9-.1 1.3-.1 2.6-.2 3.9-.6 1.4-1 3-1 5.1-.1 1.2-.3 2.3-.6 3.2l-.1-.1c-.5 1.5-1.1 2.7-1.6 4.3l-.1-.1c-.7 1.3-1 2.9-1.1 5-.1 1.2-.3 2.3-.7 3.2-.3 1-.8 1.4-1.3 1.6-.7.1-1.3.6-1.7 2.3-.1.5-.3.8-.5 1.2-.6.9-1.1 2-1.6 3.1l.1.3c-.5.8-1 1.4-1.5 1.5-.5.1-1.1.1-1.6.1-.8-.1-1.5.8-2 2.2l.1.4c-.5.9-1.1 1.5-1.8 1.5-1.1.2-2.2.2-3.3 0-.7 0-1.2-.6-1.8-1.5-.6-.2-1.1-.3-1.7-.5-.5-1.4-1.2-2.2-2-2.2-.5 0-1.1 0-1.6-.1-.6-.1-1.1-.7-1.5-1.5l.1-.3c-.5-1-1-2.2-1.6-3-.2-.3-.4-.7-.5-1.2-.3-1.2-.7-2.2-1.2-2.9-.2-.3-.4-.7-.5-1.2-.4-1.4-.8-2.7-1.3-3.8l-.1.1c-.3-2.2-.8-2.2-1.3-.2zm189 16h-5.1c-.5-1.4-1.2-2.2-2-2.2-.5 0-1.1 0-1.6-.1-.6-.1-1.1-.6-1.6-1.5l.1-.3c-.6-1.5-1.2-2.4-2.1-2.4-.5-.1-1-.6-1.3-1.5v-.1c-.6-1.2-1.1-2.7-1.8-4-.6-1.4-1.1-2.7-1.7-4.1v.1c-.5-1.5-1.1-2.7-1.6-4.3l-.1.1c-.4-.9-.6-2-.6-3.2 0-2-.4-3.7-1-5.1l-.1.2c-.3-1.1-.6-2.3-.6-3.7V158c0-2-.3-3.5-.9-4.8l-.2.2c-.4-1.2-.6-2.5-.6-4v-37.2c0-1.5.2-2.8.6-4 .1-1.3.1-2.7.2-4 .6-1.3.9-3 1-5 0-1.3.3-2.4.6-3.4l.1.2c.6-1.4 1-3 1-5.1 0-1.3.3-2.3.6-3.3l.1.1c.5-1.2.9-2.4 1.3-3.8.1-.5.3-.8.5-1.2.5-.7.9-1.7 1.2-2.9.1-.5.3-.9.5-1.2.5-.7.9-1.7 1.2-2.9.1-.5.3-.9.5-1.2.6-.9 1.1-2 1.6-3.1l-.1-.3c.4-.8.8-1.3 1.4-1.4.8 0 1.5-.9 2.1-2.3l-.1-.4c.5-.9 1-1.4 1.6-1.5.6-.1 1.2-.1 1.7-.1h5.1c.6 0 1.2 0 1.8.1.6.1 1.2.6 1.7 1.5.5.1 1.1.3 1.6.4.6 1.4 1.3 2.3 2.1 2.4.5.2 1 .6 1.3 1.5l-.1.2c.6 1.2 1.2 2.7 1.8 3.9v.1c.6 1.3 1.1 2.7 1.7 4.1v-.1c.4 1.3 1 2.3 1.6 3.2.2.3.3.6.5 1 1.2-.1.2-2.2.5-3.2V27.2c0-3.1-.2-6.4.9-9 2.2 0 4.5 0 6.7-.1 1 2.3.9 5.3.9 8.3v155.4c0 3 .1 6-.9 8.3-2.2 0-4.5 0-6.7-.1-.9-2.1-.7-4.8-.8-7.4-.1-2.3.3-4.9-.7-6.7-.7-.5-1.2.1-1.6 1.5-.1.5-.3.9-.5 1.2-.5.7-.9 1.7-1.2 2.9-.1.5-.3.9-.5 1.2-.5.7-.9 1.7-1.2 2.9-.1.5-.3.9-.5 1.2-.6.9-1.1 2-1.6 3.1l.1.3c-.5.9-1 1.4-1.6 1.5-.6.1-1.1.1-1.7.1h-1.6c-.8 0-1.4.8-1.9 2.2zm69.9-123c.5.1 1.1.2 1.6.3.7 1.1 1.2 2.7 1.8 3.9v.1c.6 1.3 1.1 2.7 1.7 4 .5 1.5 1.1 2.7 1.6 4.2l.1-.1c.4.9.5 2 .6 3.2 0 2 .4 3.7 1 5.1l.1-.2c.3 1.1.6 2.3.6 3.7v3.9c0 2 .3 3.5.9 4.9l.2-.2c.4 1.2.6 2.5.6 4 .1 1.5 0 2.9 0 4.4v9.5c.1 20.1 0 40.2 0 60.3 0 2.7.1 5.4-.6 7.8-2.2 3.5-4.5 2.6-6.8 1-1.4-3-.9-7.1-1-10.8-.1-1.7.4-4.3-1-4.4-.9 0-.9 1.6-1 3-.1 1.3-.3 2.4-.7 3.3-.5 1.5-1.1 2.9-1.7 4.1-.3 1-.8 1.4-1.3 1.6-.8.1-1.5 1-2.1 2.4l.1.3c-.5.8-1 1.4-1.5 1.5-.5.1-1.1.1-1.6.1-.8-.1-1.5.7-2 2.1-.6.2-1.1.3-1.7.5-.5.9-1.1 1.5-1.8 1.5-1.1.2-2.2.2-3.3 0-.7 0-1.2-.6-1.8-1.5-.6-.1-1.1-.3-1.7-.4-.6-1.5-1.3-2.3-2.1-2.3-.5-.1-1-.7-1.4-1.4-.5-.1-1.1-.2-1.6-.3-.7-1.2-1.2-2.7-1.8-3.9v-.1c-.6-1.3-1.2-2.7-1.7-4.1v.1c-.5-1.5-1.1-2.7-1.6-4.3l-.1.1c-.4-1-.6-2.3-.7-3.7-.1-1.3 0-2.6-.1-3.9 0-2-.3-3.5-.9-4.9l-.2.2c-.4-1.2-.6-2.5-.6-4v-12.7c0-1.5.3-2.8.6-4l.2.2c.6-1.3.9-2.9.9-4.8v-3.9c0-1.4.3-2.6.6-3.7l.1.1c.5-1.5 1.1-2.8 1.6-4.3v.1c.6-1.3 1.1-2.7 1.7-4.1v-.1c.6-1.2 1.1-2.7 1.8-3.9l-.1-.2c.4-.9.9-1.3 1.4-1.5.8-.1 1.5-.9 2.1-2.3.5-.1 1.1-.3 1.6-.4.5-.9 1-1.4 1.6-1.5.6-.1 1.2-.1 1.7-.1h3.3c.8.1 1.4-.7 2-2.1 4.5-.1 9-.2 13.6-.4.6-.9 1-2.1 1-3.9.1-1.8-.4-3-.9-4.2-.1-1.3-.1-2.6-.2-4-.3-1-.5-2.1-.6-3.3 0-1.7-.3-3.2-1-4.1-.2-.3-.3-.7-.5-1.2-.4-1.7-1-2.2-1.7-2.3-.5-.1-1-.6-1.3-1.4l.1-.3c-.6-1.4-1.2-2.4-2.1-2.4-.5-.1-1-.6-1.4-1.3-.6-.1-1.1-.3-1.7-.4-.5-1.4-1.1-2.2-1.9-2.2h-4.6c-.8-.1-1.4.7-2 2.2-.6.2-1.1.3-1.7.5-.5.8-1 1.3-1.5 1.4-.5.1-1.1.1-1.6.1-.8-.1-1.5.8-2 2.2-.5.1-1.1.3-1.6.4-.5.9-1.1 1.4-1.7 1.4-.6 0-1.2-.5-1.7-1.6V75.4c.3-1.1.8-1.5 1.4-1.7.8-.1 1.5-.9 2-2.4l-.1-.4c.5-.8 1-1.4 1.6-1.4.5-.1 1.1-.1 1.6-.1.8.1 1.5-.7 2-2.1.6-.1 1.1-.3 1.7-.4.5-.9 1-1.4 1.6-1.4.6-.1 1.2-.1 1.7-.1h6.8c.6 0 1.2 0 1.8.1.6.1 1.2.6 1.7 1.5.6.1 1.1.3 1.7.4.6 1.5 1.2 2.2 2.1 2.3.9 0 1.3.6 1.8 1.3zm-196 123.5c-.6-.2-1.1-.3-1.7-.5-.5-1.4-1.2-2.2-2-2.2-.5 0-1.1 0-1.6-.1-.6-.1-1.1-.7-1.5-1.5l.1-.2c-.6-1.2-1.1-2.7-1.8-3.8v-.1c-.6-1.4-1.1-2.8-1.7-4.1v.1c-.5-1.5-1.1-2.8-1.6-4.3l-.1.1c-.3-1-.5-2-.6-3.3 0-2-.4-3.7-1-5.1l-.2.2c-.4-1.2-.6-2.5-.6-3.9v-21c0-1.5.3-2.8.6-4l.2.2c.6-1.4 1-3 1-5.1 0-1.3.3-2.3.6-3.3l.1.2c.5-1.2.9-2.4 1.3-3.8.1-.5.3-.8.5-1.2.5-.7.9-1.7 1.2-2.9.1-.5.3-.9.5-1.2.6-.9 1.1-2 1.6-3.1l-.1-.3c.4-.8.8-1.3 1.4-1.4.8 0 1.5-.9 2.1-2.4l-.1-.4c.5-.9 1-1.4 1.6-1.5.6-.1 1.2-.1 1.8-.1h3.3c1.2-.1 2.6.5 3.5-2.1 4.5-.1 9-.2 13.6-.3.8-1.2.8-2.5.2-4-.1-1.3-.1-2.7-.2-4-.3-1-.5-2.1-.6-3.4 0-2-.4-3.6-1-4.9l-.1.1c-.5-1.5-1.1-2.8-1.7-4.2-.6-1.2-1.1-2.7-1.8-3.9l.1-.3c-.6-1.5-1.2-2.4-2.1-2.4-.5-.1-1-.6-1.4-1.3-.6-.1-1.1-.3-1.7-.4-.5-1.4-1.1-2.2-1.9-2.2h-4.6c-.8-.1-1.4.7-2 2.2-.6.2-1.1.3-1.7.5-.5.9-1 1.3-1.6 1.4-.6.1-1.1.1-1.7.1h-1.6c-.8-.1-1.4.8-2 2.2l.1.3c-.5.9-1.1 1.5-1.8 1.4-.6 0-1.3-.3-1.8-1.3-.9-3.4-.6-7-.5-10.6.1-.6.2-1.3.3-1.8.6-1.6 1.4-2.5 2-4.1.5-.1 1.1-.3 1.6-.4.5-.8 1-1.3 1.6-1.4.5-.1 1.1-.1 1.6-.1.8.1 1.5-.7 2-2.1.6-.2 1.1-.3 1.7-.5.5-.9 1.1-1.4 1.7-1.5.6-.1 1.2-.1 1.8-.1.6-.1 1.2 0 1.8 0h4.9c.6 0 1.2 0 1.8.1.6.1 1.2.6 1.7 1.5.6.1 1.1.3 1.7.4.6 1.4 1.2 2.2 2.1 2.3.5.1 1 .7 1.4 1.4l-.1.3c.6 1.5 1.2 2.4 2.1 2.4.5.2 1 .6 1.3 1.5v.1c.6 1.3 1.2 2.7 1.7 4.1.6 1.4 1.2 2.7 1.7 4.2v-.1c.4.9.6 2 .7 3.2 0 2 .4 3.7 1 5.1l.1-.2c.4 1.1.6 2.4.6 3.9v7.8c0 1.9.3 3.5.9 4.8.1 2.7.1 5.4.2 8.2.5 1.4.7 3.2.7 5 .1 20.6 0 41.2.1 61.9 0 2.5-.1 5-.8 7l-.1-.1c-2.1 3.3-4.2 2.4-6.4 1.1-1.2-1.9-1-5-1.1-7.8-.2-2.5.5-5.4-.7-7.3-.9-.6-1.4.4-1.9 2v-.1c-.6 1.2-1.1 2.9-1.6 4.3-.6 1.2-1.3 2.4-1.8 3.8l.1.2c-.7 1.1-1.2 2.7-1.8 3.8l.1.2c-.4.9-.9 1.5-1.5 1.5-.5.1-1.1.1-1.6.1-.8-.1-1.5.7-2 2.1-.6.2-1.1.3-1.7.5-.5 1-1.1 1.5-1.8 1.5-1.1.2-2.2.2-3.3 0-.7-.1-1.3-.7-1.8-1.6zm86.8-110.8c0 1.3.1 2.5.1 3.8.3 1 .5 2.2.6 3.5 0 1.9.3 3.6.9 4.9.1 1.3.1 2.7.2 4 .4 1.2.6 2.5.6 4 .1 1.5 0 2.9 0 4.4v9.5c.1 21.3 0 42.6 0 63.9 0 2.9.1 6-.9 8.3h-6.7c-1-2.3-.9-5.3-.9-8.3v-72.4c.1-2.1-.2-3.9-.9-5.3-.1-1.3-.1-2.7-.2-4-.3-1-.5-2.1-.6-3.3 0-2-.4-3.7-1-5l-.1.1c-.5-1.5-1.1-2.9-1.7-4.1v-.1c-.5-1.6-1.2-2.5-2.1-2.5-.5-.1-1-.7-1.4-1.4l.1-.4c-.5-1.3-1.1-2.3-1.9-2.2h-3c-.8 0-1.4.8-1.9 2.2-.6.1-1.1.3-1.7.4-.4.7-.9 1.3-1.4 1.4-.8.1-1.5.9-2 2.4l.1.2c-.6 1.1-1.2 2.6-1.8 3.9-.6 1.4-1.1 2.7-1.7 4.2l-.1-.1c-.6 1.4-1 3-1 5.1 0 1.3-.3 2.3-.6 3.3l-.1-.2c-.6 1.3-1 2.9-.9 4.8v8.4c.1 1.6 0 3.2 0 4.8.1 20 0 39.9 0 59.9 0 3 .1 6-.9 8.3-2.2-.1-4.5-.1-6.7-.2-1-2.4-.8-5.4-.8-8.4V75.6c0-2.9-.2-6 .8-8.4 2.2-.1 4.5-.1 6.7-.2 1.2 3.2.8 7.2.9 11v4c.1.6-.2 2.3.6 1.5.2-.4.3-.7.5-1 .5-.7.9-1.7 1.2-2.9.1-.5.3-.9.5-1.2.6-.9 1.1-1.9 1.6-3.2v-.1c.7-1.1 1.2-2.7 1.8-3.9l-.1-.2c.4-.8.8-1.3 1.4-1.4.8 0 1.5-.9 2.1-2.3l-.1-.4c.5-.9 1-1.4 1.6-1.5.6-.1 1.2-.1 1.7-.1h5.1c.6 0 1.2 0 1.8.1.6.1 1.2.6 1.7 1.5.5.1 1.1.3 1.6.4.6 1.4 1.3 2.3 2.1 2.3.5.1 1 .6 1.3 1.5l-.1.2c.6 1.2 1.2 2.7 1.8 3.9.6 1.4 1.1 2.7 1.7 4.2l.1-.1c1 1.6 1.7 2.8 2.1 4.4zM345.9 71c1 .1 1.8.2 1.7 3.6-.2 4.3-.1 8.6-.1 12.9-.4 1.2-1 1.6-1.6 1.7-.6 0-1.2-.5-1.7-1.4l.1-.4c-.5-1.3-1.2-2.3-2-2.2h-1.6c-.6 0-1.1 0-1.7-.1-.6-.1-1.1-.6-1.6-1.5l.1-.4c-.6-1.4-1.3-2.4-2.1-2.2-.5 0-1 .1-1.6.1h-2.9c-.5 0-1 0-1.6-.1-.9-.2-1.6.7-2.2 2.1l.1.4c-.5.8-1 1.3-1.6 1.4-.5.1-1.1.1-1.6.1-.8-.1-1.5.8-2 2.3v.1c-.6 1.2-1.2 2.6-1.7 4.1l-.1-.1c-.6 1.2-1 2.6-1 4.6v7.2c0 2 .4 3.4.9 4.7l.1-.1c.5 1.5 1.1 2.9 1.7 4.1l-.1.2c.6 1.5 1.2 2.4 2.1 2.5.5.1 1 .7 1.4 1.4l-.1.4c.5 1.4 1.2 2.3 2 2.2h1.6c.6 0 1.1 0 1.7.1.6.1 1.1.6 1.6 1.5l-.1.4c.5 1.3 1.2 2.3 2 2.2h1.6c.6 0 1.1 0 1.7.1.6.1 1.1.6 1.6 1.5l-.1.4c.6 1.4 1.3 2.3 2.1 2.4.5.1 1 .7 1.4 1.4l-.1.3c.6 1.5 1.2 2.4 2.1 2.4.5.2 1 .6 1.3 1.5v.1c.6 1.3 1.2 2.7 1.7 4.1v-.1c.4.9.6 2 .6 3.2 0 2 .4 3.7 1 5.1l.1-.2c.4 1.2.6 2.6.6 4.1.1 1.5 0 2.9 0 4.4v12.1c0 1.6-.3 2.9-.6 4.2l-.1-.2c-.6 1.4-1 3-1 5.1 0 1.3-.3 2.3-.6 3.3l-.1-.1c-.5 1.4-1.1 2.8-1.7 4.2-.6 1.2-1.1 2.7-1.8 3.9l.1.2c-.4.9-.8 1.3-1.3 1.5-.8.1-1.5.9-2.1 2.4l.1.4c-.5.8-1 1.4-1.5 1.4-.5.1-1.1.1-1.6.1-.8-.1-1.5.7-2 2.1-.6.2-1.1.3-1.7.5-.5.9-1.1 1.4-1.7 1.5-.6.1-1.2.1-1.8.1H327c-.6 0-1.2 0-1.8-.1-.6-.1-1.2-.6-1.7-1.5-.6-.2-1.1-.3-1.7-.5-.5-1.4-1.2-2.2-2-2.2h-1.6c-.6 0-1.1 0-1.7-.1-.6-.1-1.1-.6-1.6-1.5l.1-.4c-.5-1.3-1.1-2.3-1.9-2.3-.5-.2-1.1-.4-1.5-1.1-.2-.5-.4-1.1-.5-1.7-.4-4.6-.4-9.3 0-13.9.1-.7.3-1.3.5-1.8.6-.8 1.2-.6 1.7.3l-.1.3c.5 1.4 1.2 2.3 2 2.3.5 0 1.1 0 1.6.1.6.1 1.1.6 1.6 1.4l-.1.4c.5 1.3 1.1 2.3 2 2.2h3.3c.6 0 1.2 0 1.7.1.6.1 1.2.6 1.6 1.5h3.4c.5-.9 1-1.3 1.6-1.4.6-.1 1.1-.1 1.7-.1h1.6c.8.1 1.4-.9 2-2.2l-.1-.3c.4-.8.9-1.3 1.4-1.4.9 0 1.4-1.2 1.4-3.3 0-1.3.3-2.4.6-3.3l.1.2c.5-1.3 1-2.7.9-4.7V154c0-2-.4-3.4-1-4.5v.1c-.4-1.5-.9-2.4-1.5-3.3-.2-.3-.4-.7-.5-1.2-.4-1.6-.9-2.3-1.7-2.2-.5 0-1 0-1.5-.1-.6-.1-1.1-.6-1.5-1.4l.1-.4c-.5-1.3-1.2-2.3-2-2.2h-1.6c-.6 0-1.1 0-1.7-.1-.6-.1-1.1-.6-1.6-1.5l.1-.4c-.5-1.3-1.2-2.3-2-2.2h-1.6c-.6 0-1.1 0-1.7-.1-.6-.1-1.1-.7-1.6-1.5l.1-.3c-.6-1.4-1.3-2.4-2.1-2.4-.5-.1-1-.6-1.3-1.5l.1-.2c-.6-1.2-1.2-2.7-1.8-3.9v-.1c-.6-1.4-1.1-2.7-1.7-4.2l-.1.1c-.3-.9-.5-2-.6-3.2 0-2-.4-3.7-1-5.1l-.2.2c-.4-1.2-.6-2.5-.6-4V95.7c0-1.5.3-2.8.6-4l.2.2c.6-1.4 1-3 1-5.1 0-1.3.3-2.3.6-3.3l.1.1c.5-1.1.9-2.4 1.3-3.8.1-.5.3-.8.5-1.2.5-.7.9-1.7 1.2-2.9.1-.5.3-.9.5-1.2.6-.9 1.1-2 1.6-3.1l-.1-.3c.4-.8.8-1.3 1.4-1.4.8 0 1.5-.9 2.1-2.3.6-.1 1.1-.3 1.7-.4.5-.9 1-1.4 1.6-1.4.6-.1 1.2-.1 1.7-.1h10.2c.6 0 1.2 0 1.8.1.6.1 1.2.6 1.7 1.5l-.1.4c.6 1.4 1.2 2.3 2 2.2.5 0 1.1 0 1.6.1.7-.2 1.2.4 1.7 1.2z"/><path class="st0" d="M238.5 190V18c2.3-.9 1.8 3.3 1.8 6.2v160.4c-.1 2.8.2 6.3-1.8 5.4zM138 67.3v122.6c-2.2 1.4-1.7-2.4-1.7-5.1v-113c0-3-.1-5.7 1.7-4.5zm34 49c0 24.5.1 49.1.1 73.6-1.4.7-1.8-.6-1.8-3.9.1-23.3.1-46.5.1-69.8.6-1 1.1-1 1.6.1zm6.9 73.6c0-24.6.1-49.1.1-73.7.5-1.1 1-1.1 1.5 0 0 23.2 0 46.4.1 69.7 0 3.4-.4 4.8-1.7 4zm-34.1.1c.1-23.2.1-46.4.2-69.6.5-1.2 1.1-1.1 1.6 0v63.9c-.1 3 .1 6.3-1.8 5.7zm151.5 0c.1-23.2.1-46.4.2-69.6.5-1.1 1-1.1 1.5.1V190c-.3 1.1-.7 1.3-1.2 1-.2-.2-.3-.5-.5-1zm-177 .1c0-23.2.1-46.5.1-69.7.5-1.1 1.1-1.1 1.6 0v63.8c0 2.9.3 6.3-1.7 5.9zm112.4-172c0 21.8-.1 43.5-.1 65.3-.5 1.3-1.1 1.3-1.7.5l.1-.5c-.5-1.3-.4-2.7-.1-4.1 0-18.7 0-37.3.1-56 0-2.8-.4-6.5 1.7-5.2zM83.5 312.9H61.4c-.5-1.3-.5-2.5 0-3.8h22.1c.5 1.4.5 2.6 0 3.8zm0 16.4H61.4c-.5-1.3-.5-2.5 0-3.8h22.1c.5 1.4.5 2.6 0 3.8zm136.4 16.8c-.1 1.3-.1 2.6-.2 3.9-.4 1.2-.9 1.2-1.4.8-.2-.3-.4-.8-.6-1.4-.2-1.2-.3-2.6-.3-3.9v-4c0-1.4.3-2.7.6-3.8l.2.2c.6-1.3.9-2.8.9-4.8v-7.9c0-1.5.3-2.7.6-3.9l.2.2c.4-1.2.9-1.2 1.5-.8.2.3.4.8.6 1.4.2 1.3.3 2.6.2 3.9 0 1.4-.2 2.6-.5 3.7v8.1c.3 1.1.4 2.2.3 3.5-.1.6-.2 1-.4 1.5-.7.9-1.4 1.7-1.7 3.3zm50.9-57.5c1.6-.5 1.8 1.9 1.8 4.9V317c-.7 1.5-1.3 1.3-1.9-.1-1-9.5-1.2-18.9.1-28.3z"/><path class="st0" d="M270.8 288.6c0 9.5.1 19 .1 28.5-.1.3-.2.5-.3.8-.4.5-.8.5-1.2 0-.1-.3-.2-.5-.3-.8 0-8 .1-16.1 0-24.1.1-2.9.2-4.9 1.7-4.4zm-76.6 0c1.6-.5 1.8 1.9 1.8 4.9V317c-.7 1.5-1.3 1.3-1.9-.1-1-9.5-1.2-18.9.1-28.3z"/><path class="st0" d="M194.2 288.6c0 9.5.1 19 .1 28.5-.1.3-.2.5-.3.8-.4.5-.8.5-1.2 0-.1-.3-.2-.5-.3-.8 0-8 .1-16.1 0-24.1 0-2.9.2-4.9 1.7-4.4zm1.7 33V345c0 3.1-.2 5.4-1.8 5-.5-1.3-.7-2.9-.7-4.7.2-7.9-.7-16 .6-23.7.7-1.3 1.3-1.5 1.9 0zm76.7 0V345c0 3.1-.2 5.4-1.8 5-.5-1.3-.7-2.9-.7-4.7.2-7.9-.7-16 .6-23.7.6-1.3 1.3-1.5 1.9 0zm-13.6-4.2l10.1-.3.1.3c.4 1.1.4 2.2.2 3.5l-.3.6-10.1-.3c-.5-1.3-.5-2.5 0-3.8z"/><path class="st0" d="M272.6 321.6c-.5 0-1.1 0-1.6-.1l-.3-.6c-.3-1.2-.2-2.4.2-3.5l.1-.3h1.6c2.8.1 5.7.3 8.5.4.5 1.2.5 2.4 0 3.7-2.8.1-5.7.2-8.5.4zm-78.3-.1c0 8.1-.1 16.2-.1 24.4-.5 1.2-1 1.2-1.5 0 0-8.1-.1-16.3-.1-24.4.1-.2.2-.5.3-.7.4-.5.8-.4 1.2 0 0 .2.1.5.2.7z"/><path class="st0" d="M270.9 321.5c0 8.1-.1 16.2-.1 24.4-.5 1.2-1 1.2-1.5 0 0-8.1-.1-16.3-.1-24.4l.1-.3c.5-1 1-.9 1.6 0v.3zm-75 .1c-.5 0-1.1 0-1.6-.1l-.1-.3c-.4-1.3-.4-2.5 0-3.8l.1-.3h1.6c2.8.1 5.7.3 8.5.4.5 1.2.5 2.4 0 3.7-2.8.1-5.6.2-8.5.4zm-13.5-4.2l10.1-.3.1.3c.4 1.2.4 2.5 0 3.7l-.1.3-10.1-.3c-.5-1.2-.5-2.4 0-3.7zm-71.7-143.6c1.3-.3 1.8 1.1 1.8 4.2-.1 4 0 7.9 0 11.9-.1.3-.2.5-.2.8-.5.6-1 .6-1.4-.7 0-4-.1-8-.1-12-.5-1.4-.5-2.8-.1-4.2zm201.1-4c0 5.4-.1 10.8-.1 16.3-.6 1.1-1.1 1.1-1.6-.2v-16.1c.6-1.3 1.2-1.3 1.7 0zm-13.6 147.3c1.7.1 3.3.2 5 .2.5 1.3.5 2.6 0 3.9-2.2.1-4.4.1-6.7.2-.1-.2-.2-.5-.3-.7-.3-1.5-.2-2.8.3-4 .6-.7 1.2-.5 1.7.4zM112.5 189.9c2.3 0 4.5.1 6.8.1.2 2.6 0 4.4-1.4 4.2-1.8-.2-3.6-.2-5.3-.2-.5-1.2-.5-2.4 0-3.6l-.1-.5zm117.6-16.1c1.2-.5 1.7.8 1.7 3.8-.1 4.1 0 8.2 0 12.3-3.2.8-1.1-5.5-1.8-8-.4-1.2-.6-2.6-.6-4.2 0-1.5.2-2.8.7-3.9zm-150-98.6c0 4.1.1 8.2.1 12.3.4 1.4.4 2.7 0 4-1.3.5-1.8-.9-1.8-4.1.1-4 0-8 0-12.1.6-1.1 1.1-1.2 1.7-.1zm209.5 114.6c2.2 0 4.5.1 6.7.1l.2.4c.4 1.4.3 2.6-.2 3.8-2.2 0-4.5 0-6.7-.1-.5-.7-.5-1.7-.4-2.9.1-.5.2-.9.4-1.3zM141.5 317.3c-.1 1.3-.1 2.6-.2 4-.5 1.2-1.1 1.2-1.7.4-.4-1.2-.6-2.6-.6-4.1v-4.3c0-2.5 0-4.9.3-7.3.1-.7.3-1.2.5-1.7.6-.7 1.1-.5 1.7.5v.2c.5 1.1.7 2.4.7 3.9.1 1.4.1 2.9 0 4.4-.1 1.5-.3 2.8-.7 4zm-17-45c3-.3 1.1 5.2 1.6 7.9-.4 1.2-1 1.6-1.6 1.7-.6 0-1.2-.3-1.7-1.5v-4.1c.5-1.4 1-2.8 1.7-4zm-10.2 49.1c-.1 1.3-.1 2.7-.2 4-.5 1.2-1.1 1.2-1.7.3-.5-1.1-.6-2.6-.7-4.1-.1-1.5-.1-2.9 0-4.4.1-1.5.2-3 .6-4.1.6-1 1.1-1 1.7.2l.2-.2c.9 2.7.9 5.5.1 8.3zm30.6-242c-.1-4.1-.1-8.1-.2-12.2 2.9-.2 1.4 5.1 1.8 8.1.4 1.3.5 2.7.1 4.1-.5 1.1-1.1 1.1-1.7 0zM231.6 309c0-1.3.1-2.6.1-3.9.5-1.3 1.1-1.4 1.7-.6.5 1.2.6 2.6.7 4.2 0 1.5.1 3 0 4.5 0 1.5-.3 2.9-.6 4.1l-.2-.2c-.4 1.2-.9 1.2-1.5.8-.2-.3-.4-.8-.6-1.4-.2-1.3-.3-2.6-.2-3.9.1-1.3.3-2.5.6-3.6z"/><path class="st0" d="M289.5 177.9c0 4 .1 8 .1 12v.6c-.6.9-1.2.7-1.6-.5 0-2.7-.1-5.3-.1-8-.3-1.1-.4-2.3-.3-3.6.1-.6.3-1 .5-1.3.5-.4 1-.3 1.4.8zM27.4 333.6c-.1 1.4-.1 2.7-.2 4.1-.4 1.1-.8 2.3-1.1 3.6-.2.5-.3.9-.6 1.3-.5.5-1 .6-1.5 0-.2-.4-.4-.9-.5-1.5-.2-1.2-.2-2.5-.2-3.9s.2-2.6.6-3.5v.1c.4-1.1.9-1.5 1.5-1.6.6-.1 1.1.1 1.7.7.1.2.2.5.3.7zm108.9 8.2c-1.2 0-2.4-.1-3.6.1-1.3.2-1.5-1.7-1.6-4.1.1-.3.2-.5.3-.8.5-.7 1.1-.9 1.7-.9.6 0 1.1.6 1.6 1.5h1.7c.4 1.5.4 2.9-.1 4.2zM116 284.5c1.3-.3 1.6 1.3 1.6 4.1s-.3 4.3-1.6 4c-.1-.2-.2-.3-.3-.5-.5-2-.4-4.2-.2-6.4.1-.5.3-1 .5-1.2z"/><path class="st0" d="M116 292.6c-.1 1.3-.1 2.7-.2 4-.4 1.2-1 1.7-1.7 1.7s-1.3-.3-1.8-1.5c-.4-1.4-.4-2.8-.1-4.3.5-1.2 1.1-1.4 1.8-1.5.7 0 1.2.5 1.7 1.7l.3-.1zM17.1 301c1.4.4 3.3-2.4 3.5 3.9-.1.2-.2.5-.3.7-.5.7-1.1.8-1.7.8-.6-.1-1.2-.4-1.6-1.5-.4-1.3-.4-2.6.1-3.9zm12 0c3-.2 1.2 5.1 1.6 7.9-.5 1.2-1.1 1.2-1.7.3-.5-1.2-.6-2.6-.6-4.1 0-1.6.2-3 .7-4.1zm85.2 0c0 2.7-.1 5.5-.1 8.2-.5 1-1.1 1-1.7.1-.5-1.1-.6-2.4-.6-3.9 0-1.4.1-2.8.3-4 .3-1.3.9-1.7 1.5-1.5.2.2.4.6.6 1.1zm20.3 4c0-7 2.2-3.2 3.4-4 .4.8.4 1.8.4 2.9-.1.5-.2 1-.4 1.3-.6 0-1.1-.1-1.7-.1-.4.8-.9 1.1-1.4.5l-.3-.6zm8.6 0c0-7 2.1-3.3 3.4-4 .4 1.2.5 2.5.1 3.8-.4 1.1-1 1.4-1.6 1.6-.6.1-1.1-.1-1.7-.7 0-.2-.1-.4-.2-.7zm90.1.1h-1.6c-.1-2.7.2-4.3 1.5-4.3s2 .9 1.8 4.3c-.5 1-1.1.9-1.7 0zm68.2-4c1.1 0 2.2-.1 3.3-.1.5 1.3.5 2.6 0 3.9-1.1 0-2.2-.1-3.4-.1-.3-1.3-.3-2.5.1-3.7z"/><path class="st0" d="M139.8 304.9c0 2.7-.1 5.4-.1 8.2-.5 1.2-1.1 1.1-1.6.1v-8.5c.5-.9 1.1-1 1.7.2zm5 .1c.5 0 1.1.1 1.6.1l.3.6c.3 1.2.4 2.4.4 3.8 0 1.3-.2 2.6-.5 3.6-1.3.5-1.9-.8-1.8-4-.4-1.4-.4-2.8 0-4.1zm151.7 0c.5-.1 1.1-.2 1.6-.2.5-.8 1-1.1 1.5-.6.2.3.4.8.6 1.3.2 1.3.1 2.6-.4 3.5-.5 0-1 .1-1.6.1-.6 1-1.2 1.3-1.8.2-.5-1.5-.5-2.9.1-4.3zM98.8 317.3c0-2.7.1-5.4.1-8.2.6-1.2 1.1-1.2 1.7-.1.7 2.5.7 5.1.2 7.8-.4 1.5-1 1.7-1.7 1.2 0-.2-.2-.5-.3-.7z"/><path class="st0" d="M296.4 309c.6 0 1.2.1 1.8.1 0 1.3-.1 2.6-.1 3.9-.3 1.1-.8 1.4-1.3 1.5-.5.1-1 0-1.5-.3-.2-.2-.4-.6-.6-1.1 0-1.3.1-2.6.1-3.9.5-1.3 1-1.2 1.6-.2zm34.1-229.6h3.4c.5 1.3.5 2.5 0 3.8h-3.4c-.5-1.2-.5-2.5 0-3.8zm-216.2 242v-8.3c1.2-.1 1.7 1.3 1.7 4.2-.1 2.8-.5 4.3-1.7 4.1zm-17.1-209c-.1 6.5-2.2 2.9-3.4 3.9-.4-1.3-.5-2.6 0-3.9h3.4zm1.7-45.5h-3.4c-.4-1.2-.4-2.5 0-3.7h3.4c.4 1.2.4 2.4 0 3.7zm40.8 254.5c.5 0 1.1 0 1.6-.1v4.1c-.4 1.1-1 1.6-1.6 1.6-.6 0-1.2-.4-1.6-1.5v-4.1c.5-1.2 1.1-1.1 1.6 0zm209.6-159.9v-8.3c.5-1 1-1.1 1.5.1v8.1c-.4 1.1-1 1.1-1.5.1zm-306.7 33H46c.5 1.3.4 2.6 0 3.8h-3.4c-.4-1.3-.4-2.6 0-3.8zm49.4 0h3.4c.5 1.3.4 2.6 0 3.8H92c-.4-1.3-.4-2.6 0-3.8zm177.2-.1h3.4c.5 1.3.4 2.6 0 3.8h-3.4c-.5-1.2-.5-2.5 0-3.8zm57.9.1h3.4c.5 1.3.4 2.6 0 3.8h-3.4c-.5-1.3-.5-2.6 0-3.8zm-218 81.9h3.4c.5 1.1.5 2.4.2 3.8-.2.6-.4 1-.7 1.3-1.1.6-2.1.8-3-1.1-.4-1.4-.4-2.7.1-4z"/><path class="st0" d="M138.1 325.5c.5 0 1.1 0 1.6-.1.4 1.1.6 2.4.6 3.8s-.1 2.8-.4 4.1c-.4 1.3-1 1.5-1.6 1.2-.3-.2-.5-.6-.7-1.2-.3-1.4-.2-2.7.2-3.9.2-1.3.3-2.6.3-3.9zm-119.4 4v4.2c-.5 1-1 1.5-1.6 1.5-.6 0-1.2-.5-1.6-1.6v-3.9c.4-1.1 1-1.6 1.6-1.6.6-.1 1.2.4 1.6 1.4zm13.7.2c1.2.9 3.4-3.1 3.3 4.1-.5 1.1-1.1 1.5-1.7 1.5-.6 0-1.3-.3-1.8-1.4-.3-1.5-.2-2.9.2-4.2zm12 4.1c0 1.3-.1 2.6-.1 3.9-.4 1.2-.9 1.2-1.5.8-.2-.3-.4-.8-.5-1.4-.2-1.3-.3-2.6-.2-3.9 0-1.4.2-2.6.6-3.6.4-1.1.9-1.2 1.5-.8.2.3.4.8.6 1.4.1 1.3 0 2.5-.4 3.6zm90.3 3.9c-.6 0-1.2 0-1.8.1-.4-1.2-.6-2.5-.6-4s.2-2.9.6-4c2.9-.5 1.2 5.2 1.8 7.9z"/><path class="st0" d="M139.7 333.6c0-1.3.1-2.7.1-4 .5-1.2 1.1-1.1 1.6-.1v8c-.1.3-.2.5-.2.8-.4.5-.8.6-1.2.3-.3-.3-.5-.7-.6-1.3-.2-1.3-.1-2.5.3-3.7zm13.7-3.9c1.2.9 3.4-3.1 3.3 4.1-.5 1.1-1.1 1.5-1.7 1.5-.6 0-1.3-.3-1.8-1.4-.3-1.5-.3-2.9.2-4.2zm11.9 4.1c0 1.3-.1 2.6-.1 3.9-.4 1.1-.9 1.2-1.5.8-.2-.3-.4-.8-.5-1.4-.2-1.3-.3-2.6-.2-3.9 0-1.4.2-2.6.6-3.6.4-1.1.9-1.2 1.5-.8.2.3.4.8.6 1.4.1 1.3 0 2.5-.4 3.6zm74.9-4.1c1.2.9 3.4-3.1 3.3 4.1-.5 1.1-1.1 1.5-1.7 1.5-.6 0-1.3-.3-1.8-1.4-.3-1.5-.2-2.9.2-4.2zm56.2-.1c0 1.3.1 2.6.1 3.9.4 1.4.4 2.9-.1 4.2-1.3.5-1.9-.9-1.8-3.9-.3-1.1-.5-2.3-.3-3.6.1-.6.3-1.1.5-1.4.6-.4 1.1-.3 1.6.8zm13.7.1c1.2.9 3.4-3.1 3.3 4.1-.5 1.1-1.1 1.5-1.7 1.5-.6 0-1.3-.3-1.8-1.4-.3-1.5-.3-2.9.2-4.2zm11.9 4.1c0 1.3-.1 2.6-.1 3.9-.4 1.1-.9 1.2-1.5.8-.2-.3-.4-.8-.5-1.4-.2-1.3-.3-2.6-.2-3.9 0-1.4.2-2.6.6-3.6.4-1.1.9-1.2 1.5-.8.2.3.4.8.6 1.4.1 1.3 0 2.5-.4 3.6zm-207.8-53.5c1.3-.4 1.7 1.5 1.8 4.2l-.2-.1c-.5 1.1-1.1 1.6-1.7 1.6-.6 0-1.3-.3-1.8-1.4-.4-1.5-.3-2.9.1-4.2.7-1.2 1.2-1.1 1.8-.1zm-83.5 57.5c-.1 1.4.2 3.4-.7 3.7-.9.3-.9-1.6-.9-3.2v-4.7c.6 0 1.1 0 1.7-.1.4 1.5.4 2.9-.1 4.3z"/><path class="st0" d="M30.7 337.8v-4.2c.6-1.1 1.1-1.1 1.7 0h1.7c.4 1.4.5 2.8 0 4.2-.6 1.1-1.2 1-1.7-.1-.5.1-1.1.1-1.7.1zm121 0c-.1 1.5.2 3.4-.8 3.7-.8.2-.9-1.2-.9-2.6-.1-3 0-5.5 1.7-5.2.5 1.3.4 2.7 0 4.1z"/><path class="st0" d="M151.7 337.8v-4.2c.6-1.1 1.1-1.1 1.7 0h1.7c.4 1.4.5 2.8 0 4.2-.6 1.1-1.2 1-1.7-.1-.6.1-1.2.1-1.7.1zm86.8 0c.1 3-.4 4.4-1.7 4.1-.4-1-.6-2.2-.6-3.6s.1-2.7.3-3.9c.1-.2.2-.4.3-.7.5 0 1.1-.1 1.6-.1.6 1.4.6 2.8.1 4.2z"/><path class="st0" d="M238.5 337.8v-4.2c.6-1.1 1.1-1.1 1.7 0h1.7c.4 1.4.5 2.8 0 4.2-.6 1.1-1.2 1-1.7-.1-.5.1-1.1.1-1.7.1zm57.9 0c0-1.4 0-2.8.1-4.2 1.2-.1 1.8 1.2 1.6 4.1.4 1.3.5 2.7 0 4-1.3.6-1.8-.8-1.7-3.9zm12 0c-.1 1.5.2 3.4-.8 3.7-.8.2-.9-1.2-.9-2.6-.1-3 0-5.5 1.7-5.2.5 1.3.4 2.7 0 4.1z"/><path class="st0" d="M308.4 337.8v-4.2c.6-1.1 1.1-1.1 1.7 0h1.7c.4 1.4.5 2.8 0 4.2-.6 1.1-1.2 1-1.7-.1-.6.1-1.2.1-1.7.1zm-284.6-.2v4.3c-.6 1.1-1.1.9-1.7 0-.6-.1-1.1-.2-1.7-.3-.4-1.3-.4-2.5 0-3.8.6-.1 1.1-.2 1.7-.3.6-.8 1.2-.9 1.7.1zm99-57.2c.6 0 1.1 0 1.7-.1.4 1.4.4 2.8 0 4.2-.1 1.3-.1 2.6-.2 3.9-.4 1.2-.9 1.3-1.5.8-.2-.3-.4-.8-.6-1.4-.2-1.3-.3-2.6-.2-3.9 0-1.4.2-2.6.6-3.7l.2.2zm-20.5 65.4c-1.3.5-1.9-.8-1.7-3.9-.5-1.5-.5-2.9 0-4.3 1.6-1.8 2.1.6 2.3 3.8.1 1.6-.1 3.2-.6 4.4zm34-4c0-1.4 0-2.7.1-4.1v.1c.5-1.1 1.1-1.6 1.7-1.6.7 0 1.2.6 1.7 1.7v-.1c.5 1.3.5 2.6.1 4h-3.6zm8.5 0c-1.1 0-2.2-.1-3.4-.1-.4-1.3-.4-2.5 0-3.7v-.5c1.1.1 2.3.2 3.4.3.1.2.2.5.3.7.2 1.3.2 2.4-.3 3.3zm81.8.1c-.2-3.1.3-4.5 1.7-4.1.4-1 1-1.2 1.5-.7.6.8.7 2.1.6 3.5-.1.7-.2 1.2-.5 1.6-.5 0-1.1 0-1.6-.1-.4.8-.9 1.1-1.4.5-.1-.3-.2-.5-.3-.7zm71.6-.2v-4h3.4c.1.2.2.5.3.7.2 1.3.2 2.4-.3 3.4-1.2-.1-2.3-.1-3.4-.1zm-201.1.1v8.2c-.4 1.1-.9 1.2-1.4.7l-.3-.6c0-2.7.1-5.4.1-8.2.5-1.2 1.1-1.2 1.6-.1z"/><path class="st0" d="M102.3 345.8v-4c1.1-2 2.2-2.1 3.3-.4.5 1.4.6 2.8.1 4.4h-3.4zm59.6.3V342c.4-1.1 1-1.6 1.6-1.6.6 0 1.2.4 1.7 1.5v4.1c-.4 1.1-1 1.6-1.6 1.6-.6-.1-1.2-.5-1.7-1.5zm61.3-4.4c.6.1 1.1.2 1.7.3.5 1.3.5 2.5 0 3.8h-3.4c-.5-1.3-.5-2.7 0-4.1v.1c.5-1.1 1.1-1 1.7-.1zm98.7.1v4.1c-.4 1.1-1 1.6-1.6 1.6-.6 0-1.2-.4-1.7-1.5v-4.1c.4-1.1 1-1.6 1.6-1.6.7 0 1.2.4 1.7 1.5zm-299.7 8.1c0-1.3.1-2.5.1-3.8.6-1.3 1.1-1.2 1.7-.2.4 1.5.4 2.9 0 4.3.1 3.2-.5 4.3-1.7 3.9-.6-1.3-.5-2.7-.1-4.2zm13.6-3.9c1.4-.3 1.7 1.4 1.7 4.4 0 3-.6 3.9-1.7 3.7l-.3-.6c-.3-1.1-.3-2.3-.3-3.5 0-1.2.1-2.4.3-3.5.2-.1.2-.3.3-.5zm121 0c1.4-.3 1.7 1.4 1.7 4.4 0 3-.6 3.9-1.7 3.7l-.3-.6c-.3-1.1-.3-2.3-.3-3.5 0-1.2.1-2.4.3-3.5.1-.1.2-.3.3-.5zm86.8 0c1.4-.3 1.7 1.4 1.7 4.4 0 3-.6 3.9-1.7 3.7l-.3-.6c-.3-1.1-.3-2.3-.3-3.5 0-1.2.1-2.4.3-3.5.1-.1.2-.3.3-.5zm69.9 0c1.4-.3 1.7 1.4 1.7 4.4 0 3-.6 3.9-1.7 3.7l-.3-.6c-.3-1.1-.3-2.3-.3-3.5 0-1.2.1-2.4.3-3.5.1-.1.2-.3.3-.5zm-269.2 4.1H46c.1.2.2.4.3.7.2 1.3.2 2.5-.3 3.5v-.1c-.9 2-2 2-3.1.9-.6-.8-.8-2.1-.7-3.7.1-.7.2-1.3.5-1.8.6-.8 1.2-.6 1.6.5zm121 0h1.7c.1.2.2.4.3.7.2 1.3.2 2.5-.3 3.5v-.1c-.9 2-2 2-3.1.9-.6-.8-.8-2.1-.7-3.7.1-.7.2-1.3.5-1.8.5-.8 1.1-.6 1.6.5zm156.7 0h1.7c.1.2.2.4.3.7.2 1.3.2 2.5-.3 3.5v-.1c-.9 2-2 2-3.1.9-.6-.8-.8-2.1-.7-3.7.1-.7.2-1.3.5-1.8.5-.8 1.1-.6 1.6.5zm-304.9 4.1c.6.1 1.1.1 1.7.2.4 1.3.4 2.5 0 3.8h-3.4c-.5-.9-.5-2.1-.4-3.5.1-.6.3-1 .6-1.3.6-.5 1.1-.3 1.5.8z"/><path class="st0" d="M42.7 354.2h3.4c-.1 6.7-2.2 3.3-3.4 4-.4-1-.5-2.1-.2-3.3 0-.3.1-.5.2-.7zm51.1 4.1v-4.1c.5-1.1 1-1.6 1.7-1.6.6 0 1.2.5 1.7 1.5.2 3.1-.4 4.5-1.6 4.2-.7 1.1-1.3 1.1-1.8 0zm69.8-4.1h3.4c-.1 6.7-2.2 3.3-3.4 4-.4-1-.5-2.1-.2-3.3 0-.3.1-.5.2-.7zm156.7 0h3.4c-.1 6.7-2.2 3.3-3.4 4-.4-1-.5-2.1-.2-3.3 0-.3.1-.5.2-.7zM95.5 79.4h1.7c.5 1.3.5 2.5 0 3.8h-1.7c-.5-1.2-.5-2.5 0-3.8z"/><path class="st0" d="M97.2 83.3v-3.8h1.7c.5 1.3.5 2.5 0 3.8h-1.7z"/><path class="st0" d="M98.9 83.3v-3.8c1.2-.3 1.8.8 1.7 3.8h-1.7zm16.9.3c-1.3.4-1.9-1-1.7-4.2 1.4-.4 2 1 1.7 4.2zm41-.3c-.1-3.1.5-4.2 1.7-3.8.4 1.3.5 2.6 0 3.8h-1.7z"/><path class="st0" d="M158.5 83.3v-3.8h1.7c.5 1.3.5 2.5 0 3.8h-1.7z"/><path class="st0" d="M160.2 83.3v-3.8h1.7c.5 1.3.5 2.5 0 3.9-.6-.1-1.2-.1-1.7-.1z"/><path class="st0" d="M161.9 83.3v-3.9c1.2-.3 1.8.9 1.8 3.9h-1.8zm15.2.4c-1.3.3-1.9-1.1-1.6-4.3 1.4-.4 1.9 1.1 1.6 4.3zm20.6 0c-.2-2.8.2-4.4 1.5-4.4.1.2.2.3.4.5.3 1.4.3 2.6-.2 3.7v-.1c-.6 1.2-1.2 1.2-1.7.3zm32.2-4.5c0 1.4 0 2.7.1 4.1-1.4.8-1.9-.8-1.7-4 .6 0 1.1 0 1.6-.1zm39.3 4.1c-.1-3.1.5-4.2 1.7-3.8.4 1.3.5 2.6 0 3.8h-1.7z"/><path class="st0" d="M270.9 83.3v-3.8h1.7c.4 1.3.4 2.6 0 3.8h-1.7z"/><path class="st0" d="M272.6 83.3v-3.8h1.7c.5 1.3.5 2.5 0 3.8h-1.7z"/><path class="st0" d="M274.3 83.3v-3.8h1.7c.5 1.3.5 2.5 0 3.8h-1.7z"/><path class="st0" d="M276 83.3v-3.8c1.2-.4 1.8.8 1.7 3.8H276zm17 .3c-1.3.3-1.9-1.1-1.6-4.2 1.3-.5 1.9.9 1.6 4.2zm22.1-4.3c.2 3.1-.4 4.5-1.7 4.2v-4c.6-1.2 1.2-1.3 1.7-.2zm12 4c-.1-3 .5-4.2 1.7-3.9.4 1.3.5 2.6 0 3.9h-1.7z"/><path class="st0" d="M328.8 83.3v-3.9h1.7v3.8c-.6.1-1.1.1-1.7.1zm5.1 0v-3.8h1.7c.5 1.3.5 2.6 0 3.9-.6-.1-1.1-.1-1.7-.1z"/><path class="st0" d="M335.6 83.3v-3.9c1.2-.3 1.8.9 1.7 3.9h-1.7zM59.7 87.4v-3.9c1.3-.3 1.9 1.2 1.7 4.3-.6.9-1.2.9-1.7-.4zm23.8 0c-.1-3.1.6-4.3 1.8-3.9.4 1.3.4 2.6-.1 3.8-.6.1-1.1.1-1.7.1z"/><path class="st0" d="M85.2 87.4c0-1.3.1-2.6.1-3.8.6 0 1.1.1 1.7.1.4 1.3.4 2.6-.1 3.8-.6-.1-1.1-.1-1.7-.1z"/><path class="st0" d="M86.9 87.4c0-1.3.1-2.5.1-3.8h1.7c.4 1.3.4 2.6-.1 3.8-.6.1-1.2.1-1.7 0z"/><path class="st0" d="M88.6 87.5c0-1.3.1-2.5.1-3.8h1.7c.1 3.2-.6 4.2-1.8 3.8zm13.6-3.8c.6 0 1.1-.1 1.7-.1.5 1.2.5 2.5.1 3.8-1.2.6-1.9-.4-1.8-3.7z"/><path class="st0" d="M104 87.5c0-1.3-.1-2.6-.1-3.8 1.3-.5 1.9.7 1.8 3.8H104zm11.9-.1c0-1.3 0-2.6-.1-3.9 1.3-.3 1.9 1.1 1.7 4.2-.5 1-1.1 1-1.6-.3zm35.7.1c-.1-3.2.5-4.4 1.8-3.9.4 1.4.4 2.7-.1 3.9h-1.7z"/><path class="st0" d="M153.3 87.5c0-1.3.1-2.6.1-3.9.6 0 1.1.1 1.7.1.1 3.2-.6 4.3-1.8 3.8zm10.2-3.8c.6 0 1.1-.1 1.7-.1.5 1.2.5 2.5.1 3.9-1.2.5-1.8-.7-1.8-3.8z"/><path class="st0" d="M165.4 87.5c0-1.3-.1-2.6-.1-3.9 1.3-.5 1.9.7 1.8 4-.7-.1-1.2-.1-1.7-.1zm32.3-3.8c.5-.1 1.1-.2 1.6-.3.2 3.1-.3 4.5-1.6 4.3v-4zm64.6 3.7c-.1-3.2.5-4.3 1.8-3.7.4 1.3.4 2.6-.1 3.8-.5-.1-1.1-.1-1.7-.1z"/><path class="st0" d="M264 87.4c0-1.3.1-2.5.1-3.8.6 0 1.1 0 1.7.1.4 1.3.4 2.6-.1 3.8-.6 0-1.1-.1-1.7-.1z"/><path class="st0" d="M265.7 87.5c0-1.3.1-2.5.1-3.8h1.7c.1 3.2-.6 4.3-1.8 3.8zm13.7-3.8c.6 0 1.1 0 1.7-.1.5 1.2.5 2.5.1 3.8-1.3.6-1.9-.5-1.8-3.7z"/><path class="st0" d="M281.2 87.5c0-1.3-.1-2.5-.1-3.8 1.3-.7 1.9.6 1.8 3.8h-1.7zm11.9-.1v-4c1.3-.3 1.9 1.2 1.6 4.3-.6 1-1.1 1-1.6-.3zm20.3-4v4.1c-.5 1.3-1 1.2-1.6.3-.3-3.3.2-4.7 1.6-4.4zm8.6 4.2c-.1-3.2.5-4.5 1.8-4 .4 1.4.4 2.7-.1 3.9-.6 0-1.2 0-1.7.1z"/><path class="st0" d="M323.6 87.5c0-1.3.1-2.6.1-3.9.6 0 1.1.1 1.7.1.4 1.3.4 2.6-.1 3.8h-1.7z"/><path class="st0" d="M325.3 87.5c0-1.3.1-2.6.1-3.8h1.7c.1 3.1-.6 4.2-1.8 3.8zm12-3.8h1.7c.5 1.2.5 2.5.1 3.8-1.3.4-1.9-.7-1.8-3.8z"/><path class="st0" d="M339 87.6c0-1.3 0-2.6-.1-3.8h1.7c.5 1.2.5 2.4.1 3.8-.5-.1-1.1-.1-1.7 0z"/><path class="st0" d="M340.8 87.5c0-1.3-.1-2.5-.1-3.8.6 0 1.1-.1 1.7-.1.5 1.2.5 2.5.1 3.8-.6 0-1.2 0-1.7.1z"/><path class="st0" d="M342.5 87.4c0-1.3-.1-2.5-.1-3.8 1.2-.5 1.9.7 1.8 3.8h-1.7zm-282.8 0c.5.1 1.1.2 1.6.3v4c-1.3.3-1.8-1.2-1.6-4.3zm20.5 4.2v-4c.6.1 1.1.1 1.7.2.4 1.4.4 2.7-.1 3.9-.6-.1-1.1-.1-1.6-.1z"/><path class="st0" d="M81.8 91.6c0-1.3.1-2.6.1-3.9.6 0 1.1.1 1.7.1 0 3.2-.6 4.3-1.8 3.8zm23.8-3.9c1.4-.7 2 .6 1.8 3.9-1.3.5-1.9-.8-1.8-3.9zm10.3-.3c.5.1 1.1.2 1.6.3v4.1c-1.3.2-1.8-1.3-1.6-4.4zm34 4.2c-.2-3.3.4-4.7 1.8-3.9.1 3.2-.5 4.4-1.8 3.9zm17.1-3.9c1.4-.6 2 .8 1.7 4.1-1.3.3-1.9-1-1.7-4.1zm10.2 3.8v-4c1.3-.3 1.8 1.3 1.6 4.4-.5.9-1.1.9-1.6-.4zm20.4-4v4c-.5 1.3-1 1.3-1.6.3-.3-3.1.3-4.6 1.6-4.3zm59.7.1c.6 0 1.1.1 1.7.1.4 1.4.4 2.7-.1 3.9-1.5.8-1.9-.7-1.6-4z"/><path class="st0" d="M258.9 91.5c0-1.3.1-2.6.1-3.9.6 0 1.1.1 1.7.1.1 3.3-.5 4.5-1.8 3.8zm23.9-3.8h1.7c.5.7.5 1.9.5 3.1-.1.6-.2 1-.4 1.4-1.2-.4-2-1.5-1.8-4.5zm10.3-.3c.5.1 1.1.2 1.6.3v4c-1.3.3-1.8-1.3-1.6-4.3zm18.7.3c.5-.1 1.1-.2 1.6-.3.2 2.9-.3 4.5-1.6 4.3v-4zm8.5 4.1c-.3-3.3.3-4.7 1.7-4.1.2 3.1-.4 4.5-1.7 4.1zm23.8-4c.6 0 1.1 0 1.7-.1.5 1.2.5 2.5.1 3.9-1.3.5-1.9-.7-1.8-3.8z"/><path class="st0" d="M345.9 91.6c0-1.3-.1-2.6-.1-3.9.6-.1 1.1-.1 1.7-.2.3 3.2-.1 4.8-1.6 4.1zm-284.5 4v-4c1.3-.2 1.8 1.3 1.6 4.3-.5 1-1.1 1-1.6-.3zm46-4c1.4-.5 1.9.9 1.7 4.2-1.3.3-1.9-1.1-1.7-4.2zm10.3 4.1v-4.1c1.3-.2 1.8 1.3 1.6 4.3-.6 1-1.1 1-1.6-.2zm30.6.1c-.3-3.3.3-4.7 1.7-4.2.1 3.1-.4 4.5-1.7 4.2zm20.4-4.1c1.3-.3 1.8 1.2 1.6 4.3-.6.9-1.1 1-1.6-.3v-4zm8.5-.2c.5.1 1.1.2 1.6.3v4c-1.3.3-1.7-1.3-1.6-4.3zm18.8.4c.5-.1 1.1-.2 1.6-.3.2 3-.3 4.5-1.6 4.3v-4zm90 3.9c-1.1.3-1.6-1.1-1.6-3.7l.1-.6c.6-1 1.1-1 1.6.3v-.1c.5.8.5 1.9.4 3.1 0 .6-.2 1-.5 1zm8.8-.2v-4c1.3-.2 1.8 1.3 1.6 4.4-.6.9-1.1.9-1.6-.4zm16.9-4v4.2c-.5 1.2-1 1.1-1.6.1-.2-3 .3-4.4 1.6-4.3zm6.9 4.3c-.2-3.1.4-4.5 1.7-4.3 0 1.3-.1 2.7-.1 4-.5 1.3-1 1.3-1.6.3z"/><path class="st0" d="M61.4 95.6c.5.1 1.1.2 1.6.3v4c-1.3.3-1.8-1.2-1.6-4.3zm47.7.1c1.3-.3 1.9 1.1 1.6 4.3-.6 1-1.1 1-1.6-.3v-4zm8.6 0c.5.1 1.1.2 1.6.2 0 1.4 0 2.7-.1 4.1-.5.9-1.1 1-1.6-.2.1-1.4.1-2.7.1-4.1zm28.9 4.3c-.3-3.2.3-4.6 1.6-4.3v4c-.5 1.3-1 1.3-1.6.3zm22.1-4.4c.5.1 1.1.2 1.6.3v4c-1.3.3-1.8-1.3-1.6-4.3zm27.2.1v4c-.5 1.3-1 1.3-1.6.3-.3-3 .2-4.5 1.6-4.3zm92 .3c0 1.3 0 2.7-.1 4-1.3.4-1.7-1.7-1.8-4.2.1-.2.2-.3.3-.1.5-1 1.1-1 1.6.3zm6.9-.4c.5.1 1.1.2 1.6.3v4c-.6 1-1.1 1-1.6-.2v-4.1zm15.3.3c.5 0 1-.1 1.6-.1v4.1c-.5 1.1-1 1.1-1.5.1-.1-1.4-.1-2.8-.1-4.1zm8.5 0c.5-.1 1.1-.2 1.6-.2v4.2c-.5 1.1-1 1.1-1.5.1-.1-1.4-.1-2.7-.1-4.1zm-255.4 8v-4.1c1.3-.2 1.8 1.3 1.6 4.3-.6 1-1.1 1-1.6-.2z"/><path class="st0" d="M109.1 99.7c.5.1 1.1.2 1.6.3v4c-1.3.3-1.8-1.3-1.6-4.3zm8.6.1c.5.1 1 .2 1.6.2v4.1c-.6 1-1.1 1-1.6-.2-.1-1.4 0-2.8 0-4.1zm28.9.2c.5-.1 1.1-.2 1.6-.3.2 3-.3 4.5-1.6 4.3v-4zm32.4 3.9v-4.1c1.3-.2 1.8 1.3 1.6 4.3-.6 1-1.1 1-1.6-.2zm15.3-3.8c.5-.1 1.1-.2 1.6-.3.2 3-.2 4.6-1.6 4.3v-4zm100.5-.3c.5.1 1.1.1 1.6.2v4.1c-1.3.1-1.8-1.4-1.6-4.3zm15.3.1c.5 0 1-.1 1.5-.1v4.2c-.5 1.1-1 1.1-1.5-.1v-4zm8.6 0c.5 0 1-.1 1.5-.1v4.2c-.5 1-1.1 1-1.6-.2 0-1.3.1-2.6.1-3.9zm-255.5 4c.5.1 1.1.2 1.6.2v4.1c-.5.9-1.1 1-1.5-.2-.1-1.4-.1-2.7-.1-4.1z"/><path class="st0" d="M117.6 103.8c.5.1 1.1.2 1.6.2v4c-1.3.4-1.7-1.2-1.6-4.2zm27.3 4.4c-.3-3.1.2-4.5 1.6-4.3v4.1c-.5 1.2-1 1.2-1.6.2zm25.6-4.3c1.3-.2 1.8 1.3 1.5 4.3-.5 1-1.1 1-1.6-.2.1-1.3.1-2.7.1-4.1zm8.5 0c.5.1 1 .1 1.6.2v4c-.5 1-1 1.1-1.5-.1-.1-1.3-.1-2.7-.1-4.1zm109 0c1.3-.2 1.8 1.3 1.5 4.2-.5 1-1 1-1.5-.1v-4.1zm8.5 4.2V104c1.3-.2 1.8 1.3 1.6 4.2-.5 1-1.1 1-1.6-.1zm13.6-4.2c.5 0 1 .1 1.5.1v4.1c-.5 1-1.1 1-1.6-.2.1-1.3.1-2.6.1-4zm8.5-.1c.5.1 1 .2 1.6.2v4.1c-1.3.3-1.8-1.2-1.6-4.3zM63.2 108c.5.1 1 .2 1.5.2v4.1c-.6 1-1.1 1-1.6-.2 0-1.4.1-2.8.1-4.1zm47.7.1c.6.2 1.5-.3 1.5 1.9 0 2.7-1 2-1.6 2.1 0-1.3 0-2.7.1-4z"/><path class="st0" d="M144.9 108.2c.5-.1 1-.2 1.6-.3v4.1c-.5 1.2-1 1.2-1.5.2-.1-1.3-.1-2.6-.1-4zm25.6-.2c.5.1 1 .1 1.6.2v4c-.5 1-1 1.1-1.5-.1-.1-1.3-.1-2.7-.1-4.1zm8.5.1c.5 0 1 0 1.5.1v4.1c-.5 1-1 1.1-1.5-.1v-4.1zm15.1-.1v4.1c-.5 1.2-1 1.2-1.6.2-.1-3 .3-4.5 1.6-4.3zm93.9.1c.5 0 1 .1 1.5.1.3 3.4-.4 4.4-1.7 3.9.1-1.4.2-2.7.2-4zm8.5 0c.5 0 1.1.1 1.6.1v4.1c-.5 1-1 1.1-1.6-.1v-4.1zm13.6-.1c.5.1 1 .1 1.6.2v4.1c-1.3.1-1.8-1.3-1.6-4.3zm11.9 4.1c-1.4.7-2-.7-1.7-4.1 1.3-.3 1.8 1.1 1.7 4.1zm-258.9 0c.5.1 1 .2 1.6.2v4.1c-1.3.2-1.8-1.4-1.6-4.3zm25.5 4h-1.7c-.1-3.1.6-4.3 1.8-3.8.4 1.3.4 2.6-.1 3.8z"/><path class="st0" d="M88.6 116.1c0-1.3.1-2.5.1-3.8.6 0 1.1.1 1.7.1.4 1.3.4 2.5-.1 3.7h-1.7z"/><path class="st0" d="M90.3 116.1c0-1.2.1-2.5.1-3.7h1.7c.4 1.3.4 2.6-.1 3.8-.6 0-1.1-.1-1.7-.1z"/><path class="st0" d="M92 116.2c0-1.3 0-2.5.1-3.8h1.7v3.9c-.6 0-1.2-.1-1.8-.1zm52.9-3.9c.5-.1 1-.1 1.5-.2v4.2c-.5 1.1-1.1 1.1-1.6 0 .1-1.3.1-2.7.1-4zm25.6-.1c.5 0 1 .1 1.5.1v4.1h-1.5v-4.2zm8.5 0c.5 0 1 0 1.5.1v4.1H179v-4.2zm13.6.1c.5-.1 1-.1 1.6-.2v4.1c-.5 1.2-1 1.2-1.5.2-.1-1.4-.1-2.7-.1-4.1zm74.8 3.8h-1.7c-.1-3.2.5-4.4 1.8-3.7.4 1.3.4 2.5-.1 3.7z"/><path class="st0" d="M267.4 116.1c0-1.2.1-2.5.1-3.7h1.7c.4 1.3.4 2.6-.1 3.7h-1.7z"/><path class="st0" d="M269.1 116.1c0-1.2.1-2.5.1-3.7h1.7c.4 1.3.4 2.6-.1 3.8-.5 0-1.1 0-1.7-.1z"/><path class="st0" d="M270.8 116.2c0-1.3 0-2.5.1-3.8h1.7c.5 1.3.4 2.6 0 3.9-.6 0-1.2 0-1.8-.1z"/><path class="st0" d="M272.6 116.3v-3.9h1.7c.1 3.1-.5 4.2-1.7 3.9zm23.9-4.1c.5 0 1 0 1.6.1v4.1c-.5 1-1 1.1-1.5-.1-.1-1.4-.1-2.8-.1-4.1zm15.3-.1c1.3-.2 1.8 1.4 1.6 4.3-.6.9-1.1 1-1.6-.3v-4zm11.9 4.1c-1.3.6-1.9-.7-1.8-3.9h1.7c.6 1.2.5 2.5.1 3.9z"/><path class="st0" d="M323.7 116.2c0-1.3-.1-2.6-.1-3.9 1.2-.5 1.9.6 1.8 3.8-.5 0-1.1 0-1.7.1zm-238.5 4.1h-1.7c-.1-3.2.5-4.4 1.8-3.8.4 1.3.4 2.6-.1 3.8z"/><path class="st0" d="M85.2 120.3c0-1.3.1-2.6.1-3.9.6 0 1.1 0 1.7.1 0 3.1-.6 4.3-1.8 3.8zm35.8.1h-1.6v-4.1c1.3-.3 1.7 1.3 1.6 4.1zm23.9-4.1h1.6v4.1h-1.6v-4.1zm47.7.1c.5-.1 1-.1 1.5-.2v4.1c-.5 1.2-1 1.1-1.5.1v-4zm69.7 3.9h-1.7c-.1-3.2.5-4.4 1.8-3.9.4 1.4.4 2.7-.1 3.9z"/><path class="st0" d="M262.3 120.3c0-1.3.1-2.6.1-3.9.6 0 1.1.1 1.7.1.1 3.2-.6 4.3-1.8 3.8zm34.2-4c.5 0 1 0 1.5.1v4.1c-.5 0-1 0-1.5-.1v-4.1zm15.3-.2c.5.1 1.1.2 1.6.3v4c-1.3.4-1.8-1.1-1.6-4.3zm15.3 4.2c-1.2.4-1.9-.8-1.8-3.9h1.7c.6 1.3.5 2.6.1 3.9z"/><path class="st0" d="M327.1 120.3c0-1.3-.1-2.6-.1-3.8h1.7c.5 1.2.5 2.4.1 3.7-.5.1-1.1.1-1.7.1z"/><path class="st0" d="M328.8 120.2c0-1.2-.1-2.5-.1-3.7.6 0 1.1-.1 1.7-.1.5 1.2.5 2.5.1 3.8h-1.7z"/><path class="st0" d="M330.5 120.2c0-1.3-.1-2.5-.1-3.8 1.2-.4 1.9.7 1.8 3.8h-1.7zm-250.5 4c0-3 .7-4.2 1.9-3.7.4 1.4.4 2.7-.1 3.9v.1c-.3 1.1-.8 1.2-1.3.9-.2-.2-.4-.6-.5-1.2z"/><path class="st0" d="M81.8 124.4c0-1.3.1-2.6.1-3.9h1.7c0 3.2-.6 4.4-1.8 3.9zm110.8-4c.5 0 1-.1 1.5-.1v4.1c-.5 1.1-1 1.1-1.5.1v-4.1zm68.1.1c.1 3.2-.5 4.5-1.8 3.9-.1-3.2.4-4.6 1.8-3.9zm52.8-.2c1.3-.3 1.8 1.1 1.7 4.2-1.4.5-2-.8-1.7-4.2zm20.5 4.1c-1.2.4-1.9-.8-1.8-3.8h1.7c.5 1.2.4 2.5.1 3.8z"/><path class="st0" d="M334 124.4c0-1.3-.1-2.6-.1-3.8h1.7c.5 1.2.5 2.4.1 3.8H334z"/><path class="st0" d="M335.7 124.3c0-1.3-.1-2.5-.1-3.8.6 0 1.1-.1 1.7-.1.5 1.2.5 2.5.1 3.8-.6.1-1.2.1-1.7.1z"/><path class="st0" d="M337.3 124.3c0-1.3-.1-2.5-.1-3.8 1.2-.5 1.9.7 1.8 3.8h-1.7zm-272.4 4.3v-4.1c1.3-.3 1.7 1.3 1.6 4.1-.5 1.1-1.1 1.2-1.6 0zm13.5.2c-.2-3 .4-4.4 1.6-4.6l.1.4c.4 1.4.4 2.7-.1 3.9v-.1c-.4 1.3-1 1.3-1.6.4zm114.2-4.3c.5 0 1-.1 1.5-.1v4.1c-.5 1.1-1 1.1-1.6 0 .1-1.2.1-2.6.1-4zm66.4 0c.2 3.1-.4 4.5-1.7 4.1-.3-3.3.3-4.7 1.7-4.1zm56.1.1c1.3-.6 1.9.7 1.8 3.9-1.4.7-1.9-.7-1.8-3.9zm25.7 3.9c-1.2.5-1.9-.7-1.8-3.8h1.7c.5 1.1.5 2.4.1 3.8z"/><path class="st0" d="M340.8 128.5c0-1.3-.1-2.6-.1-3.8 1.3-.7 1.9.6 1.8 3.8h-1.7zm-275.9.1h1.6c.1 2.9-.3 4.4-1.6 4.1v-4.1zm13.5.2c.5-.1 1.1-.2 1.6-.3.2 3-.3 4.5-1.6 4.3.1-1.4 0-2.7 0-4zm114.2-.2h1.6v4.2c-.5 1-1 1.1-1.6-.1v-4.1zm64.6-.1c.2 3.1-.3 4.6-1.6 4.3-.3-3.3.3-4.6 1.6-4.3zm59.7.2c.5 0 1.1 0 1.6.1.5 1.2.5 2.5.1 3.9-1.2.4-1.9-.9-1.7-4z"/><path class="st0" d="M318.6 132.6c0-1.3-.1-2.6-.1-3.9 1.3-.6 1.9.6 1.8 3.8-.5 0-1.1.1-1.7.1zm25.6 0c-1.2.4-1.9-.8-1.8-3.9h1.7c.5 1.2.5 2.5.1 3.9z"/><path class="st0" d="M344.2 132.6c0-1.3-.1-2.6-.1-3.9 1.3-.5 1.9.8 1.8 4-.6 0-1.2 0-1.7-.1zm-265.8 0v4c-.5 1.3-1 1.3-1.6.3-.3-3.1.2-4.5 1.6-4.3zm114.2.1c.5 0 1 0 1.6.1v4.1c-.5 1-1 1.1-1.5-.1-.1-1.4-.1-2.7-.1-4.1zm62.9 0v4c-.5 1.3-1 1.3-1.6.3-.2-3.1.3-4.6 1.6-4.3zm64.8.2c.6 0 1.1 0 1.7.1.5 1.2.5 2.5.1 3.8-1.3.3-1.9-.8-1.8-3.9z"/><path class="st0" d="M322 136.7c0-1.3-.1-2.6-.1-3.8h1.7c.5 1.2.5 2.4.1 3.8H322z"/><path class="st0" d="M323.7 136.6c0-1.3-.1-2.5-.1-3.8.6 0 1.1-.1 1.7-.1.5 1.2.5 2.5.1 3.8-.5.1-1.1.1-1.7.1z"/><path class="st0" d="M325.4 136.6c0-1.3-.1-2.6-.1-3.8 1.2-.4 1.9.7 1.8 3.8h-1.7zm22.1.3c-1.3.4-1.9-1-1.7-4.1 1.4-.6 1.9.8 1.7 4.1zm-270.7.1c.5-.1 1.1-.2 1.6-.3.2 2.9-.3 4.5-1.6 4.4V137zm115.8-.2c.5 0 1 .1 1.5.1v4.1c-.5 1-1 1-1.5-.1v-4.1zm61.3.2c.5-.1 1.1-.2 1.6-.3v4.1c-.5 1.3-1 1.2-1.6.3V137zm73.2 0h1.7c.5 1.2.5 2.5.1 3.8-1.3.5-1.9-.7-1.8-3.8z"/><path class="st0" d="M328.8 140.8c0-1.3-.1-2.5-.1-3.8h1.7c.5 1.2.5 2.4.1 3.7-.5.1-1.1.1-1.7.1z"/><path class="st0" d="M330.5 140.7c0-1.2-.1-2.5-.1-3.7.6 0 1.1-.1 1.7-.1.5 1.2.5 2.5.1 3.8h-1.7z"/><path class="st0" d="M332.2 140.7c0-1.3-.1-2.5-.1-3.8 1.2-.4 1.9.7 1.8 3.8h-1.7zm15.4 0v-3.9c1.3-.4 1.9 1.1 1.6 4.3-.6.9-1.1.9-1.6-.4zm-284.5 4.4c-.1-2.9.3-4.4 1.6-4.2v4.1c-.5 1.2-1.1 1.1-1.6.1zm13.5-4.3v4.1c-.5 1.2-1 1.1-1.6.2-.1-2.9.4-4.4 1.6-4.3zm116 .1c.5 0 1 .1 1.5.1v4.1c-.5 1-1.1 1-1.5-.2v-4zm61.3.1c.5-.1 1.1-.2 1.6-.3.2 2.9-.3 4.5-1.6 4.3v-4zm80 .1h1.7c.5 1.2.5 2.5.1 3.8-1.3.5-1.9-.7-1.8-3.8z"/><path class="st0" d="M335.7 144.9c0-1.3-.1-2.5-.1-3.8.6 0 1.1-.1 1.7-.1.5.7.5 1.8.5 3-.1.6-.2 1-.4 1.4-.6-.2-1.2-.3-1.7-.5zm11.9-4.2c.5.1 1.1.2 1.6.3v4c-1.3.3-1.8-1.3-1.6-4.3zm-284.5 4.4c.5 0 1.1-.1 1.6-.1v4.1c-.5 1.2-1 1.1-1.6.2v-4.2zm11.9 0c.5-.1 1-.1 1.6-.2v4.1c-.5 1.1-1 1.1-1.5.1 0-1.3 0-2.6-.1-4zm117.6-.2c.5.1 1 .1 1.5.2v4.1c-.6 1-1.1 1-1.6-.2.1-1.4.1-2.7.1-4.1zm61.2 0v4.2c-.5 1.2-1.1 1.1-1.6.1-.2-3 .3-4.4 1.6-4.3z"/><path class="st0" d="M339.1 149.1c-1.1.3-1.9-.4-1.7-3.7l.1-.3-.1-.3c.6-1 1.2-.9 1.7.3v.1c.4 1.2.4 2.5 0 3.9z"/><path class="st0" d="M339.1 149.1c0-1.3-.1-2.6-.1-3.9 1.4-.5 1.9.9 1.7 4.1-.6-.1-1.1-.2-1.6-.2zm10.2-.1v-4.1c1.3-.2 1.8 1.3 1.6 4.3-.6 1-1.1 1-1.6-.2zm-286.2.3c.5-.1 1-.2 1.6-.2v4.1c-.5 1.3-1 1.2-1.5.2 0-1.4 0-2.8-.1-4.1zm12-.1c.5 0 1-.1 1.5-.1v4.1c-.5 1.1-1 1.1-1.5.1v-4.1zm117.5-.2c.5.1 1 .1 1.6.2v4.1c-1.3.2-1.8-1.4-1.6-4.3zm59.6.2c.5 0 1.1 0 1.6-.1v4.1c-.5 1.1-1 1.1-1.6.1v-4.1z"/><path class="st0" d="M340.7 149.1c1.3-.3 1.9 1.1 1.7 4.2-.6.9-1.1 1-1.6-.2 0-1.3-.1-2.6-.1-4zm8.6-.1c.5.1 1 .2 1.6.2v4c-.5 0-1-.1-1.5-.1-.1-1.3-.1-2.7-.1-4.1zm-286.1 4.3c.5-.1 1-.2 1.5-.2.3 3.1-.2 4.6-1.5 4.3v-4.1zm11.9 0c.5 0 1-.1 1.5-.1v4.2c-.5 1-1 1.1-1.5-.1v-4zm119.2-.2c1.3-.2 1.8 1.4 1.6 4.3-.6.9-1.1 1-1.6-.3v-4zm57.9.2c.5 0 1 0 1.6-.1v4.1c-.5 1.1-1.1 1.1-1.6-.1v-3.9z"/><path class="st0" d="M340.8 153.1c.5.1 1.1.2 1.6.2 0 1.3 0 2.7-.1 4-.5 1-1 1-1.5-.1v-4.1zm-265.7 4.2c.5 0 1 .1 1.5.1v4.1c-.5 1-1 1.1-1.5-.1v-4.1zm119.2-.1c.5.1 1.1.2 1.6.3v4.1c-.6.9-1.1 1-1.6-.3v-4.1zm57.9.1c.5 0 1 0 1.6.1v4.1c-.5 1.1-1.1 1-1.6-.1v-4.1z"/><path class="st0" d="M340.8 157.3c.5 0 1 .1 1.5.1v3.9c-.5 1.2-1 1.2-1.5.2v-4.2zm-279.4 8.4c-.3-3.1.2-4.6 1.6-4.4v4c-.4 1.3-1 1.3-1.6.4zm13.7-4.4c.5 0 1 .1 1.5.1v4.1c-.6 1-1.1 1-1.6-.2.1-1.3.1-2.6.1-4zm119.2-.1c.5.1 1.1.2 1.6.3v4c-1.3.3-1.8-1.3-1.6-4.3zm57.9.2c.5 0 1.1.1 1.6.1v4.2c-1.3.1-1.8-1.4-1.6-4.3z"/><path class="st0" d="M340.8 161.5c.5-.1 1-.1 1.5-.2.3 3.1-.3 4.5-1.6 4.3.1-1.4.1-2.7.1-4.1zm8.5 0c.5 0 1-.1 1.5-.1v4c-.5 1.3-1 1.2-1.5.2v-4.1zm-287.9 4.2c.5-.1 1.1-.2 1.6-.3.2 3.1-.3 4.6-1.6 4.3v-4zm13.6-.3c.5.1 1.1.1 1.6.2v4.1c-1.2.2-1.7-1.4-1.6-4.3zm121 0c1.3-.2 1.8 1.3 1.6 4.4-.6 1-1.1 1-1.6-.3v-4.1zm57.9 0c1.3-.2 1.8 1.4 1.6 4.3-.6.9-1.1 1-1.6-.3v-4zm57.9 4.4c-.6 0-1.1 0-1.7-.1-.3-3.2.2-4.7 1.6-4 .5 1.3.5 2.6 0 3.9l.1.2z"/><path class="st0" d="M311.8 169.6v-3.9c1.3-.8 1.8.7 1.8 3.7-.7.1-1.3.1-1.8.2zm28.9-4.2v4c-.3 1.2-.8 1.3-1.3 1-.2-.2-.4-.7-.5-1.3 0-2.7.6-3.9 1.8-3.7zm8.6.2c.5-.1 1-.2 1.5-.2.3 3.1-.3 4.5-1.6 4.3.1-1.3.1-2.7.1-4.1zm-289.6 8.2c-.3-3.2.3-4.6 1.6-4.3.3 3.2-.2 4.6-1.6 4.3zm17.1-4.3c1.3-.2 1.8 1.4 1.6 4.4-.6.9-1.1 1-1.6-.3v-4.1zm119.2-.1c.5.1 1.1.2 1.6.3v3.9c-1.3.4-1.8-1.1-1.6-4.2zm57.9.1c.5.1 1.1.2 1.6.3v4.1c-.6.9-1.1 1-1.6-.3v-4.1zm61.3 4.1c-1.2.4-1.9-.8-1.8-3.9.6 0 1.1 0 1.7.1.5 1.2.5 2.5.1 3.8z"/><path class="st0" d="M315.2 173.6c0-1.3-.1-2.6-.1-3.9.6 0 1.1 0 1.7-.1.5 1.2.5 2.5.1 3.8-.5.2-1.1.2-1.7.2z"/><path class="st0" d="M316.9 173.5c0-1.3-.1-2.5-.1-3.8 1.2-.5 1.9.7 1.8 3.8h-1.7zm22 .1c-.6 0-1.1 0-1.7-.1-.1-3 .6-4.1 1.6-4.4l.1.5c.6 1.5.6 2.8 0 4zm8.7.3c-.2-3 .3-4.5 1.6-4.3v4c-.5 1.3-1.1 1.2-1.6.3zM27.4 178c0-1.6-.4-4 .8-4.1 1.2 0 .8 2.4.8 4-.6.1-1.1.1-1.6.1zm30.6 0c-.2-3.1.4-4.6 1.7-4.3v3.9c-.6 1.4-1.1 1.3-1.7.4zm18.8-4.4c.5.1 1.1.2 1.6.3v4c-1.4.2-1.9-1.3-1.6-4.3zm33.9.2v4.2c-.5 0-1.1 0-1.6-.1-.2-3 .2-4.6 1.6-4.1zm87-.2c1.3-.3 1.9 1.1 1.6 4.3-1.3.3-1.9-1.1-1.6-4.3zm56.2 0c.5.1 1.1.2 1.6.3 0 1.3 0 2.6.1 4-1.4.2-1.9-1.3-1.7-4.3zm66.4 4.1c-1.2.4-1.9-.7-1.8-3.8h1.7c.5 1.2.5 2.5.1 3.8z"/><path class="st0" d="M320.3 177.7c0-1.3-.1-2.5-.1-3.8h1.7c.5 1.2.5 2.4.1 3.7-.5.1-1.1.1-1.7.1z"/><path class="st0" d="M322 177.6c0-1.2-.1-2.5-.1-3.7.6 0 1.1 0 1.7-.1.5 1.2.5 2.4.1 3.8H322z"/><path class="st0" d="M323.7 177.6c0-1.3-.1-2.5-.1-3.8.6 0 1.2 0 1.7-.1.5 1.2.5 2.5 0 3.8-.5.1-1 .1-1.6.1z"/><path class="st0" d="M325.4 177.6v-3.8c1.2-.4 1.8.7 1.7 3.8h-1.7zm6.8 0h-1.7c-.1-3.1.5-4.2 1.7-3.8.4 1.2.5 2.5 0 3.8z"/><path class="st0" d="M332.2 177.6v-3.9c.6 0 1.2.1 1.7.1.4 1.3.4 2.6-.1 3.8h-1.6z"/><path class="st0" d="M333.9 177.6c0-1.3.1-2.5.1-3.8h1.7c.4 1.3.4 2.6-.1 3.8-.6.1-1.2 0-1.7 0z"/><path class="st0" d="M335.5 177.7c0-1.3.1-2.5.1-3.8h1.7c.1 3.1-.5 4.4-1.8 3.8zm12.1-3.8c.5-.1 1.1-.2 1.6-.3.3 3.2-.3 4.6-1.6 4.3v-4zM29 177.8c1.3-.3 1.9 1.1 1.7 4.2-.6 1-1.1 1-1.6-.3-.1-1.3-.1-2.6-.1-3.9zm29 .2c.5-.1 1.1-.2 1.6-.3.2 3.2-.4 4.6-1.7 4.2.1-1.3.1-2.6.1-3.9zm20.5-.3c1.3-.3 1.8 1.2 1.6 4.3-1.4.4-1.9-1-1.6-4.3zm28.8 3.8c0-2.9.6-4.1 1.8-3.7v3.9c-.3 1.2-.8 1.3-1.3 1-.3-.1-.5-.6-.5-1.2zm92.1-3.7c1.3-.4 1.9 1 1.7 4.1-1.4.5-2-.8-1.7-4.1zm30.6.1c0 1.3-.1 2.7-.1 4-.5.1-1 .1-1.4.2-.2-.2-.4-.5-.5-1.1-.1-1.2-.1-2.3.4-3.2v.1c.5-1.2 1-1.2 1.6 0zm25.6-.2c1.3-.3 1.9 1.1 1.6 4.3-1.3.3-1.9-1.1-1.6-4.3zm32.3.2c0 1.3-.1 2.7-.1 4-.5 0-1.1-.1-1.6-.1 0-1.3 0-2.6.1-3.9.5-1.2 1.1-1.2 1.6 0zM39.2 66.9h-1.7c-.1-3.1.6-4.3 1.8-3.8.4 1.3.4 2.6-.1 3.8zm306.6 115c-.2-3.1.4-4.5 1.7-4.2.3 3.4-.3 4.7-1.7 4.2z"/><path class="st0" d="M29.1 181.8c.5.1 1.1.2 1.6.3.5.8.5 1.8.4 3.1-.1.6-.2 1-.4 1.3-1.2-.3-1.9-1.7-1.6-4.7zm27.2.2c.5-.1 1.1-.1 1.6-.2.2 3.1-.5 4.3-1.6 4.7-.2-.3-.4-.8-.4-1.4-.1-1.2-.1-2.4.4-3.1zm23.8-.1c1.3-.4 1.9 1 1.7 4.1-1.3.6-1.9-.8-1.7-4.1zm25.6 4.1c-.2-3 .5-4.2 1.6-4.4l.2.5c.4 1.4.4 2.7-.1 3.9h-1.7z"/><path class="st0" d="M107.3 186c0-1.3.1-2.6.1-3.9.5-.1 1.1-.2 1.6-.3.2 3.2-.4 4.6-1.7 4.2zm93.7-4c1.3-.5 1.9.8 1.8 4-1.4.6-1.9-.8-1.8-4zm27.5.1c-.1 2.8-.7 4.1-1.8 4.4-.2-.3-.3-.8-.4-1.4-.1-1.2 0-2.3.4-3.1.5-1.2 1-1.2 1.6-.2l.2.3zm28.8-.2c1.3-.4 1.9.9 1.7 4.1-1.4.6-2-.8-1.7-4.1zm27.2 4c-.2-3.2.4-4.6 1.7-4.1.2 3.2-.4 4.6-1.7 4.1zm59.6 0c-.1-3.2.5-4.5 1.8-3.9.1 3.2-.4 4.6-1.8 3.9zm-311.6 4.2c-1.2.4-1.8-.7-1.8-3.7l.1-.4c.6-1 1.1-1 1.7.1v.1c.4 1.2.4 2.5 0 3.9z"/><path class="st0" d="M32.5 190.1c0-1.3-.1-2.6-.1-3.9 1.3-.6 1.9.7 1.8 3.8-.6 0-1.1 0-1.7.1zm20.3-.1c-.1-3.1.5-4.4 1.8-3.8.4 1.4.4 2.7-.1 3.9-.6-.1-1.1-.1-1.7-.1z"/><path class="st0" d="M54.5 190.1c0-1.3.1-2.6.1-3.9v-.1c.5-1.1 1.1-1.2 1.7-.2l.1.6c-.1 3-.8 3.9-1.9 3.6zm27.3-4c1.3-.6 1.9.7 1.8 3.8-1.4.9-1.9-.5-1.8-3.8zm22.1 3.9c-.1-3.2.5-4.5 1.8-3.8.1 3.2-.4 4.5-1.8 3.8zm98.8-3.9h1.6c.5 1.2.5 2.5.1 3.9-1.2.5-1.8-.7-1.7-3.9z"/><path class="st0" d="M204.5 190c0-1.3-.1-2.6-.1-3.9 1.2-.4 1.9.7 1.8 3.9h-1.7zm18.6 0c-.1-3.2.5-4.4 1.8-3.8.4 1.4.4 2.7-.1 3.9-.5-.1-1.1-.1-1.7-.1z"/><path class="st0" d="M224.8 190.1c0-1.3.1-2.6.1-3.9l-.1-.1c.5-1.1 1.1-1.2 1.7-.1l.1.6c.1 3-.6 3.8-1.8 3.5zm34.1-4c1.3-.6 1.9.7 1.8 3.9-1.3.6-1.9-.7-1.8-3.9zm22.2 3.9c-.1-3.2.5-4.4 1.8-3.8.4 1.4.4 2.7-.1 3.9-.6-.1-1.2-.1-1.7-.1z"/><path class="st0" d="M282.7 190c0-1.3.1-2.6.1-3.9.5-.1 1.1-.1 1.6-.2.2 3.2-.4 4.6-1.7 4.1zm27.4-4.1c.5.1 1.1.1 1.6.2.4 1.3.5 2.6.1 4-1.3.4-1.9-1-1.7-4.2z"/><path class="st0" d="M311.8 190c0-1.3 0-2.7-.1-4 .5 0 1.1 0 1.6.1.5 1.2.5 2.5.1 3.8-.5 0-1 .1-1.6.1z"/><path class="st0" d="M313.5 189.9c0-1.3-.1-2.6-.1-3.8 1.2-.4 1.9.8 1.8 3.9-.6-.1-1.1-.1-1.7-.1zm27.2 0c-.1-3.1.6-4.3 1.8-3.8.4 1.4.4 2.7-.1 3.9-.6 0-1.2 0-1.7-.1z"/><path class="st0" d="M342.3 190c0-1.3.1-2.6.1-3.9h1.7c.1 3.2-.5 4.4-1.8 3.9zm-308.2.2h1.7c.5 1.2.5 2.5.1 3.8-1.3.6-1.9-.6-1.8-3.8z"/><path class="st0" d="M35.9 194.1c0-1.3-.1-2.6-.1-3.8.6 0 1.1-.1 1.7-.1.5 1.2.5 2.5.1 3.8-.6.1-1.1.1-1.7.1z"/><path class="st0" d="M37.6 194c0-1.3-.1-2.5-.1-3.8 1.2-.4 1.9.6 1.8 3.8h-1.7zm10.1 0c-.1-3.1.6-4.2 1.8-3.8.4 1.3.4 2.6-.1 3.8h-1.7z"/><path class="st0" d="M49.4 194c0-1.3.1-2.6.1-3.8.6 0 1.1.1 1.7.1.4 1.4.4 2.7-.1 3.8-.6 0-1.1-.1-1.7-.1z"/><path class="st0" d="M51.1 194.1c0-1.3.1-2.6.1-3.8h1.7c.1 3.1-.5 4.3-1.8 3.8zm32.4-3.9c.6 0 1.1.1 1.7.1.5 1.2.5 2.5.1 3.9-1.3.4-1.9-.9-1.8-4z"/><path class="st0" d="M85.3 194.1c0-1.3-.1-2.6-.1-3.9.6 0 1.1 0 1.7-.1.5 1.2.5 2.5.1 3.8-.6.2-1.1.2-1.7.2z"/><path class="st0" d="M87 194c0-1.3-.1-2.5-.1-3.8 1.2-.4 1.9.6 1.8 3.8H87zm11.8 0c-.1-3.2.6-4.2 1.8-3.8.4 1.3.4 2.6-.1 3.8h-1.7z"/><path class="st0" d="M100.5 194c0-1.3.1-2.5.1-3.8.6 0 1.1 0 1.7.1.4 1.4.4 2.7-.1 3.8-.6 0-1.1 0-1.7-.1z"/><path class="st0" d="M102.2 194.1c0-1.3.1-2.6.1-3.8.6 0 1.1-.1 1.7-.1.1 3.1-.5 4.4-1.8 3.9zm10.3-3.7v3.6c-1.4.8-1.9-.8-1.7-4 .6.1 1.2.2 1.7.4zM39.2 66.9c0-1.3.1-2.5.1-3.8.6 0 1.1.1 1.7.1.4 1.3.4 2.5-.1 3.7h-1.7zm166.9 123.4h1.7c.5 1.2.5 2.4.1 3.8-1.2.6-1.9-.7-1.8-3.8z"/><path class="st0" d="M207.9 194.1c0-1.3-.1-2.5-.1-3.8.6 0 1.1 0 1.7-.1.5 1.2.5 2.5.1 3.8-.6 0-1.1.1-1.7.1z"/><path class="st0" d="M209.6 194c0-1.3-.1-2.5-.1-3.8 1.2-.4 1.9.6 1.8 3.8h-1.7zm6.8 0c-.1-3.1.5-4.2 1.7-3.8.4 1.3.4 2.6-.1 3.8h-1.6z"/><path class="st0" d="M218.1 194c0-1.3 0-2.6.1-3.8.6 0 1.2.1 1.7.1.4 1.3.4 2.6-.1 3.8-.6-.1-1.2-.1-1.7-.1z"/><path class="st0" d="M219.7 194c0-1.3.1-2.5.1-3.8h1.7c.4 1.4.4 2.6-.1 3.8-.5.1-1.1.1-1.7 0z"/><path class="st0" d="M221.4 194.1c0-1.3.1-2.5.1-3.8.6 0 1.1 0 1.7-.1.1 3.2-.5 4.4-1.8 3.9zm40.9-3.8c.6 0 1.1 0 1.7-.1.5 1.2.5 2.5.1 3.8-1.3.8-1.9-.5-1.8-3.7z"/><path class="st0" d="M264.1 194c0-1.3-.1-2.5-.1-3.8 1.2-.5 1.9.6 1.8 3.8h-1.7zm11.9 0c-.1-3.2.6-4.2 1.8-3.8.4 1.3.4 2.6-.1 3.8H276z"/><path class="st0" d="M277.7 194c0-1.3.1-2.5.1-3.8.6 0 1.1.1 1.7.1.4 1.4.4 2.7-.1 3.8-.6 0-1.2 0-1.7-.1z"/><path class="st0" d="M279.3 194.1c0-1.3.1-2.6.1-3.8h1.7c.1 3.1-.5 4.3-1.8 3.8zm8.7-4.1c.5.2 1.1.3 1.6.5 0 1.2 0 2.4.1 3.6-1.4.6-1.9-.9-1.7-4.1zM40.9 66.9c0-1.2 0-2.5.1-3.7h1.7c.4 1.2.4 2.5 0 3.7h-1.8zm255.5 127.2c.1-1.3.1-2.5.2-3.8.5-.1 1-.3 1.5-.4.2 3.3-.4 4.7-1.7 4.2zm18.7-3.8h1.7c.5 1.2.5 2.4.1 3.8-1.2.5-1.8-.7-1.8-3.8z"/><path class="st0" d="M316.9 194.1c0-1.3-.1-2.5-.1-3.8h1.7c.5 1.2.5 2.4.1 3.7-.5.1-1.1.1-1.7.1z"/><path class="st0" d="M318.6 194c0-1.2-.1-2.5-.1-3.7.6 0 1.1 0 1.7-.1.5 1.2.5 2.5.1 3.8h-1.7z"/><path class="st0" d="M320.3 194c0-1.3-.1-2.5-.1-3.8 1.2-.4 1.9.6 1.8 3.8h-1.7zm15.3 0c-.1-3.2.6-4.2 1.8-3.7.4 1.3.4 2.6-.1 3.8-.6-.1-1.2-.1-1.7-.1z"/><path class="st0" d="M337.3 194c0-1.3.1-2.5.1-3.8.6 0 1.1 0 1.7.1.4 1.4.4 2.6-.1 3.8-.6 0-1.2 0-1.7-.1z"/><path class="st0" d="M338.9 194.1c0-1.3.1-2.5.1-3.8h1.7c.1 3.1-.5 4.3-1.8 3.8zm-296.3.4v3.8c-1.2.4-1.8-.7-1.7-3.8h1.7zm0-127.6v-3.7h1.7c.5 1.2.5 2.4 0 3.7h-1.7zM46 198.3v-3.8h1.7c.2 3-.5 4.2-1.7 3.8zm46-3.8v3.8c-1.2.4-1.8-.7-1.7-3.8H92z"/><path class="st0" d="M44.4 66.9v-3.7h1.7c.5 1.2.5 2.4 0 3.7h-1.7zm51 131.4v-3.8h1.7c.2 3-.5 4.2-1.7 3.8zm173.8-3.9v3.8c-1.2.4-1.8-.7-1.7-3.8.5.1 1.1 0 1.7 0z"/><path class="st0" d="M46.1 66.9v-3.7c.6 0 1.1-.1 1.7-.1.5 1.2.5 2.4.1 3.8h-1.8zm226.5 131.4v-3.8h1.7c.1 3-.5 4.2-1.7 3.8zm51.1-3.9h1.7c.5 1.3.5 2.6 0 3.9-1.2.3-1.8-.8-1.7-3.9z"/><path class="st0" d="M325.4 198.3v-3.9h1.7v3.9h-1.7zM47.8 66.9c0-1.3-.1-2.5-.1-3.8 1.2-.5 1.9.7 1.8 3.8h-1.7zm282.7 131.4v-3.8h1.7c.5 1.3.4 2.6 0 3.8h-1.7z"/><path class="st0" d="M332.2 198.3v-3.8h1.7c.1 3-.5 4.1-1.7 3.8zm-207.7 74c.1 2.9-.5 4.2-1.7 4.1-.3-3.3.3-4.7 1.7-4.1zM92 66.9h-1.7c-.1-3.1.5-4.2 1.8-3.7.4 1.2.4 2.5-.1 3.7zm17.1 209.5v3.8c-.1.2-.2.5-.3.7-.4.4-.7.5-1.1.1l-.3-.6c-.2-3.1.3-4.6 1.7-4z"/><path class="st0" d="M92 66.9c0-1.2 0-2.5.1-3.7h1.7c.4 1.3.4 2.5 0 3.7H92zm22.2 213.4c-.6 0-1.2.1-1.8.1v-4c1.4-.6 1.9.9 1.8 3.9zm-10.3 4.1c-.1-3 .5-4.4 1.8-3.9.4.9.4 2 .3 3.3-.1.6-.2 1-.4 1.4-.5.5-1 .6-1.4 0-.1-.4-.2-.6-.3-.8z"/><path class="st0" d="M105.7 284.5c0-1.4 0-2.7.1-4.1h1.7c.5 1.4.5 2.8.1 4.3-.7 1-1.4 1-1.9-.2zm-12-217.6v-3.7h1.7v3.7h-1.7zm5.2 0v-3.7h1.7c.5 1.2.5 2.4 0 3.7h-1.7zm23.7 213.4v4.1c-.5 1.2-1 1.2-1.6.2-.1-3 .4-4.5 1.6-4.3z"/><path class="st0" d="M100.6 66.9v-3.7c.6 0 1.1 0 1.7-.1.5 1.2.5 2.4.1 3.7-.7.1-1.3.1-1.8.1zm23.9 217.7v-4.2c.5-.1 1.1-.1 1.6-.2.2 3-.3 4.5-1.6 4.4zm-22.2 4.1c-.2-3 .4-4.5 1.6-4.3l.1.2c.4 1 .5 2.2.3 3.5-.1.6-.3 1-.5 1.3-.6.4-1.1.2-1.5-.7z"/><path class="st0" d="M102.3 66.9c0-1.2 0-2.5-.1-3.7 1.2-.5 1.9.6 1.8 3.7h-1.7zm54.4 0c-.6 0-1.1 0-1.7.1-.1-3.1.5-4.3 1.8-3.9.4 1.3.4 2.5-.1 3.8zM121 284.5c.5-.1 1.1-.1 1.6-.2 0 1.4.1 2.8.1 4.2-.5 1.2-1.1 1.1-1.7.1v-4.1zm-18.7 4.2c.6-.1 1.1-.1 1.7-.2.5 1.2.5 2.5.2 3.9-.4 1.3-1 1.4-1.6.9-.1-.2-.2-.5-.3-.7v-3.9z"/><path class="st0" d="M121.1 288.7c.6 0 1.1-.1 1.7-.1v-.1c.4 1.4.5 2.7.1 4.2-.6 1.1-1.1 1.2-1.7.1-.1-1.4-.1-2.8-.1-4.1z"/><path class="st0" d="M122.6 292.8c0-1.4.1-2.9.1-4.3h1.6v4.1c-.4 1.2-.9 1.3-1.4.9-.1-.3-.2-.5-.3-.7zm34.1-225.9c0-1.3 0-2.6.1-3.8.6 0 1.1.1 1.7.1.4 1.3.4 2.5-.1 3.7h-1.7z"/><path class="st0" d="M158.4 66.9c0-1.2 0-2.5.1-3.7h1.7c.4 1.2.4 2.5 0 3.7h-1.8z"/><path class="st0" d="M160.2 66.9v-3.7h1.7c.5 1.2.5 2.4 0 3.7h-1.7z"/><path class="st0" d="M161.9 66.9v-3.7h1.7c.5 1.2.5 2.4 0 3.7h-1.7zm-61.3 229.9c-.3-3.2.4-4.5 1.7-4.2v-.1c.4 1 .5 2.2.3 3.5-.1.6-.3 1.1-.5 1.4-.5.5-1 .4-1.5-.6z"/><path class="st0" d="M163.6 66.9v-3.7h1.7c.5 1.2.5 2.4.1 3.7h-1.8zm-42.5 225.8c.5 0 1 0 1.5.1l.1-.1c.4 1.4.4 2.8 0 4.2l-.1-.2c-.4 1.2-.9 1.2-1.4.8l-.3-.6c.1-1.5.1-2.8.2-4.2z"/><path class="st0" d="M122.8 296.8v-4.2c.5 0 1.1-.1 1.6-.1.2 3-.4 4.5-1.6 4.3zm-22.2 0c.5 0 1.1-.1 1.6-.1.5 1.1.5 2.5.3 3.9-.4 1.3-1 1.4-1.6.9-.1-.2-.2-.5-.4-.7.1-1.3.1-2.6.1-4zm13.6 0c.5-.1 1.1-.1 1.6-.2.2 3-.3 4.4-1.6 4.4l-.2-.3c-.3-1.4-.3-2.7.2-3.9zm5.1 4.1c-.2-2.9.3-4.5 1.6-4.1l.2-.2c.4 1.4.4 2.9 0 4.3-.6 1.1-1.2 1.1-1.8 0z"/><path class="st0" d="M121 300.8c0-1.4.1-2.8.1-4.2h1.5v4c-.4 1.2-.8 1.2-1.4.8 0-.2-.1-.4-.2-.6zm-103.9.2v3.7c-.1.2-.2.5-.2.7-.4.5-.7.5-1.1.1l-.3-.6c-.3-3.1.2-4.5 1.6-3.9zM165.3 66.9c0-1.2 0-2.5-.1-3.7 1.3-.6 1.9.6 1.8 3.7h-1.7zM29.1 301v3.9c-.5 1.1-1.1 1.2-1.6.1-.3-3.2.2-4.6 1.6-4zM209.5 66.9h-1.7c-.1-3.1.6-4.3 1.8-3.9.4 1.4.4 2.7-.1 3.9zM98.9 305c-.2-3 .3-4.5 1.6-4.1l.1-.1c.4 1.4.4 2.8 0 4.2-.6 1.1-1.1 1.1-1.7 0z"/><path class="st0" d="M209.5 66.9c0-1.3 0-2.5.1-3.8.6 0 1.1.1 1.7.1.4 1.3.4 2.5-.1 3.7h-1.7z"/><path class="st0" d="M211.2 66.9c0-1.2 0-2.5.1-3.7h1.7c.4 1.2.4 2.5 0 3.7h-1.8z"/><path class="st0" d="M213 66.9v-3.7h1.7c.5 1.2.5 2.4 0 3.7H213zm-93.7 234c.6 0 1.1-.1 1.7-.1v-.1c.4 1.4.5 2.8 0 4.1-1.3.5-1.9-.8-1.7-3.9z"/><path class="st0" d="M121 304.9v-4.1c.5 0 1.1 0 1.6-.1.3 3.2-.3 4.6-1.6 4.2zm93.7-238v-3.7h1.7c.5 1.2.5 2.4 0 3.7h-1.7zm-74.9 238c-.6-.1-1.2-.1-1.7-.2V301h1.6c.5 1.3.5 2.6.1 3.9z"/><path class="st0" d="M139.7 305c0-1.3 0-2.7-.1-4 1.3-.6 1.9.8 1.8 3.9-.5 0-1.1.1-1.7.1zm76.7-238.1v-3.7c.6 0 1.1 0 1.7-.1.5 1.2.5 2.4.1 3.7-.7.1-1.2.1-1.8.1zm-69.9 238.2c0-1.3 0-2.7.1-4 .5 0 1.1-.1 1.6-.1.5.9.5 2.1.4 3.4-.1.6-.3 1.1-.5 1.4-.6.4-1.1.3-1.5-.8l-.1.1z"/><path class="st0" d="M148.3 304.8c0-1.3-.1-2.6-.1-3.9 1.3-.4 1.9 1 1.7 4.1-.5 1-1.1 1.1-1.6-.2zm73.1.1c.1-2.8.5-4.5 1.8-4 .4.9.5 2 .4 3.3-.1.6-.3 1-.5 1.4-.4.4-.7.5-1.1.3-.3-.2-.5-.5-.6-1z"/><path class="st0" d="M223.2 304.7v-3.8c1.3-.4 1.9 1 1.7 4.1-.6 1-1.2 1.1-1.7-.3zm-5.1-237.8c0-1.2-.1-2.5-.1-3.7 1.2-.6 1.9.6 1.8 3.7h-1.7zM299.8 305c-.6-.1-1.2-.1-1.8-.2 0-3 .5-4.3 1.8-3.8.5 1.3.5 2.7 0 4z"/><path class="st0" d="M299.8 305v-4c.6 0 1.1 0 1.7.1v3.7l.1.4c-.6.9-1.2.9-1.8-.2 0-.1 0 0 0 0zM269.2 66.9h-1.7c-.1-3.1.5-4.2 1.8-3.8.3 1.3.4 2.6-.1 3.8zm35.7 238V301c.7.1 1.7-.7 1.6 2.3-.1 2.2-1 1.4-1.6 1.6zm-291.3 4.2c-.1-3 .4-4.6 1.8-4.1v-.1c.5 1.2.5 2.5.2 4-.4 1.3-1 1.4-1.6.9-.1-.3-.2-.5-.4-.7z"/><path class="st0" d="M269.2 66.9c0-1.3 0-2.5.1-3.8.6 0 1.1.1 1.7.1.4 1.3.4 2.5 0 3.7h-1.8z"/><path class="st0" d="M270.9 66.9v-3.7h1.7c.4 1.2.4 2.5 0 3.7h-1.7zm-250.3 238c1.3-.3 1.7 1.3 1.6 4.1-.6 1.1-1.2 1.3-1.8.3-.4-1.4-.4-2.9 0-4.4h.2zm6.8.2c.5 0 1.1-.1 1.6-.1 0 1.4 0 2.8.1 4.2l-.3.6c-.3.4-.7.4-1 .3-.2-.2-.4-.5-.6-.9.1-1.4.1-2.8.2-4.1zm71.5-.1c.6 0 1.1 0 1.7-.1.1.2.2.5.3.7.2.9.1 1.8 0 2.7l-.3.6c-.5 0-1.1.1-1.6.1-.1-1.2-.1-2.6-.1-4zm34 4c-.2-3.2.4-4.5 1.7-4.1v-.1c.5 1.4.5 2.7 0 4.1v-.1c-.4 1.2-.8 1.2-1.4.7-.1 0-.2-.2-.3-.5z"/><path class="st0" d="M134.6 309v-4.1c.6.1 1.2.1 1.7.2.1 3.1-.5 4.2-1.7 3.9zm138-242.1v-3.7h1.7c.4 1.2.4 2.4 0 3.7h-1.7z"/><path class="st0" d="M274.3 66.9v-3.7h1.7c.5 1.2.5 2.4 0 3.7h-1.7zM141.5 309.1c0-1.4 0-2.7-.1-4.1h1.7v-.1c.5 1.4.5 2.7 0 4.1l-.1-.1c-.4 1.3-1 1.2-1.5.2z"/><path class="st0" d="M143.1 309.1V305h1.7v4.1h-1.7zM276 66.9v-3.7h1.7c.5 1.2.5 2.4 0 3.7H276zM148.3 304.8c.5.1 1.1.2 1.6.3v3.9c-.4 1.2-.9 1.3-1.4 1-.2-.3-.4-.7-.6-1.2-.2-1.3-.2-2.5.2-3.6l.2-.4zm71.5 4.3c-.1-2.8.3-4.4 1.6-4.2l.2.1c.4 1.4.4 2.8 0 4.3-.6 1-1.2.9-1.8-.2z"/><path class="st0" d="M277.7 66.9v-3.7h1.7c.5 1.2.5 2.4.1 3.7h-1.8zm-54.5 237.8c.5.1 1.1.2 1.6.3v4c-.5 1.2-1.1 1.3-1.8.4-.4-1.4-.4-2.9 0-4.3l.2-.4z"/><path class="st0" d="M279.4 66.9c0-1.2 0-2.5-.1-3.7 1.3-.6 1.9.6 1.8 3.7h-1.7zm-46.1 238.2h1.7v3.9c-.5 1.2-1 1.2-1.6.2 0-1.4 0-2.8-.1-4.1zm63.1 3.9c-.5.1-1.1.2-1.6.2-.2-3.2.4-4.6 1.7-4.2-.1 1.3-.1 2.7-.1 4zm29-242.1h-1.7c-.1-3.1.5-4.2 1.8-3.8.3 1.3.4 2.6-.1 3.8zm-25.6 238l1.8.3c0 3.1-.6 4.2-1.8 3.8v-4.1zM12 313.2c-.1-2.9.4-4.4 1.6-4.1h.1c.4 1 .5 2.2.3 3.5-.1.6-.3 1-.5 1.4-.6.4-1.1.2-1.5-.8zm8.6-4.1h1.6c.1 2.8-.3 4.4-1.6 4.1l-.3-.6c-.2-1.4-.3-2.6.3-3.5zm5 4.1c-.1-2.8.3-4.5 1.6-4.1l.2-.1c.4 1.5.4 2.9 0 4.4-.6 1-1.2.9-1.8-.2z"/><path class="st0" d="M325.4 66.9c0-1.3 0-2.5.1-3.8.6 0 1.1.1 1.7.1.4 1.3.4 2.5 0 3.7h-1.8zM29.1 309.2c.5-.1 1.1-.1 1.6-.2v4.1c-.6 1.2-1.2 1.3-1.8.3-.4-1.5-.3-2.9.1-4.3l.1.1zm32.3 0v3.8c-.7 0-1.6.7-1.6-1.9 0-2.6.9-1.9 1.6-1.9z"/><path class="st0" d="M327.1 66.9v-3.7h1.7c.4 1.2.4 2.5 0 3.7h-1.7zm-243.6 246v-3.7c.7-.1 1.6-.8 1.6 1.8 0 2.8-.9 2-1.6 1.9z"/><path class="st0" d="M328.8 66.9v-3.7h1.7c.4 1.2.4 2.4 0 3.7h-1.7zM112.5 309.1c.6 0 1.1.1 1.7.1v4c-.5 0-1.1-.1-1.6-.1l-.3-.6c-.2-.9-.2-1.8 0-2.7 0-.3.1-.5.2-.7zm18.8 4c-.2-3.2.4-4.4 1.7-4.1v-.1c.4 1.4.5 2.8 0 4.2-.6 1.1-1.2 1.2-1.7 0z"/><path class="st0" d="M132.9 313.2V309h1.7c.2 3.1-.4 4.4-1.7 4.2zm8.6-4.1c.5 0 1.1-.1 1.6-.1v4.1c-.5 1.2-1 1.2-1.6.2v-4.2zm5.1 3.9v-4.1c.5-1 1-1.1 1.5 0h.2c.4 1.4.4 2.8-.2 4-.4.2-1 .2-1.5.1z"/><path class="st0" d="M148.2 313.1c.1-1.3.1-2.6.2-4 .5-.1 1-.1 1.6-.2.1 3.3-.5 4.6-1.8 4.2zm71.6-4c.5 0 1.1-.1 1.6-.1.5.9.6 2.1.4 3.4-.1.6-.3 1.1-.5 1.4-.5.5-1 .4-1.5-.6v-4.1zm3.5 0c.5 0 1.1-.1 1.6-.1.1 2.9-.3 4.5-1.6 4.1l-.3-.6c-.3-1.3-.3-2.5.3-3.4zm8.3-.1v4.1c-.5 1.2-1 1.2-1.6.2-.1-3 .3-4.5 1.6-4.3zm1.9.1c.5-.1 1.1-.1 1.6-.2v4.1c-.5 1.1-1.1 1.2-1.6.1v-4zm97-242.2v-3.7h1.7c.5 1.2.5 2.4 0 3.7h-1.7zM12 313.2h1.7c.5 1.4.4 2.7 0 4.1-1.3.3-1.8-1.1-1.7-4.1z"/><path class="st0" d="M13.7 317.2v-4.1c.5-1.1 1-1.2 1.6-.6.5 1.1.6 2.4.4 3.8-.1.3-.2.5-.3.8-.6.1-1.1.1-1.7.1zm6.9-4.1c-.1 1.3-.1 2.7-.2 4-.5 1.3-1.1 1.2-1.7.2-.4-1.4-.4-2.8-.1-4.2.6-1.1 1.1-1.2 1.7 0 .1.1.3 0 .3 0zm5 .1c.5 0 1.1-.1 1.6-.1.5.9.5 2.1.4 3.4-.1.6-.3 1.1-.5 1.4-.5.5-1 .4-1.5-.6.1-1.3.1-2.7 0-4.1zm3.5 0c.5-.1 1.1-.1 1.6-.2.2 2.9-.3 4.5-1.6 4.1l-.3-.6c-.2-1.2-.2-2.3.3-3.3zm5.1 3.9c-.2-3.1.3-4.4 1.6-3.8.5 1.3.5 2.6.1 4-.6 1-1.2 1.1-1.7-.2z"/><path class="st0" d="M35.8 317.2c0-1.3 0-2.6-.1-4 .7.1 1.7-.7 1.6 2.2 0 2.3-.9 1.7-1.5 1.8zM332.2 66.9v-3.7h1.7c.5 1.2.5 2.4 0 3.7h-1.7z"/><path class="st0" d="M333.9 66.9v-3.7h1.7c.5 1.2.5 2.4 0 3.7h-1.7zM131.3 313.1h1.7c-.1 1.6.2 4.1-1 3.8-1-.2-.7-2.3-.7-3.8zm6.7.1c.5 0 1.1-.1 1.6-.1v4.1c-.5 1.2-1.1 1.1-1.6.2.1-1.5 0-2.8 0-4.2zm3.5.1c.5-.1 1.1-.1 1.6-.2.2 3-.3 4.5-1.6 4.3v-4.1zm13.6 3.8c-.2-3.1.3-4.4 1.6-3.8.5 1.3.5 2.6.1 4-.6 1-1.2 1.1-1.7-.2z"/><path class="st0" d="M156.8 317.2c0-1.3 0-2.6-.1-4 .7.1 1.7-.7 1.6 2.2 0 2.3-.9 1.7-1.5 1.8zm63-3.9c.5-.1 1.1-.1 1.6-.2.6 1.3.5 2.6.2 4.1-.6 1.2-1.1 1.2-1.7.2 0-1.4-.1-2.8-.1-4.1z"/><path class="st0" d="M221.5 317.3c0-1.4-.1-2.8-.1-4.2l.1.1c.5-1.1 1-1.2 1.6 0l.2-.1c-.1 1.4-.1 2.7-.2 4.1-.4 1.1-.8 1.2-1.3.7l-.3-.6zm8.5-4.1c.5-.1 1.1-.1 1.6-.2v4.2c-.5 1.1-1 1.1-1.6.1.1-1.3 0-2.7 0-4.1zm3.5 0c.5 0 1.1-.1 1.6-.1.2 2.9-.4 4.4-1.6 4.2v-4.1zm8.5 3.9c-.2-3.1.3-4.4 1.6-3.8.5 1.3.5 2.6.1 4-.6 1-1.2 1.1-1.7-.2z"/><path class="st0" d="M243.6 317.2c0-1.3 0-2.6-.1-4 .7.1 1.7-.7 1.6 2.2 0 2.3-.9 1.7-1.5 1.8zm49.5.2c-.2-2.9.2-4.5 1.5-4.2h.3c.4 1.5.4 2.9 0 4.3-.6 1-1.2 1-1.8-.1zm42.5-250.5v-3.7c.6 0 1.1 0 1.7-.1.5 1.2.5 2.5.1 3.7-.6.1-1.2.1-1.8.1zm-39.1 246.3c.5 0 1.1-.1 1.6-.1 0 1.4.1 2.7.1 4.1h-1.7c-.5-1.4-.5-2.7 0-4zm15.3 3.9c-.2-3.1.3-4.4 1.6-3.8.5 1.3.5 2.6.1 4-.6 1-1.2 1.1-1.7-.2z"/><path class="st0" d="M313.5 317.2c0-1.3 0-2.6-.1-4 .7.1 1.7-.7 1.6 2.2 0 2.3-.9 1.7-1.5 1.8zm-298.1 4.2v-4.2c.4-1.1 1-1.2 1.5-.7.3.4.4.9.5 1.5.1 1.5.1 2.8-.4 3.8-.5.8-1.1.6-1.6-.4zM337.3 66.9c0-1.2 0-2.5-.1-3.7.6 0 1.1-.1 1.7-.1.5 1.2.5 2.5 0 3.8h-1.6zM18.8 317.3c.5-.1 1.1-.1 1.6-.2v4.1c-.5 1.2-1 1.3-1.6.7-.5-1-.6-2.3-.4-3.8.2-.2.3-.5.4-.8zm6.9 0c.5-.1 1-.1 1.6-.2.6 1.3.5 2.6.2 4.1-.6 1.2-1.1 1.2-1.7.2-.1-1.3-.1-2.7-.1-4.1z"/><path class="st0" d="M27.3 321.4c0-1.4-.1-2.8-.1-4.2l.1.1c.5-1.1 1.1-1.2 1.6 0l.2-.1c-.1 1.4-.1 2.7-.2 4.1-.4 1.1-.8 1.2-1.3.7l-.3-.6zm6.9-4.3c.5 0 1.1.1 1.6.1-.1 1.5.2 3.6-.7 3.8-1.2.2-.9-2.2-.9-3.9zm8.5 4.3c-.1-3.2.5-4.5 1.8-4.1.4 1.4.4 2.8 0 4.2-.7 1-1.3.9-1.8-.1z"/><path class="st0" d="M44.3 321.4c0-1.4.1-2.7.1-4.1 1.3-.5 1.9.8 1.5 4-.4 1.1-.9 1.2-1.4.7 0-.2-.1-.4-.2-.6zm52.9 0c-.1-3 .3-4.5 1.6-4.1l.1-.1c.4 1.4.4 2.8 0 4.2-.6 1.1-1.1 1.1-1.7 0zm40.9-4.1c.5-.1 1.1-.1 1.6-.2 0 1.4 0 2.8.1 4.2-.5 0-1.1.1-1.6.1-.1-1.3-.1-2.7-.1-4.1zm17-.2c.5 0 1.1.1 1.6.1-.1 1.5.2 3.6-.7 3.8-1.2.2-.8-2.2-.9-3.9zm8.5 4.3c-.1-3.2.5-4.5 1.8-4.1.4 1.4.4 2.8 0 4.2-.7 1-1.2.9-1.8-.1z"/><path class="st0" d="M165.2 321.4c0-1.4.1-2.7.1-4.1 1.3-.5 1.9.8 1.5 4-.4 1.1-.9 1.2-1.4.7 0-.2-.1-.4-.2-.6zm17.2-4v3.8c-.7 0-1.6.7-1.6-1.9s.9-1.9 1.6-1.9zM339 66.9v-3.8c1.2-.4 1.8.8 1.8 3.8H339zM35.8 71.1c-.6 0-1.1-.1-1.7-.1-.1-3.2.5-4.5 1.8-3.8.4 1.4.4 2.7-.1 3.9zm168.6 250v-3.7c.7-.1 1.6-.8 1.6 1.8.1 2.8-.9 2-1.6 1.9zm15.5-3.8c.5 0 1.1-.1 1.6-.1.4 1.4.5 2.8-.1 4.2h-1.6c.1-1.3.1-2.7.1-4.1z"/><path class="st0" d="M221.4 321.4c0-1.4 0-2.8.1-4.2h1.6v4.1c-.5 1.2-1 1.1-1.7.1zm8.7-4.1c.5 0 1.1 0 1.6-.1l.1-.1c.4 1.4.4 2.8 0 4.2-.6 1.1-1.1 1.1-1.7.1v-4.1z"/><path class="st0" d="M231.7 321.4c0-1.4 0-2.8.1-4.2h1.6v4.1c-.4 1.2-.8 1.2-1.3.7-.2-.2-.3-.4-.4-.6zm10.3-4.3c.5 0 1.1.1 1.6.1-.1 1.5.2 3.6-.7 3.8-1.2.2-.9-2.2-.9-3.9zm17 .3v3.8c-.7 0-1.6.7-1.6-1.9 0-2.5.9-1.9 1.6-1.9zM35.8 71.1c0-1.3.1-2.6.1-3.9h1.7c0 3.2-.6 4.3-1.8 3.9zm15.4 0c-1.2.4-1.9-.7-1.8-3.8h1.7c.5 1.2.5 2.5.1 3.8zm229.9 250v-3.7c.7-.1 1.6-.8 1.6 1.8 0 2.8-.9 2-1.6 1.9zm12-3.7c.5-.1 1.1-.2 1.6-.2.5.9.5 2.1.4 3.5-.1.6-.3 1.1-.5 1.4-.5.5-1 .4-1.5-.6v-4.1z"/><path class="st0" d="M51.2 71.1c0-1.3-.1-2.6-.1-3.9 1.3-.8 1.9.5 1.8 3.8-.5.1-1.1.1-1.7.1zm252 250.2v-3.9c.7.1 1.6-.5 1.6 1.9 0 2.5-.9 1.9-1.6 2zm8.6-4.2c.5 0 1.1.1 1.6.1-.1 1.5.2 3.6-.7 3.8-1.2.2-.8-2.2-.9-3.9zm8.5 4.3c-.1-3.2.5-4.5 1.8-4.1.4 1.4.4 2.8 0 4.2-.7 1-1.2.9-1.8-.1z"/><path class="st0" d="M321.9 321.4c0-1.4.1-2.7.1-4.1 1.3-.5 1.9.8 1.5 4-.4 1.1-.9 1.2-1.4.7 0-.2-.1-.4-.2-.6zm-306.5 0c.5-.1 1.1-.1 1.6-.2.5.9.5 2.1.4 3.4-.1.6-.3 1.1-.5 1.4-.5.5-1 .4-1.5-.6v-4zm3.5 0c.5-.1 1.1-.1 1.6-.2.1 2.8-.3 4.5-1.6 4.1l-.3-.6c-.2-1.2-.2-2.3.3-3.3zm6.8 0c.5 0 1.1 0 1.6-.1.4.9.5 2 .4 3.3-.1.6-.2 1.1-.4 1.4-.4.4-.7.5-1.1.4-.2-.2-.5-.5-.6-.9 0-1.3 0-2.7.1-4.1z"/><path class="st0" d="M27.4 325.6c0-1.4 0-2.8-.1-4.2.5 0 1.1 0 1.6-.1v4.1c-.4 1.2-1 1.2-1.5.2zm15.3-4.2h1.6l.2-.2c.4 1.4.4 2.8 0 4.2-.6 1.1-1.1 1.1-1.7.1-.1-1.3-.1-2.7-.1-4.1z"/><path class="st0" d="M44.4 325.5c0-1.4.1-2.8.1-4.2.5 0 1 0 1.5.1v4c-.4 1.2-.8 1.2-1.4.7-.1-.2-.1-.4-.2-.6zm52.8-4.1c.6 0 1.1 0 1.7-.1.1.3.2.5.3.8.2 1.4.1 2.7-.4 3.7-.5.7-1.1.7-1.6-.3v-4.1zM85.2 71h-1.7c-.1-3.2.5-4.3 1.8-3.7.4 1.3.4 2.5-.1 3.7zm78.4 250.4h1.6l.2-.2c.4 1.4.4 2.8 0 4.2-.6 1.1-1.1 1.1-1.7.1-.1-1.3-.1-2.7-.1-4.1z"/><path class="st0" d="M165.3 325.5c0-1.4.1-2.8.1-4.2.5 0 1 0 1.5.1v4c-.4 1.2-.8 1.2-1.4.7 0-.2-.1-.4-.2-.6zM85.2 71c0-1.3.1-2.5.1-3.8H87c.4 1.3.4 2.6-.1 3.8-.6.1-1.2 0-1.7 0z"/><path class="st0" d="M86.9 71.1c0-1.3.1-2.5.1-3.8h1.7c0 3.2-.6 4.2-1.8 3.8zm132.8 250.2v4.1c-.5 1.2-1.1 1.1-1.6.1-.2-2.9.4-4.4 1.6-4.2zM107.4 71.1c-1.2.5-1.9-.6-1.8-3.8.6 0 1.1-.1 1.7-.1.5 1.2.5 2.5.1 3.9zm114.1 250.3c.5 0 1.1-.1 1.6-.1v4.1c-.5 1.2-1 1.2-1.6.2.1-1.5 0-2.9 0-4.2zm8.6 0h1.6c.4.9.5 2 .4 3.3-.1.6-.2 1.1-.4 1.4-.3.4-.7.5-1.1.4-.2-.2-.5-.5-.6-.9 0-1.4 0-2.8.1-4.2z"/><path class="st0" d="M231.8 325.6c0-1.4-.1-2.8-.1-4.2.5 0 1.1-.1 1.6-.1v4.1c-.4 1.2-1 1.2-1.5.2zM107.4 71.1c0-1.3-.1-2.6-.1-3.8 1.3-.6 1.9.6 1.8 3.8-.5-.1-1.1 0-1.7 0zm45.9 0h-1.7c-.1-3.2.5-4.4 1.8-3.9.4 1.4.4 2.7-.1 3.9zm139.8 250.3h1.6c.5 1.3.5 2.7.1 4.1-.6 1.1-1.1 1.1-1.7 0v-4.1z"/><path class="st0" d="M294.7 325.4v-4.1c.5-1.1 1-1.2 1.6-.1l.2.2c-.1 1.3-.1 2.6-.2 4-.4 1.1-.8 1.2-1.4.7 0-.2-.1-.4-.2-.7zm25.6-4h1.6l.2-.2c.4 1.4.4 2.8 0 4.2-.6 1.1-1.1 1.1-1.7.1-.1-1.3-.1-2.7-.1-4.1z"/><path class="st0" d="M322 325.5c0-1.4.1-2.8.1-4.2.5 0 1 0 1.5.1v4c-.4 1.2-.8 1.2-1.4.7 0-.2-.1-.4-.2-.6zm-306.5 0c.5-.1 1.1-.1 1.6-.2.6 1.3.5 2.7.1 4.2-.5 0-1.1 0-1.6.1-.1-1.4-.1-2.7-.1-4.1z"/><path class="st0" d="M17.1 329.6c0-1.4 0-2.8-.1-4.2l.1.1c.5-1.1 1.1-1.1 1.6 0l.2-.1c-.1 1.4-.1 2.7-.2 4.1-.5 0-1.1 0-1.6.1zm6.8 0c-.1-2.8.3-4.5 1.6-4.1l.2-.1c.4 1.5.4 2.9 0 4.4-.6 1-1.2.9-1.8-.2zM153.3 71.1c0-1.3.1-2.6.1-3.9.6 0 1.1.1 1.7.1.1 3.1-.6 4.3-1.8 3.8zM27.4 325.6c.5-.1 1.1-.1 1.6-.2v4.1c-.6 1.2-1.2 1.3-1.8.3-.4-1.5-.3-2.9.1-4.4l.1.2zm15.3-.1c.6 0 1.1-.1 1.7-.1.4 1.4.5 2.8 0 4.2h-1.7v-4.1z"/><path class="st0" d="M44.3 329.6v-4.2c.5 0 1.1 0 1.6-.1 0 1.4.1 2.8.1 4.1-.5 1.3-1.1 1.2-1.7.2zm17.1-4v3.8c-.7 0-1.6.7-1.6-1.9 0-2.6.9-1.9 1.6-1.9zM170.5 71.1c-1.2.5-1.9-.6-1.8-3.8.6 0 1.1-.1 1.7-.1.5 1.2.5 2.5.1 3.9zm-87 258.2v-3.7c.7-.1 1.6-.8 1.6 1.8 0 2.8-.9 2-1.6 1.9zm13.7-3.8h1.6c.1.2.2.5.3.7.2 1.4.1 2.6-.3 3.7-.5.7-1.1.7-1.5-.3-.1-1.3-.1-2.7-.1-4.1z"/><path class="st0" d="M170.5 71.1c0-1.3-.1-2.6-.1-3.9 1.3-.5 1.9.8 1.8 3.9h-1.7zm-58 254.4c.5 0 1.1-.1 1.6-.1v4c-.4 1.3-1 1.3-1.6.7-.5-1-.6-2.4-.4-3.8.2-.3.3-.5.4-.8zm93.6-254.4h-1.7c-.1-3.2.5-4.4 1.8-3.8.4 1.3.4 2.6-.1 3.8zm-64.7 258.4c-.5 0-1.1.1-1.6.1 0-1.4 0-2.8-.1-4.2.5 0 1.1-.1 1.6-.1.1 1.4.1 2.8.1 4.2zm5.2.1c0-1.7-.3-4.1.9-3.8.9.2.6 2.3.7 3.8-.5 1.1-1.1 1.1-1.6 0zm17-4.1c.6 0 1.1-.1 1.7-.1.4 1.4.5 2.8 0 4.2h-1.7v-4.1z"/><path class="st0" d="M165.3 329.6v-4.2c.5 0 1.1 0 1.6-.1 0 1.4.1 2.8.1 4.1-.6 1.3-1.1 1.2-1.7.2zm52.8-4.1c.5 0 1.1-.1 1.6-.1v4.1c-.5 1.2-1 1.2-1.6.2v-4.2zm3.5 0c.5-.1 1.1-.1 1.6-.2.2 2.9-.3 4.4-1.6 4.2v-4zm6.7 4.1c-.1-2.8.3-4.5 1.6-4.1l.2-.1c.4 1.5.4 2.9 0 4.4-.6 1-1.2.9-1.8-.2zM206.1 71.1c0-1.3.1-2.6.1-3.9.6 0 1.1 0 1.7.1.1 3.1-.6 4.3-1.8 3.8zm25.7 254.5c.5-.1 1-.1 1.6-.2v4.1c-.6 1.2-1.2 1.3-1.8.3-.4-1.5-.3-2.9.1-4.4l.1.2zm61.3-.2h1.6c.4 1.4.5 2.7 0 4.1-.6 1.1-1.1 1.1-1.6-.1v-4z"/><path class="st0" d="M294.7 329.6v-4.1h1.6v4.2c-.5-.1-1-.1-1.6-.1zm25.6-4.1c.6 0 1.1-.1 1.7-.1.4 1.4.5 2.8 0 4.2h-1.7v-4.1z"/><path class="st0" d="M322 329.6v-4.2c.5 0 1.1 0 1.6-.1 0 1.4.1 2.8.1 4.1-.6 1.3-1.1 1.2-1.7.2zM223.3 71c-1.3.6-1.9-.5-1.8-3.7.6 0 1.1-.1 1.7-.1.5 1.2.5 2.5.1 3.8zM23.9 329.6c.5 0 1.1-.1 1.6-.1.6 1.4.5 2.7 0 4.2-.5 0-1.1.1-1.6.1v-4.2zm3.5 0c.5 0 1.1-.1 1.6-.1v4.2c-.5 0-1.1 0-1.6-.1l-.2.1c-.3-1.4-.4-2.8.2-4.1zm5 4h-1.7c-.1-3.1.4-4.5 1.7-4v4z"/><path class="st0" d="M223.3 71c0-1.3-.1-2.6-.1-3.9 1.3-.4 1.9.8 1.8 4-.6 0-1.2 0-1.7-.1zM41 333.6c-.6-.1-1.5.6-1.6-1.7-.1-2.9.9-2.1 1.6-2.3.4 1.4.4 2.7 0 4z"/><path class="st0" d="M41 333.6v-3.9c.6 0 1.1-.1 1.7-.1 0 1.4 0 2.8-.1 4.3-.6.9-1.1.8-1.6-.3zM262.3 71h-1.7c-.1-3.1.6-4.3 1.8-3.8.4 1.4.4 2.6-.1 3.8zm-218 258.6c.6 0 1.2-.1 1.7-.1.4 1.3.5 2.7 0 4-.5.1-1.1.2-1.6.3 0-1.4 0-2.8-.1-4.2z"/><path class="st0" d="M46 333.5v-4c.7.3 1.7-.5 1.6 2.4-.1 2.4-.9 1.6-1.6 1.6zm51.2-3.9h1.6l.3.6c.2 1.3.2 2.5-.2 3.6-.5.9-1 1-1.5.5l-.3-.6c0-1.3.1-2.7.1-4.1zm15.3.1c.5-.1 1.1-.2 1.6-.3.2 2.8-.2 4.5-1.5 4.3-.1-.2-.2-.3-.3-.5-.3-1.3-.3-2.5.2-3.5zm20.4 0v4c-.3.9-.8 1.1-1.2.9-.2-.2-.4-.5-.5-.9 0-2.7.2-4.9 1.7-4zM262.3 71c0-1.3.1-2.5.1-3.8h1.7c.4 1.3.4 2.6-.1 3.8-.6.1-1.1 0-1.7 0zM137.9 329.5v4.2c-.5 1.1-1 1-1.6.1-.1-3 .4-4.5 1.6-4.3z"/><path class="st0" d="M264 71.1c0-1.3.1-2.5.1-3.8h1.7c.1 3.2-.6 4.3-1.8 3.8zM146.6 329.6h1.6v3.9c-.4 1.2-.8 1.3-1.4.8l-.3-.6c.1-1.4.1-2.7.1-4.1zm6.8 4h-1.7c-.1-3.1.4-4.5 1.7-4v4zM284.6 71.1c-1.2.5-1.9-.6-1.8-3.8h1.7c.5 1.1.5 2.4.1 3.8zM161.9 333.6c-.6-.1-1.5.6-1.6-1.7-.1-2.9.9-2.1 1.6-2.3.4 1.4.5 2.7 0 4z"/><path class="st0" d="M161.9 333.6v-3.9c.6 0 1.1-.1 1.7-.1 0 1.4 0 2.8-.1 4.3-.5.9-1.1.8-1.6-.3 0 .1 0 0 0 0zM284.6 71.1c0-1.3-.1-2.5-.1-3.8 1.3-.7 1.9.5 1.8 3.7-.6 0-1.2.1-1.7.1zM165.3 329.6c.6 0 1.2-.1 1.7-.1.4 1.3.5 2.7 0 4-.5.1-1.1.2-1.6.3-.1-1.4-.1-2.8-.1-4.2z"/><path class="st0" d="M167 333.5v-4c.7.3 1.7-.5 1.6 2.4-.2 2.4-1 1.6-1.6 1.6zm51.1-3.9c.5-.1 1.1-.1 1.6-.2v4.1c-.5 1.2-1 1.2-1.6.2.1-1.3 0-2.7 0-4.1zm10.2 0c.5 0 1.1-.1 1.6-.1.5.9.5 2.1.4 3.4-.1.6-.3 1.1-.5 1.4-.5.5-1 .4-1.5-.6.1-1.3 0-2.7 0-4.1zm3.5 0c.5 0 1.1-.1 1.6-.1v4.2c-.1.2-.2.4-.3.7-.4.4-.8.4-1.2.1-.2-.3-.4-.8-.6-1.4-.1-1.3-.1-2.6.5-3.5zm3.3 4.1c.1-1.5-.2-3.9.9-3.9s.8 2.4.9 3.9l-.1-.1c-.4 1.1-.9 1.2-1.4.7l-.3-.6zm5.1-.1h-1.7c-.1-3.1.4-4.5 1.7-4v4zm80-262.6h-1.7c-.1-3.2.5-4.4 1.8-3.8.4 1.4.4 2.7-.1 3.8zm-27.1 258.4c.5 0 1.1.1 1.6.1 0 1.4 0 2.8-.1 4.3-1.2.1-1.8-1.2-1.5-4.4z"/><path class="st0" d="M320.2 71c0-1.3.1-2.5.1-3.8.6 0 1.1.1 1.7.1.1 3.2-.5 4.4-1.8 3.7zm-10.1 262.6h-1.7c-.1-3.1.4-4.5 1.7-4v4zm32.4-262.5c-1.2.4-1.9-.7-1.8-3.8h1.7c.5 1.2.5 2.5.1 3.8zm-23.9 262.5c-.6-.1-1.5.6-1.6-1.7-.1-2.9.9-2.1 1.6-2.3.4 1.4.5 2.7 0 4z"/><path class="st0" d="M318.6 333.6v-3.9c.6 0 1.1-.1 1.7-.1 0 1.4 0 2.8-.1 4.3-.6.9-1.1.8-1.6-.3zm23.9-262.5c0-1.3-.1-2.5-.1-3.8h1.7c.5 1.2.5 2.4.1 3.8h-1.7zM322 329.6c.6 0 1.2-.1 1.7-.1.4 1.3.5 2.7 0 4-.5.1-1.1.2-1.6.3-.1-1.4-.1-2.8-.1-4.2z"/><path class="st0" d="M323.7 333.5v-4c.7.3 1.7-.5 1.6 2.4-.2 2.4-1 1.6-1.6 1.6zm-308.2.1c.5 0 1.1.1 1.6.1.5 1.4.5 2.8 0 4.1-1.3.2-1.9-1-1.6-4.2z"/><path class="st0" d="M17.1 337.8v-4.1h1.6c0 1.3.1 2.7.1 4-.5 1.2-1.1 1.1-1.7.1zm6.7-.2h-1.7c-.1-3 .5-4.3 1.7-4 .1 1.4.1 2.7 0 4zM344.2 71c0-1.3-.1-2.5-.1-3.8 1.3-.6 1.9.5 1.8 3.7-.6.1-1.2.1-1.7.1zM32.4 75.2c-.5 0-1.1.1-1.6.1-.2-3.2.4-4.5 1.8-4.1.3 1.5.3 2.8-.2 4z"/><path class="st0" d="M32.4 75.2c0-1.3.1-2.6.1-3.9h1.7c0 3.1-.6 4.3-1.8 3.9zm1.7 262.6v-4.1c.5 0 1.1.1 1.6.1v3.9c-.4 1.2-.8 1.2-1.3.7l-.3-.6zm6.8-4.1c.5 0 1.1.1 1.6.1v4c-.5 1.1-1.1 1-1.6 0 .1-1.4 0-2.7 0-4.1zm54.6 4.1c-.1-2.9.3-4.5 1.6-4.1l.2-.2c.3 1.1.4 2.3.2 3.6-.1.6-.3 1-.5 1.4-.6.5-1.1.3-1.5-.7zm17.1-4.1c-.1 2.7-.5 4.4-1.8 4.3-.1-.2-.2-.5-.3-.7-.3-1.4-.2-2.7.3-3.9.5-.9 1.1-.9 1.6.2l.2.1zm18.5 4.1c-.6-.2-1.5.2-1.5-2.1 0-2.3.8-1.9 1.5-2h.2c.4 1.4.4 2.7 0 4.1h-.2zm5.3-4c.5 0 1.1-.1 1.6-.1l.1-.1c.4 1.4.4 2.7-.1 4-.6.1-1.2.1-1.8.2.1-1.4.2-2.7.2-4zm8.5 4c-.2-3.2.4-4.6 1.7-4.1v-.1c.5 1.4.5 2.7 0 4.1-.6 1.2-1.2 1.2-1.7.1z"/><path class="st0" d="M146.5 337.7v-4.1c.6 0 1.1-.1 1.7-.1.2 3.1-.4 4.6-1.7 4.2zM54.6 75.2c-1.3.4-1.9-.8-1.8-4h1.6c.6 1.3.6 2.6.2 4z"/><path class="st0" d="M54.6 75.2c0-1.3-.1-2.6-.1-3.9 1.3-.5 1.9.8 1.8 4-.6 0-1.1 0-1.7-.1zm100.5 262.6v-4.1c.5 0 1.1.1 1.6.1v3.9c-.4 1.2-.8 1.2-1.3.7l-.3-.6zm6.8-4.1c.5 0 1.1.1 1.6.1v4c-.5 1.1-1.1 1-1.6 0v-4.1zm56.3 0c.5-.1 1.1-.1 1.6-.2.2 3-.3 4.4-1.6 4.3v-4.1zm10.2.1c.5-.1 1.1-.2 1.6-.2.5 1.4.5 2.8 0 4.3-.6 0-1.1-.1-1.7-.1 0-1.4 0-2.7.1-4zM80.1 75.2c-.5.1-1.1.1-1.6.2-.2-3.2.4-4.5 1.7-4.1.4 1.4.4 2.7 0 4.1l-.1-.2z"/><path class="st0" d="M80.2 75.4v-4.1c.6 0 1.1.1 1.7.1.1 3-.5 4.2-1.7 4zm153.2 258.3h1.7l.1-.1c.4 1.1.5 2.4.2 3.8-.1.6-.4 1-.6 1.3-.6.3-1.2.2-1.6-1.1-.3-1.5-.2-2.8.2-3.9zM110.8 75.2c-1.2.4-1.9-.8-1.8-3.9h1.7c.6 1.2.5 2.5.1 3.9z"/><path class="st0" d="M110.8 75.2c0-1.3-.1-2.6-.1-3.9 1.3-.5 1.9.8 1.8 4-.6 0-1.1-.1-1.7-.1zm131.1 262.6v-4.1c.5 0 1.1.1 1.6.1v3.9c-.4 1.2-.8 1.2-1.3.7l-.3-.6zM151.7 71.3c.1 3.2-.5 4.4-1.8 3.9-.1-3.3.4-4.7 1.8-3.9zm149.9 266.3c-.2-3.2.5-4.3 1.7-3.9.4 1.4.4 2.8 0 4.1v-.1c-.6 1.1-1.2 1.2-1.8.2l.1-.3z"/><path class="st0" d="M303.2 337.8v-4.1c.6.1 1.5-.6 1.5 1.7.2 2.9-.8 2.1-1.5 2.4zM173.8 75.2c-1.3.6-1.9-.8-1.8-3.9 1.4-.7 2 .7 1.8 3.9zm27.2-.3c0-3 .7-4 1.8-3.6.4 1.4.4 2.7-.1 3.9v.1c-.3 1.1-.8 1.2-1.3.9-.2-.3-.4-.7-.4-1.3zm110.8 262.9v-4.1c.5 0 1.1.1 1.6.1v3.9c-.4 1.2-.8 1.2-1.3.7l-.3-.6zm6.8-4.1c.5 0 1.1.1 1.6.1v4c-.5 1.1-1.1 1-1.6 0v-4.1zm-301.5 4.1c.6 0 1.2 0 1.7-.1v-.1c.4 1.4.5 2.7 0 4-1.3.8-1.8-.7-1.7-3.8z"/><path class="st0" d="M18.8 341.7v-4c.6.1 1.1.2 1.6.3v3.8c-.5-.1-1-.1-1.6-.1zM202.7 75.2c0-1.3.1-2.6.1-3.9h1.7c.1 3.1-.5 4.4-1.8 3.9zM25.7 342c-.2-3 .3-4.5 1.5-4.3v4.1c-.4 1.2-1 1.2-1.5.2zM226.6 75.2c-1.3.6-1.9-.7-1.8-3.9 1.4-.7 2 .7 1.8 3.9zM32.4 337.8h1.7v-.1c.4 1.4.5 2.7.1 4.2-.6 1.1-1.1 1.2-1.7.1 0-1.4 0-2.8-.1-4.2z"/><path class="st0" d="M34.1 342c0-1.4.1-2.9.1-4.3h1.6c0 1.4 0 2.7.1 4.1-.4 1.2-.9 1.3-1.4.9-.2-.3-.3-.5-.4-.7zm6.9-4.2h1.6l.2-.2c.4 1.4.4 2.9 0 4.3-.6 1.1-1.1 1.1-1.7.1-.1-1.4-.1-2.8-.1-4.2z"/><path class="st0" d="M42.7 341.9c0-1.4.1-2.8.1-4.2.5 0 1 0 1.5.1v4.1c-.4 1.2-.8 1.2-1.3.7-.2-.3-.3-.5-.3-.7zm52.8-4.1c.6 0 1.1-.1 1.7-.1.5 1.4.5 2.8.1 4.2l-.1-.1c-.5 0-1.1.1-1.6.1-.1-1.3-.1-2.7-.1-4.1z"/><path class="st0" d="M97.2 341.9c0-1.4 0-2.8-.1-4.2.6-1.1 1.1-1.2 1.7-.1.5 1.4.4 2.8 0 4.2-.5 0-1 .1-1.6.1z"/><path class="st0" d="M98.9 341.8v-4l.3-.6c.4-.4.8-.4 1.1 0l.3.6v4.2c-.6-.2-1.2-.2-1.7-.2zm160-266.6c-.5.1-1 .1-1.6.2-.3-3.5.2-4.8 1.7-4 .4 1.3.4 2.6-.1 3.8zM110.9 338c.1 3-.6 4.1-1.8 4.2-.1-.3-.2-.5-.3-.8-.2-1.4-.2-2.7.3-3.9.5-.9 1.1-.9 1.6.1l.2.4z"/><path class="st0" d="M258.9 75.2c0-1.3.1-2.6.1-3.8h1.7c.1 3.1-.6 4.2-1.8 3.8zm30.7 0c-1.3.7-1.9-.7-1.8-3.9 1.4-.6 2 .7 1.8 3.9zM141.4 338v3.7c-.5 0-1.1.1-1.6.1 0-1.3 0-2.7-.1-4 .6 0 1.2.1 1.7.2zM315.1 74.9c0-3 .7-4.1 1.9-3.6.4 1.4.4 2.7-.1 3.9v.1c-.4 1.1-.8 1.2-1.3.9-.3-.3-.4-.7-.5-1.3zM144.8 337.7h1.7c.2 3.2-.4 4.5-1.7 4.1v-4.1zm8.6.1h1.7v-.1c.4 1.4.5 2.7.1 4.2-.6 1.1-1.1 1.2-1.7.1-.1-1.4-.1-2.8-.1-4.2z"/><path class="st0" d="M155 342c0-1.4.1-2.9.1-4.3h1.6c0 1.4 0 2.7.1 4.1-.4 1.2-.9 1.3-1.4.9-.2-.3-.3-.5-.4-.7zm6.9-4.2h1.6l.2-.2c.4 1.5.4 2.9-.1 4.2-.6 0-1.1 0-1.7.1v-4.1z"/><path class="st0" d="M163.6 341.9c0-1.4.1-2.8.1-4.2.5 0 1 0 1.5.1v4.1c-.5-.1-1.1-.1-1.6 0zm54.4-4.2v4.1c-.5 1.2-1.1 1.1-1.6.1-.2-2.9.4-4.4 1.6-4.2zm5.2 4c-.6 0-1.2.1-1.8.1 0-1.4.1-2.8.1-4.2 1.3-.1 1.8 1.3 1.7 4.1zm93.6-266.5c0-1.3.1-2.6.1-3.9.6 0 1.1 0 1.7.1.1 3.1-.5 4.3-1.8 3.8zm-80 262.5v4.1h-1.6l-.3-.6c-.2-1.3-.2-2.5.2-3.5.6-1.1 1.1-1 1.7 0zm3.4.1h1.7v-.1c.4 1.4.5 2.7.1 4.2-.6 1.1-1.1 1.2-1.7.1 0-1.4 0-2.8-.1-4.2z"/><path class="st0" d="M241.9 342c0-1.4.1-2.9.1-4.3h1.6c0 1.4 0 2.7.1 4.1-.4 1.2-.9 1.3-1.4.9-.2-.3-.3-.5-.4-.7zM30.8 75.4c.2 3.2-.4 4.6-1.7 4.1-.2-3.2.3-4.6 1.7-4.1zM301.5 338c.6-.1 1.2-.1 1.8-.2.1 3.1-.4 4.6-1.7 3.9-.1-1.3-.1-2.5-.1-3.7zm8.6-.2h1.7v-.1c.4 1.4.5 2.7.1 4.2-.6 1.1-1.1 1.2-1.7.1-.1-1.4-.1-2.8-.1-4.2z"/><path class="st0" d="M311.7 342c0-1.4.1-2.9.1-4.3h1.6c0 1.4 0 2.7.1 4.1-.4 1.2-.9 1.3-1.4.9-.2-.3-.3-.5-.4-.7zm6.9-4.2h1.6l.2-.2c.4 1.5.4 2.9-.1 4.2-.6 0-1.1 0-1.7.1v-4.1z"/><path class="st0" d="M320.3 341.9c0-1.4.1-2.8.1-4.2.5 0 1 0 1.5.1v4.1c-.5-.1-1.1-.1-1.6 0zm-296.4 3.9c-.5.1-1.1.2-1.6.3 0-1.4-.1-2.8-.1-4.1h1.7l.1-.1c.4 1 .4 2.1.2 3.4-.1.1-.2.3-.3.5zm1.8-3.8c.5-.1 1.1-.2 1.6-.3.2 2.9-.2 4.5-1.5 4.2-.1-.2-.2-.4-.3-.5-.3-1.3-.2-2.5.2-3.6v.2zm6.8 0c.5 0 1 0 1.6.1l.1-.2c.4.9.5 2 .4 3.3-.1.6-.2 1-.4 1.4-.5.6-1 .6-1.4.1l-.3-.6c-.1-1.4 0-2.8 0-4.1z"/><path class="st0" d="M34.2 346v-4.2c.6 0 1.1-.1 1.7-.1v4.2c-.6 1.1-1.1 1.2-1.7.1zm6.8-4c.6 0 1.1-.1 1.7-.1v-.1c.4 1.3.5 2.7.1 4.2-.6 1.1-1.1 1.2-1.7.1-.1-1.4-.1-2.8-.1-4.1z"/><path class="st0" d="M42.6 346.1c0-1.4 0-2.8.1-4.3h1.6v4.1c-.4 1.1-.9 1.2-1.4.8l-.3-.6zM58 79.4c-1.3.5-1.9-.9-1.7-4.1 1.3-.5 1.9.9 1.7 4.1zm56.2.1c-1.3.4-1.9-.9-1.7-4.1 1.3-.6 1.9.8 1.7 4.1zm-8.5 266.3V342c.1-.2.2-.5.3-.7.4-.5.8-.5 1.2-.2.2.3.4.7.6 1.3.2 1.3.1 2.6-.4 3.5-.6-.1-1.2-.1-1.7-.1z"/><path class="st0" d="M107.3 345.9c0-1.4 0-2.7.1-4.1.5-1.1 1.1-1.1 1.7-.2v.5c.1 3.2-.6 4.2-1.8 3.8zm46.1-3.9c.5 0 1 0 1.6.1l.1-.2c.4.9.5 2 .4 3.3-.1.6-.2 1-.4 1.4-.5.6-1 .6-1.4.1l-.3-.6c-.1-1.4 0-2.8 0-4.1z"/><path class="st0" d="M155.1 346v-4.2c.6 0 1.1-.1 1.7-.1v4.2c-.6 1.1-1.1 1.2-1.7.1zm-8.6-266.9v-3.8c.6 0 1.2.1 1.8.1.4 1.4.4 2.7-.1 4-.3 1.1-.7 1.2-1.2 1-.2-.4-.4-.8-.5-1.3zm69.9 262.8c.5 0 1.1-.1 1.6-.1v4.1c-.5 1.2-1 1.2-1.6.2v-4.2zm5.1-.1v4.1c-.6.1-1.1.2-1.7.3-.2-3.4.4-4.6 1.7-4.4z"/><path class="st0" d="M148.2 79.3c0-1.3.1-2.6.1-4 .5 0 1.1-.1 1.6-.1.2 3.2-.4 4.5-1.7 4.1zm76.7 266.5V342c.6 0 1.2-.1 1.7-.1v-.1c.5 1.4.5 2.8 0 4.1-.6 0-1.2-.1-1.7-.1z"/><path class="st0" d="M226.5 345.9v-4.1c.6.1 1.2.1 1.7.2.2 3.1-.4 4.3-1.7 3.9zm5.2-.1c-1.3.7-1.8-.7-1.8-3.7l.1-.5c.6-1 1.1-.8 1.7.2.5 1.3.5 2.7 0 4z"/><path class="st0" d="M231.7 345.8c0-1.4 0-2.7-.1-4.1.1-.2.2-.4.4-.6.6-.4 1.1-.2 1.6 1 .3 1.4.3 2.6-.2 3.7h-1.7z"/><path class="st0" d="M233.4 345.8v-4l.3-.6c.5-.5 1-.4 1.4.7h.1c0 2.9-.5 4.5-1.8 3.9zm6.9-3.8c.5 0 1 0 1.6.1l.1-.2c.4.9.5 2 .4 3.3-.1.6-.2 1-.4 1.4-.5.6-1 .6-1.4.1l-.3-.6c-.1-1.4 0-2.8 0-4.1z"/><path class="st0" d="M242 346v-4.2c.6 0 1.1-.1 1.7-.1v4.2c-.6 1.1-1.2 1.2-1.7.1zm68.1-4c.5 0 1 0 1.6.1l.1-.2c.4.9.5 2 .4 3.3-.1.6-.2 1-.4 1.4-.5.6-1 .6-1.4.1l-.3-.6c-.1-1.4 0-2.8 0-4.1z"/><path class="st0" d="M311.8 346v-4.2c.6 0 1.1-.1 1.7-.1v4.2c-.6 1.1-1.1 1.2-1.7.1zM175.5 79.5c-1.3.3-1.8-1.1-1.7-4.2 1.4-.5 1.9.8 1.7 4.2zM13.8 350.1c-.3-3.3.3-4.6 1.6-4 .4 1.3.4 2.7 0 4-.5 1.1-1.1 1.1-1.6 0z"/><path class="st0" d="M15.4 350.1v-3.9c1.4-.7 1.9.5 1.6 3.8-.4 1.1-.8 1.2-1.3.7l-.3-.6zM199.2 79.2c.1-2.7.7-4.2 1.8-4.4l.1.6c.4 1.4.4 2.7-.1 3.9-.5 1.2-1 1.2-1.6.2l-.2-.3zm-175.3 271c0-1.5 0-2.9-.1-4.4v.1c.5-1.1 1.1-1.2 1.6 0h.2c.1 2.9-.4 4.6-1.7 4.3zm6.9 0c-.2-3 .2-4.6 1.6-4.2l.2-.2c.4 1.4.4 2.8 0 4.2-.7 1.2-1.2 1.2-1.8.2zm10.2-4.1h1.6l.1-.1c.5 1.3.5 2.8.1 4.2l-.2-.1c-.5 1.2-1 1.1-1.5.1-.1-1.4-.1-2.8-.1-4.1z"/><path class="st0" d="M42.7 350.2c0-1.4-.1-2.8-.1-4.2.6 0 1.1 0 1.7-.1v4.2c-.5 0-1 0-1.6.1zm3.3-.1c.1-1.6-.1-4.1 1-3.7.9.3.6 2.3.7 3.8-.5 1-1.1 1-1.7-.1zm105.7.1c-.2-3 .2-4.6 1.6-4.2l.2-.2c.4 1.4.4 2.8 0 4.2-.6 1.2-1.2 1.2-1.8.2zm76.6-270.8c-1.3.4-1.9-1-1.7-4.1 1.4-.6 1.9.8 1.7 4.1zm-66.4 266.7c.5 0 1.1-.1 1.6-.1.5 1.3.5 2.7.1 4.2l-.2-.1c-.5 1.1-1 1.1-1.5.1.1-1.4 0-2.8 0-4.1z"/><path class="st0" d="M163.7 350.2c0-1.4-.1-2.8-.1-4.2.6 0 1.1-.1 1.7-.1v4.2c-.6 0-1.1 0-1.6.1zm3.2-.1c.1-1.6-.1-4.1 1-3.7.9.3.6 2.3.7 3.8-.5 1-1 1-1.7-.1zm25.7-4.2h1.5v4.1c-1.3.4-1.7-1-1.5-4.1zm23.8.2c.5-.1 1.1-.1 1.6-.2 0 1.4.1 2.8.1 4.2-.5 1.2-1.1 1.1-1.6.1 0-1.4-.1-2.8-.1-4.1zm22.2 4.1c-.2-3 .2-4.6 1.6-4.2l.2-.2c.4 1.4.4 2.8 0 4.2-.7 1.2-1.2 1.2-1.8.2zm52.7-270.8c-1.3.4-1.9-.9-1.7-4 1.4-.7 1.9.7 1.7 4zm-22 266.5h1.5v4.1c-1.3.4-1.8-1-1.5-4.1zm39.1 4.3c-.2-3 .2-4.6 1.6-4.2l.2-.2c.4 1.4.4 2.8 0 4.2-.6 1.2-1.2 1.2-1.8.2zm6.7-270.9c-.5.1-1.1.2-1.6.3-.2-3.1.4-4.3 1.6-4.7l.1.5c.4 1.4.4 2.7-.1 3.9zm3.5 266.8c.5 0 1.1-.1 1.6-.1.5 1.3.5 2.7.1 4.2l-.2-.1c-.5 1.1-1 1.1-1.5.1.1-1.4 0-2.8 0-4.1z"/><path class="st0" d="M320.4 350.2c0-1.4-.1-2.8-.1-4.2.6 0 1.1-.1 1.7-.1v4.2c-.6 0-1.1 0-1.6.1zm3.2-.1c.1-1.6-.1-4.1 1-3.7.9.3.6 2.3.7 3.8-.5 1-1 1-1.7-.1zm-309.8 0c.5 0 1.1 0 1.6-.1.4 1.3.5 2.7 0 4v.2c-.6 1-1.1 1.1-1.7-.3 0-1.2.1-2.5.1-3.8z"/><path class="st0" d="M15.4 354v-4c.5 0 1.1 0 1.6-.1 0 1.4.1 2.8.1 4.2-.6 0-1.2 0-1.7-.1zm6.8-4.1v4.2l.1.1c-.5.8-.9 1.1-1.5.5-.1-.2-.2-.4-.3-.7-.2-2.9.4-4.2 1.7-4.1zm8.6.3c.6 0 1.1-.1 1.7-.1.1.2.2.5.3.7.2.9.2 1.9.1 2.8-.1.6-.3 1-.5 1.3-.5.4-1 .3-1.4-.9-.2-1.2-.2-2.5-.2-3.8zm10.2-.1c.5 0 1-.1 1.5-.1 0 1.4.1 2.8.1 4.2l-.1-.2c-.5 1.3-1 1.3-1.6 0 .1-1.3.1-2.6.1-3.9zm5.1 0h1.6c.2 3.2-.5 4.3-1.7 4.1.1-1.4.1-2.8.1-4.1zm49.3 4.1h-1.7c-.1-2.9.3-4.5 1.6-4.1l.1-.1c.5 1.4.5 2.8 0 4.2z"/><path class="st0" d="M95.4 354.2c0-1.4 0-2.8.1-4.2h1.6v4.1c-.5 0-1.1 0-1.7.1zm56.3-4c.6 0 1.1-.1 1.7-.1.1.2.2.5.3.7.2.9.2 1.9.1 2.8-.1.6-.3 1-.5 1.3-.5.4-1 .3-1.4-.9-.2-1.2-.2-2.5-.2-3.8zm10.3-.1c.5 0 1-.1 1.5-.1 0 1.4.1 2.8.1 4.2l-.1-.2c-.5 1.3-1 1.3-1.6 0 .1-1.3.1-2.6.1-3.9zM29 79.4c0 1.3 0 2.6-.1 3.9-.5 1.3-1.1 1.3-1.6 0 0-1.3 0-2.6.1-4 .6.1 1.1.1 1.6.1zm138 270.7h1.6c.2 3.2-.5 4.3-1.7 4.1.1-1.4.1-2.8.1-4.1zm49.5.1c.5 0 1.1-.1 1.6-.1.4.9.5 2.1.4 3.3-.1.6-.2 1.1-.4 1.4-.4.4-.7.5-1.1.4-.2-.2-.5-.5-.6-.9-.1-1.4 0-2.8.1-4.1z"/><path class="st0" d="M218.1 354.3V350h1.6v4.1c-.5 1.2-1 1.2-1.6.2zm20.5-4.1c.6 0 1.1-.1 1.7-.1.1.2.2.5.3.7.2.9.2 1.9.1 2.8-.1.6-.3 1-.5 1.3-.5.4-1 .3-1.4-.9-.2-1.2-.2-2.5-.2-3.8zm69.8 0c.6 0 1.1-.1 1.7-.1.1.2.2.5.3.7.2.9.2 1.9.1 2.8-.1.6-.3 1-.5 1.3-.5.4-1 .3-1.4-.9-.2-1.2-.2-2.5-.2-3.8zm10.3-.1c.5 0 1-.1 1.5-.1 0 1.4.1 2.8.1 4.2l-.1-.2c-.5 1.3-1 1.3-1.6 0 .1-1.3.1-2.6.1-3.9zm5 0h1.6c.2 3.2-.5 4.3-1.7 4.1.1-1.4.1-2.8.1-4.1zm-310 3.9c.6.1 1.1.2 1.7.3v3.9c-1.3.4-1.9-1-1.7-4.2zm5.1 4.1v-3.8c.6-.1 1.1-.1 1.7-.2v.1c.5 1.3.5 2.6 0 3.9h-1.7z"/><path class="st0" d="M20.5 358.1v-3.9c.6 0 1.2.1 1.8.1 0 3-.5 4.5-1.8 3.8zm10.3-4c.5 0 1.1 0 1.6.1.5 1.3.5 2.7 0 4-1.3.4-1.8-.9-1.6-4.1z"/><path class="st0" d="M32.5 358.1v-4c.4-1 .9-1.2 1.5-.8.2.3.4.7.6 1.3.2 1.3.1 2.5-.3 3.5h-1.8z"/><path class="st0" d="M34.1 358.1v-4c.6-1.2 1.1-1.1 1.7 0 .2 3.2-.4 4.6-1.7 4zM41 354h1.6c0 1.4 0 2.7.1 4.1-1.5.6-1.9-.9-1.7-4.1zM59.6 83.6c-1.3.4-1.9-1-1.7-4.2 1.4-.4 2 1 1.7 4.2zm92.1 270.5c.5 0 1.1 0 1.6.1.5 1.3.5 2.7 0 4-1.3.4-1.8-.9-1.6-4.1z"/><path class="st0" d="M153.4 358.1v-4c.4-1 .9-1.2 1.5-.8.2.3.4.7.6 1.3.2 1.3.1 2.5-.3 3.5h-1.8z"/><path class="st0" d="M155 358.1v-4c.6-1.2 1.1-1.1 1.7 0 .2 3.2-.3 4.6-1.7 4zm6.9-4.1h1.6c0 1.4 0 2.7.1 4.1-1.4.6-1.9-.9-1.7-4.1zM92 83.3c-.1-3.1.5-4.2 1.7-3.9.4 1.3.5 2.6 0 3.9H92zm122.7 275c-.1-2.8.3-4.4 1.6-4.1l.2-.1c.3 1.1.4 2.3.2 3.6-.1.6-.3 1-.6 1.3-.5.5-1 .3-1.4-.7zm3.4-4c.5-.1 1.1-.1 1.6-.2v4.1c-.4 1.2-.9 1.3-1.4.9-.2-.3-.4-.7-.6-1.3-.2-1.3-.1-2.6.3-3.6l.1.1zm20.5-.2c.5 0 1.1 0 1.6.1.5 1.3.5 2.7 0 4-1.3.4-1.8-.9-1.6-4.1z"/><path class="st0" d="M240.3 358.1v-4c.4-1 .9-1.2 1.5-.8.2.3.4.7.6 1.3.2 1.3.1 2.5-.3 3.5h-1.8z"/><path class="st0" d="M241.9 358.1v-4c.6-1.2 1.1-1.1 1.7 0 .2 3.2-.4 4.6-1.7 4zm66.5-4c.5 0 1.1 0 1.6.1.5 1.3.5 2.7 0 4-1.3.4-1.8-.9-1.6-4.1z"/><path class="st0" d="M310.1 358.1v-4c.4-1 .9-1.2 1.5-.8.2.3.4.7.6 1.3.2 1.3.1 2.5-.3 3.5h-1.8z"/><path class="st0" d="M311.7 358.1v-4c.6-1.2 1.1-1.1 1.7 0 .2 3.2-.3 4.6-1.7 4zm6.9-4.1h1.6c0 1.4 0 2.7.1 4.1-1.4.6-1.9-.9-1.7-4.1zM93.7 83.3v-3.9h1.7v3.8c-.5.1-1.1.1-1.7.1zm.1 275h1.7c-.1 1.6.2 4.1-1 3.8-1-.3-.7-2.3-.7-3.8zm120.9 0c.5 0 1.1-.1 1.6-.1.6 1.2.6 2.6.2 4.1-1.3.4-2-.8-1.8-4z"/><path class="st0" d="M216.4 362.3c-.1-1.4-.1-2.7-.2-4.1l.2.1c.5-1.1 1-1.2 1.5 0h.2c.4 1.5.4 2.8-.2 4h-1.5z"/><path class="st0" d="M218 362.3c.1-1.3.1-2.7.2-4 .5 0 1.1-.1 1.6-.1.1 3.2-.5 4.5-1.8 4.1zM42.6 177.6h-1.7c-.5-1.4-1.2-2.2-2-2.2-.5 0-1.1 0-1.6-.1-.6-.1-1.1-.7-1.6-1.5l.1-.3c-.6-1.5-1.2-2.4-2.1-2.5-.5-.2-1-.6-1.3-1.6-.4-.8-.6-1.9-.7-3.2 0-2-.4-3.7-1.1-5l-.1.1c-.3-1-.5-2-.6-3.3 0-2-.4-3.7-1-5.1l-.1.2c-.4-1.2-.6-2.5-.6-3.9v-12c0-1.9-.3-3.5-.9-4.8v-8.2c.6-1.3.9-2.8.9-4.7v-12c0-1.5.3-2.8.6-3.9l.1.2c.6-1.4 1-3 1-5.1.1-1.2.3-2.3.6-3.2l.1.1c.5-1.5 1.1-2.8 1.6-4.2.6-1.4 1.1-2.8 1.7-4l-.1-.2c.4-.9.9-1.4 1.4-1.5.8-.1 1.5-.9 2.1-2.3.6-.1 1.1-.3 1.7-.4.5-.9 1-1.4 1.7-1.5.6-.1 1.2-.1 1.8 0 .6.1 1.2.6 1.7 1.5.6.1 1.1.3 1.7.4.6 1.4 1.3 2.3 2.1 2.4.5.1 1 .6 1.3 1.5l-.1.2c.6 1.2 1.2 2.6 1.7 4s1.2 2.7 1.7 4.2l.1-.1c.4.9.6 2 .6 3.2 0 2 .4 3.7 1 5.1l.1-.2c.4 1.2.6 2.4.6 3.9v12c0 1.9.3 3.5.9 4.8v8.2c-.6 1.2-.9 2.7-.9 4.7v12c0 1.5-.3 2.8-.6 4l-.1-.2c-.6 1.4-1 3-1 5.1 0 1.3-.3 2.3-.6 3.3l-.1-.1c-.7 1.3-1 2.9-1 5-.1 1.2-.3 2.3-.7 3.2-.3 1-.8 1.4-1.3 1.6-.8.1-1.5.9-2.1 2.5l.1.3c-.5.8-1 1.4-1.6 1.5-.5.1-1.1.1-1.6.1-.6-.2-1.2.5-1.8 2zM27.4 83.3H29c0 1.6.2 4-.8 4-1.1 0-.8-2.3-.8-4z"/><path class="st0" d="M35.8 87.5c-.5 0-1.1.1-1.6.1-.1-3.2.5-4.4 1.8-4 .3 1.4.3 2.7-.2 3.9z"/><path class="st0" d="M35.8 87.5c0-1.3.1-2.6.1-3.9.6 0 1.1.1 1.7.1.1 3.2-.6 4.3-1.8 3.8zm12 0c-1.3.6-1.9-.6-1.8-3.8.6 0 1.1-.1 1.7-.1.5 1.2.5 2.5.1 3.9z"/><path class="st0" d="M47.8 87.5c0-1.3-.1-2.6-.1-3.9 1.3-.5 1.9.8 1.8 4-.6-.1-1.1-.1-1.7-.1zm-13.6.2c.1 3.1-.4 4.5-1.7 4-.3-3.3.3-4.6 1.7-4zm17 4c-1.3.5-1.9-.9-1.7-4 1.3-.6 1.9.7 1.7 4zm-18.8 0c.2 3.2-.3 4.6-1.6 4.2-.3-3.2.3-4.6 1.6-4.2z"/><path class="st0" d="M52.8 95.9c-1.3.3-1.9-1.1-1.7-4.2 1.4-.4 2 1 1.7 4.2zm-22.1-.1v3.9c-.5 1.3-1 1.3-1.6.3-.2-3 .3-4.5 1.6-4.2zm22.2 3.9v-3.9c1.3-.3 1.8 1.2 1.7 4.3-.6.9-1.2.9-1.7-.4z"/><path class="st0" d="M29.1 100.1c.5-.1 1.1-.2 1.6-.3.2 3-.3 4.6-1.6 4.4v-4.1zm23.8-.4c.5.1 1.1.2 1.6.3 0 1.3 0 2.7-.1 4-1.2.3-1.7-1.2-1.5-4.3zM29 103.9v4.1c-.5 1.2-1 1.2-1.6.2-.2-2.9.3-4.5 1.6-4.3zm25.7 4.1v-4.1c1.3-.2 1.8 1.3 1.6 4.3-.6 1-1.1 1.1-1.6-.2z"/><path class="st0" d="M27.3 108.2c.5-.1 1.1-.2 1.6-.2v4.1c-.5 1.2-1 1.2-1.5.2 0-1.3 0-2.7-.1-4.1zm27.4-.2c.5.1 1.1.2 1.6.2 0 1.4 0 2.7-.1 4.1-.5.9-1.1 1-1.5-.2V108z"/><path class="st0" d="M27.4 112.3c.5-.1 1-.2 1.5-.2v4.1c-.5 1.2-1 1.2-1.6.2.1-1.4.1-2.7.1-4.1zm27.2-.2c.5.1 1 .2 1.5.2v4.1c-.5 1-1.1 1-1.6-.2.1-1.4.1-2.8.1-4.1z"/><path class="st0" d="M27.4 116.4c.5-.1 1-.1 1.6-.2v4.2c-.5 1.1-1 1.2-1.6.1v-4.1zm27.2-.2c.5.1 1 .1 1.6.2v4.1c-.5 1.1-1.1 1.1-1.6-.1v-4.2z"/><path class="st0" d="M27.4 120.4c.5 0 1.1-.1 1.6-.1.2 2.9-.3 4.4-1.6 4.2v-4.1zm27.2-.1c.5 0 1.1.1 1.6.1v4.1c-1.3.3-1.8-1.3-1.6-4.2zm-27.2 12.4c1.3-.3 1.7 1.3 1.6 4.1-.5 1.1-1.1 1.1-1.6 0v-4.1zm27.2 4.1c-.1-2.9.3-4.4 1.6-4.1v4.1c-.6 1.2-1.1 1.1-1.6 0z"/><path class="st0" d="M27.4 136.8H29v4.2c-.5 1-1.1 1-1.6-.1v-4.1zm27.2 0h1.6v4.1c-.5 1.2-1 1.1-1.6.1v-4.2z"/><path class="st0" d="M27.4 140.9c.5 0 1.1.1 1.6.1v4.2c-.5.9-1.1 1-1.5-.2-.1-1.4-.1-2.8-.1-4.1zm27.2.1c.5 0 1.1-.1 1.6-.1v4.1c-.5 1.2-1 1.1-1.5.2-.1-1.4-.1-2.8-.1-4.2z"/><path class="st0" d="M27.4 144.9c.5.1 1 .1 1.5.2v4.1c-.5.9-1.1 1-1.6-.3.1-1.3.1-2.6.1-4zm27.2.2c.5-.1 1-.1 1.5-.2v4c-.5 1.3-1 1.2-1.6.3.1-1.3.1-2.7.1-4.1z"/><path class="st0" d="M27.4 149c.5.1 1 .2 1.6.3v4.1c-1.4.1-1.9-1.4-1.6-4.4zm27.2.2c.5-.1 1-.2 1.6-.3.3 3-.3 4.5-1.6 4.4.1-1.3.1-2.7 0-4.1zm-25.5 4c1.3-.2 1.8 1.4 1.6 4.3-.6.9-1.1 1-1.6-.3v-4zm23.8 4.3c-.2-3 .3-4.5 1.6-4.3v4c-.5 1.3-1 1.2-1.6.3z"/><path class="st0" d="M29.1 157.2c.5.1 1.1.2 1.6.3v4.1c-1.4.2-2-1.1-1.6-4.4zm23.8.3c.5-.1 1.1-.2 1.6-.3.3 3.3-.2 4.6-1.6 4.4v-4.1z"/><path class="st0" d="M30.7 161.4c1.3-.3 1.8 1.2 1.7 4.3-.6.9-1.1 1-1.6-.3 0-1.4-.1-2.7-.1-4zm20.5 4.3c-.2-3 .4-4.5 1.7-4.3v4c-.6 1.3-1.1 1.2-1.7.3z"/><path class="st0" d="M30.8 165.4c.5.1 1.1.2 1.6.3 0 1.3 0 2.6.1 3.9-1.4.4-1.9-1.1-1.7-4.2zm20.4.3c.5-.1 1.1-.2 1.6-.3.2 3.2-.4 4.6-1.7 4.2 0-1.3.1-2.6.1-3.9z"/><path class="st0" d="M32.5 169.5c.5.1 1.1.1 1.6.2.5 1.2.5 2.5.1 3.9-1.3.5-1.9-.8-1.7-4.1z"/><path class="st0" d="M34.2 173.6c0-1.3-.1-2.6-.1-3.9 1.3-.4 1.9.8 1.8 3.9h-1.7zm13.5 0c-.1-3.1.5-4.3 1.8-3.9.4 1.4.4 2.7-.1 3.9h-1.7z"/><path class="st0" d="M49.4 173.6c0-1.3.1-2.6.1-3.9.5-.1 1.1-.1 1.6-.2.2 3.3-.4 4.6-1.7 4.1zm-13.6.3h1.7c.5 1.2.5 2.4.1 3.8-1.3.6-1.9-.6-1.8-3.8z"/><path class="st0" d="M37.6 177.7c0-1.3-.1-2.5-.1-3.8.6 0 1.2 0 1.7-.1.5 1.2.5 2.5.1 3.8-.6 0-1.1 0-1.7.1z"/><path class="st0" d="M39.3 177.6c0-1.3 0-2.5-.1-3.8 1.2-.4 1.9.7 1.8 3.8h-1.7zm3.3 0c-.1-3.1.5-4.2 1.7-3.8.4 1.3.4 2.6-.1 3.8h-1.6z"/><path class="st0" d="M44.3 177.6c0-1.3 0-2.5.1-3.8.6 0 1.2 0 1.7.1.4 1.3.4 2.6-.1 3.8-.6-.1-1.1-.1-1.7-.1z"/><path class="st0" d="M46 177.7c0-1.3.1-2.5.1-3.8h1.7c.1 3.2-.5 4.4-1.8 3.8zM32.4 186c-.6 0-1.1-.1-1.7-.1 0-1.3-.1-2.6-.1-3.9 1.4-.4 2 .9 1.8 4zm23.8-.1c-.6.1-1.1.1-1.7.2-.1-3.2.5-4.5 1.8-4.1 0 1.3 0 2.6-.1 3.9zM40.9 83.3h-1.7c-.1-3.1.5-4.2 1.7-3.8.5 1.2.5 2.5 0 3.8z"/><path class="st0" d="M40.9 83.3v-3.8h1.7c.5 1.2.5 2.5 0 3.8h-1.7z"/><path class="st0" d="M42.7 83.3v-3.8c1.2-.4 1.8.7 1.7 3.8h-1.7zm160 28.8c.1-1.3.1-2.7.2-4 .6-1.4 1-3 1-5.1 0-1.3.3-2.3.6-3.3l.1.2c.5-1.2.9-2.4 1.3-3.8.1-.5.3-.8.5-1.2.5-.7.9-1.7 1.2-2.9.1-.5.3-.9.5-1.2.6-.9 1.1-1.9 1.6-3.2l-.1-.2c.4-.7.8-1.3 1.4-1.4.8-.1 1.5-.9 2.1-2.3l-.1-.4c.5-.9 1-1.4 1.7-1.5.6-.1 1.2-.1 1.8-.1.6 0 1.2 0 1.8.1.6.1 1.2.6 1.7 1.5l-.1.4c.6 1.4 1.3 2.3 2.1 2.3.5.1 1 .7 1.4 1.4l-.1.2c.6 1.3 1.1 2.7 1.8 4 .5 1.5 1.1 2.8 1.7 4.2l.1-.1c.5 1.6 1.1 2.8 1.6 4.3l.1-.2c.4 1.1.6 2.3.6 3.7.1 1.3 0 2.6 0 3.9 0 2 .3 3.5.9 4.8.1 1.3.1 2.7.2 4 .4 1.2.6 2.5.6 3.9v20.8c0 1.5-.3 2.8-.6 4l-.2-.2c-.6 1.3-.9 2.9-.9 4.8v3.9c0 1.4-.3 2.6-.6 3.7l-.1-.2c-.6 1.4-1 3-1 5.1-.1 1.2-.3 2.3-.6 3.2v-.1c-.5 1.5-1.1 2.8-1.7 4.1-.4 1-.8 1.4-1.3 1.6-.8.1-1.5.9-2.1 2.4l.1.3c-.5.9-1.1 1.4-1.7 1.5-.6.1-1.2.1-1.8.1h-5c-.6 0-1.2 0-1.8-.1-.6-.1-1.2-.7-1.7-1.7l.1-.2c-.6-1.1-1.2-2.7-1.8-3.9v-.1c-.6-1.3-1.1-2.7-1.7-4.1v.1c-.5-1.5-1.1-2.7-1.6-4.3l-.1.1c-.4-1.1-.6-2.3-.7-3.7-.1-1.3 0-2.6-.1-3.9 0-2-.3-3.5-.9-4.9l-.2.2c-.4-1.2-.6-2.5-.6-4v-28.9c-.2-1 0-2.3.4-3.6z"/><path class="st0" d="M214.6 173.9h3.5c.4 1.3.4 2.5-.1 3.7h-3.4c-.4-1.2-.4-2.5 0-3.7zm-11.9-49.4v8.3c-.5 1.1-1 1.1-1.5 0v-8.1c.4-1.3 1-1.3 1.5-.2zm-3.3-45c.5-.1 1.1-.2 1.6-.2.2 3.1-.4 4.5-1.7 4.2.1-1.4.1-2.7.1-4zm15.3 3.8H213c-.1-3 .5-4.2 1.8-3.9.3 1.3.4 2.6-.1 3.9z"/><path class="st0" d="M214.7 83.3v-3.8h1.7c.5 1.3.5 2.5 0 3.8h-1.7z"/><path class="st0" d="M216.4 83.3v-3.8h1.7c.5 1.3.5 2.5 0 3.9-.6-.1-1.1-.1-1.7-.1z"/><path class="st0" d="M218.1 83.3v-3.9c1.2-.3 1.8.9 1.7 3.9h-1.7zm-6.9 4.2c-.6 0-1.1 0-1.7-.1-.1-3.2.4-4.6 1.8-3.8.4 1.4.4 2.7-.1 3.9z"/><path class="st0" d="M211.2 87.5c0-1.3.1-2.6.1-3.8h1.7c.1 3.1-.6 4.2-1.8 3.8zm10.4 0c-1.2.5-1.9-.7-1.8-3.8.6 0 1.1 0 1.7-.1.5 1.2.4 2.5.1 3.9z"/><path class="st0" d="M221.6 87.5c0-1.3-.1-2.6-.1-3.8 1.3-.7 1.9.6 1.8 3.8h-1.7zm8.3-3.7c.6-.2 1.1-.3 1.7-.5 0 1.6.3 3.9-.9 3.9-.8.1-.6-2-.8-3.4zM206 91.5c.1-2.8.7-4.4 1.9-3.8.4 1.4.4 2.7-.1 3.9-.3 1.1-.8 1.3-1.3 1-.2-.2-.4-.6-.5-1.1z"/><path class="st0" d="M207.8 91.6c0-1.3.1-2.6.1-3.9h1.6c.2 3-.4 4.3-1.7 3.9zm17.1 0c-1.3.4-1.9-.8-1.8-4 1.4-.6 2 .7 1.8 4zM204.5 96c-.2-2.8.3-4.4 1.5-4.5l.2.3c.4 1.4.4 2.7-.1 4v-.1c-.5 1.2-1 1.2-1.6.3zm22.1-.2c-1.3.3-1.8-1.1-1.7-4.2 1.4-.4 1.9 1 1.7 4.2z"/><path class="st0" d="M204.5 96c.5-.1 1.1-.2 1.6-.3.2 3.1-.3 4.5-1.6 4.3v-4zm23.7 4c-1.3.3-1.9-1.2-1.6-4.3 1.4-.3 2 1.1 1.6 4.3zm-23.8-.2v4c-.5 1.3-1 1.3-1.6.3-.2-3 .3-4.5 1.6-4.3zm24 4.1c0-1.3 0-2.7-.1-4 1.3-.3 1.8 1.2 1.7 4.3-.6.9-1.1.9-1.6-.3z"/><path class="st0" d="M202.8 104.2c.5-.1 1.1-.2 1.6-.3.2 3-.2 4.6-1.6 4.3v-4zm25.6-.3c.5.1 1.1.2 1.6.3v4.1c-.6.9-1.1 1-1.6-.3v-4.1z"/><path class="st0" d="M228.4 107.9c.5.1 1.1.2 1.6.3v4c-1.4.3-1.9-1.3-1.6-4.3zm-25.7 4.2v4.1c-.5 1.2-1 1.2-1.6.2-.2-2.9.2-4.5 1.6-4.3z"/><path class="st0" d="M201.1 116.4c.5-.1 1-.1 1.6-.2v4.1c-.5 1.2-1 1.1-1.5.1-.1-1.3-.1-2.6-.1-4zm29 4v-4.1c1.3-.2 1.7 1.3 1.6 4.2-.6 1-1.1 1-1.6-.1z"/><path class="st0" d="M201.1 120.5c.5 0 1-.1 1.5-.1v4.1c-.5 0-1 .1-1.5.1v-4.1zm29-.1c.5 0 1.1.1 1.6.1v4.1c-.5 1-1 1.1-1.6-.1v-4.1z"/><path class="st0" d="M230.1 124.5c.5 0 1 0 1.6.1v4.1c-.5 1.1-1 1.1-1.5 0-.1-1.5-.1-2.8-.1-4.2z"/><path class="st0" d="M230.1 128.6h1.5v4c-.5 1.1-1 1.1-1.5.1v-4.1zm-29 4.1h1.5v4.1c-.5 1-1 1.1-1.5-.1v-4z"/><path class="st0" d="M230.1 132.7c.5 0 1 0 1.5-.1v4.1c-.5 1.1-1 1.2-1.6.1.1-1.3.1-2.7.1-4.1zm-29 4.1c.5 0 1 .1 1.5.1v4.1c-.5 1-1.1 1-1.5-.2v-4z"/><path class="st0" d="M230.1 136.8c.5 0 1 0 1.6-.1v4.1c-.5 1.1-1.1 1.2-1.6.1v-4.1zm-29 4c.5.1 1 .1 1.5.2v4.1c-.5 1-1.1 1-1.6-.2.1-1.4.1-2.7.1-4.1z"/><path class="st0" d="M230.1 140.9c.5 0 1.1-.1 1.6-.1.1 2.9-.3 4.4-1.6 4.2v-4.1zm-29 4c.5.1 1.1.1 1.6.2v4.1c-1.3.2-1.8-1.4-1.6-4.3zm27.2 4.4c-.2-2.9.3-4.5 1.6-4.3v4.1c-.5 1.2-1 1.1-1.6.2zm-25.5-.3c1.3-.2 1.8 1.4 1.6 4.3-.6.9-1.1 1-1.6-.3v-4z"/><path class="st0" d="M228.3 149.3c.5-.1 1.1-.2 1.6-.2v4c-.5 1.3-1 1.2-1.6.3.1-1.4 0-2.8 0-4.1zm-25.5 3.8c.5.1 1.1.2 1.6.3v4.1c-.6.9-1.1 1-1.6-.3v-4.1z"/><path class="st0" d="M228.4 153.4c.5-.1 1.1-.2 1.6-.3.2 3-.3 4.5-1.6 4.4v-4.1zm-25.6 3.7c.5.1 1.1.2 1.6.3 0 1.3 0 2.7.1 4-1.4.3-1.9-1.2-1.7-4.3zm23.8 4.5c-.2-3 .3-4.5 1.6-4.3v4c-.4 1.2-1 1.2-1.6.3z"/><path class="st0" d="M204.5 161.3c1.3-.3 1.9 1.1 1.6 4.3-1.3.3-1.9-1-1.6-4.3zm22.1.3c.5-.1 1.1-.2 1.6-.3.2 3.1-.3 4.6-1.7 4.3.1-1.4.1-2.7.1-4zm-20.4 3.9c1.3-.4 1.9 1 1.7 4.1-1.4.6-2-.8-1.7-4.1z"/><path class="st0" d="M224.9 169.5c-.2-3.2.4-4.6 1.7-4.1.2 3.3-.4 4.6-1.7 4.1zm-17.1.2c1.3-.6 1.9.7 1.8 3.9-1.3.7-1.9-.7-1.8-3.9zm13.7 3.9c-.1-3.1.6-4.3 1.8-3.9.4 1.4.4 2.7-.1 3.9h-1.7z"/><path class="st0" d="M223.1 173.6c0-1.3.1-2.6.1-3.9.5 0 1.1-.1 1.6-.1.2 3.2-.4 4.5-1.7 4zm-13.5.2c.6.1 1.1.1 1.7.2.5 1.2.5 2.5.1 3.8-1.3.4-2-.9-1.8-4z"/><path class="st0" d="M211.3 177.8c0-1.3-.1-2.6-.1-3.8h1.7c.5 1.2.5 2.4.1 3.7-.5 0-1.1 0-1.7.1z"/><path class="st0" d="M213 177.6c0-1.2-.1-2.5-.1-3.7h1.7v3.7H213zm5.1 0c0-1.2 0-2.5.1-3.7h1.7c.4 1.3.4 2.6-.1 3.8-.6-.1-1.2-.1-1.7-.1z"/><path class="st0" d="M219.7 177.7c0-1.3.1-2.5.1-3.8h1.7c.1 3.2-.5 4.4-1.8 3.8zm10.3.2h-1.7c-.2-3.2.4-4.6 1.7-4.1v4.1z"/><path class="st0" d="M228.2 181.8c-.5.1-1.1.2-1.6.2-.2-3.1.4-4.5 1.7-4.2 0 1.4 0 2.7-.1 4z"/><path class="st0" d="M226.6 185.9c-.6 0-1.1.1-1.7.1-.1-3.1.5-4.4 1.8-4-.1 1.3-.1 2.6-.1 3.9zM201 79.3c0-1.3.1-2.6.1-3.9.5-.1 1.1-.1 1.6-.2.2 3.2-.4 4.5-1.7 4.1zm87 65.7c-.1 1.3-.1 2.7-.2 4-.6 1.4-1 3-1 5.1 0 1.3-.3 2.3-.6 3.3l-.1-.2c-.6 1.3-1 3-1 5.1-.1 1.2-.3 2.3-.6 3.2v-.1c-.5 1.5-1.1 2.8-1.7 4.1v.1c-.4.9-.8 1.4-1.3 1.6-.8.1-1.5.9-2.1 2.5l.1.3c-.5.8-1 1.4-1.6 1.4-.5.1-1.1.1-1.6.1-.8-.1-1.5.7-2 2.1h-3.4c-.5-1.4-1.2-2.2-2-2.2-.5 0-1.1 0-1.6-.1-.6-.1-1.1-.7-1.5-1.6l.1-.1c-.6-1.2-1.2-2.6-1.7-4v.1c-.4-.9-.6-2-.6-3.2 0-2-.4-3.7-1-5.1l-.2.2c-.4-1.2-.6-2.5-.6-4v-4.3c0-1.5.2-2.8.6-4 .1-1.3.1-2.7.2-4 .4-1.3.9-2.5 1.2-3.9.1-.5.3-.8.5-1.2.6-.9 1.1-1.9 1.6-3.2l-.1-.1c.7-1.1 1.1-2.7 1.8-3.8.5-.1 1.1-.3 1.6-.4.5-.9 1-1.4 1.6-1.4.6-.1 1.2-.1 1.7-.1h3.4c.6-.1 1.2 0 1.8 0 .6-.1 1.2 0 1.8 0 2.5.1 5-.5 7.6.5.3.2.6.6.8 1.1.4 1.2.5 2.7.6 4.3v4.4c.1 1-.1 2.4-.5 3.5z"/><path class="st0" d="M287.8 132.8c-2.8 0-5.6-.1-8.4-.1-.4-1.3-.5-2.6 0-3.8 2.8 0 5.6-.1 8.4-.1.6 1.3.6 2.6 0 4zm-1.6-41c-.5-.1-1.1-.2-1.6-.3 0-1.3-.1-2.6-.1-3.9 1.3-.3 1.9 1 1.7 4.2z"/><path class="st0" d="M287.9 96c-.5-.1-1.1-.2-1.6-.2 0-1.3-.1-2.6-.1-4 1.3-.4 1.9 1 1.7 4.2zm-17.1 36.5h-1.7c-.1-3.2.6-4.3 1.8-3.8.4 1.4.5 2.6-.1 3.8z"/><path class="st0" d="M270.8 132.5c0-1.3.1-2.5.1-3.8.6 0 1.1.1 1.7.1.4 1.3.4 2.5-.1 3.7h-1.7z"/><path class="st0" d="M272.6 132.5c0-1.2 0-2.5.1-3.7h1.7c.4 1.3.4 2.5-.1 3.7h-1.7z"/><path class="st0" d="M274.3 132.5c0-1.2 0-2.5.1-3.7h1.7c.4 1.2.4 2.5 0 3.7h-1.8z"/><path class="st0" d="M276 132.5v-3.7h1.7c.5 1.3.4 2.5 0 3.8-.6 0-1.2 0-1.7-.1z"/><path class="st0" d="M277.7 132.6v-3.8h1.7v3.8c-.6.1-1.1 0-1.7 0zm10.1.2v-4.1c1.3-.5 2 .7 1.7 4-.5 1-1.1 1.1-1.6-.1.1 0-.1.2-.1.2zm-20.3.1c.1 3.2-.5 4.4-1.8 3.8-.1-3.3.5-4.7 1.8-3.8z"/><path class="st0" d="M288 132.6c.5 0 1.1.1 1.6.1v4c-.5 1.1-1 1.2-1.5.1-.1-1.4-.1-2.8-.1-4.2zm-25.6 8.5c-.2-3.2.4-4.6 1.7-4.2.4 1.4.4 2.7-.1 4v-.1c-.5 1.2-1 1.2-1.6.3z"/><path class="st0" d="M264.1 140.9c0-1.3 0-2.7.1-4h1.6c.1 3-.5 4.3-1.7 4zm23.9-4.1c.5 0 1-.1 1.5-.1v4.1c-.5 1.2-1 1.2-1.6.1.1-1.3.1-2.7.1-4.1zm-25.6 4.3c.5-.1 1.1-.2 1.6-.3.2 3-.2 4.6-1.6 4.3v-4z"/><path class="st0" d="M288 140.9c.5 0 1-.1 1.6-.1.2 2.9-.3 4.4-1.6 4.2v-4.1zm-25.7 8.2v4.1c-.5 1.2-1.1 1.1-1.6 0-.2-2.9.3-4.4 1.6-4.1zm24 4.3c-.2-3 .2-4.6 1.6-4.3v4c-.5 1.2-1.1 1.2-1.6.3z"/><path class="st0" d="M260.7 153.2h1.6v4.1c-.5 1.1-1.1 1-1.6-.1v-4zm25.6.2c.5-.1 1.1-.2 1.6-.3.3 3.1-.2 4.6-1.6 4.4v-4.1z"/><path class="st0" d="M260.7 157.3c.5 0 1.1 0 1.6.1v4.1c-1.3.2-1.8-1.3-1.6-4.2zm23.8 4.3c-.2-3 .3-4.5 1.6-4.3v4c-.4 1.3-1 1.2-1.6.3zm-22-.3c1.3-.2 1.8 1.4 1.6 4.4-.6.9-1.1 1-1.6-.3-.1-1.4-.1-2.7 0-4.1z"/><path class="st0" d="M284.5 161.6c.5-.1 1.1-.2 1.6-.3.2 3.1-.3 4.6-1.7 4.3.1-1.4.1-2.7.1-4zm-22.1 3.7c.5.1 1.1.2 1.6.3v3.9c-1.3.5-1.8-1-1.6-4.2z"/><path class="st0" d="M282.8 169.6c-.2-3.1.4-4.5 1.7-4.1.2 3.2-.4 4.6-1.7 4.1zm-18.7-.1c1.3-.4 1.9.9 1.7 4-1.3.7-1.9-.7-1.7-4zm15.3 4.1c-.1-3.1.5-4.3 1.8-3.9.4 1.4.4 2.7-.1 3.9h-1.7z"/><path class="st0" d="M281 173.6c0-1.3.1-2.6.1-3.9.5 0 1.1-.1 1.6-.1.3 3.2-.3 4.5-1.7 4zm-15.2.1c.5.1 1.1.1 1.6.2.5 1.2.5 2.5.1 3.9-1.2.4-1.9-.9-1.7-4.1z"/><path class="st0" d="M267.5 177.7c0-1.3-.1-2.6-.1-3.9h1.7c.5 1.2.5 2.4.1 3.8-.5.1-1.1.1-1.7.1z"/><path class="st0" d="M269.2 177.6c0-1.3-.1-2.5-.1-3.8 1.2-.5 1.9.6 1.8 3.7-.6.1-1.1.1-1.7.1zm5.1 0c-.1-3.1.5-4.2 1.8-3.8.4 1.3.4 2.6-.1 3.8h-1.7z"/><path class="st0" d="M276 177.6c0-1.3 0-2.5.1-3.8.6 0 1.2 0 1.7.1.4 1.3.4 2.6-.1 3.8-.6-.1-1.2-.1-1.7-.1z"/><path class="st0" d="M277.6 177.7c0-1.3.1-2.5.1-3.8h1.7c.1 3.2-.5 4.4-1.8 3.8zm10.3.2h-1.7c-.2-3.2.4-4.6 1.7-4.2.4 1.3.4 2.6-.1 3.7l.1.5z"/><path class="st0" d="M287.8 177.5c0-1.2.1-2.5.1-3.7 1.3-.4 1.8.9 1.6 4.1-.5-.2-1.1-.3-1.7-.4zm-176.9-40.7c-.1 2.7-.1 5.4-.2 8.1-.6 1.3-.9 2.9-.9 4.8v3.9c0 1.4-.3 2.6-.6 3.7l-.1-.2c-.4 1.3-.9 2.4-1.2 3.9-.1.5-.3.8-.5 1.2-.5.7-.9 1.7-1.2 2.9-.1.5-.3.9-.5 1.2-.5.7-.9 1.7-1.2 2.9-.1.5-.3.9-.5 1.2-.6.9-1.1 2-1.6 3.1l.1.3c-.5.8-1 1.4-1.5 1.5-.5.1-1.1.1-1.6.1-.8-.1-1.5.7-2 2.1H94c-.5-1.4-1.2-2.2-2-2.2-.5 0-1.1 0-1.6-.1-.6-.1-1.1-.7-1.5-1.5l.1-.2c-.6-1.2-1.2-2.7-1.7-4-.5-1.5-1.1-2.7-1.6-4.3l-.1.2c-.4-1.1-.6-2.4-.7-3.9 0-1.4-.1-2.8 0-4.2v-8.5c0-1.5.3-2.8.6-4l.1.2c.6-1.4 1-3 1-5.1.1-1.2.3-2.3.7-3.1.3-1 .8-1.4 1.3-1.6.8-.1 1.5-.9 2.1-2.3.5-.1 1.1-.3 1.6-.4.5-.9 1-1.4 1.6-1.4.6-.1 1.2-.1 1.8-.1h1.8c.6-.1 1.2 0 1.8-.1.6-.1 1.3 0 1.9-.1 3.2.5 6.5-1.5 9.7 1.4.4 1.4.4 3 0 4.6z"/><path class="st0" d="M110.7 132.8c-3.4 0-6.8-.1-10.1-.1-.4-1.3-.5-2.6 0-3.8 3.4-.1 6.8-.1 10.1-.2.5 1.4.6 2.7 0 4.1z"/><path class="st0" d="M110.7 132.8v-4.1c1.1-.2 1.8.4 1.8 3.5 0 2.8-.2 4.9-1.6 4.6-.1-1.3-.2-2.7-.2-4zm-30.6-4.3c0-1.3.1-2.6.1-3.9.5-.1 1.1-.1 1.6-.2.2 3.2-.4 4.5-1.7 4.1zm13.6 4H92c-.1-3.2.5-4.3 1.8-3.7.4 1.3.4 2.5-.1 3.7z"/><path class="st0" d="M93.7 132.5c0-1.2.1-2.5.1-3.7.6 0 1.1 0 1.7.1.4 1.3.4 2.5-.1 3.7-.6-.1-1.1-.1-1.7-.1z"/><path class="st0" d="M95.4 132.5c0-1.2 0-2.4.1-3.7h1.7c.4 1.3.4 2.5 0 3.7h-1.8z"/><path class="st0" d="M97.1 132.5v-3.7h1.7c.5 1.3.4 2.5 0 3.8-.5 0-1.1 0-1.7-.1z"/><path class="st0" d="M98.8 132.6v-3.8h1.7v3.8h-1.7zm-10.2 4.1c-.5.1-1.1.1-1.6.2-.2-3.2.4-4.5 1.8-4.1.3 1.4.3 2.7-.2 3.9z"/><path class="st0" d="M88.6 136.7c0-1.3.1-2.6.1-3.9.6 0 1.1.1 1.7.1.1 3.2-.6 4.3-1.8 3.8zm-1.6.2c0 1.3-.1 2.6-.1 3.9-.5 1.3-1.1 1.3-1.6.3-.2-3.2.3-4.7 1.7-4.2z"/><path class="st0" d="M85.3 141.1c.5-.1 1.1-.2 1.6-.3.2 3-.3 4.5-1.6 4.3v-4zm-.1 3.8v4.1c-.5 1.2-1 1.1-1.6.2-.2-3 .3-4.4 1.6-4.3zm23.9 4.4c-.2-3 .2-4.5 1.5-4.3v4.1c-.4 1.1-.9 1.1-1.5.2z"/><path class="st0" d="M83.6 149.2c.5-.1 1-.1 1.6-.2v4.1c-.5 1.1-1 1.1-1.5.1-.1-1.3-.1-2.6-.1-4zm25.5.1c.5-.1 1-.2 1.6-.2 0 1.3 0 2.7.1 4-.5 1.3-1 1.2-1.6.3-.1-1.4-.1-2.8-.1-4.1z"/><path class="st0" d="M83.6 153.3c.5 0 1 0 1.5-.1v4.2c-.5 1-1 1-1.5-.1v-4zm25.5 0c.5-.1 1.1-.2 1.6-.3.2 3-.3 4.5-1.6 4.3v-4z"/><path class="st0" d="M83.6 157.2c.5 0 1 .1 1.5.1v4.1c-.6 1-1.1 1-1.6-.2.1-1.3.1-2.6.1-4zm23.8 4.3c-.2-3.1.3-4.5 1.6-4.3 0 1.3 0 2.7.1 4-.6 1.3-1.1 1.4-1.7.3z"/><path class="st0" d="M83.6 161.3c.5.1 1.1.1 1.6.2 0 1.4 0 2.7.1 4.1-1.4.2-1.9-1.3-1.7-4.3zm23.8.2c.5-.1 1.1-.2 1.6-.3.1 2.7-.2 4.5-1.5 4.3-.3 0-.4-.3-.6-.9-.1-1.2-.1-2.3.4-3.2l.1.1z"/><path class="st0" d="M85.3 165.4c1.3-.3 1.8 1.2 1.6 4.3-1.3.4-1.9-.9-1.6-4.3zm22.3.2c-.1 2.6-.6 4.3-1.8 4.5-.2-.3-.4-.7-.5-1.3-.1-1.2-.1-2.4.4-3.1v.1c.5-1.3 1-1.2 1.6-.2h.3z"/><path class="st0" d="M86.9 169.6c1.3-.4 1.9.9 1.7 4-1.3.8-1.9-.7-1.7-4zm15.3 4c-.1-3.1.5-4.4 1.8-3.9.4 1.4.4 2.7-.1 3.9h-1.7z"/><path class="st0" d="M103.9 173.6c0-1.3.1-2.6.1-3.9.5-1.2 1.1-1.2 1.6-.2l.1.5c0 3-.6 4.1-1.8 3.6zm-15.3.2c.6 0 1.1 0 1.7.1.5 1.2.5 2.5.1 3.8-1.3.5-1.9-.7-1.8-3.9z"/><path class="st0" d="M90.4 177.7c0-1.3-.1-2.6-.1-3.8.6 0 1.1 0 1.7-.1.5 1.2.5 2.5.1 3.8-.6 0-1.1.1-1.7.1z"/><path class="st0" d="M92.1 177.6c0-1.3-.1-2.5-.1-3.8 1.2-.4 1.9.6 1.8 3.8h-1.7zm5 0c-.1-3.2.6-4.2 1.8-3.8.4 1.3.4 2.6-.1 3.8h-1.7z"/><path class="st0" d="M98.8 177.6c0-1.3.1-2.5.1-3.8.6 0 1.1 0 1.7.1.4 1.3.4 2.6-.1 3.8-.6 0-1.1-.1-1.7-.1z"/><path class="st0" d="M100.5 177.7c0-1.3.1-2.5.1-3.8h1.7c.1 3.1-.5 4.4-1.8 3.8zm44.4-98.3c.5-.1 1.1-.2 1.6-.3v.4c.4 1.4.4 2.7-.1 3.9v-.1c-.6 1.2-1.1 1.2-1.6-.1.1-1.2.1-2.5.1-3.8z"/><path class="st0" d="M146.5 83.4c0-1.3 0-2.6.1-3.9.5-.1 1.1-.2 1.6-.2.2 3.1-.4 4.5-1.7 4.1z"/><path class="st0" d="M144.9 83.3c.5 0 1.1 0 1.6.1 0 1.6.2 3.9-.8 3.9-1.1 0-.8-2.4-.8-4zM339 145.1c-.6-.1-1.1-.2-1.7-.3 0-1.3 0-2.5-.1-3.8 1.3-.4 1.9.9 1.8 4.1zm-.1 28.5c0-1.3.1-2.6.1-3.9.5-.1 1.1-.2 1.6-.3.3 3.3-.3 4.7-1.7 4.2zm-23.8-94.3c0-1.3.1-2.6.1-3.9.5-.1 1.1-.1 1.6-.2.2 3.2-.4 4.5-1.7 4.1zm-44.3 241.9h-1.6v-3.7h1.6v3.7zm-78.2 0v-3.7h1.6v3.8c-.6-.1-1.1-.1-1.6-.1zm103.7 0c-.5 0-1.1.1-1.6.1v-4.2c.1-1.3.1-2.7.2-4h1.6v4c-.1 1.4-.1 2.8-.2 4.1zm-183.8-8.1c0 1.4-.1 2.7-.1 4.1-.6 1.2-1.2 1.2-1.8.2-.4-1.5-.4-3 0-4.5.7-1 1.3-.9 1.9.2z"/><path class="st0" d="M110.8 317.3c.5 0 1 0 1.6-.1v4.1c-.6 1.2-1.2 1.3-1.8.3-.3-1.6-.3-3 .2-4.3z"/><path class="st0" d="M110.9 321.4c.5 0 1.1-.1 1.6-.1v4.2c-.6 1.1-1.2 1.3-1.8.3-.4-1.6-.4-3.1.2-4.4zm-83.5 8.2c-.1 1.4-.1 2.7-.2 4.1-.5 0-1.1-.1-1.6-.1v-4.2c.1-1.4.1-2.7.2-4.1.5 0 1.1 0 1.6.1-.1 1.4 0 2.8 0 4.2zM25.5 346h-1.6c0-1.4 0-2.8.1-4.1h1.6c0 1.3-.1 2.7-.1 4.1zm105.8-8.3v-4.1c.5 0 1 .1 1.6.1v4h-1.6zm-17.1-53.3h1.6v8.3c-.5 0-1.1 0-1.6-.1-.4-1.2-.7-2.5-.6-4.1-.1-1.5.2-2.9.6-4.1z"/><path class="st0" d="M110.9 321.4v4.1c.3 1 .4 2.2.3 3.4-.4 1.8-1.3 2.5-1.7 4.4-.1.5-.3.9-.5 1.2-.5.7-.9 1.7-1.2 2.9-.1.5-.3.9-.5 1.2-.6.9-1.1 2-1.6 3l.1.3c-1.1-.1-2.3-.1-3.4-.2.1-3-.4-4.4-1.7-4.2v.1c-.4-1.1-.6-2.4-.7-3.9-.1-1.4-.1-2.8 0-4.2V321c0-1.5.3-2.8.6-4v-8.2l.1.1c.6-1.4 1-3 1-5.1 0-1.3.3-2.3.6-3.3v-4.1l.1.1c.5-1.5 1.1-2.8 1.6-4.3 0-1.3 0-2.7.1-4v.1c.6-1.4 1.2-2.8 1.7-4.2v.1c.6 0 1.1-.1 1.7-.1.6-1.2 1.2-2.7 1.8-3.9l-.1-.3c1.1.1 2.3.1 3.4.2 0 1.3 0 2.7.1 4 .4 1.2.6 2.6.6 4.2s-.2 3-.6 4.2v4.1c-.1.2-.2.5-.2.7-.6 1-1 2.5-1.5 3.9-.2.4-.5.6-.7.8-1.3.7-2.7.3-4.1.5-.5.2-1.1 0-1.2 1.9-.1 2.2.5 2.5 1.2 2.6 1.4.2 2.8-.3 4.2.7.3.3.5.7.7 1.2.3 1.5.2 2.8-.2 4.1 0 1.4 0 2.8.1 4.1-.1 1.6-.1 2.9-.1 4.3z"/><path class="st0" d="M112.5 292.8v-4.2c.5-1.1 1.1-1.1 1.6-.1v4.1c-.5.1-1 .1-1.6.2zm1.7 4c0 1.3-.1 2.6-.1 3.9-.5 0-1.1.1-1.6.1-.1-.2-.2-.5-.3-.7-.2-1.3-.1-2.4.2-3.5l.1.2h1.7zm-93.8 16.4c-.5 0-1-.1-1.5-.1l-.3-.6c-.3-1.2-.4-2.5-.4-3.9s.2-2.6.6-3.6h1.6c.1 1.4.1 2.7.2 4.1-.1 1.4-.1 2.7-.2 4.1z"/><path class="st0" d="M18.8 305c0 1.3 0 2.7-.1 4-.5 1.2-1.1 1.3-1.7.3-.4-1.4-.4-2.8.1-4.1v-.5c.6.1 1.1.2 1.7.3zm93.7-4.2c0 1.4 0 2.8-.1 4.2-.6 1.1-1.1 1.2-1.7.2-.4-1.5-.3-2.9.2-4.2l-.1-.2c.6-1 1.1-1.1 1.7 0z"/><path class="st0" d="M110.8 305h1.6c0 1.4 0 2.7.1 4.1-.6 1.1-1.1 1.1-1.7 0-.5-1.4-.5-2.8 0-4.1zm37.3 4h-1.5c0-1.3 0-2.7-.1-4 .5 0 1.1.1 1.6.1v3.9zm-47.6 8.2v4.1c-.6 1.2-1.1 1.1-1.7 0 0-1.4 0-2.8.1-4.2.5.1 1.1.1 1.6.1zm37.6 20.4v-4h1.5c0 1.4.1 2.8.1 4.2-.5-.1-1.1-.1-1.6-.2zm-24-49.1c-.5 0-1.1 0-1.6.1v-4.2c.6 0 1.1 0 1.7.1 0 1.3-.1 2.7-.1 4zm122.7 49.2h-1.7v-4.2h1.6c.1 1.5.1 2.9.1 4.2zm-5.1 4c-.5 0-1.1-.1-1.6-.1 0-1.3-.1-2.5-.1-3.8v-4.3.1c.5-1.1 1.1-1.2 1.6.1l.2-.1c.8 2.8.8 5.6-.1 8.3v-.2zM34.2 346c.6 0 1.1 0 1.7-.1v4.1c-.6 1.1-1.1 1.2-1.7.1-.4-1.4-.4-2.8 0-4.3v.2z"/><path class="st0" d="M34.1 350.1h1.7v4.2h-1.7c-.4-1-.5-2.1-.3-3.4.2-.4.3-.6.3-.8zm121-4.1c.6 0 1.1 0 1.7-.1v4.1c-.6 1.1-1.1 1.2-1.7.1-.4-1.4-.4-2.8 0-4.3v.2z"/><path class="st0" d="M155.1 350.1h1.7v4.2h-1.7c-.4-1-.5-2.1-.3-3.4.1-.4.2-.6.3-.8zM242 346c.6 0 1.1 0 1.7-.1v4.1c-.6 1.1-1.1 1.2-1.7.1-.4-1.4-.4-2.8 0-4.3-.1.1 0 .2 0 .2z"/><path class="st0" d="M241.9 350.1h1.7v4.2h-1.7c-.4-1-.5-2.1-.3-3.4.2-.4.2-.6.3-.8zm69.9-4.1c.6 0 1.1 0 1.7-.1v4.1c-.6 1.1-1.1 1.2-1.7.1-.4-1.4-.4-2.8 0-4.3v.2z"/><path class="st0" d="M311.8 350.1h1.7v4.2h-1.7c-.4-1-.5-2.1-.3-3.4.1-.4.2-.6.3-.8zm-202.7-69.6c.1 3.1-.6 4.3-1.8 3.9v-4c.6 0 1.2.1 1.8.1zm-3.4 3.9c.1 3.1-.5 4.5-1.7 4.2 0-1.4 0-2.7.1-4.1.5 0 1 0 1.6-.1zm-1.8 8.1c.2 3-.3 4.5-1.6 4.3 0-1.4 0-2.8-.1-4.3.6.1 1.2 0 1.7 0zm-1.7 8.3v4.1c-.6 1.2-1.1 1.2-1.7.1 0-1.4 0-2.8.1-4.2h1.6zm-85.1 4.4v3.9c.4 1.2.7 2.6.7 4.2s-.2 3.1-.8 4c-.5 0-1.1 0-1.6-.1v-4.1c-.5-1.4-.5-2.7 0-4.1v-4.1c.6.1 1.1.2 1.7.3zm206 8h-1.6c0-1.4-.1-2.8-.1-4.2 0-1.3.1-2.6.1-3.9.5 0 1.1 0 1.6.1 0 1.3.1 2.7.1 4 0 1.3-.1 2.7-.1 4z"/><path class="st0" d="M15.4 309v4.1h-1.7V309h1.7zm13.5 8.3c-.5 0-1 0-1.6-.1 0-1.4-.1-2.8-.1-4.2.1-1.4.1-2.7.2-4.1.5 0 1.1 0 1.6.1 0 1.4.1 2.8.1 4.2-.1 1.4-.1 2.8-.2 4.1zm71.7-12.4c.6 0 1.1 0 1.7-.1.2 3-.4 4.4-1.6 4.3-.1-1.4-.1-2.8-.1-4.2zm10.2 4.2h1.7v4.1h-1.7v-4.1zM17 317.3c.1-1.3.1-2.7.2-4 .5-1.2 1.1-1.2 1.6-.1h.1v4.1c-.5 1-1.1 1.1-1.6 0H17z"/><path class="st0" d="M17.2 317.2h1.6c0 1.4 0 2.8.1 4.2-.1 1.4-.1 2.7-.2 4.1h-1.6c0-1.4-.1-2.8-.1-4.2.1-1.4.1-2.7.2-4.1zm81.7 4.1h1.7v4.2c-.6 1.1-1.1 1.1-1.7 0l-.1.1c0-1.5 0-2.9.1-4.3zm132.7 12.4c-.5 0-1.1-.1-1.6-.1 0-1.4 0-2.8-.1-4.2.1-1.4.1-2.7.2-4.1h1.6c0 1.4.1 2.8.1 4.2-.1 1.5-.1 2.9-.2 4.2z"/><path class="st0" d="M98.9 325.4h1.7v4.1c-.6 1.1-1.1 1.1-1.7-.1l-.1.1c0-1.3 0-2.7.1-4.1zm11.8 4c.1-1.3.1-2.6.2-3.9.5 0 1.1 0 1.6-.1v4.3c-.1 1.3-.1 2.6-.2 3.9h-1.6c-.1-.2-.2-.5-.3-.7-.1-1.2 0-2.4.3-3.5z"/><path class="st0" d="M98.9 329.5c.6 0 1.1 0 1.7.1v4.2c-.4 1-.9 1.1-1.4.6l-.3-.6v-4.3z"/><path class="st0" d="M98.9 337.7h-1.7c0-1.4.1-2.8.1-4.2.5 0 1.1.1 1.6.1l.1-.1c.3 1.5.3 2.9-.1 4.2zm132.8 4.2c0-2.8.1-5.5.1-8.3.5 0 1.1 0 1.6.1v4.1c.5 1.4.5 2.7 0 4.1v-.1c-.6 0-1.1 0-1.7.1zm-121-4.4c-.5.1-1.1.1-1.6.2-.1-.2-.2-.4-.3-.7-.2-1.3-.2-2.4.2-3.4l.1.1c.5-1.3 1.1-1.2 1.7-.1v-.1c-.1 1.4-.1 2.7-.1 4z"/><path class="st0" d="M233.4 341.9v-4.1h1.7v4.1h-1.7zm-134.6-4.2c0-1.4.1-2.8.1-4.2.5.1 1.1.1 1.6.2v4h-1.7zm10.3 3.9c-.6.1-1.1.1-1.7.2v.1c-.5-1.3-.5-2.7 0-4 .6-1.2 1.1-1.2 1.7 0v-.1 3.8zm-75 4.3c0 1.4.1 2.8.1 4.2-.6 1.1-1.1 1.1-1.7 0 0-1.4.1-2.8.1-4.3.4 0 1 .1 1.5.1z"/><path class="st0" d="M107.4 337.8v4c-.6-.1-1.2-.1-1.8-.2 0-3 .6-4.2 1.8-3.8zm47.6 8.1c0 1.4.1 2.8.1 4.2-.6 1.1-1.1 1.1-1.7 0 0-1.4.1-2.8.1-4.3.5 0 1 .1 1.5.1zm86.9 0c0 1.4.1 2.8.1 4.2-.6 1.1-1.1 1.1-1.7 0 0-1.4.1-2.8.1-4.3.4 0 .9.1 1.5.1zm69.8 0c0 1.4.1 2.8.1 4.2-.6 1.1-1.1 1.1-1.7 0 0-1.4.1-2.8.1-4.3.5 0 1 .1 1.5.1zm-279.3 4.2h1.7v4.1h-1.7v-4.1z"/><path class="st0" d="M153.4 350.1h1.7v4.1h-1.7v-4.1zm64.6 8.2h-1.5v-4.2c.5 0 1.1 0 1.6.1-.1 1.3-.1 2.7-.1 4.1zm22.2-8.2h1.7v4.1h-1.7v-4.1zm69.9 0h1.7v4.1h-1.7v-4.1zm-104-254.3c0-1.3.1-2.6.1-4 .5-.1 1.1-.1 1.6-.2.2 3.1-.4 4.5-1.7 4.2zm-98.8 69.6c-.5.1-1.1.1-1.6.2-.2-3.1.4-4.5 1.7-4.2 0 1.4-.1 2.7-.1 4zm-1.7 4.1c-.5.1-1.1.1-1.6.2-.1-3.1.4-4.5 1.7-4.1 0 1.3 0 2.6-.1 3.9zm5.2 135.5c0 1.4 0 2.7-.1 4.1-1.7 0-3.4-.1-5-.1-.9-2.7-.9-5.4 0-8.1h5.1v4.1z"/><path class="st0" d="M105.7 300.9v8.1c-1.4.4-1.8-1.3-1.8-4.4.1-3.1.7-3.9 1.8-3.7zm6.8 0c-.6 0-1.2-.1-1.8-.1-.1-2.9.4-4.3 1.7-4.1 0 1.4.1 2.8.1 4.2zm-1.7 32.8c-.6 0-1.1.1-1.7.1-.2-3 .3-4.5 1.6-4.4 0 1.4.1 2.9.1 4.3z"/><path class="st0" d="M109.1 337.8h-1.7c-.2-3 .4-4.5 1.7-4.2v4.2zm-90.3-24.7c-.5 0-1.1.1-1.6.1V309c.5 0 1.1-.1 1.6-.1-.1 1.5 0 2.9 0 4.2z"/></svg>