<svg id="Layer_1" xmlns="http://www.w3.org/2000/svg" viewBox="-121 201.2 369 390.8"><style>.st0{fill:#fff;stroke:#fff;stroke-width:5}</style><path class="st0" d="M25.9 209.2c.7-.1 1.4-.2 2.2-.2 2.5-.2 5.1-.5 7.6-.4.5 0 .3-.4.4-.7h12.8c.3.6.7.7 1.4.7h2.6c2.3-.1 4.4.6 6.7.6 0 .2-.1.4-.1.6h-1.7c-.9 0-1.9-.1-2.8-.1 0-.5-.3-.6-.8-.6H32.3c-.5 0-.8.1-.8.6-1.2 0-2.3.1-3.5.1-.8-.2-1.8.5-2.1-.6zm186.4 311.3c-.1.4 0 .7-.6 1-.4.1-1.1.6-1 1.4 0 .2-.2.7-.6.8-.9.1-1.4.6-1.5 1.5 0 .4-.4.4-.7.5-.4.3-1.1.4-1 1.1 0 .6-.6.2-.9.5-1.3 1.5-3.1 2.4-4.7 3.5-.6.4-1.1.8-1.5 1.3-.3.4-.7.5-1.1.5-.7.1-1.3.2-1.7 1-.3.5-1.2.7-1.8.9-1.1.4-2.1 1.1-3.3 1.5-1 .3-2.1.7-3 1.4-.1.1-.1.2-.2.2-2.5.1-4.4 2-6.9 2.1-.2 0-.6.1-.6.3-.5 1.1-1.5.9-2.4.9-.8 0-1.3.2-1.7.8-.9.1-1.9-.3-2.7.3-1.3.8-2.9.6-4.3.9-.9.2-1.9.6-2.7 1.1-.6.3-1.2.6-1.8.5-.8-.2-1.4-.3-2.2.2-.5.3-1.2.1-1.9.1-.5 0-1-.1-1.5.4-.8-.5-1.6-.2-2.4-.3-.4 0-.4.3-.3.6-1 .2-2.1.1-3.1.3-2.1.4-4.3-.2-6.2.5-2.4.9-4.7.3-7 .5-1 .1-2.1-.2-2.9.6-.2.2-.6.1-.9.1h-8.3c-1.8 0-3.5-.1-5.2-.5-1.7-.4-3.6-.1-5.4-.2-1-.1-2.2.6-3-.6-.1-.1-.4 0-.6 0-1.9-.1-3.8.3-5.7-.4h-.2c-1.1.7-2.1.2-3.2-.2.1-.5-.1-.6-.6-.6h-2.9c-.4 0-.9-.1-1.3-.1-1.5.3-3-.7-4.5-.5-.6-1.1-2.2-.1-2.7-1.3 0-.1-.4-.1-.6-.1-1.7 0-3.4-.1-5.1-.5-.6-.1-.9-.5-1.4-.8.1-.5-.2-.6-.6-.6H84c-1.6-.3-3-1.1-4.5-1.5-1-.3-2 .2-2.9-.6-.3-.3-.9-.1-.9-.8 0-.2-.4-.1-.6-.2-.8-.2-1.8-.2-2.3-1.1 0-.1-.1-.1-.2-.1-1.1.2-1.8-1.1-2.9-.8-.2 0-.3-.1-.4-.2-.6-1-1.8-1-2.7-1.5-1.3-.8-2.9-1.3-4.1-2.3-1.9-1.6-4.4-2.3-5.9-4.4-.2-.3-1.3-.1-1.4-.7-.3-1.3-2.1-1.2-2.1-2.7 0-.5-.6-.1-.9-.5-.7-1-1.8-1.7-2-3-.1-.3-.5-.9-.8-1-.9-.5-.7-1.2-.8-1.9 0-.5.4-1.3-.7-1.3-.3 0-.2-.4-.2-.6v-2.4c0-.4-.1-.8.6-.8s.2-.6.4-.9c.3-.6-.7-1.7.8-1.8.1 0 .1-.3.1-.4 0-1.1.7-1.8 1.4-2.5.2-.3.3-.6.4-.8.2-.8.5-1.4 1.4-1.3.2 0 .3-.1.4-.2.4-1.2 1.6-1.5 2.3-2.2.9-.9 2.3-1.1 3.1-2.3.4-.6 1.6-.6 2.3-1.2 1.4-1 3.2-1.2 4.4-2.4.6-.6 1.8-.9 1.3-2.2v-1.3c.3-.7.1-1.5.9-2 .3-.2.1-.3-.2-.5-1.4-.8-2.6-1.9-3.9-2.8-.5-.3-1-1.1-1.4-1.8-.9-1.7-2.6-2-4.2-.7-.6.5-1.4.9-2.3.8-.6 0-1.1.1-1.5.6-.6.7-1.5.8-2.3 1.3-1.1.6-2.1 1.4-3.3 1.7-2.2.6-3.6 2.5-5.6 3.3-2 .7-3.4 2.2-5.1 3.2-1.2.7-2.1 1.5-3 2.6-.4.6-1.2 1.1-1.8 1.2-.8.1-1 .7-1.2 1.1-.5.8-1.1 1.3-1.9 1.7h-.1c-.4 1.6-2.1 1.9-2.9 3.2-.8-.1-.9.4-.9 1-.6.3-.8 1.1-1.2 1.4-.6.5-1.2 1.1-1.8 1.6-.7.5-1 1.3-1.7 1.7-1.3.7-.9 1.8-1 2.9 0 .4 0 .7.6.8.8.2.1 1 .5 1.5-.1.6-.1 1.2.8 1 .3.4-.2 1.4.9 1.3 0 0 .1.1.1.2-.4 1.1.9 1.7.8 2.7 0 .4.2.6.5.7.3.1.4.3.5.6.1.6-.4 1.6.8 1.7.1 0 .1.4.1.7 0 .6.1 1.3.1 1.9v1.5c-.1.7.3.8.9.7 0 .1.1.1.1.2v4.8c0 .6.1 1 .9.8.2 1 .1 2 .1 3 .1 1.3.2 2.5.6 3.8.5 2 .6 4.3 0 6.2-.5 1.7-.4 3.2-.5 4.8 0 .9-1 .8-1.1 1.4-1-.2-.9.4-.8 1.1 0 .5-.1.9-.1 1.4 0 .3 0 .6-.4.5-.2 0-.5 0-.5.3 0 1-1 1.4-1.5 2.1-.1.1-.2.2-.1.3.2 1.1-.4 1.7-1.1 2.4-.8-.1-1 .3-.9 1-1.2-.2-1.3 1-1.6 1.6-.6.9-1.3 1.4-2.1 1.8-1.2-.3-.7.6-.8 1.1-1.1.6-1.9 1.4-3.1 1.9 0 0-.1 0-.1.1-.4 1.7-2.4 1.4-3.4 2.5-1 1-2.3 1.9-3.5 2.6-1.5.9-3.1 1.5-4.6 2.5-1 .7-2 1.3-3.4 1.3-.3 0-.8.2-.9.4-.6 1.1-1.8 1.3-2.7 2-.3.2-.6.2-.9.1-1.3-.2-2.6.2-3.5.7-.9.6-2.1.4-2.9 1.2-.5.4-1.2.2-1.8.3-1.1.2-2.1 1.2-3.3.9-.8-.2-1.3.6-2 .8-1.6.4-3.2.2-4.8.5-.9.1-1.9-.3-2.7.2-1 .7-2.3.2-3.3.6-2.3 1-4.7.3-7 .7-4.5.8-9 .5-13.4.2-2.8-.2-5.5-.1-8.3-.3-1-.1-2-.3-2.7-.8-.5-.4-1.2-.6-1.7-.6-1.9.1-3.6-.8-5.5-.5-.5.1-1.1 0-1.2-.5-.2-.9-.8-.9-1.5-.9-.9.1-1.7-.5-2.6-.6-.1-1-.9-.5-1.4-.6-2.7-1.1-5.5-1.9-8.1-3.4-.8-.4-1.6-1-2.8-1.1-.8 0-1.6-.7-2.1-1.5-.1-.7-.7-.3-1-.4-.5-.1-1.1.1-1.3-.4-.4-.8-1.2-.8-1.8-1-.9-.8-1.8-1.6-2.8-2.2l-.2-.2c.4-1.1-.9-1.2-1.3-1.8-.3-.5-.5-1.4-1.4-1.5.2-.8-.7-.4-.9-.7-.4-.6-.8-1.1-1-1.8 0-.5.1-1-.6-1-.1-.3.1-.9-.6-.8-.3 0-.4-.1-.4-.4 0-.4.1-.9-.6-.8-.3 0-.3-.3-.3-.5 0-.4-.1-.8-.6-.9-.2-.1-.4-.3-.4-.5.3-1.4-1-2.5-.8-3.9V555c0-.6-.2-.9-.8-.7 0-.9-.2-1.7 0-2.6.6.2.9 0 .8-.7 0-1.3 0-2.5-.1-3.8-.2-1.7.8-3.1.8-4.7 0-.3.1-.4.4-.4.2 0 .5 0 .5-.2-.1-1.4.9-2.1 1.8-2.9.4-.4 0-.9.3-1.3 1.1 0 .5-.7.6-1.2 1.1-.7 1.2-2.2 2.6-2.6.5-.1.7-1 1-1.5.2-.4.5-.7.9-1 1.3-1 2.2-2.3 3.6-3.1 1.2-.7 2.3-1.6 3.4-2.5 2-1.6 4.1-3 6.3-4.2 1.5-.8 3.1-1.6 4.6-2.4 1.2-.6 2.8-.5 3.6-1.8 2.3-.2 3.9-1.9 6.3-2.1 1.4-.1 2.8-.9 4.2-1.2 1.3-.3 2.5-1 4-1.2.8-.1 1.9-.3 2.7-.7 1.1-.4 2.2-.2 3.3-.5h2c.4 0 .6-.2.4-.6.6-.3 1.2-.1 1.8-.2.6-.1 1.2.2 1.5-.6.1-.1.6-.1.9-.1h3.2c1 0 1.4-.7.8-1.4-.7-.8-1.2-1.8-2.4-2.2-.4-.1-.8-.8-1-1.1-.3-.7-1.7-.7-1.3-1.9.1-.2-.4-.1-.6-.3-1.1-1-2-2.1-3-3.2-.1-.4.3-1.1-.6-1-.5-.4-1.2-.8-1.1-1.6.1-.7-.6-.4-.9-.6-.8-.5-1.1-1.4-1.4-2-.6-1.3-1.7-2.3-2.3-3.6-.2-.5-.7-1.2-1.2-1.7-.4-.5-.3-.9-.5-1.4.1-.6-.1-1.1-.9-1 0-.1-.1-.1-.1-.2.1-.7.1-1.2-.8-1-.3-.4.2-1.3-.8-1.3-.3 0-.2-.4-.2-.6.1-1.1-.7-1.6-1.3-2.3-.1-.1-.3-.2-.3-.2.2-1.2-1.3-1.8-1.1-3 0-.1 0-.3-.1-.3-1.4-.2-.6-1.4-1-2-.1-.4.6-1.2-.5-1.1-.1-.3-.1-.6-.2-.9 0-.5.4-1.2-.7-1-.4-.4-.2-.8-.2-1.2v-.6c-1.3-.2-.6-1.7-1-1.9-1.1-.6-.5-2.1-1-2.3-1.4-.8-.6-2.1-1-3 0-.5 0-.9.1-1.4 0-.4-.2-.5-.6-.4-.1-.2-.1-.5-.2-.7-.1-.7.6-1.5-.5-1.9-.4-.3-.4-.8-.4-1.3 0-.8.2-1.6-.7-2.2-.5-.3-.2-1.1-.2-1.7 0-.5.1-1-.6-1.2-.3-.1-.3-.5-.3-.8 0-2.7-1.1-5.2-.8-7.9v-4.9c0-.7-.3-.8-.9-.7 0-.1-.1-.1-.1-.2v-8.6c0-.6-.1-1-.8-.6-.3-5.3-.3-10.7 0-16 .6.3.8 0 .8-.6v-5.8c0-.7-.3-.7-.8-.6-.2-.4-.4-.6-.8-.9-1.2-.9-2.6-1.4-3.9-2-2-.9-3.5-2.3-5.3-3.4-1.1-.7-2.2-1.4-3.3-2-1.6-.9-3.3-1.8-4.8-3-1-.8-2.1-1.6-3.5-1.9-1.2-.3-1.8-1.3-2.5-2.2-.5-.7-1.1-1.1-1.9-1.4-.5-.2-1.4-.5-1.3-1.5 0-.2-.6-.5-.9-.7-.6-.5-1.2-1.1-1.7-1.7-.2-.3-.5-.2-.7-.2-.5 0-.7-.3-.9-.6-.6-1.1-1.3-2.2-2.6-2.5-.6-.1-.4-.7-.6-1-.8-.9-1.4-1.9-2.2-2.8-.3-.3-.1-.9-.2-1.4s.5-1.5-.8-1.3c0-.6-.7-.8-.8-1.4-.3-.6.8-1.8-.8-1.7-.3-2.6-.1-5.3-.1-7.9 0-.1 0-.3.1-.3 1.5-.1.6-1.5 1-2.1 1 .1.4-.6.5-1 .1-1.2.9-1.8 1.6-2.7.7-.9 1.9-1.4 2.2-2.7.1-.4.7-.7.9-.8.9-.4 1.5-1.1 2.3-1.7 1.1-.7 2.2-1.5 3.2-2.3 1.4-1 2.9-1.9 4.3-2.9.6-.5 1.3-1.3 2.4-1.1.2 0 .3 0 .5-.2.3-.6.8-.9 1.5-.9 1.2-.1 2-.9 3.1-1.3 1.3-.6 2.4-1.4 3.8-1.8.3-.1.5-.1.7-.3 1.1-1 2.5-1.4 3.9-1.7.6-.1.6-1.1 1.3-.8.1-.9.9-.8 1.4-.9 1.9-.7 3.8-1.6 5.6-2.5 1.1-.6 2.3-1.4 3.7-1.6.7-.1 1.2-1 2-1.3 1.4-.5 2.5-1.7 4.1-1.8.5 0 .7-.8 1.4-.9.1 0 .5-.2.7-.2.6-.1 1.2.1 1.3-.9.1-.9 1.2-.8 1.8-1 1.4-.4 2.2-1.6 3.4-2.2 1.3-.6 2.2-2 3.5-2.7.3-.1.4-.6.6-.8.5-.6 1.2-1 1.8-1.5.5-.4.8-1.3 1.4-1.6.9-.5 1.3-1.5 2.2-2 .5-.3.3-.7.5-1 .8.2 1-.2.8-.9.9-.8 1.4-2.1 2.7-2.6.3-.1 1-.5 1-1.1 0-.8.5-1.2 1.1-1.5.8.1.9-.3.9-1 .2-1 1.2-1.7 1.2-2.8 0-.3.8-.5.6-1.2.8 0 1-.4.8-1.1.1-.5 0-1.1.7-1.5s.1-1.3.5-1.8c1.3.2.6-.8.7-1.2.1-.2.1-.5.2-.7.2 0 .6.1.5-.2-.2-.8.7-1.8-.6-2.3.1-1.1-1.1-1.6-1.4-2.6-.1-.4-.5-1.2-.6-1.3-1.1-.5-.6-1.7-1.2-2.3-.6-1-.7-1.2-.7-1.5-.1-.5.4-1.4-.8-1.3-.2 0-.2-.4-.2-.6 0-.7-.1-1.3-.1-2v-2.9c0-.5-.2-.8-.6-1-.2-.2-.3-.4-.3-.6 0-2.3-.2-4.6.1-6.8.6.2.9 0 .9-.6 0-1 0-2-.1-3 0-.5 0-1 .1-1.5 0-.4-.1-.9.6-.9.2 0 .4-.1.3-.2-.4-1.2 1-2.1.7-3.3-.1-.2-.1-.5.1-.7 1-.5.7-1.5.8-2.4 0-.5-.4-1.3.8-1.4.3 0 .1-.5.2-.8.1-.5-.1-1.1.2-1.6.5.1.9.2.8-.5v-1.2c0-.1.1-.2.1-.2 1.1 0 .4-.8.6-1.3.1-.5.2-.9.2-1.4.5.2.8.2.8-.5s-.3-.7-.8-.5c-2.7-.8-5.6-1-8.2-2.1.1-.3.1-.6-.3-.5h-1.4c-1.4-.2-2.6-.7-3.9-1.1-1.4-.5-2.8-1.1-4.2-1.5-1.5-.3-2.7-1.5-3.8-2.7-.6-.7-1.1-1.5-1.7-2.2-1-1.4-2.7-2.1-3.7-3.6-.4-.6-1.4-.8-2-1.4-1.1-1.1-2.1-2.5-3.6-2.8-1.4-.3-2.2-1.3-3.4-1.8-1-.5-1.9-1.3-2.8-2-.2-.1-.3-.2-.5-.2-1.2 0-2.1-.7-3.1-1.3-.6-.4-1.3 0-2-.4.3-.3.6-.3.8-.2 2.6.2 5.1-1 7.7-.9 1.2 0 2.6-.3 3.9-.3.6 0 .7-.6 1.1-.7.5.6 3.1.9 3.6.4.1-.1 0-.3.1-.5.1-.9 1-1 1.5-.9 1.9.6 3.7-.2 5.5-.5.8-.1 1.9-.3 2.6-.7 2.3-1.2 4.8-1.6 7.1-2.5 1.3-.5 2.8 0 3.8-1.2.1-.1.3-.1.5-.1 2.6.3 5.2-.7 7.8-.4 1.7.1 3.5.3 5.1.6 1.2.2 2.5.2 3.5.7 1.5.8 3.4.4 4.7 1.6.6.6 1.5 0 2.3.5l1.8 1.2c.7.4 1 .6 1.8-.1.6-.5 1.4-1.1 2.1-1.5 1-.7 2.2-.9 3-1.8.4-.4.8-.8 1.4-.7.5 0 .7-.3.8-.6.1-.4.5-.5.8-.6 1.1-.3 2-1.2 3-1.5 1.3-.5 2.3-1.4 3.8-1.7.7-.1 1.5-.6 2.2-.9.1-.1.3-.2.4-.2 1 .4 1.7-.5 2.4-.9 1.1-.7 2.4-.8 3.5-1.2.7-.3 1.6-.4 2.3-1 .5-.5 1.2-.3 1.8-.4 1.6-.3 3.1-1 4.7-1.2 1-.2 2-.3 3-.5.4 0 .9.1 1.3.1.5 0 .6-.2.5-.7.4 0 .7-.1 1.1-.1h1c.5 0 .7.2.6.7-.4 0-.9.1-1.3.2-1.9.1-3.6.8-5.4 1-1.2.2-2.5.4-3.7.8-1.1.3-2.2.9-3.3 1.1-1.6.4-3.3.7-4.7 1.5-1.2.7-2.6.8-3.9 1.6-1.2.7-2.6 1.3-3.9 1.8-1 .4-1.8 1.1-2.8 1.5-1.2.4-2.5 1.1-3.5 2-1 .9-2.2 1.2-3.2 2-.7.6-1.6 1.1-2.3 1.7-.5-.1-.7.1-.7.6 0 .6.4.5.7.5 0 .2 0 .5.1.6.8.3 1.5.8 2.1 1.3.7.6 1 1.2 1.4 1.9 0 .5-.3.5-.7.5l-1.5-1.5c-1.5-1.5-3.5-2.4-5.4-3.5-1.1-.7-2.5-1-3.7-1.5-1-.5-2-1-3.2-.9-.2-1.2-1.1-.5-1.7-.7-5.8-.8-11.5-.7-17.3 0-.6.1-1.4-.3-1.7.7-.7-.2-1.3.5-2.1.4-1.4-.2-2.6.6-3.9 1.1-2.2.8-4.5 1.3-6.8 1.7-.6.1-1.5-.5-1.7.7-2.2.1-4.3.6-6.4.6-.6.2-1.5-.5-1.8.6-2.5 0-4.9 0-7.4.3-.3 0-.7 0-.7.4 0 .2 0 .4.3.4.7 0 1.3.6 1.8.6 2.1 0 3.3 1.9 5.1 2.4.3.1.7 0 1 .3.8 1 1.9 1.8 3 2.4 1.7.9 2.9 2.4 4.2 3.7.3.3.7.2 1 .7.7 1.1 1.7 2.1 2.8 3 .3.3.6.5.8.9.5.7.8 1.6 1.9 1.9 1.5.4 3 .9 4.5 1.5 2.5 1 4.9 2.1 7.5 2.8.7.2 1.2.8 2.1.8 1.3 0 2.4.7 3.6 1 .7.2 1.6 0 2.3.4 1.1.7 2.5.8 3.6 1.1 1.6.3 3.3.6 5 .6.1.5.1.8-.5.8h-1.2c-.6 0-1.3 0-1.9-.1-.3-1-1.1-.6-1.7-.7-1.2 0-2.5-.6-2.9 1.2 0 .1-.3.1-.3.2-.2 1.3-1.5 2.2-1.4 3.6-1.4.1-.8 1.2-.9 2v.7c-1.2.3-.5 1.3-.7 1.9s.2 1.4-.4 1.8c-.9.5-1.2 1.6-1.4 2.3-.4 1.3-1.3 2.3-1.4 3.6-.6.7-.4 1.6-.4 2.5-.2 3.1-.1 6.2 0 9.3-.5 2.1 1 4 .7 6.1 0 .1.1.3.2.4 1 .5 1 1.7 1.4 2.4.5.9 1.3 1.7 1.6 2.8.2.7 1.1 1.1 1.2 1.7.1 1 .9 1.2 1.4 1.7.2.2.5.1.6.5.4 1.8 1.9 2.8 2.9 4 .8 1 2 1.9 3.1 2.7 1.7 1.3 3.5 2.4 5.3 3.6 1.9 1.2 4 2.2 6 3.2 1 .5 1.8 1.3 3 1.5 1.4.3 2.7 1.2 4.1 1.4 1.2.2 2.2 1.2 3.5 1 1.1.8 2.5.7 3.7 1.1.3 1.2 1.3.5 1.9.7.9-.2 1.5.6 2.3.7 2 .2 3.9.9 5.8 1.4 1.5.4 3 .6 4.5.9 1.7.4 3.5.8 5.2 1.1 2.6.5 5.3-.1 7.9.9.9.4 2.1.1 3.2.1 0 .5.3.7.8.7h6.5c7 .4 13.9.2 20.9 0h3.5c.5 0 .8-.2.8-.6.6 0 1.3 0 1.9-.1.6-.1 1.5.5 1.7-.6 1.9.2 3.7-.4 5.5-.5.6-.2 1.5.5 1.8-.6.6 0 1.2 0 1.9-.1.7-.2 1.7.6 2-.7 1.8.1 3.5-.4 5.2-.6.7-.1 1.6.4 1.9-.7 1.3 0 2.5-.3 3.6-.8.9-.4 1.8-1 2.7-1 2.5-.3 4.5-2 7-2.2.9-.1 1.6-.8 2.4-1.1 1.3-.5 2.8-.3 3.7-1.6.1-.1.2-.2.3-.2 2.4-.8 4.7-1.7 6.8-3.1 1.2-.8 2.6-1.2 3.8-1.9 1.5-.9 3.1-1.9 4.5-3 .6-.5 1.6-.7 2-1.1 1.5-1.7 3.5-2 5.3-3 .7-.4 1.6-.1 2.1-.6.5-.7 1.3-.8 2-1.1.9-.5 1.9-.7 2.7-1.3.1 0 .3.1.4 0 1.2-1 2.7-1.4 4-2.2 1.2-.7 2.5-1.3 3.2-2.6.1-.3.5-.8 1.2-1 .9-.2 1.8-1.2 2-1.9.4-1.3 2-1.6 2-3 0-.3.5-.2.8-.1.1 1.2.1 2.3-1.3 2.7-.5.2-.7.9-.9 1.2-.6 1.2-1.6 2-2.5 2.7-.8.7-1.4 1.7-2.5 2.2-.8.4-1.4 1.2-2.3 1.6 0 .5-.8.3-.6.8.2.4.7.2 1.1.2h2.9c.4 0 .8 0 .6-.6.5-.3 1.1-.1 1.6-.2.9-.1 1.9.3 2.6-.6.1-.1.3-.1.5-.1 2.7.2 5.4-.3 8.1-.6 2.3-.3 4.6-.1 6.8-.6 2.4-.5 4.7-.2 7.1-.4 2.1-.1 4.2-.1 6.2-.1h15.2c3.2.2 6.4-.2 9.6.2 2.4.3 4.9-.2 7 .5 1.9.6 3.8 0 5.5.6 1.6.6 3.2 0 4.8.6 1.8.7 3.7 1.2 5.5 1.8 1.6.6 3.2 1.3 4.8 1.9.4.1.7.4.9.7.2.2.4.6.6.6 1.9-.4 3 1.2 4.4 1.9 1.9.9 3.9 1.9 5 3.9.1.2.4.4.6.5 1 .2 1.2 1.4 1.9 1.7 1.2.5.8 2.1 2 2.4.1.4-.3 1.1.6.9.2.7 0 1.7 1 2.1.1.1.1.5.1.8 0 .8-.3 1.8.8 2.3.2.1.1.4.1.7v2.9c0 .2 0 .7-.1.7-1.4.2-.7 1.3-.8 1.9-.1.4.1.8-.5.9-.2.1-.5.4-.5.8 0 1.6-1.3 2.4-2 3.6-.5.8-1.5 1.4-2 2.1-.5.7-1.1 1.4-1.6 1.6-1.8 1-3 2.9-5.2 3.2-.6.1-1.1.9-1.7 1.4-.1.1-.2.4-.2.4-1.6-.4-2.5 1-3.7 1.4-.8.2-1.7.4-2.5 1.2-.4.5-1.6.5-2.4.6-1.4.1-2.4.9-3.7 1.2-1 .2-1.9.8-2.9.8-.8 0-1 .3-.9 1.1.1.5-.1.9-.4 1.2-1 .5-.4 1.4-.5 2.2 0 .1-.1.2-.1.2-1-.1-.5.6-.6 1.1 0 .3-.1.6-.1.9-.6-.1-.9.1-.9.7 0 .7.3.8.9.8 0 .1.1.2.1.2.1.4-.5 1.2.6 1.2.1.1.1.2.2.3 0 .5-.2 1 .3 1.4.1.1.4.2.4.2 0 1.2 1.3 1.9 1.2 3 0 .2.1.5.1.5 1.3.1.7 1.1.8 1.8.1.8-.3 1.7.6 2.3.1.1.1.5.1.8v3.8c0 .8.2 1.5-.6 2.3-.4.4-.1 1.4-.1 2.2 0 .4.1.8-.5 1.1-.4.2-.5.7-.5 1.1 0 .6.4 1.4-.8 1.5-.3 0 0 .8-.2 1.2-.8-.2-.9.3-.9.9 0 .6.2 1 .9.8.8 1 1.7 1.9 2.5 2.9.4.5.1 1.1.4 1.6 0 .4 0 .7-.1 1.1-.1.7.2.9.8.7 0 .3.1.6.1.9v4.2c-.1.7-.4 1.3-.1 2.1.4.9-1 1.1-1.1 2-.1 1-1.4 1.3-1.6 2.4-.1.4-1.4.7-1.8 1.4-.8 0-.6.5-.6 1-1.2 1-2.8 1.4-3.9 2.3-.9.8-2 .9-2.9 1.5-1.3.9-3.1 1.2-4.7 1.4-2 .2-4 .5-5.8.9-2.1.5-4.1.3-6.1.5-.4 0-1.1.3-1.3-.5-.1-.5-1.4-.1-1.5.5v.3c-1.7.6-.6 2-.9 3 0 .1-.1.3-.2.4-.5-.1-.9-.1-.8.5 0 .6 0 1.3.1 1.9 0 .1-.1.1-.1.2-1.7 0-.6 1.2-.8 1.8 0 .2-.1.3-.1.5.3 1.3-1.1 2.3-.8 3.6.1.3-.2.3-.4.3-.6-.1-.5.3-.5.7-.1.5.3 1.4-.8 1.3 0 0-.1.4-.1.6-.1.4.1.9-.2 1.3-1-.3-.8.4-.8 1 0 .1-.1.2-.1.2-.8 0-.6.6-.6 1 0 .3-.1.6-.1.9-1-.2-.9.4-.8 1-.3.5.3 1.6-.9 1.5.4 1.1-.9 1.2-1.2 2-.2.5-.5 1.1-.7 1.7-1.2-.2-.7.7-.8 1.2 0 .1-.1.1-.1.2-.9-.2-1 .3-.8 1-.5.4-1.1.8-1 1.6 0 .1 0 .4-.1.4-1.2.4-1.3 1.6-1.7 2.6-1.3-.3-.7.7-.8 1.2-.4.6-1 1-1.5 1.6-.2.2-.4.5-.5.7-.2 1.6-1.2 2.6-2.4 3.5-.5.3 0 1-.4 1.4-1-.2-.9.4-.8 1 0 .1-.1.2-.1.2-.9-.1-.5.6-.6 1 .1 1.1-1 1.4-1.5 2.2-.2.3-.5.6-.5 1s.1.8-.6.8c-.2 0-.4.1-.3.4.2.8-.6 1.1-.8 1.6-.8-.1-1 .3-.9 1-.2 1.2-.6 2.2-1.8 2.8-.5.3.2 1.2-.7 1.2.1 1-1.4 1.4-1.2 2.5-1.2-.2-.8.7-.8 1.3-.7.7-1.2 1.7-1.5 2.5-.6 1.4-2 2.2-2.6 3.4-.4.8-.8 1.6-1.1 2.5-.4 1-.9 1.9-2 2.3-.2.1-.5.2-.6.4-.6 1.8-1.9 3-3.1 4.4-.8.9-1.5 1.9-2.4 2.8-.8.8-1.6 1.6-2 2.7-.2.6-1 .7-1.3 1.4-.3.8-1.1 1.2-1.5 2-.2.4-.9.9-1.4 1.3-.2.2-.5.3-.4.7.1.5.5.3.8.3 1.2 0 2.7-.1 3.5-.6 1.1-.6 2.1-.3 3-.6h2.7c.4 0 .8 0 .7-.6.9-.2 1.8-.1 2.7-.2 2.6-.5 5.4.2 7.9-.5 3.3-1 6.7-.8 9.9-.4 2.6.3 5.1.1 7.6.6 1.6.3 3.3-.1 4.9.5-.1.5.1.6.5.6.7 0 1.3 0 2-.1 1.7-.2 3.3.7 4.9 1 2.6.5 5.1 1.3 7.6 2.2 1.4.5 2.8 1.4 4.4 1.3.7-.1.3.6.8.8.7.3 1.4.7 2.2.9 1.5.5 2.6 1.7 4 2.5.4.2.9.4 1.4.6.9.2.9 1.2 1.5 1.5 1 .6 1.8 1.3 2.7 2.1.6.6 1 1.5 2 1.4.1 0 .2.2.2.3-.2.9.7 1.4.9 2.1 0 .6-.2 1.4.9 1.2-.1 1.4.8 2.2 1.7 3 .3.3.3.6.3 1v3.1c0 .8.2 1.6-.7 2-.4.2-.2.7-.2 1-.1.5.4 1.3-.8 1.4-.4 0 0 1.1-.6 1.4-1.7-.3-1.1.4-1.2.9zm-35.2-180.1c-.1.7 0 1.1.8.9.1 1.1.7 2.1 1.2 3.1.3.6.6 1.1.7 1.7-.1.7 0 1.2.9 1 0 .3.1.6.1.9-.1.6-.1 1.3.8 1 0 .3.1.6.1.9.1.5-.5 1.4.6 1.5 0 .3.1.6.1 1 0 .6-.3 1.3.8.9.1.6.1 1.1.2 1.7.1.5-.4 1.4.8 1 .1.7.1 1.4.2 2.1v1.2c0 .7.3.7.9.5.1.9.1 1.7.2 2.6.1.4-.5 1.2.6 1.1 0 .9.1 1.9.1 2.8v2c0 .7.3.7.8.5 0 1.3.1 2.5.1 3.8v3.9c0 .6.3.7.8.5v11.5c-.5-.2-.8-.1-.8.5v5.5c-.1 1.4-.1 2.7-.2 4.1-1.2-.4-.7.5-.8 1.1 0 .9 0 1.8-.1 2.6-.2 1.2.3 1.3 1.3 1.3 3 .1 5.9-.5 8.9-.6.5-.1 1.4.5 1.5-.6.4 0 .8 0 1.1-.1 2-1 4.2-1.4 6.3-2.5 1.4-.8 3-1.3 4.3-2.4 1.5-1.3 2.9-2.8 3.9-4.6 1 .1.9-.6.8-1.3.1-.8.1-1.7.2-2.5.4.2.8.2.8-.4v-2.2c0-.6-.4-.5-.8-.5 0-.5-.1-1-.1-1.5.6-1.8-1.4-2.1-1.9-3.3-.1-.1-.2-.3-.3-.3-.2 0-.4 0-.5.1-.9.8-1.9 1.5-2.7 2.5-.1.1 0 .4-.1.6-.8.3-.9 1.3-1.7 1.6 0 0 0 .1.1.2-1.2.6-2.3 1.4-2.9 2.6-.5-.2-.8-.1-.8.5v2.3c-.5 1.4-.9 2.8-2.5 3.4-.1-.2-.2-.3-.3-.5.1-.4.1-.9.2-1.3.9.2.6-.5.6-.8 0-.3.5-1.1-.5-1-1.2.1-2.3.4-3.1 1.2-1.3 1.2-3.1 1.4-4.6 2.2-.5.3-.6-.3-.5-.5.4-.5.6-1.4 1.4-1.5 1.1-.2 2-.9 3-1.3 1-.5 1.8-1.4 2.8-1.9.6-.3 1.2-.3 1.1-1.2 0-.3.4-.3.6-.5.9-.9 2.4-.9 3.1-2.1.5-.9 1.4-1.4 2-2.1.6-.8 1.7-1.5 1.9-2.4.2-1 1-1.5 1.4-2.3.6-1 1.1-2.1 1.6-3.1.8 0 .7-.5.6-1 .1-.9.1-1.7.2-2.6.4.2.8.2.8-.4v-1.3c0-2.5.1-5.1 0-7.6 0-.8.5-1.9-.8-2.4-.1 0-.1-.4-.1-.7 0-.5-.1-1-.1-1.5 0-.4.4-.9-.4-1.1.1-.4-.3-.6-.3-.9.1-.6.2-1.2-.8-.9-.7-1-1.1-2.2-1.8-3.2-.9-1.2-1.7-2.4-2.8-3.4-.8-.8-1.5-1.8-2.3-2.4-1.5-1.1-2.8-2.5-4.4-3.4-1.8-1-3.4-2.4-5.2-3.3-.5-.2-1 0-1.3-.3-1-1.2-2.5-1.1-3.7-1.7-1.1-.6-2.2-1.1-3.4-1.5-1-.3-1.9-.9-2.9-1.3-1.2-.5-2.7-.5-3.9-1-2.1-1-4.3-1-6.5-1.3-.3 0-.7-.2-.8.2-.1.4.2.6.4.8.5.4 1.3 1 1.4 1.4.2 1.1 1.4 1.5 1.5 2.5.1.9 1.3 1.2 1.3 2.2-.1.7 0 1.2.9 1-.1-.2-.1-.1-.1 0zm-3.6-14.1c-.6.2-1.5-.6-1.8.6-1.4.2-2.8-.1-4.2.5-.3.2-.5.6-.4.5.9-.1 1.1.9 1.4 1.2.9 1.1 2.1.8 3.2 1-.1.3-.1.6.3.6h1.5c1 .1 2.1.1 3.1.4 1.1.3 2.2.6 3.2.7 1.1.2 2.2.5 3.3.7.7.1 1.5.5 2.1.8 1.2.7 2.6 1.1 3.8 1.7 1.7.7 3.4 1.5 5.1 2.2 1.5.6 3 1.2 4.4 2.1.9.6 2.1 1.1 2.8 1.8 1.3 1.5 3.4 2 4.6 3.6.1.1.2.4.5.5.8.2 1.3.9 1.9 1.6.4.4.4 1.5 1.5 1 1.2.2.9-.6.8-1.3.1-.6.1-1.3.2-1.9.4.2.8.2.8-.4V342c.1-.6.2-1.3-.8-1.1 0-.3-.1-.6-.1-1 .1-.6.2-1.2-.8-.9 0-1.7-1.6-2.4-2.5-3.6-.6-.8-1.6-1.5-2.4-2.1-.4-.3-.6-.9-1.4-1-.3 0-1-.2-1.4-.5-1.7-1.2-3.7-1.7-5.6-2.5-1.5-.7-3.2-.8-4.8-1.5-.5-.8-1.2-.4-1.9-.4-2.1-.4-4.3-.6-6.5-.6-.2-1.1-1-.4-1.5-.5h-8.4zM-49.1 433.4c0 .5-.4 1.4.8 1.1.1.7.1 1.4.2 2.1 0 .5-.3 1.1.6 1 .2.4-.1.9.4 1.2 1.2.7 1.5 2.1 2.5 2.9s1.6 2.1 2.8 2.7c1.2.6 2.1 1.6 3.5 2 1.7.5 3.1 1.5 4.9 1.8.9.1 2 .1 2.9.7.9.6 1.9.3 2.9.3 2.2 0 4.3.7 6.5.7-.2.4 0 .6.4.6h2.2c3.1.1 6.1.1 9.2 0h2.2c.4 0 .6-.1.4-.6 1.9-.1 3.7-.3 5.6-.6H.5c.4 0 .4-.3.3-.6.5-.3 1-.1 1.5-.2 1-.2 2.2-.2 3-.6.8-.5 1.8-.9 2.6-1.2 1.2-.4 2.5-.8 3.5-1.5 2.1-1.4 4.4-2.7 6-4.8.5-.6 1.4-.9 1.4-1.7 0-.7.4-.8.8-1.1.8.1.7-.5.6-1 .1-.4.2-.7.3-1.1 1-.1.7-.7.6-1.3-.1-.5.4-.9.2-1.4 1.3-.2.6-1.2.7-1.9.1-.2.1-.5.2-.7.4.1 1 .2.9.9 0 .2-.1.6.2.6s.5-.3.6-.5c1.3-1.1 2.8-1.9 3.8-3.4.3-.4.5-1 .9-1.3.6-.6 1.2-1.1 1.7-1.7.8-1 1.7-2 2.3-3.1.4-.8 1.4-1.2 1.4-2.2.9.2 1-.3.9-1 0-1.4 1-2.6.9-4 .5.2.8.1.8-.5 0-1.1 0-2.1-.1-3.2v-4.5c0-.7-.3-.7-.9-.6 0-.5-.1-1-.1-1.4v-1.4c0-.4-.2-.4-.6-.3-.1-.7-.1-1.4-.2-2.1.2-.7 0-1.2-.8-1-.1-.6-.1-1.1-.7-1.7-.4-.4-1-1-1.2-1.5-.3-1.3-1.2-2.2-2-3-1.1-1-1.8-2.5-3.3-3 .3-.9-1.1-.3-1-1.1.3.1.6.1.9 0 1.6.3 2.5 1.6 3.6 2.5 1 .8 1.9 1.8 2.7 2.8.3.4.8-.1.9.5.2 1.1 1.2 1.7 1.7 2.6-.2.7.1 1.1.8.9 0 1 .5 1.4 1.4 1.4 1-.1.3-.8.4-1.3 0-.5.3-1.2-.6-1.3-.3-.3-.3-.8-.4-1.2-.1-.5.5-1.5-.8-1.2.3-1.3-.7-2.2-1.2-3.1-1-1.8-2.3-3.6-3.7-5-1.3-1.4-2.7-2.9-4.3-3.9-1.7-1.1-3.5-2.3-5.3-3.3-.7-.4-1.5-.5-2.1-1-.4-.2-.4-.7-.9-.8-2.2-.5-4-1.8-6.2-2.3-1.5-.3-2.9-1-4.4-1.2s-2.9-.8-4.4-1c-.5-.8-1.3-.4-1.9-.4-1.5.1-2.9-.4-4.3-.5-4.6-.1-9.1-.1-13.7 0-.3 0-.7-.1-1 .1-2.1.8-4.3.3-6.4 1-2 .6-4 1.4-6.1 1.6-1.1.1-1.9 1.1-3.1 1-.4 0-.4.3-.4.6 0 .4.1.9.5.8.6-.1 1 .4 1.5.5 1.2.2 1.6 1.6 3 1.8.3 0 1 1.1 1.6 1.4 1.7 1 2.8 2.7 4.1 4 .7.6.3 1.6.9 2.1.9.8 1 2 1.7 3v1.2c0 .6.3.7.8.5.1 1.8.1 3.5 0 5.3-.4-.2-.8-.2-.8.4v1.3c0 .3-.1.6-.1.9-1.5 0-.7 1.1-.9 1.7.1.8-.9.7-1 1.4-.2 1.5-1.5 2.2-2.2 3.3-.4.5-.8.9-1.5 1.1-.6.1-.3 1.2-.8 1.3-1.2.4-2 1.4-3 2-1.1.6-2.2 1.1-3.4 1.6-1.9.9-3.9 1.6-5.9 2.2-1.2.3-2.3 1-3.5 1.1-2.5.2-4.9.8-7.4.6-.9-.1-1.8 0-2.8 0-.3 0-.6.1-.5.5.4 1.8.8 3.5 1.1 5.3-.2.7-.1 1.2.8 1 0 .7.6 1 .9 1.4.8 1.2 1.6 2.4 2.6 3.4 1.6 1.7 3.3 3.2 5.2 4.5 1.2.9 3.1.5 3.8 2.3 0 .1.3.1.5.1.3 0 .6.1.9.3 1.2.8 2.5 1.2 3.9 1.6 1.6.4 3.1 1.1 4.7 1.3.8.1 1.8 0 2.4.7.7.7 1.5.3 2.2.3.9 0 1.9.1 2.8.1-.2.5.1.6.6.6h2.9c.7 0 1.3.1 2 .1v.4h-7.3c-.5-.8-1.1-.1-1.6-.3.2.3.7.1.7.6 0 .6.5.4.8.3.4.4-.1 1.3.8 1.3-.2.9 1.1.4 1.1 1.2.1.8-.5.7-1 .8-2.2-.5-4.1-1.5-5.5-3.3.1-.6.2-1.2-.8-.9-.8-.8-2-.5-2.8-.9-2.2-1-4.5-1.3-6.8-2.1-2.1-.7-3.7-2-5.7-2.7-1.3-.5-2.5-1.6-3.6-2.6-.4-.3-1.2-.1-1.3-.9.1-1-.7-.5-1.1-.6-.5-.1-.5.3-.5.6 1 .6 1 1.7 1 2.8zm227.9-117.2h-.4c-1 1.1-2.4 1.6-3.3 2.8-.7 1-1.6 1.8-2.4 2.7-.8.8-1.7 1.5-2.2 2.5-.1.2-.5.4-.3.7.3.3.9.3 1 .1.6-.8 1.5-.4 2.2-.6h8.8c0 .5.3.7.8.6h2.2c.6 0 1.1 0 1.7.1.1.4.3.7.8.6h1.9c1.2.1 2.4 0 3.6.5.4.8 1.4.9 2.2.3 1.8.8 3.6 1.7 5.5 2.3 1.1.4 2.4.8 3.2 1.4 1 .7 2.1 1 3 1.9.6.6 1.2 1.2 1.8 1.6 1.1.7 1.6 1.8 2.6 2.5.1.6-.2 1.3.7 1.4 0 .4 0 .8.4.9.6.2.5.7.6 1.2.1 1.6.2 1.7 1.8 1.5.3 0 .5-.1.8-.2 1-.3 1.8-1.1 2.9-1 .6-.1 1.4.3 1.7-.7 1-.2 1.9-.7 2.8-1.1 1.5-.6 3-1.2 4.4-1.9 1.7-.7 3.2-1.7 4.6-2.7 2.3-1.5 4.4-3.4 5.9-5.6.4-.6 1.3-1 1.3-2 .9 0 1-.5.9-1.2v-.7c1.4-.1.8-1.2.9-1.9.1-1.7.1-3.3 0-5 0-.7.2-1.4-.9-1.3 0-.4-.1-.7-.1-1.1.1-.7-.1-1.2-.9-1.2v-.5c-1.2-.8-1.3-2.4-2.5-3.2-1.1-.7-1.7-2-2.8-2.7-2-1.3-3.9-2.7-6.1-3.8-.8-.4-1.7-1.2-2.4-1.3-2.3-.2-3.8-2.1-6-2.3-1.8-.1-3.4-1.2-5.3-1.1-.3-1.3-1.3-.4-2-.6-3.6-.2-7.1-.7-10.7-.6 0-.6-.3-.6-.8-.6h-2c-2.7 0-5.4-.1-8.1-.1 0-.6-.3-.6-.8-.6H167c-.5 0-.8.1-.8.6-1.8 0-3.6.1-5.5.1h-2.9c-.5 0-.7.2-.8.6h-4.9c-.5 0-1.1-.2-1.4.4-.9 0-1.7.1-2.6.1-.7.2-1.7-.6-2 .6-.9 0-1.7.1-2.6.1-.7.2-1.7-.6-2 .6-2.1-.2-4.1.6-6.2.6-.7.2-1.6-.5-2 .6-.8 0-1.5.4-2.3.5-2 .4-4.1.4-6 1.4-1 .5-2.1.9-3.2 1.3-.4.1-.3.4-.3.7-.1.3.1.4.4.5 1.2.6 2.3 1.2 3.5 1.7 1.6.8 3.2 1.1 4.9 1.4 1 .2 2.1 0 2.6 1.1.1.1.3.3.5.3 1-.1 1.9.4 2.9.5.2 1.1 1.1.6 1.7.7.6-.1.9.6 1.3.7 2.6.6 4.8 2 7.3 2.8.3.8 1.1.3 1.6.8.9.7 2 1.2 3 1.5 1.2.3 1.9 1.3 3 1.6 1.2.4 2.1 1.6 3.5 2.1.4.1.9.4 1 .7.5 1 1.6 1.2 2.3 1.8.9.8 2.1 1.4 3.1 2.2.9.7 1.7.7 2-.4l.3-.6c1.1-1.2 2.2-2.5 3.3-3.7 1.3-1.3 2.7-2.4 4.2-3.4.7-.5 1.7-.8 1.9-1.8.5-.4 1.4-.2 1.8-.7 1-1.1 2.4-1.7 3.7-2.3 1.8-.9 3.6-1.8 5.5-2.4 1.5-.5 3.1-1 4.5-1.6.8-.4 1.9-.1 2.5-.5 1.3-.9 2.8-.3 4.1-1 .3-.2.6.1.6.5s-.2.4-.5.5c-2.6.4-5.1 1-7.5 2.1-.8.4-1.7.2-2.5.7-.7.5-1.5.9-2.3 1.2-1.1.5-2.2 1.1-3.3 1.7-1.1.5-1.9 1.3-2.9 1.8-.3.5-.8.5-.7 1.3zM103 508.7c4.2.2 8.4-.3 12.7-.6.2 0 .5 0 .7-.2.9-.6 1.9-1 2.8-1.1 1.5-.2 2.8-.6 4.2-1.1.8-.3 1.4-.8 2.2-1 1.8-.5 3.6-1.3 5.1-2.5.8-.6 1.8-1.7 1.2-3.2-.4-.9-1-1.4-1.8-1.9-.6-.4-.8-1.1-1.8-.8-.8.3-1.5.9-1.7 1.3-.4 1.2-1.9 1.9-1.9 3.3 0 .1-.2.1-.3.2-1.1.8-2.3 1.5-3.4 2.4-.4.4-.9.6-1.5.8-.6.3-1.4.1-2 .6-.7.6-1.6.8-2.4 1.1-1.6.8-3.5.6-5.2 1-1.8.4-3.8 1.1-5.8 1-.4 0-.9-.3-1.1.4-2.8 0-5.6 0-8.4.1-.3 0-.7-.1-.7.4 0 .4.4.3.7.3h7.8c.4.1.7.1.6-.5zm59.3-173.8c-.1.2-.7.4-.3.7.5.5 1.9.1 2.3-.5 1.3-.1 2.4-.9 3.6-1.3.4-.1.2-1.1-.3-1.3-.6-.2-1-.6-1.2-1-.9-1.7-2.6-2.5-3.9-3.9-.6-.7-1.7-1.3-2.6-2-1.5-1-2.9-2.3-4.4-3.3-1-.7-2.1-1.3-3.1-1.9-.5-.3-.8-.9-1.4-1-2-.4-3.6-2.1-5.6-2.4-1-.1-1.6-1.1-2.6-1 0-.6-.3-.7-.8-.7-.8 0-1.4-.3-2-.9-.7-.6-1.6-1-2.6-.7.8 1 2.2 1.2 3 2.1.3.3.6 1.2 1.4.8.3.6 1.2.4 1.6 1 1.1 1.7 3.2 2 4.4 3.7.5.7 1.5 1.3 2.4 1.8.6.3 1.4.8 1.6 1.2.7 1.5 2.3 1.9 3.4 2.9.1.1.3.1.3.3.4 1.5 2 2.1 2.8 3.4.2.3.6 0 .9.4.8 1.5 1.9 2.7 3.1 3.6zM121 346c.6-.1 1.4.4 1.9-.4 1.6-.3 3.2-.7 4.8-.7 1.4 0 2.7-.6 4-1 1.5-.4 3-.4 4.5-.9.8-.2 1.6-.3 1.9-1 .4-.7-.7-.7-.8-1.1-.5-1.5-1.7-2.3-2.9-3-.7-.4-.7-1.3-1.4-1.7-1.1-.7-1.6-2-2.8-2.6-.1 0-.1-.2-.2-.3-.4-1-1.1-1.6-2.1-1.9-.7-.2-1.2-.7-1.4-1.1-1.3-2.1-3.7-2.9-5.4-4.4 0-.9-.9-1.2-1.4-1.4-1.5-.6-2.5-2-4-2.8-1.6-.9-2.9-2.4-4.7-2.9-.3-.1-.6-.4-.7-.6-.1-.7-.6-.7-1.1-.8-.3 0-.6-.1-.9-.2-1-.3-1.4-1.2-2.2-1.7-1.6-1.1-3.3-.3-4.7.2-.7.2-1.6.3-2.1.7-1.3 1.4-3.1.9-4.6 1.7-.5.3-.9.8-1.7.8-1.9.2-3.6 1-5.4 1.3-1.3.2-2.4 1.1-3.8 1-1.5-.1-2.7 1.1-4.3.8h-.1c-1.5.3-2.9 1.2-4.6 1-.5-.1-1 0-1.6 0-.6.1-.9.6-1.2 1-.1.2-.1.6.3.8 1.1.6 1.6 1.9 3 2.1.1 0 .2.1.3.2.4 1.2 1.5 1.7 2.3 2.4 2.2 1.9 4.2 3.9 6.2 6 1.1 1.2 2 2.9 3.8 3.4.1 0 .2.3.3.5.2.9 1 1.5 1.5 2.2.4.4 1.2.6 1.4 1.2.3.8.8 1.3 1.4 1.9.4.4 1.1.9 1.2 1.6.3 1.1 1.2 1.8 1.7 2.6 0 .7.4.7.9.7s1.1.2 1.1-.6c1.2 0 2.3-.1 3.5-.1.7-.2 1.6.6 2-.6 1.9 0 3.7-.4 5.6-.5 1.9-.1 3.7-.7 5.6-1 2.3-.1 4.6-.7 6.9-.8zm-179.4 67.1c1.1 0 2.1.4 3.1.4 5.9.3 11.7.4 17.4-1.7.5-.2 1.1 0 1.6-.5 1.2-1 2.8-1.1 4.2-1.9 1.4-.8 2.9-1.4 4-2.6.5-.6 1.2-1 1.8-1.4 1.2-.8 1.5-2.1 2.4-3.1.7-.7 1-1.6 1.5-2.5.5-.9.9-1.9 1.1-2.8.3-1.9.2-3.8 0-5.7 0-.4.2-.9-.3-1.2-.5-.9-.5-2-1.3-2.7-.8-.6-.8-1.6-1.3-2.4-1.3-2-3.3-3.4-5.2-4.9-1.3-1.1-3.2-1.3-4.5-2.6-.3-.3-.7-.1-.8.6 0 .8.7.6 1 .9.8 1 1.2 2.2 1.6 3.3.3.8 1 1.4 1 2.3.1 2.3.1 4.6-.1 6.8-1.2-.2-.8.7-.8 1.3-.5 1.3-.9 2.9-2 3.7-1.5 1-2.2 2.8-4 3.6-1.2.5-2.3 1.5-3.4 2.4-.9.7-2.1.7-2.9 1.4-1.1.9-2.3 1.4-3.7 1.4-.7.1-1.6-.4-2 .7-.9.1-1.7.6-2.7.5H-54c-.5 0-.8.1-.7.6-4.2.1-8.4.2-12.5 0-.3-.7-1.2-.9-2.2-.3-.8-.5-1.8-.1-2.6-.6-.2-.1-.5 0-.5.3 0 .2-.2.6.1.7 1.2.5 2.2 1.5 3.4 2.1 1.7.7 3.3 1.7 5.2 2 1.4.2 2.7 1.1 4.2 1.2-.2 1.2.7.5 1.2.7zm3.7-45.4h-.5c-.3-.5-.7-.7-1.3-.7-1.3 0-2.5-.6-3.7-1-1.4-.4-2.8-1-4.4-1-.2-.6.1-.7.6-.7h1.3c.6.1 1.2 0 1.9.2 1.7.8 3.5 1 5.3 1 1.2 0 2.4-.6 3.6-.5.6-.2 1.5.5 1.8-.6 1.5-.1 3-.2 4.5-.6 2.1-.5 4.4-.5 6.5-1.1 1.2-.4 2.5-.3 3.7-.6 1.1-.2 2.1-.9 3.3-.9.5 0 1.1.2 1-.6.3 0 .6 0 .9-.1.4-.1.9.3 1-.4.5 0 1.2.1 1.4-.1.8-.9 2.1-.8 3-1.5.8-.6 1.9-.7 2.9-1.1 1.6-.5 2.9-1.6 4.4-2.3 1.5-.6 2.9-1.7 4-2.8.7-.7 1.7-1.2 2.5-1.7 1.1-.7 1.5-1.8 2.5-2.5.4-.2 1.1-.1.9-.9 1 .3.8-.8 1.3-1.2.9-.6 1.5-1.5 2.2-2.3.6-.8 1.3-1.5 1.8-2.4.4-.7 1.2-.6 1.8-.4.4.1.2.8.1 1-.8 1-1.5 2.1-2.3 3-1.1 1.2-2.3 2.2-3.5 3.4-1.1 1.1-2.4 1.8-3.5 2.9s-2.5 2.1-3.9 2.8c-1 .4-2.4.9-2.9 1.5-1.3 1.5-3.1 1.5-4.5 2.4-1 .6-2.2.8-3.2 1.4-1.7 1.1-3.7 1.3-5.4 2.3-1 .6-2.4.7-3.6 1.2-1.4.6-3 .7-4.5 1.3-.5.2-.7.8-1.4.7-1.6 0-3.1.9-4.8.6-.1 0-.3 0-.5.1-1.3.8-2.6 1.3-4.1 1.3-.5 0-.8.3-1.2.4-.7.2-.7.7-.2 1.1.8.6 1.8.9 2.8 1 .1.5.3.6.8.7.8.2 1.7.3 2.2.9 1 1.2 2.6 1.1 3.6 2.1.9.9 2.3 1 3.4 1.5 1.2.6 2.5.9 3.9.5.5-.2.8-.7 1.4-.8 1.5-.2 2.9-.7 4.2-1.3 1.5-.6 3-.9 4.6-1.1.6-.1 1.4.4 1.7-.7.9 0 1.8-.5 2.6-.6 2.6-.3 5.1-.5 7.7-.6 2.7-.1 5.3 0 8 0 .2.4.5.4.8.4 1.5 0 3 .1 4.5.1h.9c.4 1.2 1.3.5 2 .6 1.7-.1 3.4.3 4.9.9.8.3 1.7.1 2.2.5.8.7 1.9.9 2.8 1.1 2.6.7 5 1.9 7.4 3.1 1.8.9 3.6 2.1 5.5 2.8.2.3.4.6.7.7.9.5 1.8 1.3 2.5 2 .8.8 1.7 1.6 2.4 2.5s1.5.5 2 .1c1.3-1.1 2.9-1.7 4.4-2.4 2.2-1.1 4.1-2.6 6-4 1.6-1.1 3.3-2.3 4.6-3.9 1.1-1.3 2.8-2 3.8-3.5.8-1.2 2.1-2 2.5-3.5.1-.2.2-.4.3-.5 1.2-.7 1.5-1.9 2.2-2.9.5-.7.6-1.9 1.1-2.2.8-.5.6-1.1.7-1.7.1-.4.2-.8.4-1.3.5-1.1 1.6-2.1 1.2-3.5-.1-.4 0-.8 0-1.2 0-.7 1.2-2.1 2-2.2.4-.1.9-.1.6-.6-.6-.8-1.2-1.6-1.9-2.4-.2-.3-.6-1.4-1.6-1-.1-.5-.2-1-.6-1.5-.7-1.1-1.9-1.7-2.6-2.8-.9-1.5-2.2-2.6-3.5-3.8-.4-.4-.7-1-1.4-1.1.3-.9-.6-.7-1-1-.9-.7-1.8-1.5-2.6-2.2-.6-.6-1.4-1.1-1.9-1.8-.5-.6-1.1-1-1.6-1.5-.9-.8-2.2-1.3-2.9-2.3-.7-.9-1.8-1.3-2.4-2.1-.7-.9-1.9-.9-2.6-1.8-.4-.6-1.3-1.1-2-1.1-3-.1-5.9-.1-8.9-.7-1.1-.2-2.3.1-3.4-.1-.8-.1-1.5-.3-2.3-.4-1.8-.3-3.6 0-5.4-.6-1.6-.5-3.3-1.2-5.1-.9-.1 0-.3 0-.5-.1-1.7-.3-3.3-1.1-5-1.1-1.6 0-2.8-.8-4.3-1.1-.8-.1-1.6-.7-2.3-.8-2.6-.3-4.9-1.2-7.3-2.2-.7-.3-1.6 0-2.1-.6-.6-.6-1.3-1-2-1.1-2.2-.4-4.2-1.5-6.2-2.4-.6-.3-.9-1.2-1.8-.8-1.2-.7-2.5-1.4-3.6-2.1-1.6-1-3-2.2-4.6-3.1-.8-.5-1.2-1.3-2-1.7-1.3-.7-2.2-2-3.2-3.1-.3-.4-.6-.7-1-1.1-1-.9-.9-.1-1 .5-.1.5.2 1.3-.4 1.5-.7.2-.6.7-.6 1.1-.1.4 0 .7-.4 1-.9.8-1.2 2.1-2.1 3.1-.5.6-1.2 1.3-1.6 2-.5 1-1.6 1.7-2 2.8-.3.9-1.1 1.4-1.5 2.2-.5.9-1.5 1.6-2.1 2.4-.9 1.3-2 2.6-3.1 3.5-1.4 1.1-2.4 2.6-3.9 3.5-.9.6-1.6 1.4-2.5 2.1-.6.4-.7 1.3-1.3 1.4-2 .4-3 2.3-4.8 3-.9.4-1.6 1.5-2.4 1.9-1.7 1-3.6 1.7-5.3 2.8-1.5 1-3.3 1.5-4.9 2.4-1.4.7-3 1.1-4.3 2.3-1 .9-2.7 1.2-4 2-1.4.9-3.2 1.5-4.8 2.1-1.5.6-3 1.1-4.3 2-1.5.9-3.1 1.5-4.6 2.2-1.5.7-2.9 1.4-4.3 2.4-.7.5-1.3 1.1-2 1.5-.8.4-1.7.8-2.6 1.3-1.5.8-2.8 1.8-4.2 2.8-1.1.9-2 2.1-2.7 3.3-.5 1-1.4 1.9-1.2 3.2 0 .1 0 .2-.1.2-1 .6-.7 1.5-.8 2.4-.6 0-.9.2-.9.9.1 1.1.1 2.1 0 3.2 0 .7.3.9.9.9 0 .4 0 .8.1 1.2 0 .7-.2 1.5.9 1.5v.5c-.1.7.1 1.2.9 1.2 0 .5.2.9.4 1.3.5 1.1 1.7 1.7 2.4 2.6.8 1.1 2 1.9 3.1 2.6 1 .7 1.6 2 2.9 2.5 0 0 .1.1.1.2 0 .9.7 1 1.3 1.1.3.1.5.1.6.4.3 1.1 1.6 1.4 2.2 2.3.3.5 1.4.8 1.9 1.5.2.3.3.6.8.8 1.1.4 2 1.4 3.3 1.5.2 0 .4.4.6.6.3.6.8.9 1.5 1 .2 0 .4 0 .6.3.5.8 1.4 1.2 2.2 1.5 1.5.6 2.8 1.4 3.9 2.3 1.1.9 2.4 1.2 3.5 2 1 .8 2.5.9 3.5 1.7 1.2.9 2.5 1.4 4 1.4.3 1.2 1.3.5 1.9.7.8 0 1.7.1 2.5.1 0 .3 0 .6.4.6 2.1.1 4.3.4 6.4.3 1.9-.1 3.8-.1 5.7-.4.3 0 .7 0 .9-.2.8-.8 2-.9 2.9-1 2.6-.4 4.9-1.6 7.4-2.3 1-.3 1.4-1 2.1-1.5.4-.3 1.1-.1 1.4-.5.7-1.2 2.1-1.8 3.1-2.7.9-.9 1.7-1.9 2.2-3 .4-1 1.5-1.8 1.1-3.1 0-.1.1-.2.1-.2 1.1-.2.7-1.1.8-1.7.1-1.2 0-2.4 0-3.6 0-.3 0-.8-.1-.8-1.1-.4-.7-1.3-.8-2-.1-.4 0-.9-.2-1-1.3-.7-1.1-2.5-2.3-3.3-.5-.4-1.1-1.4-1.7-1.9-1.5-1.2-2.9-2.6-4.7-3.4-.8-.4-1.6-.8-2.3-1.2-1.7-.9-3.4-1.7-5.2-2.2-.9-.3-1.6-1.1-2.6-.9.2.4.1 0-.4.1zM71.2 513.2c-.4 0-.8 0-1.1.3-.2.3-.8 0-.8.6 0 .5.7.1.8.7-.7.3-1.3.7-1.6 1.5-.1.3-.1.6-.5.6s-.5-.2-.5-.5c0-.4-.4-.8-.6-.5-.4.6-1.3.5-1.3 1.3-.1.8.1 1.3 1 1.5-.9.5-1.6.8-1.7 1.8 0 .3-.2.4-.5.4s-.4-.2-.4-.5c-.2-1-.5-1-1-.2-.2.3-.7 0-.8.4.1.4.8.1.8.6s-.5.3-.7.5c-.8.7-1.3-.1-1.8-.5-.3-.3-.7-.5-.9-.1-.4.8-1.3.7-1.5.4-.4-.5-1.5-.5-1.3-1.6.1-.3.2-.9-.5-.9-.6.1-1 .6-1.3 1-.4.5.6.3.7.7-1.1.7-1.1 1.3 0 2.1.8.6 1.6 1.4 2.5 2 .5.3.2 1 1 1.3s1.7 1 2.1 1.7c.7 1.3 1.8 1.8 3.1 2.1.3.1.4.2.7.4 1.1.8 2.2 1.6 3.3 2.2 1.3.7 2.6 1.1 4 1.7l.6.3c.8.6 1.9.9 2.8 1.2.5.2 1.2.2 1.5.6.7 1.1 1.9.8 2.8 1.2 1.9.9 4.1 1.3 6.1 2 1.2.4 2.6.8 3.9.7.4 0 .8-.1 1.2.2 1 .7 2.2 1 3.4 1 .5 0 1.3-.1 1.5.1 1 1.2 2.4.5 3.6 1.2 1 .6 2.7.2 4 .6 1.6.4 3.3-.2 4.9.7 1 .5 2.5.4 3.8.7 2 .5 4.1.5 6.1.5 9.2.2 18.4.6 27.6-.3 1.4-.1 2.8 0 4.2-.5 1.6-.6 3.5-.4 5.4-.8 2.4-.5 5 .1 7.3-1.3 1.9.3 3.5-.9 5.4-.8.5 0 1.1-.2 1.6-.3.9-.1 1.5-.9 2.3-.8 2.5.3 4.5-1.7 6.9-1.4.1 0 .2 0 .2-.1 1.3-1.1 3-.9 4.5-1.7.9-.5 2-1.1 3.1-1.2 1.5-.2 2.5-1.8 4.1-1.6.1 0 .3-.2.3-.3.1-.8.7-.7 1.3-.8.5-.1 1 0 1.5-.3 1.7-1 3.4-1.9 5.1-2.9 1.1-.6 2.1-1.3 3-2.2 1.2-1.3 2.7-2.3 3.7-3.7.3-.4.7-.1.9-.6.5-.9 1.1-1.8 1.8-2.7.2-.3.8-.1.9-.8.1-.8 0-1.5.8-2.2.6-.6 0-2.2 1.1-2.9-.3-2.1 1-4.5-.9-6.5-.2-.2.1-.9-.2-1.1-1-.5-1.1-1.7-1.8-2.3-1-.9-1.6-2.3-2.9-2.9-1.4-.6-2-2-3.3-2.7-.7-.4-1.3-1.2-2-1.4-2.5-.7-4.6-2.3-7.1-3-1.4-.4-2.7-1.3-4.1-1.6-1.9-.4-3.8-1.2-5.8-1.3-.1 0-.2 0-.2-.1-1.3-1-2.9-.9-4.3-1-2.3-.2-4.5-1.2-6.8-.9h-.1c-1.4-.7-2.8-.4-4.2-.3-1.5.1-2.7-.8-4.1-.7-2.7.2-5.4-.1-8.2.4-2.7.5-5.7.5-8.5.7-1 .1-2.1-.3-2.9.2s-1.6.4-2.4.6c-1.6.2-3.1.5-4.7 1.1-1.4.5-2.8 1-4.2 1.2-.8.1-1.1.7-1.8.9-.4.1-.2.8.1.9 1.3.2 1.9 1.4 2.8 2.1.9.7 1.8 1.4 1.7 2.7v.8c-.2 1.1.7 1.3 1.2.9.7-.6 1.5-.4 2.2-.7 1.5-.7 3-.9 4.5-1.1.2 0 .5 0 .7-.2 1-.9 2.3-1 3.4-1.2 2.6-.3 5.2-.9 7.8-1.4.2 0 .5-.4.7-.1s.2.9 0 1c-.8.2-1 1-1.7 1.3-1.5.7-3.1.6-4.7.9-1.5.2-2.9 1.1-4.4.9-.1 0-.2.1-.3.1-1.3 1.4-3.3.8-4.9 1.6-1.4.7-3.3.8-4.7 1.5-1.6.7-3.2 1.3-4.6 2.3-1.4 1-3.1 1.4-4.7 2.1-1.2.5-2.5.4-3.7 1.2-.8.5-1.8.8-2.7 1.1-1.2.5-2.2 1.3-3.5 1.6-.5.2-1.3.2-1.7.6-1.3 1.2-3.2 1.1-4.5 2.2-.4.3-.9.6-1.4.8-1.3.5-2.5 1.4-3.7 2.2-.6.4-1.2.8-1.9.9-.3 0-.7.1-.7-.4 0-.3 0-.5.4-.8.7-.5 1.4-.8 2.2-1.1 1.3-.4 1.8-1.9 3.4-2.4 1.4-.4 2.7-1.6 3.9-2.9h-1.6c-2.3.1-4.6.2-6.9.4-4.7.4-9.4-.1-14.1-.4-1.4-.1-2.8-.1-4.2-.5-1.8-.5-3.8-.3-5.7-.9-.4-.1-.8-.2-1.1-.2-1.2-.3-2.3-.5-3.5-.9-1-.3-2.1.1-3.1-.5-.3-.2-.9-.2-1.5.1.9.5 1.5 1.2 2.8 1.1-.6.4-1.1.3-1.4.4-.4.1-.5.5-.2.6 1.6.5.2.8-.1 1.1.2.3.8.1.8.5s-.3.4-.6.4c-.8-.3-.7.1-.7.3zm-56.1 21.4c-.2-.7.6-.6.9-1-.6-.3-1.2-.1-1.7-.2-.6-.1-1.2.1-1.9-.4-1.2-.7-.7-2.2-1.8-2.9-.3-.2-.5-.5-.9-.6-.7-.1-.8-.1-.3-.7.2-.3 0-.4-.2-.5-.3-.2-.4-.4 0-.6.4-.2.6-.3 0-.6-.4-.2-.3-.5.1-.7.2-.1.4-.3.3-.4-.7-.4-.5-1.7-2-1.6-1.2.1-2.2.6-3.3.8-1.1.2-2.2.3-3.2.4-2.3.1-4.5 1.1-6.9.9-2.1-.2-4.2.1-6.3-.1-3.2-.2-6.4.5-9.6-.6-1.2-.4-2.7-.1-4-.6s-2.7-.9-4-1.1c-1.4-.3-2.5-.9-3.8-1.4-1.7-.7-3.3-1.6-4.6-2.7-1-.8-2.8-1.2-3-3 0 0-.1-.1-.2-.1-1.5-.4-1.6-1.5-1.6-2.7v-1.7c0-1.1-.5-1.4-1.5-.9-.9.4-1.9.4-2.8.8-1.3.5-2.9.2-4.4.7-2 .6-4.2.7-6.2 1.2-2.2.4-4.3 1.3-6.6 1.5-.2 0-.5.3-.7.4-.9.5-1.8 1.1-2.7 1.3-1.1.3-2.4 0-3.4.9-.7.7-1.7.5-2.6 1-1.4.8-3 1.5-4.5 2.1-1 .4-2 .9-2.9 1.4-1.3.8-2.7 1.6-3.9 2.7-1.1 1-2.5 1.8-3.7 2.7-.6.5-.9 1.3-1.7 1.7-.5.3-1.5.5-1.6 1.3-.2 1.5-2 1.4-2.5 2.7-.2.6-1.3.8-1.6 1.7-.2.4-.4 1-.7 1.3-.8 1-1.9 1.8-2 3.3 0 .1-.3.2-.4.2-.4.1-.4.4-.4.6-.2 1.3-1.1 2.5-.8 3.9 0 .1-.1.3-.1.3-.9.1-.7.9-.8 1.5 0 .3 0 .7-.5.7-.4 0-.4.3-.4.6v4.9c0 .2 0 .4.1.4 1.2.3.6 1.3.8 2.1.2.8-.4 1.8.8 2.2.1 0 .1.3.1.4-.3 1.4 1.1 2.3.8 3.7 0 .1.1.2.2.3 1.3.8 1.5 2.4 2.6 3.2.9.7.5 2.1 1.7 2.7.3.1.8.1.9.6.5 1.3 2.2 1.5 2.7 2.9.2.4 1.1.6 1.6 1 1.9 1.7 4.2 2.8 6.4 4.1 1.3.8 2.9 1 4.1 1.8 1.4.9 3.1 1.2 4.6 1.9 1.3.6 2.9.8 4.2 1.3.8.3 1.7.2 2.4.6 1.3.7 2.8.8 4.1 1.2.8.2 1.6.1 2.5.4 1.1.4 2.2.5 3.3.7 3 .6 6.1.4 9.1.7 3.9.4 7.8.5 11.8-.3 3-.6 6.1-.2 9.2-.8 2-.4 4.1-.8 6.3-.7.1 0 .3 0 .3-.1 1-1.2 2.6-.5 3.8-1.2 1.9-1 4.2-1.2 6.3-1.8.5-.1.8-.8 1.5-.7 1.2.2 2.3-.6 3.3-1 1.3-.5 2.6-1.1 3.9-1.6 1.9-.8 3.9-1.7 5.8-2.6 1.9-.9 3.6-2.3 5.3-3.5 2.1-1.5 4.4-2.8 6.1-4.8.3-.4.6-.9 1.1-1.1 1.1-.4 1.7-1.5 2.3-2.4.7-1 1.4-2 2.2-2.9.4-.5.2-1.2.8-1.6 1-.6 1.7-1.5 1.6-2.7 0-.3-.1-.7.2-.8 1.1-.2.7-1.1.8-1.7.1-.4.3-.8.4-1.1.2-.9 1.2-1.2 1.2-2.2v-6.9c0-.3 0-.9-.1-.9-1.1-.3-.7-1.2-.8-1.9-.1-1 0-2.1-.1-3.1 0-.3.2-.8-.3-.9-.4-.1-.9-.2-1.2.2-.6.9-.9.6-1-.3 0-.3-.2-.4-.5-.4-.4 0-.5.3-.5.6v1.3c0 .2-.1.4-.3.4s-.3-.2-.4-.4v-.7c0-.3 0-.6-.3-.7-.3-.1-.5 0-.7.3-.3.5-.5.3-.9.1-1-.5-1.5-1.6-2.7-1.7zm73.4-60.7c-.7.7-1.4.3-1.7.7-1 1.2-2.4 1-3.6 1.2-.3 0-.8 0-.9.2-1.1 1.5-3 1.5-4.3 2.4-.3.2-.7.6-1.3.5-1.4-.2-2.5 1.2-4 .8-.1 0-.2 0-.2.1-1.1 1.6-3.1.7-4.5 1.7-.7.5-1.8.9-2.9 1.1-1.2.1-1.1 1-1.1 1.9 0 .8.8.9.9 1.3.7 2.1 2.7 2.7 4.3 3.4 1.1.5 2.2 1.1 3.2 1.7.6.4.7.9.4 1.3-.3.5-1.3.4-1.5 0-.5-.9-1.4-.7-1.8-.4-.7.5-1.4 1.5-.8 2.4.6 1 .8 2.3 2.3 2.6.4.1 1.1.4 1.6.7.5.4.6 1.2 1.3 1.5.1.1.1.5-.1.6-.2.1-.5.1-.7-.1-.7-.5-1.4-.3-2.2-.3-.5 0-.7.4-.4.7 1.1 1.1 2.4 2.2 3.9 2.9.4.2 1.2 0 1.4.2.5.9 1.6 1 2.2 1.1 1.6.4 3.1.7 4.7 1.2 1.5.5 3.2.3 4.9.7 1.9.5 4.1.2 6.1.5 1.9.3 4 .1 6-.2 2.7-.5 5.6-.1 8.4-.8 1.8-.4 3.5-1.3 5.5-1 .1 0 .2-.1.3-.2 1.2-.5 2.4-1.3 3.7-1.5 1.7-.2 2.8-1.1 3.8-2.4.7-.9 1-2.3 2.3-2.6 1.1-.2 1.6-1.2 1.9-1.7.6-1.1 1.5-2.1 2.2-3.1 1.6-1.9 2.9-4 4.4-6 .6-.8 1.1-2.1 1.8-2.5 1.6-.7 1.7-2.3 2.6-3.3.7-.8 1.2-2.2 1.9-2.4 1.5-.5 1.7-1.8 2.3-2.8.3-.6.9-.8 1.1-1.3.5-1 1.1-1.9 2.1-2.4.2-.1.5-.1.5-.4.1-1.6 1.7-2.3 2.3-3.6.4-.9 1.3-1.6 1.9-2.5.5-.8 1.1-1.6 1.6-2.2.8-.8.7-2 1.6-2.7 1-.9 1.4-2.4 2.3-3.5.5-.5 1-1.2 1.3-1.8.6-1.3 1.5-2.5 2.3-3.7.9-1.4 1.7-3 2.9-4.3.6-.6 1-1.5 1.4-2.4.7-1.5 2.2-2.6 2.5-4.3 0-.1.2-.2.3-.4.6-.8 1.1-1.6 1.7-2.4.9-1.2 1.4-2.7 2.4-3.9.3-.3 1-.2.9-.9-.1-1.1 1.1-2 .8-3.2 0-.1.2-.2.3-.4 1-1.2 2.4-2 2.6-3.8 0-.1.1-.2.2-.3 1-.5 1.2-1.5 1.4-2.5.1-.3 0-.7.5-.8.4 0 .5-.4.4-.6-.4-1.3 1.3-1.8 1.1-3.1 1.3-.2 1-1.6 1.4-2.3.6-1.1 0-2.8 1.1-3.9.9-.9 1-2.2 1-3.5 0-.1.1-.4.1-.4 1.1-.2.7-1.2.8-1.8.1-.5-.2-1.2.1-1.5 1-1.2.5-2.5.6-3.8 0-.5 0-1.4.2-1.5 1.2-.5.7-1.4.7-2.1.1-1.3.1-2.6.1-4 0-.3-.1-.7.3-.8.7-.1.6-.6.6-1v-16.5c0-.3 0-.9-.1-.9-1.2-.5-.7-1.5-.7-2.2-.1-2-.1-3.9-.2-5.9 0-.3.2-.8-.3-.8-.7-.1-.7-.6-.6-1.1.2-1.9-1.1-3.6-.8-5.5 0-.2-.1-.4-.3-.4-.7-.1-.5-.6-.6-1 0-.6.1-1.7-.2-1.8-1-.6-.8-1.4-.9-2.2 0-.2-.1-.4-.1-.4-1.1-.1-.8-1-.8-1.6 0-1-1.1-1.7-.8-2.8 0-.2-.3-.3-.5-.3-.4 0-.5-.4-.4-.6.4-1.3-.7-2.1-1.2-2.8-.8-1-1.2-1.9-1.5-3.1 0-.2-.1-.4-.2-.4-1.1-.4-1-1.6-1.7-2.3-.3-.3-.9-.5-1-1.2-.1-1.1-1.1-1.7-2.2-1.7-1.2 0-1.9 1.2-3.2.9-.4-.1-.8 0-.8.6 0 .5-.3 1.1.4 1.3.3.1.5.3.5.6-.1 1.6 1.5 2.2 2 3.5.4.8 1.1 1.8 2.1 2.4.4.2.1 1.2.8 1.6 1.1.7 1.3 2.1 2.2 3 .3.3.2 1 .9 1.2.2.1.2.7.1.8-.9.5-1.5 1.4-2.6 1.5-1.8.2-3.5-.3-5.3.6-1 .5-2.4.4-3.7.7-1.8.4-3.6.8-5.5.7-1-.1-1.8.7-2.7 1-.6.2-4 .7-4.5.2-1.6-1.3-3.4-2.4-3.8-4.7 0-.1-.1-.2-.2-.3-1.1-1-1.8-2.3-2.5-3.2-.4-.6-.7-1.4-1.2-1.7-1.2-.9-2.3-2.7-4.2-1.4h-.2c-1.5-.2-2.8.7-4.3 1-1.7.2-3.4.6-5.1.9-1.6.3-3.1.9-4.7 1-1 .1-2.1.4-3 .2-1.2-.1-1.9 1-3 .8-1.7-.3-3.2.6-4.7.9-1.9.4-3.8.4-5.7.8-2.4.5-5 .9-7.6.7-.8 0-1.3.6-1.7 1-.3.2.3.8.8 1 .1 0 .1.2.1.3-.2 1.1.9 1.5 1.2 2.4.4 1.1 1.7 1.9 1.8 3.3 0 .1.1.2.2.2.9.5 1 1.4 1.3 2.2.2.4.3.7.6 1.1.5.7 1 1.6 1.4 2.5.1.1 0 .4-.2.5-1 1.1-2.3 1.8-3.7 1.9-2 .1-4 .2-6 .1s-3.8 1.1-5.9.8c-.1 0-.3 0-.5.1-1.6.6-3.4.4-5.1 1-1.6.5-3.5.2-5.3.1-.8 0-1.5-.1-2.1-.7-.8-.8-1.8-1.6-2.1-2.7-.2-1.1-1.6-1.7-1.2-2.9 0 0-.2-.1-.3-.2-.7-.4-1.1-1.2-1.2-1.8-.2-1.3-1.2-1.9-1.7-2.9-.5-1.1-1.9-1.7-2.1-3.1-.1-.6-.9-.8-1.4-.8-.7-.1-.4.6-.5 1-.2.8.4 1.8-.8 2.2-.1 0-.2.4-.1.5.3 1.3-1 2.2-.8 3.4 0 .1-.1.2-.2.3-.9 1.2-1 2.9-2.4 3.7-.1.1-.1.4-.2.5-.6 1-.8 2.3-2.2 2.8-.6.2-1.3 1.2-1.3 1.8-.1 1.5-1.8 1.8-2.1 3-1.1-.2-1.5.6-2 1.3-1.2 1.7-3 2.7-4.5 3.9-1.7 1.3-3.5 2.5-5.2 3.7-2.2 1.6-4.6 2.8-7 4.1-1.2.7-1.3 1.7-.4 2.8.7.7 1.4 1.4 1.5 2.7.1.9.7 1.9.7 3 0 .1.2.3.3.3.6.1.5.5.5.9v16.5c0 .3 0 .8-.1.8-1.2.3-.6 1.2-.8 1.9-.1.5-.1 1-.5 1.6-.4.6-.9 1.3-1.1 2-.4 1.6-1.6 2.8-2.4 4.1-.6 1-1.5 1.7-2.3 2.5-2 2-4.1 3.9-6.6 5.3-.8.4-1.2 1.5-2.4 1.3 0 0-.1.1-.1.2-.9 1.2-.9 2.7-1.5 4.1-.7 1.5-1.6 2.9-2.4 4.3-.2.4-.2 1.2-.7 1.2-1.6 0-2 1.5-3 2.2-1.7 1.3-3.7 2.1-5.5 3.2-1.1.7-2.6.2-3.6 1.2-.9.9-2.2.4-3.3 1.1-2 1.2-4.6 1.3-6.9 1.9-2.6.7-5.4.1-8.2.7-1.9.4-4.1.2-6.2-.3-2.7-.7-5.6 0-8.4-.9-.6-.2-1.4-.1-2-.1-1.9 0-3.5-1-5.3-1.4-1.9-.5-4-1.1-5.8-2.1-.4-.2-.9-.3-1.3-.7s-.8-.7-1.3-.8c-1.1-.3-2.1-1-2.9-1.7-.8-.8-1.7-1.5-2.5-2.1-1.2-.9-1.6-2.2-2.5-3.2-.6-.7-.9-1.4-1-2.2 0-.1-.2-.1-.3-.1-.5 0-.5-.5-.5-.8V431c0-.4 0-.7.5-.9.6-.3.7-1.9.1-2.2-.9-.5-1.3-1.3-1.4-2.2 0-.3 0-.8-.2-.9-1.1-.9-1.9-1.8-1.8-3.3 0-.1-.1-.4-.2-.4-.9-.1-.8-.8-.7-1.3.2-1.3-.9-2.3-.7-3.5 0-.3-.2-.4-.5-.4-1.9-.1-3.7-.8-5.6-1.3-1.7-.5-3.5-.6-5.2-1.3-1.8-.8-3.5-1.6-5.1-2.7-.6-.4-1.1-.4-1.6-.3-.6.1-.3.7-.3 1.1v21c0 .3 0 .8.1.8 1.1.3.7 1.2.7 1.8.1.8-.1 1.7.1 2.5.3 1.5-.8 3.3.9 4.6v.2c.3 1.9-.6 3.9 1 5.5-.4 2.3.9 4.5.8 6.8 0 .3-.1.7.2.8 1 .1.6.8.7 1.4.1.8-.3 2 .2 2.3 1 .5.6 1.2.7 1.9.1.3-.1.8.2.9 1.1.2.8 1 .7 1.6-.1 1.5 1.3 2.4 1.2 3.9 0 .3.4 1 .5 1.6.1.4-.1.9.2 1 1.1.3.7 1.1.8 1.7.1.3 0 .7.3 1 .8.8 1.3 1.8 1.7 2.9.4 1 .8 2 .8 3.1 0 .2.2.2.3.3.6.7 1.2 1.4 1.6 2.3.4.9.7 1.9 1.2 2.7.5.7.1 1.7.7 1.9 1 .3.6 1.6 1.6 1.7-.2.8 1.1.4 1 1.1-.4 1.8 1.3 2.8 2.1 3.9 1 1.5 2.1 3.1 3.2 4.6 1 1.4 2.2 2.6 3.2 3.9.7.9 1.7 1.5 2.3 2.4.9 1.3 2.1 2.2 3.3 3.2.8.7 2 1 2.7 2s2.1 1.2 2.5 2.6c.3.8 1 1.5 1.9 2 2 1 4 1.9 6.2 2.4.6.2.8.8 1.6.8 1.7-.2 3.2.7 4.8.9 1.2.1 2.5.4 3.6.3 1.3-.1 2.3.8 3.6.8h5.7c2 0 3.9-.1 5.9 0 1.9.1 3.7-1.1 5.6-.8.1 0 .3 0 .4-.1 1.7-1 3.6-1.2 5.4-1.6 1.9-.4 3.7-1 5.4-1.9 1-.5 2-1.1 2.7-1.8.6-.5 1.2-1.3 1.8-1.4 1.3-.1 2.2-1.1 2.6-1.9.6-1.3 2.2-1.7 2.5-3.1.2-.7 1.1-.5 1.3-1.1.3-1.3 1.6-1.7 2.4-2.5.6-.6 1.5-1.3 2.1-2 1.6-1.6 3.6-2.5 5.2-4 1-.9 2.1-1.6 3.2-2.3 1.1-.7 2-1.7 3.2-2.2 1.7-.6 3.2-1.8 4.7-2.7 1.7-1 3.5-1.6 5-2.8 1.2-1.1 3-.9 4.4-1.9s3.3-1 4.8-2c.9-.6 1.9-.6 2.9-.9 1.8-.5 3.3-1.7 5.2-1.9.6-.1 1.5-.2 2.1-.5 1.3-.7 2.7-1.1 4.2-1.1 1.3 0 2.3-1.1 3.7-.8.1 0 .2-.1.2-.2.1-.8.8-.7 1.2-.7 1.6-.1 3.1-1.1 4.8-.9.1 0 .3-.1.4-.1 1.9-1.9 3.1-1.3 4.6-1.4zm-45.4-148c.2.3.4.3.6.3.8.4 1.7.6 2.2 1.2.5.6.9 1.2 1.6 1.6.8.4 1.5 1 2.2 1.6.9 1 2.2 1.7 3.2 2.6.6.6 1.6.8 1.8 1.4.5 1.5 1.8 2.1 2.8 3 .6.5 1.3 1 1.7 1.6.7 1 1.4 1.8 2.2 2.6.6.6 1.2 1.3 1.5 1.9.4.8.9 1.1 1.5 1.5.2.1.3.1.5.3.8 1.5 1.5 3.2 3.2 4 .3.2.4.6.5.9.4 1.1 1.4 1.9 2 2.9.4.6 1 1.3 1.4 1.9.7 1 .9 2.5 1.9 3.3.6.5.6 1.5 1.2 1.7.6.3.6.6.6 1.1 0 .3-.1.7.2.8 1.6.7 1 2.9 2.4 3.7-.3 1.1 1.2 1.2 1.1 2.2 0 0 .4.1.7.1.8.2 1.2-.7 1.8-.7 1.4.1 2.8-.5 4.2-.6 1.5-.1 3.1.5 4.4-.7.2-.1.5 0 .8 0 1.8-.2 3.7.3 5.5-.6.9-.5 2.3-.1 3.4-.1.5 0 1.3.3 1.6-.3.3-.7-.3-.8-.8-1l-.1-.1c0-1-1.5-1.4-1.1-2.6 0-.1-.1-.2-.2-.2-.9-.4-1.2-1.3-1.3-2-.1-1.1-.9-1.4-1.5-2-.6-.7-1.4-1.5-1.4-2.1 0-1.8-1.7-2.4-2.1-3.9-.3-.8-1.5-1.3-1.7-2.5 0-.2-.4-.2-.4-.4-.2-.5-.9-.3-1.1-.8-.7-1.6-2.8-2.4-2.8-4.4 0-.1-.1-.2-.1-.2-1.3-.7-2.2-1.7-3.1-2.8-.7-.9-1.6-1.5-2.3-2.4-1.6-2.1-3.8-3.6-5.5-5.6-1.1-1.2-2.7-2.1-4-3.3-1.2-1.1-2.5-2.1-3.7-3.2-1.1-1-2.3-1.5-3.7-1.4-1.2.1-2.5-.2-3.6.7-5.4-.2-10.8.5-16.2.7-.6.1-1.3.1-2 .3zm126.5 25.6c1 0 .8.1.4-1.2-.2-.7-1.1-.8-1-1.3.2-1.2-1.5-1.4-1.2-2.5-1-.4-1-1.5-1.6-2.1-.5-.5-.8-1.1-1.3-1.5-.6-.5-1.1-1.1-1.6-1.7-.6-.9-.8-2.3-1.8-2.7-1.5-.6-1.9-2.2-3.1-3-.5-.4-1.2-1.1-1.4-1.8-.2-.8-.4-1.3-1.3-1.3-.3 0-.5-.3-.6-.5-1.4-1.6-3-3.1-4.6-4.4-1.7-1.3-2.9-3.1-4.8-4-1-.5-1.8-1.4-2.6-2.2-1-1-2.3-1.7-3.4-2.6-1.4-1.1-2.8-2.1-4.3-3-1.7-1-3.2-2.3-5.1-3.1-1.7-.7-3-2.1-4.8-2.6-.4-.1-.9-.3-1.3-.8s-1.1-1.1-2-1c-.5.1-1-.4-1.4-.7-.7-.7-1.6-1-2.5-.8-.6.1-.9.8-1.4 1.1-1.9 1.1-3.8 2.4-5.9 3.3-.5.2-1 .5-1.5.7-.5.2-1.1.4-1.6.5-.4.1-.6.4-.7.8-.1.2 0 .4.2.5.8.2 1.4.7 2 1.2 1.7 1.1 3.5 1.9 5.2 3.1 1.8 1.3 3.6 2.6 5.5 3.7 1.8 1 3.1 2.7 5 3.6 1.3.6 2.6 1.9 3.7 3.1 1.3 1.5 3.1 2.5 4.3 4.1.9 1.3 2.5 1.9 3.3 3.4.4.8 1.1 1.4 1.8 2 .6.5 1.2 1 1.6 1.6.4.6.4 1.6 1.1 1.8 1.4.4 1.7 1.7 2.4 2.7l2.1 3c.4.5 1.1 1.2 1.5 1.7.8 1.2 1.8 2.2 2.4 3.4.4.8 1.4 1.3 1.4 2.3 0 .5.3.4.7.5.9 0 1.7-.5 2.5-.6 1.6-.1 3-1.3 4.6-.9h.1c2.3-.4 4.6-1 6.9-1.1 1.4.1 2.5-.8 4.1-.7zM14.9 516.6c-1.2-.5-2.4.1-3.3.6-.9.5-1.9.7-2.8 1.1-1.9.7-4 .3-6 1.2-1.2.5-2.6.5-3.9.7-2.8.4-5.7.3-8.5.1-2.8-.2-5.6.5-8.4-.6-1.4-.6-3.1 0-4.6-.7-1-.5-2.4-.3-3.6-.5-2.1-.3-3.9-1.4-5.9-1.9-2.2-.5-3.9-2.2-6.1-2.9-.3-.1-.7-.6-1-.2-.3.4-.3 1.2 0 1.3 1 .5 1 1.6 1.8 2.2 1.3 1 2.3 2.5 4.2 2.6.2 0 .3.1.4.2.8 1.2 2.3 1.2 3.4 1.5 2 .6 4 1.3 6.1 1.4.1 0 .2 0 .2.1 1.1 1.1 2.6.9 3.8.9 4.6.3 9.3.3 13.9.1.7 0 1.6.2 2.1-.1 1.5-.8 3.1-.2 4.7-1 1.1-.5 2.5-1.1 3.9-1.2 1.1-.1 1.9-.9 3-1 .6-.1 1.5-.2 2.1-.7 1-.8 2.1-1.6 3.2-2.3.5-.3.6-1 1.3-.9zm58.3-11.1c.2-.1.6.1.7-.3 0-.2 0-.7-.1-.7-.7-.1-.9-.7-1.5-.9-1.7-.6-3.4-1.4-3.8-3.5-.1-.6-.7-.5-.8-.2-.2.6-.6 1.3.3 1.7.3.1.5.2.5.6 0 .9.6 1 1.3 1.4.8.4 1.9.7 2.4 1.5.3.5.6.3 1 .4z"/><path class="st0" d="M147.3 218.7c.9 0 1.7-.2 2.7.1-.1.1-.2.3-.2.3-1.3 0-2.2.9-3.3 1.3-.2.1-.3.2-.5.2-1.5-.1-2.3 1.2-3.3 1.9-.8.6-1.7 1-2.6 1.6-1 .7-2.1 1-3.1 1.7-1.6 1.2-2.9 2.7-4.6 3.7-.8.5-1.7 1.2-2.2 2.1-.4.8-1 1.3-1.7 1.8-.1.1-.2.2-.2.4-.3 1.5-1.6 1.9-2.7 2.6-.1.1-.3 0-.3 0-.9 1.5-2.7 1.2-4 1.8-1.6.8-3.1 1.5-4.9 1.8h-1.1c-.5 0-.7.2-.7.7 0 .7.5.4.8.4.2.6.1 1.3.9 1.5.1 0 .2.2.2.3-.3 1.2 1.1 1.6 1.3 2.6.3 1.3 1.4 2.2 1.4 3.5.1.8-.4 1.6.3 2.3.8.3.6.9.6 1.5 0 .5-.3 1.2.7 1.2.4 0 .2.5.2.7 0 .9.4 1.3 1.3 1.2 1.3-.1 2.4.8 3.6 1.1.5.1 1.3.5 1.8.6 1.3.3 2.4.9 3.5 1.5 1.4.7 3 1.1 4.3 2.3 1.1 1 2.4 1.9 3.8 2.5.5.2.7.7 1.2 1 .8.4 1.3 1.4 2.1 2 1.2.9 1.5 2.6 2.7 3.2 1 .5.4 2.1 1.7 2.2.1 0 .1.4.1.5.1.5-.3 1.3.8 1.4.3 0 .1.6.2.9.1.8-.2 1.6.4 2.3-.6 1.2-.2 2.5-.2 3.7 0 .8-.1 1.5-.1 2.3 0 .4.2.9-.6 1-.5 0-.3.6-.3.9 0 .7-.2 1.1-1 1 .3-1.3-.8-2.9.9-3.8.1-.1.1-.3.1-.5v-4.3c0-.2 0-.5-.1-.6-1.1-.3-.7-1.3-.8-2 0-.3 0-.8-.1-.8-1.3-.4-.9-1.8-1.6-2.6-.7-.9-1.2-2.2-2.1-3.1-.8-.8-1.6-1.6-2.5-2.3-.5-.4-.8-1.1-1.3-1.3-1.1-.4-1.9-1.2-2.8-1.6-1.3-.6-2.4-1.9-4-1.7 0-.2-.1-.5-.1-.5-1 0-1.7-.9-2.6-.9-.8 0-1.6-.2-2.2-.5-1.3-.7-2.7-1-4.2-1.1-.2-1.2-1.1-.5-1.7-.7-.8 0-1.4-.2-1.9-.7 0-.6.3-1.3-.7-1.5-.2-.3-.3-.6-.3-.9-.2-.7.4-1.6-.7-1.9 0-.6-.1-1.3-.1-1.9.1-.7.1-1.3-.9-1.3 0-.5 0-.9-.1-1.4 0-.7.3-1.6-.9-1.7v-.7c.1-.7 0-1.3-.9-1.2.4-1.1-.9-1.6-.8-2.6.1-.7-.1-1.2-.9-1.2.2-.8-.6-.7-.9-1.1-.8-1.3-1.4-2.6-2.5-3.8-.4-.4-.9-.8-1.1-1.4-.5-1.3-1.7-2.1-2.6-3.1-.6-.6-1.6-1.2-1.9-1.7-1-1.7-2.9-2-4.1-3.5-1.1-1.4-3-2.4-4.7-3.3-2.3-1.3-4.6-2.6-7-3.9-.6-.4-1.2-.8-1.9-1.1-1.8-.9-3.7-1.6-5.6-2.2-1.7-.6-3.4-1.5-5.2-1.9-.5-.1-1.2-.1-1.6-.4-2.6-1.7-5.7-1.6-8.5-2.4-1.8-.5-3.8-.8-5.8-.7 0-.2-.1-.4-.1-.7.9.1 1.7.1 2.6-.1.5 0 1 .1 1.6.1.6.1 1.4-.3 1.7.6 0 .1.2.1.3.1 1.6 0 3.1.4 4.6 1.1.8.4 2 .1 3 .5 1.2.5 2.5.9 3.8 1.4.6.2 1.2.2 1.8.4 1 .2 1.7.8 2.6 1.2 1 .5 2 .9 3.1 1 .9 0 1.5-.4 2.1-1 .5-.4 1.1-.8 1.8-1 1.3-.4 2.5-1.2 3.8-1.5 1.4-.3 2.9-.5 4.3-1 2.2-.7 4.5-.4 6.8-1 1.5-.4 3.1-.3 4.6.1.6.2 1.1.2 1.7.3 1.1.1 2.2-.3 3.2.6.1.1.5.1.8.1 2.2-.2 4.1.6 5.9 1.6.9.5 1.9.3 2.8.9 1 .6 2.2.5 3.1.9 1.6.8 3.3.9 5 1.1.5.1 1-.6 1.6 0 .2 1.2 1.1.5 1.7.7 0 .6-.5.5-.9.5h-2.8c-2.4-.1-4.6-1.1-6.9-1.4-.5-.1-1-.1-1.5-.3-2.2-1.4-4.6-1.6-7-1.8-.2-1.1-1.1-.5-1.7-.7-.6 0-1.2-.1-1.9-.1-.3-1.2-1.2-.5-1.8-.6-4.5-.2-9.1-.2-13.5.7h-.2c-1.6 1.2-3.8.7-5.4 1.8-.9.6-2 1-3.2 1.3-.5.1-.4.8-.1 1 1.1.6 2.2 1.1 3.3 1.5.5.2 1.1.2 1.5.6 1.2 1.2 2.9 1.6 4.2 2.8.7.6 2 .5 2.5 1.1 1.2 1.7 3.2 2.3 4.5 3.6.4.4.8 1 1.3 1.2.7.3 1.1.9 1.6 1.3.8.6 1.3 1.6 2 2.2 2 1.6 3.4 3.8 5 5.7.3.4 1.2.4 1.1 1.2-.1.6.4.7.8.6 1.2-.3 2.3-.7 3.5-1 2-.6 3.9-1.8 6-2.2.5-.1 1.1-.6 1.4-1.1.7-1.4 1.7-2.5 2.7-3.6.3-.3.9 0 1-.6.1-1.3 1.3-2 2-2.2 1.4-.4 1.9-1.8 3.1-2.4 1.5-.8 2.8-2.3 4.5-2.9.3-.1.9-.2 1.1-.5 1.3-2 3.6-1.6 5.4-2.5.8-.2 1.4-.8 1.9-1.4zm41.5 76h-15.2c-.2-.9.5-.6.8-.6h13.7c.3 0 .8-.1.7.6z"/><path class="st0" d="M137.1 217.1c2.8-.1 5.5 1.2 8.3.9 0 .6-.3.7-.9.7h-5.4c-.1-.4-.3-.7-.8-.6h-1.9c-.6 0-1.3-.1-1.9-.1-.1-.5.1-.7.6-.7.7-.1 1.3-.1 2-.2zm-213.3 212c.7-.3.8.1.8.6v8.6c-.7.1-.9-.4-.9-.9 0-2.8 0-5.6.1-8.3zm0-22.9c.5-.2.8-.1.8.6v5.8c0 .6-.2.8-.8.6-.2-2.4-.2-4.7 0-7zm.9 32.3c.6-.1.9.1.9.7v4.9c-.6.2-.9 0-.9-.7 0-1.6-.1-3.3 0-4.9zm103.1 96.8c-.7.2-.9-.2-.9-.8v-4.8c.8 0 .9.5.9 1.1v4.5z"/><path class="st0" d="M137.1 217.1c-.7 0-1.3.1-2 .1-.5 0-.7.2-.6.7h-3.8c-.5 0-.8-.2-.8-.7h2.8c.4 0 .8.1.9-.5h3c.2.1.6-.1.5.4zm-241.5 329.6c0 1.3 0 2.5.1 3.8 0 .7-.2.8-.8.7 0-1.3 0-2.5-.1-3.8 0-.7.3-.8.8-.7zm-.8 7c.7-.3.9.1.8.7v3.5c-.6.1-.9-.1-.9-.7.1-1.2.1-2.3.1-3.5zm322.1-164.2v-4.2c.5-.1.9-.1.8.6v3c0 .6-.3.7-.8.6zm-75.2-170.8h2.8c.5 0 .9-.1.9-.7.3 0 .8-.2.8.1.1.7.7.4 1.1.6-.5.6-1.1 1.2-2 1.1.1-.8-.5-.6-.9-.7-.9-.2-1.9.5-2.7-.4zM25 210.5c.2-.5 0-.7-.6-.7h-1c-.1-.5.2-.6.6-.6.6 0 1.3 0 1.9.1.4 1.1 1.4.4 2 .6 0 .5-.3.7-.8.7-.7-.1-1.4-.1-2.1-.1zm-66 60.8c0 1 0 2 .1 3 0 .7-.3.8-.9.6 0-1 0-2-.1-2.9 0-.6.3-.8.9-.7zm-.6 11c.4.2.6.5.6 1v2.9c-.4 0-.9.2-.9-.5.1-1.1-.2-2.3.3-3.4zm182.2 15c.2.6-.2.6-.6.6h-2.9c-.4 0-.9.2-1.1-.2-.2-.5.6-.4.6-.8.7.7 1.6.3 2.4.4.6-.1 1.1-.1 1.6 0zm-233 277.8c.7.2 1.4.3 1.8 1 .3.5.9.3 1.3.4.4.1.9-.3 1 .4-.9-.1-1.8-.1-2.7-.3-.7-.3-1-.9-1.4-1.5zm29.7-348.2c0 .2 0 .4-.1.5-.5.5-3.1.3-3.6-.4 1.2-.1 2.5-.1 3.7-.1zm211 54.3c.1-1.2-.3-2.5.2-3.7.8 1.2.3 2.4.3 3.6 0 .2-.3.2-.5.1zm-46.2 263.6h2.9c.4 0 .7.1.6.6h-2.9c-.5 0-.8-.1-.6-.6zm42.1-57.1c.1.6-.3.6-.7.6h-2.7c-.1-.5.1-.6.6-.6.9.1 1.9 0 2.8 0zm39.2-76.6c0-.6 0-1.3-.1-1.9-.1-.7.3-.7.8-.5 0 .6 0 1.2.1 1.9.1.5-.3.6-.8.5zM26.8 529.5c-.6.1-.9 0-.9-.7v-1.5c.6-.1.9 0 .9.7.1.5.1 1 0 1.5zm185.5-181.7c.1-.7-.4-1.7.5-2.2.7 1.3.5 2.1-.5 2.2zm-38.1 194.1c.9-.6 1.8-.2 2.7-.3 0 .2 0 .5-.3.5-.7.1-1.6.6-2.4-.2zm-200.9 44.3c.9-.5 1.8-.1 2.7-.2v.3c-.4.4-2.2.4-2.7-.1zm183.9-40.8c0-.3-.1-.6.3-.6.8 0 1.7-.2 2.4.3 0 .7-.5.4-.8.4-.6 0-1.2-.1-1.9-.1zm-228.6-86.2c1.1.4.4 1.3.5 1.9-1 0-1.1-.7-.5-1.9zM62 209.7c-.9.1-1.7.1-2.6.1 0-.2.1-.4.1-.6.7 0 1.3 0 2-.1.4 0 .6.2.5.6zM84 541h1.9c.4 0 .7.1.6.6h-2c-.5 0-.6-.2-.5-.6zM-36.3 297.2c1.2.5.4 1.5.6 2.3.1.3-.3.2-.5.2-.1-.8-.1-1.6-.1-2.5zm-14.9 213.5c.1.4 0 .6-.4.6h-2c-.2-.4 0-.6.4-.6h2zm230.9-22.4c-.7 0-1.3 0-2 .1-.4 0-.7-.1-.5-.6.7 0 1.3 0 2-.1.4 0 .6.1.5.6zM-116 372.6c1.6-.1.6 1.1.8 1.7-1.4 0-.6-1.1-.8-1.7zm231.4-131.3c-.3 0-.8.3-.8-.4 0-.5.2-.7.7-.7h1.1c-.1.6-1.1.3-1 1.1zm67.1 171.8c.2-.6-.9-1.8.8-1.8v1.2c.1.6-.2.8-.8.6zm34.2-28.7c-.6.1-.9-.1-.8-.7 0-.4 0-.7.1-1.1.6-.2.9-.1.8.6 0 .4 0 .8-.1 1.2zm-3.6-6.3c-.7.2-.9-.2-.9-.8 0-.6.1-1.1.9-.9v1.7zM-36.5 256.9v1.2c.1.7-.3.6-.8.5.2-.7-.7-1.8.8-1.7zm248 94.5c-.6.1-.9-.1-.9-.8s.3-.9.9-.7v1.5zm.8 169.1c.1-.5-.5-1.3.5-1.5.6 1.2.5 1.5-.5 1.5zm.3-166c-.5-.4-.2-.9-.3-1.4.3 0 .7-.2.8.3.1.5.1 1-.5 1.1zM22.2 209.9c.1.4 0 .7-.5.7-.4 0-.9-.1-1.3-.1-.1-.3-.1-.6.4-.6.5-.1 1-.1 1.4 0zm-5.3 358.3c.1-.5-.4-1.4.8-1.1 0 .5.3 1.3-.8 1.1zm196.3-62.1c-1.1.1-.9-.6-.9-1.2 1.1-.2.9.6.9 1.2zm-327.5-130.4c1.3-.2.7.8.8 1.3-1.4.2-.7-.8-.8-1.3zm68.9-125.4h1.4c.4 0 .4.3.3.5-.5 0-.9.1-1.4.1-.4 0-.5-.3-.3-.6zm8.9 50.1c-.1.5.6 1.5-.7 1.2 0-.5-.6-1.4.7-1.2zM173.6 432c.1-.5-.5-1.4.8-1.2-.1.6.4 1.4-.8 1.2zm-4.6 7c.1-.5-.5-1.5.8-1.2-.1.5.4 1.4-.8 1.2zm-239.7 22.8c.4-.1.6 0 .6.4 0 .5 0 .9-.1 1.4-.4.1-.6 0-.6-.4 0-.5 0-.9.1-1.4zm224.3 1.3c0-.6-.4-1.5.8-1.3 0 .6.2 1.4-.8 1.3zm-87.1 29.7v1.3c-.6.2-.9.1-.8-.6 0-.6.1-.9.8-.7z"/><path class="st0" d="M133.6 216.7c-.6-.2-1.5.5-1.7-.7.5.2 1.6-.6 1.7.7zM-75.2 582.8c.5.1 1.3-.5 1.4.6-.5-.1-1.3.5-1.4-.6zM26 555.5c-.1-.6-.2-1.2.8-1.1.1.6.4 1.4-.8 1.1zM-35.5 253c.5-.1.8-.2.8.5s-.3.7-.8.5c-.2-.4-.2-.7 0-1zm56.9 310.6c-.1-.7 0-1.1.9-1 .1.7 0 1.2-.9 1zM-41 310c.1.7-.1 1.1-.9 1-.1-.7 0-1.2.9-1zm219.8 112.4c-.1-.6-.2-1.3.8-1 .1.6.2 1.2-.8 1zm-1.6 3.2c-.1-.6-.1-1.2.8-1 .1.6.1 1.2-.8 1zM-46.6 316.3c.2.7-.1 1-.8.9-.1-.6 0-1.2.8-.9zm219.2 116.9c-.1-.7-.1-1.2.8-1 .1.6 0 1.2-.8 1zm-211-128.3c.1.7 0 1.1-.8 1.1-.1-.6-.3-1.4.8-1.1zm201.9 142.3c-.1-.6-.2-1.2.8-1 0 .6.1 1.2-.8 1zm-5.3 8.2c-.2-.7 0-1.1.9-1 0 .6 0 1.2-.9 1zM-67 472.6c1.1-.3.7.5.7 1-1.1.3-.9-.4-.7-1zm6.1 12.8c.9-.2 1 .4.8 1-.9.3-.9-.4-.8-1zm.9 1.2c.8-.1.9.4.9 1-.9.2-1-.3-.9-1zm86 20c-.1-.7 0-1.1.9-1 .1.7 0 1.2-.9 1zm-3.7 10.9c-.9.2-.9-.4-.8-1 .9-.3.9.3.8 1zm-58.1-262.2c-.1.5.5 1.3-.6 1.3.2-.4-.5-1.3.6-1.3zM-100 536c-.1.4.5 1.2-.6 1.2 0-.5-.4-1.2.6-1.2zm312.1-183.2c-1.1 0-.5-.7-.6-1.2 1.1.1.6.7.6 1.2zM-51.8 498.6c.9-.1.5.6.6 1-.8.1-.6-.5-.6-1zm214.5-50.2c.1-.4-.3-1.1.6-1 0 .4.5 1.2-.6 1zm-277.2-87.1c-.1.4.6 1.1-.5 1 .1-.4-.5-1.1.5-1zm292.6 62.3c0-.5-.1-1 .6-1 0 .5.4 1.1-.6 1zm33.5-25.3c0-.5-.2-1 .6-1 0 .5.2 1.1-.6 1zm30.4-85.4c-.9.1-.5-.6-.6-.9.8-.1.7.4.6.9zM211.6 349c.1-.4-.5-1.2.6-1.1-.1.5.5 1.3-.6 1.1zm-312.2 216.8c.7 0 .6.5.6 1-.8 0-.7-.5-.6-1zm34.5-91.3c1.1-.1.4.7.5 1.1-1.1.1-.4-.7-.5-1.1zm121-264.8H52c-.5 0-.7-.2-.7-.7h2.9c.4.1.7.2.7.7zm-19.8-.6c0 .5-.2.7-.7.7h-3c0-.5.3-.6.8-.6.9-.1 1.9-.1 2.9-.1zm24.4 1.3c-.6-.1-1.5.6-1.8-.6h1.7c0 .2.1.4.1.6zm-75.2 197.5c1.3.4 2.6.6 4 1.3 2.2 1.1 4.4 2.1 6.4 3.6 1.2.9 2.5 1.6 3.3 2.9-.2.8.4.6.8.5.3 0 1.1.4.9-.6.2-.2.2-.4 0-.5-1-1.4-2.6-2.3-3.7-3.6-.1-.1-.3-.1-.4-.2-1.2-.4-2.3-1.1-3.4-1.8-1.9-1.2-4.1-1.5-6-2.3.1-.3.1-.6-.4-.6-.6 0-1.1 0-1.7-.1-.5 0-.7.2-.7.7 0 .9.3.9.9.7zm22.3-17.6c.2.5.6.7 1 .4.3-.2.2-.7.2-1.1 0-.6-.4-.5-.8-.5-1 0-1.7-1-2.8-.9-.3-1-1.1-.6-1.7-.6-1.1-.1-2.2-.4-3.3-.4-4.3-.2-8.5-.4-12.8.5-.4 0-1-.4-1.1.4 0 .4-.1.9.5.8.4-.1 1.2.5 1-.6 3.4-.1 6.9-.1 10.3 0 .3 1.2 1.1.5 1.8.4.3.1.5.2.8.2 1.9.3 3.9.2 5.6 1.2.3.3.8.7 1.3.2zm2.3 10.9c-3.7-1.9-7.5-3.2-11.7-3.3-.1-.7-.6-.6-1.1-.5-1.3 0-2.5-.1-3.8-.1s-2.5.1-3.8.1c-.2 0-.5 0-.5.4 0 .2.2.4.5.4s.6.1.9.1c1.9.1 3.9.2 5.8.3.3.7 1 .8 1.9.3.1.2.2.4.5.4 2.7.1 5.2 1.2 7.7 2.2.6.2 1.3 0 1.8.6s1.1.6 1.8.2c.3.1.6.1.6-.4s0-.9-.6-.7zm-61.7 5.5c.9.1 1.8-.4 2.7-.5.6-.3 1.7.6 2-.7 1.4 0 2.6-.6 3.7-1.4.9-.7 2-.7 2.9-1.4 1.1-.9 2.2-1.9 3.4-2.4 1.9-.8 2.5-2.6 4-3.6 1.2-.8 1.5-2.4 2-3.7 1.1.2.8-.7.8-1.3.2-2.3.1-4.6.1-6.8 0-.9-.7-1.5-1-2.3-.4-1.1-.8-2.3-1.6-3.3-.3-.3-1-.1-1-.9 0-.7.5-.9.8-.6 1.3 1.3 3.2 1.4 4.5 2.6 1.8 1.5 3.8 2.9 5.2 4.9.5.7.5 1.7 1.3 2.4s.9 1.8 1.3 2.7c-.5.8-.5 1 .3 1.2.1 1.9.2 3.9 0 5.7-.1.9-.6 1.9-1.1 2.8-.5.8-.8 1.8-1.5 2.5-.9.9-1.2 2.2-2.4 3.1-.6.4-1.3.8-1.8 1.4-1.1 1.2-2.6 1.8-4 2.6s-3 .9-4.2 1.9c-.5.4-1.1.3-1.6.5-5.6 2.1-11.5 2-17.4 1.7-1-.1-2.1-.4-3.1-.4-.1-1-.9-.6-1.4-.6-1.5-.1-2.8-1-4.2-1.2-1.9-.3-3.5-1.3-5.2-2-1.2-.5-2.2-1.5-3.4-2.1-.2-.1-.1-.4-.1-.7.1-.3.3-.4.5-.3.8.5 1.8.2 2.6.6.7.7 1.5.3 2.2.3 4.2.2 8.4.1 12.5 0h1.3c.7 0 1-.2.9-.7zm14.1-120.9c.1 0 .3 0 .3-.3s-.2-.4-.4-.4-.4.1-.4.3c0 .3.1.4.5.4zM73.2 505.5c-.3-.1-.7 0-1-.4-.6-.9-1.6-1.1-2.4-1.5-.7-.4-1.3-.5-1.3-1.4 0-.3-.2-.4-.5-.6-.8-.4-.5-1.2-.3-1.7.1-.3.7-.3.8.2.4 2.1 2 2.8 3.8 3.5.6.2.8.9 1.5.9.1 0 .1.4.1.7-.1.4-.5.2-.7.3zM-9.4 230.7c.5 0 .8.1 1 .7.2.6.8 1.4 1.3 1.7.8.5.5 1.1.5 1.6 0 .4-.5.4-.8.3-.6-.1-1.1-.3-1.1-1.1 0-.9-1-1.3-1.4-2-.2-.3-.2-.5-.2-.7.4.1.7 0 .7-.5zm112.4 278c.1.6-.2.7-.7.7h-7.8c-.3 0-.6.1-.7-.3 0-.5.4-.4.7-.4 2.8 0 5.6-.1 8.4-.1l.1.1zM-64.5 365c-.7 0-1.3.2-1.9-.5-.3-.3-1.2-.1-1.8-.2-.3 0-.7.1-.7-.4 0-.4.4-.3.7-.3h5.2c.5 0 .6.3.6.7h-1.3c-.7 0-1 .1-.8.7zm239-68.5c0 .5-.3.7-.8.7h-7.5c.1-.5.4-.6.8-.6 2.5-.1 5-.1 7.5-.1zm-31.8 19.6c-.5 0-1.1-.1-1 .7-.8.3-1.2-.5-1.4-.8-.9-.9-2.2-1.1-3-2.1 1-.4 2 .1 2.6.7.6.5 1.2.9 2 .9.5-.1.8 0 .8.6zm-113.1 7H36c.5 0 .9 0 .9.7h-6.5c-.6 0-.8-.2-.8-.7zm-143 43.1v5.1c-.5-.1-.9-.2-.9-.9.1-1.1 0-2.1 0-3.2-.1-.8.3-1 .9-1zm304.1-69.1c-1.9 0-3.8 0-5.7.1-.5 0-.6-.2-.6-.7h5.6c.3-.1.7 0 .7.6zm-3.7 75.5c.5-.1.8 0 .8.6 0 1.3.2 2.5 0 3.8-.5.2-.8.1-.8-.5v-3.9zm-234.6 57.5c-.5.1-.7.4-.7.9v2.3c-.3 0-.5 0-.8.1 0-1.1 0-2.2-.1-3.2 0-.3 0-.7.5-.6.4 0 1.2-.5 1.1.5zm235.5-41.7c.1 1.3.1 2.6-.1 3.8-.3 0-.5-.1-.8-.1v-3.2c0-.6.3-.7.9-.5zm-152 25.8c-.2-1.1-.1-2.1-.1-3.2 0-.7.4-.7.9-.5 0 1.1 0 2.1.1 3.2-.1.7-.4.8-.9.5zm21.8-90.4c0-.6.4-.7.9-.7h3.5c-.1.5-.4.6-.8.6-1.3 0-2.5.1-3.6.1zm156.4 64.3c0-.7.1-1.5.1-2.2.4-.1.8-.1.8.5v2.2c0 .6-.4.6-.8.4 0-.3 0-.6-.1-.9zm-232.4 56h-2.3c-.4 0-.5-.2-.5-.6.5-.1 1.1 0 1-.8.9-.4 1.1.9 1.9.8-.1.2-.1.4-.1.6zm179.1-146.9c0 .6-.4.7-.8.7h-2.8c.1-.5.3-.7.8-.6.8-.1 1.8-.1 2.8-.1zm-181 141.2h2.9c.4 0 .8 0 .6.6h-2.9c-.5.1-.7 0-.6-.6zm230.9-93.7v-2.5c.3 0 .5 0 .8-.1v2.2c-.1.6-.4.6-.8.4zM36.7 408c-.5.1-.9.1-.9-.6 0-.6-.2-1.3 0-1.9.5-.2.9-.1.9.6v1.9zM-3 370.1h4.4c.4 0 .7 0 .9.4-1.5 0-3-.1-4.5-.1-.3 0-.6 0-.8-.3zm189.1-3.8c.5-.1.9-.1.9.6 0 .6.2 1.3 0 1.9-.5.2-.8.2-.8-.5-.1-.7-.1-1.4-.1-2zm-211-112.2c.9-.4 1 1 2.1.8-1.2.7-3.1.6-3.8 0h1.2c.6 0 .7-.4.5-.8zM187 392.2c.3 0 .5.1.8.1.2.5 0 1.1.1 1.7 0 .6-.3.7-.8.5-.1-.8-.1-1.6-.1-2.3zM22.4 430.1c-.3-.6.2-.7.6-.6.4 0 .9-.1 1 .5 0 .3.1.7.1 1-.1.2-.3.5-.6.5s-.2-.4-.2-.6c.1-.6-.4-.7-.9-.8zm133-132.2c-.1.4-.4.4-.7.4h-3.9c.3-.6.9-.4 1.4-.4h3.2zM-30.5 448.8c.9-.7 1.9-.2 2.9-.1v.4c-1 0-2 .4-2.9-.3zm21.2 1.5c-.2-.4 0-.6.4-.6h2.2c.2.4 0 .6-.4.6h-2.2zm191.6-125.9c.8 0 1.5 0 2.3-.1.5 0 .8.2.7.7h-2.2c-.5 0-.8-.1-.8-.6zM26 389c-.7.1-1-.1-1.1-.8 0-.2 0-.3.1-.5.9.1 1.5.4 1.9 1.3-.3.2-.6.1-.9 0zm-47.1 60.8c.7-.2 1.5 0 2.2 0 .4 0 .6.2.4.6h-2.2c-.4 0-.6-.2-.4-.6zm42.6-17.1c-.4-.5-.1-1-.1-1.6s.4-.5.8-.4c-.1.8.6 1.8-.7 2zm140.8-97.8c.6.5 1.3.1 2 .2-.4.7-1.8 1-2.3.5-.4-.3.2-.4.3-.7zM187 325h1.9c.5 0 .8.1.7.7-.6 0-1.2-.1-1.9 0-.4 0-.7-.2-.7-.7zm14.5-27.2c-.7 0-1.3 0-2 .1-.5 0-.8-.1-.8-.7h2c.5-.1.8 0 .8.6zm10.8 74.1c.1-.6-.7-1.7.8-1.7v1.3c0 .6-.4.5-.8.4zm-230.7 24.7c-.1.7.6 1.7-.8 1.7V397c0-.6.3-.6.8-.4zm-.8-6.9c1.6-.1.6 1.1.8 1.6-.5.3-.8.1-.8-.5-.1-.3 0-.7 0-1.1zm259.6-65.4c.2-.7-.6-1.9.9-1.9-.1.7.5 1.8-.9 1.9zm-275.1-65.2c-.2.7.6 1.9-.9 2 .1-.8-.6-1.9.9-2zm219.1 99c1.4 0 .8 1.1.8 1.7-.5.2-.9.1-.9-.5.1-.4.1-.8.1-1.2zm-203.7 41.2c0 .7.2 1.6-.9 1.7.1-.7-.6-1.8.9-1.7zm-2.7 40.2c0 .2-.1.5-.1.7-.3 0-.8.3-.8-.3s-.5-.3-.7-.6c.5.1 1.1-.6 1.6.2z"/><path class="st0" d="M-67.3 407.3c-.8 0-1.6.3-2.2-.3 1-.6 1.9-.4 2.2.3zm42.1 30.7c1-.5 2-.4 2.2.3-.8 0-1.6.4-2.2-.3zm24.1 11.1c-.2-.4 0-.6.4-.6.5 0 1-.1 1.5 0 .1.3.1.6-.3.6-.5.1-1.1 0-1.6 0zm-38.5-177.8c.2.9 1 1.8-.4 2.5 0-.8-.2-1.7.4-2.5zm231.3 56.6c-.7.2-1.5.7-1.9-.4.6.1 1.4-.3 1.9.4zm-187.3 45c-.7.2-1.5.7-1.9-.4.7.1 1.4-.4 1.9.4zm188.8-46.7c.7 0 1.5-.2 2.2.3-.7.7-1.7.6-2.2-.3zm16.4 21.6c0-.6-.4-1.5.8-1.3.1.7.4 1.5-.8 1.3zM101 349.1c.3-1.3 1.3-.5 2-.6-.3 1.2-1.3.3-2 .6zm-5.5 0h2c0 .9-.6.6-1.1.6-.5.1-1 .2-.9-.6zm-20.7-27.9c.3-1.3 1.3-.5 2-.7-.4 1.3-1.4.4-2 .7zm7.2-1.3c.3-1.3 1.3-.5 1.9-.7-.3 1.2-1.2.6-1.9.7zm-130.1 85.6c-.3 1.3-1.3.4-2 .7.3-1.2 1.3-.6 2-.7zm46.9-88.2c.6.2 1.7-.6 1.9.7-.7-.2-1.6.5-1.9-.7zm4.5 53.2c.7.2 1.7-.7 2 .6-.7-.1-1.6.6-2-.6zm-116.7 1.9c1.3-.1.8.8.9 1.5-1 0-.9-.8-.9-1.5zm314.2 20.4c-.1-.6-.1-1.2 0-1.8 1-.1.5.6.5 1 .1.3.4 1.1-.5.8zm-232-1.2c0 .6.3 1.4-.8 1.3 0-.7-.4-1.6.8-1.3zm244.4 1.2c.1-.5-.6-1.6.8-1.3.1.7.3 1.4-.8 1.3zm-175.5 3.1c-1.2.2-.8-.6-.8-1.2 1.3-.3.7.7.8 1.2zm-2 8.2c-.7-.2-.7-.2-.6-1.7.3-.2.5-.2.6.3v1.4zm-108.4-.6c.6.2 1.7-.7 1.9.7-.6-.2-1.6.5-1.9-.7zm208.2-103.2c-.3 1.3-1.3.4-2 .6.4-1.1 1.3-.4 2-.6zm-171.2-38.5c-.2.6.6 1.7-.7 1.9.2-.7-.5-1.6.7-1.9zm-17.1 144.9c0 .5-.2.7-.7.7h-1.3c-.1-.5.2-.7.7-.6.5-.1.9-.1 1.3-.1zm267-107.7c-.7-.2-1.7.7-2-.6.7.2 1.7-.7 2 .6zm-66-.6c-.3 1.3-1.3.4-2 .6.4-1.2 1.4-.4 2-.6zm25.4 28.5c-.6.1-1.3.2-1.9.1.3-1.2 1.2-.4 1.8-.6 0 .1 0 .3.1.5zm-29.9-27.8c-.3 1.3-1.3.5-2 .6.3-1.2 1.3-.4 2-.6zm27.9 31.1c.6.1 1.5-.5 1.8.6h-1.5c-.4 0-.4-.3-.3-.6zm-151 105.2c-.2-.7-.8-1.5.6-1.3.1.6.4 1.3-.6 1.3zM121 346c.4-1.3 1.2-.6 1.9-.4-.5.7-1.2.2-1.9.4zm79.9 48.7c.2.7-.3.7-.8.6-.5 0-.4-.3-.4-.7 0-.7.4-.6.9-.5l.3.6zm-162.3 3.7c-1 0-1.1-.2-.6-1.3.9.1.6.8.6 1.3zm-81.5-175.3c-.2 1.2-1.1.5-1.7.7.3-1 1.1-.6 1.7-.7zm19 .6c-.6-.2-1.5.5-1.7-.7.6.2 1.5-.4 1.7.7zm160.4 86.6c.6.2 1.5-.5 1.7.7-.7-.1-1.6.5-1.7-.7zm-193.8-83.4c-.2 1.2-1.1.5-1.7.7.2-1.2 1.1-.6 1.7-.7zm-8.2 1.2c-.2 1.2-1.1.5-1.8.6.3-1.1 1.2-.4 1.8-.6zM63.9 323c.2-1.2 1.1-.5 1.7-.6-.2 1.2-1.1.5-1.7.6zm119.4 3.9c-.5-.1-1.3.5-1.5-.5.5.1 1.3-.7 1.5.5zm-211.7-72.1c-.6-.2-1.5.5-1.7-.7.6.1 1.4-.4 1.7.7zm5.4 117.1c.2-1.2 1.1-.5 1.7-.7-.2 1.1-1 .6-1.7.7z"/><path class="st0" d="M173.6 326.9c0-.2-.1-.3-.1-.5h1.5c-.1.6-.1.6-1.4.5zM-51.8 365c.2-1.2 1.1-.5 1.8-.6-.3 1.1-1.2.4-1.8.6zm248 37.9c.1-1.1 1-.4 1.5-.6-.2 1.2-1 .5-1.5.6zm22.5-62.7c.1-1.2 1.1-.5 1.7-.7-.2 1-1.1.5-1.7.7zM71.2 321.9c.2-1.2 1.1-.5 1.8-.6-.3 1.1-1.2.4-1.8.6zm-131.1 90.6c.5 0 1.3-.4 1.4.6-.4-.2-1.3.5-1.4-.6zm241.6-62.6c1 .1.5.9.6 1.5-1.1-.1-.4-.9-.6-1.5zm28.8-9.8c-.9.2-.9-.3-.8-.9 1-.4.8.3.8.9zm-29.7 7.9c.9-.2 1 .4.8 1-1 .2-.9-.4-.8-1zm58.6-21.8c-.1-.7-.1-1.3.9-1.2.2.8 0 1.3-.9 1.2zm-63.2 12.9c.9-.2 1 .3.9 1-.9.1-1-.4-.9-1zm.9 1.3c.8-.2.9.3.8.9-.8.2-.9-.3-.8-.9zm34.3 1.7c-.3 0-.5 0-.8.1 0-.4 0-.8-.1-1.2 1.1-.2 1 .5.9 1.1zm-31.6 4c1-.2.9.4.9 1-.9.1-1-.4-.9-1zm60.6-31.1c-1 .1-1-.5-.9-1.2.8-.1 1 .4.9 1.2zM34.1 419.3c-.1-.7-.2-1.3.9-1 .1.6.1 1.2-.9 1zm-85.1 2.1c1.1-.3.8.5.8 1-.8.1-.9-.3-.8-1zm-61.4-47c1-.1 1 .5.9 1.2-.9 0-1-.5-.9-1.2zm353.7-57c-1 .1-1-.6-.9-1.3 1.1-.1 1 .6.9 1.3zm-290.4 116c.3 0 .5 0 .8-.1.1.4.2.8 0 1.2-1.2.3-.8-.6-.8-1.1zm22.5 6.8c-1 .3-.9-.3-.8-.9 1-.3.9.3.8.9zm62.5-42.8c.9-.2.9.3.8.9-.8.1-1-.2-.8-.9zm151 1.1c.1.6.4 1.4-.8 1.1 0-.5-.5-1.4.8-1.1zm24.5-42.6c-.9.2-.9-.3-.8-.9 1-.3.9.4.8.9zm-28-.9c1-.3.9.3.8 1-1.2.4-.7-.5-.8-1zm-.9-2.6c1-.3.8.4.8.9-1.1.4-.9-.4-.8-.9zM35 400.3c-1.1.3-.9-.4-.8-1 .8-.2 1 .3.8 1zm176.5-63.9c1.1.1.6.9.7 1.4-.9-.1-.6-.9-.7-1.4zm-265.3 31.8c0 .4-.1.8-.6.6-.6-.2-.3-.7-.3-1.1.5-.1.6.3.9.5zm32.5 23.1c-.7-.1-.8-.4-.3-1.2.5.4.3.8.3 1.2zm233.5-33.4c-.9 0-.6-.6-.4-1.1.7.2.3.7.4 1.1zM19.7 437.5c.1-.4-.4-1.2.6-1 .1.5.2 1.1-.6 1zm165.7-75.1c1.1-.1.5.6.6 1.1-1.2.1-.6-.7-.6-1.1zm26.1 13.1c.2-.4-.5-1.2.6-1 .1.5.2 1-.6 1zm-259.6 61c1.1-.1.5.6.6 1-.9.1-.6-.5-.6-1zM-13 225.7v1.2c-.3 0-.7 0-.7-.5-.1-.6.2-.7.7-.7zm192.7 89.7c.1.8-.4.8-.9.7-.1-.7.4-.7.9-.7zm-211.8 45.7c0-.8.5-.7 1-.6.1.8-.5.6-1 .6zm1.9-.7c.1-.6.6-.4 1-.4-.1.7-.6.3-1 .4zm146.6-112.1c-1.4 0-.8-1-.9-1.7 1.2.1.9 1 .9 1.7zm1.7 6.5c-1.3-.3-.5-1.3-.7-1.9 1.1.3.5 1.2.7 1.9zm1 2.4c-1.3 0-1-.8-.7-1.5.9.2.6.9.7 1.5zm-8.1-44.3c-.6-.1-1.5.6-1.8-.6.6.1 1.5-.6 1.8.6zm11.7 45.7c-.6-.2-1.5.5-1.7-.7.6.3 1.5-.5 1.7.7zm-8.2-45c-.6-.2-1.5.5-1.7-.7.6.2 1.5-.4 1.7.7zm-.8 28.5c-1 .1-1-.5-.9-1.2.9-.1 1.1.4.9 1.2zm1.7 3.8c-1 .1-.9-.6-.9-1.2.9-.1 1 .5.9 1.2zm1.9 5.1c-1.1.1-.9-.6-.9-1.3 1 0 1 .6.9 1.3zm21.8-32.3h-2c-.5 0-.8-.1-.7-.7h1.9c.5 0 .7.2.8.7zm-51.5 38.5H91c.3 0 .8.2.9-.5h1c0 1 .7 1.2 1.4 1.1s.3-.7.4-1.1c.1-.2 0-.5 0-.7.1-.4.1-.7-.5-.7-.4 0-.5-.2-.5-.5.3-1.7 1.5-2.6 2.9-3 .8-.2 1.3-.7 1.9-1.1.9.2 1.8.8 2.4-.4.8 0 1.5-.1 2.3 0 1.8.2 2.9 1.3 4 2.6 1 1.2 2.5 1.8 4 2.3.9.3 1.7 1 2.8.8.3-.1.4.2.4.5 0 .2.1.6-.2.6-.9-.1-1.4.9-2.3.9-1 0-1.7 1.1-2.8 1.1-.7.3-1.7-.6-2 .7-1 0-1.9.1-2.9.1-.4 0-.6.1-.6.5 0 .2-.1.5.3.6 1.5.3 2.6 1.3 3.7 2.3.9.8 2.2 1.3 2.7 2.4.4.8 1.4 1.2 1.5 2.3.1.6.9 1.2 1.4 1.7.3.3.4.6.4.9 0 .5-.1 1.1.7 1.2.1.6-.3 1.3.5 1.7.6.3.4.9.5 1.5-.1.7-.1 1.3.9 1.3v8.9c-1.4.1-.8 1.2-1 1.9-.6.2-1.5-.3-1.7.7-1.8 0-3.2.7-4.7 1.7-1.1.8-2.5 1.2-3.7 1.9-.8.4-1.3 1-2 1.5-1.5 1-2.9 2.2-4.4 3.3-.9.6-1.5 1.5-2.4 2.1-.9.6-1.7.9-2.8.9h-2c-.5 0-.7.1-.7.6H74.5c0-.5-.3-.7-.7-.6h-2c-.9 0-1.9-.1-2.8-.1 0-.5-.2-.7-.7-.7h-2c-1.5-.1-2.9-.7-4.4-.6-.6 0-1-.9-1.8-.6-.3-1.1-1.3-.5-1.9-.7-1.9-.1-3.5-1-5.2-1.5-2.5-.8-4.7-2.3-7-3.6-.6-.4-1.1-1.1-2-1.1-1-.1-1.4.1-1.3 1.2-1.1.1-.5 1-.6 1.5v.5c-1 0-1 .7-.9 1.5.2 1.2-.8 1.8-1.3 2.5-.6.7-.9 1.7-1.5 2.2l-1.7 1.7c-.7.8-1.7 1.2-2.2 2.3-.5 1-1.8 1.3-2.8 1.8-1.3.7-2.5 1.5-3.9 2.1-1 .5-2 .9-3.1 1.1-.6.1-.9.7-1.4 1-.3-.4-1.4.1-1.2-1 1.3-.2 2.4-.9 3.6-1.3 2-.7 3.5-2.2 5.4-3.1.2-.1.3-.2.3-.4.3-.7.9-1.2 1.7-1.5.8-.3 1.7-.4 1.8-1.6 0-.4.5-.5.7-.6.7-.3.9-1 1.2-1.5.3 0 .5-.2.7-.4.7-.7 1-1.6 1.6-2.4.7-1 1.4-2.2 1.2-3.6-.1-.3-.1-.7.4-.7s.5-.5.5-.8v-7.9c0-.2-.1-.6-.1-.7-1.1-.2-.7-1.1-.8-1.7-.1-.7.1-1.7-.3-1.9-1.2-.7-1.4-2.1-2.2-3-.8-1-1.7-2-2.4-3-.5-.8-1.3-1.3-2.1-1.8-.7-.4-1.7-1-1.2-2.2 1.5.5 2.4 1.7 3.6 2.5 1 .7 2 1.5 2.6 2.4.7 1.1 2 2 2 3.5 0 .7 1 .6 1 1.4-.1.7 0 1.3.9 1.2-.1 1.4 1.1 2.4.8 3.8v4.9c0 .8.3 1 1 .9.6 0 1.3 0 1.9.1.1.5.3.7.8.7h1.9c3.3.2 6.5.7 9.8.6 0 .5.3.6.8.6h7.9c.2 0 .5.1.6-.3 0-.3-.2-.4-.4-.5-.9-.4-.3-1.2-.6-1.9.1-.7.1-1.3-.9-1.3 0-.4 0-.8-.1-1.2 0-3.6-.1-7.3.1-10.9 0-.3-.2-.8.2-1 1-.4.5-1.8 1.6-2.1-.2-1.5 1.2-2.2 1.6-3.3.8-2.1 2.8-3.1 4.1-4.7.9-1.3 2.8-2 4.2-2.9.7-.5 1.8-.5 2.2-1.5 1.2 0 2.2-.6 3.3-.8.6-.1 1.5.5 1.7-.7h.9c.7-.5 1.7.4 2-.9zm18.1 1.4c.6 0 1.2.3 1.7-.3 1.2-.4 2.3-.8 3.7-1.2-.6-.4-.9-1-1.7-1-.9-.1-1.5-1-2.2-1.5-.8-.6-1.4-1.3-2.1-2-.5-.5-.6.3-.9.4-.3.1-.3.5 0 .6.5.2.5.7.5 1-.1.4-.6.3-.9.3-.4 0-.7.2-1 .4-.9.6-.2.6.2.8.1 1.2 1 .4 1.5.6.3.3.1.5-.2.7-.3.2-.6.3-.4.7.2.3.4.6.8.6.4-.1.7-.1 1-.1zm-2 3.9c-.1-.3-.5-.2-.7-.3-.5-.4-.9-.9-1.4-1-1-.2-1.8-.8-2.8-.9-.8-.2-1.7-.1-2.5-.4-2.1-.9-4.3-1-6.5-.9-1.1 0-2.3.3-3.5.3-.5 0-.8.1-.7.7-2.2-.3-4.1.9-5.9 1.7-1.6.7-2.9 1.9-4.3 2.9-.8.5-1.7 1.2-2.2 1.9-.6.8-1.4 1.7-1.9 2.6-.3.6-1.1.9-1 1.8-.9 0-1 .5-.9 1.2.2 1.3-1.1 2.2-.8 3.5 0 .2-.1.3-.3.3-.7 0-.6.5-.6 1 0 .9-.1 1.8-.1 2.6-.5 0-.9.1-.9.8.1.6 0 1.3 0 1.9 0 .7.3.8.9.8 0 1 .1 2 .1 3 0 .6-.2 1.4.9 1.3.1 1 .3 1.9.6 2.8.3 1 .7 1 1.5 1 3.5 0 7-.1 10.5-.1H87c.5 0 .7-.2.8-.6 1.7 0 3.4.2 5-.2 1.9-.5 3.9 0 5.8-.9.7-.4 1.7-.1 2.6-.2.7-.2 1.6.5 2-.7 1.7.2 3.3-.3 4.9-.6 1.9-.5 3.6-1.6 5.7-1.4.1 0 .2-.2.2-.4 1.2-.1.5-1 .7-1.5.1-2.2.1-4.5 0-6.7-.1-.5.5-1.4-.6-1.5-.2-.8.3-1.8-.4-2.4-.9-.7-1-1.9-1.5-2.7-.8-1.4-1.6-2.8-2.7-4-.4-.4-.8-.9-1.2-1.2-.9-.7-1.2-1.9-2.5-2.1 0-.2.1-.7-.3-.7-.9-.1-1.2-.7-1.8-.7zm-53.4 30.1c2.3.3 4.3 1 6.1 2.1.9.6 2 .1 2.9.6 2 1.1 4.3.7 6.3 1.7 1.1.5 2.4.2 3.7.7 1.4.5 3.1.4 4.7.5 6 .3 11.9.2 17.9.1.7 0 1.1-.5 1.8-.5.2 0 .4-.3.1-.5-1-.8-1.9-2-3-2.3-1.3-.4-2.4-1-3.6-1.5-1.7-.8-3.6-1.5-5.7-1.3-1.9.2-3.9.1-5.9 0-4.9-.2-9.9.3-14.8-.3-1.4-.2-2.8 0-4.4-.3-2-.4-4.3-.9-6.1 1zm51.7-40.7c.9-.4.9 1.4 1.9.8 0-1.4-1-1.1-1.9-.8z"/><path class="st0" d="M27.9 264.9c0-.4-.2-.7-.7-.6-.5 0-1-.1-1.6 0-1.7.2-3.2-.6-4.9-.7-.6 0-1.3-.7-2.1-.5-.7-.8-1.7-.7-2.6-.8v-1.2c2.2.2 4.2-.7 6.2-1.4 1.5-.5 3-1.3 4.3-2.3 2.7-2 5.9-2.6 9.2-2.1h1c.4 1.2 1.3.5 2 .6 2.8.5 5.7.9 7.5 3.3.7 1 2 1.5 2.4 2.8.1.4.9.2 1 1 .1.8-.1 1-.7 1.1-.8.1-1.5.1-2.3.1-.9 0-1.9.1-2.8 0-.5 0-.7.2-.8.6-5 .1-10.1.1-15.1.1zm-5.5-2.6c-.2 1 .7.5 1 .6.4.1.7-.1.6-.5-.1-.5.4-1.3-.6-1.3-1.7-.2-2.5 0-2.8 1 .6.1 1.2.2 1.8.2zm17.9 1.4c1.3 0 2.5-.1 3.8-.1.6 0 1.5.5 1.8-.6.3 0 .6-.1.9-.1.4.1.9.2.9-.5s-.4-.7-.9-.5c-.1-.4-.2-.7-.4-1.1-.6-1.1-1.8-1.4-2.7-1.9-1.4-.9-3.2-1.5-5-1.7-.8-.8-1.7-.3-2.5-.2.8-.2.6 1.4 1.6.9 0 .1.1.2.1.2.7.4 1.2 1 .8 1.6s-1 0-1.5-.2c-1.1-.6-2.3-.3-3.1.6-.5-.1-.8-.2-.8.5s.4.6.8.5c.7 1.2 1.8.9 2.8.7.6-.1 1.3-1 1.8-.4.6.8-.6 1.1-.9 1.7-.3 0-.8-.3-.8.3 0 .3 0 .7.3.7.9 0 2 .2 3-.4zm65.3 39.7c0 .9-.8 1.1-1.3 1.4-.9.6-1.5 1.6-2.4 2.1-.8.5-1.7.9-2.6 1.3-1.3.5-2.5 1.4-3.9 1.9-1.2.4-2.5 1-3.8 1.1-1.2.1-2.2.9-3.3.9-.1 0-.2.2-.3.1-1.7-.2-3.2 1.1-5 .8-.7.2-1.7-.6-2 .6-8.7.7-17.4.6-26.2 0-.2-1.2-1.1-.5-1.7-.6-.6 0-1.3 0-1.9-.1-.2-1.1-1.1-.6-1.7-.7-.6 0-1.2-.1-1.8-.1.4-.9 1.3-.2 1.9-.5 9.9.6 19.9.9 29.8 0 .6-.2 1.5.5 1.8-.6.9 0 1.9-.1 2.8-.1.6-.2 1.5.5 1.7-.7 1.5.1 2.8-.7 4.3-.6.5 0 .9-.5 1.4-.7 2.5-.7 4.9-1.5 7.3-2.5 1.2-.5 2.3-1.3 3.4-2 .9-.6 1.9-1 2.6-1.7.3.3.8.1.9.7zM-47.9 233c1.6-.6 3.2-.4 4.7-.3m-.1 3.6c-.5 0-1.1-.2-1.4.5-.1.3-.7.3-.9.1M43 250.2c-.1-.3-.2-.4-.5-.4-1.3-.1-2.5-.5-3.5-1.3-.1-.1-.3-.1-.5-.1-2.8.1-5.5-.9-8.3-.5-1.9.3-3.8.1-5.6.6-.8.2-1.9.2-2.5 1.1-.1.2-.7.2-1 .2-.3.1-.8-.1-.8.5-1.1 0-1.8.7-2.6 1.2-.8.4-1.5.8-2.1 1.4-.7.8-2 .8-2.5 1.7-.1.2-.4.2-.5.1-.2-.3-.2-.7 0-.9.8-.7 1.6-1.6 2.6-2 1-.5 1.5-1.5 2.6-1.8 2.1-.7 3.9-2.1 6.2-2.2.7-.1 1.6.5 2-.7 2.4-.3 4.8-.5 7.2-.5 1.6 0 3 .6 4.6.5.3 1 1.1.5 1.7.7 1.2 0 2.3.5 3.4 1s2.3.8 3.3 1.4c1.3.8 2.6 1.8 3.9 2.7.2.2.1.4.2.6v.6c-1.1-.3-1.8-1.2-2.7-1.6-1.6-.7-2.8-2.1-4.6-2.3z"/><path class="st0" d="M-32.1 232.6c-2.1-.8-4.3-.6-6.5-.7-1.7-.1-3 .9-4.7.8-1.6-.1-3.2-.2-4.7.3-.7.2-1.5.1-2.3.1-4.2 0-8.3 0-12.5.1 0-.9.8-.5 1.2-.6.5-.2 1.3.4 1.5-.6 1.5 0 3 0 4.5-.1h3c.4 0 .8-.1.8-.6 4.1.1 8.3-.5 12.4-.6h2.9c2.1 0 4.3.2 6.4.5.5.1.9.1.8.7v.7h-2.8zm142.3 15.2c-.9-.1-1.6-.7-2.5-.9-2.8-.8-5.6-1.4-8.5-.9-1.8.3-3.5.9-5.2 1.5-1.7.7-2.7 2.4-4.5 2.8-.3.1-.1.4-.2.6-1.1.2-1.1-.5-1-1.2 1.6-1.4 3.3-2.8 5.3-3.7 3.7-1.7 7.6-1.6 11.5-1.2 1.5.2 3.2.4 4.4 1.7.3.3 1.1 0 1.5.6.1.6-.3.8-.8.7zm-87.8 60.7c-.2 1 .9.5 1.2 1 0 .2-.1.5-.3.4-1.3-.2-2.5.3-3.6.6-1.4.4-3 .1-4.1.7-1.5.8-2.8.3-4.2.5-.5.1-.8-.1-.8-.7s.3-.8.8-.7c2.2.3 4.4-.3 6.6-.7 1.1-.2 2.7-.1 3.7-1.2 0 0 .4.1.7.1z"/><path class="st0" d="M110.2 247.8c.6 0 .9-.1.8-.8 1.1.6 2.6.7 2.9 2.2.1.5.6.7.9.8.7.2.7.6.7 1.2 0 .3.1.7-.3.8-.5.1-.5-.3-.6-.6-.2-.6-.7-.9-1.2-1.2-1.3-.6-2.4-1.3-3.2-2.4zm-22 1.9c-.1.7-.1 1.5 1 1.2 0 .4-.1.6-.5.8-.6.2-1.1.5-1.2 1.4-.1.7-.9.7-1.4.9-.2.1-.4-.1-.4-.3 0-.3-.1-.7.2-.7.8-.1.6-.7.7-1.2.3-.9.9-1.6 1.6-2.1zM44 288.9c-.7.1-1-.1-1-.9v-4.9c.7 0 .9.3.9 1 0 1.6.1 3.2.1 4.8zm6.2-34.8v-.6c.8.1 1.7.3 1.9 1.3 0 .1.1.2.1.3.2.2.9 0 .7.6-.2.4-.9.3-1.2.2-.5-.4-1.7-.5-1.5-1.8zm-.6 57.7c-.6.3-1.5-.4-1.9.5-.9.2-1.6-.1-2.4-.5-.2-.1-.4-.2-.3-.4 0-.1.2-.3.3-.3h3.8c.5 0 .4.4.5.7zm14.4-21h-4.9c-.5 0-.8-.1-.8-.6h4.9c.5 0 .8.1.8.6zM-60 232c-.2 1-1 .5-1.5.6-.4.1-1.2-.4-1.2.6h-.2c-.7 0-1.5-.5-1.5-.9.1-.6.9-.3 1.5-.3.9-.1 1.9-.1 2.9 0zm152.9 24.7h-1c.6-.7.7-1.8 1.8-2 0 .3.2.5.5.5.5 0 .6.3.5.7-.3.1-.8-.1-.9.4-.1.6-.5.4-.9.4zM43 264.9c.1-.5.3-.6.8-.6h2.8c0 .5-.3.7-.8.7-.9-.1-1.8-.1-2.8-.1zm-94.7-33.6c0 .6-.3.6-.8.6h-3c0-.5.3-.7.8-.7 1 .1 2 .1 3 .1zm15.3-.6h-2.9c.1-.2.1-.5.2-.5.6-.5 2.5-.1 2.7.5zm103 67.7h2c.5 0 .7.2.7.7h-2c-.5 0-.7-.3-.7-.7zm5.5.7h2c.5 0 .7.1.7.6h-2c-.4.1-.7-.1-.7-.6zm19 .6c0-.5.3-.7.7-.6h2c0 .5-.2.7-.7.7-.7-.1-1.3-.1-2-.1zm-42.5-10.1h-1.9c-.5 0-.7-.2-.8-.7h1.9c.5.1.8.2.8.7zm66.9-2.6c.2-.7-.5-1.8 1-1.9-.3.7.6 1.9-1 1.9zm-9.9 16.4c-.1-.6-.6-.4-.9-.4 0-.4 0-.8.5-.7.4 0 .9-.2 1.2.2.1.1.1.5.1.7-.1.3-.6.1-.9.2zm-4.5-53.2c-.6 1.2-1.6.6-2.4.4.6-.8 1.5-.3 2.4-.4zm13.9 23.3c-.8-.4-.4-1.1-.5-1.7 1.1.3 1.3.7.5 1.7zm-89.1-26.4c-.3 1.1-1.3.5-2 .7.4-1.3 1.4-.5 2-.7zM81 313.7c.3-1.3 1.3-.4 2-.6-.3 1.3-1.3.4-2 .6zm-39.6-18.9c-.1-.7-.1-1.4.9-1.5 0 .6.3 1.6-.9 1.5zm-2.7-38.9c-.7-.2-1.6.5-2-.6.7.2 1.7-.7 2 .6zm48.9 1.3c-.3 1.3-1.4.4-2 .6.3-1.3 1.3-.4 2-.6zm19.6 2.6c.3-1.3 1.3-.4 2-.7-.3 1.4-1.3.5-2 .7zm-48.8 36.7c.7.1 1.6-.4 1.9.7-.6-.3-1.6.5-1.9-.7zm-19-48.7c-.6-.1-1.5.4-1.7-.7.6.1 1.5-.5 1.7.7zm46.3 62.6c-.2 1.2-1.1.5-1.7.7.1-1.2 1.1-.5 1.7-.7zm-4.6.8c-.3 1.2-1.2.5-1.8.6.3-1.2 1.2-.5 1.8-.6zm32.7-23.4c.2-1 1.1-.6 1.7-.7-.1 1.2-1.1.4-1.7.7zm-60.7 25.3c.6.1 1.5-.5 1.7.6-.6-.1-1.5.6-1.7-.6zm-3.6-.7c.6.1 1.5-.4 1.7.7-.6-.2-1.5.5-1.7-.7zm35.2-54.5c-.2 1.2-1.1.5-1.7.7.1-1.2 1.1-.5 1.7-.7zm-68.6 3.2v1.2c-.4 0-1 .2-1-.6s.6-.6 1-.6zM65.7 287c1 0 1 .6.9 1.3-1.1.1-1-.6-.9-1.3zm-23.4-7.7c-.9 0-1-.5-.9-1.2 1-.1 1 .6.9 1.2zm74.1-3c-1 .1-1-.6-.9-1.3 1.1-.1 1 .6.9 1.3zm-74 16.5c.1-.6-.5-1.4.6-1.5-.1.6.5 1.4-.6 1.5z"/><path class="st0" d="M114.5 271.9c-.7-.1-.7-.7-.7-1.2 1 0 .7.6.7 1.2zM-79 533.8c2.5-1.1 5-1.5 7.6-1.6 1.3-1.3 3.3 0 4.6-1.3.1-.1.5-.1.7-.1 3 .2 6.1-.1 8.9-.7 3.8-.8 7.6-.4 11.4-.5 3.9-.1 7.8-.1 11.7.1 2.7.1 5.3.7 7.9 1 1.6.2 3.1.2 4.7.1 1-.1 1.5.8 2.5.7.8-.1 1.8-.4 2.5.6.1.1.4.1.6.1 1.5-.2 2.9.3 4.2.6 1.6.5 3.3.5 4.7 1.2 1.6.7 3.4.8 4.9 1.7.2.1.4.1.6.1.9.1 1.7.1 2.5.7 1.3.9 3 1.4 4.5 2.1 1 .4 1.9.9 3 1.1.4.1.4.5.3.8-.1.5-.5.5-.7.3-.6-.5-1.3-.2-1.8-.4-1.2-.5-2.5-.6-3.7-1-2-.6-4-1.5-6-2.2-2.6-.9-5.4-1.2-8-2.1-1.8-.6-3.7-.1-5.4-1.2-.7-.5-1.8-.4-2.6-.4-1.7-.1-3.3-.8-5-.9-11.7-.9-23.4-.5-35.1-.3-3.3.1-6.6-.1-9.8.5-2.2.4-4.3.3-6.5.6-1.1.2-2 .5-3.2.4zm94.1.8v.1c-.1.4.2.9-.4 1.1-.3.1-.5-.2-.5-.5-.1-.8.4-.6.9-.7zm6.9 3.9c-.6 0-.6-.3-.6-.6 0-.4.2-.6.6-.6.4.1.4.4.4.6-.1.4-.2.6-.4.6zm49.2-25.3h.6c.4.1.4.4.3.8 0 .3-.2.4-.5.4-.4 0-.4-.3-.4-.6v-.6zm-62.3-111c-.6.4-1.3.4-1.8-.2-.5-.6-1.2-.3-1.8-.6-2.5-1-5-2.1-7.7-2.2-.3 0-.4-.1-.5-.4-.6-.6-1.3-.3-1.9-.3-1.9-.1-3.9-.2-5.8-.3-.3 0-.6-.1-.9-.1s-.4-.2-.5-.4c0-.3.2-.3.5-.4 1.3 0 2.5-.1 3.8-.1s2.5.1 3.8.1c-.1 1.1.7.4 1.1.5 4.2.1 8 1.4 11.7 3.3v1.1zm-4.7-13.9c1.1-.1 1.8.9 2.8.9-.2.3.3 1-.4 1.1-.4.5-1 .1-1.3-.1-1.8-1-3.8-.8-5.6-1.2-.3 0-.5-.1-.8-.2-.4-.8-1.1-.4-1.8-.4-3.4-.1-6.9-.1-10.3 0-.2-.2-.3-.5-.5-.7 4.2-.8 8.5-.7 12.8-.5 1.1.1 2.2.3 3.3.4.3 1.3 1.2.5 1.8.7zm-18.1 19c2 .8 4.1 1.1 6 2.3 1 .7 2.2 1.3 3.4 1.8.1 0 .3.1.4.2 1.1 1.3 2.7 2.2 3.7 3.6.1.2.1.4 0 .5-.6-.1-1.1-.1-1.7 0-.8-1.3-2.1-2-3.3-2.9-2-1.5-4.2-2.5-6.4-3.6-1.3-.6-2.6-.9-4-1.3.4-1.1 1.3-.3 1.9-.6z"/><path class="st0" d="M-13.9 407.3c-.6.3-1.5-.5-1.8.6-.5.2-.8.2-.9-.5 0-.5.1-.8.7-.7.6 0 1.1 0 1.7.1.3-.1.4.2.3.5zM25 387.7c0 .2 0 .3-.1.5-.3.1-.7.2-.8-.2-.1-.5-.7-.5-1-.9-.1-.2-.8.1-.6-.5.1-.3.6-.2.9-.1.6.3 1.2.6 1.6 1.2zm-38.6 0c.2.2.3.5.5.7.1 1-.6.5-1 .6-.6.1-.5-.5-.5-.8 0-.9.6-.5 1-.5zm20.2 2.6c.7-.2.2-.8.4-1.1.4-.1.8-.1.8.5 0 .4.1.9-.2 1.1-.4.2-.8 0-1-.5zm-11.3 8.2c.6 0 1.3-.3 1.9.3-1 .5-1.6.4-1.9-.3zm8.9-10.2c-.6-.2-1.5.6-1.7-.6.6 0 1.4-.4 1.7.6zm-6.3 27.3c.6-.1 1.1-.1 1.7 0 .2.9-.6.5-.9.6-.4 0-1 .2-.8-.6zm-.8-27.2c.6 0 1.3-.4 1.8.4-.6.1-1.4.8-1.8-.4zm-15.4 55.7c0-.2.1-.4.1-.6.3-.1.7-.2.9.3.1.3.1.6-.3.7-.4.2-.7.1-.7-.4zm27.2-41.9v-1c.6-.1.6.2.6.7 0 .4-.2.4-.6.3zm-11.7-4.3c-.4-.1-1.2.6-1.1-.5.6-.2 1.1-.3 1.1.5zm-20.1-83.7c.3.1.8-.2.9.3.1.2-.1.4-.3.4-.6.1-.6-.3-.6-.7zm-1-.5c.4 0 .9-.2 1 .5-.4 0-.9.2-1-.5zm77 26.8c.3.1.8-.5.9.2.1.3.1.7-.4.7-.6 0-.4-.6-.5-.9 0-.1 0 0 0 0zm-19.3 3.6c-.1-.1-.3-.1-.3-.2 0-.2.1-.3.3-.2.1 0 .2.1.2.2l-.2.2zm2.9-1.5c-.1.1-.2.2-.3.2-.2 0-.3-.1-.3-.3 0-.1.2-.1.3-.1.1 0 .2.1.3.2zm15.1-.6c-.1 0-.2 0-.2-.1 0 0 0-.1.1-.2.1 0 .2 0 .2.1-.1.1-.1.2-.1.2zm-90.5-56.2c-.4 0-.5-.1-.5-.3 0-.2.2-.4.4-.3.3 0 .5.1.4.4 0 .2-.2.2-.3.2zm171.5-62.7c-4.3 0-8.6.1-12.9-.2-3-.2-6.2.1-9-.6s-5.4-.2-8.1-.5c-.5 0-.9 0-.9.7h-2.3c-.3 0-.7-.3-.5-.4.7-.2.8-.9 1.5-1.1 1.9-.5 3.9-.4 5.9-.5h3.7c3.8.2 7.6.7 11.5.6.4 1.3 1.4.4 2 .6 1.8 0 3.7 0 5.5.1.1.4.3.6.8.6h2.7c.4 0 .8-.1.8.5-.2.1-.4.2-.7.2z"/><path class="st0" d="M133.5 223c.1-.6-.4-.5-.8-.5-.9 0-1.8-.1-2.7 0-.5 0-.7-.2-.8-.6h4.3c.4 0 1-.2 1 .5s-.5.6-1 .6zm-23.3-2.4h-3.7c.1-.2 3.4-.5 3.5-.5 1.1-.2-1.1-.2 0 0 .1 0 .1.3.2.5zm13.5 1.2c-.7-.2-1.7.7-2-.6.6.1 1.6-.7 2 .6zM103 256.1c-.4-.1-1.2-.2-.2-.8.3-.2.6-.4 1-.4.3 0 .8.1.9-.3.1-.3 0-.8-.5-1-.4-.1-.4-.5 0-.6.3-.1.4-.9.9-.4.7.6 1.4 1.4 2.1 2 .7.5 1.3 1.4 2.2 1.5.8.1 1 .6 1.7 1-1.4.5-2.5.8-3.7 1.2-.9-.5-1.4-.4-1.7.3h-1c-.4 0-.6-.3-.8-.6-.2-.4.2-.5.4-.7.3-.2.4-.4.2-.7 0-1.2-.9-.4-1.5-.5zm-22 34.7c0-.6.4-.7.9-.7h5.7c0 .5-.3.6-.8.6-1.9.1-3.8.1-5.8.1zm-13.5-11.5v3.5c-.5 0-.9-.1-.9-.8 0-.6.1-1.3 0-1.9 0-.7.4-.8.9-.8zm25.4-22.6c.4 0 .8.2.9-.4.1-.5.6-.3.9-.4 0 .2.1.5 0 .7-.1.4.4 1.1-.4 1.1-.7.2-1.4 0-1.4-1zm9.1-4.8c.9-.3 1.8-.7 1.9.8-1 .7-.9-1.2-1.9-.8zm-1 37c.3-1.3 1.3-.4 2-.7-.4 1.2-1.3.5-2 .7z"/><path class="st0" d="M105.7 258.6c.2-.7.8-.8 1.7-.3-.4.6-1.1.2-1.7.3zm-2.7-2.5c.5.2 1.4-.6 1.5.6-.5-.2-1.3.6-1.5-.6zm-32.8 14.6c0 .7.1 1.3-.9 1.2-.1-.7 0-1.3.9-1.2zm-2.6 15.1c1-.1 1 .6.9 1.3-1.1.1-.9-.6-.9-1.3zm46.9-8.1c-1.1-.1-.5-1-.6-1.5 1.1.1.4.9.6 1.5zm-.7 8.2c.1-.5-.5-1.4.7-1.5-.2.5.5 1.4-.7 1.5zm-10.1-23.4c0 .2-.1.5-.4.4-.4-.1-.3-.5-.3-.8.2.2.6 0 .7.4zM34 259.9c.8-.9 2-1.1 3.1-.6.5.3 1.2.9 1.5.2.4-.6-.2-1.2-.8-1.6-.1 0-.1-.1-.1-.2-.1-.8.5-.6 1-.7 1.8.2 3.5.8 5 1.7.9.6 2.1.8 2.7 1.9.2.4.3.7.4 1.1v1.1c-.3 0-.6.1-.9.1h-1.5c-.4 0-.4.3-.3.6-1.3 0-2.5.1-3.8.1h-1.9c-.5 0-.7-.2-.7-.7.3-.6 1.6-.9.9-1.7-.5-.6-1.2.2-1.8.4-.9.2-2.1.5-2.8-.7.1-.3.1-.6 0-1zm-11.6 2.4c-.6-.1-1.2-.1-1.9-.2.3-1 1.1-1.2 2.8-1 .1.7 0 1.3-.9 1.2z"/><path class="st0" d="M37.6 263c0 .5.2.7.7.7h1.9c-1 .6-2.1.3-3.2.3-.3 0-.3-.4-.3-.7.2-.5.6-.3.9-.3zm1-5.9c-.4.1-1-.1-1 .7-1 .5-.7-1.1-1.6-.9.9 0 1.8-.5 2.6.2zm-16.2 5.2c.9.1 1-.5.9-1.2 1.1 0 .5.8.6 1.3.1.4-.2.6-.6.5-.2-.1-1 .4-.9-.6zm21.6 1.3c-.1-.3-.1-.5.3-.6h1.5c-.3 1.1-1.1.5-1.8.6zm-10-3.7c.1.3.1.7 0 1-.5.1-.8.2-.8-.5 0-.6.3-.6.8-.5zm12.7 3v-1.1c.5-.1.9-.1.9.5 0 .8-.4.7-.9.6zm33.6 9.4c.7-.7 1.2-.4 1.8.3 1.7 2 .5 4.3.9 6.5.2 1.1-.3 2-1.1 2.7-.4.4-1.1.4-1.5 0-.6-.7-1.4-1.3-1.1-2.4v-5.6c1.2 0 1-.8 1-1.5zm23.4 5.4c-1.2 1.7-2.2 1.7-3.7 0 0-1.5 0-3.1-.1-4.6.1-1.1 1-2.1 2.2-2.3 1.1-.2 1.1.9 1.6 1.5 0 .7-.3 1.5.9 1.5v2.3c-1.2 0-.8.9-.9 1.6z"/><path class="st0" d="M79.4 274.3v5.1c-.6 0-1-.2-.9-.9.1-1.1 0-2.2 0-3.3-.1-.8.3-.9.9-.9zM100 273c0 1.5 0 3.1.1 4.6-.6 0-1-.1-1-.9v-2.9c0-.6.2-.8.9-.8zm3.7 4.7c0-.6-.3-1.5.9-1.5 0 .6.4 1.5-.9 1.5zm.9-3.9c-1.1 0-.9-.8-.9-1.5 1.4-.1.9.9.9 1.5zm-24.3-1.5c0 .7.2 1.5-.9 1.5 0-.7-.3-1.6.9-1.5z"/></svg>