<svg id="svg2169" xmlns="http://www.w3.org/2000/svg" viewBox="-507 71.2 367.4 380.8"><style>.st0{fill:#fff}</style><g id="layer1" transform="translate(-473.36 -251.725)"><g id="g1894" transform="translate(428.423 184.256)"><path id="path8615" class="st0" d="M-279.7 138.6c-93.3 0-87.4 42.1-87.4 42.1l.1 43.7h89v13.1h-124.4s-59.7-7.1-59.7 91 52.1 94.6 52.1 94.6h31.1v-45.5s-1.7-54.3 51.3-54.3h88.3s49.6.8 49.6-49.9v-84s7.5-50.8-90-50.8zm-49.1 29.4c8.9 0 16 7.5 16 16.7s-7.2 16.7-16 16.7c-8.9 0-16-7.5-16-16.7 0-9.3 7.2-16.7 16-16.7z"/><path id="path8620" class="st0" d="M-277 519.5c93.3 0 87.4-42.1 87.4-42.1l-.1-43.7h-89v-13.1h124.4s59.7 7.1 59.7-91-52.1-94.6-52.1-94.6h-31.1v45.5s1.7 54.3-51.3 54.3h-88.3s-49.6-.8-49.6 49.9v84s-7.5 50.8 90 50.8zm49.1-29.4c-8.9 0-16-7.5-16-16.7s7.2-16.7 16-16.7 16 7.5 16 16.7-7.2 16.7-16 16.7z"/></g></g></svg>