<svg id="Layer_1" xmlns="http://www.w3.org/2000/svg" viewBox="408 294 370 381.1"><style>.st0{fill:#fff}</style><path class="st0" d="M593 625c-102.2 0-185-74.1-185-165.5S490.8 294 593 294s185 74.1 185 165.5S695.2 625 593 625zm28.3-266.3c-77.7 0-140.6 50.6-140.6 113.1s63 113.1 140.6 113.1c77.7 0 135-34.6 135-113.1s-57.3-113.1-135-113.1z"/><path class="st0" d="M689.7 550.3s11.2 4.5 17.7 8.9c2.3 1.5 6.2 4.6 9 8.6 2.8 3.9 4.1 7.9 4.1 7.9l44.1 99.4h-71.3L660 591.4s-6.8-15.7-11-20.2c-3.5-3.8-5-5.1-8.5-5.1h-16.9V675h-63.1V396.8h126.7s57.7 1.4 57.7 74.7-55.2 78.8-55.2 78.8zm-27.4-93.2h-38.2v47.3h38.2s17.7-.1 17.7-24.1c0-24.5-17.7-23.2-17.7-23.2z"/></svg>