<svg id="svg2320" xmlns="http://www.w3.org/2000/svg" viewBox="856 222 373.5 385"><style>.st0{fill:#fff}</style><g id="layer1" transform="translate(-310.376 -505.828)"><path id="path2440" class="st0" d="M1219.8 727.8c-5.3-.3-10.7 1.3-16.3 4.8-25.9 16.2-54.8 99.8-23.2 196.1l18.9 57.4 5.3 16.3c3.6 10.7 9.4 10.5 13.7 1.6 4.3-8.9 5.5-23.6 2-34.5 0 0-1.5-4.6-2.2-6.6h.1c-1.4-4.1-1.7-4.8-3.1-9.1-6.8-20.6-14.6-44.4-14.6-44.4-13.7-41.8-7.6-93.5 11-122.9 16.4-25.9 46.5-16.6 56.9 25.8-6.6-48.3-25.6-83.2-48.5-84.5zm3.8 101.1c-2.4-.2-5 2.1-7.1 6.6-4.3 9-5.5 23.6-2 34.5 0 0 .4 1.4 1.2 3.6 8.2 24.7 19.1 57.8 19.1 57.8 13.7 41.8 7.6 93.3-11 122.7-16.4 25.9-46.5 16.6-56.9-25.8 8 59.6 35 98.5 64.8 79.8 25.9-16.3 54.8-99.6 23.2-195.9l-22.1-67.1-2.5-7.9c-1.9-5.4-4.3-8.1-6.7-8.3z"/><path id="path2448" class="st0" d="M1321.1 773.6c-16.4 0-35.1 21.2-35.1 72.3 0 48.7 15.4 62.3 30.7 71.6 15.5 9.3 30.8 14.7 30.8 47.2 0 31.9-13.1 37.9-22.8 37.9-12.7 0-24.7-11.6-25.3-49H1284c.9 62.9 18.7 85.9 39.8 85.9 19.1 0 40.1-19.6 40.1-80 0-49.1-15.3-63-30.8-72.3-14.4-9.3-30.8-14.2-30.8-44.2 0-25.6 10.8-32.4 20-32.4 10.2 0 20.8 10.2 21.9 42.6h15.4c-1.2-61.9-17.8-79.6-38.5-79.6zm89.2 0c-20.9 0-39 22.1-39.9 85h15.4c.7-37.3 10.4-48.1 23.5-48.1 9.8 0 20.9 5.8 20.9 42.2 0 31.4-14.5 28.6-31.6 37.4-16 8.4-31.9 20.7-31.9 78.2 0 50.6 14 71.2 31.2 71.2 13.1 0 24.5-12.4 33-39.4 0 27.5 5.2 39.4 13.2 39.4 4.9 0 8.3-2.6 11-7v-32.4c-2 2-3.4 2.5-4.7 2.5-4.9 0-4.9-8.7-4.9-28.3V843.4c.1-59.4-18.3-69.8-35.2-69.8zm80.9 0c-16.4 0-35.1 21.2-35.1 72.3 0 48.7 15.5 62.3 30.8 71.6 15.5 9.3 30.8 14.7 30.8 47.2 0 31.9-13.1 37.9-22.8 37.9-12.7 0-24.7-11.6-25.3-49h-15.5c.9 62.9 18.8 85.9 39.9 85.9 19.1 0 40-19.6 40-80 0-49.1-15.3-63-30.8-72.3-14.4-9.3-30.7-14.2-30.7-44.2 0-25.6 10.7-32.4 20-32.4 10.2 0 20.7 10.2 21.9 42.6h15.5c-1.3-61.9-18-79.6-38.7-79.6zm-61.1 128.8v42.8c0 23.1-8.3 57.4-28.7 57.4-9.5 0-18.2-9.9-18.2-37.4 0-31 8.8-40.7 19-45.6 10.2-4.9 21.8-5.4 27.9-17.2zm-153.3 111.3c-3.3 0-6 6.4-6 15s2.8 15 6 15 6-6.3 6-15c0-8.6-2.7-15-6-15zm257 0c-3.3 0-6 6.4-6 15s2.8 15 6 15 6-6.3 6-15c0-8.6-2.8-15-6-15zm-257 2.5c2.7 0 4.8 5.4 4.8 12.5 0 7.2-2.1 12.5-4.8 12.5-2.7 0-4.9-5.3-4.9-12.5.1-7.1 2.2-12.5 4.9-12.5zm257 0c2.7 0 4.9 5.4 4.9 12.5 0 7.2-2.2 12.5-4.9 12.5s-4.8-5.3-4.8-12.5c0-7.1 2.1-12.5 4.8-12.5zm-259.3 3.9v17.2h1.1v-7.5h1.2l1.8 7.5h1.2l-2-7.7c1-.3 1.8-1.4 1.8-4.5 0-3.4-.8-5-2.4-5h-2.7zm257 0v17.2h1v-7.5h1.3l1.8 7.5h1.2l-2-7.7c1-.3 1.8-1.4 1.8-4.5 0-3.4-.8-5-2.4-5h-2.7zm-255.9 2.2h1.4c.7 0 1.4.4 1.4 2.5 0 2.6-.7 2.7-1.6 2.7h-1.3v-5.2zm256.9 0h1.4c.7 0 1.5.3 1.5 2.5 0 2.6-.8 2.7-1.7 2.7h-1.3v-5.2z"/></g></svg>