<svg id="Layer_1" xmlns="http://www.w3.org/2000/svg" viewBox="-123.5 225.2 353.2 384.8"><style>.st0{fill:none;stroke:#fff;stroke-width:6;stroke-miterlimit:10}.st1{stroke-width:7}.st1,.st2,.st3{fill:none;stroke:#fff;stroke-miterlimit:10}.st3{fill:#fff}.st4{font-family:&apos;ArialMT&apos;}.st5{font-size:58.4583px}</style><g id="g3"><path id="path5" class="st0" d="M157.7 550.1c44.2-85.8 51.5-210.6 16.4-278.8s-99.4-53.9-143.6 31.8C-13.7 388.9-.9 552.8 14.1 581.9c12.1 23.6 99.4 54 143.6-31.8z"/><path id="path7" class="st1" d="M-23.7 426.1c-25.6-49.8-63-58.1-83.4-18.5s-16.1 112 9.5 161.8c25.6 49.8 74.6 35.4 83.3 18.5 7.2-13.6 16.3-112-9.4-161.8z"/></g><g id="g9"><g id="g11"><path id="path13" class="st2" d="M51.7 556.1c-4.5 8.1-8.5 14.1-11.9 17.9-3.4 3.9-6.7 5.8-9.8 5.8-3.6 0-6.4-2.7-8.6-8-2.2-5.4-3.3-12.6-3.3-21.6 0-13.6 1.5-29.9 4.5-48.9s6.7-36.5 11-52.6l12.7-9.1c.4-.3.7-.4.9-.4 1 0 1.8 1.4 2.4 4.1.6 2.8.9 6.5.9 11.1 0 13.2-1.6 26-4.7 38.3-3.1 12.4-8 25.5-14.7 39.6-.3 6.7-.4 11.3-.4 13.9 0 5.6.5 10.1 1.6 13.4s2.5 4.9 4.2 4.9c1.8 0 3.7-1.3 5.8-3.8 2-2.5 5.1-7.8 9.3-15.7l.1 11.1zm-19.1-37.9c4.2-9.1 7.7-19.4 10.3-30.7 2.6-11.3 3.9-21.1 3.9-29.3 0-2.4-.2-4.3-.5-5.8-.4-1.5-.8-2.2-1.4-2.2-1.2 0-3 6-5.4 17.9s-4.7 28.6-6.9 50.1z"/><path id="path15" class="st2" d="M89.1 556.1c-4.2 8.1-8 14.1-11.4 17.9-3.4 3.9-7.1 5.8-11.1 5.8-4.5 0-8.2-2.8-11-8.4-2.8-5.6-4.2-13-4.2-22.2 0-13.7 2.4-26.1 7.4-37.2 4.9-11.1 10.3-16.6 16.3-16.6 3.1 0 5.6 1.6 7.4 4.7 1.9 3.1 2.8 7.2 2.8 12.2 0 13.4-7.3 24.3-22 32.6 1.3 12.6 4.8 18.9 10.4 18.9 2.2 0 4.3-1.1 6.3-3.4s5-7.4 9-15.3l.1 11zm-26.2-18c8.5-4.7 12.8-13.3 12.8-25.8 0-6.2-1.2-9.3-3.5-9.3-2.2 0-4.3 3.2-6.3 9.8-2 6.5-3 14.9-3 25.3z"/><path id="path17" class="st2" d="M142.5 556.1c-5.3 9.8-9.1 16.2-11.4 19.2s-4.5 4.5-6.6 4.5c-5.3 0-7.7-9-7.4-27.1-3.3 9.2-6.4 16.1-9.2 20.5-2.8 4.4-5.7 6.6-8.7 6.6-2.9 0-5.4-2.7-7.5-8s-3.1-11.9-3.1-19.7c0-9.7 1.4-18.9 4.1-27.7 2.8-8.8 6.3-15.9 10.6-21.3s8.1-8.2 11.4-8.2c4.2 0 7.1 3.7 8.8 11.2l10.2-11h2.8l-4.4 28.4c-2.3 14.3-3.4 24.1-3.4 29.4 0 5.6 1 8.3 3 8.3 1.3 0 2.7-1.3 4.3-4 1.6-2.7 3.8-6.8 6.6-12.3l-.1 11.2zm-36.6 5.3c3.3 0 6.5-5.5 9.4-16.5s4.4-21.2 4.4-30.5c0-3.6-.4-6.5-1.2-8.5-.8-2-2-3.1-3.3-3.1-3.3 0-6.5 5.5-9.5 16.5s-4.5 21.1-4.5 30.4c0 3.5.4 6.3 1.3 8.5s2 3.2 3.4 3.2z"/><path id="path19" class="st2" d="M179.8 556.1C171.4 572 165 580 160.5 580c-2 0-3.8-1.7-5.1-5-1.4-3.3-2.1-7.5-2.1-12.4 0-9.1 2.5-21.3 7.5-36.7-2.5 2.5-5.2 4.2-8.1 5.1-2.2 7.8-5.6 16.1-10.2 25h-1.1v-8.7c2.6-5.2 4.9-10.9 7-16.9-2.9-2.5-4.3-6.1-4.3-11 0-5 .9-10.3 2.6-16s4.2-8.5 7.2-8.5c2.6 0 3.9 2.6 3.9 7.8 0 4.1-.7 9.9-2.3 17.5 5.5-1.2 10.4-9.4 14.5-24.6l4.5-.4-4.6 24.8c-1.9 10.5-3.2 17.6-3.7 21.4s-.9 7.1-.9 10c0 2.7.3 4.9 1 6.5.6 1.6 1.5 2.4 2.6 2.4 1.2 0 2.4-.8 3.4-2.4 1.1-1.6 3.6-6 7.4-13.2l.1 11.4z"/><path id="path21" class="st2" d="M228.9 556.1c-7.7 15.8-14.3 23.7-19.8 23.7-2.2 0-4-1.5-5.4-4.6-1.4-3-2.1-7.1-2.1-12.2 0-6.9 1.5-17.5 4.4-31.7 1.6-7.6 2.4-12.5 2.4-14.6 0-2.1-.4-3.1-1.2-3.1-.5 0-1.1.5-1.9 1.4-.7.9-1.5 2.2-2.5 3.8-.8 1.5-1.8 3.3-2.8 5.4-.9 1.8-1.9 3.9-2.9 6.2l-2.8 6.3c-1.2 2.9-2 6-2.3 9.2-.5 5.5-.8 10.5-1 15.1-.1 3.4-.2 8-.2 13.9l-11 5c-.4-8.7-.6-15.2-.6-19.5 0-10.4.6-20.3 1.9-29.6 1.2-9.3 3.3-19.8 6-31.4l12.2-4.6c-2.6 13.4-4.2 23.9-5 31.6 5.5-11.8 9.8-20 13-24.6s6.1-6.8 8.6-6.8c1.7 0 3.1 1.2 4.2 3.7s1.7 5.6 1.7 9.3c0 6.2-1.4 16.4-4.3 30.7-2 9.8-3 16.1-3 19 0 3.9.8 5.8 2.5 5.8 2.4 0 6.4-6.2 11.8-18.7l.1 11.3z"/></g></g><text id="text25" transform="matrix(.5153 0 0 1 54.113 453.76)" class="st3 st4 st5">scikit</text></svg>