<svg id="Layer_1" xmlns="http://www.w3.org/2000/svg" viewBox="0 0 360.8 379.2"><style>.st0{fill:#fff}.st1{font-family:&apos;ArialMT&apos;}.st2{font-size:115.5133px}</style><path class="st0" d="M337.9 324.6c-2.7 0-4.1-3.8-4.1-11.5 0-5.8 1.7-18.3 5-37.6 4.8-28.1 7.2-48.3 7.2-60.6 0-7.4-.9-13.5-2.8-18.5-1.9-4.9-4.3-7.4-7.1-7.4-4.2 0-9 4.5-14.4 13.5s-12.7 25.2-21.8 48.6c1.3-15.2 4.2-36 8.5-62.5l-20.5 9c-4.6 23-8 43.7-10.1 62.1-1 9-1.8 18.3-2.3 27.8-6.4 14.2-10.6 22.8-12.4 25.9-1.8 3.1-3.8 4.7-5.8 4.7-1.8 0-3.3-1.6-4.4-4.8-1.1-3.2-1.6-7.5-1.6-12.8 0-5.7.5-12.4 1.4-19.8.9-7.5 3-21.6 6.3-42.3l7.8-49.1-7.6.8c-6.9 30.2-15 46.4-24.3 48.7 2.5-15 3.8-26.5 3.8-34.5 0-10.2-2.2-15.3-6.5-15.3-5.1 0-9.2 5.6-12.1 16.8-2.9 11.2-4.4 21.7-4.4 31.6 0 9.6 2.4 16.8 7.2 21.7-3 10.1-6.3 19.7-9.9 28.7v-.1c-4.8 10.9-8.4 18.9-11.1 24.3s-5 8-7.2 8c-3.4 0-5.1-5.5-5.1-16.5 0-10.5 1.9-29.8 5.7-58.1l7.4-56.2H198l-17.1 21.7c-2.8-14.7-7.7-22-14.7-22-5.5 0-11.9 5.4-19.1 16.1-7.2 10.7-13.1 24.8-17.7 42.2-3.6 13.5-5.7 27.5-6.5 42.1-6.4 14.7-11.3 24.3-14.5 28.7-3.4 4.5-6.9 6.8-10.6 6.8-9.5 0-15.3-12.5-17.5-37.4 24.6-16.5 36.9-37.9 36.9-64.4 0-10-1.6-18-4.7-24.2-3.1-6.1-7.3-9.2-12.5-9.2-10 0-19.1 11-27.3 32.9-7.5 19.9-11.5 41.9-12.2 66.1-6.8 15.3-11.9 25.3-15.2 30.2-3.4 5-6.6 7.5-9.6 7.5s-5.3-3.2-7.1-9.8c-1.8-6.5-2.7-15.3-2.7-26.5 0-5 .2-14.1.7-27.4 11.2-27.7 19.4-53.8 24.7-78.2 5.3-24.4 7.9-49.6 7.9-75.7 0-9.2-.5-16.5-1.6-22-1-5.4-2.4-8.1-4-8.1-.3 0-.8.3-1.5.8l-21.3 18c-7.3 31.7-13.5 66.3-18.5 103.9C6.5 238.7 4 270.9 4 297.7c0 17.9 1.8 32.1 5.5 42.8 3.7 10.6 8.5 15.9 14.5 15.9 5.2 0 10.7-3.8 16.4-11.4 5.7-7.6 12.4-19.4 20-35.4v-.2c.9 12 3.1 22.1 6.5 30.3 4.7 11.1 10.8 16.7 18.4 16.7 6.8 0 13.1-3.8 18.7-11.4 5.4-7.3 11.6-18.6 18.4-33.7.6 11.2 2.2 21 4.9 29.3 3.4 10.5 7.6 15.8 12.5 15.8 5 0 9.9-4.3 14.6-13 4.7-8.7 9.9-22.2 15.5-40.5-.5 35.7 3.7 53.5 12.5 53.5 3.5 0 7.2-2.9 11.1-8.8 3.9-5.9 10.3-18.6 19.2-38 7.8-17.6 13.5-34.1 17.1-49.4 4.9-1.9 9.4-5.3 13.6-10.2-8.4 30.3-12.7 54.4-12.7 72.5 0 9.7 1.2 17.9 3.5 24.5 2.3 6.6 5.2 9.9 8.6 9.9 7.5 0 18-15.1 31.7-45.4v6.9c0 8.4.3 21.3.9 38.5l18.5-10c0-11.5.1-20.7.3-27.4.3-9.1.8-19.1 1.7-29.9.5-6.4 1.8-12.5 3.9-18.2l4.7-12.5c1.7-4.6 3.3-8.7 4.9-12.3 1.7-4.2 3.3-7.8 4.7-10.7 1.6-3.2 2.9-5.7 4.1-7.5 1.3-1.8 2.3-2.7 3.1-2.7 1.4 0 2.1 2 2.1 6.1s-1.3 13.7-3.9 28.8c-4.9 28.1-7.4 49-7.4 62.7 0 10.1 1.1 18.1 3.4 24.1s5.3 9 9.1 9c9.2 0 20.3-15.6 33.2-46.8v-22c-9.2 24.7-15.8 37-19.9 37zm-298-188.8c3.9-23.5 7-35.3 9-35.3.9 0 1.7 1.4 2.4 4.3.6 2.9.9 6.7.9 11.4 0 16.1-2.2 35.4-6.6 57.8-4.4 22.4-10.2 42.6-17.3 60.7 3.7-42.4 7.6-75.3 11.6-98.9zm44.3 88.3c3.4-12.9 6.9-19.3 10.6-19.3 3.9 0 5.9 6.1 5.9 18.4 0 24.8-7.2 41.8-21.5 51 0-20.6 1.6-37.3 5-50.1zm82.9 63.4c-5 21.8-10.2 32.7-15.8 32.7-2.3 0-4.2-2.1-5.7-6.4-1.5-4.3-2.2-9.9-2.2-16.8 0-18.3 2.5-38.3 7.5-60 5-21.7 10.3-32.6 15.9-32.6 2.3 0 4.2 2 5.6 6 1.4 4 2.1 9.6 2.1 16.8 0 18.4-2.4 38.5-7.4 60.3z"/><text id="text25_1_" transform="matrix(.4376 0 0 1 86.206 125.241)" class="st0 st1 st2">scikit</text></svg>