<svg id="Layer_1" xmlns="http://www.w3.org/2000/svg" viewBox="0 0 358.8 379.1"><style>.st0{fill:#fff}</style><path class="st0" d="M234 237.3s.1 0 .1-.1-.1-.2-.1-.3v.4zm6.5 18.2zm-72.5 64c-.2.5-.3 1-.5 1.6.2.1.4.3.6.5 0-.7-.1-1.3-.1-2.1zM184.3 36c5-1.5.8-19.8 5.4-21.5.9-.3 2 0 2.2 2.7.5 7.9-.4 17.5 3.9 20.3.1.1.1 5.6-.3 6.5-6.9 12.9-1.6 31.5-3 46.9-.2 2.2.5 4.5 1.6 4.7 2.1.3 2.2 4 1.8 8.1-.5 4.6-2 2.8-3.1 3.3-3.6.1-5.2-5.6-5.3-14.5-.1-11.1.1-22.2-.1-33.2-.1-5.9 1.4-13.9-2.6-16-1-.5-.9-7.1-.5-7.3zM180 99c0 4.4-.4 7.3-2.4 7.2-2-.1-2.2-3.4-2.2-7.6v-56c0-4 0-7.6 2.1-7.8 2.3-.3 2.5 3.5 2.5 8.2v56zm-2.1-91.9c2 .3 2.1 3.8 2.1 7.8.1 5-.5 8.2-2.6 7.9-2-.3-2.1-3.8-2.1-7.8 0-5 .5-8.2 2.6-7.9zm-25.9.3c1.9-.2 2.5 2.3 2.5 7v46.4c6.2-7 8.1-30.1 16.3-25.3-1.4 7.7-3.8 12.2-5.9 16.8-2.7 5.8-3.2 11-1 19 2.9 10.6 5.4 22.2 8.2 33.9-4.2 4.8-6.4.6-8.1-8.2-1.1-5.9-2.5-11.6-3.9-17.1-.7-2.7-1-8.6-2.9-6-1.3 1.8-2.7 4.7-2.7 9.9v17.3c0 4.1-.7 5.9-2.3 5.9-1.7 0-2.1-2.4-2.1-6.3V14.3c-.1-3.8.1-6.7 1.9-6.9zm-10.5 98.8c-2 0-2.3-3-2.3-7.4V41.3c0-4.9.8-6.8 2.5-6.6 1.7.2 2 2.7 2 6.5v57.5c.1 4.3-.2 7.5-2.2 7.5zm0-99.1c2.3 0 2.4 3.9 2.4 8.5.1 4.4-.5 7.2-2.3 7.2-2.3 0-2.4-3.9-2.4-8.5-.1-4.4.4-7.2 2.3-7.2zM111.9 65c1.1-22.7 5.3-33.7 12.5-33.2 4.7.1 8.3 4.7 9.8 17.7.3 2.7 1.5 6.9-.3 8.5-1.4 1.3-3.3 2.6-4.1-3.1-1.3-10.2-4-13.3-7.5-10.7-3.8 2.8-4.8 12-5.2 21.3-.3 5.7-.2 11.4.6 17 1 6.6 2.2 12.2 5 13.1 3 1 5.4-2 6.4-9.6 1-6.9 2.8-9.8 4.8-6.3 1.8 3.1.1 8.7-.6 12.6-2 11.2-8 17.4-12.8 13.8-5.8-4.2-9.5-21.8-8.6-41.1zM88.8 83.2c1.7-2.4 2.9.1 3.7 5 2 11.9 5.6 11.2 9.4 7.6 1.7-1.6 2.7-4.5 2.6-9.5-.1-4.4-1.2-6.7-2.7-7.8-2.9-2.1-5.8-4-8.6-6.7-2.5-2.5-4.8-6.1-5-14.9-.2-9 .9-15.9 3.7-20.8 4.6-8 12.7-5.1 15.5 5.8 1 4 2.3 8.9.3 12.5-1.3 2.4-2.9.9-3.9-4-1.5-7.7-4.4-6.9-7.1-6.7-1.8.1-3.2 1.8-3.4 7.1-.2 5 .8 8.4 2.4 9.8 2.4 1.9 4.8 3.3 7.2 4.9 4.1 2.8 7.3 7.5 6.7 21.4-.5 12.1-3.5 19.6-8.6 20.9-.7.2-1.4.2-2.1.3-4.3.5-8.2-2-10.3-13.4-.6-3.5-1.8-8.6.2-11.5z"/><path class="st0" d="M355.2 297c-4.7 13.8-8.8 27-14.1 36.6-2.3 4.2-4.8 8.2-7.3 3.8-2.7-4.6-2.1-12.4-1.1-19.5 2.1-16.2 4.2-32.5 6.3-48.8 2.5-19.9 5.5-39.6 5-61.3-.4-20.7-6.2-31.7-13.6-26.5-7.1 5-12.5 17.5-17.7 30.6-4.5 11.4-8.8 23.6-13.8 37.2 2-25.1 5.2-46.3 8-69.6-6.7 3.4-12.9 6.5-19.1 9.6-1.2.6-1.8 3-2.3 5.5-4.8 24.3-9.8 48.9-10.7 76.5-.9 28.4-8.4 41.6-15.2 56.9-1.9 4.3-4.6 5.6-7 1.7-2.9-4.5-3.4-12.5-3.1-20.1.3-9 1.1-18 2.2-26.6 3.9-30.8 8.1-61.2 12-92 .4-3.2 2.9-8.3-.1-11.8-4.9 4.9-7.8 15-10.6 26.3-3.5 13.9-8 25.8-14 32.1-1.5 1.6-3.1 3.3-4.5.1-.1-.2-.1-.3-.2-.5 0 0-.1 0-.1.1v-.3c-1.1-3.2-.7-7.4-.4-11.3.7-7 1.6-13.8 1.9-21 .8-16-2.6-24.1-8.2-20-9.8 7.1-15 49.8-8.4 70.4 2 6.3 2.1 11.4.5 18-5.6 24.1-13.8 41.3-21.8 58.6-5 10.8-10.2 2.3-10.6-15.2-.7-25.7 3-49.1 5.4-73.1 1.6-16.2 3.6-32.2 5.3-48.4.3-3.1 1.2-6.8.2-9.4-1.3-3-2.7-.3-3.9 1.5-3.2 5-6.6 9.5-9.9 14.2-3.1 4.3-5.6 4.4-8-3.5-5.4-17.5-12.4-17.7-19.4-10.4-17 17.7-28.1 50.6-33.1 98.5-2.9 28.3-17.3 57.7-27.9 56.5-7.7-.9-14.6-17.2-16.3-37.4-.7-8.9.9-12.3 3.5-14.7 5.6-5.1 11-10.8 16.2-17.9 4.3-5.9 8.1-13.9 11.3-23.6 4.2-12.5 5.6-27 3.4-42.7-2.3-16-7.7-21.2-13.3-21.8-7.9-.8-14.9 6.9-21 20.9-7.1 16.5-13.2 35.8-15.6 60.7-3 30.2-9.4 52-18.9 68.3-2.3 3.9-4.5 7.5-7.1 9.4-4.9 3.6-8.7-.5-11.4-12.2-5.4-23.6-3.9-60.7 2.8-81.8 12.4-39 23-80.7 26.2-133.2.9-14.8.9-29.8.3-44.6-.6-15.4-3-19-8.3-13.8-1.3 1.3-2.6 3.5-4 4.1-11.2 4.9-16.5 25.8-20.4 52.3-8.4 55-15.7 111.1-18.3 170.9-.7 16.8-.8 33.5.9 50.1 3.3 30.7 12.5 44.7 23.9 35.9 8-6.3 14.7-18.7 21-33.2 1.2-2.8 2.3-6 3.6-8.6 4.1-8.4 5.2-7.9 8.1 3.4 1.4 5.5 2.5 11.7 4 17.1 8.7 31.2 24.1 30.2 36.7 11 5.1-7.8 9.6-17.9 14-28.7 3.4-8.7 4.6-7.7 6.6 3.6.4 2.2.7 4.4 1 6.6 6.1 36 17.3 42.3 28.3 15.6 3.8-9.3 7.5-19.2 10.6-30.3 1-3.5 2.2-7.3 3.9-6.6.2-.5.3-1 .5-1.6 0 .7.1 1.4.1 2.1 1.3 1.7 1.3 6.4 1.6 10 .7 7.4.9 15.2 2 22.4 2.6 17.7 8.1 24.1 14.6 17.1 3.2-3.4 6-8.4 8.6-14.2 11.3-25.1 22-51.5 30.1-84.9 3.1-12.7 8-15.1 12.8-18.5 1.4-1 2.4-.2 2.7 2 .2 1.4.2 3.4-.1 6-.5 4.7-1.5 8.7-2.4 12.8-3 14.3-5.4 29.2-6.8 45.2-.4 4.7-.6 9.6-2.5 12 .2 5.3.2 10.6.6 15.7 2.1 26.1 9 36.2 18.2 27 5.7-5.7 10.5-15.4 15.2-25.7 2.9-6.4 5.8-13.2 9.2-20.9.2 8 .4 13.6.5 19.3.2 31.5.2 31.5 11.6 25.7 8.6-4.4 8.6-4.4 9-28.2.1-7.7.5-15.3.7-23 .9-44.2 12.5-68.8 23.5-94.6 1-2.3 2.5-2.7 3.5-1 1.3 2 .9 6.3.6 9.2-1.2 10-2.5 19.9-3.9 29.8-3 22-6.4 43.7-7 67.5-.9 35.8 7.4 52.7 20 41.1 7.9-7.3 13.8-22.4 20.3-36 5-10.9 5.7-23.3 4.4-40.5zM43.4 93.1c1.1-6.2 2.1-16.3 5-14.2 3.1 2.2 2.8 12.5 2.5 20-1.6 44.4-8.8 82.3-18.4 117.6-1.1 4.1-2.4 8-3.6 11.9 3.2-47.1 6.8-92.9 14.5-135.3zm36.2 170c.5-20.2 3-38.2 7.9-53.6 2.3-7.2 5.2-12.7 8.8-8.8 3.8 4.1 3.8 14.1 3.7 23.3-.4 25.1-7 43.6-19.1 54.2-2.7-.7-2.8-1.9-1.3-15.1zm80.6 56.9c-2 6.8-4.6 11.7-7.9 13.4-4.3 2.2-7.2-2.2-8.8-13.1-1.7-11.4-.8-22.7.1-34 2.2-28.7 6.3-54.9 13.9-76.2 3-8.3 6.7-13.8 11-9 4.4 5 4.8 16.7 5.1 26.7-1.4 35-5.7 65.5-13.4 92.2z"/><path class="st0" d="M234.8 183.2c-2.8-5.9-6.1-4.7-9.1-1.3-8.1 9.1-10.3 28.8-11.7 49.6-.7 10.7.6 20.4 4.1 26.2 2.2 3.7 2.3 6.3.9 12.1-5.8 22.9-13.9 39.6-21.3 58.1-1.8 4.6-4.4 7-6.9 3.9-2.7-3.4-2.7-10.6-2.7-17.4 0-19 2.1-36.9 4-54.9 2.8-26.4 5.8-52.5 8.7-78.9-3.1-2.2-5.4-.6-7.7 3-3.7 5.8-7.5 11-11.1 16.8-1.6 2.6-2.6 2.7-4-1.7-6.4-20.8-12.6-25.3-22.1-15.1-16.4 17.6-28.2 48.9-32.8 95.2-2.9 29.2-10.5 43.6-19 55.7-9.1 13-18.8.7-22.7-24.5-1.7-10.7-1.3-15.5 3.3-18.4 5.7-3.6 11-10.5 16.1-18 4.7-6.9 9.1-15.1 12.3-27 7.3-27 3-58.6-9-65.3-9.7-5.4-18 4.3-25.6 20.4-9.5 20.4-15.2 48.3-18.6 78.4-3.6 32.5-12.8 46.2-22.6 59.2-3.4 4.4-6.6 1-9-6.8-5.2-16.8-4.7-60.3.6-76.7 12-37.1 22.6-76.4 26.9-125.6 1.8-19.8 2.3-39.9 1.5-60.1-.7-18.8-3.5-23-9.9-16.6-4.8 4.8-9.6 10.1-14.4 14.4-2.7 2.4-4.3 6.9-5.6 13.9-7.5 40.4-13.4 82.4-18 125.9C5.8 242 3 276.6 3.2 312.4c.3 54.5 15.2 79.9 33.3 56.3 2.7-3.5 5.3-7.8 7.7-12.7 5-10 9.8-20.6 14.8-31.5 1.2 5.9 2.5 11.7 3.7 17.7 3.8 18.9 9.3 30.9 17.3 34.3 9.8 4.2 18.7-2 26.6-17.3 5-9.6 9.6-20.4 14.5-31 .4 2.6.8 4.7 1.1 7 5.3 46 18.6 56.3 32.2 25 1.9-4.3 3.6-9.2 5.3-14.2 2.5-7.6 5-15.6 7.8-24.8-1.7-.8-2.9 3.1-3.9 6.6-3.2 11.1-6.8 21-10.6 30.3-11 26.8-22.2 20.5-28.3-15.6-.4-2.2-.7-4.5-1-6.6-2-11.3-3.2-12.3-6.6-3.6-4.3 10.8-8.9 20.9-14 28.7-12.5 19.2-28 20.1-36.7-11-1.5-5.4-2.6-11.5-4-17.1-2.9-11.3-3.9-11.8-8.1-3.4-1.3 2.6-2.4 5.8-3.6 8.6-6.2 14.5-13 27-21 33.2-11.4 8.9-20.6-5.1-23.9-35.9-1.8-16.5-1.7-33.2-.9-50.1 2.6-59.8 9.9-115.9 18.2-171.5 3.9-26.5 9.2-47.3 20.4-52.3 1.4-.6 2.6-2.8 4-4.1 5.3-5.2 7.8-1.6 8.3 13.8.5 14.8.6 29.8-.3 44.6C52.3 168.2 41.7 210 29.3 249c-6.7 21.1-8.2 58.1-2.8 81.8 2.7 11.7 6.4 15.8 11.4 12.2 2.6-1.9 4.9-5.5 7.1-9.4 9.5-16.3 16-38.1 18.9-68.3 2.4-24.9 8.5-44.1 15.6-60.7 6-14 13.1-21.7 21-20.9 5.7.6 11.1 5.8 13.3 21.8 2.3 15.7.8 30.2-3.4 42.7-3.2 9.8-7 17.7-11.3 23.6-5.2 7.2-10.7 12.9-16.2 17.9-2.6 2.4-4.3 5.9-3.5 14.7 1.7 20.3 8.6 36.5 16.3 37.4 10.6 1.2 25-28.2 27.9-56.5 4.9-47.8 16.1-80.8 33.1-98.5 7-7.3 14.1-7.1 19.4 10.4 2.4 7.9 4.9 7.8 8 3.5 3.3-4.6 6.6-9.2 9.9-14.2 1.2-1.8 2.7-4.5 3.9-1.5 1.1 2.6.2 6.4-.2 9.4-1.7 16.2-3.7 32.2-5.3 48.4-2.4 24-6.1 47.4-5.4 73.1.5 17.5 5.7 26 10.6 15.2 8-17.3 16.2-34.5 21.8-58.6 1.5-6.6 1.5-11.7-.5-18-6.6-20.6-1.4-63.3 8.4-70.4 5.6-4.1 9 4 8.2 20-.3 7.2-1.3 14-1.9 21-.4 3.9-.7 8.1.4 11.3 1-10.9 1.9-20.4 2.7-30 .8-8.2.9-17.1-1.9-23.2zm18.8 13.1c-1.4 7.5-3.7 14-5.9 20.3-3.6 10.5-7.7 18.7-13.6 20.6.1.2.1.3.2.5 1.4 3.2 3 1.5 4.5-.1 6-6.3 10.6-18.1 14-32.1 2.8-11.4 5.7-21.5 10.6-26.3-4.7-.6-7.6 5.6-9.8 17.1z"/><path class="st0" d="M188.3 373.2c2.1-2.6 4.1-5.8 5.9-9.7 11-23.8 22-48.1 29.5-80.4 4.2-18.2 9.8-23.7 16.9-27.6-.4-2.3-1.3-3-2.7-2-4.8 3.3-9.7 5.8-12.8 18.5-8 33.4-18.8 59.8-30.1 84.9-2.6 5.8-5.4 10.9-8.6 14.2-6.6 7-12 .6-14.6-17.1-1.1-7.2-1.3-15-2-22.4-.4-3.6-.3-8.3-1.6-10 .4 9.5.7 17.4 1.2 25.1 1.9 27.7 9.5 38.3 18.9 26.5z"/><path class="st0" d="M231.2 319.6c1.4-16.1 3.8-31 6.8-45.2.9-4.2 1.9-8.2 2.4-12.8.3-2.5.3-4.5.1-6-5.6 24.2-9.9 48.8-11.8 76 1.9-2.4 2.1-7.4 2.5-12zM152.1 107c1.6 0 2.3-1.8 2.3-5.9 0-5.8.1-11.5 0-17.3 0-5.2 1.4-8.1 2.7-9.9 1.9-2.6 2.2 3.3 2.9 6 1.4 5.5 2.8 11.2 3.9 17.1 1.7 8.7 3.9 12.9 8.1 8.2-2.8-11.6-5.2-23.3-8.2-33.9-2.2-8-1.7-13.2 1-19 2.2-4.6 4.5-9.2 5.9-16.8-8.2-4.8-10.1 18.3-16.3 25.3V14.4c0-4.6-.6-7.2-2.5-7-1.7.2-1.9 3.1-1.9 6.8v86.4c0 3.9.5 6.4 2.1 6.4zm-53.1.9c.7-.1 1.4-.1 2.1-.3 5.2-1.3 8.1-8.8 8.6-20.9.6-13.8-2.6-18.6-6.7-21.4-2.4-1.6-4.8-3-7.2-4.9-1.7-1.4-2.7-4.8-2.4-9.8.2-5.3 1.6-7 3.4-7.1 2.7-.2 5.5-1 7.1 6.7 1 5 2.6 6.4 3.9 4 1.9-3.6.7-8.5-.3-12.5-2.8-10.9-10.8-13.8-15.5-5.8-2.8 4.9-3.9 11.8-3.7 20.8.2 8.8 2.5 12.5 5 14.9 2.8 2.7 5.7 4.6 8.6 6.7 1.5 1.1 2.6 3.4 2.7 7.8.1 5-.9 7.9-2.6 9.5-3.8 3.6-7.4 4.3-9.4-7.6-.8-4.9-2-7.3-3.7-5-2 2.9-.8 8-.1 11.3 2 11.6 5.9 14 10.2 13.6zm21.6-1.7c4.9 3.6 10.8-2.6 12.8-13.8.7-3.9 2.3-9.6.6-12.6-2-3.5-3.8-.6-4.8 6.3-1.1 7.6-3.4 10.6-6.4 9.6-2.9-.9-4.1-6.5-5-13.1-.8-5.6-.9-11.4-.6-17 .4-9.3 1.4-18.5 5.2-21.3 3.5-2.6 6.2.6 7.5 10.7.7 5.6 2.7 4.4 4.1 3.1 1.8-1.7.6-5.8.3-8.5-1.4-13-5.1-17.6-9.8-17.7-7.2-.6-11.4 10.4-12.5 33.2-1 19.2 2.7 36.8 8.6 41.1zm64.2-62.8c3.9 2.1 2.5 10.1 2.6 16 .2 11 0 22.1.1 33.2.1 8.8 1.6 14.6 5.3 14.5 1.1-.5 2.6 1.3 3.1-3.3.4-4.1.3-7.8-1.8-8.1-1.1-.2-1.8-2.4-1.6-4.7 1.5-15.4-3.9-34 3-46.9.5-.9.4-6.4.3-6.5-4.3-2.8-3.3-12.5-3.9-20.3-.2-2.7-1.3-3-2.2-2.7-4.6 1.7-.4 20-5.4 21.5-.4.1-.5 6.7.5 7.3zm-7.3-8.7c-2.1.2-2.1 3.9-2.1 7.8v56c0 4.2.2 7.6 2.2 7.6 1.9.1 2.4-2.8 2.4-7.2v-56c0-4.7-.2-8.4-2.5-8.2zm-33.7 6.6c0-3.8-.4-6.4-2-6.5-1.8-.2-2.6 1.8-2.5 6.6v57.5c0 4.3.4 7.4 2.3 7.4 2 0 2.3-3.2 2.3-7.5V71.5c-.1-10.1-.1-20.2-.1-30.2zm-2.3-18.5c1.9 0 2.4-2.8 2.3-7.2.1-4.6-.1-8.6-2.4-8.5-1.9 0-2.4 2.8-2.4 7.2.1 4.6.3 8.5 2.5 8.5zm35.9 0c2.1.3 2.7-2.9 2.6-7.9 0-4-.1-7.5-2.1-7.8-2.2-.3-2.7 2.9-2.6 7.9.1 4 .2 7.5 2.1 7.8zM79.6 263.1c-1.5 13.2-1.5 14.4 1.3 15.1-3-3.4-1.3-9.8-1.3-15.1z"/><path class="st0" d="M80.9 278.1c-2.1-4-.5-10.2-1.3-15.1 0 5.4-1.7 11.8 1.3 15.1z"/></svg>