<svg id="Layer_1" xmlns="http://www.w3.org/2000/svg" viewBox="0 0 361 381"><style>.st0{fill:none;stroke:#fff;stroke-width:6;stroke-miterlimit:10}</style><g id="layer1_1_" transform="translate(-77.943 -177)"><g id="g4550_1_"><path id="path4508_1_" class="st0" d="M284.3 240.3v56.3l98.2 56.3v-56.3l-98.2-56.3zM87.9 296.6v56.3L137 381v-56.3l-49.1-28.1zm147.3 28.2L186.1 353v168.9l49.1 28.2V437.4l49.1 28.2v-56.3l-49.1-28.2v-56.3z"/><path id="path4491_1_" class="st0" d="M284.3 240.3L137 324.8v56.3l98.2-56.3v56.3l49.1-28.1V240.3zm147.2 28.2l-49.1 28.2V353l49.1-28.2v-56.3zm-98.2 112.6l-49.1 28.2v56.3l49.1-28.2v-56.3zm-49 84.4l-49.1-28.2V550l49.1-28.2v-56.3z"/><path id="path4506_1_" class="st0" d="M284.3 184L87.9 296.6l49.1 28.2 147.2-84.5 98.2 56.3 49.1-28.2L284.3 184zm0 168.9L235.2 381l49.1 28.2 49.1-28.2-49.1-28.1z"/></g></g></svg>