<svg id="Layer_1" xmlns="http://www.w3.org/2000/svg" viewBox="0 0 612 792"><style>.st0{fill:#fff}</style><path class="st0" d="M420 337.9c-4.5 17.4-9 34.7-19.2 47.9-12.1 15.6-26.1 24.9-42.7 25.1-23.8.3-47.7.4-71.5 0-5.9-.1-8.4 1.4-8.1 10.6.6 17.9 0 35.9.3 53.9.1 5.8-1.3 7.5-5.4 7.4-15.9-.3-31.8-.4-47.7 0-4.8.1-5.7-2.4-5.6-8.3.2-18.3-.1-36.7.2-55 .1-6.9-1.5-8.6-6.3-8.5-27 .3-54.1.2-81.1.1-36-.1-59.3-24.3-69.2-72-.3-1.4-.4-2.8-1.6-3.3v-33c2.8-3.8 2.4-9.3 3.7-13.8 7-24.3 18.9-41.9 36.2-52.5 3.6-2.2 5.3-3.9 5.4-10.7.3-24.5 8.7-43.4 24.3-55.3 15-11.5 30.4-11.7 45 1.6 4.9 4.5 6.5 3.8 9.5-3.1 21-48.6 58-72.8 96.8-64.2 37.9 8.5 68.6 48.6 77.5 101.7 1.6 9.5-.2 21.6 3.5 28.6 3.4 6.5 12.6 5 18.8 9.2 18.8 12.6 30.9 32.5 35.7 60.7.3 1.7-.2 3.8 1.6 4.3-.1 9.6-.1 19.1-.1 28.6zM188.3 225.8c-3.7-7.4-6.9-14-10.3-20.4-12-22.5-34.1-23.5-46.2-2-5.7 10.1-7.2 21.6-5 34.2 1.5 8.3 2.3 15-7 17.2-25.3 6-40.5 35.3-38.7 71.5 1.6 31.9 21.9 58.8 46.2 59.4 29.1.8 58.3.1 87.4.3 4.1 0 5.6-1.6 5.5-7.4-.2-13.2-.3-26.4 0-39.6.2-6.4-1.4-8-5.8-7.8-10.4.4-20.8.1-32.7.1 23.7-34.2 46-66.4 68.5-98.9 22.1 32.6 43.7 64.7 66.9 98.9-12.6 0-22.6.2-32.6-.1-4.2-.1-6.2.8-6 7.6.4 13.2.3 26.4 0 39.6-.1 5.7 1.2 7.6 5.4 7.6 24.4-.2 48.8.5 73.1-.3 25.2-.8 44.5-29.3 43.9-63.5-.5-34.7-20.1-61.2-45.4-61.3-12.4-.1-12.4-.1-11.7-18.6 1.9-48.8-19-92-52.1-107.5-33.1-15.6-69 1.4-88.7 41.6-7.1 14.6-10.1 31.6-14.7 49.4z"/></svg>