<?xml version="1.0" encoding="utf-8"?>
<!-- Generator: Adobe Illustrator 19.1.0, SVG Export Plug-In . SVG Version: 6.00 Build 0)  -->
<svg version="1.1" id="Layer_1" xmlns="http://www.w3.org/2000/svg" xmlns:xlink="http://www.w3.org/1999/xlink" x="0px" y="0px"
	 viewBox="0 0 370.3 377.6" style="enable-background:new 0 0 370.3 377.6;" xml:space="preserve">
<style type="text/css">
	.st0{fill:#FFFFFF;stroke:#FFFFFF;stroke-width:0.25;}
	.st1{fill:#FFFFFF;}
	.st2{fill:#FFFFFF;stroke:#010101;stroke-width:0.114;}
</style>
<g transform="translate(-.53268 66.8)">
	<path class="st0" d="M226.4,229.4v81.3h17v-37.4l3.5,0.1v37.3h17.2v-81.3h-17.2v30.2h-3.5v-30.2L226.4,229.4z"/>
	<path class="st0" d="M285.4,229.4h-16.6v81.3h16.6V229.4z"/>
	<path class="st0" d="M288.2,229.4l13.1,81.3h19.8l13.1-81.3h-17.6l-4.3,34.8c-0.4,1.3-1.6,1.3-1.8,0l-4.3-34.8H288.2z"/>
	<path class="st0" d="M370.7,229.4h-33v81.3h33v-21.3l-18.3-0.2v-9.1h8.7v-21.2h-8.7v-8.2h18.3V229.4z"/>
</g>
<g>
	<g transform="translate(-.53268 66.8)">
		<path class="st1" d="M202.7,65.3c-5.4-5-10.2-22.6-18.4-26.2c-7.6-0.7-10.3-3.5-20.3-1.2c3.6-2.1,7-4.8,10.8-6.3
			c2.6-0.7,5,0.1,7.5,0.5c0.6-0.3,1-0.8,0.9-1.4c-10-7.2-30.6-7.4-44.4-11.5c16.1,0.6,33.9-0.4,46,4.1
			C194.6,33.5,197.7,52.5,202.7,65.3L202.7,65.3z"/>
		<path class="st1" d="M232.2-19.5C234.4-19.3,246.4,3,247,6.7c1,8.1,3.5,17.2,4.1,25.6c-2-8.1-4.1-16.3-6.8-24.4
			c-0.8-2.2-2.8-7.3-8.3-14.5C233.4-11.5,232.9-15.5,232.2-19.5L232.2-19.5z"/>
		<path class="st1" d="M272.9,101.8h-5.1l5.7,1.7L272.9,101.8z"/>
		<path class="st1" d="M237.9,95.8c-5.2-0.7-10.5-0.8-15.6,0.5c-2.1,3.3-2.3,6.7-3.2,9.8C225.3,97.9,227.8,97.4,237.9,95.8
			L237.9,95.8z"/>
		<path class="st1" d="M308.4,137.6c-2.9,2.7-3.2,5.2-11.7,8.3c-6.2,1.7-9.7-1.2-12.6-5.1c4.4,1.5,5.1,5.4,17,1L308.4,137.6z"/>
		<path class="st1" d="M282.6,139.3c-2.1,6.7-4.3,13.4-6.6,19.7c-5.4,7.4-3.1,3.2-11.1,14.6c2.6-4.6,5.9-9.1,7.7-13.9
			c1.2-3.2,2.8-6.6,3.4-9.4c-2.1-1.2-6.5-1.3-7.1-0.9c-7.1,4.9-8.4,10.1-12.6,15.2c3-5.7,5.6-11.9,9.2-17.1c0.4-0.7,3-0.8,4.6-1.2
			c-2.5-0.5-7.1-1.6-7.5-1.5c-4.7,1.3-7.3,6.1-10.7,9.2c2.5-4.3,4.8-8.7,8-12.4c0.3-0.4,9,0.5,13.4,2.5l0.1,2.1l2.5,1.2l1.9-5.6
			L282.6,139.3z"/>
		<path class="st1" d="M226.1,179.5c-1.1-0.5-11.3-2-11.3-1.6c-3.9,3.2-4.5,6.4-4.4,9C216.9,179.5,216.7,179.4,226.1,179.5
			L226.1,179.5z"/>
		<path class="st1" d="M218.4,125.8c0,0,7.3-1.2,7.2-0.4c-0.5,3,0.9,10.2,1.1,9.2l-4.1,3.9c8.6-5.1,17.7-4.1,26.9-4.8
			c0,0-7.7-2.5-7.3-2.6c1.7-0.3-0.5-9.5-1.1-9.7c1.5-0.6,2.9-1,4.4-1.5C234.4,116.6,228,118.6,218.4,125.8L218.4,125.8z"/>
		<path class="st1" d="M281.8,132.2l-1.6,1c-0.2-5.6-5.3-5.2-9.7-5.2l-3.5-1c1.1,1.2,4.4,1.1,3.1,3.6c-1.1,0.7-1.6,3.7-2.3,6.3
			l-1.9,0.1c3.4,1.5,6.5,2.9,10.2,4.7l2.2,0.4l5.3-3.3L281.8,132.2z"/>
	</g>
	<g transform="translate(-.53268 66.8)">
		<path class="st1" d="M233.3,128.5c-0.8-1.9-5-1.6-5.9-0.4c-0.7,1,0,7.4,0.9,6.4c1.3-1.4,3.1-2,5.2-1.9
			C233.8,131.4,233.7,130.1,233.3,128.5L233.3,128.5z"/>
		<path class="st1" d="M273,138.1c0.4-0.3,1.2-3.6,0.9-4.5c-0.5-2.3-4.4-1.8-4.4-1.8c-0.9,0.6-1.8,4.2-1.4,5.4
			C268.3,138.1,272.4,138.4,273,138.1L273,138.1z"/>
	</g>
	<g transform="translate(-.53268 66.8)">
		<path class="st1" d="M108.3,249.4l2.4,0.3c14.4,8.3,38.2,20.6,72.6,14l5.4,9.9c-15.1,8.6-31.4,6.6-46.7,7.2L108.3,249.4z"/>
		<path class="st1" d="M87.6,183.8l7.2,35.5c19.3,14.2,52.4,30.4,79.9,29.1l-6.1-16.4C111.1,217.8,106.3,199.7,87.6,183.8
			L87.6,183.8z"/>
		<path class="st1" d="M105.5,111c3.5,27.5,8.2,48.4,28.7,65.9c12.5,10.6,25,21.1,40.1,29.7c0,0-1.3,8.1-2.4,7.9
			c-45-5.9-78-49.6-82-69.6C93.8,129.7,99.3,120.2,105.5,111L105.5,111z"/>
		<path class="st1" d="M127.2,95.4c6,30.5,20.3,61.4,34.5,89.5c5.2,7.7,6.6,11.2,14.6,15.9c10.9,4,18.5,3,26.4,2.4
			c-2.2-4.7-4.1-9.6-6.6-14c-17.6-16.3-9.5-31.2-4.8-40.7c-9.8-2.9-22.8-9.1-24.6-17.2c-2.9-26.3-1.4-34.6,1.5-48.1
			C154.9,86.5,141.5,89.8,127.2,95.4L127.2,95.4z"/>
		<path class="st2" d="M78.4-66.7c-4.4,3.3-8.6,8.1-13.1,13.6c-7.5,9.1-12.5,18-20.1,24.6c-1.5,1.5-5.8,4-11.2,4.4
			c-2.5,0.1-4.2,0.6-8.9,0c-4.1-2.6-8-0.9-11.8,4.4C9.1-12.7,3.8,0.7,1.6,9.1c-4.5,21.5,7,39.2,18.1,52.8
			c9.9,11.3,15.6,18.4,19.6,28.7c3.1,6.7,5.3,15.9,7.8,22.4c0.9,2,0.7,2,3.1,2.7c5.2,1.3,12.3,1.3,18.7,1.9c2.8,0,6.5-0.1,10.1-0.5
			c4.9-1.1,10.8-2.2,15.6-4.1c4.8-1.4,9-3.3,12.8-5c-0.5,2-4.1,3.8-5.5,6.3c-12.9,21.7-16.5,41-14.2,71.5
			c1.3,13.5,3.9,24.7,7.9,37.5c1.8,5.9,5.7,15.2,9.4,21.3c11.1,18.3,35.9,41.9,70.4,51c6,1,12.9,0.4,19.3-1.6
			c17-6,51.8-20.4,51.8-20.4s-30.8,3-44.9,1.4c-3.3-0.6-6.9-0.8-9.1-3.4c-0.4-0.6-1.8-3.9-0.9-3.9c1.2,0,4.7-1.7,10.1-2.3
			c-11.6-1.5-11.4-1.4-12.2-3.9c-1.3-3.8-3.3-9.1-5.4-13.6c5.1,0.5,16.3,1.2,20.2-3.4c0,0-6.7,0.9-12.5,0.1c-2-0.3-5.4-1.7-6.4-2.1
			c-2.6-1.2-4.8-1.6-5.3-2.4c-0.9-2.7-1.5-3.7-2.6-7.3c-1.5-4.9-1.6-10.3-1.9-15.2c3.8,5.6,8.8,10.2,15.2,12.6
			c0.1-0.2,8.4,4.2,14.5,2l1.3-0.5c0,0.1-4,0.4-5.5-0.4c-12.3-6.1-14.2-11.5-16.2-14.2l-5.3-9.3c1.6-3.8,2.5-3.9,4.7-4
			c6.5,0.8,9.3,1.5,13.3,0.4c2.7,6.4,3.4,12.9,9.5,17.6c20.2,7,24.6-2.1,29.5-10.1c14.5,12.5,38.2,16.4,54.7,0.2
			c20.9-28.3,27.5-73,25.7-75.6c-2.6-5.2-6-10.5-9-9.8c-10.5,3.4-14.4,9.6-24.7,8.2c1.2-0.1,3.3-0.1,3.3-0.3
			c0.8-10.3-0.1-15.3-0.5-16.2c-3.2-8.1-7.3-16.7-10.2-23.1c-0.7-1.3-2.9-11.5-6.6-15.5c-1.6-1.6-5.4-5.7-5.4-5.7l-0.3,4.4
			c0,0,1.5,0.3,2.1,3c2.2,10.3,13.2,34.8,14,36c3.9,7.4,0.4,16.6,3.4,21.8c0.3,0.7,6.1-0.1,10.6,0.3c7.4-1.9,7.1-5.7,13.4-6.2
			c4.3-0.4,4.7,9,4.7,9.8c-0.8,10.4-3.5,22.5-7.6,33.6c-8.6,19.4-18.2,36.9-31.9,39.3c-16.7,3.4-25.3-5.1-34.4-10.6l-3.5,3.5
			c-11.7,13.7-25.7,12.5-31.4-5.4c-2.8-6.9-6.5-11.2-9.7-17.2l-16.8,14.2c-1.4,3.4-3.1,8.7-5.2,14.6c-1.5,4.1-2.7,11.2-2.6,17.1
			c-2.2,4.3,7.5,21.7,13.5,32.3c1.8,3.1,5.1,8.6,5.3,8.9c1.2,3.7,3.8,6.9,4,7.3c11.3,17.2-14.2,13.3-19.5,12.2
			c-10.4-1.9-20.6-7-30.1-13.8c-0.6-0.4-1.1-0.8-1.7-1.2c-11.4-8.4-21.8-19.1-30.7-29.7c-5.3-7-10.3-21.4-14.1-31.6
			c-5.6-24.6-13.6-67.1,8.1-99.4c1.4-1.8,2.9-4.9,4.1-5.5c6.5-5.1,13.5-8.6,21-10.5l-0.8-5.7c-3.8,1-16.4,6.4-20,8.7
			c-8.1,2.8-14.9,5.7-25.3,8.7c-3.4,0.5-6.7,0.5-9.9,0c-7.5-1.2-20.2-0.1-21-1c-5.1-8.3-6.4-23.1-11.1-31l-0.1-0.1l-0.1-0.1
			c-2.7-4.2-5.8-7.7-8.9-11.3C20.3,56.4,10.9,44,8.2,30.8c-0.7-3.9-2.4-7.9-1.5-19.4v-0.1v-0.1C9.4,0.4,13.7-8.3,21-17.1
			c7.6,0.1,15.2,0.3,21.1,1.7c2.7,0.5,8.3,1.4,14.1,3.9c14.7,6.4,34.1,17,34.1,17c-14.6-9.4-30.9-21.6-41.2-24
			c-1.5-0.3-2.5-1.1-2.9-2.5c15.5-10.7,18.3-23.2,28.5-34.4c4.7-2.4,6.5-3.6,10.4-4.1c36.6,6.8,59.6,23.8,77.8,35.2
			c7.4,4.7,14.1,8.3,20.5,12.6C189-9.5,206,5.5,211,13.6c5,12.5,8.7,26,12.1,39c2.4,13.2,4.5,18.6,4.5,18.6s-2-11.1-1.7-13.1
			c2.1,0.9,7.1,2.8,9.2,2.5c0,0-9.3-5.6-10.5-10.6c-3.9-16-7.8-40.8-8.9-42.1c-3-4.4-15.4-15.5-23-20.7c-2.9-1.9-4.4-3.2-4.6-4
			c2.4-2.9,5.4-6.7,8.1-9.1c2.6-2.3,4.9-4.9,8.5-6.5c15.8-8.3,24.9,3.2,27,0.9c0,0-3.4-4.6-1.9-3.8c1.5,1,6.6,2.1,7.2,2.7
			c5.8,5.3,20.8,24.6,29.9,45c2.2,5,3.1,8.3,2.1,14.3s-1.8,9.3-2.9,13.3c-1,2.7-6.7,21.1-6.6,23.6c-1.1,10.1,3.7,22.7,3.7,22.7
			c0-3.4-0.2-5.3,0.1-7.7l0.3-4.4c0,0-0.2-1.2-0.2-1.6c0.2-3,0.9-5.6,1.1-7.3c1.8-13.2,5-22.7,8.6-34.2c1.1-2.9,2.5-4.5,2.4-6.8
			c0.1-3.9-3-9.2-5.1-14.4c-2.2-5.2-4.8-11-8.3-17.2c-7.9-13.2-14.6-23.6-26.8-30.1c-3.4-1.8-16.9-3.5-21.6-2.5
			c-5.7,1.4-10.5,2.7-14.4,5.7c-6.1,4.6-10.9,11.7-16.5,15.8c-12.4-7.3-18.4-12.7-19.6-13.5c-7.4-4.6-16.3-10-25.8-15.1
			C132.9-52.3,104.5-64.3,78.4-66.7L78.4-66.7z M237.6,205.1c-7.7-7-14.1-14.2-18.4-21.7c-1.4,8.8-6.4,15-10.3,21.1
			c-0.8,1.4-1.3,3.4,2.5,9.6c1,1.7,4.8,1.9,7.3,1.8c-2.6-2.3-6.5-4.7-7.1-6.7c4.5,3.6,8.7,4.6,12.4,4c0.9-0.1,1.9-1.2,2.8-2.8
			c1.7-4.2,3-5.2,4.3-6.4l3.1,4.5L237.6,205.1z"/>
	</g>
</g>
</svg>
