<?xml version="1.0" encoding="utf-8"?>
<!-- Generator: Adobe Illustrator 19.1.0, SVG Export Plug-In . SVG Version: 6.00 Build 0)  -->
<svg version="1.1" id="Layer_1" xmlns="http://www.w3.org/2000/svg" xmlns:xlink="http://www.w3.org/1999/xlink" x="0px" y="0px"
	 viewBox="0 0 351.1 372.8" style="enable-background:new 0 0 351.1 372.8;" xml:space="preserve">
<style type="text/css">
	.st0{fill:#FFFFFF;}
</style>
<g>
	<g id="g4163_2_" transform="matrix(1.25,0,0,-1.25,0,201.85)">
		<g id="g4165_2_" transform="scale(0.1,0.1)">
			<path id="path4167_2_" class="st0" d="M2569.5,110.1c-2.4,10.6-3.5,15.9-4.8,21c-35.2,136.6-70.3,273.3-105.8,409.6
				c-3.6,13.7-3.1,21.8,1.8,33.5c56,133.5,111.7,267.6,167.4,401.5c2,4.7,3.7,9.7,4.5,18.1c-16.3-8.7-32.6-17.3-48.9-26.1
				c-67.6-36.6-135.3-73.1-202.9-110.2c-6.3-3.5-9.2,0.3-12.3,11c-38.4,131-77,261.7-115.6,392.4c-2,6.8-4.1,13.4-8.4,19.1
				c-3.1-34.9-6.3-69.8-9.3-104.7c-10.7-123.2-21.5-246.5-32.2-369.8c-1.2-13.3-2.8-26.5-3.3-40c-0.5-12.7-3.7-17.4-9.4-21
				c-79.7-51.1-159.3-102.7-239-154.2c-3.5-2.3-6.9-5.2-10.7-12.1c65.1-52.9,130.3-105.7,196.4-159.4c-2.4-3.9-4-6.9-5.7-9.3
				c-40.7-53.8-81.5-107.4-122.1-161.5c-4.9-6.5-8.7-7.4-14.2-2.4c-48.6,44.7-97.5,88.6-146.2,133c-21.9,19.9-41.6,46.4-56.9,84.7
				c-34.6,86.5-27.8,185,18.4,245.1c15.1,19.7,32.3,34.4,49.4,45.8c78.1,51.9,156.4,102,234.8,152.2c6.6,4.2,9.6,10.2,10.8,24.7
				c10.4,123.4,21.3,246.6,32.1,369.8c5.8,65.9,8.9,133.4,24.6,193.8c6,23.2,13.3,45.9,21.8,65.4c31.1,70.5,74.5,73.2,107.4,6.1
				c11.1-22.6,20.6-49.4,28.9-76.8c36.2-120.6,71.8-241.9,107.3-363.4c4.2-14.4,8-17.3,15.7-13c87.3,47.8,174.8,94.9,262.2,142
				c18,9.7,36.3,13.3,54.8,6.2c40.3-15.4,57.9-78,44.3-157.5c-6.2-36.2-16.9-66.8-28.9-95.7c-61-146.5-121.9-293.1-183.1-439.2
				c-5-11.9-5.1-20.6-1.6-33.9c36.5-140.5,72.7-281.4,109-422.1c8.7-33.7,15.3-68.6,15.5-107.3c0.4-88-31.1-160-73.9-172.8
				c-24-7.2-46.3,3.3-68.7,17.4c-54.8,34.6-109.6,68.5-164.5,102.3c-5.1,3.1-7,7.2-7.9,18.4c-6.3,78.9-13.2,157.6-19.9,236.3
				c-0.2,2.2,0.1,4.5,0.3,9.3C2443.1,181.3,2505.1,146.4,2569.5,110.1"/>
			<path id="path4169_2_" class="st0" d="M2462.8-1038.6c-49.4,0.2-98.8,0.6-148.2,0.2c-6.5,0-10.2,3.8-13.9,15.2
				c-58.5,181.8-117.2,363.3-175.9,544.9c-1.9,5.8-3.9,11.4-7.2,21.1c-12.6-196.1-25-387.8-37.4-580c-43.2,0-85.6,0-129.3,0
				c1.5,25.7,2.8,50.6,4.4,75.4c12.6,196.9,25.3,393.8,38,590.6c12.1,188.1,24.2,376.2,36.5,564.3c0.4,5.6,2.2,12.7,4.4,15.7
				c44.5,59.2,89.2,118,133.8,176.8c0.7,0.9,1.6,1,3.9,2.3c-13.5-210.3-26.9-419-40.3-627.7c0.5-0.7,1.1-1.5,1.6-2.2
				c70.1,158.6,140.1,317.1,211.7,479.1c2.1-24.4,3.9-45.3,5.6-66.1c5-59.8,9.8-119.7,15.2-179.3c1.1-12-0.5-19.5-4.4-27.9
				c-45.3-96.8-90.4-194-135.6-291c-2-4.2-3.9-8.6-6.1-13.7c1.4-4.7,2.7-9.2,4.1-13.4c77.9-223.3,155.8-446.6,233.8-669.8
				c1.4-4,3.4-7.2,5.2-10.8C2462.8-1036.2,2462.8-1037.4,2462.8-1038.6"/>
			<path id="path4171_2_" class="st0" d="M929.8-458.1c-2,20.6-3.4,50.8-7.9,79c-21.7,136.5-90.2,211.3-161.2,177.5
				c-77.9-37-133.5-162-141.5-324.2c-6-120,25.7-235.6,84.5-279c47.4-35,93-20.3,135.4,31.5C895.3-704.3,925.7-602.2,929.8-458.1z
				 M587.9-965.3c-3.8-58.7-7.5-114-11.1-169.4c-4.7-73.6-9.5-147.2-14-220.8c-0.5-8.6-1.8-12.4-6.3-12.3
				c-35.5,0.3-71.1,0.2-106.6,0.3c-0.8,0-1.6,0.9-3.5,2c2.1,34.7,4.2,69.6,6.5,104.4c7.8,122.1,15.7,244.1,23.6,366.2
				c9.1,139.5,16.3,279.8,27.9,418.4C525-231,627-19.4,746.7,33.3C816.1,63.9,882.5,49.7,943.1-30c60.4-79.5,95.1-194.9,103-340.1
				c11.2-205.2-25.8-375.6-97.2-516.5c-46.9-92.5-103-151.3-167.7-171.2c-66.7-20.5-129.3,2.2-185.5,82.4
				C593.6-972.4,591.4-969.8,587.9-965.3"/>
			<path id="path4173_2_" class="st0" d="M530,201.4c-39.9-60.6-78.3-118.9-116.9-177.6c-6.2,20-11.8,40-18.3,58.5
				c-16.7,47.8-37.5,83.4-67.8,87.8c-25.1,3.6-46.6-13.3-63.8-51.2c-15.3-33.8-17.3-82-3-120.2c15.7-42.1,33-82,50.6-121
				c29.2-64.6,59.7-126.7,88.6-191.6c26.4-59.1,47.4-125.3,53.9-206.1c7.7-96-1.7-187.4-23.9-271.8
				c-41.2-156.1-106-246.7-191.5-275.1c-37.8-12.5-75.5-10-112.3,12.2c-48.9,29.4-83,94.9-104.9,187.4C13-834.6,7-800.1,0-765.1
				c42.8,46.8,84.5,92.3,126.7,138.4c1.5-7.2,2.5-13.2,3.9-18.8c7.2-29.4,13.1-60.7,22-87.8c26.4-80.3,69.2-104.7,112.5-65
				c11.1,10.2,21.9,24.6,31,41.1c27.9,50.6,33.2,121.1,12.5,184.8c-11.9,36.6-26.7,69.4-41.2,102.2c-34.6,78.4-70.5,154.2-104.3,234
				c-23.3,55-39.1,119.1-44.1,192.8c-5.5,80.4,2.4,156.3,22.9,224c51,168.3,125,255.8,222.9,248.6c55.8-4.1,100.3-57.4,134.8-146
				C509.9,257.1,519.5,229.8,530,201.4"/>
			<path id="path4175_2_" class="st0" d="M1476-702.1c-6.5-101.4-12.6-197.7-19-294c-0.3-4.9-2.2-11.5-4.2-13.4
				c-96.4-91.2-223.3-78.4-302.5,105.1c-42.5,98.6-60.4,215.7-57.7,345.9c6.2,301.5,128.6,564.6,275,601.4
				c85.5,21.5,160.5-25.7,218.5-161.3c39.5-92.4,57.7-202.8,55-324.6c-1.8-80.4-8-160.5-12.9-240.6c-6.9-113.4-14.5-226.7-21.9-340
				c-0.3-4-0.7-8-1.1-13.1c-38.2,0-76.1,0-115.3,0c1.5,26,2.9,51.5,4.6,77c8.4,130.9,17.5,261.6,24.9,392.7
				c4.6,81.7,1.7,162.7-16.6,238.4c-19.5,80.4-52.1,122.9-95,132.2c-88.8,19.2-173.3-106.8-192.2-285.2
				c-12.5-117.8,7.2-230.7,53.1-293.1c44.8-60.8,92.7-61,141.5-21.6C1434.9-776.4,1456-744.8,1476-702.1"/>
			<path id="path4177_2_" class="st0" d="M1961.6,20c-5.3-81.6-10.4-162.1-15.8-244.2c-24.4,0-48.3,0.3-72.2-0.1
				c-19.4-0.3-37-25.8-42.9-62.8c-2.3-14.4-3.1-29.9-4.1-45.1c-12.1-187.5-24.2-374.9-36.2-562.4c-3-47.3-6-94.6-9-142.6
				c-40,0-79.4,0-120,0c2.2,36.1,4.4,70.9,6.6,105.8c7.8,121.5,15.6,243,23.5,364.4c6.8,105.1,12.9,210.4,21,315.2
				c10.8,140.4,79.2,265,148.6,271.2C1894.2,22.5,1927.4,20,1961.6,20"/>
			<path id="path4179_2_" class="st0" d="M2604.3-1037v103.5h-0.3l-19.9-103.5h-6.3l-19.9,103.5h-0.3V-1037h-10v123.9h15.5
				l18.1-94.1l17.8,94.1h15.3V-1037H2604.3L2604.3-1037z M2516.2-929.7v-107.4h-10v107.4h-19v16.6h48v-16.6H2516.2"/>
			<path id="path4181_2_" class="st0" d="M690.8,375.4h29.8l-7,92L690.8,375.4z M725.2,316h-49.5L660,253.1h-35.1l77.3,295H736
				l26.3-295h-32.5L725.2,316"/>
			<path id="path4183_2_" class="st0" d="M902.4,488.7h-17.6l-5.9-68.1h17.6c10.6,0,19.1,14.3,19.1,41.2
				C915.6,479.6,910.2,488.7,902.4,488.7z M859.7,548.1H906c24.2,0,41.2-29.5,41.2-80.2c0-63.8-22.1-106.7-53.6-106.7h-20
				l-9.4-108.1H834L859.7,548.1"/>
			<path id="path4185_2_" class="st0" d="M1049.7,375.4h29.8l-7,92L1049.7,375.4z M1084.1,316h-49.5l-15.7-62.9h-35.1l77.3,295h33.8
				l26.3-295h-32.5L1084.1,316"/>
			<path id="path4187_2_" class="st0" d="M1279.9,263.5c-10.2-9.5-21.4-15.2-32.7-15.2c-38.2,0-62.3,58.6-62.3,131.9
				c0,93.7,38.7,172.7,84.6,172.7c11.5,0,21.9-5.6,30.4-15.2l-4.3-70.7c-6.4,14.3-16.6,24.3-29.3,24.3c-26.3,0-49.7-48.6-49.7-105
				c0-42.9,13.2-76.4,34-76.4c12.8,0,25.1,10,33.4,23.9L1279.9,263.5"/>
			<path id="path4189_2_" class="st0" d="M1464.3,371.9h-62.9L1391.2,253H1361l25.5,295h30.2l-10.2-116.6h62.9l10.2,116.7h30.2
				l-25.5-295h-30.2L1464.3,371.9"/>
			<path id="path4191_2_" class="st0" d="M1575,253.1l25.5,295h80.1l-5.1-59.4h-49.9l-5.1-57.3h45.9l-5.1-59.4h-45.9l-5.1-59.4h49.9
				l-5.1-59.4L1575,253.1"/>
		</g>
	</g>
</g>
</svg>
