<?xml version="1.0" encoding="utf-8"?>
<!-- Generator: Adobe Illustrator 19.1.0, SVG Export Plug-In . SVG Version: 6.00 Build 0)  -->
<svg version="1.1" id="Layer_1" xmlns="http://www.w3.org/2000/svg" xmlns:xlink="http://www.w3.org/1999/xlink" x="0px" y="0px"
	 viewBox="0 0 349 354" style="enable-background:new 0 0 349 354;" xml:space="preserve">
<style type="text/css">
	.st0{fill:#FFFFFF;}
</style>
<g>
	<path class="st0" d="M310.5,24.6c14.5-0.7,15.2-0.3,14.2,12.2c-1.5,20.6-3.5,41.2-5.2,61.9c-0.2,2.9-0.4,5.7-3.6,7
		c-3.5,1.5-5.9-0.3-8.2-2.7c-4.3-4.5-8.9-8.7-13-13.4c-3.2-3.7-5.4-3.5-8.7,0c-11.8,12.4-24,24.5-36,36.7
		c-54.9,55.7-109.8,111.4-164.7,167c-9.5,9.7-9.8,9.7-18.9,0.4c-18.8-19.3-18.6-14.2,0.1-33.1c63.8-64.9,127.6-129.6,191.7-194.2
		c5.2-5.3,6.8-8.6,0.2-13.6c-3.7-2.8-6.6-6.5-9.9-9.9c-2.4-2.4-5.3-4.6-4-8.8c1.3-4.4,5-4,8.3-4.3C272.9,28,292.9,26.2,310.5,24.6z
		 M263.5,40.6c3.1,3.4,4.9,5.5,6.8,7.5c11,11.3,11,11.3-0.1,22.6C205,136.8,139.9,202.8,74.7,268.9c-1.5,1.6-2.9,3.3-4.6,4.6
		c-3.2,2.6-2.4,4.4,0.1,7.5c4.4,5.5,7.1,4,11.4-0.3c60.9-62,121.9-123.8,182.9-185.7c5.9-6,12.2-11.7,17.6-18
		c5.8-6.7,10.7-7.5,16.6-0.3c2.7,3.2,5.2,6.9,10.4,8.8c1.2-15.3,2.4-30.2,3.7-45.1c0.2-2.9-1.2-3.8-3.9-3.6
		C294.4,38,280,39.2,263.5,40.6z"/>
	<path class="st0" d="M175.3,353.9c-54.1,0-108.2,0-162.4,0c-12.1,0-12.8-0.7-12.8-12.6c0-110.7,0-221.4,0-332.1
		c0-4.5-1.5-9.4,6.4-9.1c7.6,0.2,5.6,5.2,5.6,9.1c0.1,106.6,0.1,213.3,0.1,319.9c0,12.6,0,12.6,12,12.6c105.1,0,210.3,0,315.4,0.1
		c3.2,0,8.4-2.9,9.2,4.2c0.8,7.1-2.3,8.1-8.4,8.1c-48.9-0.2-97.7-0.1-146.6-0.1C187.7,353.9,181.5,353.9,175.3,353.9z"/>
	<path class="st0" d="M255.9,282.8c9.6,0.1,17.3,8.4,17.1,18.2c-0.2,9.8-8.3,17.6-18,17.2c-9.2-0.3-16.8-8.4-16.9-17.6
		C238.1,291.1,246.5,282.7,255.9,282.8z M255.8,306.5c3.4-0.8,5.8-2.6,5.6-6.2c-0.2-3.6-2.8-5.4-6.2-5.2c-3.1,0.2-4.9,2.2-4.9,5.5
		C250.3,304.4,252.5,306,255.8,306.5z"/>
	<path class="st0" d="M296,165.4c-9.4-0.2-17.6-9-17.2-18.4c0.4-9.7,8.7-17.5,18.3-17.1c9.3,0.4,16.7,8.3,16.7,17.7
		C313.7,157.3,305.4,165.6,296,165.4z M302,147.5c-0.6-3.4-2.6-5.8-6-5.6c-3.5,0.2-5.5,2.6-5.2,6.2c0.2,3.2,2.2,5.1,5.4,5.1
		C299.6,153.2,301.6,151.1,302,147.5z"/>
	<path class="st0" d="M110.7,41.9c-0.2,9.8-8.5,17.8-18.2,17.4c-9.5-0.4-16.7-8.1-16.6-17.8c0.1-10,8-17.6,18-17.2
		C103.3,24.5,110.9,32.5,110.7,41.9z M92.9,35.8c-2.9,0.6-5.4,2.3-5.4,5.9c0,3.5,2.1,5.6,5.8,5.6c3.3,0,5.1-1.9,5.3-5.1
		C98.8,38.6,97,36.4,92.9,35.8z"/>
	<path class="st0" d="M46.7,165.4c-9.6,0-17.4-8.2-17.2-18.1c0.1-9.9,8.1-17.7,17.8-17.4c9.2,0.3,16.9,8.2,17,17.5
		C64.4,156.9,56.1,165.5,46.7,165.4z M52.1,149.1c0.2-5-1.8-7.2-5.2-7.2c-3.4,0-5.7,2.2-5.8,5.8c0,3.2,1.9,5.1,5,5.4
		C49.7,153.4,51.9,151.7,52.1,149.1z"/>
	<path class="st0" d="M93.1,124.2c-9.6,0-17.4-8.2-17.2-18.1c0.2-9.9,8.2-17.8,17.8-17.5c9.1,0.3,16.9,8.4,17,17.6
		C110.9,115.8,102.5,124.2,93.1,124.2z M93.1,100.7c-3.4,0.7-5.8,2.5-5.6,6.1c0.2,3.6,2.8,5.6,6.2,5.3c2.9-0.2,5-2.2,5-5.6
		C98.7,102.8,96.5,101.1,93.1,100.7z"/>
	<path class="st0" d="M163,124.4c-0.2,9.8-8.4,17.5-18.3,17.2c-9.4-0.3-16.8-8.2-16.7-17.8c0.2-9.9,8.4-17.7,18.2-17.3
		C155.5,106.9,163.2,115.1,163,124.4z M139.6,124.4c1,3.3,2.7,5.9,6.4,5.4c3.6-0.4,5.3-3,4.9-6.5c-0.3-3.1-2.3-4.9-5.6-4.8
		C141.5,118.7,140.1,121.1,139.6,124.4z"/>
	<path class="st0" d="M249.7,153.5c9.3-0.1,17.3,7.6,17.6,17c0.3,9.9-7.5,18.1-17.3,18.1c-9.8,0.1-17.9-8-17.7-17.8
		C232.5,161.5,240.4,153.6,249.7,153.5z M249.4,177c3.7-0.1,5.9-2.3,6.1-5.6c0.1-3.4-1.9-5.7-5.6-5.7c-3.3,0-5.2,1.9-5.4,5
		C244.1,174,245.9,176.4,249.4,177z"/>
	<path class="st0" d="M110.9,188.7c-9.9,0.1-17.9-7.9-17.8-17.7c0.1-9.4,7.9-17.3,17.2-17.5c9.7-0.2,17.8,8,17.7,17.8
		C127.9,180.8,120.4,188.5,110.9,188.7z M110.5,177c3.6-0.4,5.7-2.5,5.7-5.9c-0.1-3.4-2.2-5.6-5.9-5.5c-3.3,0.1-5,2.2-5.1,5.3
		C105,174.4,106.9,176.6,110.5,177z"/>
	<path class="st0" d="M69.5,218.3c-9.5-0.3-17.5-9-17.1-18.5c0.4-9.7,9-17.6,18.4-17c9.3,0.5,16.5,8.5,16.4,18
		C87.2,210.6,79.1,218.6,69.5,218.3z M75.8,200.3c-0.7-3.6-3-5.7-6.3-5.4c-3.3,0.3-5.3,2.7-4.9,6.5c0.4,3.4,2.6,5,5.5,4.9
		C73.5,206.1,75.5,203.9,75.8,200.3z"/>
	<path class="st0" d="M151.2,65.1c0.1,9.4-7.5,17.5-16.8,17.8c-9.7,0.3-17.8-7.6-17.8-17.5c-0.1-10,7.9-18.1,17.6-17.9
		C143.3,47.6,151.1,55.7,151.2,65.1z M134,71.1c3.4-0.9,5.6-2.6,5.4-6.4c-0.2-3.3-2.3-5-5.4-5c-3.5,0-5.8,1.9-5.8,5.6
		C128.2,69,130.8,70.5,134,71.1z"/>
	<path class="st0" d="M296.4,206.1c0.3,9.5-7.9,18-17.4,18.1c-9.3,0.1-17.1-7.4-17.5-16.8c-0.4-9.9,7-18.2,16.6-18.7
		C287.5,188.3,296.1,196.5,296.4,206.1z M284.3,206.7c0.1-3.6-1.8-5.7-5.4-5.7c-3.1-0.1-5.3,1.7-5.7,4.8c-0.5,3.6,1.8,6,5.1,6.4
		C281.7,212.5,284,210.6,284.3,206.7z"/>
	<path class="st0" d="M220.9,218.5c-0.2,9.9-8.3,17.6-18.2,17.2c-9.4-0.3-17-8.3-16.8-17.8c0.2-9.7,8.6-17.7,18.3-17.3
		C213.6,201.1,221,209,220.9,218.5z M203.1,212.6c-3.1,0.1-5.1,2.1-5.1,5.8c0,3.1,1.8,5.3,4.9,5.6c3.6,0.3,5.9-2.1,6.2-5.4
		C209.3,215.2,207.3,212.9,203.1,212.6z"/>
	<path class="st0" d="M284.5,247.7c9.7-0.1,17.9,8.3,17.7,18c-0.2,9.5-8,17.1-17.4,17.2c-9.9,0.1-17.7-7.9-17.5-17.9
		C267.4,255.5,275.1,247.7,284.5,247.7z M284.2,271.1c3.6-0.1,5.7-2,5.9-5.6c0.1-3.1-1.4-5.3-4.6-5.7c-3.7-0.5-6.1,1.6-6.4,4.9
		C278.7,268.1,280.8,270.4,284.2,271.1z"/>
	<path class="st0" d="M220.9,283.4c-0.2,9.6-8.7,17.8-18.1,17.4c-9.1-0.4-16.9-8.5-16.9-17.7c0-9.7,8-17.7,17.7-17.6
		C213.3,265.5,221.1,273.5,220.9,283.4z M209.3,283c-0.6-2.9-1.9-5.6-5.5-5.8c-3.6-0.2-5.6,2-5.7,5.6c-0.1,3.1,1.5,5.3,4.7,5.6
		C206.4,288.8,208.4,286.8,209.3,283z"/>
	<path class="st0" d="M64.3,24.7c-0.4,9.8-8.8,17.5-18.6,16.9c-9.4-0.5-16.5-8.5-16.2-18.2c0.3-9.9,8.8-17.8,18.4-17.1
		C57.1,7,64.7,15.4,64.3,24.7z M52.3,23.8c-0.2-2.9-1.7-5.2-5.5-5.3c-3.2,0-5.3,1.8-5.7,4.8c-0.4,3.6,1.7,6,5.1,6.4
		C49.7,30.2,51.8,28.1,52.3,23.8z"/>
	<path class="st0" d="M47.2,77.1c9.4,0.2,17,8.1,17.1,17.5c0,9.6-8.5,18.1-18,17.8c-9.4-0.3-16.8-8.2-16.8-17.8
		C29.5,84.6,37.3,76.9,47.2,77.1z M52.3,94.6C52,90.9,50,88.7,46.5,89c-3.4,0.2-5.6,2.7-5.4,6.2c0.2,3,2.2,5,5.4,5
		C50.2,100.2,52.1,98.2,52.3,94.6z"/>
	<path class="st0" d="M174.5,271.5c-0.2,9.9-8.3,17.6-18.2,17.2c-9.4-0.4-17-8.4-16.8-17.8c0.2-9.8,8.4-17.5,18.3-17.2
		C167.2,254.1,174.6,261.9,174.5,271.5z M162.8,271.4c-0.6-3.2-2-5.7-5.7-5.8c-3.3-0.1-5.2,1.9-5.5,4.9c-0.4,3.4,1.2,6,4.9,6.4
		C160.2,277.2,161.9,274.7,162.8,271.4z"/>
	<path class="st0" d="M168.5,47.4c-9.9-0.1-17.6-8-17.3-18.1c0.3-9.6,8-17.1,17.5-17c9.9,0.1,17.4,8,17.2,18.2
		C185.6,40.1,178.1,47.5,168.5,47.4z M174.4,29.8c-0.6-3.6-2.5-5.6-6.2-5.4c-3.2,0.2-5,2.1-5.1,5.3c-0.1,3.7,1.9,5.9,5.5,5.9
		C172.2,35.6,174,33.3,174.4,29.8z"/>
	<path class="st0" d="M214.6,41.6c9.3-0.3,17.3,7.3,17.7,16.8c0.4,10-7.1,18.4-16.8,18.7c-9.2,0.3-17.3-7.4-17.8-16.9
		C197.2,50.4,204.9,41.9,214.6,41.6z M220.8,58.8c-0.7-3.5-3-5.5-6.3-5.1c-3.3,0.4-5.4,2.7-4.8,6.5c0.5,3.3,2.8,4.9,5.7,4.7
		C218.6,64.8,220.7,62.6,220.8,58.8z"/>
	<path class="st0" d="M174.2,106.4c-9.9-0.1-17.3-8.1-17-18.3c0.3-9.7,7.8-16.9,17.5-16.8c10,0.1,17.4,8,17,18.2
		C191.3,99.1,183.7,106.5,174.2,106.4z M180.1,88.7c-0.4-3.5-2.3-5.7-5.9-5.6c-3.5,0.2-5.5,2.5-5.3,6.1c0.2,3.2,2.1,5,5.3,5.1
		C177.9,94.4,179.7,92.4,180.1,88.7z"/>
</g>
</svg>
