<?xml version="1.0" encoding="utf-8"?>
<!-- Generator: Adobe Illustrator 19.1.0, SVG Export Plug-In . SVG Version: 6.00 Build 0)  -->
<svg version="1.1" id="Layer_1" xmlns="http://www.w3.org/2000/svg" xmlns:xlink="http://www.w3.org/1999/xlink" x="0px" y="0px"
	 viewBox="-105 197 400 400" style="enable-background:new -105 197 400 400;" xml:space="preserve">
<style type="text/css">
	.st0{fill:#FFFFFF;}
</style>
<g id="Page-1">
	<g id="icon-132-cloud">
		<path id="cloud" class="st0" d="M245,361.8c26.4,10.7,45,36.7,45,67c0,39.8-32.3,72.2-72.2,72.2H-27.8c-40,0-72.2-32.3-72.2-72.2
			c0-29.6,17.9-55.2,43.5-66.3l0,0c-0.1-2-0.2-4-0.2-5.9c0-55.9,45.3-101.1,101.1-101.1c37.8,0,70.7,20.7,88.1,51.3
			c10.5-5.1,22.3-8,34.8-8C205.5,298.7,237.5,325.8,245,361.8z"/>
	</g>
</g>
</svg>
