<?xml version="1.0" encoding="utf-8"?>
<!-- Generator: Adobe Illustrator 19.1.0, SVG Export Plug-In . SVG Version: 6.00 Build 0)  -->
<svg version="1.1" id="Layer_1" xmlns="http://www.w3.org/2000/svg" xmlns:xlink="http://www.w3.org/1999/xlink" x="0px" y="0px"
	 viewBox="0 0 361 381" style="enable-background:new 0 0 361 381;" xml:space="preserve">
<style type="text/css">
	.st0{fill:#FFFFFF;stroke:#FFFFFF;stroke-width:3;stroke-miterlimit:10;}
</style>
<g>
	<path class="st0" d="M181.2,187.4c-46.3,3-83.7,20.6-105.7,65.2c-3.5,7.1-5.3,14.9-7.3,22.6c-1.8,7-0.3,11.4,6,16
		C91,303.4,96.6,326.4,88.9,346c-7.7,19.4-26.9,30.8-47.8,28.1c-18.6-2.4-34.7-18.6-37.5-37.6c-3.3-22.5,6.7-42.8,26.2-50.9
		c6.3-2.6,8.4-5.9,9.5-12.7c9.2-57.8,57-104.3,115.8-112.5c8.8-1.2,11.8-4.2,11.2-13.4c-0.7-12.1-0.6-24.3,0-36.4
		c0.4-8-1.4-12.7-8.9-17c-18-10.3-25.5-32.5-19.7-53c5.5-19.1,23.4-33,42.7-33c19.9,0,37.4,13.8,43,33.9
		c5.7,20.4-2.2,41.8-20.6,52.7c-6.1,3.6-8.1,7.4-7.8,14.2c0.4,13.3,0.6,26.6,0,39.8c-0.4,8.3,2.5,10.6,10.2,12
		c53.9,10,93.1,39.3,112.3,94.2c0.6,1.8,1.3,3.6,1.5,5.4c1.6,13.8,5.8,23.9,19.9,30.9c17,8.4,22.8,31.4,17.4,50.6
		c-5.4,19-21.5,32.3-40.1,33.1c-20.3,0.9-38.1-11.1-44.6-29.9c-6.5-19-1.7-41,13.9-52.1c9.2-6.6,8.3-13.5,6.1-22.2
		c-10.4-41.6-47.6-74.5-91.4-80.5C194,188.8,187.5,188.2,181.2,187.4z"/>
</g>
</svg>
