<?xml version="1.0" encoding="utf-8"?>
<!-- Generator: Adobe Illustrator 19.1.0, SVG Export Plug-In . SVG Version: 6.00 Build 0)  -->
<svg version="1.1" id="Layer_1" xmlns="http://www.w3.org/2000/svg" xmlns:xlink="http://www.w3.org/1999/xlink" x="0px" y="0px"
	 viewBox="0 0 344 328" style="enable-background:new 0 0 344 328;" xml:space="preserve">
<style type="text/css">
	.st0{fill:#FFFFFF;}
</style>
<g>
	<path class="st0" d="M66.3,129.2c3.5,0.1,4.7,2.9,6.2,4.9c6.3,8.4,13.5,14.2,24.4,10.8c1.8-0.6,3.9-0.5,5.7,0
		c12.1,3.2,21.6-0.5,28.7-11.5c2.6-4,5.8-3.5,9.1-1.5c3.9,2.3,7.8,4.6,11.6,7.1c15,9.5,15,9.5,10.8,27.9c-1.2,5.3-1.3,9.9,2.7,14.1
		c1.6,1.6,3,3.8,3.5,6c3.5,14.5,13,20.6,25.9,22c4.2,0.5,5.2,3.4,5.4,7c0.2,4.1,0.3,8.2,0.3,12.3c0.1,20.1,0.1,20.3-17.4,25.9
		c-5.6,1.8-9.6,4.6-11.2,10.9c-0.6,2.3-1.5,4.7-2.9,6.4c-8.7,10.4-10.8,21.6-4.9,34.4c1.7,3.8-0.1,6.4-3.3,8.3
		c-3.3,2-6.5,4.3-9.8,6.4c-16.5,10.3-16.5,10.2-30.3-3.1c-1.9-1.8-3.4-4.3-6.3-4c-10.2,1.1-20.3,0.6-30.5-0.2
		c-5.8-0.4-9.2,5.9-12.4,10.1c-4.7,6.2-9.1,6.1-14.7,2.2c-1.8-1.3-3.8-2.4-5.8-3.6c-17.2-10.6-17.3-10.6-13.3-31.3
		c0.8-4.2,0.7-7.8-2.1-11.4c-2.4-3.1-5.1-6.6-5.9-10.3c-2.8-12.8-11.5-17-22-18.2c-6.4-0.7-7.9-4.4-7.9-10.2c0-2.4-0.1-4.8-0.2-7.2
		c-0.2-22.5-0.3-22.7,19.5-29.4c4.4-1.5,7.2-3.7,8.5-8.4c0.6-2.3,1.5-4.7,2.8-6.4c8.7-10.9,11.9-22.6,5.6-36.2
		c-0.6-1.3-0.7-4.1,0.1-4.7C45.5,139.8,56,134.3,66.3,129.2z M166.9,229.2c0.1-39.8-29.4-71.6-66.4-71.8
		c-37.6-0.1-67.6,31.9-67.4,71.9c0.2,39.4,30.3,71.6,67,71.5C137,300.8,166.8,268.8,166.9,229.2z"/>
	<path class="st0" d="M310,21.5c-0.1,0.3,0,0.7-0.2,1c-10.7,17.9,2.1,31.1,7.8,45.7c3.2,8.4,11.1,7.5,17,8.7
		c7.4,1.5,9.5,5.3,9.2,12.4c-0.1,2.4,0.1,4.8,0.1,7.2c0.1,21.3,0.2,21.5-18.3,27.3c-5,1.6-8.5,3.9-10,9.5c-0.6,2.3-1.4,4.8-2.8,6.4
		c-9.1,10.6-11.2,22.2-5.3,35.3c1.5,3.3,0.3,5.8-2.7,7.6c-3.8,2.4-7.5,5.1-11.3,7.5c-15.6,9.6-15.7,9.6-28.8-3.4
		c-0.7-0.7-1.4-1.4-2.1-2.1c-4.9-4-38.5-1.9-43.1,2.7c-11.7,11.7-11.7,11.7-25.8,3c-0.5-0.3-1.1-0.7-1.6-1
		c-15.3-9.7-15.4-9.7-11.1-27.8c1.2-5.2,1.7-10-2.4-14.2c-1.3-1.4-2.6-3.2-3.1-5.1c-4.2-14.3-12.7-22.8-27.1-23.4
		c-3.9-0.2-4.4-3.4-4.7-6.4c-0.3-3.7-0.4-7.5-0.4-11.2c-0.2-21.6-0.2-21.7,18.6-27.9c4.5-1.5,8.1-3.4,9.3-8.8c0.4-1.9,1.3-4,2.4-5.5
		c8.5-11.2,12.8-23.1,5.9-37.1c-1.7-3.5,0.4-5.8,3-7.5c4.1-2.7,8.1-5.4,12.2-8c14.8-9,14.9-9.1,27.1,3.5c3.4,3.6,6.7,5.4,11.7,4.6
		c5.3-0.9,11.1-1.5,16.1-0.1c10.3,2.8,17.2-1.6,22.8-9.7c4.1-5.9,8.5-5.9,13.9-2.2c6.4,4.4,13,8.4,19.5,12.8
		C308,16.7,310.5,18.1,310,21.5z M243.5,170.2c37.2,0.1,66.8-31,67.4-70.9c0.5-39.5-30-72.6-67.1-72.5c-36.9,0.1-66.6,32-66.7,71.7
		C177,138.4,206.3,170.1,243.5,170.2z"/>
	<path class="st0" d="M99.3,291.4C67,290.7,41.7,262.6,42.1,228c0.5-34.1,27.4-62.2,59.1-61.8c32.8,0.5,58.3,29.5,57.5,65.3
		C158,265.2,131.4,292,99.3,291.4z M133.8,228.8c-0.1-19.6-15.4-35.8-33.6-35.6c-18.3,0.3-33.3,16.8-33,36.3
		c0.3,19.2,15.2,34.8,33.2,34.8C118.9,264.5,133.9,248.5,133.8,228.8z"/>
	<path class="st0" d="M244,36.3c32.1-0.2,58.1,27.6,58.1,62.3c0,34.4-26.2,62.8-57.9,62.9c-31.9,0.1-58.5-28.1-58.8-62.1
		C185.2,64.5,211.2,36.4,244,36.3z M243.6,63.3c-18.5,0-33.4,15.8-33.3,35.5c0.1,19.4,15.2,35.5,33.5,35.6
		c18.1,0.1,33.3-16.2,33.3-35.8C277,79,262.1,63.3,243.6,63.3z"/>
</g>
</svg>
