<?xml version="1.0" encoding="utf-8"?>
<!-- Generator: Adobe Illustrator 19.1.0, SVG Export Plug-In . SVG Version: 6.00 Build 0)  -->
<svg version="1.1" id="Layer_1" xmlns="http://www.w3.org/2000/svg" xmlns:xlink="http://www.w3.org/1999/xlink" x="0px" y="0px"
	 viewBox="0 0 358.4 376.3" style="enable-background:new 0 0 358.4 376.3;" xml:space="preserve">
<style type="text/css">
	.st0{fill:#FFFFFF;}
</style>
<g>
	<path class="st0" d="M37.5,233.5c4.9,2.4,7.4-0.9,10-5c7-11.4,14-22.8,21.4-33.8c3.2-4.7,3.6-8.2,0.1-13c-5-6.8-9.4-14.1-13.7-21.5
		c-6.1-10.3-11.3-19.5-26.1-19c-12.6,0.4-21-10.3-23.8-23.4c-2.8-13,0.4-24.7,10.8-33C26.7,76.3,38.6,74.5,50,82
		c6.2,4,10.5,3.7,16.6,0.4c25.9-14.1,52.2-27.7,78.4-41.3c4.7-2.4,7.8-4.5,8.2-11.3c0.9-17.5,13.8-29.6,30-29.8
		c16.7-0.2,29.7,11.9,30.8,30.2c0.4,6.2,3,8.2,7.4,10.5c27.3,14.1,54.4,28.4,81.5,42.9c4.6,2.5,7.8,2.5,12.5-0.6
		c12.6-8.4,26.3-6.9,36.8,2.8c9.5,8.7,13,23.6,8.5,36c-4.7,13-16.3,22-30.1,20.7c-6.7-0.7-9.1,2.3-11.8,6.9
		c-7.7,13.2-22.8,25.4-22.2,39.2c0.6,13.1,14.3,25.4,21.9,38.2c3.2,5.4,6.4,7.4,13,7c13.4-0.9,25.4,8.8,29.7,21.7
		c3.9,12.1,0.3,26.5-8.7,34.9c-10.1,9.4-24.2,11.6-35.8,3.7c-5.9-4.1-9.9-3.4-15.6-0.3c-26,14-52.2,27.6-78.4,41.2
		c-5,2.6-8.4,4.9-8.7,12.3c-0.8,17.1-14.4,29.2-30.5,29.1c-16.2-0.1-29.2-12.1-30.2-29.5c-0.4-6.6-3.2-9-8-11.5
		c-26.9-13.9-53.7-28-80.5-42.3c-4.4-2.3-7.5-3.5-12.5-0.1c-12.9,8.8-26.1,7.5-36.8-2c-9.6-8.5-13.4-23.4-9.2-35.8
		C10.6,241.8,22.7,233.4,37.5,233.5z M243.2,231.2c-11.3-6-22.1-11.6-32.7-17.5c-3.7-2-6.1-1.2-9.4,1.1c-11.5,8-23.5,8-35.1,0.1
		c-3.3-2.2-5.7-3.3-9.4-1.2c-10.6,5.9-21.4,11.5-32.8,17.5c16.3,25.8,32.1,51,48.2,76.1c4.3,6.6,18.6,6.7,22.9,0.1
		C211.1,282.3,226.9,257,243.2,231.2z M183.1,65.5c-7.1-4.4-9.9,1.6-13.2,6.9c-9,14.4-18.3,28.5-27.1,43c-6,9.9-19.1,20.7-16.2,29.2
		c2.7,8.1,18.6,11.2,28.3,17c4.8,2.9,8.2,2,12.5-1.1c8.7-6.1,19.1-7.9,27.7-2.1c9.6,6.5,16.9,4.1,25.2-1.2c5-3.2,10.2-6.1,15.6-8.2
		c6.5-2.5,6.9-5.3,3-11.3c-14.3-21.9-28.3-44.1-42.1-66.3C193.5,66.3,190.2,62.7,183.1,65.5z M214.6,62.9
		c9,14.1,17.5,27.9,26.4,41.3c6.9,10.3,11.2,27.3,21.2,29.1c9.7,1.7,21.5-9.3,32.3-14.8c3.4-1.7,6.8-3.1,6.7-8.7
		c-0.1-5.8-4.2-6.3-7.4-8c-23.3-12.4-46.7-24.7-70-36.8C221.1,63.6,218.6,60.8,214.6,62.9z M214.5,313.6c1.3,0.2,2.6,1,3.5,0.5
		c26.5-13.8,53.2-27.3,79.4-41.8c6.5-3.6,5.9-9.8-1.5-13.6c-9.1-4.7-18.4-9-27.1-14.5c-6.4-4-9.2-2.1-12.8,3.8
		C242.5,270,228.5,291.6,214.5,313.6z M151.6,64c-0.8-0.7-1.5-1.5-2.3-2.2c-25.7,13.4-51.4,26.9-77.1,40.4c-2.9,1.6-6.3,2.6-6.2,7.6
		c0.1,4.7,2.2,6.5,5.7,8c2.1,0.9,4.1,2.2,6.2,3.3c9.1,4.6,19,13.9,27,12.4c9.1-1.8,12.6-16.3,18.5-25.2
		C133.1,93.8,142.3,78.8,151.6,64z M149.4,314.6c0.7-0.8,1.5-1.6,2.2-2.4c-14.4-22.7-28.8-45.4-43.1-68.1c-2-3.1-4.1-3-6.9-1.5
		c-10.4,5.6-21,10.8-31.1,16.7c-6.9,4-7.2,9.7,0,13.6C96.7,287,123.1,300.7,149.4,314.6z M114.2,163c-1.2,0.9-2.4,1.7-3.4,2.8
		c-13,12.8-14.2,22.8-4.4,38.2c1.3,2,2.8,3.9,3.9,6.1c1.7,3.3,3.8,3.3,6.7,1.7c10.7-5.8,21.5-11.3,32.3-17c5.1-2.7,5.3-9.1,2.3-11
		C139.8,176.1,127.1,169.9,114.2,163z M251.4,163.9c-11.4,6.1-23.8,12-35.4,19.4c-4,2.6-3.3,8.8,2.2,11.7
		c10.4,5.5,20.9,10.8,31.3,16.4c2.6,1.4,4.3,2.2,7-0.6c12.8-13.1,14-22.9,4.3-38.3c-1.3-2-2.8-4-4-6.1
		C255.7,164.5,254.5,163.1,251.4,163.9z M183.1,20.4c-6.6,0.9-10.8,4.9-10.8,12c-0.1,7.2,4.4,11.7,11,11.8c7.2,0.1,12-4.7,11.6-12.4
		C194.5,24.9,190.2,20.8,183.1,20.4z M46.9,110.4C45.9,104,43.1,98.9,36,98.6c-6.8-0.3-11.4,3.3-11.9,10.6
		c-0.5,7.8,3.4,12.4,10.9,12.7C42.2,122.2,45.5,117.4,46.9,110.4z M332.5,98.5c-7.3,0.2-11.7,4.2-11.9,11.1
		c-0.2,7.5,3.9,12.4,11.5,12.2c6.9-0.1,10.8-4.5,10.9-11.6C343.1,103,338.8,99.3,332.5,98.5z M184.1,355.9c6.6-1,10.8-5,10.8-12.1
		c0-7.1-4.5-11.7-11.1-11.7c-7.2,0-11.9,4.8-11.5,12.5C172.7,351.6,177.1,355.6,184.1,355.9z M195.2,187.6
		c-1.4-6.8-5-11.5-11.8-11.4c-6.7,0.2-11.1,4.7-11.1,11.8c0.1,7.7,4.8,12.4,12.1,12C191,199.6,194.5,194.7,195.2,187.6z M35,277.8
		c7.7-0.4,11.7-5,11.6-11.7c-0.1-7.4-4.5-12.2-12.1-11.6c-6.9,0.5-10.6,5-10.3,12.2C24.4,274,28.9,277.4,35,277.8z M343.2,266.2
		c-0.7-7-3.9-11.6-10.9-11.8c-7.6-0.2-11.8,4.6-11.7,12.1c0.1,6.9,4.4,11.4,11.3,11.2C338.8,277.6,342.4,273.3,343.2,266.2z
		 M67.6,138.8c-0.5,0.5-1,1-1.5,1.5c5.9,9.3,11.8,18.6,17.9,28.1c12.8-14.4,12.8-14.4-2-22.1C77.2,143.8,72.4,141.3,67.6,138.8z
		 M302.9,137.3c-7.5,3.8-12.2,6.1-16.9,8.5c-14.6,7.6-14.6,7.7-5,21.1c0.4,0.6,1.3,0.7,2.4,1.1C289.3,158.8,295.2,149.5,302.9,137.3
		z M66.2,236.1c0.5,0.5,0.9,1,1.4,1.5c7.9-4.1,15.7-8.2,23.6-12.3c1.8-0.9,3.8-2,2.4-4.4c-2.4-4.1-4.7-8.7-8.1-11.8
		c-2.4-2.2-3.5,2.1-4.6,3.7C75.8,220.4,71,228.3,66.2,236.1z M282.6,206.9c-3.1,4.8-5.2,8.1-7.5,11.3c-2.3,3.2-2.7,5.4,1.5,7.4
		c7.9,3.8,15.6,8,23.3,12.1c0.4-0.5,0.8-1.1,1.2-1.6C295.2,226.8,289.3,217.5,282.6,206.9z"/>
</g>
</svg>
