<?xml version="1.0" encoding="utf-8"?>
<!-- Generator: Adobe Illustrator 19.1.0, SVG Export Plug-In . SVG Version: 6.00 Build 0)  -->
<svg version="1.1" id="Layer_1" xmlns="http://www.w3.org/2000/svg" xmlns:xlink="http://www.w3.org/1999/xlink" x="0px" y="0px"
	 viewBox="0 0 211.3 211.3" style="enable-background:new 0 0 211.3 211.3;" xml:space="preserve">
<style type="text/css">
	.st0{fill:#E63A34;}
	.st1{fill:#FFFFFF;stroke:#FFFFFF;stroke-miterlimit:10;}
</style>
<path class="st0" d="M180.6,211.3h-150C13.7,211.3,0,197.5,0,180.6v-150C0,13.7,13.7,0,30.6,0h150c16.9,0,30.6,13.7,30.6,30.6v150
	C211.3,197.5,197.5,211.3,180.6,211.3z"/>
<path class="st1" d="M46.9,82.2v33.6c0,7.3,0.8,11.8,2.4,13.5c2.2,2.5,5.6,3.7,10,3.7h4.5v3.1H13.2V133h4.4c5,0,8.6-1.6,10.7-4.8
	c1.2-1.8,1.7-5.9,1.7-12.5V41.2c0-7.3-0.8-11.8-2.4-13.5c-2.3-2.5-5.6-3.7-10.1-3.7h-4.4v-3.1h43.4c10.6,0,18.9,1.1,25,3.2
	c6.1,2.1,11.3,5.7,15.4,10.8c4.2,5,6.3,11,6.3,17.9c0,9.4-3.2,17.1-9.6,23c-6.4,5.9-15.4,8.8-27,8.8c-2.9,0-5.9-0.2-9.2-0.6
	C54.2,83.5,50.7,83,46.9,82.2z M46.9,77.3c3.1,0.6,5.8,1,8.2,1.3c2.4,0.3,4.4,0.4,6.1,0.4c6,0,11.3-2.3,15.7-6.8
	c4.4-4.6,6.6-10.5,6.6-17.7c0-5-1-9.6-3.1-13.9c-2.1-4.3-5.1-7.5-8.9-9.6c-3.8-2.1-8.2-3.2-13.1-3.2c-3,0-6.8,0.5-11.4,1.6V77.3z"/>
<path class="st1" d="M196.8,79.8l1.3,27h-3.3c-0.6-4.8-1.5-8.2-2.6-10.2c-1.8-3.3-4.2-5.7-7.2-7.3c-3-1.6-6.9-2.3-11.8-2.3h-16.7
	v88.1c0,7.1,0.8,11.5,2.4,13.3c2.2,2.4,5.6,3.6,10.2,3.6h4.1v3.1H123V192h4.2c5,0,8.5-1.5,10.6-4.4c1.3-1.8,1.9-6,1.9-12.4V87.1
	h-14.2c-5.5,0-9.5,0.4-11.8,1.2c-3,1.1-5.6,3.1-7.8,6.2c-2.2,3.1-3.4,7.2-3.8,12.4h-3.3l1.4-27H196.8z"/>
</svg>
