<?xml version="1.0" encoding="utf-8"?>
<!-- Generator: Adobe Illustrator 19.1.0, SVG Export Plug-In . SVG Version: 6.00 Build 0)  -->
<svg version="1.1" id="Layer_1" xmlns="http://www.w3.org/2000/svg" xmlns:xlink="http://www.w3.org/1999/xlink" x="0px" y="0px"
	 viewBox="0 0 361 381" style="enable-background:new 0 0 361 381;" xml:space="preserve">
<style type="text/css">
	.st0{fill:#FFFFFF;}
	.st1{fill:#FDFDFC;}
</style>
<g>
	<path class="st0" d="M7.5,270.6c0-52.5,0-104.9,0-157.4c0.5-0.6,1.2-1.1,1.5-1.8c4.7-13.2,14.2-22.3,26.6-29
		c29.6-15.8,59.2-31.5,88.8-47.2C141.9,25.9,160,17.8,178,9.5c3,0,5.9,0,8.9,0c5.7,2.6,11.3,5.1,17,7.7
		c39.9,18.7,78.4,40,117.3,60.5c16.4,8.6,30.4,18.8,36.3,36.7c0,52.1,0,104.1,0,156.2c-6.3,12.8-15.4,22.7-28.5,29.8
		c-31.3,17-62.1,34.8-93.8,51.2c-15.9,8.3-32.2,16-48.2,24c-3,0-5.9,0-8.9,0c-5.4-2.6-10.8-5.2-16.2-7.8
		c-45-21.8-88.3-46.5-131.7-70.9c-5.2-2.9-9.3-7-13.2-11.2C12.7,281.1,10.9,275.4,7.5,270.6z M26.4,191.3c0,22,0.3,43.9-0.1,65.9
		c-0.2,11.1,5,18.9,14.3,24.1c43.8,24.7,87.6,49.6,133.1,71.7c6.3,3.1,11.4,3.1,17.8,0.1c45.4-22.1,89.2-46.9,133.1-71.7
		c9.2-5.2,14.4-13,14.3-24.1c-0.3-43.5-0.3-87,0-130.5c0.1-11.9-5.2-20.6-15.4-26.2c-42.9-23.8-86.2-47.1-130.7-68.2
		c-7.1-3.4-13.1-3.4-20.3,0c-44.5,21-87.7,44.4-130.7,68.2c-10.2,5.6-15.6,14.3-15.4,26.2C26.6,148.2,26.4,169.7,26.4,191.3z"/>
	<path class="st0" d="M224.6,182.9c-0.5-11.1-6.6-19.4-17.9-23c-14.2-4.5-28.4-4-42.3,1.4c-5,2-9.3,5.1-11.1,10.3
		c-1.7,4.7-1.3,9.1,3.8,11.6c4.7,2.3,9.5,4,13.1-2c1-1.7,2.8-3.1,4.5-4.3c8.6-6.1,23-3.5,26.5,4.7c2.2,5.1,1.4,6.5-4.3,6.7
		c-10.6,0.5-21.2,1.1-31.3,4.7c-12.2,4.4-17.7,13.6-15.5,25.4c1.8,9.7,10.8,16.3,22.6,17.1c11.7,0.7,21.8-2.3,29.7-10.9
		c5.3,9.2,10.4,11.9,18.2,10.1c2.7-0.6,4.6-1.7,4.6-4.8C224.9,214.2,225.4,198.5,224.6,182.9z M192.4,214.6c-1.1,1.9-3,2.6-5,3.3
		c-1,0.3-2.2,0.3-3.2,0c-0.8,0.1-1.5,0.2-2.3,0.2c-3.6,0-6.2-2.8-6.4-6.1c-0.1-1.5,0.8-3.3,1.9-4.3c1.2-1.1,2.9-1.8,4.5-1.8
		c0.2,0,0.3,0,0.5,0c1.5-0.2,2.9-0.5,4.4-0.5c1.7,0,3.4,0.7,4.6,1.8C193.4,209.1,193.8,212.3,192.4,214.6z"/>
	<path class="st0" d="M142.3,159.9c-8.5-4.3-16-1.4-19.5,8c-5.5,14.5-10.7,29-16.6,45.2c-1.6-4.2-2.5-6.6-3.4-9.1
		c-4.4-12.3-8.5-24.7-13.2-36.9c-3.5-9-12.3-11.6-20.5-6.7c-3.2,1.9-4.1,4-2.6,7.6c8.9,20,17.7,40,26.3,60.1c2.6,6.1,8,6.9,13.6,6.8
		c5.6-0.1,10.8-1,13.4-7.1c8.4-19.9,17.1-39.8,25.9-59.6C147.6,163.9,146,161.8,142.3,159.9z"/>
	<path class="st0" d="M282.6,157.2c-9.2-0.8-15.9,3-20.7,11.3c-5.5-9.4-10.5-11.9-18.4-10c-2.8,0.7-4.4,1.9-4.4,5
		c0.1,20.7-0.1,41.4,0.1,62.2c0.1,6.3,3.6,8.9,10.9,9.1c7.5,0.2,11.4-2.6,11.7-9.1c0.3-7.7,0.1-15.4,0.1-23.2c0-5.1,0.5-10.2,2.3-15
		c3.2-8.5,11.2-11.9,19.9-8.4c5.4,2.2,8.4,0.9,10.3-4.3C297.6,165.9,292.3,158.1,282.6,157.2z"/>
	<path class="st1" d="M202.4,224.6c-8,8.6-18.1,11.6-29.7,10.9c-11.9-0.7-20.8-7.3-22.6-17.1c-2.1-11.8,3.4-21,15.5-25.4
		c10.1-3.6,20.7-4.2,31.3-4.7c5.7-0.3,6.5-1.6,4.3-6.7c-3.5-8.2-17.9-10.7-26.5-4.7c-1.7,1.2-3.5,2.6-4.5,4.3c-3.6,6-8.4,4.3-13.1,2
		c-5.1-2.5-5.5-6.9-3.8-11.6c1.9-5.2,6.1-8.3,11.1-10.3c13.9-5.5,28.1-5.9,42.3-1.4c11.3,3.6,17.3,11.9,17.9,23
		c0.7,15.6,0.3,31.3,0.5,46.9c0,3.1-1.8,4.2-4.6,4.8C212.7,236.5,207.6,233.8,202.4,224.6z M194.4,200.8c-5.9,0.3-11.9,0.9-17.3,3.5
		c-3.5,1.7-5.5,4.4-5.4,8.3c0.1,3.6,2.2,6.1,5.5,7.5c8.8,3.9,21-1.1,24.2-9.9C204.3,202.3,202.9,200.4,194.4,200.8z"/>
	<path class="st1" d="M106.2,213.1c5.9-16.2,11.1-30.8,16.6-45.2c3.6-9.4,11-12.2,19.5-8c3.7,1.8,5.3,4,3.4,8.3
		c-8.8,19.8-17.5,39.6-25.9,59.6c-2.6,6.2-7.8,7.1-13.4,7.1c-5.6,0.1-10.9-0.6-13.6-6.8C84.2,208,75.4,188,66.5,168
		c-1.6-3.6-0.6-5.7,2.6-7.6c8.2-4.9,17.1-2.3,20.5,6.7c4.7,12.2,8.8,24.6,13.2,36.9C103.7,206.5,104.6,208.9,106.2,213.1z"/>
	<path class="st1" d="M261.9,168.5c4.8-8.3,11.5-12.1,20.7-11.3c9.7,0.8,15,8.6,11.8,17.5c-1.9,5.3-4.9,6.5-10.3,4.3
		c-8.7-3.5-16.7-0.1-19.9,8.4c-1.8,4.8-2.3,9.9-2.3,15c0,7.7,0.2,15.4-0.1,23.2c-0.3,6.5-4.1,9.3-11.7,9.1
		c-7.3-0.1-10.9-2.8-10.9-9.1c-0.2-20.7-0.1-41.4-0.1-62.2c0-3.1,1.7-4.3,4.4-5C251.4,156.6,256.4,159.1,261.9,168.5z"/>
</g>
</svg>
