<?xml version="1.0" encoding="utf-8"?>
<!-- Generator: Adobe Illustrator 19.1.0, SVG Export Plug-In . SVG Version: 6.00 Build 0)  -->
<svg version="1.1" id="Layer_1" xmlns="http://www.w3.org/2000/svg" xmlns:xlink="http://www.w3.org/1999/xlink" x="0px" y="0px"
	 viewBox="0 0 351.6 366.7" style="enable-background:new 0 0 351.6 366.7;" xml:space="preserve">
<style type="text/css">
	.st0{fill:#FFFFFF;}
</style>
<g>
	<path class="st0" d="M345.6,113c-1.6-13.9-4.2-27.4-7.9-37c-0.5-1.2-1.1-2.4-2-3.5c-1.9-2.5-4.5-4.9-7.4-6.1
		c-2.9-1.4-6.1-1.7-8.5,0.1c-0.7,0.5-1.3,1.1-1.8,1.8c-1.6,2.2-2.9,5-4.3,7.7c-1.5,3-3,6.1-4.8,8.3c-2.1,2.4-4.7,4-7.2,5.3
		c-1.1-3.5-2.3-6.9-3.7-10c-1.7-3.7-3.6-7.2-5.8-10.7c-1.6-2.5-3.3-4.9-5.2-6.9c-1.9-1.9-3.7-3.6-5.9-5.4
		c-5.9-5-10.8-11.1-15.9-17.2c-2.4-2.8-4.6-5.6-7-8.2C246.3,17.4,235.1,10.8,223,9.7c-12-1.1-24.6,3.5-39.6,12.1
		c-7.3,4.2-12.5,9.1-17.2,15c-4.4,5.7-8.2,12.2-12.3,19.9c-2.5,0.2-4.6,0.8-6.8,1.9c-2.5,1.4-4.8,3.5-7.7,7c-2.1,2.4-4,5-6,7.6
		c-1.8,2.3-3.5,4.8-5.2,7.3c-13.6,3-24.7,6.3-34.6,11.7c-10.2,5.4-19.1,12.9-28.2,24.1c-3.6,4.4-7,9.3-9.8,14.6
		c-2.8,5-5.2,10.4-7.3,15.9c-1.9,2.8-3.7,5.6-5.7,8.2c-2,2.4-4,4.5-6.4,5.6l0,0c-1.4,0.7-1.9,1.2-2,1.1s-0.1-0.3-0.2-0.9
		c3.3-4.4,3.8-10.9,4.1-17.2c0.4,0.7,0.8,1.5,1.2,2.3c0.4,1,0.9,1.9,1.5,2.8l2.3,4l0.8-5c0.7-4.1,1.2-9.6,0.4-14.4
		c-0.5-3.1-1.6-5.8-3.3-7.8c0.2-0.6,0.3-1.2,0.5-1.7c0.6-2,1.2-4.1,1.7-6l1-3.9l-2.9,0.7c-3.9,1-12.3,7.3-18.1,15.6
		c-2.2,3.1-4,6.6-5.3,10.2c-1.3,3.8-1.9,7.7-1.4,11.7c0.4,3.5,1.7,6.8,3.9,10c0.4,2.3,0.8,4.3,1.2,6.1c0.5,2,1,3.9,1.6,5.7
		c1.7,5,4.4,7.9,7.5,9.3c2.5,1.2,5.3,1.2,8.1,0.4c-0.6,4.6-0.9,9.1-1,13.7c-0.2,6.4,0,13.5,0.5,21.7c0.1,1.8,0.3,3.8,0.5,5.9
		c0.2,1.8,0.4,3.7,0.7,5.4c-0.5,1.9-1.1,3.9-1.6,5.8l-2.4,9l-5.3,7.2c-1.7,2.2-3.3,4.5-4.9,6.7c-0.1,0.2-0.7,0.9-1.2,1.6
		c-3.3,4.5-4,5.3-3,13.1c0.6,5,1.8,9.8,3.5,14.3c1.7,4.3,3.8,8.4,6.7,12.3c3.5,4.9,9.3,10.9,15.3,14.1c3.4,1.8,7,2.7,10.3,1.9
		c-0.2,0.7-0.3,1.5-0.5,2.1c-0.5,2-1.1,4-1.8,5.9c-4.1,12.3,0.1,18.8,6.7,22.9c3.2,2,7.2,3.4,10.8,4.8c0.8,0.3,1.5,0.5,2.5,0.9
		c4.3,1.6,11.7,4.6,18.4,5.1c7.4,0.7,14-1.5,15.8-10.6c0.7-3.6,1.1-6.4,1.3-9.1c0.2-2.5,0.1-5-0.1-8.2c2.1-6.4,2.9-8.3,4.5-11.3
		c0.3-0.6,0.7-1.4,0.8-1.6c1.7-3.4,2.5-5.7,2.6-8.4c0.3-2.6,0-5.1-0.3-9.1c0-0.4-0.1-1-0.2-1.7c4.2,0.8,8.5,1.2,12.7,1.2
		c2.2,0,4.3-0.1,6.5-0.2c-0.6,0.4-1.1,0.8-1.7,1.2L134,301c-5.7,4-5.9,11.7-4.1,19.5c1.6,7.1,4.9,14.3,7,18.7
		c4.3,9.2,8.5,17.1,13.5,21.4c5.3,4.5,11.3,5,19.1-0.8c3.9-2.9,5.2-5.9,6.9-10c0.5-1.3,1.1-2.6,1.7-3.9c1.7-1.5,5.7-6.1,9.7-10.7
		c1.4-1.6,2.7-3.1,4.2-4.9c1.1,1.1,2.4,1.8,3.9,2.3c2,0.7,4.4,1,7.3,1.3c2.2,0.2,9.1,0.2,13.6,0.2c1.4,0,2.5,0,3.2,0
		c4.6,0,8.4-0.3,11.3-2.5c3-2.3,4.8-6.5,5.2-14.1c0.2-3.3,0.2-5.4-0.1-7.5c-0.3-1.9-0.9-3.8-2-6.4c-0.1-3.2-0.1-6.5-0.2-9.7
		c-0.1-3.4-0.1-6.9-0.2-10.3c-0.1-4.1-0.4-7.4-1-10.6c-0.6-3.2-1.5-6.3-2.5-10c-0.7-2.3-1.4-4.7-2-7.1l-1.7,0.8l0.3-0.1l1.4-0.7l0,0
		c-1-3.6-2-7.2-3.2-10.9c0.1-0.7,0.2-1.6,0.3-2.3l2.5,3.5l3.8,5c2.9,3.9,5.6,7.4,8.7,9.9c3.2,2.6,6.9,4.2,11.6,3.9
		c4.9-0.3,10.2-3.2,14.6-7.6c4.2-4.3,7.5-10.1,9-16.4l1.2-5.5l1-4.5c7,1.7,14.3,2.1,21.6,1.1c7-1,13.6-3.4,19.4-7.7
		c8.5-6.2,14.8-15.4,19.4-26.3l0,0c5.1-12.2,7.9-26.6,9-41.4C347.9,144.7,347.4,128.6,345.6,113L345.6,113z M256,212.7
		c-4-1.8-6.8-4.6-10.3-7.6c1,5.9,1.4,12.2,0.1,18.2c-2.1,9.4-5.3,24.8,4,27.6c3.5,1.1,5.1,1,10.1-2.6c-4,1.3-6.1,1-8.8,0.2
		c-2.5-0.7-3.8-2.8-4.5-5.4c0.9,0.9,2.3,1.4,4.7,2.1c6.9,2.2,13.4-2.2,14.7-8.8c0.8-3.8,0.6-5.8,2.2-11.1c1.4,0.6,2.8,1.2,4.4,1.7
		l-2.5,11.5c-2.2,9.9-10.8,17.9-18.3,17.8c-7-0.2-11.5-6.2-16.3-12.1c-3.3-4.1-6.6-8-9.7-11.8c-8.7-3.8-15.7-8.3-23.8-16.5
		c5.8,9.3,9.7,14.5,17.7,19.1c-1.2,16.4-5.3,28.4-8.8,44.2c-1.6,7.1-14.2,35.6-17.7,38.4c-2.5,1.9-18.1,20.1-21.1,22.5
		c-2.2,4-4.1,9.5-7.4,11.9c-10,7.3-16.5-6.7-21.9-18.5c-2.5-5.3-9.3-20.9-3.3-25.2c5.6-4.1,8.7-7,14.5-12.2c0.9,2.1,2.3,4.2,3.2,6.3
		l-0.6-7c-0.4-4.2-0.4-7.6-0.1-11.8c0.2-4.1,0.5-8.2,0.7-12.2c-0.9,4.2-2.5,8.3-3.4,12.4c-0.4,1.7-0.6,3-0.8,4.3
		c-12.8,3.6-25.7,3.9-38.5,0.7c-0.8-6.6-1.9-13.4-2.6-18.4c-0.3,5.5-0.1,20.7-0.1,29.2c0,6.6-0.2,8.8-2.6,14.5
		c-2.4,5.2-3.3,6.4-6.5,15.3c0.3,5.6,0.3,9.3-0.8,14.7c-1.8,8.8-19.9,1.9-24.7,0.2c-5.9-2.2-18-5.5-15-16.3
		c2.6-9.5,4.4-19.5,5.7-32.8C57,273.3,47,244,45,218c-1.5-20.2-0.6-32.6,2.5-45c5-19.5,12.1-36.5,23.3-50.1
		c15.2-18.4,29.4-25.7,51.6-30.4c-5.4,8.3-10.6,17-16.4,26.3c-5.9,9.5-9.3,19-13,29.4c-5.1,14.3-5,19.7,1.8,32.3
		c5.9,10.9,9,15.7,11.6,26.3c-2.2,6-2.8,11.1-3.6,19.2c7.2,10.8,12.4,18.2,19.4,20.5c6.9,2.2,12.5,1.8,18.6-2.5
		c13.5-9.5,26.1-21.8,41.4-22.4c7.1-24,6.4-44,2.9-67.2c-2.4-15.8-3.2-30.9-3.9-47c-2.8,16.6-3.4,31.3-1.3,47.9
		c2.5,20,4.5,42-2.5,59.6c-13.8,1.5-25.7,13-38.1,21.9c-5,3.6-10.2,3.9-15.8,1.8c-5.1-1.9-8.6-6.6-14.1-15.4
		c-0.1-8.8,1.4-12.9,4.3-21c4.7-12.9,10-24.9,15.7-37.5c-7.1,11.7-13.6,21.5-19.2,33.2c-2.2-8.3-5.1-12.5-10.1-21.8
		c-4.9-9.1-5.4-13.1-1.8-23.7c3.6-10.6,6.8-19.9,13-29.2c10.8-16.1,20.7-34,32.5-49.9c6.4-8.6,9-8.3,17.5-10.1
		c7.6-1.7,15.2-3.6,23-6.1c-7.5,1-14.9,1.4-22.3,1.6h-0.2c7.3-12.8,11.5-19.9,23.3-27c29-17.4,47.5-19.3,70.4,7.2
		c5.9,6.9,11.1,13.5,17.1,19.4c-2.2,0.3-4,0.8-6.6,2.1c3-0.8,6.5,0,9.6,0.8c0.9,0.8,1.8,1.6,2.7,2.3c4.2,3.4,6.7,5.3,9.5,10.9
		c3,5.8,5.6,11.7,7.7,18.1c-1.5-0.7-2.6-1.4-3.7-1.7c-2.5-1.6-5.3-1.4-7.6,0.7l-0.2,0.1c-2.4,1.6-6,3.4-8.4,3.9
		c1.3,0.6,4,0.8,5.3,0.1c0.2-0.1,0.4-0.2,0.5-0.2c-0.6,1.4-1,3-1.1,4.6c-0.2,2.1,0.2,4.3,0.9,6.2l0,0c0.2,0.7,0.5,1.4,0.9,1.8
		c-1.1,0.6-2.3,1.2-3.4,1.9c5.4-1.2,10.3-1.4,15.6-0.4c0.4,2.3,0.7,4.8,1,7.2l-2,0.2c-0.1,0-0.1,0-0.2,0c-2.5-2.7-5.3-2.3-9.1-1.1
		c-11.6,3.6-8.8,12.6-14.2,26.1c5.5-9.3,5.1-19,14.1-22c2.1-0.7,3.5-1.6,4.9-1.3c-2.5,1.7-4.8,4.8-5.7,8.2c-2.5,9.6-1,17.8-3.6,26.7
		c3.3-8.1,3.5-15.9,6.6-24.4c1.1-3,5.1-7.9,7.5-8l2.1-0.1c0.6,5.3,1,10.7,0.7,15c-0.4,8.1-2,20-2.8,24.6c3-5.4,4.4-16.9,5.8-25
		c1.4-8.3,1.1-18.4-0.2-27.5c-1.7-12.3,7.5-10.4,12.9-16.2c3.9-4.3,6.7-11.2,10.3-16s9.2,2.2,10.7,7c6.1,20.4,8.9,52.5,7.3,73
		c-1.8,23.1-9.9,48.3-24.6,59.6C296.8,230.2,274.7,221.4,256,212.7L256,212.7z M229.2,315.2c-0.6,9.5-2.9,10.2-9,10
		c-2.7-0.1-13.7-0.1-16.5-0.5c-3.9-0.5-6.2-1-7.4-2.2c6.2-6.2,16.7-32,18.7-41c2.2-9.4,4.5-17.6,6.3-26.3c0.8,3.6,1.5,7.2,2.6,11.1
		c2,6.4,2.9,10.4,3,17.3l0.5,21.8C229.3,309.7,229.5,310.5,229.2,315.2L229.2,315.2z M43.4,243.1c3.9,18.7,10.6,37.1,18,52.5v0.3
		c-0.5,2.6-1,5.2-2.2,7.3c-5.3,9.8-18.7-4.6-22.6-10.1c-4.2-6-7.2-13.1-7.7-19.8c-0.5-4.9,0-5,2.5-8.4l9.9-13.9L43.4,243.1
		L43.4,243.1z M35.9,125.4c-1,3-1.8,5.2-2.2,7.6c-2.2,10.1,1,19-5.7,26.3c3.1,8.6,2.9,12.1,10.2,8.2c2.7-1.6,5.1-3.7,7.2-6.3
		c-1,3.6-1.9,7.2-2.7,10.8c-0.1,0.6-0.3,1.3-0.4,1.8c-5.2,3-12,5-14.6-2.5c-1.3-3.7-2-7.2-2.9-11.8C16.2,147.2,29,131.1,35.9,125.4
		L35.9,125.4z M40,138.3c-1.1-1.5-1.9-2.4-3.2-2.2c0.1-1.3,0.3-2.4,0.5-3.5c0.1-0.6,0.2-1.2,0.4-1.7C39.5,132.3,39.8,134.8,40,138.3
		L40,138.3z M295.6,92.8c0.3,1,0.7,1.8,1,2.8c-0.3,0.3-0.5,0.6-0.7,0.8c-0.4-1.4-1-2.6-1.8-3.6C294.6,92.9,295.1,92.8,295.6,92.8
		L295.6,92.8z M49.5,148.1L49.5,148.1L49.5,148.1L49.5,148.1z M115.1,295.5L115.1,295.5L115.1,295.5z M191.9,327.1L191.9,327.1
		L191.9,327.1z M223.1,245.3L223.1,245.3L223.1,245.3L223.1,245.3z M36.8,162.7L36.8,162.7l-0.1-0.2L36.8,162.7L36.8,162.7z
		 M336.4,196.7L336.4,196.7L336.4,196.7z M6.7,159.8c1.4-21.2,4.3-30.3,15.3-46.3C8.3,126.8,4.9,132.9,6.7,159.8"/>
	<path class="st0" d="M3.2,142.5c1.5-9.5,2.9-13.1,7.2-21C3.4,128.2,2.5,130.9,3.2,142.5 M163.7,9.6c-8.2,2.7-9.8,4.9-12.3,15.9
		C155.4,17.3,157.7,14.7,163.7,9.6"/>
	<path class="st0" d="M176.7,8c-16.3,5.5-21.1,9.4-26.5,35.4C157.1,24.3,162.3,17.3,176.7,8 M211.7,102.8
		c1.8-10.6,4.8-20.8,16.8-28.7C212.5,79.5,209.6,88.7,211.7,102.8 M312.2,103.4c9.3-4.6,13.9-15,16.1-27.2
		c-3.6,10.2-9.3,18.8-17,24.1c-4.1,2.8-6.8,1.8-11.4,1.3C304.7,103.4,307.6,105.8,312.2,103.4 M248.4,113.8c-1.2-3.5-3.3-6.1-6-7.5
		c2.3-1.7,4.5-3.5,6.3-5.6c-5.2,3.3-11.2,2.5-15.6,6.6c-3.9,3.6-9.3,15.1-13.2,20c2.8-1.6,5.6-4.2,8.1-7c0,5.4,2.3,10.4,5.7,12.8
		c-1.5,2.6-2.6,5.5-3.4,8.7c7.5-12.3,18.4-21.7,28.7-25.6c-2.8-0.1-6.3,0.7-9.7,2.2C249.3,116.9,249,115.3,248.4,113.8 M237.6,206.9
		c-0.4,3.2-0.9,7.2-1.3,10.4c1-3.6,2.2-7.8,3.3-11.3c1.2-3.7,1.9-4,4.4-5.9c1.9-1.4,5.1-3.2,7-4.6c-1.9,0.4-5.2,1.4-7.1,1.8
		C239,198.5,238.4,200.1,237.6,206.9 M152.4,83.7c-5.8,7.9-11.5,35-13.2,45.8c2.8-9,9.9-34.2,15.4-40.6c1.5-1.7,2.5-2.8,3.7-3.7
		c-3.9,9-3.6,11.3-2.3,23.3c1.2-12.2,4.2-17,9.3-26.1c5.5-1.9,10.7-4.2,16.4-7.3c-6.4,1-12.7,1.9-19.2,2.7
		C157,78.7,156.1,78.6,152.4,83.7"/>
</g>
</svg>
