<?xml version="1.0" encoding="utf-8"?>
<!-- Generator: Adobe Illustrator 19.1.0, SVG Export Plug-In . SVG Version: 6.00 Build 0)  -->
<svg version="1.1" id="Layer_1" xmlns="http://www.w3.org/2000/svg" xmlns:xlink="http://www.w3.org/1999/xlink" x="0px" y="0px"
	 viewBox="0 0 359.5 378.9" style="enable-background:new 0 0 359.5 378.9;" xml:space="preserve">
<style type="text/css">
	.st0{fill:#FFFFFF;}
</style>
<g>
	<path class="st0" d="M141.5,266.1c0-12.1,0.2-24.2-0.1-36.3c-0.2-6.9,1.4-9.5,6.5-9.4c17.3,0.4,34.5,0,51.8,0.3
		c8.9,0.1,14.7,7.5,15,20.2c0.5,21.3,0.1,42.6,0.3,63.8c0.1,11.3-5.9,6.5-9.6,7.2c-3.8,0.6-7.8,1.5-7.6-7.5
		c0.4-17.5,0.3-35.1,0.3-52.6c0-3.7-0.1-7.6-0.6-11.2c-0.7-5-3-8.2-6.9-8.1c-4.7,0.2-3.6,5.5-3.7,9.3c-0.1,20-0.4,40.1,0.2,60.1
		c0.3,10.3-3.5,10.2-8.7,10.2c-5.2,0-9.1,0.3-8.8-10.1c0.6-18.7,0.4-37.6,0.1-56.3c-0.1-5.1,2.9-13.3-5.1-13.5
		c-7.9-0.2-5.5,7.6-5.6,13c-0.2,18.8-0.5,37.6,0.1,56.3c0.4,11.2-4.2,10.3-9.5,10.7c-6,0.4-8.7-1.8-8.3-11
		C141.8,289.6,141.4,277.8,141.5,266.1C141.4,266.1,141.5,266.1,141.5,266.1z"/>
	<path class="st0" d="M315.7,133.6c17.4,32.7,26,67.2,16.7,106.9c-5.3,22.8-18.6,33.7-34.2,39.7c-3.9,1.5-5.2-1.2-4.2-6.9
		c2.6-15.2,1.6-30.7,0.8-46c-0.7-13-5.9-22.8-15.4-25.9c-4.2-1.4-4.5-3.6-3.2-8.6c2.2-7.9,4.2-16,10.9-18.3
		c13.8-4.7,22-17.1,26.3-35.5C313.8,137.4,314.6,136.1,315.7,133.6z"/>
	<path class="st0" d="M304.2,94.1c-0.5,11.9,1.8,21.5,0.5,31.5c-2,15.7-7.2,27.1-18.9,31.2c-10.4,3.6-15.2,14.9-18.9,27.7
		c-1.1,3.7-0.6,10-6.1,7.5c-5.7-2.7-3.1-7.6-1.9-12c4.7-17.9,11.6-32.9,26.1-37.6c7.9-2.5,10.9-10.9,11.4-21.3
		c0.6-12.7-1.2-24.9-3.9-36.9c-1.5-6.6-3.1-13.2-5.6-23.3c31.4,27.4,53.5,60.7,63.9,107.5c5.7,25.7,6.1,51.8,0.9,77.8
		c-7.1,35.1-24.4,55.3-48.8,64.5c-2.1,0.8-5.6,4.1-6.5-2.2c-0.7-5.1-0.7-9.8,4.4-11.3c4.3-1.3,8.6-3.4,12.7-6
		c20.5-13,30.5-36.8,32.7-66.9C350.1,170.5,332.7,129.7,304.2,94.1z"/>
	<path class="st0" d="M71.2,265.7c0-12.5,0.2-25.1-0.1-37.6c-0.1-6.1,1.4-7.8,5.6-7.7c12.8,0.3,25.6,0,38.4,0.2
		c9.9,0.1,16,7,16.5,20.8c0.7,21.3,0.3,42.6,0.3,63.9c0,10.4-5.7,6.2-9.2,6.4c-3.2,0.2-8.5,3.2-8.2-6.4c0.1-2.9,0-5.8,0-8.8
		c0-18.8,0-18.8-12.9-18.8c-13.5,0-14,0-13.3,23.2c0.3,10.6-3,11.1-8.8,11.3c-6.2,0.2-9.2-1.2-8.6-11.4
		C71.8,289.2,71.2,277.4,71.2,265.7z M102,266.1c5.7-0.7,13.9,4.6,12.9-13.2c-1.2-20.1-0.8-20.8-14.5-21
		c-6.9-0.1-13.3-2.2-12.5,13.6C88.9,266,88.1,266.1,102,266.1z"/>
	<path class="st0" d="M227.3,266.3c0-12.1,0.2-24.2-0.1-36.3c-0.2-6.7,0.9-9.8,6.3-9.6c13.1,0.5,26.2,0.1,39.3,0.2
		c1.8,0,3.7,0,5.3,0.8c6.7,3.3,9.6,17.1,7.4,34.5c-1.3,10-4.8,16.9-13,16.6c-6.2-0.2-12.5,0.5-18.7-0.2c-6.7-0.7-10.1,1.7-9,12.1
		c0.5,4.9-0.2,10.1,0.2,15c0.8,9.4-1.2,12.9-8.6,12.9c-7.6,0-9.8-3.2-9.1-13.5C227.8,288,227.3,277.1,227.3,266.3
		C227.3,266.3,227.3,266.3,227.3,266.3z M256.2,232.3c-7.4-1.8-11.7-0.6-11.7,13.2c0,13.5,3.2,15.7,11.6,15.2
		c7.4-0.5,12.7,0.4,12.6-14.5C268.6,231.8,264,230.4,256.2,232.3z"/>
	<path class="st0" d="M4,260.3c0-10.4,0.3-20.9-0.1-31.3c-0.5-10.7,4.7-8.4,8.9-8.4c4.1,0,9.1-2.5,8.9,8.3
		c-0.5,20,0.1,40.1-0.2,60.1c-0.1,8,1.7,11.4,7.6,11.1c8.6-0.5,17.3-0.2,25.9-0.1c3.1,0,6.7-1.4,6.6,6.3c-0.1,6.8-3.3,5.6-6.1,5.6
		c-12.8,0-25.6-0.2-38.4,0c-8.7,0.1-12.5-6.8-12.9-17.8C3.7,282.8,4.1,271.5,4,260.3z"/>
</g>
</svg>
