<?xml version="1.0" encoding="utf-8"?>
<!-- Generator: Adobe Illustrator 19.1.0, SVG Export Plug-In . SVG Version: 6.00 Build 0)  -->
<svg version="1.1" id="Layer_1" xmlns="http://www.w3.org/2000/svg" xmlns:xlink="http://www.w3.org/1999/xlink" x="0px" y="0px"
	 viewBox="-127 210.4 357 372.6" style="enable-background:new -127 210.4 357 372.6;" xml:space="preserve">
<style type="text/css">
	.st0{fill:none;stroke:#FFFFFF;stroke-width:5;}
	.st1{opacity:0.8;}
</style>
<g>
	<g>
		<ellipse class="st0" cx="51.5" cy="396.7" rx="176" ry="183.8"/>
		<ellipse class="st0" cx="51.5" cy="396.7" rx="132" ry="137.8"/>
		<ellipse class="st0" cx="51.5" cy="396.7" rx="88" ry="91.9"/>
		<ellipse class="st0" cx="51.5" cy="396.7" rx="44" ry="45.9"/>
		<path class="st0" d="M51.5,212.9v367.5 M175.5,526.1l-248-258.9 M175.5,267.2l-248,258.9 M227.5,396.7h-352"/>
	</g>
	<g class="st1">
		<path class="st0" d="M51.5,396.7h36c0.5-3.5,0.5-7,0-10.4L51.5,396.7z"/>
		<path class="st0" d="M51.5,396.7l68-89.8c-9.1-7.2-19.2-12.8-30-16.7L51.5,396.7z"/>
		<path class="st0" d="M51.5,396.7l-32-150.3c-22.7,5.2-44,15.9-62,31.3L51.5,396.7z"/>
		<path class="st0" d="M51.5,396.7l-116-58.5c-11.3,25.4-14.8,53.9-10,81.4L51.5,396.7z"/>
		<path class="st0" d="M51.5,396.7l-66,33.4c1.1,3.6,2.4,7.1,4,10.4L51.5,396.7z"/>
		<path class="st0" d="M51.5,396.7l-20,94c11.9,2.5,24.1,2.5,36,0L51.5,396.7z"/>
		<path class="st0" d="M51.5,396.7l92,121.1c8.9-7.4,16.9-15.8,24-25.1L51.5,396.7z"/>
	</g>
</g>
</svg>
