<?xml version="1.0" encoding="utf-8"?>
<!-- Generator: Adobe Illustrator 19.1.0, SVG Export Plug-In . SVG Version: 6.00 Build 0)  -->
<svg version="1.1" id="Layer_1" xmlns="http://www.w3.org/2000/svg" xmlns:xlink="http://www.w3.org/1999/xlink" x="0px" y="0px"
	 viewBox="-49 99 346.2 335.1" style="enable-background:new -49 99 346.2 335.1;" xml:space="preserve">
<style type="text/css">
	.st0{clip-path:url(#SVGID_2_);}
	.st1{fill:#FFFFFF;}
	.st2{clip-path:url(#SVGID_4_);}
	.st3{clip-path:url(#SVGID_6_);}
	.st4{clip-path:url(#SVGID_8_);}
	.st5{clip-path:url(#SVGID_10_);}
	.st6{clip-path:url(#SVGID_12_);}
</style>
<title>integration-tile</title>
<g>
	<defs>
		<path id="SVGID_1_" d="M-39,323c2.4,7.9,5.1,14.3,8.1,19.2c2.1,2.7,4.3,4,6.5,3.9c4.5,0.7,8.7-7.4,10.8-20.7
			c2.3-13.8,3.5-31.4,3.5-52.8c0-20-1-35.8-3.1-47.4c-1.9-11.5-5.7-18.4-9.6-17.7c-2.9,0.1-5.7,2.7-8.2,7.5
			c-3.1,6.1-5.8,13.8-8.1,23L-39,323z M-49,434.1V182.6h10v34.5c1.7-11.7,4.4-21.7,7.7-29c3.2-6.6,6.9-10,10.7-9.7
			c6.8,0,12,8.4,15.7,25.1s5.6,38.6,5.6,65.6c0,17.1-0.8,34.1-2.6,50.1c-1.5,14.9-4.3,28.1-8,37.9c-3.5,9.3-7.9,14.2-12.3,14.1
			c-2.4-0.2-4.8-1.1-7.2-2.7c-3-1.8-6.1-9.3-9.5-22.6v88.1H-49z"/>
	</defs>
	<use xlink:href="#SVGID_1_"  style="overflow:visible;fill:#FFFFFF;"/>
	<clipPath id="SVGID_2_">
		<use xlink:href="#SVGID_1_"  style="overflow:visible;"/>
	</clipPath>
	<g class="st0">
		<rect x="-55.8" y="155.8" class="st1" width="63.2" height="300.8"/>
	</g>
</g>
<g>
	<defs>
		<path id="SVGID_3_" d="M44.1,325.6v-47.9l-3.3-0.4c-4.7-0.6-9.4,2.9-13.6,10.2c-3.6,6.8-5.4,16-5.4,27.7c0,7.8,1,15.2,2.7,20.4
			c1.7,5.4,3.9,8.4,6.3,8.3c2.3,0,4.5-1.6,6.5-4.5c2.4-3.6,4.7-8.3,6.8-14L44.1,325.6z M45.6,366.8v-23.4
			c-2.7,8.3-5.7,15.3-8.9,20.7c-2.7,4.4-5.6,6.8-8.6,7c-4-0.1-7.9-4.6-11-12.9c-3.4-8.6-5.1-21.2-5.1-37.9c0-18,2.7-34.8,7.1-44.9
			c4.8-11.8,12.3-17.7,22.8-17.7h2.4v-22.2c0.1-6.7-0.2-13.3-1.1-19.3c-0.8-4.3-2-7.6-3.4-9.4c-1.8-2.4-3.8-3.6-5.7-3.4
			c-6.1,0.7-12,6.3-17.3,16.3v-27.4c6.1-8.6,12.7-13.2,19.3-13.6c3.1-0.1,6.2,1.7,9.1,5.2c2.6,3.1,4.9,8.8,6.6,16.3
			c1.6,7.4,2.5,19.3,2.5,35.8V367L45.6,366.8z"/>
	</defs>
	<use xlink:href="#SVGID_3_"  style="overflow:visible;fill:#FFFFFF;"/>
	<clipPath id="SVGID_4_">
		<use xlink:href="#SVGID_3_"  style="overflow:visible;"/>
	</clipPath>
	<g class="st2">
		<rect x="5" y="156" class="st1" width="55.9" height="237.8"/>
	</g>
</g>
<g>
	<defs>
		<path id="SVGID_5_" d="M232.1,325.3v-47.6l-3.3-0.3c-4.7-0.6-9.4,2.9-13.6,10.2c-3.6,6.8-5.4,16-5.4,27.7c0,7.8,1,15.2,2.7,20.4
			c1.7,5.4,3.9,8.4,6.3,8.3c2.3,0,4.5-1.6,6.5-4.5c2.4-3.6,4.7-8.3,6.7-14L232.1,325.3z M233.6,366.7v-23.3
			c-2.7,8.3-5.7,15.3-8.9,20.7c-2.7,4.4-5.6,6.8-8.6,7c-4-0.1-7.9-4.6-11-12.9c-3.4-8.6-5.1-21.2-5.1-37.9c0-18,2.7-34.8,7.1-44.9
			c4.8-11.8,12.3-17.7,22.8-17.7h2.4v-22.2c0.1-6.7-0.2-13.3-1.1-19.3c-0.8-4.3-2-7.6-3.4-9.4c-1.8-2.4-3.8-3.6-5.7-3.4
			c-6.1,0.7-12,6.3-17.3,16.3v-27.4c6.1-8.6,12.7-13.2,19.3-13.6c3.1-0.1,6.2,1.7,9.1,5.2c2.6,3.1,4.9,8.7,6.6,16.1
			c1.6,7.4,2.5,19.3,2.5,35.8v131.1L233.6,366.7z"/>
	</defs>
	<use xlink:href="#SVGID_5_"  style="overflow:visible;fill:#FFFFFF;"/>
	<clipPath id="SVGID_6_">
		<use xlink:href="#SVGID_5_"  style="overflow:visible;"/>
	</clipPath>
	<g class="st3">
		<rect x="193.1" y="156" class="st1" width="55.9" height="237.8"/>
	</g>
</g>
<g>
	<defs>
		<path id="SVGID_7_" d="M74.2,367V182.6h10v34.5c2.3-11.6,5.3-21.3,8.9-28.6c3.2-6.5,6.8-10,10.5-10.1c4.3-0.6,8.4,4.8,11.4,14.8
			c2.9,9.9,4.4,23.7,4.4,41.2V367h-10V245.4c0-12.8-0.3-21.2-1-25.3c-0.7-4-1.6-7.3-2.8-9.4c-1.2-2.2-2.5-3.3-3.9-3.3
			c-2.8,0.4-5.5,3-7.9,7.6c-2.9,5.1-6,16-9.3,32.6V367L74.2,367L74.2,367z"/>
	</defs>
	<use xlink:href="#SVGID_7_"  style="overflow:visible;fill:#FFFFFF;"/>
	<clipPath id="SVGID_8_">
		<use xlink:href="#SVGID_7_"  style="overflow:visible;"/>
	</clipPath>
	<g class="st4">
		<rect x="67.4" y="155.8" class="st1" width="58.8" height="233.8"/>
	</g>
</g>
<g>
	<defs>
		<path id="SVGID_9_" d="M174.3,226.5c-2.4-7.8-5.2-14.2-8.2-19c-2.1-2.6-4.3-3.9-6.5-3.8c-4.5-0.7-8.7,7.3-10.8,20.6
			c-2.4,13.7-3.6,31.4-3.6,53c0,20.1,1,35.9,3.1,47.4c2,11.4,5.7,18.1,9.7,17.3c2.9-0.1,5.8-2.7,8.3-7.6c3.1-5.9,5.8-13.6,8.1-22.6
			L174.3,226.5L174.3,226.5z M174.3,367v-34.6c-1.7,11.8-4.4,21.8-7.6,29.1c-3.2,6.7-7,10-10.7,9.8c-6.8,0-12-8.3-15.8-25
			c-3.7-16.7-5.6-38.6-5.6-65.7c0-29.2,2.1-53.6,6.3-73c3.9-18.9,10.4-29.9,17.2-29.2c2.1,0,4.1,0.8,6.1,2.5c1.8,1.5,3.6,4,5.2,7.2
			c1.9,4.3,3.6,9.4,5,15.4V99h10v268L174.3,367L174.3,367z"/>
	</defs>
	<use xlink:href="#SVGID_9_"  style="overflow:visible;fill:#FFFFFF;"/>
	<clipPath id="SVGID_10_">
		<use xlink:href="#SVGID_9_"  style="overflow:visible;"/>
	</clipPath>
	<g class="st5">
		<rect x="127.7" y="76.4" class="st1" width="63.4" height="317.5"/>
	</g>
</g>
<g>
	<defs>
		<path id="SVGID_11_" d="M260,360.6v-30.8c6.6,10.8,12.3,16.3,17.1,16.3c2.6,0.3,5.1-2.5,7.2-7.8c1.8-4.6,2.9-11.9,2.8-19.5
			c0-5.1-0.5-10.1-1.4-14.3c-0.9-4.6-3.1-9.3-6.6-14.1l-5.9-8.3c-3.8-4.5-7.2-12-9.9-21.7c-2.1-8.5-3.2-19.2-3.1-30.2
			c-0.1-14.1,1.7-27.7,4.9-37c3.2-9.9,8-14.8,14.3-14.8c3.9,0.3,7.7,1.7,11.5,4.2l2.1,1.4V212c-4.3-4.9-8.9-7.8-13.4-8.5
			c-2.6-0.7-5.2,1.8-7.3,7c-1.5,4-2.4,10.1-2.4,16.5c0,5.1,0.6,9.9,1.6,13.6c1.6,5.4,3.6,9.5,5.7,12.2l4.8,6.8
			c6.5,9,10.6,18.1,12.4,27.1c1.8,8.6,2.7,18.8,2.7,29.2c0,9.9-0.8,19.7-2.5,28c-1.8,9-4.3,16-7.3,20.2c-3.4,5-7,7.5-10.7,7.3
			C271,370.6,265.4,367,260,360.6z"/>
	</defs>
	<use xlink:href="#SVGID_11_"  style="overflow:visible;fill:#FFFFFF;"/>
	<clipPath id="SVGID_12_">
		<use xlink:href="#SVGID_11_"  style="overflow:visible;"/>
	</clipPath>
	<g class="st6">
		<rect x="253.3" y="155.7" class="st1" width="50.7" height="238.3"/>
	</g>
</g>
</svg>
