<?xml version="1.0" encoding="utf-8"?>
<!-- Generator: Adobe Illustrator 19.1.0, SVG Export Plug-In . SVG Version: 6.00 Build 0)  -->
<svg version="1.1" id="Layer_1" xmlns="http://www.w3.org/2000/svg" xmlns:xlink="http://www.w3.org/1999/xlink" x="0px" y="0px"
	 viewBox="0 0 361 381" style="enable-background:new 0 0 361 381;" xml:space="preserve">
<style type="text/css">
	.st0{fill:#FFFFFF;}
</style>
<g>
	<path class="st0" d="M11,369V98.1h9.5v37.3c4.6-27.8,10.3-41.7,17.1-41.7c5.9,0,10.6,8.7,14,26.1s5.1,41.1,5.1,71.1
		c0,32.9-2,59.6-6.1,79.9c-4,20.4-9.3,30.5-15.9,30.5c-5.6,0-10.4-9-14.3-27.1V369H11z M20.5,247.2c4.4,18,8.7,27.1,13,27.1
		c4.2,0,7.4-7,9.7-20.9c2.3-14,3.4-33.5,3.4-58.6c0-46.8-3.7-70.2-11-70.2c-5.4,0-10.4,12.7-15.1,38V247.2z"/>
	<path class="st0" d="M101.9,272.8c-5.7,18.3-11.5,27.4-17.2,27.4c-4.8,0-8.7-5.2-11.8-15.5c-3.1-10.4-4.6-23.5-4.6-39.3
		c0-20.6,2.4-37.2,7.2-49.7c4.8-12.6,11.2-18.8,19.1-18.8h5.9v-17c0-14-0.8-24-2.5-30c-1.6-6-4.3-9-8.1-9c-5.5,0-11.2,5.9-17,17.6
		v-30.9c6.7-9.1,13-13.7,18.9-13.7c6.6,0,11.3,5,14.1,15c2.7,10,4.1,27.3,4.1,51.8v83.2c0,12,0.3,20.1,1,24.4
		c0.7,4.3,1.9,6.5,3.8,6.5c0.6,0,1.6-0.6,3-1.8l0.9,21.6c-3.2,3.9-5.6,5.9-7.2,5.9C106.7,300.2,103.6,291.1,101.9,272.8z
		 M100.4,249.4v-50.1h-2.8c-13,0-19.5,13.4-19.5,40.1c0,9.6,0.8,17.4,2.5,23.2c1.7,5.9,3.9,8.8,6.6,8.8
		C91.4,271.3,95.8,264,100.4,249.4z"/>
	<path class="st0" d="M129.9,296.8V98.1h9.5v37.3c4.4-27.8,10.3-41.7,17.8-41.7c9.9,0,14.9,22.4,14.9,67.1v135.9h-9.5v-126
		c0-15.5-0.6-26.5-1.9-33c-1.3-6.5-3.4-9.8-6.4-9.8c-4.7,0-9.7,13-14.9,39v129.8H129.9z"/>
	<path class="st0" d="M222.8,296.8v-37.3c-4.6,27.9-10.3,41.9-17.1,41.9c-5.9,0-10.6-8.7-14-26.2c-3.4-17.4-5.1-41.1-5.1-71.1
		c0-32.9,2-59.5,6.1-79.8s9.3-30.5,15.9-30.5c5.6,0,10.4,9,14.3,27.1V8h9.5v288.8H222.8z M222.8,147.9c-4.4-18-8.8-27.1-13-27.1
		c-4.2,0-7.4,7-9.7,20.9c-2.3,13.9-3.4,33.5-3.4,58.8c0,46.8,3.7,70.1,11,70.1c5.4,0,10.4-12.7,15.1-38.2V147.9z"/>
	<path class="st0" d="M280,272.8c-5.7,18.3-11.5,27.4-17.2,27.4c-4.8,0-8.7-5.2-11.8-15.5c-3.1-10.4-4.6-23.5-4.6-39.3
		c0-20.6,2.4-37.2,7.2-49.7c4.8-12.6,11.2-18.8,19.1-18.8h5.9v-17c0-14-0.8-24-2.5-30c-1.6-6-4.3-9-8.1-9c-5.5,0-11.2,5.9-17,17.6
		v-30.9c6.7-9.1,13-13.7,18.9-13.7c6.6,0,11.3,5,14.1,15c2.7,10,4.1,27.3,4.1,51.8v83.2c0,12,0.3,20.1,1,24.4
		c0.7,4.3,1.9,6.5,3.8,6.5c0.6,0,1.6-0.6,3-1.8l0.9,21.6c-3.2,3.9-5.6,5.9-7.2,5.9C284.8,300.2,281.7,291.1,280,272.8z M278.6,249.4
		v-50.1h-2.8c-13,0-19.5,13.4-19.5,40.1c0,9.6,0.8,17.4,2.5,23.2c1.7,5.9,3.9,8.8,6.6,8.8C269.5,271.3,273.9,264,278.6,249.4z"/>
	<path class="st0" d="M308.2,288.7v-32.6c7.3,12.1,13.7,18.1,19.1,18.1c3.8,0,7-3,9.6-8.9c2.5-5.9,3.8-13.4,3.8-22.4
		c0-11.6-3-21-9-28.3L321.5,202c-7.9-9.8-11.9-26.9-11.9-51.6c0-18,1.8-32,5.4-41.9c3.6-9.9,8.6-14.8,15.2-14.8
		c4.9,0,10.6,2.9,17.1,8.6v29.3c-6.3-7.2-12-10.8-17.1-10.8c-3.5,0-6.2,2.4-8.3,7.1c-2.1,4.8-3.1,11.2-3.1,19.2
		c0,9.9,2.4,17.9,7.1,24.1l12,15.9c4.4,5.9,7.5,12.8,9.4,20.9c1.9,8.1,2.9,18.6,2.9,31.5c0,18.8-2,33.7-6.1,44.9
		c-4.1,11.2-9.5,16.7-16.4,16.7C321.5,301.3,315.1,297.1,308.2,288.7z"/>
</g>
</svg>
