<?xml version="1.0" encoding="utf-8"?>
<!-- Generator: Adobe Illustrator 19.1.0, SVG Export Plug-In . SVG Version: 6.00 Build 0)  -->
<svg version="1.1"
	 id="svg2169" xmlns:dc="http://purl.org/dc/elements/1.1/" xmlns:cc="http://web.resource.org/cc/" xmlns:rdf="http://www.w3.org/1999/02/22-rdf-syntax-ns#" xmlns:inkscape="http://www.inkscape.org/namespaces/inkscape" xmlns:svg="http://www.w3.org/2000/svg" xmlns:sodipodi="http://sodipodi.sourceforge.net/DTD/sodipodi-0.dtd" sodipodi:docname="dessin-1.svg" sodipodi:docbase="/home/bene/Desktop" inkscape:output_extension="org.inkscape.output.svg.inkscape" sodipodi:version="0.32" inkscape:version="0.45.1"
	 xmlns="http://www.w3.org/2000/svg" xmlns:xlink="http://www.w3.org/1999/xlink" x="0px" y="0px" viewBox="-507 71.2 367.4 380.8"
	 style="enable-background:new -507 71.2 367.4 380.8;" xml:space="preserve">
<style type="text/css">
	.st0{fill:#FFFFFF;}
</style>
<sodipodi:namedview  width="131.10236px" height="184.25197px" bordercolor="#666666" inkscape:cx="-260.46312" inkscape:zoom="0.24748737" borderopacity="1.0" id="base" pagecolor="#ffffff" inkscape:cy="316.02744" inkscape:window-width="872" inkscape:current-layer="layer1" inkscape:pageshadow="2" inkscape:pageopacity="0.0" inkscape:document-units="px" inkscape:window-y="48" inkscape:window-x="5" inkscape:window-height="624">
	</sodipodi:namedview>
<g id="layer1" transform="translate(-473.36088,-251.72485)" inkscape:label="Calque 1" inkscape:groupmode="layer">
	<g id="g1894" transform="translate(428.42338,184.2561)">
		<path id="path8615" class="st0" d="M-279.7,138.6c-93.3,0-87.4,42.1-87.4,42.1l0.1,43.7h89v13.1h-124.4c0,0-59.7-7.1-59.7,91
			s52.1,94.6,52.1,94.6h31.1v-45.5c0,0-1.7-54.3,51.3-54.3s88.3,0,88.3,0s49.6,0.8,49.6-49.9s0-84,0-84S-182.2,138.6-279.7,138.6z
			 M-328.8,168c8.9,0,16,7.5,16,16.7c0,9.2-7.2,16.7-16,16.7c-8.9,0-16-7.5-16-16.7C-344.8,175.4-337.6,168-328.8,168z"/>
		<path id="path8620" class="st0" d="M-277,519.5c93.3,0,87.4-42.1,87.4-42.1l-0.1-43.7h-89v-13.1h124.4c0,0,59.7,7.1,59.7-91
			c0-98.1-52.1-94.6-52.1-94.6h-31.1v45.5c0,0,1.7,54.3-51.3,54.3s-88.3,0-88.3,0s-49.6-0.8-49.6,49.9s0,84,0,84
			S-374.5,519.5-277,519.5z M-227.9,490.1c-8.9,0-16-7.5-16-16.7s7.2-16.7,16-16.7s16,7.5,16,16.7
			C-211.9,482.6-219.1,490.1-227.9,490.1z"/>
	</g>
</g>
</svg>
