<?xml version="1.0" encoding="utf-8"?>
<!-- Generator: Adobe Illustrator 19.1.0, SVG Export Plug-In . SVG Version: 6.00 Build 0)  -->
<svg version="1.1" id="Layer_1" xmlns="http://www.w3.org/2000/svg" xmlns:xlink="http://www.w3.org/1999/xlink" x="0px" y="0px"
	 viewBox="408 294 370 381.1" style="enable-background:new 408 294 370 381.1;" xml:space="preserve">
<style type="text/css">
	.st0{fill:#FFFFFF;}
</style>
<path class="st0" d="M593,625c-102.2,0-185-74.1-185-165.5c0-91.4,82.8-165.5,185-165.5c102.2,0,185,74.1,185,165.5
	C778,550.9,695.2,625,593,625z M621.3,358.7c-77.7,0-140.6,50.6-140.6,113.1s63,113.1,140.6,113.1c77.7,0,135-34.6,135-113.1
	C756.3,393.3,699,358.7,621.3,358.7z"/>
<path class="st0" d="M689.7,550.3c0,0,11.2,4.5,17.7,8.9c2.3,1.5,6.2,4.6,9,8.6c2.8,3.9,4.1,7.9,4.1,7.9l44.1,99.4l-71.3,0
	L660,591.4c0,0-6.8-15.7-11-20.2c-3.5-3.8-5-5.1-8.5-5.1c-2.4,0-16.9,0-16.9,0l0,108.9l-63.1,0V396.8h126.7c0,0,57.7,1.4,57.7,74.7
	S689.7,550.3,689.7,550.3z M662.3,457.1l-38.2,0l0,47.3l38.2,0c0,0,17.7-0.1,17.7-24.1C680,455.8,662.3,457.1,662.3,457.1z"/>
</svg>
