<?xml version="1.0" encoding="utf-8"?>
<!-- Generator: Adobe Illustrator 19.1.0, SVG Export Plug-In . SVG Version: 6.00 Build 0)  -->
<svg version="1.1" id="svg2320" xmlns:svg="http://www.w3.org/2000/svg"
	 xmlns="http://www.w3.org/2000/svg" xmlns:xlink="http://www.w3.org/1999/xlink" x="0px" y="0px" viewBox="856 222 373.5 385"
	 style="enable-background:new 856 222 373.5 385;" xml:space="preserve">
<style type="text/css">
	.st0{fill:#FFFFFF;}
</style>
<g id="layer1" transform="translate(-310.37551,-505.82825)">
	<path id="path2440" class="st0" d="M1219.8,727.8c-5.3-0.3-10.7,1.3-16.3,4.8c-25.9,16.2-54.8,99.8-23.2,196.1l18.9,57.4l5.3,16.3
		c3.6,10.7,9.4,10.5,13.7,1.6c4.3-8.9,5.5-23.6,2-34.5c0,0-1.5-4.6-2.2-6.6h0.1c-1.4-4.1-1.7-4.8-3.1-9.1
		c-6.8-20.6-14.6-44.4-14.6-44.4c-13.7-41.8-7.6-93.5,11-122.9c16.4-25.9,46.5-16.6,56.9,25.8C1261.7,764,1242.7,729.1,1219.8,727.8
		z M1223.6,828.9c-2.4-0.2-5,2.1-7.1,6.6c-4.3,9-5.5,23.6-2,34.5c0,0,0.4,1.4,1.2,3.6c8.2,24.7,19.1,57.8,19.1,57.8
		c13.7,41.8,7.6,93.3-11,122.7c-16.4,25.9-46.5,16.6-56.9-25.8c8,59.6,35,98.5,64.8,79.8c25.9-16.3,54.8-99.6,23.2-195.9l-22.1-67.1
		l-2.5-7.9C1228.4,831.8,1226,829.1,1223.6,828.9z"/>
	<path id="path2448" class="st0" d="M1321.1,773.6c-16.4,0-35.1,21.2-35.1,72.3c0,48.7,15.4,62.3,30.7,71.6
		c15.5,9.3,30.8,14.7,30.8,47.2c0,31.9-13.1,37.9-22.8,37.9c-12.7,0-24.7-11.6-25.3-49H1284c0.9,62.9,18.7,85.9,39.8,85.9
		c19.1,0,40.1-19.6,40.1-80c0-49.1-15.3-63-30.8-72.3c-14.4-9.3-30.8-14.2-30.8-44.2c0-25.6,10.8-32.4,20-32.4
		c10.2,0,20.8,10.2,21.9,42.6h15.4C1358.4,791.3,1341.8,773.6,1321.1,773.6z M1410.3,773.6c-20.9,0-39,22.1-39.9,85h15.4
		c0.7-37.3,10.4-48.1,23.5-48.1c9.8,0,20.9,5.8,20.9,42.2c0,31.4-14.5,28.6-31.6,37.4c-16,8.4-31.9,20.7-31.9,78.2
		c0,50.6,14,71.2,31.2,71.2c13.1,0,24.5-12.4,33-39.4c0,27.5,5.2,39.4,13.2,39.4c4.9,0,8.3-2.6,11-7v-32.4c-2,2-3.4,2.5-4.7,2.5
		c-4.9,0-4.9-8.7-4.9-28.3V843.4C1445.6,784,1427.2,773.6,1410.3,773.6z M1491.2,773.6c-16.4,0-35.1,21.2-35.1,72.3
		c0,48.7,15.5,62.3,30.8,71.6c15.5,9.3,30.8,14.7,30.8,47.2c0,31.9-13.1,37.9-22.8,37.9c-12.7,0-24.7-11.6-25.3-49h-15.5
		c0.9,62.9,18.8,85.9,39.9,85.9c19.1,0,40-19.6,40-80c0-49.1-15.3-63-30.8-72.3c-14.4-9.3-30.7-14.2-30.7-44.2
		c0-25.6,10.7-32.4,20-32.4c10.2,0,20.7,10.2,21.9,42.6h15.5C1528.6,791.3,1511.9,773.6,1491.2,773.6z M1430.1,902.4v42.8
		c0,23.1-8.3,57.4-28.7,57.4c-9.5,0-18.2-9.9-18.2-37.4c0-31,8.8-40.7,19-45.6C1412.4,914.7,1424,914.2,1430.1,902.4z
		 M1276.8,1013.7c-3.3,0-6,6.4-6,15c0,8.6,2.8,15,6,15c3.2,0,6-6.3,6-15C1282.8,1020.1,1280.1,1013.7,1276.8,1013.7z M1533.8,1013.7
		c-3.3,0-6,6.4-6,15c0,8.6,2.8,15,6,15c3.2,0,6-6.3,6-15C1539.8,1020.1,1537,1013.7,1533.8,1013.7z M1276.8,1016.2
		c2.7,0,4.8,5.4,4.8,12.5c0,7.2-2.1,12.5-4.8,12.5c-2.7,0-4.9-5.3-4.9-12.5C1272,1021.6,1274.1,1016.2,1276.8,1016.2z
		 M1533.8,1016.2c2.7,0,4.9,5.4,4.9,12.5c0,7.2-2.2,12.5-4.9,12.5c-2.7,0-4.8-5.3-4.8-12.5C1529,1021.6,1531.1,1016.2,1533.8,1016.2
		z M1274.5,1020.1v17.2h1.1v-7.5h1.2l1.8,7.5h1.2l-2-7.7c1-0.3,1.8-1.4,1.8-4.5c0-3.4-0.8-5-2.4-5H1274.5z M1531.5,1020.1v17.2h1
		v-7.5h1.3l1.8,7.5h1.2l-2-7.7c1-0.3,1.8-1.4,1.8-4.5c0-3.4-0.8-5-2.4-5H1531.5z M1275.6,1022.3h1.4c0.7,0,1.4,0.4,1.4,2.5
		c0,2.6-0.7,2.7-1.6,2.7h-1.3V1022.3z M1532.5,1022.3h1.4c0.7,0,1.5,0.3,1.5,2.5c0,2.6-0.8,2.7-1.7,2.7h-1.3V1022.3z"/>
</g>
</svg>
