<?xml version="1.0" encoding="utf-8"?>
<!-- Generator: Adobe Illustrator 19.1.0, SVG Export Plug-In . SVG Version: 6.00 Build 0)  -->
<svg version="1.1" id="Layer_1" xmlns="http://www.w3.org/2000/svg" xmlns:xlink="http://www.w3.org/1999/xlink" x="0px" y="0px"
	 viewBox="0 0 358.8 379.1" style="enable-background:new 0 0 358.8 379.1;" xml:space="preserve">
<style type="text/css">
	.st0{fill:#FFFFFF;}
</style>
<g>
	<path class="st0" d="M234,237.3c0,0,0.1,0,0.1-0.1c0-0.1-0.1-0.2-0.1-0.3C234,237.1,234,237.2,234,237.3z"/>
	<polygon class="st0" points="240.5,255.5 240.5,255.5 240.5,255.5 	"/>
	<path class="st0" d="M168,319.5c-0.2,0.5-0.3,1-0.5,1.6c0.2,0.1,0.4,0.3,0.6,0.5C168.1,320.9,168,320.3,168,319.5z"/>
	<path class="st0" d="M184.3,36c5-1.5,0.8-19.8,5.4-21.5c0.9-0.3,2,0,2.2,2.7c0.5,7.9-0.4,17.5,3.9,20.3c0.1,0.1,0.1,5.6-0.3,6.5
		c-6.9,12.9-1.6,31.5-3,46.9c-0.2,2.2,0.5,4.5,1.6,4.7c2.1,0.3,2.2,4,1.8,8.1c-0.5,4.6-2,2.8-3.1,3.3c-3.6,0.1-5.2-5.6-5.3-14.5
		c-0.1-11.1,0.1-22.2-0.1-33.2c-0.1-5.9,1.4-13.9-2.6-16C183.8,42.8,183.9,36.2,184.3,36z M180,99c0,4.4-0.4,7.3-2.4,7.2
		c-2-0.1-2.2-3.4-2.2-7.6c0-18.7,0-37.3,0-56c0-4,0-7.6,2.1-7.8c2.3-0.3,2.5,3.5,2.5,8.2c0,9.6,0,19.2,0,28.7
		C180,80.8,180,89.9,180,99z M177.9,7.1c2,0.3,2.1,3.8,2.1,7.8c0.1,5-0.5,8.2-2.6,7.9c-2-0.3-2.1-3.8-2.1-7.8
		C175.3,10,175.8,6.8,177.9,7.1z M152,7.4c1.9-0.2,2.5,2.3,2.5,7c0,14.9,0,29.8,0,46.4c6.2-7,8.1-30.1,16.3-25.3
		c-1.4,7.7-3.8,12.2-5.9,16.8c-2.7,5.8-3.2,11-1,19c2.9,10.6,5.4,22.2,8.2,33.9c-4.2,4.8-6.4,0.6-8.1-8.2
		c-1.1-5.9-2.5-11.6-3.9-17.1c-0.7-2.7-1-8.6-2.9-6c-1.3,1.8-2.7,4.7-2.7,9.9c0,5.8,0,11.5,0,17.3c0,4.1-0.7,5.9-2.3,5.9
		c-1.7,0-2.1-2.4-2.1-6.3c0-28.8,0-57.6,0-86.4C150,10.5,150.2,7.6,152,7.4z M141.5,106.2c-2,0-2.3-3-2.3-7.4c0-19.2,0-38.3,0-57.5
		c0-4.9,0.8-6.8,2.5-6.6c1.7,0.2,2,2.7,2,6.5c0,10.1,0,20.1,0,30.2c0,9.1,0,18.2,0,27.3C143.8,103,143.5,106.2,141.5,106.2z
		 M141.5,7.1c2.3,0,2.4,3.9,2.4,8.5c0.1,4.4-0.5,7.2-2.3,7.2c-2.3,0-2.4-3.9-2.4-8.5C139.1,9.9,139.6,7.1,141.5,7.1z M111.9,65
		c1.1-22.7,5.3-33.7,12.5-33.2c4.7,0.1,8.3,4.7,9.8,17.7c0.3,2.7,1.5,6.9-0.3,8.5c-1.4,1.3-3.3,2.6-4.1-3.1
		c-1.3-10.2-4-13.3-7.5-10.7c-3.8,2.8-4.8,12-5.2,21.3c-0.3,5.7-0.2,11.4,0.6,17c1,6.6,2.2,12.2,5,13.1c3,1,5.4-2,6.4-9.6
		c1-6.9,2.8-9.8,4.8-6.3c1.8,3.1,0.1,8.7-0.6,12.6c-2,11.2-8,17.4-12.8,13.8C114.7,101.9,111,84.3,111.9,65z M88.8,83.2
		c1.7-2.4,2.9,0.1,3.7,5c2,11.9,5.6,11.2,9.4,7.6c1.7-1.6,2.7-4.5,2.6-9.5c-0.1-4.4-1.2-6.7-2.7-7.8c-2.9-2.1-5.8-4-8.6-6.7
		c-2.5-2.5-4.8-6.1-5-14.9c-0.2-9,0.9-15.9,3.7-20.8c4.6-8,12.7-5.1,15.5,5.8c1,4,2.3,8.9,0.3,12.5c-1.3,2.4-2.9,0.9-3.9-4
		c-1.5-7.7-4.4-6.9-7.1-6.7c-1.8,0.1-3.2,1.8-3.4,7.1c-0.2,5,0.8,8.4,2.4,9.8c2.4,1.9,4.8,3.3,7.2,4.9c4.1,2.8,7.3,7.5,6.7,21.4
		c-0.5,12.1-3.5,19.6-8.6,20.9c-0.7,0.2-1.4,0.2-2.1,0.3c-4.3,0.5-8.2-2-10.3-13.4C88,91.2,86.8,86.1,88.8,83.2z"/>
	<path class="st0" d="M355.2,297c-4.7,13.8-8.8,27-14.1,36.6c-2.3,4.2-4.8,8.2-7.3,3.8c-2.7-4.6-2.1-12.4-1.1-19.5
		c2.1-16.2,4.2-32.5,6.3-48.8c2.5-19.9,5.5-39.6,5-61.3c-0.4-20.7-6.2-31.7-13.6-26.5c-7.1,5-12.5,17.5-17.7,30.6
		c-4.5,11.4-8.8,23.6-13.8,37.2c2-25.1,5.2-46.3,8-69.6c-6.7,3.4-12.9,6.5-19.1,9.6c-1.2,0.6-1.8,3-2.3,5.5
		c-4.8,24.3-9.8,48.9-10.7,76.5c-0.9,28.4-8.4,41.6-15.2,56.9c-1.9,4.3-4.6,5.6-7,1.7c-2.9-4.5-3.4-12.5-3.1-20.1
		c0.3-9,1.1-18,2.2-26.6c3.9-30.8,8.1-61.2,12-92c0.4-3.2,2.9-8.3-0.1-11.8c0,0,0,0,0,0c-4.9,4.9-7.8,15-10.6,26.3
		c-3.5,13.9-8,25.8-14,32.1c-1.5,1.6-3.1,3.3-4.5,0.1c-0.1-0.2-0.1-0.3-0.2-0.5c0,0-0.1,0-0.1,0.1c0-0.1,0-0.2,0-0.3
		c-1.1-3.2-0.7-7.4-0.4-11.3c0.7-7,1.6-13.8,1.9-21c0.8-16-2.6-24.1-8.2-20c-9.8,7.1-15,49.8-8.4,70.4c2,6.3,2.1,11.4,0.5,18
		c-5.6,24.1-13.8,41.3-21.8,58.6c-5,10.8-10.2,2.3-10.6-15.2c-0.7-25.7,3-49.1,5.4-73.1c1.6-16.2,3.6-32.2,5.3-48.4
		c0.3-3.1,1.2-6.8,0.2-9.4c-1.3-3-2.7-0.3-3.9,1.5c-3.2,5-6.6,9.5-9.9,14.2c-3.1,4.3-5.6,4.4-8-3.5c-5.4-17.5-12.4-17.7-19.4-10.4
		c-17,17.7-28.1,50.6-33.1,98.5c-2.9,28.3-17.3,57.7-27.9,56.5c-7.7-0.9-14.6-17.2-16.3-37.4c-0.7-8.9,0.9-12.3,3.5-14.7
		c5.6-5.1,11-10.8,16.2-17.9c4.3-5.9,8.1-13.9,11.3-23.6c4.2-12.5,5.6-27,3.4-42.7c-2.3-16-7.7-21.2-13.3-21.8
		c-7.9-0.8-14.9,6.9-21,20.9c-7.1,16.5-13.2,35.8-15.6,60.7c-3,30.2-9.4,52-18.9,68.3c-2.3,3.9-4.5,7.5-7.1,9.4
		c-4.9,3.6-8.7-0.5-11.4-12.2c-5.4-23.6-3.9-60.7,2.8-81.8c12.4-39,23-80.7,26.2-133.2c0.9-14.8,0.9-29.8,0.3-44.6
		c-0.6-15.4-3-19-8.3-13.8c-1.3,1.3-2.6,3.5-4,4.1c-11.2,4.9-16.5,25.8-20.4,52.3C14.9,169.4,7.6,225.5,5,285.3
		c-0.7,16.8-0.8,33.5,0.9,50.1c3.3,30.7,12.5,44.7,23.9,35.9c8-6.3,14.7-18.7,21-33.2c1.2-2.8,2.3-6,3.6-8.6
		c4.1-8.4,5.2-7.9,8.1,3.4c1.4,5.5,2.5,11.7,4,17.1c8.7,31.2,24.1,30.2,36.7,11c5.1-7.8,9.6-17.9,14-28.7c3.4-8.7,4.6-7.7,6.6,3.6
		c0.4,2.2,0.7,4.4,1,6.6c6.1,36,17.3,42.3,28.3,15.6c3.8-9.3,7.5-19.2,10.6-30.3c1-3.5,2.2-7.3,3.9-6.6c0,0,0,0,0,0
		c0.2-0.5,0.3-1,0.5-1.6c0,0.7,0.1,1.4,0.1,2.1c1.3,1.7,1.3,6.4,1.6,10c0.7,7.4,0.9,15.2,2,22.4c2.6,17.7,8.1,24.1,14.6,17.1
		c3.2-3.4,6-8.4,8.6-14.2c11.3-25.1,22-51.5,30.1-84.9c3.1-12.7,8-15.1,12.8-18.5c1.4-1,2.4-0.2,2.7,2c0,0,0,0,0,0c0,0,0,0,0,0
		c0.2,1.4,0.2,3.4-0.1,6c-0.5,4.7-1.5,8.7-2.4,12.8c-3,14.3-5.4,29.2-6.8,45.2c-0.4,4.7-0.6,9.6-2.5,12c0.2,5.3,0.2,10.6,0.6,15.7
		c2.1,26.1,9,36.2,18.2,27c5.7-5.7,10.5-15.4,15.2-25.7c2.9-6.4,5.8-13.2,9.2-20.9c0.2,8,0.4,13.6,0.5,19.3
		c0.2,31.5,0.2,31.5,11.6,25.7c8.6-4.4,8.6-4.4,9-28.2c0.1-7.7,0.5-15.3,0.7-23c0.9-44.2,12.5-68.8,23.5-94.6c1-2.3,2.5-2.7,3.5-1
		c1.3,2,0.9,6.3,0.6,9.2c-1.2,10-2.5,19.9-3.9,29.8c-3,22-6.4,43.7-7,67.5c-0.9,35.8,7.4,52.7,20,41.1c7.9-7.3,13.8-22.4,20.3-36
		C355.8,326.6,356.5,314.2,355.2,297z M43.4,93.1c1.1-6.2,2.1-16.3,5-14.2c3.1,2.2,2.8,12.5,2.5,20c-1.6,44.4-8.8,82.3-18.4,117.6
		c-1.1,4.1-2.4,8-3.6,11.9C32.1,181.3,35.7,135.5,43.4,93.1z M79.6,263.1c0.5-20.2,3-38.2,7.9-53.6c2.3-7.2,5.2-12.7,8.8-8.8
		c3.8,4.1,3.8,14.1,3.7,23.3c-0.4,25.1-7,43.6-19.1,54.2c0,0,0,0,0,0C78.2,277.5,78.1,276.3,79.6,263.1z M160.2,320
		c-2,6.8-4.6,11.7-7.9,13.4c-4.3,2.2-7.2-2.2-8.8-13.1c-1.7-11.4-0.8-22.7,0.1-34c2.2-28.7,6.3-54.9,13.9-76.2c3-8.3,6.7-13.8,11-9
		c4.4,5,4.8,16.7,5.1,26.7C172.2,262.8,167.9,293.3,160.2,320z"/>
	<path class="st0" d="M234.8,183.2c-2.8-5.9-6.1-4.7-9.1-1.3c-8.1,9.1-10.3,28.8-11.7,49.6c-0.7,10.7,0.6,20.4,4.1,26.2
		c2.2,3.7,2.3,6.3,0.9,12.1c-5.8,22.9-13.9,39.6-21.3,58.1c-1.8,4.6-4.4,7-6.9,3.9c-2.7-3.4-2.7-10.6-2.7-17.4c0-19,2.1-36.9,4-54.9
		c2.8-26.4,5.8-52.5,8.7-78.9c-3.1-2.2-5.4-0.6-7.7,3c-3.7,5.8-7.5,11-11.1,16.8c-1.6,2.6-2.6,2.7-4-1.7
		c-6.4-20.8-12.6-25.3-22.1-15.1c-16.4,17.6-28.2,48.9-32.8,95.2c-2.9,29.2-10.5,43.6-19,55.7c-9.1,13-18.8,0.7-22.7-24.5
		c-1.7-10.7-1.3-15.5,3.3-18.4c5.7-3.6,11-10.5,16.1-18c4.7-6.9,9.1-15.1,12.3-27c7.3-27,3-58.6-9-65.3c-9.7-5.4-18,4.3-25.6,20.4
		c-9.5,20.4-15.2,48.3-18.6,78.4c-3.6,32.5-12.8,46.2-22.6,59.2c-3.4,4.4-6.6,1-9-6.8c-5.2-16.8-4.7-60.3,0.6-76.7
		c12-37.1,22.6-76.4,26.9-125.6c1.8-19.8,2.3-39.9,1.5-60.1c-0.7-18.8-3.5-23-9.9-16.6c-4.8,4.8-9.6,10.1-14.4,14.4
		c-2.7,2.4-4.3,6.9-5.6,13.9c-7.5,40.4-13.4,82.4-18,125.9c-3.6,34.3-6.4,68.9-6.2,104.7c0.3,54.5,15.2,79.9,33.3,56.3
		c2.7-3.5,5.3-7.8,7.7-12.7c5-10,9.8-20.6,14.8-31.5c1.2,5.9,2.5,11.7,3.7,17.7c3.8,18.9,9.3,30.9,17.3,34.3
		c9.8,4.2,18.7-2,26.6-17.3c5-9.6,9.6-20.4,14.5-31c0.4,2.6,0.8,4.7,1.1,7c5.3,46,18.6,56.3,32.2,25c1.9-4.3,3.6-9.2,5.3-14.2
		c2.5-7.6,5-15.6,7.8-24.8c0,0,0,0,0,0c-1.7-0.8-2.9,3.1-3.9,6.6c-3.2,11.1-6.8,21-10.6,30.3c-11,26.8-22.2,20.5-28.3-15.6
		c-0.4-2.2-0.7-4.5-1-6.6c-2-11.3-3.2-12.3-6.6-3.6c-4.3,10.8-8.9,20.9-14,28.7c-12.5,19.2-28,20.1-36.7-11
		c-1.5-5.4-2.6-11.5-4-17.1c-2.9-11.3-3.9-11.8-8.1-3.4c-1.3,2.6-2.4,5.8-3.6,8.6c-6.2,14.5-13,27-21,33.2
		c-11.4,8.9-20.6-5.1-23.9-35.9c-1.8-16.5-1.7-33.2-0.9-50.1c2.6-59.8,9.9-115.9,18.2-171.5c3.9-26.5,9.2-47.3,20.4-52.3
		c1.4-0.6,2.6-2.8,4-4.1c5.3-5.2,7.8-1.6,8.3,13.8c0.5,14.8,0.6,29.8-0.3,44.6c-3.2,52.4-13.8,94.2-26.2,133.2
		c-6.7,21.1-8.2,58.1-2.8,81.8c2.7,11.7,6.4,15.8,11.4,12.2c2.6-1.9,4.9-5.5,7.1-9.4c9.5-16.3,16-38.1,18.9-68.3
		c2.4-24.9,8.5-44.1,15.6-60.7c6-14,13.1-21.7,21-20.9c5.7,0.6,11.1,5.8,13.3,21.8c2.3,15.7,0.8,30.2-3.4,42.7
		c-3.2,9.8-7,17.7-11.3,23.6c-5.2,7.2-10.7,12.9-16.2,17.9c-2.6,2.4-4.3,5.9-3.5,14.7c1.7,20.3,8.6,36.5,16.3,37.4
		c10.6,1.2,25-28.2,27.9-56.5c4.9-47.8,16.1-80.8,33.1-98.5c7-7.3,14.1-7.1,19.4,10.4c2.4,7.9,4.9,7.8,8,3.5
		c3.3-4.6,6.6-9.2,9.9-14.2c1.2-1.8,2.7-4.5,3.9-1.5c1.1,2.6,0.2,6.4-0.2,9.4c-1.7,16.2-3.7,32.2-5.3,48.4
		c-2.4,24-6.1,47.4-5.4,73.1c0.5,17.5,5.7,26,10.6,15.2c8-17.3,16.2-34.5,21.8-58.6c1.5-6.6,1.5-11.7-0.5-18
		c-6.6-20.6-1.4-63.3,8.4-70.4c5.6-4.1,9,4,8.2,20c-0.3,7.2-1.3,14-1.9,21c-0.4,3.9-0.7,8.1,0.4,11.3c1-10.9,1.9-20.4,2.7-30
		C237.5,198.2,237.6,189.3,234.8,183.2z"/>
	<path class="st0" d="M253.6,196.3c-1.4,7.5-3.7,14-5.9,20.3c-3.6,10.5-7.7,18.7-13.6,20.6c0.1,0.2,0.1,0.3,0.2,0.5
		c1.4,3.2,3,1.5,4.5-0.1c6-6.3,10.6-18.1,14-32.1c2.8-11.4,5.7-21.5,10.6-26.3C258.7,178.6,255.8,184.8,253.6,196.3z"/>
	<path class="st0" d="M188.3,373.2c2.1-2.6,4.1-5.8,5.9-9.7c11-23.8,22-48.1,29.5-80.4c4.2-18.2,9.8-23.7,16.9-27.6
		c-0.4-2.3-1.3-3-2.7-2c-4.8,3.3-9.7,5.8-12.8,18.5c-8,33.4-18.8,59.8-30.1,84.9c-2.6,5.8-5.4,10.9-8.6,14.2
		c-6.6,7-12,0.6-14.6-17.1c-1.1-7.2-1.3-15-2-22.4c-0.4-3.6-0.3-8.3-1.6-10c0.4,9.5,0.7,17.4,1.2,25.1
		C171.3,374.4,178.9,385,188.3,373.2z"/>
	<path class="st0" d="M231.2,319.6c1.4-16.1,3.8-31,6.8-45.2c0.9-4.2,1.9-8.2,2.4-12.8c0.3-2.5,0.3-4.5,0.1-6
		c-5.6,24.2-9.9,48.8-11.8,76C230.6,329.2,230.8,324.2,231.2,319.6z"/>
	<path class="st0" d="M152.1,107c1.6,0,2.3-1.8,2.3-5.9c0-5.8,0.1-11.5,0-17.3c0-5.2,1.4-8.1,2.7-9.9c1.9-2.6,2.2,3.3,2.9,6
		c1.4,5.5,2.8,11.2,3.9,17.1c1.7,8.7,3.9,12.9,8.1,8.2c-2.8-11.6-5.2-23.3-8.2-33.9c-2.2-8-1.7-13.2,1-19c2.2-4.6,4.5-9.2,5.9-16.8
		c-8.2-4.8-10.1,18.3-16.3,25.3c0-16.6,0-31.5,0-46.4c0-4.6-0.6-7.2-2.5-7c-1.7,0.2-1.9,3.1-1.9,6.8c0,28.8,0,57.6,0,86.4
		C150,104.5,150.5,107,152.1,107z"/>
	<path class="st0" d="M99,107.9c0.7-0.1,1.4-0.1,2.1-0.3c5.2-1.3,8.1-8.8,8.6-20.9c0.6-13.8-2.6-18.6-6.7-21.4
		c-2.4-1.6-4.8-3-7.2-4.9c-1.7-1.4-2.7-4.8-2.4-9.8c0.2-5.3,1.6-7,3.4-7.1c2.7-0.2,5.5-1,7.1,6.7c1,5,2.6,6.4,3.9,4
		c1.9-3.6,0.7-8.5-0.3-12.5c-2.8-10.9-10.8-13.8-15.5-5.8c-2.8,4.9-3.9,11.8-3.7,20.8c0.2,8.8,2.5,12.5,5,14.9
		c2.8,2.7,5.7,4.6,8.6,6.7c1.5,1.1,2.6,3.4,2.7,7.8c0.1,5-0.9,7.9-2.6,9.5c-3.8,3.6-7.4,4.3-9.4-7.6c-0.8-4.9-2-7.3-3.7-5
		c-2,2.9-0.8,8-0.1,11.3C90.8,105.9,94.7,108.3,99,107.9z"/>
	<path class="st0" d="M120.6,106.2c4.9,3.6,10.8-2.6,12.8-13.8c0.7-3.9,2.3-9.6,0.6-12.6c-2-3.5-3.8-0.6-4.8,6.3
		c-1.1,7.6-3.4,10.6-6.4,9.6c-2.9-0.9-4.1-6.5-5-13.1c-0.8-5.6-0.9-11.4-0.6-17c0.4-9.3,1.4-18.5,5.2-21.3c3.5-2.6,6.2,0.6,7.5,10.7
		c0.7,5.6,2.7,4.4,4.1,3.1c1.8-1.7,0.6-5.8,0.3-8.5c-1.4-13-5.1-17.6-9.8-17.7c-7.2-0.6-11.4,10.4-12.5,33.2
		C111,84.3,114.7,101.9,120.6,106.2z"/>
	<path class="st0" d="M184.8,43.4c3.9,2.1,2.5,10.1,2.6,16c0.2,11,0,22.1,0.1,33.2c0.1,8.8,1.6,14.6,5.3,14.5
		c1.1-0.5,2.6,1.3,3.1-3.3c0.4-4.1,0.3-7.8-1.8-8.1c-1.1-0.2-1.8-2.4-1.6-4.7c1.5-15.4-3.9-34,3-46.9c0.5-0.9,0.4-6.4,0.3-6.5
		c-4.3-2.8-3.3-12.5-3.9-20.3c-0.2-2.7-1.3-3-2.2-2.7c-4.6,1.7-0.4,20-5.4,21.5C183.9,36.2,183.8,42.8,184.8,43.4z"/>
	<path class="st0" d="M177.5,34.7c-2.1,0.2-2.1,3.9-2.1,7.8c0,18.7,0,37.3,0,56c0,4.2,0.2,7.6,2.2,7.6c1.9,0.1,2.4-2.8,2.4-7.2
		c0-9.1,0-18.2,0-27.3c0-9.6,0-19.2,0-28.7C180,38.2,179.8,34.5,177.5,34.7z"/>
	<path class="st0" d="M143.8,41.3c0-3.8-0.4-6.4-2-6.5c-1.8-0.2-2.6,1.8-2.5,6.6c0,19.2,0,38.3,0,57.5c0,4.3,0.4,7.4,2.3,7.4
		c2,0,2.3-3.2,2.3-7.5c0-9.1,0-18.2,0-27.3C143.8,61.4,143.8,51.3,143.8,41.3z"/>
	<path class="st0" d="M141.5,22.8c1.9,0,2.4-2.8,2.3-7.2c0.1-4.6-0.1-8.6-2.4-8.5c-1.9,0-2.4,2.8-2.4,7.2
		C139.1,18.9,139.3,22.8,141.5,22.8z"/>
	<path class="st0" d="M177.4,22.8c2.1,0.3,2.7-2.9,2.6-7.9c0-4-0.1-7.5-2.1-7.8c-2.2-0.3-2.7,2.9-2.6,7.9
		C175.4,19,175.5,22.5,177.4,22.8z"/>
	<path class="st0" d="M79.6,263.1c-1.5,13.2-1.5,14.4,1.3,15.1C77.9,274.8,79.6,268.4,79.6,263.1z"/>
	<path class="st0" d="M80.9,278.1C80.9,278.1,80.9,278.1,80.9,278.1c-2.1-4-0.5-10.2-1.3-15.1C79.6,268.4,77.9,274.8,80.9,278.1z"/>
</g>
</svg>
