<?xml version="1.0" encoding="utf-8"?>
<!-- Generator: Adobe Illustrator 19.1.0, SVG Export Plug-In . SVG Version: 6.00 Build 0)  -->
<svg version="1.1" id="Layer_1" xmlns="http://www.w3.org/2000/svg" xmlns:xlink="http://www.w3.org/1999/xlink" x="0px" y="0px"
	 viewBox="0 0 361 381" style="enable-background:new 0 0 361 381;" xml:space="preserve">
<style type="text/css">
	.st0{fill:#FFFFFF;}
</style>
<g>
	<g>
		<path class="st0" d="M62.6,311.2c-7.5,17.7-14.1,30.8-19.7,39.2c-5.6,8.4-11,12.7-16.2,12.7c-5.9,0-10.6-5.9-14.3-17.6
			c-3.6-11.8-5.4-27.6-5.4-47.4c0-29.8,2.5-65.5,7.5-107.2c5-41.7,11.1-80.1,18.3-115.3l21-20c0.7-0.6,1.2-0.9,1.5-0.9
			c1.6,0,2.9,3,3.9,9c1,6,1.5,14.1,1.5,24.3c0,28.9-2.6,56.9-7.8,84c-5.2,27.1-13.3,56-24.3,86.8c-0.4,14.7-0.7,24.9-0.7,30.4
			c0,12.3,0.9,22.1,2.6,29.3c1.8,7.2,4.1,10.8,7,10.8c3,0,6.1-2.8,9.5-8.3c3.4-5.5,8.5-17,15.4-34.4V311.2z M31,228
			c7-20,12.7-42.4,17-67.3c4.4-24.8,6.5-46.2,6.5-64.1c0-5.3-0.3-9.5-0.9-12.7c-0.6-3.2-1.4-4.8-2.3-4.8c-2,0-5,13.1-8.9,39.2
			C38.5,144.5,34.7,181.1,31,228z"/>
		<path class="st0" d="M124.4,311.2c-7,17.7-13.3,30.8-18.8,39.2c-5.6,8.4-11.7,12.7-18.4,12.7c-7.5,0-13.5-6.2-18.1-18.5
			c-4.6-12.3-6.9-28.6-6.9-48.7c0-30.1,4-57.2,12.1-81.5c8.1-24.3,17.1-36.5,26.9-36.5c5.1,0,9.2,3.4,12.3,10.2
			c3.1,6.8,4.6,15.7,4.6,26.8c0,29.3-12.1,53.2-36.4,71.4c2.2,27.6,8,41.5,17.3,41.5c3.6,0,7.1-2.5,10.4-7.5c3.3-5,8.3-16.2,15-33.5
			V311.2z M81.1,271.9c14.1-10.2,21.2-29.1,21.2-56.6c0-13.6-1.9-20.4-5.8-20.4c-3.6,0-7.1,7.1-10.4,21.4
			C82.8,230.5,81.1,249,81.1,271.9z"/>
		<path class="st0" d="M212.6,311.2c-8.8,21.5-15.1,35.6-18.9,42.1c-3.8,6.5-7.4,9.8-10.9,9.8c-8.7,0-12.8-19.8-12.3-59.3
			c-5.5,20.3-10.6,35.2-15.2,44.9c-4.7,9.6-9.5,14.5-14.4,14.5c-4.8,0-9-5.8-12.4-17.5c-3.4-11.7-5.1-26-5.1-43.1
			c0-21.3,2.3-41.5,6.8-60.8c4.5-19.3,10.4-34.9,17.5-46.8c7.1-11.9,13.4-17.9,18.8-17.9c6.9,0,11.7,8.2,14.5,24.5l16.9-24h4.6
			l-7.3,62.3c-3.8,31.3-5.6,52.8-5.6,64.4c0,12.2,1.7,18.3,5,18.3c2.1,0,4.5-2.9,7.1-8.8c2.6-5.9,6.2-14.8,10.9-26.9V311.2z
			 M152.2,322.9c5.5,0,10.7-12.1,15.6-36.3c4.9-24.2,7.3-46.5,7.3-66.9c0-7.9-0.7-14.1-2.1-18.6c-1.4-4.5-3.2-6.7-5.5-6.7
			c-5.5,0-10.7,12.1-15.7,36.1c-4.9,24.1-7.4,46.3-7.4,66.6c0,7.7,0.7,13.9,2.2,18.6C148.1,320.5,149.9,322.9,152.2,322.9z"/>
		<path class="st0" d="M274.4,311.2c-13.8,34.9-24.5,52.3-32,52.3c-3.4,0-6.2-3.7-8.5-11c-2.3-7.3-3.5-16.3-3.5-27.1
			c0-20,4.2-46.8,12.5-80.4c-4.1,5.4-8.5,9.1-13.4,11.3c-3.6,17-9.2,35.3-16.9,54.9h-1.9v-19.1c4.3-11.5,8.2-23.8,11.6-37
			c-4.7-5.4-7.1-13.4-7.1-24c0-10.9,1.4-22.6,4.3-35c2.9-12.4,6.9-18.6,11.9-18.6c4.3,0,6.4,5.7,6.4,17c0,8.9-1.2,21.7-3.7,38.3
			c9.1-2.6,17.1-20.6,24-54l7.5-0.9l-7.7,54.4c-3.2,23-5.3,38.6-6.2,46.9c-0.9,8.3-1.4,15.6-1.4,22c0,6,0.5,10.7,1.6,14.2
			c1.1,3.5,2.5,5.3,4.3,5.3c2,0,3.9-1.7,5.7-5.2c1.8-3.5,5.9-13.1,12.2-28.8V311.2z"/>
		<path class="st0" d="M355.5,311.2c-12.7,34.6-23.6,51.9-32.7,51.9c-3.7,0-6.7-3.3-8.9-10c-2.3-6.7-3.4-15.6-3.4-26.8
			c0-15.2,2.4-38.3,7.3-69.5c2.6-16.7,3.9-27.4,3.9-31.9c0-4.5-0.7-6.8-2.1-6.8c-0.8,0-1.8,1-3.1,3c-1.2,2-2.5,4.8-4,8.3
			c-1.4,3.3-2.9,7.2-4.6,11.9c-1.5,4-3.1,8.5-4.8,13.6l-4.6,13.8c-2,6.4-3.3,13.1-3.8,20.2c-0.8,12.1-1.4,23.1-1.7,33.2
			c-0.2,7.5-0.2,17.6-0.2,30.4l-18.3,11.1c-0.6-19.1-0.9-33.4-0.9-42.7c0-22.8,1-44.4,3.1-64.9c2.1-20.4,5.4-43.4,10-68.9l20.2-10
			c-4.2,29.3-7,52.5-8.3,69.3c9-25.9,16.2-43.9,21.5-53.9s10-15,14.1-15c2.8,0,5.1,2.7,7,8.2c1.9,5.5,2.8,12.3,2.8,20.5
			c0,13.6-2.4,36-7.1,67.2c-3.2,21.4-4.9,35.3-4.9,41.7c0,8.5,1.4,12.8,4.1,12.8c4,0,10.5-13.7,19.5-41V311.2z"/>
	</g>
	<g>
		<path class="st0" d="M105.8,77.1c0,4.5-0.4,8.3-1.3,11.5c-0.8,3.2-2.1,5.6-3.8,7.3c-1.7,1.6-3.7,2.5-6,2.5c-2.3,0-4.2-0.9-5.8-2.7
			c-1.6-1.8-2.8-4-3.6-6.7c-0.8-2.7-1.2-5.4-1.2-8.1c0-1.8,0.2-3.3,0.7-4.6c0.5-1.3,1.1-1.9,1.9-1.9c0.7,0,1.2,0.4,1.5,1.3
			c0.4,0.8,0.7,2,1,3.5c0.6,2.9,1.4,5.1,2.3,6.5c0.9,1.4,2.1,2.1,3.7,2.1c1.3,0,2.3-0.7,3.1-2.2c0.8-1.4,1.2-3.1,1.2-5
			c0-2.9-0.4-4.9-1.3-6.3c-0.8-1.3-2.2-2.6-4.2-3.8c-2.2-1.4-3.9-2.8-5.3-4.4c-1.4-1.5-2.5-3.5-3.3-6c-0.8-2.5-1.2-5.6-1.2-9.2
			c0-3.3,0.4-6.3,1.1-9.2c0.8-2.9,1.9-5.2,3.3-6.9c1.5-1.7,3.3-2.6,5.3-2.6c1.6,0,3.1,0.4,4.4,1.3c1.3,0.9,2.4,2,3.3,3.5
			c0.9,1.5,1.5,3.1,2,4.9c0.5,1.8,0.7,3.5,0.7,5.2c0,1.9-0.2,3.4-0.7,4.6c-0.5,1.2-1.2,1.8-2.1,1.8c-0.6,0-1.2-0.5-1.7-1.4
			c-0.5-1-1-2.4-1.6-4.3c-0.5-1.6-1-2.9-1.7-3.8s-1.5-1.4-2.6-1.4c-1.1,0-2.1,0.6-2.8,1.9c-0.8,1.3-1.1,2.8-1.1,4.7
			c0,1.7,0.3,3.1,0.8,4.2c0.6,1.1,1.3,2,2.2,2.7c0.9,0.7,2.2,1.6,3.9,2.6c2,1.2,3.6,2.7,4.8,4.4c1.2,1.7,2.2,3.7,2.8,6
			C105.5,71.5,105.8,74.1,105.8,77.1z"/>
		<path class="st0" d="M133.8,78.3c0,2-0.2,4.2-0.7,6.5c-0.5,2.3-1.2,4.5-2.2,6.6c-1,2.1-2.2,3.8-3.6,5c-1.5,1.3-3.1,1.9-5,1.9
			c-3.9,0-6.9-2.9-9.1-8.8c-2.2-5.9-3.3-13.7-3.3-23.5c0-6.7,0.5-12.6,1.5-17.7c1-5.1,2.5-9.1,4.3-11.9c1.9-2.8,4.2-4.2,6.8-4.2
			c1.6,0,3.1,0.6,4.5,1.8c1.4,1.2,2.5,2.8,3.5,4.8c0.9,1.9,1.7,4,2.2,6.2c0.5,2.2,0.8,4.3,0.8,6.2c0,1.9-0.3,3.6-0.8,4.9
			c-0.6,1.4-1.2,2-2,2c-0.5,0-1-0.3-1.3-1c-0.3-0.7-0.7-1.8-1.2-3.4c-0.8-3-1.6-5.3-2.4-6.8c-0.8-1.5-1.9-2.3-3.2-2.3
			c-1.9,0-3.4,1.9-4.5,5.6c-1.1,3.8-1.7,8.9-1.7,15.4c0,3.1,0.1,5.9,0.4,8.4c0.3,2.6,0.7,4.7,1.3,6.5c0.6,1.8,1.2,3.2,2,4.1
			c0.8,0.9,1.6,1.4,2.6,1.4c1.3,0,2.3-0.8,3.3-2.3c0.9-1.5,1.7-3.8,2.4-6.9c0.4-1.8,0.8-3.3,1.2-4.3c0.4-1,1-1.5,1.6-1.5
			c0.8,0,1.4,0.8,1.9,2.3C133.6,74.9,133.8,76.5,133.8,78.3z"/>
		<path class="st0" d="M142.5,24.7c-0.9,0-1.6-0.7-2.3-2.1c-0.6-1.4-0.9-3.4-0.9-5.9c0-2.3,0.3-4.2,1-5.7c0.6-1.5,1.4-2.2,2.2-2.2
			c0.8,0,1.5,0.7,2.2,2c0.6,1.4,0.9,3.3,0.9,5.9c0,2.5-0.3,4.5-0.9,5.9C144.1,24,143.4,24.7,142.5,24.7z M145.6,41.5v47
			c0,3.3-0.3,5.7-0.9,7.4c-0.6,1.7-1.4,2.5-2.3,2.5s-1.7-0.9-2.3-2.6c-0.6-1.7-0.9-4.1-0.9-7.3V42c0-3.2,0.3-5.6,0.9-7.3
			c0.6-1.6,1.3-2.4,2.3-2.4s1.7,0.8,2.3,2.4C145.3,36.4,145.6,38.6,145.6,41.5z"/>
		<path class="st0" d="M167.9,90.9l-5.6-23.6l-3.4,8.3v12.9c0,3.1-0.3,5.5-1,7.2c-0.6,1.7-1.4,2.5-2.2,2.5c-1,0-1.7-0.8-2.3-2.5
			c-0.6-1.7-0.8-4.1-0.8-7.4V19.2c0-3.6,0.3-6.4,0.8-8.2c0.5-1.9,1.3-2.8,2.3-2.8c1,0,1.7,0.9,2.3,2.6c0.6,1.7,0.9,4.2,0.9,7.6v39.4
			l7.1-19.2c0.9-2.4,1.5-4,2-4.9c0.5-0.9,1-1.3,1.7-1.3c0.8,0,1.4,0.6,2,1.9c0.5,1.3,0.8,2.9,0.8,4.9c0,2.4-0.9,5.6-2.6,9.5
			l-3.4,7.9l6.5,26.2c0.5,1.9,0.8,3.4,1,4.4s0.3,2,0.3,2.9c0,2.6-0.3,4.6-0.8,6.1c-0.5,1.5-1.3,2.2-2.2,2.2c-0.8,0-1.4-0.5-1.8-1.6
			S168.6,93.8,167.9,90.9z"/>
		<path class="st0" d="M181.3,24.7c-0.9,0-1.6-0.7-2.3-2.1c-0.6-1.4-0.9-3.4-0.9-5.9c0-2.3,0.3-4.2,1-5.7c0.6-1.5,1.4-2.2,2.2-2.2
			c0.8,0,1.5,0.7,2.2,2c0.6,1.4,0.9,3.3,0.9,5.9c0,2.5-0.3,4.5-0.9,5.9C182.9,24,182.2,24.7,181.3,24.7z M184.5,41.5v47
			c0,3.3-0.3,5.7-0.9,7.4c-0.6,1.7-1.4,2.5-2.3,2.5c-0.9,0-1.7-0.9-2.3-2.6c-0.6-1.7-0.9-4.1-0.9-7.3V42c0-3.2,0.3-5.6,0.9-7.3
			c0.6-1.6,1.3-2.4,2.3-2.4c0.9,0,1.7,0.8,2.3,2.4C184.2,36.4,184.5,38.6,184.5,41.5z"/>
		<path class="st0" d="M191.3,33.7h0.7V24c0-2.6,0-4.7,0.1-6.2c0.1-1.5,0.2-2.8,0.5-3.8c0.2-1.1,0.6-2,1.1-2.7c0.5-0.7,1-1,1.5-1
			c0.8,0,1.5,0.8,2.2,2.3c0.4,1,0.7,2.3,0.8,3.8c0.1,1.5,0.2,3.6,0.2,6.3v11.1h2.3c0.9,0,1.6,0.5,2,1.6c0.5,1.1,0.7,2.5,0.7,4.2
			c0,2.2-0.3,3.7-1,4.6c-0.7,0.9-1.6,1.3-2.9,1.3h-1.2v29.9c0,2.5,0,4.5,0.1,5.9c0.1,1.4,0.3,2.5,0.6,3.3c0.3,0.9,0.8,1.3,1.5,1.3
			c0.4,0,0.9-0.2,1.5-0.5c0.6-0.3,1.1-0.5,1.5-0.5c0.5,0,1,0.5,1.4,1.6c0.4,1.1,0.6,2.4,0.6,3.9c0,2.6-0.6,4.6-1.7,6
			c-1.1,1.4-2.7,2.1-4.8,2.1c-2,0-3.5-0.9-4.5-2.6c-1-1.7-1.7-4.1-2-7.1c-0.3-3-0.5-7-0.5-12.1V45.4h-0.8c-0.9,0-1.6-0.6-2.1-1.7
			c-0.5-1.1-0.7-2.5-0.7-4.2c0-1.7,0.3-3.1,0.8-4.2C189.7,34.3,190.4,33.7,191.3,33.7z"/>
	</g>
</g>
</svg>
