<?xml version="1.0" encoding="utf-8"?>
<!-- Generator: Adobe Illustrator 19.1.0, SVG Export Plug-In . SVG Version: 6.00 Build 0)  -->
<svg version="1.1" id="Layer_1" xmlns="http://www.w3.org/2000/svg" xmlns:xlink="http://www.w3.org/1999/xlink" x="0px" y="0px"
	 viewBox="0 0 363.1 383.1" style="enable-background:new 0 0 363.1 383.1;" xml:space="preserve">
<style type="text/css">
	.st0{fill:#FFFFFF;}
</style>
<g>
	<path class="st0" d="M363,51.2c-3.1,3.1-3.2,7.8-5.3,11.5c-11.6,20.7-36.6,27.2-55.8,13.8c-4.3-3-6.3-2.7-9.8,1
		c-18.1,19.4-36.3,38.7-54.7,57.8c-3.5,3.6-3.8,5.9-1.2,10.4c10.7,18.8,10.6,38.2,0.2,57.1c-2.5,4.5-2.7,6.8,1,10.5
		c14.1,14.4,27.9,29.1,41.7,43.9c2.9,3.1,5,4.4,9.6,2.6c11.9-4.7,24.3,0.4,30.7,11.5c6.4,11.1,4.7,25.1-4.1,34.2
		c-8.9,9.2-21.8,10.6-32.5,3.4c-10.3-6.9-14.6-19.8-10.1-32.7c1.4-4,0.5-6-1.9-8.6c-14.5-15.2-29-30.4-43.3-45.7
		c-2.7-2.9-4.7-3.3-7.9-0.8c-4.1,3.3-8.9,6-13.8,6.5c-7.5,0.7-7.9,4.9-7.8,11.3c0.3,18.4,0.1,36.9,0.1,55.3c0,3.4-0.4,6,4.2,7.5
		c18.5,6.3,28.6,21.1,28.6,40.3c-0.1,18.3-10.7,33.1-28.6,39.6c-0.9,0.3-2.2,0.1-2.1,1.7c-5.4,0-10.8,0-16.1,0
		c-0.6-0.5-1.1-1.2-1.8-1.4c-18.5-5.7-30.1-20.8-30.4-39.8c-0.3-18.3,10.8-34.4,28.7-40.3c4.2-1.4,4.7-3.4,4.7-7.2
		c-0.1-18.1-0.4-36.3,0.1-54.4c0.3-7.7-1.3-11.8-9.2-12.9c-4.3-0.6-8.8-3-12.3-5.8c-4.1-3.2-6.1-1.9-9.1,1.4
		c-25,26.5-50,53-75.2,79.3c-3.6,3.8-4.7,6.5-2.7,12.1c6.5,18.5-0.5,38.2-16.2,48.7c-15.2,10.1-35,8-48.3-5.1
		C6,351.4,3.4,343.2,0,335.4c0-5.7,0-11.3,0-17c5.4-14.3,13-26.3,28-30.8c12-3.7,23.6-2.3,33.6,5.5c4.2,3.3,6,2.1,9-1.1
		c25-26.6,50-53,75.2-79.3c2.9-3.1,3.4-5,1.1-9c-11.3-19.6-11.2-39.6,0.2-59.2c2.1-3.6,1.8-5.4-0.9-8.2
		c-14.5-15.1-29-30.3-43.2-45.7c-3-3.3-5.4-3-9-1.7c-14.2,5.1-28.1-2.2-33-16.8C56.3,57.4,63.2,42,76.8,36.8
		c13.6-5.3,28.3,1.9,33.4,16.4c2.2,6.3,2.6,12.9,0,19c-1.6,3.8-0.8,6,1.8,8.7c14.4,14.9,28.6,29.9,42.7,45.1
		c2.9,3.1,4.8,3.8,8.6,1.4c18.6-11.9,37.6-11.8,56.1,0.1c3.6,2.3,5.3,1.8,8-1.1c19.1-20.3,38.3-40.5,57.5-60.8
		c1.8-1.9,3.4-3.2,2.3-7C279,30.1,287.7,11.7,314,1.4c0.3-0.1,0.4-0.9,0.6-1.3c5.4,0,10.8,0,16.1,0c16.6,5.2,27.2,16.7,32.3,34
		C363,39.8,363,45.5,363,51.2z M230.9,174.8c0-23.7-17.1-42.2-39.2-42.5c-22-0.3-40.1,18.5-40,41.7c0.1,23.4,17.8,42.2,39.6,42.2
		C212.9,216.2,230.9,197.3,230.9,174.8z M323.1,69.8c14.6,0.1,26.8-12.5,26.9-27.6C350,27,338,14,323.6,13.8
		c-14.5-0.2-26.7,12.4-26.7,27.7C296.8,57.1,308.5,69.7,323.1,69.8z M39.5,299.7c-14.8,0-26.7,12.6-26.4,28.1
		c0.2,15.3,12.6,28,27.1,27.8c14.2-0.3,26-13,26-27.9C66.1,311.9,54.4,299.6,39.5,299.7z M191.4,313.4c-14.6,0-26.8,12.8-26.6,28.1
		c0.2,15,12,27.6,26.1,27.9c14.6,0.3,26.8-12.4,26.9-27.8C217.8,325.9,206.1,313.4,191.4,313.4z M310.1,285.6
		c0-7.8-5.8-14.1-13.1-14.1c-7.2,0-13.1,6.3-13.1,14c0,7.9,5.7,14,13,14C304.1,299.6,310.1,293.3,310.1,285.6z M99,63.7
		c0.4-7.7-5.1-14.4-12.4-14.9c-7.3-0.6-13.7,5.4-14,13c-0.4,8,4.9,14.4,12.2,14.9C92.2,77.1,98.6,71.3,99,63.7z"/>
</g>
</svg>
