<?xml version="1.0" encoding="utf-8"?>
<!-- Generator: Adobe Illustrator 19.1.0, SVG Export Plug-In . SVG Version: 6.00 Build 0)  -->
<svg version="1.1" id="Layer_1" xmlns="http://www.w3.org/2000/svg" xmlns:xlink="http://www.w3.org/1999/xlink" x="0px" y="0px"
	 viewBox="0 0 361 381" style="enable-background:new 0 0 361 381;" xml:space="preserve">
<style type="text/css">
	.st0{fill:none;stroke:#FFFFFF;stroke-width:6;stroke-miterlimit:10;}
</style>
<g>
	<g id="layer1_1_" transform="translate(-77.942529,-177.00005)">
		<g id="g4550_1_">
			<path id="path4508_1_" class="st0" d="M284.3,240.3v56.3l98.2,56.3v-56.3L284.3,240.3z M87.9,296.6v56.3l49.1,28.1v-56.3
				L87.9,296.6z M235.2,324.8l-49.1,28.2v168.9l49.1,28.2V437.4l49.1,28.2v-56.3l-49.1-28.2V324.8z"/>
			<path id="path4491_1_" class="st0" d="M284.3,240.3L137,324.8v56.3l98.2-56.3v56.3l49.1-28.1V240.3z M431.5,268.5l-49.1,28.2
				v56.3l49.1-28.2V268.5z M333.3,381.1l-49.1,28.2v56.3l49.1-28.2V381.1z M284.3,465.5l-49.1-28.2V550l49.1-28.2V465.5z"/>
			<path id="path4506_1_" class="st0" d="M284.3,184L87.9,296.6l49.1,28.2l147.2-84.5l98.2,56.3l49.1-28.2L284.3,184z M284.3,352.9
				l-49.1,28.1l49.1,28.2l49.1-28.2L284.3,352.9z"/>
		</g>
	</g>
</g>
</svg>
