<?xml version="1.0" encoding="utf-8"?>
<!-- Generator: Adobe Illustrator 19.1.0, SVG Export Plug-In . SVG Version: 6.00 Build 0)  -->
<svg version="1.1" id="Layer_1" xmlns="http://www.w3.org/2000/svg" xmlns:xlink="http://www.w3.org/1999/xlink" x="0px" y="0px"
	 viewBox="0 0 359 377" style="enable-background:new 0 0 359 377;" xml:space="preserve">
<style type="text/css">
	.st0{fill:#FFFFFF;}
	.st1{fill:none;stroke:#FFFFFF;stroke-width:0;stroke-linecap:round;stroke-linejoin:round;}
</style>
<g>
	<path class="st0" d="M66.7,129.4c-0.4,1.2-0.6,2.4-0.5,3.6c0,2.1,0.6,3.8,1.5,5.2c-1-1.4-1.6-3.1-1.5-5.2
		C66,131.7,66.3,130.5,66.7,129.4z"/>
	<g>
		<path class="st1" d="M0.7,172.3c0,9.3,0.7,18.5,2.2,27.6c3.2,20.4,9.6,39.7,19.4,57.9c4.3,8,9.3,15.5,14.8,22.7
			c4.2,5.4,8.8,10.5,13.6,15.4c5.3,5.4,11,10.4,17,15.1c3.8,3,7.9,5.6,11.9,8.3c3.8,2.6,8,4.5,11.9,6.8c5.6,3.2,11.7,5.4,17.7,7.9
			c8.3,3.5,17.2,5.6,26,7.3c20.3,3.7,40.6,4,60.8-0.7c9-2.1,17.9-4.1,26.4-7.9c6.5-2.9,13.1-5.4,19.1-9.1c3.4-2.1,6.9-4,10.2-6.2
			c5.6-3.7,10.9-7.9,16.1-12.1c0.9-0.7,1.3-0.6,2,0.2c1.8,1.9,3.6,3.9,5.5,5.8c4.8,5,9.6,10.1,14.4,15.1c5,5.2,10,10.4,14.9,15.7
			c4.2,4.5,8.6,8.9,12.9,13.3c0.2,0.2,0.3,0.3,0.5,0.5c5.3,5.7,10.6,11.5,16.1,17c5.6,5.7,17.4,6,22.8-3.5c1.9-3.4,2.5-6.9,2-10.7
			c-0.5-4.6-3.3-7.7-6.3-10.8c-5.3-5.5-10.4-11-15.7-16.4c-4.5-4.7-9-9.5-13.5-14.2c-5.1-5.3-10.1-10.6-15.2-15.9
			c-4.2-4.5-8.6-8.7-12.8-13.2c-1.6-1.8-3.3-3.5-5-5.3c-0.4-0.4-0.7-0.8-0.2-1.4c0.7-0.9,1.3-1.9,2-2.8c3.8-4.8,7.1-9.9,10.3-15.2
			c3-4.9,5.7-10,8.2-15.2c4.8-10.1,8.5-20.6,11.3-31.5c2.7-10.6,4.4-21.4,5.2-32.4c0.8-11.5,0.4-22.9-1-34.3
			c-1.7-13.8-5.1-27.2-9.7-40.3c-2.8-7.7-6.3-15.1-10.1-22.3c-4.4-8.2-9.5-15.9-15.2-23.3C287,59,282.5,54,277.8,49.2
			c-5.3-5.5-11.1-10.5-17.1-15.2c-3.5-2.7-7.2-5.2-10.8-7.7c-4.1-2.8-8.7-5-13-7.5c-5.3-3.1-11.2-5.2-16.8-7.6
			c-8.3-3.5-17-5.7-25.8-7.5c-21.3-4.2-42.6-4.4-63.8,0.8c-8.5,2.1-16.9,4-24.9,7.7c-5.6,2.6-11.4,4.6-16.7,7.9
			c-4.1,2.6-8.6,4.6-12.5,7.6c-3.5,2.7-7.3,5-10.7,7.8c-5.9,4.8-11.6,9.9-16.9,15.4c-4.7,4.9-9,10-13.1,15.4
			c-3.8,5-7.2,10.2-10.4,15.6c-4.4,7.4-8.2,15-11.4,22.9c-4.1,9.9-7.1,20.1-9.3,30.6C2,147.6,0.7,159.9,0.7,172.3z"/>
		<path class="st1" d="M0.3,2.1c0.1,62.3,0,124.6,0,187s0,124.6,0,187c0,1.4,0.4,1.7,1.7,1.7c118.6,0,237.2,0,355.8,0
			c1.5,0,1.9-0.2,1.9-1.8c0-124.6,0-249.2,0-373.8c0-1.5-0.4-1.8-1.8-1.8c-118.6,0-237.2,0-355.8,0C0.7,0.3,0.3,0.5,0.3,2.1z"/>
	</g>
	<path class="st0" d="M352.5,348c-5.3-5.5-10.4-11-15.7-16.4c-4.5-4.7-9-9.5-13.5-14.2c-5.1-5.3-10.1-10.6-15.2-15.9
		c-4.2-4.5-8.6-8.7-12.8-13.2c-1.6-1.8-3.3-3.5-5-5.3c-0.4-0.4-0.7-0.8-0.2-1.4c0.7-0.9,1.3-1.9,2-2.8c3.8-4.8,7.1-9.9,10.3-15.2
		c3-4.9,5.7-10,8.2-15.2c4.8-10.1,8.5-20.6,11.3-31.5c2.7-10.6,4.4-21.4,5.2-32.4c0.8-11.5,0.4-22.9-1-34.3
		c-1.7-13.8-5.1-27.2-9.7-40.3c-2.8-7.7-6.3-15.1-10.1-22.3c-4.4-8.2-9.5-15.9-15.2-23.3C287,59,282.5,54,277.8,49.2
		c-5.3-5.5-11.1-10.5-17.1-15.2c-3.5-2.7-7.2-5.2-10.8-7.7c-4.1-2.8-8.7-5-13-7.5c-5.3-3.1-11.2-5.2-16.8-7.6
		c-8.3-3.5-17-5.7-25.8-7.5c-21.3-4.2-42.6-4.4-63.8,0.8c-8.5,2.1-16.9,4-24.9,7.7c-5.6,2.6-11.4,4.6-16.7,7.9
		c-4.1,2.6-8.6,4.6-12.5,7.6c-3.5,2.7-7.3,5-10.7,7.8c-5.9,4.8-11.6,9.9-16.9,15.4c-4.7,4.9-9,10-13.1,15.4
		c-3.8,5-7.2,10.2-10.4,15.6c-4.4,7.4-8.2,15-11.4,22.9c-4.1,9.9-7.1,20.1-9.3,30.6c-2.6,12.2-3.9,24.5-3.9,37
		c0,9.3,0.7,18.5,2.2,27.6c3.2,20.4,9.6,39.7,19.4,57.9c4.3,8,9.3,15.5,14.8,22.7c4.2,5.4,8.8,10.5,13.6,15.4
		c5.3,5.4,11,10.4,17,15.1c3.8,3,7.9,5.6,11.9,8.3c3.8,2.6,8,4.5,11.9,6.8c5.6,3.2,11.7,5.4,17.7,7.9c8.3,3.5,17.2,5.6,26,7.3
		c20.3,3.7,40.6,4,60.8-0.7c9-2.1,17.9-4.1,26.4-7.9c6.5-2.9,13.1-5.4,19.1-9.1c3.4-2.1,6.9-4,10.2-6.2c5.6-3.7,10.9-7.9,16.1-12.1
		c0.9-0.7,1.3-0.6,2,0.2c1.8,1.9,3.6,3.9,5.5,5.8c4.8,5,9.6,10.1,14.4,15.1c5,5.2,10,10.4,14.9,15.7c4.2,4.5,8.6,8.9,12.9,13.3
		c0.2,0.2,0.3,0.3,0.5,0.5c5.3,5.7,10.6,11.5,16.1,17c5.6,5.7,17.4,6,22.8-3.5c1.9-3.4,2.5-6.9,2-10.7
		C358.3,354.3,355.4,351.1,352.5,348z M284.4,233.2c-2.3,5.1-4.9,10-7.8,14.8c-3.4,5.6-7.2,10.9-11.4,16c-4.2,5.2-8.9,9.9-13.8,14.4
		c-6.6,6.1-13.8,11.3-21.5,16c-4.8,2.9-9.8,5.2-14.8,7.6c-8.1,4-16.9,5.9-25.6,7.9c-16.1,3.8-32.3,3.7-48.5,0.6
		c-8.8-1.6-17.5-3.8-25.8-7.4c-5.1-2.3-10.2-4.5-14.9-7.4c-4-2.5-8-5-11.8-7.7c-3.3-2.3-6.5-4.9-9.5-7.6
		c-5.2-4.6-10.1-9.6-14.6-14.9c-4.1-4.9-7.9-10-11.3-15.4c-6.1-9.6-11.1-19.9-14.8-30.7c-5.1-15.3-7.6-31-7.7-49.1
		c0.1-13.2,2.2-28.1,6.8-42.6c2.6-8,5.8-15.7,9.7-23.1c2.8-5.3,5.9-10.3,9.3-15.2c3.9-5.6,8.3-10.7,13-15.7
		c5.3-5.6,11-10.7,17.1-15.4c3.7-2.9,7.8-5.1,11.6-7.8c4.6-3.2,9.8-5.1,14.8-7.6c8-4,16.7-6,25.4-8c16.4-3.9,32.8-3.7,49.2-0.6
		c8.7,1.6,17.3,3.8,25.4,7.4c5.2,2.3,10.5,4.6,15.4,7.6c3.9,2.4,7.8,4.8,11.5,7.6c6.2,4.6,12.1,9.7,17.5,15.3
		c4.4,4.5,8.5,9.3,12.3,14.3c7.3,9.9,13.2,20.5,17.7,31.9c4.8,12.1,7.9,24.6,9.3,37.6c1.4,13,1.2,25.9-0.8,38.8
		C293.9,208.2,290,220.9,284.4,233.2z"/>
	<path class="st0" d="M130,87.6c-4.1,2.2-8.4,3.9-12.2,6.7c-3.8,2.8-7.8,5.3-11.2,8.6c-5,4.8-9.6,9.9-13.6,15.6
		c-3.8,5.5-7.2,11.2-9.3,17.6c-1.3,3.9-6.6,7.3-9.7,6.4c-1.2-0.4-2.4-0.9-3.5-1.6c-0.4-0.3-0.9-0.6-1.3-0.9
		c-0.3-0.3-0.6-0.5-0.8-0.8c-0.2-0.3-0.5-0.5-0.7-0.8c-1-1.4-1.6-3.1-1.5-5.2c-0.1-1.3,0.1-2.5,0.5-3.6c0.1-0.4,0.3-0.8,0.4-1.1
		c0.4-0.9,0.8-1.8,1.2-2.7c3.3-7.4,7.4-14.3,12.2-20.9c4.1-5.6,8.7-10.7,13.8-15.4c2.8-2.7,6-4.9,8.9-7.4c3.8-3.3,8.3-5.6,12.6-8.1
		c2.2-1.3,4.5-2.5,6.9-3.5c2-0.9,4-1,6.1-0.6c3.9,0.9,6.3,4.2,6.8,8.1C136.1,81.8,133.8,85.5,130,87.6z M269.8,175.9
		c-0.4,11.6-2.4,22.8-6.1,33.8c-2.8,8.2-6.4,16.1-11,23.5c-3.3,5.4-7,10.4-11.2,15.2c-5.2,5.9-11,11-17.3,15.7c-3.8,2.8-8,5-12,7.4
		c-6,3.6-12.6,5.5-19.1,7.8c-9.3,3.2-18.9,4.2-28.6,4.4c-4.9,0.1-8.4-3.1-9.2-8.1c-0.7-4.3,1.6-8.4,5.7-9.9c0.9-0.3,1.9-0.5,2.8-0.6
		c11.4-0.7,22.6-2.4,33.1-7c5.2-2.3,10.4-4.9,15.1-8.2c3.1-2.2,6.2-4.5,9-7c7.6-6.8,13.9-14.7,19-23.5c5.4-9.4,8.6-19.7,10.7-30.4
		c1-5.4,1.4-10.9,1.5-16.3c0-4.1,1.8-7.4,5.6-9c6.2-2.6,11.4,1.9,12.1,7.6C270,172.7,269.8,174.3,269.8,175.9z"/>
	<path class="st0" d="M257.6,163.6c-3.7,1.6-5.5,4.9-5.6,9c-0.1,5.5-0.4,11-1.5,16.3c-2,10.7-5.2,20.9-10.7,30.4
		c-5.1,8.8-11.4,16.7-19,23.5c-2.8,2.5-5.9,4.8-9,7c-4.7,3.3-9.8,5.9-15.1,8.2c-10.5,4.6-21.7,6.3-33.1,7c-1,0.1-1.9,0.2-2.8,0.6
		c-4.1,1.5-6.4,5.6-5.7,9.9c0.8,5,4.3,8.2,9.2,8.1c9.7-0.2,19.3-1.1,28.6-4.4c6.5-2.3,13.1-4.2,19.1-7.8c4-2.5,8.2-4.6,12-7.4
		c6.3-4.7,12.1-9.8,17.3-15.7c4.2-4.7,7.9-9.8,11.2-15.2c4.6-7.4,8.2-15.2,11-23.5c3.8-11,5.8-22.2,6.1-33.8c0-1.6,0.2-3.2,0-4.7
		C269,165.5,263.8,161,257.6,163.6z"/>
	<path class="st0" d="M128.7,69.7c-2.1-0.5-4.1-0.3-6.1,0.6c-2.4,1-4.6,2.2-6.9,3.5c-4.3,2.6-8.8,4.8-12.6,8.1
		c-2.9,2.5-6.1,4.7-8.9,7.4c-5.1,4.7-9.7,9.8-13.8,15.4c-4.8,6.5-8.8,13.5-12.2,20.9c-0.4,0.9-0.8,1.8-1.2,2.7
		c-0.2,0.4-0.3,0.8-0.4,1.1c-0.4,1.2-0.6,2.4-0.5,3.6c0,2.1,0.6,3.8,1.5,5.2c0.2,0.3,0.4,0.6,0.7,0.8c0.3,0.3,0.5,0.6,0.8,0.8
		c0.4,0.3,0.8,0.7,1.3,0.9c1.1,0.7,2.3,1.2,3.5,1.6c3.1,0.9,8.4-2.5,9.7-6.4c2.1-6.4,5.5-12.1,9.3-17.6c4-5.7,8.5-10.8,13.6-15.6
		c3.4-3.2,7.4-5.8,11.2-8.6c3.8-2.7,8.1-4.5,12.2-6.7c3.8-2.1,6.1-5.8,5.5-9.8C135,73.8,132.6,70.5,128.7,69.7z"/>
</g>
</svg>
