<?xml version="1.0" encoding="utf-8"?>
<!-- Generator: Adobe Illustrator 19.1.0, SVG Export Plug-In . SVG Version: 6.00 Build 0)  -->
<svg version="1.1" id="Layer_1" xmlns="http://www.w3.org/2000/svg" xmlns:xlink="http://www.w3.org/1999/xlink" x="0px" y="0px"
	 viewBox="0 0 360 380" style="enable-background:new 0 0 360 380;" xml:space="preserve">
<style type="text/css">
	.st0{fill:#FFFFFF;}
</style>
<g>
	<path class="st0" d="M172.8,375c-42.4-0.8-84.5-18.2-118.9-53.9C19.5,285.5,2.1,241.9,2,191.6c-0.1-49.5,16.8-92.5,50.1-128
		C86.8,26.7,129.4,8,179,8c49,0,91.3,18.3,125.8,54.5c34.5,36.2,51.6,80.2,51.1,130.9C355.1,293.3,276.9,374.8,172.8,375z M173,364
		c98-0.1,171.7-76.8,172.5-170.8c0.4-47.4-15.5-88.6-47.6-122.5C265.4,36.4,225.4,19,179.1,19c-45.5-0.1-85,16.8-117.3,50.1
		c-32.6,33.6-49.2,74.8-49.2,122.4c0,47,16.2,87.7,48.1,121.2C93.1,346.7,132.9,363.3,173,364z"/>
	<path class="st0" d="M252.6,189.1c-3,2.4-5.7,4.6-8.5,6.9c-7.2,5.8-14.4,11.6-21.5,17.4c-3.3,2.6-2.9,7.6,0.7,9.4
		c2.2,1.1,4.2,0.5,6.1-1c11.7-9.5,23.4-18.9,35.2-28.4c3.7-3,3.5-7.2-0.5-9.8c-5.9-3.8-11.8-7.7-17.7-11.5
		c-5.9-3.8-11.8-7.6-17.6-11.5c-3-1.9-6.6-0.8-7.9,2.4c-1,2.5-0.2,5.3,2.2,6.8c7.1,4.7,14.3,9.3,21.5,14
		C247,185.5,249.7,187.3,252.6,189.1z M137.2,165c-0.1-2.1-1-3.8-3-4.8c-2.1-1-4-0.7-5.8,0.7c-11.8,9.5-23.7,19.1-35.5,28.6
		c-3.7,3-3.5,7.2,0.5,9.8c6.2,4.1,12.5,8.1,18.7,12.2c5.6,3.6,11.1,7.2,16.7,10.8c3.4,2.2,7.6,0.4,8.3-3.7c0.4-2.2-0.7-4.3-2.9-5.8
		c-9.4-6.1-18.9-12.3-28.4-18.4c-0.8-0.5-1-0.8-0.1-1.5c1.9-1.4,3.7-3,5.6-4.5c7.8-6.3,15.5-12.5,23.3-18.8
		C136.2,168.5,137.2,167.1,137.2,165z M191.1,147.6c-2.5,0-4.2,1.3-5.1,3.9c-1,2.9-2,5.7-3,8.6c-7.7,22.4-15.4,44.8-23,67.2
		c-0.4,1.2-0.7,2.4-0.4,3.7c0.6,2.5,2.5,4.2,4.9,4.4c2.4,0.2,4.5-1.4,5.4-3.9c5.9-17.3,11.9-34.6,17.8-51.9
		c2.8-8.1,5.6-16.2,8.4-24.4C197.3,151.2,195,147.6,191.1,147.6z"/>
	<path class="st0" d="M252.6,189.1c-2.8-1.8-5.5-3.6-8.2-5.4c-7.2-4.7-14.3-9.3-21.5-14c-2.4-1.5-3.2-4.3-2.2-6.8
		c1.3-3.2,4.9-4.3,7.9-2.4c5.9,3.8,11.8,7.6,17.6,11.5c5.9,3.8,11.8,7.7,17.7,11.5c4,2.6,4.2,6.9,0.5,9.8
		c-11.7,9.5-23.5,18.9-35.2,28.4c-1.9,1.5-3.9,2.1-6.1,1c-3.6-1.8-4-6.8-0.7-9.4c7.2-5.8,14.4-11.6,21.5-17.4
		C246.8,193.7,249.6,191.5,252.6,189.1z"/>
	<path class="st0" d="M137.2,165c-0.1,2.1-1,3.6-2.5,4.8c-7.8,6.3-15.6,12.5-23.3,18.8c-1.9,1.5-3.7,3-5.6,4.5
		c-0.9,0.7-0.7,0.9,0.1,1.5c9.5,6.1,18.9,12.2,28.4,18.4c2.2,1.4,3.3,3.5,2.9,5.8c-0.7,4-4.8,5.9-8.3,3.7
		c-5.6-3.6-11.1-7.2-16.7-10.8c-6.2-4.1-12.5-8.1-18.7-12.2c-4-2.6-4.2-6.8-0.5-9.8c11.8-9.5,23.7-19.1,35.5-28.6
		c1.8-1.4,3.7-1.7,5.8-0.7C136.2,161.1,137.1,162.9,137.2,165z"/>
	<path class="st0" d="M191.1,147.6c3.8,0,6.2,3.6,4.9,7.5c-2.8,8.1-5.6,16.2-8.4,24.4c-5.9,17.3-11.9,34.6-17.8,51.9
		c-0.9,2.5-3,4.1-5.4,3.9c-2.4-0.2-4.4-1.9-4.9-4.4c-0.3-1.3,0-2.5,0.4-3.7c7.7-22.4,15.4-44.8,23-67.2c1-2.9,2-5.7,3-8.6
		C186.9,148.9,188.7,147.6,191.1,147.6z"/>
</g>
</svg>
